<?xml version="1.0" encoding="UTF-8" standalone="no"?>
<!-- Created with Inkscape (http://www.inkscape.org/) -->

<svg
   xmlns:dc="http://purl.org/dc/elements/1.1/"
   xmlns:cc="http://creativecommons.org/ns#"
   xmlns:rdf="http://www.w3.org/1999/02/22-rdf-syntax-ns#"
   xmlns:svg="http://www.w3.org/2000/svg"
   xmlns="http://www.w3.org/2000/svg"
   xmlns:sodipodi="http://sodipodi.sourceforge.net/DTD/sodipodi-0.dtd"
   xmlns:inkscape="http://www.inkscape.org/namespaces/inkscape"
   width="20"
   height="20"
   id="svg6643"
   version="1.1"
   inkscape:version="0.48.4 r9939"
   sodipodi:docname="PastLink.svg">
  <defs
     id="defs6645" />
  <sodipodi:namedview
     id="base"
     pagecolor="#000000"
     bordercolor="#666666"
     borderopacity="1.0"
     inkscape:pageopacity="1"
     inkscape:pageshadow="2"
     inkscape:zoom="5.6"
     inkscape:cx="22.254991"
     inkscape:cy="-16.566932"
     inkscape:document-units="px"
     inkscape:current-layer="layer1"
     showgrid="false"
     inkscape:window-width="1600"
     inkscape:window-height="844"
     inkscape:window-x="0"
     inkscape:window-y="28"
     inkscape:window-maximized="1" />
  <metadata
     id="metadata6648">
    <rdf:RDF>
      <cc:Work
         rdf:about="">
        <dc:format>image/svg+xml</dc:format>
        <dc:type
           rdf:resource="http://purl.org/dc/dcmitype/StillImage" />
        <dc:title></dc:title>
      </cc:Work>
    </rdf:RDF>
  </metadata>
  <g
     inkscape:label="Layer 1"
     inkscape:groupmode="layer"
     id="layer1"
     transform="translate(0,-1032.3622)">
    <path
       style="fill:#ffffff"
       inkscape:connector-curvature="0"
       d="m 1.5275153,1032.4395 c 0.4769882,-0.1288 0.999871,-0.074 1.4380213,0.1592 0.5167323,0.2653 0.9075458,0.7675 1.0446386,1.3399 0.1169414,0.4641 0.058832,0.9657 -0.1394416,1.3984 0.3190924,0.3033 0.6740219,0.564 0.9936266,0.8646 1.2210099,1.0442 2.4384967,2.0918 3.6563211,3.1404 0.2222207,-0.2016 0.4704414,-0.3786 0.7542199,-0.4743 0.5455342,-0.1997 1.1742218,-0.1436 1.6774278,0.1506 0.174964,0.1 0.320532,0.231 0.468987,0.3641 1.246688,-1.0686 2.489369,-2.1407 3.734219,-3.2104 0.29902,-0.3102 0.662511,-0.5456 0.973323,-0.8401 -0.01093,-0.024 -0.01093,-0.039 -0.01093,-0.055 -0.152099,-0.3533 -0.212329,-0.7491 -0.157714,-1.1338 0.06584,-0.4766 0.298344,-0.9272 0.650333,-1.2482 0.352614,-0.3269 0.823031,-0.5167 1.299756,-0.5316 0.509575,-0.029 1.022856,0.1731 1.403293,0.519 0.39403,0.352 0.643353,0.8621 0.679923,1.3942 0.02948,0.3781 -0.04915,0.7621 -0.218549,1.0962 -0.238505,0.482 -0.671364,0.8547 -1.174552,1.0204 -0.493862,0.1655 -1.050393,0.1264 -1.517267,-0.1099 -0.109343,-0.055 -0.210573,-0.1226 -0.314665,-0.1835 -0.340938,0.2708 -0.647273,0.5855 -0.995026,0.8509 -1.286394,1.1082 -2.576395,2.2134 -3.86281,3.3245 0.103312,0.4618 0.07538,0.9571 -0.124087,1.386 -0.243443,0.5538 -0.738747,0.9773 -1.311464,1.1373 -0.01164,1.5485 -0.0104,3.1006 -0.01164,4.6496 0.0104,0.2854 -0.01164,0.5691 0.01164,0.8516 0.413,0.1174 0.788044,0.3643 1.053985,0.7084 0.308848,0.391 0.468848,0.9006 0.438566,1.4066 -0.02924,0.5431 -0.279473,1.0669 -0.682472,1.4267 -0.365079,0.3325 -0.852603,0.5216 -1.3420703,0.5189 -0.4905217,0.01 -0.9791262,-0.1859 -1.344986,-0.5189 -0.3009646,-0.2654 -0.5188829,-0.6319 -0.6195804,-1.023 -0.130407,-0.5021 -0.065934,-1.0522 0.1778253,-1.5029 0.2674185,-0.5155 0.7603829,-0.8952 1.3137194,-1.0343 0.010418,-1.821 0.010418,-3.6436 -0.010418,-5.4656 -0.4217781,-0.1133 -0.81229,-0.3486 -1.088685,-0.6934 -0.3772435,-0.4578 -0.5425809,-1.0873 -0.43765,-1.6733 0.010418,-0.091 0.090121,-0.209 0.010418,-0.2752 -0.9364989,-0.803 -1.8726951,-1.6097 -2.8088686,-2.4163 -0.4624296,-0.4151 -0.9449405,-0.8087 -1.416405,-1.2179 -0.1636631,-0.1511 -0.33786,-0.29 -0.5088598,-0.4316 -0.3364764,0.2363 -0.7387085,0.3801 -1.1491381,0.383 -0.5773368,0.025 -1.15383592,-0.2423 -1.53783543,-0.6805 -0.33427861,-0.3758 -0.52423195,-0.8769 -0.5226505160868,-1.3827 C -0.01039161,1033.9284 0.18228258,1033.4321 0.50872401,1033.0596 c 0.26377871,-0.3069 0.61991789,-0.5281 1.00673099,-0.6301 z"
       id="path3047-6" />
  </g>
</svg>
