<?xml version="1.0" encoding="utf-8"?>
<!-- Generated by IcoMoon.io -->
<!DOCTYPE svg PUBLIC "-//W3C//DTD SVG 1.1//EN" "http://www.w3.org/Graphics/SVG/1.1/DTD/svg11.dtd">
<svg version="1.1" xmlns="http://www.w3.org/2000/svg" xmlns:xlink="http://www.w3.org/1999/xlink" width="20" height="20" viewBox="0 0 20 20">
	<path d="M7 9h-6c-0.552 0-1 0.448-1 1s0.448 1 1 1h6c0.552 0 1-0.448 1-1s-0.448-1-1-1zM7 13h-6c-0.552 0-1 0.447-1 1s0.448 1 1 1h6c0.552 0 1-0.447 1-1s-0.448-1-1-1zM19.4 9h-3.4v-3.4c0-0.552-0.447-0.6-1-0.6s-1 0.048-1 0.6v3.4h-3.3c-0.553 0-0.6 0.448-0.6 1s0.048 1 0.601 1h3.299v3.4c0 0.552 0.447 0.6 1 0.6s1-0.048 1-0.6v-3.4h3.4c0.552 0 0.6-0.448 0.6-1s-0.048-1-0.6-1zM7 5h-6c-0.552 0-1 0.448-1 1s0.448 1 1 1h6c0.552 0 1-0.448 1-1s-0.448-1-1-1z" fill="#ffffff" />
</svg>
