<?xml version="1.0" encoding="utf-8"?>
<!-- Generated by IcoMoon.io -->
<!DOCTYPE svg PUBLIC "-//W3C//DTD SVG 1.1//EN" "http://www.w3.org/Graphics/SVG/1.1/DTD/svg11.dtd">
<svg version="1.1" xmlns="http://www.w3.org/2000/svg" xmlns:xlink="http://www.w3.org/1999/xlink" width="20" height="20" viewBox="0 0 20 20">
	<path d="M10 20c-5.522 0-10-4.477-10-10s4.478-10 10-10c5.523 0 10 4.477 10 10s-4.477 10-10 10zM10 2.5c-4.142 0-7.5 3.358-7.5 7.5s3.358 7.5 7.5 7.5c4.142 0 7.5-3.358 7.5-7.5s-3.358-7.5-7.5-7.5zM11.25 15h-2.5v-3.75h-3.75v-2.5h3.75v-3.75h2.5v3.75h3.75v2.5h-3.75v3.75z" fill="#ffffff" />
</svg>
