<?xml version="1.0" encoding="utf-8"?>
<!-- Generated by IcoMoon.io -->
<!DOCTYPE svg PUBLIC "-//W3C//DTD SVG 1.1//EN" "http://www.w3.org/Graphics/SVG/1.1/DTD/svg11.dtd">
<svg version="1.1" xmlns="http://www.w3.org/2000/svg" xmlns:xlink="http://www.w3.org/1999/xlink" width="20" height="20" viewBox="0 0 20 20">
	<path d="M18.75 5c0.69 0 1.25-0.56 1.25-1.25v-2.5h-2.5v-1.25h-16.25c-0.688 0-1.25 0.562-1.25 1.25v17.5c0 0.688 0.562 1.25 1.25 1.25h16.25v-5h1.25c0.69 0 1.25-0.56 1.25-1.25v-2.5h-2.5v-1.25h1.25c0.69 0 1.25-0.56 1.25-1.25v-2.5h-2.5v-1.25h1.25zM11.25 5.006c1.377 0 2.494 1.116 2.494 2.494s-1.116 2.494-2.494 2.494c-1.377 0-2.494-1.116-2.494-2.494s1.116-2.494 2.494-2.494zM5 18.75h-1.25v-17.5h1.25v17.5zM15 15h-7.5v-1.25c0-1.381 1.119-2.5 2.5-2.5v0h2.5c1.381 0 2.5 1.119 2.5 2.5v1.25z" fill="#ffffff" />
</svg>
