<?xml version="1.0" encoding="utf-8"?>
<!-- Generated by IcoMoon.io -->
<!DOCTYPE svg PUBLIC "-//W3C//DTD SVG 1.1//EN" "http://www.w3.org/Graphics/SVG/1.1/DTD/svg11.dtd">
<svg version="1.1" xmlns="http://www.w3.org/2000/svg" xmlns:xlink="http://www.w3.org/1999/xlink" width="20" height="20" viewBox="0 0 20 20">
	<path d="M17.5 5h-3.75v-2.5c0-0.688-0.563-1.25-1.25-1.25h-5c-0.688 0-1.25 0.563-1.25 1.25v2.5h-3.75c-1.375 0-2.5 1.125-2.5 2.5v10c0 1.375 1.125 2.5 2.5 2.5h15c1.375 0 2.5-1.125 2.5-2.5v-10c0-1.375-1.125-2.5-2.5-2.5zM7.5 2.5h5v2.5h-5v-2.5zM15 13.75h-3.75v3.75h-2.5v-3.75h-3.75v-2.5h3.75v-3.75h2.5v3.75h3.75v2.5z" fill="#ffffff" />
</svg>
