<?xml version="1.0" encoding="utf-8"?>
<!-- Generated by IcoMoon.io -->
<!DOCTYPE svg PUBLIC "-//W3C//DTD SVG 1.1//EN" "http://www.w3.org/Graphics/SVG/1.1/DTD/svg11.dtd">
<svg version="1.1" xmlns="http://www.w3.org/2000/svg" xmlns:xlink="http://www.w3.org/1999/xlink" width="20" height="20" viewBox="0 0 20 20">
	<path d="M2.644 6.357c1.747-1.5 3.128-2.687 6.872-0.57 1.799 1.017 3.25 1.399 4.458 1.399 2.115 0 3.485-1.177 4.67-2.194 0.423-0.363 0.478-1.008 0.122-1.439s-0.986-0.487-1.409-0.124c-1.747 1.501-3.127 2.687-6.873 0.57-4.948-2.795-7.266-0.804-9.128 0.796-0.422 0.363-0.477 1.007-0.122 1.438s0.987 0.488 1.41 0.124zM17.356 8.536c-1.747 1.5-3.127 2.687-6.873 0.57-4.947-2.795-7.265-0.804-9.127 0.795-0.423 0.363-0.478 1.008-0.122 1.439s0.986 0.487 1.409 0.124c1.747-1.501 3.128-2.687 6.872-0.571 1.799 1.017 3.25 1.4 4.458 1.4 2.115 0 3.485-1.177 4.67-2.195 0.423-0.363 0.478-1.007 0.122-1.438-0.355-0.432-0.986-0.487-1.409-0.124zM17.356 13.643c-1.747 1.5-3.127 2.687-6.873 0.57-4.947-2.795-7.266-0.805-9.127 0.795-0.423 0.363-0.478 1.008-0.122 1.439s0.986 0.487 1.409 0.124c1.748-1.501 3.128-2.686 6.873-0.571 1.799 1.017 3.25 1.4 4.458 1.4 2.115 0 3.485-1.177 4.67-2.195 0.423-0.362 0.478-1.007 0.122-1.438s-0.987-0.488-1.41-0.124z" fill="#ffffff" />
</svg>
