<?xml version="1.0" encoding="utf-8"?>
<!-- Generated by IcoMoon.io -->
<!DOCTYPE svg PUBLIC "-//W3C//DTD SVG 1.1//EN" "http://www.w3.org/Graphics/SVG/1.1/DTD/svg11.dtd">
<svg version="1.1" xmlns="http://www.w3.org/2000/svg" xmlns:xlink="http://www.w3.org/1999/xlink" width="20" height="20" viewBox="0 0 20 20">
	<path d="M11.25 10.732l2.134 2.134-1.768 1.768-2.866-2.866v-4.268h2.5zM16.25 1.25c2.071 0 3.75 1.679 3.75 3.75 0 1.269-0.631 2.391-1.596 3.069-0.91-2.403-2.821-4.314-5.224-5.224 0.679-0.965 1.8-1.596 3.069-1.596zM6.819 2.846c-2.403 0.91-4.314 2.821-5.224 5.224-0.965-0.679-1.596-1.8-1.596-3.069 0-2.071 1.679-3.75 3.75-3.75 1.269 0 2.391 0.631 3.069 1.596zM10 3.75c-4.142 0-7.5 3.358-7.5 7.5 0 1.81 0.641 3.47 1.709 4.766l-0.459 3.984h1.25l1.25-2.254c1.103 0.638 2.384 1.004 3.75 1.004 1.366 0 2.647-0.365 3.75-1.004l-0 0 1.25 2.254h1.25l-0.459-3.984c1.068-1.296 1.709-2.956 1.709-4.766 0-4.142-3.358-7.5-7.5-7.5zM10 16.25c-2.761 0-5-2.239-5-5s2.239-5 5-5 5 2.239 5 5-2.239 5-5 5z" fill="#ffffff" />
</svg>
