<?xml version="1.0" encoding="utf-8"?>
<!-- Generated by IcoMoon.io -->
<!DOCTYPE svg PUBLIC "-//W3C//DTD SVG 1.1//EN" "http://www.w3.org/Graphics/SVG/1.1/DTD/svg11.dtd">
<svg version="1.1" xmlns="http://www.w3.org/2000/svg" xmlns:xlink="http://www.w3.org/1999/xlink" width="20" height="20" viewBox="0 0 20 20">
	<path d="M17.501 10.002c0-4.143-3.358-7.501-7.501-7.501-4.143 0-7.501 3.359-7.501 7.501 0 2.605 1.328 4.9 3.344 6.244l-2.089 2.088 1.663 1.665 2.728-2.728c0.593 0.151 1.215 0.231 1.855 0.231 0.64 0 1.262-0.080 1.855-0.231l2.728 2.728 1.663-1.665-2.089-2.088c2.016-1.345 3.344-3.64 3.344-6.245zM10 15.003c-2.762 0-5.001-2.239-5.001-5.001 0-2.762 2.239-5.001 5.001-5.001s5.001 2.239 5.001 5.001c0 2.762-2.239 5.001-5.001 5.001zM17.501 0c-1.381 0-2.5 1.12-2.5 2.5 0 0.114 0.008 0.225 0.023 0.335 0.832 0.584 1.558 1.31 2.143 2.143 0.11 0.015 0.221 0.023 0.335 0.023 1.381 0 2.5-1.12 2.5-2.5 0-1.381-1.12-2.5-2.5-2.5zM2.834 4.978c0.584-0.832 1.31-1.558 2.143-2.143 0.015-0.11 0.023-0.221 0.023-0.335 0-1.381-1.12-2.5-2.5-2.5s-2.5 1.12-2.5 2.5c0 1.381 1.12 2.5 2.5 2.5 0.114-0 0.225-0.008 0.335-0.023zM11.25 8.752v-2.5h-2.5v5.001h3.751v-2.5z" fill="#ffffff" />
</svg>
