<?xml version="1.0" encoding="utf-8"?>
<!-- Generated by IcoMoon.io -->
<!DOCTYPE svg PUBLIC "-//W3C//DTD SVG 1.1//EN" "http://www.w3.org/Graphics/SVG/1.1/DTD/svg11.dtd">
<svg version="1.1" xmlns="http://www.w3.org/2000/svg" xmlns:xlink="http://www.w3.org/1999/xlink" width="20" height="20" viewBox="0 0 20 20">
	<path d="M18.474 15.973c-1.838 2.491-5.039 4.056-8.474 4.026-3.435 0.029-6.636-1.536-8.474-4.026l-1.526 1.526v-5h5l-1.374 1.374c1.102 1.825 2.947 3.137 5.124 3.508v-7.559c-2.153-0.557-3.75-2.496-3.75-4.823 0-2.761 2.239-5 5-5 2.761 0 5 2.239 5 5 0 2.327-1.597 4.266-3.75 4.823v7.559c2.178-0.372 4.022-1.683 5.124-3.508l-1.374-1.374h5v5l-1.526-1.526zM12.5 5c0-1.381-1.119-2.5-2.5-2.5s-2.5 1.119-2.5 2.5c0 1.381 1.119 2.5 2.5 2.5 1.381-0 2.5-1.119 2.5-2.5z" fill="#ffffff" />
</svg>
