<?xml version="1.0" encoding="utf-8"?>
<!-- Generated by IcoMoon.io -->
<!DOCTYPE svg PUBLIC "-//W3C//DTD SVG 1.1//EN" "http://www.w3.org/Graphics/SVG/1.1/DTD/svg11.dtd">
<svg version="1.1" xmlns="http://www.w3.org/2000/svg" xmlns:xlink="http://www.w3.org/1999/xlink" width="20" height="20" viewBox="0 0 20 20">
	<path d="M16.875 6.25c-0.688 0-1.25 0.563-1.25 1.25v5c0 0.688 0.563 1.25 1.25 1.25s1.25-0.563 1.25-1.25v-5c0-0.688-0.563-1.25-1.25-1.25zM1.875 6.25c-0.688 0-1.25 0.563-1.25 1.25v5c0 0.688 0.563 1.25 1.25 1.25s1.25-0.563 1.25-1.25v-5c0-0.688-0.563-1.25-1.25-1.25zM3.75 14.375c0 1.036 0.839 1.875 1.875 1.875h0.625v2.5c0 0.688 0.563 1.25 1.25 1.25s1.25-0.563 1.25-1.25v-2.5h1.25v2.5c0 0.688 0.563 1.25 1.25 1.25s1.25-0.563 1.25-1.25v-2.5h0.625c1.036 0 1.875-0.839 1.875-1.875v-6.875h-11.25v6.875zM11.691 1.748l0.791-1.52c0.040-0.076 0.010-0.171-0.066-0.211s-0.171-0.010-0.211 0.066l-0.803 1.543c-0.629-0.243-1.312-0.377-2.027-0.377-0.715 0-1.398 0.134-2.027 0.377l-0.803-1.543c-0.040-0.076-0.134-0.106-0.211-0.066s-0.106 0.134-0.066 0.211l0.791 1.52c-1.77 0.801-3.052 2.492-3.274 4.502h11.18c-0.222-2.010-1.504-3.701-3.274-4.502zM6.875 5.281c-0.501 0-0.906-0.406-0.906-0.906s0.406-0.906 0.906-0.906 0.906 0.406 0.906 0.906c-0 0.501-0.406 0.906-0.906 0.906zM11.875 5.281c-0.501 0-0.906-0.406-0.906-0.906s0.406-0.906 0.906-0.906 0.906 0.406 0.906 0.906c0 0.501-0.406 0.906-0.906 0.906z" fill="#ffffff" />
</svg>
