<?xml version="1.0" encoding="utf-8"?>
<!-- Generated by IcoMoon.io -->
<!DOCTYPE svg PUBLIC "-//W3C//DTD SVG 1.1//EN" "http://www.w3.org/Graphics/SVG/1.1/DTD/svg11.dtd">
<svg version="1.1" xmlns="http://www.w3.org/2000/svg" xmlns:xlink="http://www.w3.org/1999/xlink" width="20" height="20" viewBox="0 0 20 20">
	<path d="M10 0c-5.523 0-10 4.477-10 10s4.477 10 10 10 10-4.477 10-10-4.477-10-10-10zM11.252 7.432c0.040-0.927 0.883-1.542 1.594-1.897 0.679-0.339 1.35-0.509 1.378-0.516 0.335-0.084 0.674 0.12 0.758 0.455 0.084 0.335-0.12 0.674-0.455 0.758-0.344 0.087-0.752 0.237-1.112 0.417 0.208 0.223 0.335 0.523 0.335 0.852 0 0.69-0.56 1.25-1.25 1.25s-1.25-0.56-1.25-1.25c0-0.023 0.001-0.046 0.002-0.068zM5.019 5.473c0.084-0.335 0.423-0.539 0.758-0.455 0.028 0.007 0.699 0.177 1.378 0.516 0.711 0.355 1.554 0.97 1.594 1.897 0.001 0.023 0.002 0.045 0.002 0.068 0 0.69-0.56 1.25-1.25 1.25s-1.25-0.56-1.25-1.25c0-0.329 0.127-0.628 0.335-0.852-0.36-0.18-0.768-0.33-1.112-0.417-0.335-0.084-0.538-0.423-0.455-0.758zM13.752 15.249c-0.765-1.272-2.159-2.124-3.752-2.124-1.593 0-2.987 0.851-3.752 2.124l-1.608-0.965c1.093-1.818 3.084-3.034 5.36-3.034 2.276 0 4.267 1.216 5.36 3.034l-1.608 0.965z" fill="#ffffff" />
</svg>
