<?xml version="1.0" encoding="utf-8"?>
<!-- Generated by IcoMoon.io -->
<!DOCTYPE svg PUBLIC "-//W3C//DTD SVG 1.1//EN" "http://www.w3.org/Graphics/SVG/1.1/DTD/svg11.dtd">
<svg version="1.1" xmlns="http://www.w3.org/2000/svg" xmlns:xlink="http://www.w3.org/1999/xlink" width="20" height="20" viewBox="0 0 20 20">
	<path d="M15.459 10.627c-0.025-2.533 2.066-3.748 2.159-3.808-1.175-1.719-3.005-1.955-3.657-1.982-1.557-0.158-3.039 0.917-3.829 0.917-0.788 0-2.008-0.894-3.3-0.87-1.698 0.025-3.263 0.987-4.137 2.507-1.764 3.061-0.452 7.595 1.267 10.077 0.84 1.215 1.842 2.58 3.157 2.531 1.266-0.051 1.745-0.819 3.276-0.819 1.531 0 1.961 0.819 3.302 0.794 1.363-0.025 2.226-1.238 3.060-2.457 0.965-1.41 1.362-2.774 1.385-2.844-0.030-0.014-2.657-1.020-2.684-4.046zM12.941 3.194c0.698-0.847 1.169-2.022 1.041-3.194-1.005 0.041-2.224 0.67-2.946 1.515-0.647 0.75-1.214 1.946-1.062 3.094 1.122 0.088 2.268-0.57 2.967-1.415z" fill="#ffffff" />
</svg>
