<?xml version="1.0" encoding="utf-8"?>
<!-- Generated by IcoMoon.io -->
<!DOCTYPE svg PUBLIC "-//W3C//DTD SVG 1.1//EN" "http://www.w3.org/Graphics/SVG/1.1/DTD/svg11.dtd">
<svg version="1.1" xmlns="http://www.w3.org/2000/svg" xmlns:xlink="http://www.w3.org/1999/xlink" width="20" height="20" viewBox="0 0 20 20">
	<path d="M16.968 5c0-1-0.995-1-0.995-1h-11.946c0 0-0.995 0-0.995 1v1h13.936v-1zM13.981 2h-7.963c0 0-0.995 0-0.995 1h9.954c0-1-0.996-1-0.996-1zM18.958 6c-0.589-0.592-0.589-0.592-0.589-0.592v1.592h-16.739v-1.592c0 0 0 0-0.589 0.592s-1.011 0.751-0.773 2.001c0.235 1.245 1.378 8.075 1.547 8.999 0.187 1.014 1.217 1 1.217 1h13.936c0 0 1.030 0.014 1.217-1 0.17-0.924 1.312-7.754 1.548-8.999 0.237-1.25-0.185-1.409-0.775-2.001zM13.981 11.4c0 0 0 1-0.996 1h-5.971c-0.995 0-0.995-1-0.995-1v-2h1.394v1.6h5.173v-1.6h1.396v2z" fill="#ffffff" />
</svg>
