<?xml version="1.0" encoding="utf-8"?>
<!-- Generated by IcoMoon.io -->
<!DOCTYPE svg PUBLIC "-//W3C//DTD SVG 1.1//EN" "http://www.w3.org/Graphics/SVG/1.1/DTD/svg11.dtd">
<svg version="1.1" xmlns="http://www.w3.org/2000/svg" xmlns:xlink="http://www.w3.org/1999/xlink" width="20" height="20" viewBox="0 0 20 20">
	<path d="M10 0c5.523 0 10 4.477 10 10s-4.477 10-10 10-10-4.477-10-10 4.477-10 10-10zM10 18.125c4.487 0 8.125-3.638 8.125-8.125s-3.638-8.125-8.125-8.125-8.125 3.638-8.125 8.125 3.638 8.125 8.125 8.125zM12.5 5c0.69 0 1.25 0.56 1.25 1.25s-0.56 1.25-1.25 1.25h-3.232l5.366 5.366c0.488 0.488 0.488 1.28 0 1.768-0.244 0.244-0.564 0.366-0.884 0.366s-0.64-0.122-0.884-0.366l-5.366-5.366v3.232c0 0.69-0.56 1.25-1.25 1.25s-1.25-0.56-1.25-1.25v-7.5h7.5z" fill="#ffffff" />
</svg>
