<?xml version="1.0" encoding="utf-8"?>
<!-- Generated by IcoMoon.io -->
<!DOCTYPE svg PUBLIC "-//W3C//DTD SVG 1.1//EN" "http://www.w3.org/Graphics/SVG/1.1/DTD/svg11.dtd">
<svg version="1.1" xmlns="http://www.w3.org/2000/svg" xmlns:xlink="http://www.w3.org/1999/xlink" width="20" height="20" viewBox="0 0 20 20">
	<path d="M7.866 2.866l-6.25 6.25c-0.488 0.488-0.488 1.28 0 1.768l6.25 6.25c0.488 0.488 1.28 0.488 1.768 0 0.488-0.488 0.488-1.28 0-1.768l-4.116-4.116h11.982c0.69 0 1.25-0.56 1.25-1.25 0-0.69-0.56-1.25-1.25-1.25h-11.982l4.116-4.116c0.244-0.244 0.366-0.564 0.366-0.884s-0.122-0.64-0.366-0.884c-0.488-0.488-1.28-0.488-1.768 0z" fill="#ffffff" />
</svg>
