<?xml version="1.0" encoding="utf-8"?>
<!-- Generated by IcoMoon.io -->
<!DOCTYPE svg PUBLIC "-//W3C//DTD SVG 1.1//EN" "http://www.w3.org/Graphics/SVG/1.1/DTD/svg11.dtd">
<svg version="1.1" xmlns="http://www.w3.org/2000/svg" xmlns:xlink="http://www.w3.org/1999/xlink" width="20" height="20" viewBox="0 0 20 20">
	<path d="M0.8 10c0 5.081 4.12 9.2 9.2 9.2 5.081 0 9.2-4.119 9.2-9.2 0-5.081-4.119-9.2-9.2-9.2-5.081 0-9.2 4.119-9.2 9.2zM17.2 10c0 3.976-3.224 7.2-7.2 7.2s-7.2-3.223-7.2-7.2c0-3.977 3.223-7.2 7.2-7.2s7.2 3.223 7.2 7.2zM6.15 8.2v3.6h4.090v2.25l3.81-4.050-3.81-4.050v2.25h-4.090z" fill="#ffffff" />
</svg>
