<?xml version="1.0" encoding="utf-8"?>
<!-- Generated by IcoMoon.io -->
<!DOCTYPE svg PUBLIC "-//W3C//DTD SVG 1.1//EN" "http://www.w3.org/Graphics/SVG/1.1/DTD/svg11.dtd">
<svg version="1.1" xmlns="http://www.w3.org/2000/svg" xmlns:xlink="http://www.w3.org/1999/xlink" width="20" height="20" viewBox="0 0 20 20">
	<path d="M10 0c-5.523 0-10 4.477-10 10s4.477 10 10 10 10-4.477 10-10-4.477-10-10-10zM10 18.125c-4.487 0-8.125-3.638-8.125-8.125s3.638-8.125 8.125-8.125 8.125 3.638 8.125 8.125-3.638 8.125-8.125 8.125zM15.884 9.116l-5-5c-0.488-0.488-1.28-0.488-1.768 0s-0.488 1.28 0 1.768l2.866 2.866h-6.982c-0.69 0-1.25 0.56-1.25 1.25s0.56 1.25 1.25 1.25h6.982l-2.866 2.866c-0.488 0.488-0.488 1.28 0 1.768 0.244 0.244 0.564 0.366 0.884 0.366s0.64-0.122 0.884-0.366l5-5c0.488-0.488 0.488-1.28 0-1.768z" fill="#ffffff" />
</svg>
