<?xml version="1.0" encoding="utf-8"?>
<!-- Generated by IcoMoon.io -->
<!DOCTYPE svg PUBLIC "-//W3C//DTD SVG 1.1//EN" "http://www.w3.org/Graphics/SVG/1.1/DTD/svg11.dtd">
<svg version="1.1" xmlns="http://www.w3.org/2000/svg" xmlns:xlink="http://www.w3.org/1999/xlink" width="20" height="20" viewBox="0 0 20 20">
	<path d="M20 10c0-5.523-4.477-10-10-10s-10 4.477-10 10 4.477 10 10 10 10-4.477 10-10zM1.875 10c0-4.487 3.638-8.125 8.125-8.125s8.125 3.638 8.125 8.125-3.638 8.125-8.125 8.125-8.125-3.638-8.125-8.125zM10.884 15.884l5-5c0.488-0.488 0.488-1.28 0-1.768s-1.28-0.488-1.768 0l-2.866 2.866v-6.982c0-0.69-0.56-1.25-1.25-1.25s-1.25 0.56-1.25 1.25v6.982l-2.866-2.866c-0.488-0.488-1.28-0.488-1.768 0-0.244 0.244-0.366 0.564-0.366 0.884s0.122 0.64 0.366 0.884l5 5c0.488 0.488 1.28 0.488 1.768 0z" fill="#ffffff" />
</svg>
