<?xml version="1.0" encoding="utf-8"?>
<!-- Generated by IcoMoon.io -->
<!DOCTYPE svg PUBLIC "-//W3C//DTD SVG 1.1//EN" "http://www.w3.org/Graphics/SVG/1.1/DTD/svg11.dtd">
<svg version="1.1" xmlns="http://www.w3.org/2000/svg" xmlns:xlink="http://www.w3.org/1999/xlink" width="20" height="20" viewBox="0 0 20 20">
	<path d="M11.25 19.874v0.126h-2.5v-0.126c-4.236-0.612-7.5-4.22-7.5-8.624v-5c0-3.452 2.798-6.25 6.25-6.25 3.024 0 5.67 2.147 6.25 5v0 6.25c0 2.072-1.68 3.75-3.75 3.75s-3.75-1.678-3.75-3.75v-5c0-0.691 0.559-1.25 1.25-1.25s1.25 0.559 1.25 1.25v5c0 0.691 0.559 1.25 1.25 1.25s1.25-0.559 1.25-1.25v-6.25c0 0-0.807-2.5-3.75-2.5-2.070 0-3.75 1.678-3.75 3.75v5c0 3.452 2.798 6.25 6.25 6.25v0c3.452 0 6.25-2.798 6.25-6.25v-10c0-0.691 0.559-1.25 1.25-1.25s1.25 0.559 1.25 1.25v10c0 4.404-3.264 8.013-7.5 8.624z" fill="#ffffff" />
</svg>
