<?xml version="1.0" encoding="utf-8"?>
<!-- Generated by IcoMoon.io -->
<!DOCTYPE svg PUBLIC "-//W3C//DTD SVG 1.1//EN" "http://www.w3.org/Graphics/SVG/1.1/DTD/svg11.dtd">
<svg version="1.1" xmlns="http://www.w3.org/2000/svg" xmlns:xlink="http://www.w3.org/1999/xlink" width="20" height="20" viewBox="0 0 20 20">
	<path d="M18.122 3.667c-0.296-0.256-1.906-1.475-2.207-1.734s-0.771-0.333-1.103-0.333h-9.624c-0.331 0-0.802 0.073-1.102 0.333-0.301 0.26-1.911 1.479-2.207 1.734s-0.543 0.641-0.464 1.191c0.079 0.55 1.937 12.973 1.937 12.973 0.104 0.313 0.46 0.569 0.792 0.569h11.713c0.332 0 0.688-0.257 0.792-0.569 0 0 1.857-12.423 1.937-12.973 0.078-0.55-0.168-0.935-0.464-1.191zM10 12.368c-3.248 0-3.943-4.597-4.087-5.544h1.837c0.277 1.382 0.906 3.744 2.25 3.744s1.974-2.362 2.251-3.744h1.836c-0.144 0.947-0.839 5.544-4.087 5.544zM2.963 5l2.206-2.3h9.662l2.206 2.3h-14.074z" fill="#ffffff" />
</svg>
