<?xml version="1.0" encoding="utf-8"?>
<!-- Generated by IcoMoon.io -->
<!DOCTYPE svg PUBLIC "-//W3C//DTD SVG 1.1//EN" "http://www.w3.org/Graphics/SVG/1.1/DTD/svg11.dtd">
<svg version="1.1" xmlns="http://www.w3.org/2000/svg" xmlns:xlink="http://www.w3.org/1999/xlink" width="20" height="20" viewBox="0 0 20 20">
	<path d="M19.634 6.616l-6.25-6.25c-0.31-0.31-0.759-0.434-1.185-0.329-0.224 0.055-0.425 0.171-0.584 0.329-0.142 0.142-0.249 0.318-0.31 0.514-0.283 0.918-0.773 1.716-1.497 2.44-0.968 0.967-2.228 1.699-3.561 2.474-1.415 0.82-2.877 1.67-4.075 2.868-1.018 1.019-1.711 2.153-2.117 3.469-0.137 0.444-0.018 0.925 0.31 1.254l6.25 6.25c0.31 0.31 0.759 0.434 1.185 0.329 0.224-0.056 0.425-0.171 0.584-0.329 0.142-0.142 0.249-0.317 0.31-0.515 0.284-0.918 0.773-1.716 1.498-2.44 0.967-0.967 2.226-1.698 3.561-2.472 1.414-0.821 2.876-1.671 4.074-2.869 1.018-1.018 1.711-2.153 2.118-3.469 0.136-0.444 0.016-0.926-0.311-1.253zM7.5 18.75c-2.070-2.070-4.18-4.181-6.25-6.25 1.776-5.751 9.475-5.499 11.25-11.25 2.070 2.069 4.181 4.18 6.251 6.25-1.777 5.749-9.476 5.499-11.251 11.25zM12.226 9.313c-0.204-0.171-0.409-0.287-0.615-0.344-0.205-0.058-0.41-0.081-0.617-0.066-0.205 0.016-0.415 0.063-0.625 0.143-0.21 0.082-0.421 0.171-0.634 0.274-0.336-0.386-0.671-0.767-1.007-1.121 0.151-0.137 0.298-0.206 0.439-0.211 0.142-0.006 0.278 0.009 0.407 0.041 0.132 0.033 0.252 0.061 0.364 0.083 0.113 0.022 0.21-0.002 0.296-0.074 0.091-0.078 0.141-0.179 0.148-0.301 0.006-0.123-0.040-0.243-0.143-0.36-0.132-0.151-0.291-0.243-0.481-0.277-0.188-0.033-0.381-0.031-0.581 0.013-0.197 0.045-0.386 0.119-0.564 0.224s-0.321 0.213-0.428 0.317c-0.041-0.039-0.081-0.077-0.122-0.115-0.045-0.041-0.101-0.064-0.169-0.062-0.068 0-0.124 0.029-0.171 0.083-0.045 0.053-0.066 0.114-0.058 0.178 0.006 0.067 0.033 0.118 0.079 0.158 0.041 0.034 0.081 0.068 0.122 0.104-0.16 0.193-0.292 0.406-0.396 0.631-0.105 0.226-0.168 0.449-0.191 0.666-0.024 0.219-0.001 0.419 0.066 0.604 0.067 0.187 0.191 0.346 0.371 0.496 0.294 0.244 0.641 0.348 1.042 0.325 0.401-0.024 0.833-0.144 1.297-0.393 0.369 0.426 0.739 0.849 1.108 1.242-0.156 0.132-0.293 0.207-0.414 0.232-0.121 0.026-0.228 0.023-0.326-0.006-0.098-0.031-0.188-0.074-0.271-0.131-0.083-0.057-0.165-0.106-0.247-0.146-0.081-0.040-0.164-0.063-0.249-0.064s-0.176 0.040-0.276 0.126c-0.102 0.089-0.154 0.193-0.154 0.31 0 0.116 0.054 0.234 0.159 0.354 0.106 0.119 0.244 0.22 0.411 0.299s0.356 0.129 0.563 0.143c0.208 0.014 0.426-0.017 0.657-0.102 0.232-0.084 0.461-0.237 0.688-0.464 0.109 0.106 0.219 0.207 0.328 0.305 0.046 0.040 0.103 0.060 0.171 0.055 0.066-0.003 0.123-0.033 0.169-0.088 0.046-0.056 0.066-0.118 0.059-0.183-0.006-0.066-0.033-0.116-0.078-0.152-0.11-0.088-0.22-0.181-0.329-0.278 0.187-0.229 0.337-0.471 0.448-0.711 0.111-0.241 0.177-0.473 0.199-0.688 0.022-0.216-0.004-0.411-0.074-0.588-0.070-0.179-0.194-0.333-0.372-0.481zM8.732 9.736c-0.177 0.008-0.331-0.051-0.466-0.182-0.058-0.055-0.098-0.122-0.122-0.201-0.026-0.079-0.034-0.166-0.024-0.261 0.009-0.094 0.037-0.192 0.086-0.291 0.046-0.099 0.115-0.197 0.203-0.293 0.317 0.315 0.633 0.661 0.95 1.018-0.24 0.132-0.449 0.202-0.626 0.21zM11.68 10.987c-0.056 0.104-0.121 0.196-0.196 0.277-0.351-0.354-0.701-0.742-1.050-1.141 0.089-0.040 0.183-0.082 0.284-0.124s0.203-0.071 0.304-0.088c0.104-0.016 0.206-0.011 0.309 0.013 0.101 0.026 0.197 0.081 0.287 0.168 0.088 0.088 0.144 0.179 0.166 0.278 0.024 0.1 0.026 0.201 0.009 0.305-0.018 0.104-0.055 0.208-0.112 0.313zM9.198 13.863c0.123-0.099 0.304-0.094 0.417 0.021 0.123 0.122 0.123 0.321 0 0.443-0.010 0.010-0.021 0.017-0.032 0.026l0.001 0.001c-0.396 0.301-0.721 0.571-1.071 0.922-0.317 0.316-0.603 0.649-0.851 0.988l-0.399 0.547c-0.012 0.023-0.027 0.043-0.046 0.063-0.122 0.122-0.322 0.122-0.444 0-0.106-0.106-0.119-0.27-0.041-0.392l-0.001-0.001 0.428-0.584c0.267-0.365 0.574-0.722 0.913-1.062 0.353-0.354 0.734-0.671 1.125-0.971h0.001zM11.486 4.822c0.316-0.316 0.602-0.648 0.85-0.988l0.415-0.569c0.015-0.027 0.032-0.054 0.055-0.077 0.123-0.123 0.322-0.123 0.446 0 0.117 0.118 0.122 0.303 0.016 0.428l0.001 0.001-0.428 0.586c-0.268 0.365-0.574 0.721-0.913 1.061-0.353 0.353-0.734 0.671-1.124 0.971l-0.003-0.001c-0.124 0.114-0.317 0.112-0.437-0.009-0.123-0.123-0.123-0.324 0-0.447 0.022-0.023 0.047-0.039 0.073-0.054 0.367-0.281 0.722-0.575 1.049-0.902z" fill="#ffffff" />
</svg>
