<?xml version="1.0" encoding="utf-8"?>
<!-- Generated by IcoMoon.io -->
<!DOCTYPE svg PUBLIC "-//W3C//DTD SVG 1.1//EN" "http://www.w3.org/Graphics/SVG/1.1/DTD/svg11.dtd">
<svg version="1.1" xmlns="http://www.w3.org/2000/svg" xmlns:xlink="http://www.w3.org/1999/xlink" width="20" height="20" viewBox="0 0 20 20">
	<path d="M0 2.5h2.5v12.5h-2.5zM3.75 2.5h1.25v12.5h-1.25zM6.25 2.5h1.25v12.5h-1.25zM10 2.5h1.25v12.5h-1.25zM15 2.5h1.25v12.5h-1.25zM18.75 2.5h1.25v12.5h-1.25zM12.5 2.5h0.625v12.5h-0.625zM8.75 2.5h0.625v12.5h-0.625zM16.875 2.5h0.625v12.5h-0.625zM0 16.25h1.25v1.25h-1.25zM3.75 16.25h1.25v1.25h-1.25zM6.25 16.25h1.25v1.25h-1.25zM12.5 16.25h1.25v1.25h-1.25zM18.75 16.25h1.25v1.25h-1.25zM15 16.25h2.5v1.25h-2.5zM8.75 16.25h2.5v1.25h-2.5z" fill="#ffffff" />
</svg>
