<?xml version="1.0" encoding="utf-8"?>
<!-- Generated by IcoMoon.io -->
<!DOCTYPE svg PUBLIC "-//W3C//DTD SVG 1.1//EN" "http://www.w3.org/Graphics/SVG/1.1/DTD/svg11.dtd">
<svg version="1.1" xmlns="http://www.w3.org/2000/svg" xmlns:xlink="http://www.w3.org/1999/xlink" width="20" height="20" viewBox="0 0 20 20">
	<path d="M5.625 7.5h-3.75c-0.344 0-0.625 0.281-0.625 0.625v11.25c0 0.344 0.281 0.625 0.625 0.625h3.75c0.344 0 0.625-0.281 0.625-0.625v-11.25c0-0.344-0.281-0.625-0.625-0.625zM5.625 18.75h-3.75v-5h3.75v5zM11.875 5h-3.75c-0.344 0-0.625 0.281-0.625 0.625v13.75c0 0.344 0.281 0.625 0.625 0.625h3.75c0.344 0 0.625-0.281 0.625-0.625v-13.75c0-0.344-0.281-0.625-0.625-0.625zM11.875 18.75h-3.75v-6.25h3.75v6.25zM18.125 2.5h-3.75c-0.344 0-0.625 0.281-0.625 0.625v16.25c0 0.344 0.281 0.625 0.625 0.625h3.75c0.344 0 0.625-0.281 0.625-0.625v-16.25c0-0.344-0.281-0.625-0.625-0.625zM18.125 18.75h-3.75v-7.5h3.75v7.5z" fill="#ffffff" />
</svg>
