<?xml version="1.0" encoding="utf-8"?>
<!-- Generated by IcoMoon.io -->
<!DOCTYPE svg PUBLIC "-//W3C//DTD SVG 1.1//EN" "http://www.w3.org/Graphics/SVG/1.1/DTD/svg11.dtd">
<svg version="1.1" xmlns="http://www.w3.org/2000/svg" xmlns:xlink="http://www.w3.org/1999/xlink" width="20" height="20" viewBox="0 0 20 20">
	<path d="M15.408 10c0-2.766 1.277-4.32 2.277-4.32 0.364 0 1.314 0 1.314 0-0.667-1.059-1.219-1.68-3.656-1.68h-10.008c-3.734 0-5.335 3.441-5.335 6s1.601 6 5.335 6h10.008c2.438 0 2.989-0.621 3.657-1.681 0 0-0.314 0-1.314 0s-2.278-1.554-2.278-4.319zM12.688 11.794c-0.163 0.252-0.675 0.016-0.675 0.016l-2.957-1.336c0 0-0.264 0.669-0.468 1.14s-0.361 1.005-1.209 0.408c-0.849-0.597-3.58-3.25-3.58-3.25s-0.346-0.283-0.173-0.55c0.163-0.252 0.675-0.016 0.675-0.016l2.957 1.336c0 0 0.264-0.668 0.468-1.14 0.204-0.47 0.361-1.005 1.209-0.408 0.849 0.597 3.581 3.251 3.581 3.251s0.344 0.282 0.172 0.549zM18.875 7.927h-0.748c-0.56 0-1.106 0.755-1.106 1.98s0.547 1.979 1.106 1.979h0.748c0.559 0 1.125-0.754 1.125-1.979s-0.566-1.98-1.125-1.98z" fill="#ffffff" />
</svg>
