<?xml version="1.0" encoding="utf-8"?>
<!-- Generated by IcoMoon.io -->
<!DOCTYPE svg PUBLIC "-//W3C//DTD SVG 1.1//EN" "http://www.w3.org/Graphics/SVG/1.1/DTD/svg11.dtd">
<svg version="1.1" xmlns="http://www.w3.org/2000/svg" xmlns:xlink="http://www.w3.org/1999/xlink" width="20" height="20" viewBox="0 0 20 20">
	<path d="M8.071 9.302c0 0 1.893-0.147 1.893-2.46s-1.549-3.442-3.51-3.442h-6.454v12.926h6.454c0 0 3.939 0.129 3.939-3.814 0.001 0 0.172-3.21-2.322-3.21zM2.844 5.697h3.61c0 0 0.877 0 0.877 1.345s-0.516 1.54-1.102 1.54h-3.385v-2.885zM6.271 14.029h-3.427v-3.455h3.61c0 0 1.308-0.018 1.308 1.775 0 1.512-0.977 1.669-1.491 1.68zM15.648 6.689c-4.77 0-4.766 4.965-4.766 4.965s-0.327 4.941 4.766 4.941c0 0 4.244 0.254 4.244-3.438h-2.182c0 0 0.072 1.391-1.989 1.391 0 0-2.183 0.152-2.183-2.248h6.427c0.001 0.001 0.704-5.611-4.317-5.611zM17.589 10.575h-4.074c0 0 0.267-1.993 2.183-1.993 1.914 0 1.891 1.993 1.891 1.993zM18.098 4.161h-5.118v1.592h5.117v-1.592z" fill="#ffffff" />
</svg>
