<?xml version="1.0" encoding="utf-8"?>
<!-- Generated by IcoMoon.io -->
<!DOCTYPE svg PUBLIC "-//W3C//DTD SVG 1.1//EN" "http://www.w3.org/Graphics/SVG/1.1/DTD/svg11.dtd">
<svg version="1.1" xmlns="http://www.w3.org/2000/svg" xmlns:xlink="http://www.w3.org/1999/xlink" width="20" height="20" viewBox="0 0 20 20">
	<path d="M14.65 8.513c-2.28-4.907-3.465-6.771-7.191-6.693-1.327 0.027-1.008-0.961-2.020-0.586-1.011 0.374-0.143 0.923-1.178 1.772-2.902 2.382-2.635 4.586-1.289 9.84 0.568 2.212-1.367 2.321-0.602 4.466 0.559 1.563 4.679 2.219 9.026 0.605 4.347-1.612 7.090-4.813 6.531-6.378-0.765-2.144-2.316-0.96-3.277-3.026zM10.924 16.596c-3.881 1.44-7.072 0.593-7.207 0.217-0.232-0.649 1.253-2.816 5.691-4.463 4.438-1.647 6.915-1.036 7.174-0.311 0.153 0.428-1.775 3.116-5.658 4.557zM9.677 13.102c-2.030 0.753-3.44 1.614-4.353 2.39 0.643 0.584 1.846 0.726 3.046 0.281 1.527-0.567 2.465-1.868 2.094-2.905-0.004-0.013-0.011-0.024-0.016-0.036-0.25 0.081-0.507 0.171-0.771 0.27z" fill="#ffffff" />
</svg>
