<?xml version="1.0" encoding="utf-8"?>
<!-- Generated by IcoMoon.io -->
<!DOCTYPE svg PUBLIC "-//W3C//DTD SVG 1.1//EN" "http://www.w3.org/Graphics/SVG/1.1/DTD/svg11.dtd">
<svg version="1.1" xmlns="http://www.w3.org/2000/svg" xmlns:xlink="http://www.w3.org/1999/xlink" width="20" height="20" viewBox="0 0 20 20">
	<path d="M20.029 15.625c0-5.625-5-4.375-5-8.75 0-0.362-0.035-0.672-0.099-0.936-0.329-2.207-1.8-3.979-3.706-4.519 0.017-0.077 0.026-0.157 0.026-0.238 0-0.65-0.562-1.182-1.25-1.182-0.688 0-1.25 0.532-1.25 1.182 0 0.082 0.009 0.161 0.026 0.238-2.138 0.605-3.729 2.76-3.774 5.341-0.001 0.038-0.001 0.075-0.001 0.114 0 4.375-5 3.125-5 8.75 0 1.489 3.332 2.734 7.792 3.048 0.42 0.789 1.251 1.327 2.208 1.327s1.787-0.537 2.208-1.327c4.461-0.314 7.792-1.56 7.792-3.048 0-0.004-0.001-0.009-0.001-0.013l0.030 0.013zM16.138 16.682c-1.059 0.283-2.308 0.486-3.648 0.599-0.111-1.278-1.183-2.28-2.49-2.28s-2.378 1.002-2.49 2.28c-1.34-0.113-2.589-0.316-3.648-0.599-1.458-0.389-2.154-0.824-2.41-1.057 0.255-0.233 0.952-0.668 2.41-1.057 1.695-0.452 3.874-0.701 6.138-0.701s4.443 0.249 6.138 0.701c1.458 0.389 2.154 0.824 2.41 1.057-0.255 0.233-0.952 0.668-2.41 1.057z" fill="#ffffff" />
</svg>
