<?xml version="1.0" encoding="utf-8"?>
<!-- Generated by IcoMoon.io -->
<!DOCTYPE svg PUBLIC "-//W3C//DTD SVG 1.1//EN" "http://www.w3.org/Graphics/SVG/1.1/DTD/svg11.dtd">
<svg version="1.1" xmlns="http://www.w3.org/2000/svg" xmlns:xlink="http://www.w3.org/1999/xlink" width="20" height="20" viewBox="0 0 20 20">
	<path d="M0 10c0 5.523 4.477 10 10 10 5.523 0 10-4.477 10-10s-4.477-10-10-10c-5.523 0-10 4.477-10 10zM17.5 10c0 1.43-0.401 2.767-1.095 3.905l-10.309-10.309c1.137-0.695 2.474-1.095 3.904-1.095 4.142 0 7.5 3.358 7.5 7.5zM2.5 10c0-1.43 0.401-2.767 1.096-3.905l10.309 10.309c-1.137 0.695-2.474 1.095-3.905 1.095-4.142 0-7.5-3.358-7.5-7.5z" fill="#ffffff" />
</svg>
