<?xml version="1.0" encoding="utf-8"?>
<!-- Generated by IcoMoon.io -->
<!DOCTYPE svg PUBLIC "-//W3C//DTD SVG 1.1//EN" "http://www.w3.org/Graphics/SVG/1.1/DTD/svg11.dtd">
<svg version="1.1" xmlns="http://www.w3.org/2000/svg" xmlns:xlink="http://www.w3.org/1999/xlink" width="20" height="20" viewBox="0 0 20 20">
	<path d="M10 0.4c-5.302 0-9.6 4.298-9.6 9.6s4.298 9.6 9.6 9.6c5.303 0 9.6-4.298 9.6-9.6s-4.297-9.6-9.6-9.6zM15.166 4.836l-0.002-0.002c0 0.001 0.002 0.002 0.002 0.002zM2.696 10c0-4.034 3.27-7.304 7.304-7.304 1.754 0 3.364 0.618 4.624 1.648l-10.279 10.278c-1.031-1.259-1.649-2.868-1.649-4.622zM4.834 15.164l0.002 0.002c-0.001-0.001-0.001-0.001-0.002-0.002zM10 17.305c-1.754 0-3.363-0.619-4.622-1.649l10.276-10.278c1.031 1.259 1.65 2.868 1.65 4.622 0.001 4.034-3.271 7.305-7.304 7.305z" fill="#ffffff" />
</svg>
