<?xml version="1.0" encoding="utf-8"?>
<!-- Generated by IcoMoon.io -->
<!DOCTYPE svg PUBLIC "-//W3C//DTD SVG 1.1//EN" "http://www.w3.org/Graphics/SVG/1.1/DTD/svg11.dtd">
<svg version="1.1" xmlns="http://www.w3.org/2000/svg" xmlns:xlink="http://www.w3.org/1999/xlink" width="30" height="30" viewBox="0 0 30 30">
	<path d="M0 15c0 8.284 6.716 15 15 15 8.284 0 15-6.716 15-15s-6.716-15-15-15c-8.284 0-15 6.716-15 15zM26.25 15c0 2.146-0.601 4.151-1.643 5.857l-15.464-15.464c1.706-1.042 3.711-1.643 5.857-1.643 6.213 0 11.25 5.037 11.25 11.25zM3.75 15c0-2.146 0.601-4.151 1.643-5.857l15.464 15.464c-1.706 1.042-3.711 1.643-5.857 1.643-6.213 0-11.25-5.037-11.25-11.25z" fill="#ffffff" />
</svg>
