<?xml version="1.0" encoding="utf-8"?>
<!-- Generated by IcoMoon.io -->
<!DOCTYPE svg PUBLIC "-//W3C//DTD SVG 1.1//EN" "http://www.w3.org/Graphics/SVG/1.1/DTD/svg11.dtd">
<svg version="1.1" xmlns="http://www.w3.org/2000/svg" xmlns:xlink="http://www.w3.org/1999/xlink" width="20" height="20" viewBox="0 0 20 20">
	<path d="M7.5 3.75c4.832 0 8.75 3.918 8.75 8.75h-1.875c0-1.836-0.715-3.563-2.014-4.861-1.299-1.299-3.025-2.014-4.861-2.014v-1.875zM7.5 0c6.904 0 12.5 5.596 12.5 12.5h-1.875c0-1.435-0.281-2.826-0.834-4.135-0.535-1.265-1.301-2.401-2.278-3.378-0.976-0.976-2.113-1.743-3.378-2.278-1.309-0.554-2.7-0.834-4.135-0.834v-1.875zM11.219 8.781c0.855 0.855 1.281 1.975 1.281 3.095-1.249 1.875-1.249 4.374-1.249 4.374-5 0-8.75 3.75-8.75 3.75l-0.725-0.725 5.539-5.539c0.061 0.009 0.123 0.014 0.186 0.014 0.69 0 1.25-0.56 1.25-1.25 0-0.69-0.56-1.25-1.25-1.25-0.69 0-1.25 0.56-1.25 1.25 0 0.063 0.005 0.126 0.014 0.186l-5.539 5.539-0.725-0.725c0 0 3.75-3.75 3.75-8.75 0 0 2.5 0 4.375-1.25 1.12 0 2.239 0.427 3.094 1.281z" fill="#ffffff" />
</svg>
