<?xml version="1.0" encoding="utf-8"?>
<!-- Generated by IcoMoon.io -->
<!DOCTYPE svg PUBLIC "-//W3C//DTD SVG 1.1//EN" "http://www.w3.org/Graphics/SVG/1.1/DTD/svg11.dtd">
<svg version="1.1" xmlns="http://www.w3.org/2000/svg" xmlns:xlink="http://www.w3.org/1999/xlink" width="20" height="20" viewBox="0 0 20 20">
	<path d="M16.667 0h-13.334c-1.841 0-3.333 1.493-3.333 3.334v13.333c0 1.841 1.492 3.334 3.333 3.334h13.334c1.841 0 3.333-1.492 3.333-3.334l0-13.333c0-1.841-1.492-3.334-3.333-3.334zM17.5 12.658c0 2.676-2.177 4.842-4.872 4.842h-5.25c-2.692 0-4.878-2.166-4.878-4.842v-5.314c0.002-2.676 2.185-4.844 4.878-4.844h2.458c2.694 0 4.852 2.012 4.851 4.688 0.035 0.502 0.487 0.937 1.002 0.937h0.841c0.539 0 0.97 0.565 0.97 1.1v3.433zM13.75 12.5c0 0.688-0.563 1.25-1.25 1.25h-5c-0.688 0-1.25-0.563-1.25-1.25v0c0-0.688 0.563-1.25 1.25-1.25h5c0.688 0 1.25 0.563 1.25 1.25v0zM11.25 7.5c0 0.688-0.563 1.25-1.25 1.25h-2.5c-0.688 0-1.25-0.563-1.25-1.25v0c0-0.688 0.563-1.25 1.25-1.25h2.5c0.688 0 1.25 0.563 1.25 1.25v0z" fill="#ffffff" />
</svg>
