<?xml version="1.0" encoding="utf-8"?>
<!-- Generated by IcoMoon.io -->
<!DOCTYPE svg PUBLIC "-//W3C//DTD SVG 1.1//EN" "http://www.w3.org/Graphics/SVG/1.1/DTD/svg11.dtd">
<svg version="1.1" xmlns="http://www.w3.org/2000/svg" xmlns:xlink="http://www.w3.org/1999/xlink" width="20" height="20" viewBox="0 0 20 20">
	<path d="M18.707 7.5h-1.121c-0.687 0-1.289-0.581-1.336-1.25v0c0-3.568-2.876-6.25-6.469-6.25h-3.278c-3.59 0-6.501 2.891-6.504 6.458v7.086c0 3.567 2.914 6.456 6.504 6.456h7c3.593 0 6.496-2.888 6.496-6.456v-4.578c0-0.713-0.575-1.466-1.293-1.466zM6.25 5h3.75c0.688 0 1.25 0.563 1.25 1.25s-0.563 1.25-1.25 1.25h-3.75c-0.688 0-1.25-0.563-1.25-1.25s0.563-1.25 1.25-1.25zM13.75 15h-7.5c-0.688 0-1.25-0.563-1.25-1.25s0.563-1.25 1.25-1.25h7.5c0.688 0 1.25 0.563 1.25 1.25s-0.563 1.25-1.25 1.25z" fill="#ffffff" />
</svg>
