<?xml version="1.0" encoding="utf-8"?>
<!-- Generated by IcoMoon.io -->
<!DOCTYPE svg PUBLIC "-//W3C//DTD SVG 1.1//EN" "http://www.w3.org/Graphics/SVG/1.1/DTD/svg11.dtd">
<svg version="1.1" xmlns="http://www.w3.org/2000/svg" xmlns:xlink="http://www.w3.org/1999/xlink" width="30" height="30" viewBox="0 0 30 30">
	<path d="M20.739 14.199c1.099-1.305 1.761-2.989 1.761-4.824 0-4.136-3.365-7.5-7.5-7.5h-9.375v26.25h11.25c4.135 0 7.5-3.365 7.5-7.5 0-2.723-1.459-5.112-3.636-6.426zM11.25 5.625h2.974c1.64 0 2.974 1.682 2.974 3.75s-1.334 3.75-2.974 3.75h-2.974v-7.5zM15.908 24.375h-4.658v-7.5h4.658c1.712 0 3.105 1.682 3.105 3.75s-1.393 3.75-3.105 3.75z" fill="#ffffff" />
</svg>
