<?xml version="1.0" encoding="utf-8"?>
<!-- Generated by IcoMoon.io -->
<!DOCTYPE svg PUBLIC "-//W3C//DTD SVG 1.1//EN" "http://www.w3.org/Graphics/SVG/1.1/DTD/svg11.dtd">
<svg version="1.1" xmlns="http://www.w3.org/2000/svg" xmlns:xlink="http://www.w3.org/1999/xlink" width="20" height="20" viewBox="0 0 20 20">
	<path d="M13.826 9.466c0.732-0.87 1.174-1.992 1.174-3.216 0-2.757-2.243-5-5-5h-6.25v17.5h7.5c2.757 0 5-2.243 5-5 0-1.816-0.973-3.408-2.424-4.284zM7.5 3.75h1.982c1.093 0 1.982 1.121 1.982 2.5s-0.889 2.5-1.982 2.5h-1.982v-5zM10.605 16.25h-3.105v-5h3.105c1.142 0 2.070 1.121 2.070 2.5s-0.929 2.5-2.070 2.5z" fill="#ffffff" />
</svg>
