<?xml version="1.0" encoding="utf-8"?>
<!-- Generated by IcoMoon.io -->
<!DOCTYPE svg PUBLIC "-//W3C//DTD SVG 1.1//EN" "http://www.w3.org/Graphics/SVG/1.1/DTD/svg11.dtd">
<svg version="1.1" xmlns="http://www.w3.org/2000/svg" xmlns:xlink="http://www.w3.org/1999/xlink" width="20" height="20" viewBox="0 0 20 20">
	<path d="M16.648 5.143l-8.998-4.639c-1.233-0.649-3.663 0.605-4.361 1.709-0.311 0.494-0.289 0.85-0.289 1.052l0.111 10.475c0.007 0.223 0.288 0.522 0.527 0.67 0.499 0.306 8.060 5.025 8.273 5.159 0.115 0.072 0.252 0.105 0.386 0.105 0.114 0 0.229-0.025 0.333-0.077 0.228-0.112 0.37-0.328 0.37-0.565v-11.001c0-0.229-0.134-0.44-0.352-0.555l-8.178-4.566c0.092-0.18 0.456-0.56 1.125-0.91 0.705-0.37 1.232-0.23 1.353-0.183 0 0 7.85 4.201 8.090 4.326 0.239 0.125 0.244 0.144 0.244 0.357 0 0.214 0 10.44 0 10.44 0 0.521 0.528 0.734 0.917 0.734 0.387 0 0.801-0.38 0.801-0.734v-11.242c0-0.229-0.135-0.441-0.352-0.555z" fill="#ffffff" />
</svg>
