<?xml version="1.0" encoding="utf-8"?>
<!-- Generated by IcoMoon.io -->
<!DOCTYPE svg PUBLIC "-//W3C//DTD SVG 1.1//EN" "http://www.w3.org/Graphics/SVG/1.1/DTD/svg11.dtd">
<svg version="1.1" xmlns="http://www.w3.org/2000/svg" xmlns:xlink="http://www.w3.org/1999/xlink" width="20" height="20" viewBox="0 0 20 20">
	<path d="M7.8 12.271l-4-1.601v1.354l4 1.601v-1.354zM7.8 8.116l-4-1.6v1.354l4 1.6v-1.354zM18.561 1.172c-0.274-0.186-0.624-0.224-0.932-0.101l-7.629 3.052-7.629-3.052c-0.308-0.123-0.657-0.085-0.932 0.101-0.274 0.186-0.439 0.496-0.439 0.828v12.8c0 0.409 0.249 0.776 0.628 0.929l7.983 3.193c0 0 0.164 0.053 0.194 0.059 0.065 0.012 0.13 0.019 0.195 0.019 0.064 0 0.13-0.007 0.194-0.020 0.030-0.006 0.194-0.060 0.194-0.060l7.982-3.192c0.381-0.152 0.63-0.519 0.63-0.928v-12.8c0-0.332-0.165-0.642-0.439-0.828zM9 16.954l-6.4-2.56v-11.208l6.4 2.561v11.207zM17.4 14.395l-6.4 2.56v-11.208l6.4-2.561v11.209zM16.2 10.67l-4.001 1.601v1.354l4.001-1.601v-1.354zM16.2 6.516l-4.001 1.6v1.354l4.001-1.6v-1.354z" fill="#ffffff" />
</svg>
