<?xml version="1.0" encoding="utf-8"?>
<!-- Generated by IcoMoon.io -->
<!DOCTYPE svg PUBLIC "-//W3C//DTD SVG 1.1//EN" "http://www.w3.org/Graphics/SVG/1.1/DTD/svg11.dtd">
<svg version="1.1" xmlns="http://www.w3.org/2000/svg" xmlns:xlink="http://www.w3.org/1999/xlink" width="20" height="20" viewBox="0 0 20 20">
	<path d="M9.1 11.002h1.8v2h9.1c0 0-0.148-4.458-0.2-5.854-0.049-1.326-0.523-2.146-2-2.146h-3.208c-0.497-0.937-1.032-1.945-1.196-2.255-0.331-0.624-0.444-0.745-1.18-0.745h-4.432c-0.736 0-0.849 0.121-1.18 0.745-0.164 0.31-0.699 1.318-1.196 2.255h-3.208c-1.477 0-1.945 0.82-2 2.146s-0.2 5.854-0.2 5.854h9.1v-2zM7.65 3.917c0.229-0.432 0.308-0.516 0.816-0.516h3.067c0.51 0 0.588 0.084 0.816 0.516 0.086 0.162 0.318 0.6 0.576 1.084h-5.85c0.257-0.483 0.489-0.921 0.575-1.084zM10.9 16.002h-1.8v-2h-8.6c0 0 0.125 1.798 0.2 3.322 0.031 0.633 0.217 1.678 1.799 1.678h15.002c1.582 0 1.764-1.046 1.799-1.678 0.087-1.567 0.2-3.322 0.2-3.322h-8.6v2z" fill="#ffffff" />
</svg>
