<?xml version="1.0" encoding="utf-8"?>
<!-- Generated by IcoMoon.io -->
<!DOCTYPE svg PUBLIC "-//W3C//DTD SVG 1.1//EN" "http://www.w3.org/Graphics/SVG/1.1/DTD/svg11.dtd">
<svg version="1.1" xmlns="http://www.w3.org/2000/svg" xmlns:xlink="http://www.w3.org/1999/xlink" width="20" height="20" viewBox="0 0 20 20">
	<path d="M18.75 5h-5v-1.25c0-0.688-0.563-1.25-1.25-1.25h-5c-0.688 0-1.25 0.563-1.25 1.25v1.25h-5c-0.688 0-1.25 0.563-1.25 1.25v11.25c0 0.688 0.562 1.25 1.25 1.25h17.5c0.688 0 1.25-0.562 1.25-1.25v-11.25c0-0.688-0.563-1.25-1.25-1.25zM7.5 3.752c0.001-0.001 0.001-0.002 0.002-0.002h4.996c0.001 0.001 0.002 0.001 0.002 0.002v1.248h-5v-1.248zM18.75 10h-2.5v1.875c0 0.344-0.281 0.625-0.625 0.625h-1.25c-0.344 0-0.625-0.281-0.625-0.625v-1.875h-7.5v1.875c0 0.344-0.281 0.625-0.625 0.625h-1.25c-0.344 0-0.625-0.281-0.625-0.625v-1.875h-2.5v-1.25h17.5v1.25z" fill="#ffffff" />
</svg>
