<?xml version="1.0" encoding="utf-8"?>
<!-- Generated by IcoMoon.io -->
<!DOCTYPE svg PUBLIC "-//W3C//DTD SVG 1.1//EN" "http://www.w3.org/Graphics/SVG/1.1/DTD/svg11.dtd">
<svg version="1.1" xmlns="http://www.w3.org/2000/svg" xmlns:xlink="http://www.w3.org/1999/xlink" width="20" height="20" viewBox="0 0 20 20">
	<path d="M10 5c-2.761 0-5 2.239-5 5s2.239 5 5 5 5-2.239 5-5-2.239-5-5-5zM10 13.125v-6.25c1.723 0 3.125 1.402 3.125 3.125s-1.402 3.125-3.125 3.125zM10 16.25c0.69 0 1.25 0.56 1.25 1.25v1.25c0 0.69-0.56 1.25-1.25 1.25s-1.25-0.56-1.25-1.25v-1.25c0-0.69 0.56-1.25 1.25-1.25zM10 3.75c-0.69 0-1.25-0.56-1.25-1.25v-1.25c0-0.69 0.56-1.25 1.25-1.25s1.25 0.56 1.25 1.25v1.25c0 0.69-0.56 1.25-1.25 1.25zM18.75 8.75c0.69 0 1.25 0.56 1.25 1.25s-0.56 1.25-1.25 1.25h-1.25c-0.69 0-1.25-0.56-1.25-1.25s0.56-1.25 1.25-1.25h1.25zM3.75 10c0 0.69-0.56 1.25-1.25 1.25h-1.25c-0.69 0-1.25-0.56-1.25-1.25s0.56-1.25 1.25-1.25h1.25c0.69 0 1.25 0.56 1.25 1.25zM16.187 14.419l0.884 0.884c0.488 0.488 0.488 1.28 0 1.768-0.488 0.488-1.28 0.488-1.768 0l-0.884-0.884c-0.488-0.488-0.488-1.28 0-1.768 0.488-0.488 1.28-0.488 1.768 0zM3.813 5.581l-0.884-0.884c-0.488-0.488-0.488-1.28 0-1.768 0.488-0.488 1.28-0.488 1.768 0l0.884 0.884c0.488 0.488 0.488 1.28 0 1.768-0.488 0.488-1.28 0.488-1.768 0zM16.187 5.581c-0.488 0.488-1.28 0.488-1.768 0-0.488-0.488-0.488-1.28 0-1.768l0.884-0.884c0.488-0.488 1.28-0.488 1.768 0 0.488 0.488 0.488 1.28 0 1.768l-0.884 0.884zM3.813 14.419c0.488-0.488 1.28-0.488 1.768 0 0.488 0.488 0.488 1.28 0 1.768l-0.884 0.884c-0.488 0.488-1.28 0.488-1.768 0-0.488-0.488-0.488-1.28 0-1.768l0.884-0.884z" fill="#ffffff" />
</svg>
