<?xml version="1.0" encoding="utf-8"?>
<!-- Generated by IcoMoon.io -->
<!DOCTYPE svg PUBLIC "-//W3C//DTD SVG 1.1//EN" "http://www.w3.org/Graphics/SVG/1.1/DTD/svg11.dtd">
<svg version="1.1" xmlns="http://www.w3.org/2000/svg" xmlns:xlink="http://www.w3.org/1999/xlink" width="20" height="20" viewBox="0 0 20 20">
	<path d="M10 5c-2.761 0-5 2.239-5 5s2.239 5 5 5 5-2.239 5-5-2.239-5-5-5zM10 12.5c-1.381 0-2.5-1.119-2.5-2.5s1.119-2.5 2.5-2.5v5zM10 2.5c0.69 0 1.25-0.559 1.25-1.25 0-0.69-0.56-1.25-1.25-1.25s-1.25 0.56-1.25 1.25c0 0.691 0.56 1.25 1.25 1.25zM3.75 5c0.69 0 1.25-0.559 1.25-1.25s-0.56-1.25-1.25-1.25-1.25 0.559-1.25 1.25 0.56 1.25 1.25 1.25zM1.25 8.75c-0.69 0-1.25 0.559-1.25 1.25s0.56 1.25 1.25 1.25 1.25-0.559 1.25-1.25-0.56-1.25-1.25-1.25zM3.75 15c-0.69 0-1.25 0.559-1.25 1.25s0.56 1.25 1.25 1.25 1.25-0.559 1.25-1.25-0.56-1.25-1.25-1.25zM10 17.5c-0.69 0-1.25 0.56-1.25 1.25 0 0.691 0.56 1.25 1.25 1.25s1.25-0.559 1.25-1.25c0-0.69-0.56-1.25-1.25-1.25zM16.25 15c-0.69 0-1.25 0.559-1.25 1.25s0.56 1.25 1.25 1.25 1.25-0.559 1.25-1.25-0.56-1.25-1.25-1.25zM18.75 8.75c-0.69 0-1.25 0.559-1.25 1.25s0.56 1.25 1.25 1.25 1.25-0.559 1.25-1.25-0.56-1.25-1.25-1.25zM16.25 5c0.69 0 1.25-0.559 1.25-1.25s-0.56-1.25-1.25-1.25-1.25 0.559-1.25 1.25 0.56 1.25 1.25 1.25z" fill="#ffffff" />
</svg>
