<?xml version="1.0" encoding="utf-8"?>
<!-- Generated by IcoMoon.io -->
<!DOCTYPE svg PUBLIC "-//W3C//DTD SVG 1.1//EN" "http://www.w3.org/Graphics/SVG/1.1/DTD/svg11.dtd">
<svg version="1.1" xmlns="http://www.w3.org/2000/svg" xmlns:xlink="http://www.w3.org/1999/xlink" width="20" height="20" viewBox="0 0 20 20">
	<path d="M10 8.242c-0.969 0-1.758 0.789-1.758 1.758s0.789 1.758 1.758 1.758c0.969 0 1.758-0.789 1.758-1.758 0-0.969-0.789-1.758-1.758-1.758zM10 6.25v0c2.071 0 3.75 1.679 3.75 3.75s-1.679 3.75-3.75 3.75c-2.071 0-3.75-1.679-3.75-3.75 0-2.071 1.679-3.75 3.75-3.75zM17.134 15.366c0.488 0.488 0.488 1.28 0 1.768-0.488 0.488-1.28 0.488-1.768 0l-1.25-1.25c-0.488-0.488-0.488-1.28 0-1.768 0.488-0.488 1.28-0.488 1.768 0l1.25 1.25zM5.884 4.116c0.488 0.488 0.488 1.28 0 1.768-0.488 0.488-1.28 0.488-1.768 0l-1.25-1.25c-0.488-0.488-0.488-1.28 0-1.768 0.488-0.488 1.28-0.488 1.768 0l1.25 1.25zM15.366 2.866c0.488-0.488 1.28-0.488 1.768 0 0.488 0.488 0.488 1.28 0 1.768l-1.25 1.25c-0.488 0.488-1.28 0.488-1.768 0-0.488-0.488-0.488-1.28 0-1.768l1.25-1.25zM4.116 14.116c0.488-0.488 1.28-0.488 1.768 0 0.488 0.488 0.488 1.28 0 1.768l-1.25 1.25c-0.488 0.488-1.28 0.488-1.768 0-0.488-0.488-0.488-1.28 0-1.768l1.25-1.25zM10 1.25c0.69 0 1.25 0.56 1.25 1.25v1.25c0 0.69-0.56 1.25-1.25 1.25s-1.25-0.56-1.25-1.25v-1.25c0-0.69 0.56-1.25 1.25-1.25zM10 15c0.69 0 1.25 0.56 1.25 1.25v1.25c0 0.69-0.56 1.25-1.25 1.25s-1.25-0.56-1.25-1.25v-1.25c0-0.69 0.56-1.25 1.25-1.25zM1.25 10c0-0.69 0.56-1.25 1.25-1.25h1.25c0.69 0 1.25 0.56 1.25 1.25 0 0.69-0.56 1.25-1.25 1.25h-1.25c-0.69 0-1.25-0.56-1.25-1.25zM15 10c0-0.69 0.56-1.25 1.25-1.25h1.25c0.69 0 1.25 0.56 1.25 1.25s-0.56 1.25-1.25 1.25h-1.25c-0.69 0-1.25-0.56-1.25-1.25z" fill="#ffffff" />
</svg>
