<?xml version="1.0" encoding="utf-8"?>
<!-- Generated by IcoMoon.io -->
<!DOCTYPE svg PUBLIC "-//W3C//DTD SVG 1.1//EN" "http://www.w3.org/Graphics/SVG/1.1/DTD/svg11.dtd">
<svg version="1.1" xmlns="http://www.w3.org/2000/svg" xmlns:xlink="http://www.w3.org/1999/xlink" width="20" height="20" viewBox="0 0 20 20">
	<path d="M18 2h-16c-1.1 0-2 0.9-2 2v12c0 1.101 0.9 2 2 2h16c1.1 0 2-0.899 2-2v-12c0-1.1-0.9-2-2-2zM4.6 3.87c0.415 0 0.75 0.326 0.75 0.729 0 0.404-0.335 0.73-0.75 0.73s-0.75-0.326-0.75-0.729c0-0.404 0.336-0.73 0.75-0.73zM1.85 4.6c0-0.403 0.335-0.729 0.75-0.729s0.75 0.325 0.75 0.729c0 0.404-0.335 0.73-0.75 0.73s-0.75-0.327-0.75-0.73zM18.020 16h-16.040v-9.2h16.040v9.2zM18.020 5.2h-12.020v-1.2h12.020v1.2z" fill="#ffffff" />
</svg>
