<?xml version="1.0" encoding="utf-8"?>
<!-- Generated by IcoMoon.io -->
<!DOCTYPE svg PUBLIC "-//W3C//DTD SVG 1.1//EN" "http://www.w3.org/Graphics/SVG/1.1/DTD/svg11.dtd">
<svg version="1.1" xmlns="http://www.w3.org/2000/svg" xmlns:xlink="http://www.w3.org/1999/xlink" width="20" height="20" viewBox="0 0 20 20">
	<path d="M2.763 13.562c-1.514 1.488-0.235 3.016-2.247 5.281-0.908 1.022 3.738 0.71 6.040-1.553 0.976-0.959 0.701-2.358-0.346-3.388-1.047-1.029-2.471-1.299-3.447-0.34zM19.541 0.658c-0.777-0.763-9.379 6.13-11.94 8.647-1.271 1.249-1.695 1.919-2.085 2.42-0.169 0.218 0.055 0.285 0.155 0.337 0.503 0.256 0.855 0.494 1.311 0.942 0.456 0.447 0.699 0.793 0.959 1.288 0.052 0.099 0.121 0.319 0.342 0.152 0.51-0.383 1.191-0.8 2.461-2.049 2.561-2.517 9.572-10.973 8.797-11.737z" fill="#ffffff" />
</svg>
