<?xml version="1.0" encoding="utf-8"?>
<!-- Generated by IcoMoon.io -->
<!DOCTYPE svg PUBLIC "-//W3C//DTD SVG 1.1//EN" "http://www.w3.org/Graphics/SVG/1.1/DTD/svg11.dtd">
<svg version="1.1" xmlns="http://www.w3.org/2000/svg" xmlns:xlink="http://www.w3.org/1999/xlink" width="23" height="20" viewBox="0 0 23 20">
	<path d="M21.25 17.601c0 0.889 0.508 1.658 1.25 2.035v0.311c-0.208 0.028-0.419 0.043-0.635 0.043-1.328 0-2.526-0.557-3.373-1.45-0.512 0.136-1.055 0.21-1.617 0.21-3.107 0-5.625-2.239-5.625-5 0-2.761 2.518-5 5.625-5 3.107 0 5.625 2.239 5.625 5 0 1.081-0.386 2.082-1.042 2.9-0.133 0.29-0.208 0.612-0.208 0.951zM4.505 4.32c-1.293 1.051-2.005 2.402-2.005 3.805 0 0.787 0.219 1.55 0.649 2.269 0.444 0.741 1.113 1.418 1.933 1.958 0.593 0.39 0.992 1.015 1.097 1.717 0.035 0.234 0.057 0.47 0.066 0.706 0.146-0.121 0.288-0.251 0.427-0.39 0.472-0.472 1.109-0.732 1.768-0.732 0.105 0 0.21 0.007 0.316 0.020 0.409 0.052 0.827 0.078 1.242 0.079v2.5c-0.53-0-1.050-0.034-1.557-0.098-2.148 2.148-4.712 2.533-7.191 2.59v-0.526c1.339-0.656 2.5-1.85 2.5-3.216 0-0.191-0.015-0.378-0.042-0.56-2.262-1.49-3.708-3.765-3.708-6.315 0-4.487 4.477-8.125 10-8.125 5.439 0 9.863 3.528 9.997 7.92-0.803-0.358-1.677-0.575-2.583-0.636-0.225-1.095-0.887-2.125-1.919-2.964-0.69-0.561-1.502-1.004-2.415-1.317-0.971-0.334-2.007-0.503-3.080-0.503-1.073 0-2.109 0.169-3.080 0.503-0.912 0.314-1.725 0.757-2.415 1.317z" fill="#ffffff" />
</svg>
