<?xml version="1.0" encoding="utf-8"?>
<!-- Generated by IcoMoon.io -->
<!DOCTYPE svg PUBLIC "-//W3C//DTD SVG 1.1//EN" "http://www.w3.org/Graphics/SVG/1.1/DTD/svg11.dtd">
<svg version="1.1" xmlns="http://www.w3.org/2000/svg" xmlns:xlink="http://www.w3.org/1999/xlink" width="20" height="20" viewBox="0 0 20 20">
	<path d="M10 3.75c-1.073 0-2.109 0.169-3.080 0.503-0.912 0.314-1.725 0.757-2.415 1.317-1.293 1.051-2.005 2.402-2.005 3.805 0 0.787 0.219 1.55 0.649 2.269 0.444 0.741 1.113 1.418 1.933 1.958 0.593 0.39 0.992 1.015 1.097 1.717 0.035 0.234 0.057 0.47 0.066 0.706 0.146-0.121 0.288-0.251 0.427-0.39 0.472-0.472 1.109-0.732 1.768-0.732 0.105 0 0.21 0.007 0.316 0.020 0.41 0.052 0.828 0.079 1.244 0.079 1.073 0 2.109-0.169 3.080-0.503 0.912-0.314 1.725-0.757 2.415-1.317 1.293-1.051 2.005-2.402 2.005-3.805 0-1.403-0.712-2.754-2.005-3.805-0.69-0.561-1.502-1.004-2.415-1.317-0.971-0.334-2.007-0.503-3.080-0.503zM10 1.25v0c5.523 0 10 3.638 10 8.125 0 4.487-4.477 8.125-10 8.125-0.53 0-1.051-0.034-1.559-0.099-2.148 2.148-4.712 2.533-7.191 2.59v-0.526c1.339-0.656 2.5-1.85 2.5-3.216 0-0.191-0.015-0.378-0.042-0.56-2.262-1.49-3.708-3.765-3.708-6.315 0-4.487 4.477-8.125 10-8.125z" fill="#ffffff" />
</svg>
