<?xml version="1.0" encoding="utf-8"?>
<!-- Generated by IcoMoon.io -->
<!DOCTYPE svg PUBLIC "-//W3C//DTD SVG 1.1//EN" "http://www.w3.org/Graphics/SVG/1.1/DTD/svg11.dtd">
<svg version="1.1" xmlns="http://www.w3.org/2000/svg" xmlns:xlink="http://www.w3.org/1999/xlink" width="23" height="20" viewBox="0 0 23 20">
	<path d="M9.375 0v0c5.178 0 9.375 3.397 9.375 7.587s-4.197 7.587-9.375 7.587c-0.497 0-0.985-0.032-1.462-0.092-2.014 2.006-4.339 2.365-6.663 2.418v-0.491c1.255-0.612 2.266-1.728 2.266-3.003 0-0.178-0.014-0.352-0.040-0.523-2.12-1.391-3.476-3.515-3.476-5.896 0-4.19 4.197-7.587 9.375-7.587zM19.453 17.006c0 1.093 0.709 2.049 1.797 2.574v0.421c-2.014-0.045-3.863-0.354-5.608-2.073-0.413 0.052-0.836 0.079-1.267 0.079-1.865 0-3.582-0.503-4.953-1.348 2.826-0.010 5.493-0.915 7.516-2.552 1.020-0.825 1.824-1.793 2.391-2.878 0.601-1.15 0.906-2.375 0.906-3.641 0-0.204-0.009-0.407-0.025-0.609 1.417 1.171 2.29 2.766 2.29 4.525 0 2.041-1.175 3.862-3.012 5.054-0.022 0.146-0.034 0.296-0.034 0.449z" fill="#ffffff" />
</svg>
