<?xml version="1.0" encoding="utf-8"?>
<!-- Generated by IcoMoon.io -->
<!DOCTYPE svg PUBLIC "-//W3C//DTD SVG 1.1//EN" "http://www.w3.org/Graphics/SVG/1.1/DTD/svg11.dtd">
<svg version="1.1" xmlns="http://www.w3.org/2000/svg" xmlns:xlink="http://www.w3.org/1999/xlink" width="20" height="20" viewBox="0 0 20 20">
	<path d="M10 4.375c0.172 0 0.313 0.14 0.313 0.313s-0.141 0.313-0.313 0.313c-3.329 0-6.25 1.753-6.25 3.75 0 0.172-0.14 0.313-0.313 0.313-0.172 0-0.313-0.14-0.313-0.313 0-2.371 3.148-4.375 6.875-4.375zM10 1.25c-5.523 0-10 3.358-10 7.5 0 2.579 1.737 4.854 4.38 6.204 0 0.017-0.005 0.028-0.005 0.046 0 1.121-0.837 2.327-1.205 2.96 0.001 0 0.001 0 0.001 0-0.029 0.069-0.046 0.144-0.046 0.224 0 0.313 0.253 0.566 0.566 0.566 0.059 0 0.162-0.016 0.159-0.009 1.953-0.32 3.793-2.114 4.221-2.634 0.624 0.092 1.268 0.143 1.929 0.143 5.522 0 10-3.358 10-7.5 0-4.142-4.478-7.5-10-7.5zM10 15c-0.573 0-1.161-0.044-1.747-0.129-0.061-0.010-0.121-0.013-0.181-0.013-0.371 0-0.727 0.165-0.966 0.456-0.268 0.326-1.029 1.053-1.928 1.587 0.244-0.559 0.434-1.186 0.447-1.832 0.004-0.040 0.006-0.081 0.006-0.115 0-0.47-0.263-0.899-0.681-1.113-2.316-1.182-3.699-3.086-3.699-5.090 0-3.446 3.925-6.25 8.75-6.25 4.824 0 8.75 2.804 8.75 6.25 0 3.446-3.926 6.25-8.75 6.25z" fill="#ffffff" />
</svg>
