<?xml version="1.0" encoding="utf-8"?>
<!-- Generated by IcoMoon.io -->
<!DOCTYPE svg PUBLIC "-//W3C//DTD SVG 1.1//EN" "http://www.w3.org/Graphics/SVG/1.1/DTD/svg11.dtd">
<svg version="1.1" xmlns="http://www.w3.org/2000/svg" xmlns:xlink="http://www.w3.org/1999/xlink" width="23" height="20" viewBox="0 0 23 20">
	<path d="M21.25 17.601c0 0.889 0.508 1.658 1.25 2.035v0.311c-0.208 0.028-0.419 0.043-0.635 0.043-1.328 0-2.526-0.557-3.373-1.45-0.512 0.136-1.055 0.21-1.617 0.21-3.107 0-5.625-2.239-5.625-5 0-2.761 2.518-5 5.625-5 3.107 0 5.625 2.239 5.625 5 0 1.081-0.386 2.082-1.042 2.9-0.133 0.29-0.208 0.612-0.208 0.951zM10 0c5.439 0 9.863 3.528 9.997 7.92-0.961-0.428-2.023-0.655-3.122-0.655-1.866 0-3.629 0.653-4.964 1.839-1.384 1.23-2.146 2.88-2.146 4.645 0 0.873 0.186 1.717 0.542 2.496-0.102 0.002-0.204 0.004-0.307 0.004-0.53 0-1.051-0.034-1.559-0.099-2.148 2.148-4.712 2.533-7.191 2.59v-0.526c1.339-0.656 2.5-1.85 2.5-3.216 0-0.191-0.015-0.378-0.042-0.56-2.262-1.49-3.708-3.765-3.708-6.315 0-4.487 4.477-8.125 10-8.125z" fill="#ffffff" />
</svg>
