<?xml version="1.0" encoding="utf-8"?>
<!-- Generated by IcoMoon.io -->
<!DOCTYPE svg PUBLIC "-//W3C//DTD SVG 1.1//EN" "http://www.w3.org/Graphics/SVG/1.1/DTD/svg11.dtd">
<svg version="1.1" xmlns="http://www.w3.org/2000/svg" xmlns:xlink="http://www.w3.org/1999/xlink" width="30" height="30" viewBox="0 0 30 30">
	<path d="M15 5.625c-1.609 0-3.164 0.254-4.62 0.754-1.369 0.47-2.587 1.135-3.622 1.976-1.94 1.576-3.008 3.603-3.008 5.707 0 1.181 0.328 2.326 0.974 3.403 0.667 1.111 1.669 2.127 2.9 2.937 0.889 0.586 1.488 1.522 1.646 2.575 0.053 0.351 0.086 0.706 0.099 1.058 0.219-0.181 0.432-0.376 0.641-0.585 0.708-0.708 1.663-1.098 2.651-1.098 0.157 0 0.315 0.010 0.473 0.030 0.614 0.078 1.242 0.118 1.866 0.118 1.609 0 3.164-0.254 4.62-0.754 1.369-0.47 2.587-1.135 3.622-1.976 1.94-1.576 3.008-3.603 3.008-5.707 0-2.104-1.068-4.131-3.008-5.707-1.035-0.841-2.253-1.506-3.622-1.976-1.456-0.5-3.011-0.754-4.62-0.754zM15 1.875v0c8.284 0 15 5.457 15 12.188 0 6.731-6.716 12.188-15 12.188-0.796 0-1.576-0.051-2.339-0.148-3.222 3.222-7.068 3.8-10.786 3.885v-0.789c2.008-0.984 3.75-2.776 3.75-4.823 0-0.286-0.022-0.566-0.063-0.841-3.392-2.234-5.562-5.647-5.562-9.472 0-6.731 6.716-12.188 15-12.188z" fill="#ffffff" />
</svg>
