<?xml version="1.0" encoding="utf-8"?>
<!-- Generated by IcoMoon.io -->
<!DOCTYPE svg PUBLIC "-//W3C//DTD SVG 1.1//EN" "http://www.w3.org/Graphics/SVG/1.1/DTD/svg11.dtd">
<svg version="1.1" xmlns="http://www.w3.org/2000/svg" xmlns:xlink="http://www.w3.org/1999/xlink" width="20" height="20" viewBox="0 0 20 20">
	<path d="M11.331 1.4v0c-4.908 0-7.998 1.691-7.791 3.050 0.060 0.388 0.225 1.445 0.434 2.775-2.405 0.934-3.202 2.447-3.095 3.682 0.126 1.461 1.441 3.025 4.328 3.296 1.648 0.153 3.631-0.75 4.917-2.295-0.123-0.208-0.193-0.448-0.193-0.707 0-0.773 0.626-1.4 1.399-1.4s1.4 0.627 1.4 1.4c0 0.762-0.61 1.381-1.368 1.398-1.53 1.973-3.859 3.163-6.065 3.024 0.051 0.325 0.071 0.448 0.096 0.613 0.091 0.578 2.347 2.36 5.937 2.363h0.001c3.59-0.003 5.847-1.785 5.937-2.363 0.089-0.575 1.642-10.406 1.852-11.786 0.208-1.358-2.883-3.050-7.789-3.050zM2.274 10.785c-0.055-0.642 0.455-1.497 1.923-2.139 0.211 1.341 0.441 2.797 0.643 4.075-1.604-0.315-2.498-1.151-2.566-1.936zM11.33 6.524c-3.59-0.002-6.137-1.335-6.137-1.832-0.002-0.495 2.547-1.83 6.137-1.828 3.59-0.002 6.14 1.333 6.138 1.828 0 0.497-2.547 1.83-6.138 1.832z" fill="#ffffff" />
</svg>
