<?xml version="1.0" encoding="utf-8"?>
<!-- Generated by IcoMoon.io -->
<!DOCTYPE svg PUBLIC "-//W3C//DTD SVG 1.1//EN" "http://www.w3.org/Graphics/SVG/1.1/DTD/svg11.dtd">
<svg version="1.1" xmlns="http://www.w3.org/2000/svg" xmlns:xlink="http://www.w3.org/1999/xlink" width="20" height="20" viewBox="0 0 20 20">
	<path d="M20 11.25v-1.25h-3.775c-0.114-1.42-0.621-2.715-1.4-3.755h3.163l1.368-5.473-1.213-0.303-1.132 4.527h-3.412c-0.017-0.014-0.035-0.027-0.053-0.040 0.131-0.381 0.202-0.789 0.202-1.215 0-2.066-1.679-3.74-3.75-3.74s-3.75 1.675-3.75 3.74c0 0.425 0.071 0.834 0.202 1.215-0.018 0.013-0.035 0.027-0.053 0.040h-3.412l-1.132-4.527-1.213 0.303 1.368 5.473h3.163c-0.779 1.039-1.285 2.335-1.4 3.755h-3.775v1.25h3.777c0.074 0.892 0.303 1.735 0.657 2.495h-2.422l-1.368 5.473 1.213 0.303 1.132-4.527h2.194c1.146 1.524 2.879 2.495 4.818 2.495s3.671-0.971 4.818-2.495h2.194l1.132 4.527 1.213-0.303-1.368-5.473h-2.422c0.354-0.761 0.583-1.603 0.657-2.495h3.777z" fill="#ffffff" />
</svg>
