<?xml version="1.0" encoding="utf-8"?>
<!-- Generated by IcoMoon.io -->
<!DOCTYPE svg PUBLIC "-//W3C//DTD SVG 1.1//EN" "http://www.w3.org/Graphics/SVG/1.1/DTD/svg11.dtd">
<svg version="1.1" xmlns="http://www.w3.org/2000/svg" xmlns:xlink="http://www.w3.org/1999/xlink" width="20" height="20" viewBox="0 0 20 20">
	<path d="M10 0c-3.798 0-6.875 3.078-6.875 6.875 0 2.519 2.305 5.189 3.144 7.534 1.252 3.497 1.113 5.591 3.731 5.591 2.656 0 2.478-2.084 3.731-5.576 0.842-2.35 3.144-5.049 3.144-7.549 0-3.797-3.079-6.875-6.875-6.875zM11.62 16.985l-3.099 0.387c-0.111-0.32-0.229-0.694-0.374-1.183-0.002-0.006-0.004-0.013-0.006-0.019l3.867-0.483c-0.055 0.184-0.114 0.378-0.165 0.552-0.082 0.281-0.155 0.524-0.224 0.747zM7.96 15.568c-0.114-0.376-0.242-0.773-0.384-1.193h4.854c-0.077 0.224-0.154 0.449-0.22 0.662l-4.249 0.531zM10 18.75c-0.633 0-0.924-0.073-1.248-0.781l2.649-0.332c-0.384 1.034-0.663 1.113-1.401 1.113zM12.92 13.125h-5.833c-0.311-0.675-0.685-1.35-1.054-2.011-0.816-1.459-1.658-2.969-1.658-4.239 0-3.102 2.523-5.625 5.625-5.625 3.102 0 5.625 2.523 5.625 5.625 0 1.261-0.844 2.779-1.66 4.247-0.365 0.658-0.736 1.332-1.045 2.003zM10 3.125c0.172 0 0.313 0.14 0.313 0.313s-0.14 0.313-0.313 0.313c-1.723 0-3.125 1.402-3.125 3.125 0 0.172-0.14 0.313-0.313 0.313-0.172 0-0.313-0.14-0.313-0.313 0-2.068 1.682-3.75 3.75-3.75z" fill="#ffffff" />
</svg>
