<?xml version="1.0" encoding="utf-8"?>
<!-- Generated by IcoMoon.io -->
<!DOCTYPE svg PUBLIC "-//W3C//DTD SVG 1.1//EN" "http://www.w3.org/Graphics/SVG/1.1/DTD/svg11.dtd">
<svg version="1.1" xmlns="http://www.w3.org/2000/svg" xmlns:xlink="http://www.w3.org/1999/xlink" width="20" height="20" viewBox="0 0 20 20">
	<path d="M20 8.384c0-3.924-1.148-7.108-2.568-7.133 0.006-0 0.011-0.001 0.017-0.001h-1.62c0 0-3.805 2.858-9.282 3.98-0.167 0.885-0.274 1.939-0.274 3.154 0 1.215 0.107 2.27 0.274 3.154 5.477 1.121 9.282 3.98 9.282 3.98h1.62c-0.006 0-0.011-0-0.017-0.001 1.42-0.025 2.568-3.209 2.568-7.133zM16.891 14.439c-0.183 0-0.381-0.19-0.483-0.304-0.247-0.275-0.484-0.702-0.687-1.237-0.454-1.196-0.704-2.799-0.704-4.514 0-1.715 0.25-3.318 0.704-4.514 0.203-0.535 0.441-0.962 0.687-1.237 0.102-0.114 0.3-0.304 0.483-0.304 0.183 0 0.382 0.19 0.483 0.304 0.247 0.275 0.484 0.702 0.687 1.237 0.454 1.196 0.704 2.799 0.704 4.514 0 1.715-0.25 3.318-0.704 4.514-0.203 0.535-0.441 0.962-0.687 1.237-0.102 0.113-0.3 0.304-0.483 0.304zM4.918 8.384c0-1.015 0.074-2.001 0.216-2.912-0.925 0.128-1.737 0.202-2.741 0.202-1.31 0-1.31 0-1.31 0l-1.083 1.849v1.722l1.083 1.849c0 0 0 0 1.31 0 1.004 0 1.816 0.074 2.741 0.202-0.141-0.911-0.216-1.897-0.216-2.912zM7.19 12.542l-2.5-0.479 1.598 6.28c0.083 0.325 0.405 0.489 0.717 0.364l2.316-0.927c0.311-0.125 0.436-0.468 0.277-0.763l-2.408-4.476zM16.891 10.717c-0.071 0-0.147-0.073-0.186-0.117-0.095-0.106-0.187-0.271-0.265-0.477-0.175-0.461-0.271-1.079-0.271-1.74 0-0.661 0.096-1.279 0.271-1.74 0.078-0.206 0.17-0.371 0.265-0.477 0.039-0.044 0.116-0.117 0.186-0.117 0.071 0 0.147 0.073 0.186 0.117 0.095 0.106 0.187 0.271 0.265 0.477 0.175 0.461 0.272 1.079 0.272 1.74 0 0.661-0.096 1.279-0.272 1.74-0.078 0.206-0.17 0.371-0.265 0.477-0.039 0.044-0.116 0.117-0.186 0.117z" fill="#ffffff" />
</svg>
