<?xml version="1.0" encoding="utf-8"?>
<!-- Generated by IcoMoon.io -->
<!DOCTYPE svg PUBLIC "-//W3C//DTD SVG 1.1//EN" "http://www.w3.org/Graphics/SVG/1.1/DTD/svg11.dtd">
<svg version="1.1" xmlns="http://www.w3.org/2000/svg" xmlns:xlink="http://www.w3.org/1999/xlink" width="20" height="20" viewBox="0 0 20 20">
	<path d="M14.238 10c2.691-1.706 4.512-4.985 4.512-8.75 0-0.423-0.023-0.841-0.068-1.25h-17.364c-0.045 0.41-0.068 0.827-0.068 1.25 0 3.765 1.821 7.044 4.512 8.75-2.69 1.706-4.512 4.985-4.512 8.75 0 0.423 0.023 0.841 0.068 1.25h17.364c0.045-0.409 0.068-0.827 0.068-1.25 0-3.765-1.821-7.044-4.512-8.75zM3.125 18.75c0-3.651 1.566-6.746 4.375-7.768v-1.965c-2.809-1.021-4.375-4.117-4.375-7.768v0h13.75c0 3.651-1.566 6.746-4.375 7.768v1.965c2.809 1.021 4.375 4.117 4.375 7.768h-13.75zM12.102 13.078c-1.399-0.794-1.477-1.824-1.477-2.449v-1.254c0-0.625 0.074-1.658 1.479-2.454 0.752-0.437 1.402-1.101 1.895-1.921h-8c0.493 0.821 1.145 1.485 1.898 1.922 1.399 0.794 1.477 1.824 1.477 2.449v1.254c0 0.625-0.074 1.658-1.479 2.454-1.418 0.824-2.475 2.455-2.795 4.421h9.798c-0.32-1.967-1.378-3.599-2.797-4.422z" fill="#ffffff" />
</svg>
