<?xml version="1.0" encoding="utf-8"?>
<!-- Generated by IcoMoon.io -->
<!DOCTYPE svg PUBLIC "-//W3C//DTD SVG 1.1//EN" "http://www.w3.org/Graphics/SVG/1.1/DTD/svg11.dtd">
<svg version="1.1" xmlns="http://www.w3.org/2000/svg" xmlns:xlink="http://www.w3.org/1999/xlink" width="20" height="20" viewBox="0 0 20 20">
	<path d="M7.5 1.25h-6.25c-0.688 0-1.25 0.563-1.25 1.25v6.25c0 0.688 0.562 1.25 1.25 1.25h6.25c0.688 0 1.25-0.563 1.25-1.25v-6.25c0-0.688-0.563-1.25-1.25-1.25zM7.5 6.25h-6.25v-1.25h6.25v1.25zM17.5 1.25h-6.25c-0.688 0-1.25 0.563-1.25 1.25v16.25c0 0.688 0.562 1.25 1.25 1.25h6.25c0.688 0 1.25-0.563 1.25-1.25v-16.25c0-0.688-0.563-1.25-1.25-1.25zM17.5 12.5h-6.25v-1.25h6.25v1.25zM17.5 8.75h-6.25v-1.25h6.25v1.25zM7.5 11.25h-6.25c-0.688 0-1.25 0.563-1.25 1.25v6.25c0 0.688 0.562 1.25 1.25 1.25h6.25c0.688 0 1.25-0.563 1.25-1.25v-6.25c0-0.688-0.563-1.25-1.25-1.25zM7.5 16.25h-2.5v2.5h-1.25v-2.5h-2.5v-1.25h2.5v-2.5h1.25v2.5h2.5v1.25z" fill="#ffffff" />
</svg>
