<?xml version="1.0" encoding="utf-8"?>
<!-- Generated by IcoMoon.io -->
<!DOCTYPE svg PUBLIC "-//W3C//DTD SVG 1.1//EN" "http://www.w3.org/Graphics/SVG/1.1/DTD/svg11.dtd">
<svg version="1.1" xmlns="http://www.w3.org/2000/svg" xmlns:xlink="http://www.w3.org/1999/xlink" width="20" height="20" viewBox="0 0 20 20">
	<path d="M17.5 2.5h-1.875v0.625c0 0.689-0.561 1.25-1.25 1.25s-1.25-0.561-1.25-1.25v-0.625h-6.25v0.625c0 0.689-0.561 1.25-1.25 1.25s-1.25-0.561-1.25-1.25v-0.625h-1.875c-0.688 0-1.25 0.563-1.25 1.25v13.75c0 0.688 0.563 1.25 1.25 1.25h15c0.688 0 1.25-0.563 1.25-1.25v-13.75c0-0.688-0.563-1.25-1.25-1.25zM17.5 17.498c-0.001 0.001-0.001 0.002-0.002 0.002h-14.996c-0.001-0.001-0.002-0.001-0.002-0.002v-11.248h15v11.248zM5.625 3.75c0.345 0 0.625-0.28 0.625-0.625v-2.5c0-0.345-0.28-0.625-0.625-0.625s-0.625 0.28-0.625 0.625v2.5c0 0.345 0.28 0.625 0.625 0.625zM14.375 3.75c0.345 0 0.625-0.28 0.625-0.625v-2.5c0-0.345-0.28-0.625-0.625-0.625s-0.625 0.28-0.625 0.625v2.5c0 0.345 0.28 0.625 0.625 0.625zM11.25 7.5h-6.25v1.25h5v2.5h-5v1.25h5v2.5h-5v1.25h6.25zM13.75 16.25h1.25v-8.75h-2.5v1.25h1.25zM17.031 19.219h-14.063c-0.688 0-1.25-0.406-1.25-1.094v0.625c0 0.688 0.563 1.25 1.25 1.25h14.063c0.688 0 1.25-0.563 1.25-1.25v-0.625c0 0.688-0.563 1.094-1.25 1.094z" fill="#ffffff" />
</svg>
