<?xml version="1.0" encoding="utf-8"?>
<!-- Generated by IcoMoon.io -->
<!DOCTYPE svg PUBLIC "-//W3C//DTD SVG 1.1//EN" "http://www.w3.org/Graphics/SVG/1.1/DTD/svg11.dtd">
<svg version="1.1" xmlns="http://www.w3.org/2000/svg" xmlns:xlink="http://www.w3.org/1999/xlink" width="20" height="20" viewBox="0 0 20 20">
	<path d="M6.25 7.5h2.5v2.5h-2.5zM10 7.5h2.5v2.5h-2.5zM13.75 7.5h2.5v2.5h-2.5zM2.5 15h2.5v2.5h-2.5zM6.25 15h2.5v2.5h-2.5zM10 15h2.5v2.5h-2.5zM6.25 11.25h2.5v2.5h-2.5zM10 11.25h2.5v2.5h-2.5zM13.75 11.25h2.5v2.5h-2.5zM2.5 11.25h2.5v2.5h-2.5zM16.25 0v1.25h-2.5v-1.25h-8.75v1.25h-2.5v-1.25h-2.5v20h18.75v-20h-2.5zM17.5 18.75h-16.25v-13.75h16.25v13.75z" fill="#ffffff" />
</svg>
