<?xml version="1.0" encoding="utf-8"?>
<!-- Generated by IcoMoon.io -->
<!DOCTYPE svg PUBLIC "-//W3C//DTD SVG 1.1//EN" "http://www.w3.org/Graphics/SVG/1.1/DTD/svg11.dtd">
<svg version="1.1" xmlns="http://www.w3.org/2000/svg" xmlns:xlink="http://www.w3.org/1999/xlink" width="20" height="20" viewBox="0 0 20 20">
	<path d="M10 6.251c-2.762 0-5 2.238-5 5 0 2.761 2.238 5 5 5 2.761 0 5-2.239 5-5 0-2.761-2.239-5-5-5zM12.847 13.691c-1.348 1.572-3.714 1.754-5.287 0.406-1.573-1.347-1.754-3.715-0.406-5.287 1.347-1.573 3.714-1.754 5.287-0.406 1.572 1.347 1.754 3.715 0.406 5.287zM10 8.751c0.172 0 0.313 0.14 0.313 0.313s-0.14 0.313-0.313 0.313c-1.036 0-1.874 0.839-1.875 1.874v0.001c0 0.172-0.14 0.313-0.313 0.313s-0.313-0.141-0.313-0.313v-0.001c0.001-1.38 1.119-2.499 2.5-2.499zM18.433 5.651l-2.709-0.452-0.858-2.146c-0.287-0.716-0.971-1.178-1.741-1.178h-6.25c-0.77 0-1.454 0.462-1.741 1.179l-0.857 2.146-2.708 0.452c-0.909 0.151-1.568 0.928-1.568 1.849v9.375c0 1.034 0.841 1.875 1.875 1.875h16.25c1.034 0 1.875-0.841 1.875-1.875v-9.375c0-0.921-0.659-1.698-1.567-1.849zM18.75 16.875c0 0.346-0.279 0.625-0.625 0.625h-16.25c-0.346 0-0.625-0.279-0.625-0.625v-9.375c0-0.306 0.221-0.566 0.522-0.616l3.402-0.567 1.119-2.799c0.096-0.237 0.325-0.393 0.581-0.393h6.25c0.255 0 0.484 0.156 0.58 0.393l1.119 2.799 3.403 0.567c0.301 0.050 0.523 0.311 0.523 0.616v9.375z" fill="#ffffff" />
</svg>
