<?xml version="1.0" encoding="utf-8"?>
<!-- Generated by IcoMoon.io -->
<!DOCTYPE svg PUBLIC "-//W3C//DTD SVG 1.1//EN" "http://www.w3.org/Graphics/SVG/1.1/DTD/svg11.dtd">
<svg version="1.1" xmlns="http://www.w3.org/2000/svg" xmlns:xlink="http://www.w3.org/1999/xlink" width="20" height="20" viewBox="0 0 20 20">
	<path d="M7.5 5.625c0-1.726 1.399-3.125 3.125-3.125s3.125 1.399 3.125 3.125c0 1.726-1.399 3.125-3.125 3.125-1.726 0-3.125-1.399-3.125-3.125zM0 5.625c0-1.726 1.399-3.125 3.125-3.125s3.125 1.399 3.125 3.125c0 1.726-1.399 3.125-3.125 3.125-1.726 0-3.125-1.399-3.125-3.125zM15 11.875v-1.875c0-0.688-0.563-1.25-1.25-1.25h-12.5c-0.688 0-1.25 0.563-1.25 1.25v6.25c0 0.688 0.563 1.25 1.25 1.25h12.5c0.688 0 1.25-0.563 1.25-1.25v-1.875l5 3.125v-8.75l-5 3.125zM12.5 15h-10v-3.75h10v3.75z" fill="#ffffff" />
</svg>
