<?xml version="1.0" encoding="utf-8"?>
<!-- Generated by IcoMoon.io -->
<!DOCTYPE svg PUBLIC "-//W3C//DTD SVG 1.1//EN" "http://www.w3.org/Graphics/SVG/1.1/DTD/svg11.dtd">
<svg version="1.1" xmlns="http://www.w3.org/2000/svg" xmlns:xlink="http://www.w3.org/1999/xlink" width="20" height="20" viewBox="0 0 20 20">
	<path d="M10 8c-1.656 0-3 1.344-3 3 0 1.657 1.344 3 3 3 1.657 0 3-1.343 3-3 0-1.656-1.343-3-3-3zM18 5h-2.399c-0.33 0-0.686-0.256-0.79-0.569l-0.62-1.861c-0.106-0.314-0.461-0.57-0.791-0.57h-6.8c-0.33 0-0.686 0.256-0.789 0.569l-0.622 1.862c-0.104 0.313-0.459 0.569-0.789 0.569h-2.4c-1.1 0-2 0.9-2 2v9c0 1.1 0.9 2 2 2h16c1.101 0 2-0.9 2-2v-9c0-1.1-0.899-2-2-2zM10 16c-2.762 0-5-2.238-5-5 0-2.761 2.238-5 5-5 2.761 0 5 2.239 5 5 0 2.762-2.239 5-5 5zM17.3 8.398c-0.386 0-0.699-0.313-0.699-0.7s0.313-0.7 0.699-0.7c0.387 0 0.7 0.313 0.7 0.7s-0.313 0.7-0.7 0.7z" fill="#ffffff" />
</svg>
