<?xml version="1.0" encoding="utf-8"?>
<!-- Generated by IcoMoon.io -->
<!DOCTYPE svg PUBLIC "-//W3C//DTD SVG 1.1//EN" "http://www.w3.org/Graphics/SVG/1.1/DTD/svg11.dtd">
<svg version="1.1" xmlns="http://www.w3.org/2000/svg" xmlns:xlink="http://www.w3.org/1999/xlink" width="20" height="20" viewBox="0 0 20 20">
	<path d="M5.938 11.875c0 2.244 1.819 4.063 4.063 4.063s4.063-1.819 4.063-4.063-1.819-4.063-4.063-4.063-4.063 1.819-4.063 4.063zM18.75 5h-4.375c-0.313-1.25-0.625-2.5-1.875-2.5h-5c-1.25 0-1.563 1.25-1.875 2.5h-4.375c-0.688 0-1.25 0.563-1.25 1.25v11.25c0 0.688 0.563 1.25 1.25 1.25h17.5c0.688 0 1.25-0.563 1.25-1.25v-11.25c0-0.688-0.563-1.25-1.25-1.25zM10 17.422c-3.063 0-5.547-2.483-5.547-5.547 0-3.063 2.483-5.547 5.547-5.547 3.064 0 5.547 2.483 5.547 5.547 0 3.064-2.483 5.547-5.547 5.547zM18.75 8.75h-2.5v-1.25h2.5v1.25z" fill="#ffffff" />
</svg>
