<?xml version="1.0" encoding="utf-8"?>
<!-- Generated by IcoMoon.io -->
<!DOCTYPE svg PUBLIC "-//W3C//DTD SVG 1.1//EN" "http://www.w3.org/Graphics/SVG/1.1/DTD/svg11.dtd">
<svg version="1.1" xmlns="http://www.w3.org/2000/svg" xmlns:xlink="http://www.w3.org/1999/xlink" width="20" height="20" viewBox="0 0 20 20">
	<path d="M19.093 3.798c-0.664-0.19-1.356 0.195-1.545 0.859l-0.098 0.343h-11.659l-0.176-1.405c-0.078-0.626-0.61-1.095-1.24-1.095h-3.125c-0.69 0-1.25 0.56-1.25 1.25s0.56 1.25 1.25 1.25h2.022l1.113 8.905c0.078 0.626 0.61 1.095 1.24 1.095h10.625c0.558 0 1.049-0.37 1.202-0.907l2.5-8.75c0.19-0.664-0.195-1.356-0.859-1.545zM10 10v-1.25h2.5v1.25h-2.5zM12.5 11.25v1.25h-2.5v-1.25h2.5zM10 7.5v-1.25h2.5v1.25h-2.5zM5.947 6.25h2.803v1.25h-2.647l-0.156-1.25zM6.26 8.75h2.49v1.25h-2.334l-0.156-1.25zM6.572 11.25h2.178v1.25h-2.022l-0.156-1.25zM15.307 12.5h-1.557v-1.25h1.914l-0.357 1.25zM16.021 10h-2.271v-1.25h2.629l-0.357 1.25zM16.736 7.5h-2.986v-1.25h3.343l-0.357 1.25zM5 18.125c0-1.036 0.839-1.875 1.875-1.875s1.875 0.839 1.875 1.875c0 1.036-0.839 1.875-1.875 1.875-1.036 0-1.875-0.839-1.875-1.875zM12.5 18.125c0-1.036 0.839-1.875 1.875-1.875s1.875 0.839 1.875 1.875c0 1.036-0.839 1.875-1.875 1.875-1.036 0-1.875-0.839-1.875-1.875z" fill="#ffffff" />
</svg>
