<?xml version="1.0" encoding="utf-8"?>
<!-- Generated by IcoMoon.io -->
<!DOCTYPE svg PUBLIC "-//W3C//DTD SVG 1.1//EN" "http://www.w3.org/Graphics/SVG/1.1/DTD/svg11.dtd">
<svg version="1.1" xmlns="http://www.w3.org/2000/svg" xmlns:xlink="http://www.w3.org/1999/xlink" width="20" height="20" viewBox="0 0 20 20">
	<path d="M4 17c0 1.104 0.896 2 2 2 1.105 0 2-0.896 2-2s-0.895-2-2-2c-1.104 0-2 0.896-2 2zM14 17c0 1.104 0.896 2 2 2 1.105 0 2-0.896 2-2s-0.895-2-2-2c-1.104 0-2 0.896-2 2zM7.547 12.272l11.069-3.162c0.211-0.061 0.384-0.29 0.384-0.51v-5.5h-14.1v-1.7c0-0.22-0.179-0.4-0.4-0.4h-3.1c-0.22 0-0.4 0.18-0.4 0.4v1.6h1.943l1.968 9.057 0.19 0.943v1.5c0 0.22 0.18 0.4 0.399 0.4h13.101c0.219 0 0.399-0.18 0.399-0.4v-1.5h-11.248c-1.149 0-1.173-0.45-0.205-0.728z" fill="#ffffff" />
</svg>
