<?xml version="1.0" encoding="utf-8"?>
<!-- Generated by IcoMoon.io -->
<!DOCTYPE svg PUBLIC "-//W3C//DTD SVG 1.1//EN" "http://www.w3.org/Graphics/SVG/1.1/DTD/svg11.dtd">
<svg version="1.1" xmlns="http://www.w3.org/2000/svg" xmlns:xlink="http://www.w3.org/1999/xlink" width="20" height="20" viewBox="0 0 20 20">
	<path d="M16.547 11.25c0.688 0 1.405-0.541 1.593-1.202l1.813-6.346c0.189-0.661-0.219-1.202-0.907-1.202h-12.797c0-1.381-1.119-2.5-2.5-2.5h-3.75v2.5h3.75v10.625c0 1.036 0.839 1.875 1.875 1.875h11.875c0.69 0 1.25-0.56 1.25-1.25s-0.56-1.25-1.25-1.25h-11.25v-1.25h10.297zM6.25 5h11.305l-1.071 3.75h-10.233v-3.75zM7.5 18.438c0 0.859-0.703 1.563-1.563 1.563h-0.625c-0.859 0-1.563-0.703-1.563-1.563v-0.625c0-0.859 0.703-1.563 1.563-1.563h0.625c0.859 0 1.563 0.703 1.563 1.563v0.625zM18.75 18.438c0 0.859-0.703 1.563-1.563 1.563h-0.625c-0.859 0-1.563-0.703-1.563-1.563v-0.625c0-0.859 0.703-1.563 1.563-1.563h0.625c0.859 0 1.563 0.703 1.563 1.563v0.625z" fill="#ffffff" />
</svg>
