<?xml version="1.0" encoding="utf-8"?>
<!-- Generated by IcoMoon.io -->
<!DOCTYPE svg PUBLIC "-//W3C//DTD SVG 1.1//EN" "http://www.w3.org/Graphics/SVG/1.1/DTD/svg11.dtd">
<svg version="1.1" xmlns="http://www.w3.org/2000/svg" xmlns:xlink="http://www.w3.org/1999/xlink" width="20" height="20" viewBox="0 0 20 20">
	<path d="M2.5 18.125c0-1.036 0.839-1.875 1.875-1.875s1.875 0.839 1.875 1.875c0 1.036-0.839 1.875-1.875 1.875-1.036 0-1.875-0.839-1.875-1.875zM15 18.125c0-1.036 0.839-1.875 1.875-1.875s1.875 0.839 1.875 1.875c0 1.036-0.839 1.875-1.875 1.875-1.036 0-1.875-0.839-1.875-1.875zM18.75 10v-7.5h-16.25c0-1.381-1.119-2.5-2.5-2.5v1.25c0.689 0 1.25 0.561 1.25 1.25l0.939 8.048c-0.572 0.458-0.939 1.162-0.939 1.952 0 1.381 1.119 2.5 2.5 2.5h15v-1.25h-15c-0.69 0-1.25-0.56-1.25-1.25 0-0.004 0-0.009 0-0.013l16.25-2.487z" fill="#ffffff" />
</svg>
