<?xml version="1.0" encoding="utf-8"?>
<!-- Generated by IcoMoon.io -->
<!DOCTYPE svg PUBLIC "-//W3C//DTD SVG 1.1//EN" "http://www.w3.org/Graphics/SVG/1.1/DTD/svg11.dtd">
<svg version="1.1" xmlns="http://www.w3.org/2000/svg" xmlns:xlink="http://www.w3.org/1999/xlink" width="20" height="20" viewBox="0 0 20 20">
	<path d="M10 6.485c0.892 0 1.338-0.445 1.338-1.336 0-0.903-0.446-1.354-1.338-1.354s-1.337 0.451-1.337 1.354c0 0.891 0.445 1.336 1.337 1.336zM11.972 7.001h-3.943c-0.172 0-0.317 0.060-0.438 0.18s-0.18 0.266-0.18 0.437v3.926h1.097v4.663h2.982v-4.663h1.098v-3.927c0-0.171-0.063-0.316-0.188-0.437-0.126-0.119-0.268-0.179-0.428-0.179zM10 0.4c-5.302 0-9.6 4.298-9.6 9.6s4.298 9.6 9.6 9.6 9.6-4.298 9.6-9.6-4.298-9.6-9.6-9.6zM10 17.84c-4.33 0-7.84-3.51-7.84-7.84s3.51-7.84 7.84-7.84 7.84 3.51 7.84 7.84-3.51 7.84-7.84 7.84z" fill="#ffffff" />
</svg>
