<?xml version="1.0" encoding="utf-8"?>
<!-- Generated by IcoMoon.io -->
<!DOCTYPE svg PUBLIC "-//W3C//DTD SVG 1.1//EN" "http://www.w3.org/Graphics/SVG/1.1/DTD/svg11.dtd">
<svg version="1.1" xmlns="http://www.w3.org/2000/svg" xmlns:xlink="http://www.w3.org/1999/xlink" width="20" height="20" viewBox="0 0 20 20">
	<path d="M10 0.4c-5.302 0-9.6 4.298-9.6 9.6s4.298 9.6 9.6 9.6 9.6-4.298 9.6-9.6-4.298-9.6-9.6-9.6zM2.51 7.68l4.887 2.176h-1.082v1.495h2.248l0.22 0.455v0.725h-2.468v1.494h2.468v2.17h2.389v-2.17h2.485v-1.381l3.077 1.37c-1.368 2.291-3.872 3.826-6.734 3.826-4.33 0-7.84-3.51-7.84-7.84 0-0.808 0.122-1.587 0.35-2.32zM11.173 12.53v-0.725l0.112-0.218 2.118 0.942h-2.23zM13.657 10.543v-0.688h-1.494l2.438-4.49h-2.548l-1.678 3.716-0.892-0.396-1.533-3.32h-2.548l1.058 1.973-3.162-1.407c1.376-2.261 3.862-3.771 6.702-3.771 4.33 0 7.84 3.51 7.84 7.84 0 0.785-0.117 1.542-0.331 2.257l-3.852-1.714z" fill="#ffffff" />
</svg>
