<?xml version="1.0" encoding="utf-8"?>
<!-- Generated by IcoMoon.io -->
<!DOCTYPE svg PUBLIC "-//W3C//DTD SVG 1.1//EN" "http://www.w3.org/Graphics/SVG/1.1/DTD/svg11.dtd">
<svg version="1.1" xmlns="http://www.w3.org/2000/svg" xmlns:xlink="http://www.w3.org/1999/xlink" width="20" height="20" viewBox="0 0 20 20">
	<path d="M10 0.4c-5.302 0-9.6 4.298-9.6 9.6s4.298 9.6 9.6 9.6 9.6-4.298 9.6-9.6-4.298-9.6-9.6-9.6zM2.583 7.46l2.516 1.113h-0.184v1.141h0.9c0 0.161-0.016 0.321-0.016 0.482v0.273h-0.884v1.141h1.045c0.145 0.853 0.466 1.543 0.899 2.090 0.9 1.189 2.347 1.832 3.922 1.832 1.028 0 1.96-0.306 2.507-0.611l-0.386-1.783c-0.338 0.177-1.093 0.417-1.832 0.417-0.804 0-1.559-0.24-2.073-0.819-0.241-0.272-0.418-0.643-0.529-1.125h3.493l4.906 2.172c-1.335 2.418-3.909 4.057-6.867 4.057-4.33 0-7.84-3.51-7.84-7.84 0-0.89 0.151-1.743 0.423-2.54zM12.357 9.714h0.144v-1.141h-2.722l-1.104-0.489c0.095-0.214 0.207-0.405 0.339-0.555 0.498-0.611 1.205-0.869 1.976-0.869 0.707 0 1.365 0.209 1.783 0.387l0.45-1.833c-0.579-0.257-1.431-0.481-2.41-0.481-1.511 0-2.796 0.61-3.712 1.639-0.204 0.235-0.38 0.499-0.54 0.777l-3.15-1.394c1.396-2.162 3.824-3.595 6.589-3.595 4.33 0 7.84 3.51 7.84 7.84 0 0.7-0.093 1.378-0.265 2.023l-5.218-2.309z" fill="#ffffff" />
</svg>
