<?xml version="1.0" encoding="utf-8"?>
<!-- Generated by IcoMoon.io -->
<!DOCTYPE svg PUBLIC "-//W3C//DTD SVG 1.1//EN" "http://www.w3.org/Graphics/SVG/1.1/DTD/svg11.dtd">
<svg version="1.1" xmlns="http://www.w3.org/2000/svg" xmlns:xlink="http://www.w3.org/1999/xlink" width="20" height="20" viewBox="0 0 20 20">
	<path d="M10 0.4c-5.302 0-9.6 4.298-9.6 9.6s4.298 9.6 9.6 9.6 9.6-4.298 9.6-9.6-4.298-9.6-9.6-9.6zM2.595 7.426l4.87 2.181 1.525 0.668 1.132 0.515 0.926 0.395c0.172 0.148 0.258 0.342 0.258 0.582 0 0.344-0.118 0.589-0.352 0.737-0.234 0.148-0.518 0.223-0.849 0.223-0.801 0-1.515-0.291-2.144-0.874l-1.319 1.337c0.88 0.754 1.852 1.138 2.914 1.148v1.475h1.114v-1.475c0.662-0.057 1.237-0.276 1.723-0.66 0.485-0.383 0.792-0.876 0.917-1.482l3.559 1.585c-1.334 2.419-3.91 4.059-6.869 4.059-4.33 0-7.84-3.51-7.84-7.84 0-0.902 0.154-1.768 0.435-2.574zM12.711 9.863l-1.543-0.686-2.058-0.925c-0.057-0.080-0.085-0.16-0.085-0.24 0-0.274 0.117-0.469 0.352-0.583 0.233-0.114 0.499-0.172 0.797-0.172 0.56 0 1.108 0.189 1.646 0.566l1.252-1.286c-0.721-0.549-1.521-0.846-2.4-0.892v-1.473h-1.115v1.474c-0.595 0.034-1.115 0.204-1.561 0.505-0.445 0.304-0.748 0.706-0.908 1.209l-3.655-1.64c1.399-2.142 3.817-3.56 6.567-3.56 4.33 0 7.84 3.51 7.84 7.84 0 0.703-0.094 1.384-0.268 2.031l-4.861-2.168z" fill="#ffffff" />
</svg>
