<?xml version="1.0" encoding="utf-8"?>
<!-- Generated by IcoMoon.io -->
<!DOCTYPE svg PUBLIC "-//W3C//DTD SVG 1.1//EN" "http://www.w3.org/Graphics/SVG/1.1/DTD/svg11.dtd">
<svg version="1.1" xmlns="http://www.w3.org/2000/svg" xmlns:xlink="http://www.w3.org/1999/xlink" width="20" height="20" viewBox="0 0 20 20">
	<path d="M10 0.4c-5.302 0-9.6 4.298-9.6 9.6s4.298 9.6 9.6 9.6 9.6-4.298 9.6-9.6-4.298-9.6-9.6-9.6zM2.583 7.46l3.089 1.366c-0.078 0.397-0.12 0.811-0.12 1.236 0 3.833 2.86 4.912 4.66 4.912 1.062 0 1.979-0.342 2.698-0.845 0.137-0.098 0.261-0.196 0.375-0.297l-1.399-1.7c-0.041 0.047-0.084 0.091-0.128 0.131-0.545 0.517-1.143 0.517-1.276 0.517-1.451 0-2.065-1.516-2.084-2.747l8.471 3.749c-1.335 2.419-3.91 4.058-6.868 4.058-4.33 0-7.84-3.51-7.84-7.84-0.001-0.89 0.15-1.743 0.422-2.54zM8.812 8.146c0.314-0.568 0.834-1.016 1.579-1.016 0.433 0 0.775 0.144 1.045 0.324 0.112 0.081 0.209 0.162 0.291 0.243l1.563-1.608c-1.050-0.903-2.243-1.064-3.024-1.064-1.834 0-3.163 0.821-3.929 2.025l-2.926-1.296c1.396-2.161 3.824-3.594 6.589-3.594 4.33 0 7.84 3.51 7.84 7.84 0 0.7-0.093 1.378-0.265 2.022l-8.763-3.876z" fill="#ffffff" />
</svg>
