<?xml version="1.0" encoding="utf-8"?>
<!-- Generated by IcoMoon.io -->
<!DOCTYPE svg PUBLIC "-//W3C//DTD SVG 1.1//EN" "http://www.w3.org/Graphics/SVG/1.1/DTD/svg11.dtd">
<svg version="1.1" xmlns="http://www.w3.org/2000/svg" xmlns:xlink="http://www.w3.org/1999/xlink" width="20" height="20" viewBox="0 0 20 20">
	<path d="M9.95 4.943c-1.098 0-2.029 0.322-2.795 0.968s-1.24 1.558-1.423 2.734h-0.753l1.902 1.903 1.903-1.903h-0.703c0.16-1.131 0.88-1.696 2.16-1.696 0.708 0 1.252 0.265 1.628 0.797 0.378 0.531 0.566 1.306 0.566 2.322 0 0.972-0.206 1.749-0.617 2.331-0.412 0.583-0.955 0.875-1.628 0.875-1.35 0-2.053-0.583-2.109-1.749h-2.417c0.16 1.2 0.634 2.126 1.423 2.777 0.788 0.651 1.726 0.977 2.811 0.977 1.476 0 2.675-0.488 3.601-1.465 0.926-0.978 1.389-2.203 1.389-3.678 0-1.52-0.446-2.766-1.337-3.736-0.893-0.971-2.093-1.457-3.601-1.457zM10 0.4c-5.302 0-9.6 4.298-9.6 9.6s4.298 9.6 9.6 9.6 9.6-4.298 9.6-9.6-4.298-9.6-9.6-9.6zM10 17.84c-4.33 0-7.84-3.51-7.84-7.84s3.51-7.84 7.84-7.84 7.84 3.51 7.84 7.84-3.51 7.84-7.84 7.84z" fill="#ffffff" />
</svg>
