<?xml version="1.0" encoding="utf-8"?>
<!-- Generated by IcoMoon.io -->
<!DOCTYPE svg PUBLIC "-//W3C//DTD SVG 1.1//EN" "http://www.w3.org/Graphics/SVG/1.1/DTD/svg11.dtd">
<svg version="1.1" xmlns="http://www.w3.org/2000/svg" xmlns:xlink="http://www.w3.org/1999/xlink" width="20" height="20" viewBox="0 0 20 20">
	<path d="M13.926 7.258h-2.092v-2.092c0-0.148-0.051-0.274-0.154-0.378-0.103-0.102-0.229-0.154-0.377-0.154h-5.28c-0.137 0.023-0.252 0.084-0.342 0.18-0.092 0.097-0.138 0.214-0.138 0.352v7.062c0 0.148 0.052 0.274 0.154 0.377s0.229 0.154 0.377 0.154h2.092v2.092c0 0.148 0.051 0.274 0.154 0.377 0.103 0.103 0.229 0.154 0.377 0.154h5.229c0.148 0 0.274-0.052 0.377-0.154s0.154-0.229 0.154-0.377v-7.062c0-0.148-0.052-0.274-0.154-0.377-0.103-0.103-0.229-0.154-0.377-0.154zM8.629 7.258c-0.126 0.022-0.234 0.083-0.326 0.18s-0.137 0.213-0.137 0.351v3.925h-1.577v-6.017h4.2v1.561h-2.16zM13.411 14.32h-4.2v-6.017h4.2v6.017zM10 0.4c-5.302 0-9.6 4.298-9.6 9.6s4.298 9.6 9.6 9.6 9.6-4.298 9.6-9.6-4.298-9.6-9.6-9.6zM10 17.84c-4.33 0-7.84-3.51-7.84-7.84s3.51-7.84 7.84-7.84 7.84 3.51 7.84 7.84-3.51 7.84-7.84 7.84z" fill="#ffffff" />
</svg>
