<?xml version="1.0" encoding="utf-8"?>
<!-- Generated by IcoMoon.io -->
<!DOCTYPE svg PUBLIC "-//W3C//DTD SVG 1.1//EN" "http://www.w3.org/Graphics/SVG/1.1/DTD/svg11.dtd">
<svg version="1.1" xmlns="http://www.w3.org/2000/svg" xmlns:xlink="http://www.w3.org/1999/xlink" width="20" height="20" viewBox="0 0 20 20">
	<path d="M16.274 10.172l-1.903-0.79v-2.382l-5.88-2.435-2.605 1.148v2.712l0.016 0.015-2.297 0.96v2.469l2.451 1.062 2.486-1.028 0.171 0.068 5.023 2.075 0.119 0.034 0.104-0.034 2.331-0.994 0.171-0.087v-2.709l-0.187-0.084zM13.548 13.325l-0.017-0.016v0.016l-4.405-1.815v-1.75l4.405 1.803v0.068h0.017v1.694zM13.84 11.097l-1.389-0.597 1.509-0.638 1.423 0.601-1.543 0.634zM15.862 12.572l-1.714 0.737v-1.679l1.714-0.722v1.664zM10 0.4c-5.302 0-9.6 4.298-9.6 9.6s4.298 9.6 9.6 9.6 9.6-4.298 9.6-9.6-4.298-9.6-9.6-9.6zM10 17.84c-4.33 0-7.84-3.51-7.84-7.84s3.51-7.84 7.84-7.84 7.84 3.51 7.84 7.84-3.51 7.84-7.84 7.84z" fill="#ffffff" />
</svg>
