<?xml version="1.0" encoding="utf-8"?>
<!-- Generated by IcoMoon.io -->
<!DOCTYPE svg PUBLIC "-//W3C//DTD SVG 1.1//EN" "http://www.w3.org/Graphics/SVG/1.1/DTD/svg11.dtd">
<svg version="1.1" xmlns="http://www.w3.org/2000/svg" xmlns:xlink="http://www.w3.org/1999/xlink" width="20" height="20" viewBox="0 0 20 20">
	<path d="M9.872 0.401c-5.302 0.071-9.542 4.426-9.471 9.727s4.426 9.542 9.728 9.471c5.301-0.070 9.542-4.426 9.471-9.728-0.071-5.301-4.428-9.541-9.728-9.47zM10.101 17.578c-4.186 0.057-7.624-3.291-7.68-7.477-0.056-4.186 3.292-7.624 7.478-7.68 4.185-0.056 7.623 3.292 7.679 7.477s-3.291 7.623-7.477 7.68zM7.651 11.627c-0.405 0-0.712-0.148-0.92-0.444-0.209-0.296-0.312-0.69-0.312-1.183 0-1.084 0.411-1.626 1.232-1.626 0.164 0 0.342 0.055 0.534 0.164 0.191 0.11 0.353 0.302 0.485 0.575l1.231-0.641c-0.492-0.887-1.309-1.331-2.448-1.331-0.778 0-1.42 0.257-1.93 0.772-0.509 0.515-0.764 1.211-0.764 2.087 0 0.898 0.252 1.6 0.756 2.104 0.503 0.504 1.167 0.756 1.988 0.756 0.514 0 0.985-0.129 1.412-0.387s0.762-0.611 1.003-1.061l-1.134-0.575c-0.219 0.526-0.597 0.79-1.133 0.79zM12.957 11.627c-0.406 0-0.713-0.148-0.92-0.444-0.209-0.295-0.312-0.69-0.312-1.183 0-1.084 0.41-1.626 1.232-1.626 0.176 0 0.359 0.055 0.551 0.164 0.191 0.11 0.354 0.302 0.484 0.575l1.215-0.641c-0.482-0.887-1.291-1.331-2.432-1.331-0.777 0-1.42 0.257-1.929 0.772-0.51 0.515-0.764 1.21-0.764 2.086 0 0.898 0.249 1.6 0.747 2.104 0.499 0.504 1.165 0.756 1.997 0.756 0.504 0 0.969-0.129 1.396-0.387 0.426-0.258 0.766-0.611 1.018-1.061l-1.15-0.575c-0.219 0.527-0.596 0.791-1.133 0.791z" fill="#ffffff" />
</svg>
