<?xml version="1.0" encoding="utf-8"?>
<!-- Generated by IcoMoon.io -->
<!DOCTYPE svg PUBLIC "-//W3C//DTD SVG 1.1//EN" "http://www.w3.org/Graphics/SVG/1.1/DTD/svg11.dtd">
<svg version="1.1" xmlns="http://www.w3.org/2000/svg" xmlns:xlink="http://www.w3.org/1999/xlink" width="20" height="20" viewBox="0 0 20 20">
	<path d="M11.875 0h-3.75c-4.487 0-8.125 3.638-8.125 8.125 0 2.908 1.539 5.439 3.835 6.875h-0.085v5l5.625-3.75h2.5c4.487 0 8.125-3.638 8.125-8.125s-3.638-8.125-8.125-8.125zM11.875 13.75h-2.5l-3.125 1.875v-2.219c-2.18-0.775-3.75-2.836-3.75-5.281 0-3.107 2.518-5.625 5.625-5.625h3.75c3.107 0 5.625 2.518 5.625 5.625s-2.518 5.625-5.625 5.625z" fill="#ffffff" />
</svg>
