<?xml version="1.0" encoding="utf-8"?>
<!-- Generated by IcoMoon.io -->
<!DOCTYPE svg PUBLIC "-//W3C//DTD SVG 1.1//EN" "http://www.w3.org/Graphics/SVG/1.1/DTD/svg11.dtd">
<svg version="1.1" xmlns="http://www.w3.org/2000/svg" xmlns:xlink="http://www.w3.org/1999/xlink" width="20" height="20" viewBox="0 0 20 20">
	<path d="M5.044 8.722l-2.862-4.957c1.832-2.294 4.653-3.764 7.817-3.764 3.661 0 6.862 1.968 8.604 4.902h-8.16c-0.147-0.013-0.295-0.020-0.445-0.020-2.38 0-4.386 1.634-4.956 3.839zM13.58 6.348h5.732c0.444 1.131 0.688 2.363 0.688 3.652 0 5.485-4.416 9.938-9.886 9.999l4.090-7.084c0.576-0.828 0.914-1.833 0.914-2.915 0-1.429-0.589-2.723-1.537-3.652zM6.367 10c0-2.003 1.63-3.633 3.633-3.633s3.633 1.63 3.633 3.633c0 2.003-1.63 3.633-3.633 3.633-2.003 0-3.633-1.63-3.633-3.633zM11.371 14.931l-2.863 4.959c-4.815-0.72-8.508-4.873-8.508-9.889 0-1.782 0.466-3.454 1.283-4.903l4.083 7.071c0.818 1.74 2.587 2.949 4.634 2.949 0.475 0 0.934-0.065 1.371-0.187z" fill="#ffffff" />
</svg>
