<?xml version="1.0" encoding="utf-8"?>
<!-- Generated by IcoMoon.io -->
<!DOCTYPE svg PUBLIC "-//W3C//DTD SVG 1.1//EN" "http://www.w3.org/Graphics/SVG/1.1/DTD/svg11.dtd">
<svg version="1.1" xmlns="http://www.w3.org/2000/svg" xmlns:xlink="http://www.w3.org/1999/xlink" width="20" height="20" viewBox="0 0 20 20">
	<path d="M11.924 0.8c-3.811 0-6.946 2.943-7.252 6.674-2.263 0.883-3.872 3.086-3.872 5.657 0 3.347 2.725 6.069 6.073 6.069 2.577 0 4.785-1.613 5.665-3.882 3.726-0.313 6.662-3.443 6.662-7.247 0-4.009-3.263-7.271-7.276-7.271zM6.873 17.177c-2.232 0-4.048-1.814-4.048-4.046 0-1.482 0.802-2.78 1.995-3.485 0.61 2.753 2.787 4.925 5.545 5.53-0.704 1.196-2.006 2.001-3.492 2.001zM6.938 9.086c2.178 0.034 3.943 1.795 3.982 3.971-1.998-0.401-3.577-1.975-3.982-3.971zM12.945 13.055c-0.041-3.291-2.715-5.958-6.009-5.992 0.47-2.322 2.527-4.076 4.987-4.076 2.806 0 5.088 2.281 5.088 5.084 0.001 2.455-1.747 4.509-4.066 4.984zM2.88 5.115c1.145 0 2.075-0.93 2.075-2.073s-0.93-2.073-2.075-2.073c-1.144 0-2.074 0.93-2.074 2.073 0 1.143 0.93 2.073 2.074 2.073zM2.88 1.898c0.631 0 1.145 0.513 1.145 1.144 0 0.63-0.513 1.144-1.145 1.144-0.63 0-1.144-0.513-1.144-1.144 0-0.631 0.514-1.144 1.144-1.144z" fill="#ffffff" />
</svg>
