<?xml version="1.0" encoding="utf-8"?>
<!-- Generated by IcoMoon.io -->
<!DOCTYPE svg PUBLIC "-//W3C//DTD SVG 1.1//EN" "http://www.w3.org/Graphics/SVG/1.1/DTD/svg11.dtd">
<svg version="1.1" xmlns="http://www.w3.org/2000/svg" xmlns:xlink="http://www.w3.org/1999/xlink" width="20" height="20" viewBox="0 0 20 20">
	<path d="M18.75 20h-17.5c-0.691 0-1.25-0.559-1.25-1.25v-17.5c0-0.69 0.559-1.25 1.25-1.25h2.5v2.5h-1.25v15h15v-15h-1.25v-2.5h2.5c0.691 0 1.25 0.56 1.25 1.25v17.5c0 0.691-0.559 1.25-1.25 1.25zM5 5h1.25v-3.75h2.5v-1.25h2.5v1.25h2.5v3.75h1.25v10h-10v-10zM11.25 2.5h-2.5v1.25h2.5v-1.25zM7.5 12.5h5v-5h-5v5z" fill="#ffffff" />
</svg>
