<?xml version="1.0" encoding="utf-8"?>
<!-- Generated by IcoMoon.io -->
<!DOCTYPE svg PUBLIC "-//W3C//DTD SVG 1.1//EN" "http://www.w3.org/Graphics/SVG/1.1/DTD/svg11.dtd">
<svg version="1.1" xmlns="http://www.w3.org/2000/svg" xmlns:xlink="http://www.w3.org/1999/xlink" width="20" height="20" viewBox="0 0 20 20">
	<path d="M9.375 6.25c0-0.345 0.28-0.625 0.625-0.625s0.625 0.28 0.625 0.625c0 0.345-0.28 0.625-0.625 0.625-0.345 0-0.625-0.28-0.625-0.625zM9.375 13.75c0-0.345 0.28-0.625 0.625-0.625s0.625 0.28 0.625 0.625c0 0.345-0.28 0.625-0.625 0.625-0.345 0-0.625-0.28-0.625-0.625zM5.625 10c0-0.345 0.28-0.625 0.625-0.625s0.625 0.28 0.625 0.625c0 0.345-0.28 0.625-0.625 0.625-0.345 0-0.625-0.28-0.625-0.625zM13.125 10c0-0.345 0.28-0.625 0.625-0.625s0.625 0.28 0.625 0.625c0 0.345-0.28 0.625-0.625 0.625-0.345 0-0.625-0.28-0.625-0.625zM6.723 12.651c0-0.345 0.28-0.625 0.625-0.625s0.625 0.28 0.625 0.625c0 0.345-0.28 0.625-0.625 0.625-0.345 0-0.625-0.28-0.625-0.625zM6.723 7.348c0-0.345 0.28-0.625 0.625-0.625s0.625 0.28 0.625 0.625c0 0.345-0.28 0.625-0.625 0.625-0.345 0-0.625-0.28-0.625-0.625zM12.026 12.651c0-0.345 0.28-0.625 0.625-0.625s0.625 0.28 0.625 0.625c0 0.345-0.28 0.625-0.625 0.625-0.345 0-0.625-0.28-0.625-0.625zM16.25 8.75c-0.044 0-0.081 0.021-0.123 0.025-0.218-1.091-0.731-2.066-1.436-2.871l-0.898-4.883c-0.109-0.592-0.626-1.021-1.229-1.021h-5c-0.603 0-1.119 0.43-1.229 1.022l-0.875 4.718c-1.050 1.117-1.711 2.605-1.711 4.26 0 1.614 0.634 3.066 1.638 4.174l0.883 4.805c0.11 0.591 0.627 1.021 1.229 1.021h5c0.602 0 1.118-0.43 1.229-1.022l0.89-4.801c0.743-0.819 1.283-1.825 1.508-2.953 0.043 0.006 0.079 0.026 0.123 0.026 0.69 0 1.25-0.56 1.25-1.25 0-0.691-0.56-1.25-1.25-1.25zM7.565 1.25h5l0.625 3.367c-0.923-0.537-1.98-0.867-3.125-0.867-1.144 0-2.202 0.33-3.125 0.867l0.625-3.367zM12.5 18.75h-5l-0.625-3.367c0.922 0.536 1.98 0.867 3.125 0.867 1.144 0 2.203-0.331 3.125-0.867l-0.625 3.367zM10 15c-2.757 0-5-2.244-5-5 0-2.757 2.243-5 5-5 2.757 0 5 2.243 5 5 0 2.756-2.244 5-5 5zM13.088 6.891c0.076 0.076 0.083 0.198 0.017 0.281l-1.516 1.888-1.155 1.391c-0.118 0.114-0.281 0.172-0.437 0.173-0.168-0.001-0.325-0.066-0.442-0.183-0.117-0.116-0.181-0.272-0.181-0.436 0-0.17 0.066-0.329 0.185-0.449l3.245-2.678c0.086-0.069 0.207-0.062 0.283 0.013z" fill="#ffffff" />
</svg>
