<?xml version="1.0" encoding="utf-8"?>
<!-- Generated by IcoMoon.io -->
<!DOCTYPE svg PUBLIC "-//W3C//DTD SVG 1.1//EN" "http://www.w3.org/Graphics/SVG/1.1/DTD/svg11.dtd">
<svg version="1.1" xmlns="http://www.w3.org/2000/svg" xmlns:xlink="http://www.w3.org/1999/xlink" width="20" height="20" viewBox="0 0 20 20">
	<path d="M2.928 17.071c-3.905-3.905-3.905-10.237 0-14.142 3.906-3.905 10.237-3.905 14.143 0 3.905 3.905 3.905 10.237 0 14.142-3.906 3.906-10.237 3.906-14.143 0zM15.304 4.696c-2.93-2.929-7.678-2.929-10.607 0-2.93 2.929-2.93 7.678 0 10.607 2.929 2.929 7.677 2.929 10.607 0 2.929-2.929 2.929-7.678 0-10.607zM7.349 14.419l-1.768-1.768 2.651-2.651-2.651-2.651 1.768-1.768 2.651 2.652 2.651-2.652 1.768 1.768-2.651 2.651 2.651 2.651-1.768 1.768-2.651-2.652-2.651 2.652z" fill="#ffffff" />
</svg>
