<?xml version="1.0" encoding="utf-8"?>
<!-- Generated by IcoMoon.io -->
<!DOCTYPE svg PUBLIC "-//W3C//DTD SVG 1.1//EN" "http://www.w3.org/Graphics/SVG/1.1/DTD/svg11.dtd">
<svg version="1.1" xmlns="http://www.w3.org/2000/svg" xmlns:xlink="http://www.w3.org/1999/xlink" width="20" height="20" viewBox="0 0 20 20">
	<path d="M19.818 16.068c-0-0-0-0-0-0l-6.067-6.067 6.067-6.067c0-0 0-0 0-0 0.065-0.065 0.113-0.142 0.143-0.223 0.083-0.222 0.036-0.482-0.143-0.661l-2.866-2.866c-0.179-0.179-0.438-0.226-0.661-0.143-0.081 0.030-0.158 0.077-0.223 0.143 0 0-0 0-0 0l-6.067 6.067-6.067-6.067c-0-0-0-0-0-0-0.065-0.065-0.142-0.113-0.223-0.143-0.222-0.083-0.482-0.036-0.661 0.143l-2.866 2.866c-0.179 0.179-0.226 0.439-0.143 0.661 0.030 0.081 0.078 0.158 0.143 0.223 0 0 0 0 0 0l6.067 6.067-6.067 6.067c-0 0-0 0-0 0-0.065 0.065-0.113 0.142-0.143 0.223-0.083 0.222-0.036 0.482 0.143 0.661l2.866 2.866c0.179 0.179 0.439 0.226 0.661 0.143 0.081-0.030 0.158-0.078 0.223-0.143 0-0 0-0 0-0l6.067-6.067 6.067 6.067c0 0 0 0 0 0 0.065 0.065 0.142 0.113 0.223 0.143 0.222 0.083 0.482 0.036 0.661-0.143l2.866-2.866c0.179-0.179 0.226-0.439 0.143-0.661-0.030-0.081-0.078-0.158-0.143-0.223z" fill="#ffffff" />
</svg>
