<?xml version="1.0" encoding="utf-8"?>
<!-- Generated by IcoMoon.io -->
<!DOCTYPE svg PUBLIC "-//W3C//DTD SVG 1.1//EN" "http://www.w3.org/Graphics/SVG/1.1/DTD/svg11.dtd">
<svg version="1.1" xmlns="http://www.w3.org/2000/svg" xmlns:xlink="http://www.w3.org/1999/xlink" width="20" height="20" viewBox="0 0 20 20">
	<path d="M20 12.843c0-1.603-1.107-2.947-2.598-3.31-0.063-2.514-2.118-4.532-4.646-4.532-1.48 0-2.798 0.693-3.649 1.772-0.477-0.617-1.224-1.015-2.065-1.015-1.442 0-2.61 1.169-2.61 2.612 0 0.126 0.009 0.249 0.027 0.37-0.219-0.040-0.445-0.061-0.675-0.061-2.090-0-3.784 1.695-3.784 3.786 0 2.091 1.694 3.786 3.784 3.786l12.818-0c1.878-0.004 3.399-1.528 3.399-3.407z" fill="#ffffff" />
</svg>
