<?xml version="1.0" encoding="utf-8"?>
<!-- Generated by IcoMoon.io -->
<!DOCTYPE svg PUBLIC "-//W3C//DTD SVG 1.1//EN" "http://www.w3.org/Graphics/SVG/1.1/DTD/svg11.dtd">
<svg version="1.1" xmlns="http://www.w3.org/2000/svg" xmlns:xlink="http://www.w3.org/1999/xlink" width="20" height="20" viewBox="0 0 20 20">
	<path d="M16.196 8.214c-0.273-2.852-2.647-5.089-5.571-5.089-2.262 0-4.198 1.342-5.091 3.269-0.269-0.085-0.549-0.144-0.846-0.144-1.553 0-2.813 1.26-2.813 2.813 0 0.309 0.062 0.601 0.154 0.877-1.208 0.704-2.029 1.997-2.029 3.496 0 2.244 1.819 4.063 4.063 4.063v0.001l11.249-0.001c2.589 0 4.688-2.098 4.688-4.688 0-2.285-1.638-4.183-3.804-4.597zM15.313 16.249v0.001h-11.249c-1.551-0.001-2.813-1.262-2.813-2.814 0-1 0.527-1.903 1.409-2.417 0.857-0.492 0.916-0.589 0.556-1.473-0.061-0.182-0.090-0.34-0.090-0.483 0-0.862 0.701-1.563 1.563-1.563 0 0 0.41-0.029 0.846 0.144 0.717 0.286 0.795 0.013 1.134-0.724 0.717-1.546 2.27-2.545 3.957-2.545 2.25 0 4.11 1.702 4.328 3.959 0.077 0.895 0.077 0.895 1.009 1.108 1.616 0.309 2.788 1.726 2.788 3.369 0 1.896-1.542 3.438-3.438 3.438z" fill="#ffffff" />
</svg>
