<?xml version="1.0" encoding="utf-8"?>
<!-- Generated by IcoMoon.io -->
<!DOCTYPE svg PUBLIC "-//W3C//DTD SVG 1.1//EN" "http://www.w3.org/Graphics/SVG/1.1/DTD/svg11.dtd">
<svg version="1.1" xmlns="http://www.w3.org/2000/svg" xmlns:xlink="http://www.w3.org/1999/xlink" width="20" height="20" viewBox="0 0 20 20">
	<path d="M17.427 7.549c0.048-0.217 0.073-0.442 0.073-0.674 0-1.726-1.399-3.125-3.125-3.125-0.278 0-0.547 0.036-0.803 0.105-0.484-1.511-1.9-2.605-3.572-2.605-1.706 0-3.146 1.139-3.6 2.699-0.444-0.129-0.914-0.199-1.4-0.199-2.761 0-5 2.239-5 5 0 2.761 2.239 5 5 5h2.5v3.75h5v-3.75h4.375c1.726 0 3.125-1.399 3.125-3.125 0-1.538-1.11-2.816-2.573-3.076zM11.25 12.5v3.75h-2.5v-3.75h-3.125l4.375-4.375 4.375 4.375h-3.125z" fill="#ffffff" />
</svg>
