<?xml version="1.0" encoding="utf-8"?>
<!-- Generated by IcoMoon.io -->
<!DOCTYPE svg PUBLIC "-//W3C//DTD SVG 1.1//EN" "http://www.w3.org/Graphics/SVG/1.1/DTD/svg11.dtd">
<svg version="1.1" xmlns="http://www.w3.org/2000/svg" xmlns:xlink="http://www.w3.org/1999/xlink" width="23" height="20" viewBox="0 0 23 20">
	<path d="M15.625 5c-0.219 0-0.424 0.044-0.637 0.065-1.438-2.285-3.964-3.815-6.863-3.815-4.487 0-8.125 3.638-8.125 8.125v1.25c0 4.274 3.311 7.802 7.5 8.125h8.75c3.5-0.32 6.25-3.292 6.25-6.875 0-3.796-3.079-6.875-6.875-6.875zM16.25 16.25h-8.75c-0.699-0.078-1.354-0.342-1.952-0.652-0.012-0.006-0.023-0.013-0.035-0.020-0.28-0.148-0.544-0.314-0.793-0.505-0.037-0.027-0.070-0.057-0.105-0.085-0.22-0.177-0.43-0.364-0.621-0.573-0.061-0.065-0.112-0.138-0.17-0.206-0.155-0.186-0.308-0.373-0.438-0.579-0.077-0.12-0.136-0.249-0.203-0.374-0.094-0.176-0.193-0.345-0.267-0.531-0.078-0.189-0.127-0.391-0.183-0.59-0.040-0.14-0.093-0.273-0.122-0.419-0.070-0.353-0.11-0.718-0.11-1.093v-1.25c0-3.107 2.518-5.625 5.625-5.625 0.42 0 0.826 0.054 1.221 0.142 0.081 0.018 0.156 0.051 0.236 0.073 0.32 0.085 0.63 0.193 0.924 0.331 0.050 0.024 0.096 0.054 0.146 0.079 0.323 0.164 0.626 0.356 0.911 0.577 0.013 0.011 0.027 0.022 0.041 0.033 0.958 0.762 1.663 1.818 1.965 3.044 0.613-0.332 1.309-0.53 2.056-0.53 2.416 0 4.375 1.959 4.375 4.375 0 2.202-1.632 4.070-3.75 4.375z" fill="#ffffff" />
</svg>
