<?xml version="1.0" encoding="utf-8"?>
<!-- Generated by IcoMoon.io -->
<!DOCTYPE svg PUBLIC "-//W3C//DTD SVG 1.1//EN" "http://www.w3.org/Graphics/SVG/1.1/DTD/svg11.dtd">
<svg version="1.1" xmlns="http://www.w3.org/2000/svg" xmlns:xlink="http://www.w3.org/1999/xlink" width="20" height="20" viewBox="0 0 20 20">
	<path d="M15.368 7.671c-1.153 0-2.189 0.48-2.927 1.264-0.312 0.332-0.855 0.725-1.441 1.071 0.276-1.052 1.146-2.377 1.751-2.958 0.774-0.746 1.25-1.794 1.25-2.959 0-2.244-1.787-4.064-4-4.088-2.213 0.024-4 1.844-4 4.088 0 1.165 0.475 2.213 1.25 2.959 0.605 0.581 1.475 1.906 1.751 2.958-0.587-0.346-1.129-0.739-1.441-1.071-0.738-0.783-1.774-1.264-2.927-1.264-2.234 0-4.045 1.829-4.045 4.088 0 2.259 1.81 4.089 4.045 4.089 1.153 0 2.189-0.495 2.927-1.278 0.328-0.349 0.907-0.784 1.529-1.145-0.059 2.885-1.436 5.003-2.838 5.838v0.737h7.5v-0.737c-1.402-0.835-2.78-2.953-2.838-5.838 0.622 0.361 1.201 0.796 1.529 1.145 0.738 0.783 1.774 1.278 2.927 1.278 2.234 0 4.044-1.83 4.044-4.089-0-2.259-1.81-4.088-4.045-4.088z" fill="#ffffff" />
</svg>
