<?xml version="1.0" encoding="utf-8"?>
<!-- Generated by IcoMoon.io -->
<!DOCTYPE svg PUBLIC "-//W3C//DTD SVG 1.1//EN" "http://www.w3.org/Graphics/SVG/1.1/DTD/svg11.dtd">
<svg version="1.1" xmlns="http://www.w3.org/2000/svg" xmlns:xlink="http://www.w3.org/1999/xlink" width="20" height="20" viewBox="0 0 20 20">
	<path d="M15.625 11.25c-0.674 0-1.305 0.165-1.875 0.437v-3.374c0.57 0.272 1.201 0.437 1.875 0.437 2.416 0 4.375-1.959 4.375-4.375s-1.959-4.375-4.375-4.375-4.375 1.959-4.375 4.375v1.875h-2.5v-1.875c0-2.416-1.959-4.375-4.375-4.375s-4.375 1.959-4.375 4.375 1.959 4.375 4.375 4.375c0.674 0 1.305-0.165 1.875-0.437v3.374c-0.57-0.272-1.201-0.437-1.875-0.437-2.416 0-4.375 1.959-4.375 4.375s1.959 4.375 4.375 4.375 4.375-1.959 4.375-4.375v-1.875h2.5v1.875c0 2.416 1.959 4.375 4.375 4.375s4.375-1.959 4.375-4.375-1.959-4.375-4.375-4.375zM15.625 2.5c1.035 0 1.875 0.839 1.875 1.875s-0.84 1.875-1.875 1.875-1.875-0.839-1.875-1.875 0.84-1.875 1.875-1.875zM4.375 17.5c-1.035 0-1.875-0.839-1.875-1.875s0.84-1.875 1.875-1.875 1.875 0.839 1.875 1.875-0.84 1.875-1.875 1.875zM4.375 6.25c-1.035 0-1.875-0.839-1.875-1.875s0.84-1.875 1.875-1.875 1.875 0.839 1.875 1.875-0.84 1.875-1.875 1.875zM11.25 11.25h-2.5v-2.5h2.5v2.5zM15.625 17.5c-1.035 0-1.875-0.839-1.875-1.875s0.84-1.875 1.875-1.875 1.875 0.839 1.875 1.875-0.84 1.875-1.875 1.875z" fill="#ffffff" />
</svg>
