<?xml version="1.0" encoding="utf-8"?>
<!-- Generated by IcoMoon.io -->
<!DOCTYPE svg PUBLIC "-//W3C//DTD SVG 1.1//EN" "http://www.w3.org/Graphics/SVG/1.1/DTD/svg11.dtd">
<svg version="1.1" xmlns="http://www.w3.org/2000/svg" xmlns:xlink="http://www.w3.org/1999/xlink" width="20" height="20" viewBox="0 0 20 20">
	<path d="M7.612 4.258c-0.367-0.345-0.863-0.345-1.231 0l-6.381 5.742 6.381 5.741c0.368 0.346 0.864 0.346 1.231 0s0.367-0.906 0-1.252l-4.954-4.489 4.955-4.488c0.366-0.346 0.366-0.907-0.001-1.254zM13.619 4.258c-0.368-0.345-0.863-0.345-1.231 0-0.367 0.347-0.348 0.907 0.021 1.253l4.933 4.489-4.934 4.489c-0.368 0.346-0.388 0.906-0.021 1.252 0.368 0.346 0.863 0.346 1.231 0l6.382-5.741-6.381-5.742z" fill="#ffffff" />
</svg>
