<?xml version="1.0" encoding="utf-8"?>
<!-- Generated by IcoMoon.io -->
<!DOCTYPE svg PUBLIC "-//W3C//DTD SVG 1.1//EN" "http://www.w3.org/Graphics/SVG/1.1/DTD/svg11.dtd">
<svg version="1.1" xmlns="http://www.w3.org/2000/svg" xmlns:xlink="http://www.w3.org/1999/xlink" width="20" height="20" viewBox="0 0 20 20">
	<path d="M20 11.877v-3.754l-2.867-0.478c-0.116-0.354-0.258-0.697-0.424-1.025l1.689-2.364-2.654-2.654-2.36 1.686c-0.33-0.167-0.675-0.31-1.031-0.428l-0.477-2.86h-3.754l-0.477 2.86c-0.356 0.117-0.7 0.261-1.031 0.428l-2.36-1.686-2.654 2.654 1.689 2.364c-0.165 0.329-0.307 0.671-0.424 1.025l-2.867 0.478v3.754l2.873 0.479c0.116 0.351 0.258 0.69 0.423 1.016l-1.694 2.372 2.654 2.654 2.376-1.697c0.324 0.163 0.662 0.303 1.011 0.419l0.48 2.88h3.754l0.48-2.88c0.349-0.115 0.687-0.256 1.011-0.419l2.376 1.697 2.654-2.654-1.694-2.372c0.165-0.326 0.306-0.665 0.423-1.016l2.873-0.479zM10 12.5c-1.381 0-2.5-1.119-2.5-2.5 0-1.381 1.119-2.5 2.5-2.5 1.381 0 2.5 1.119 2.5 2.5 0 1.381-1.119 2.5-2.5 2.5z" fill="#ffffff" />
</svg>
