<?xml version="1.0" encoding="utf-8"?>
<!-- Generated by IcoMoon.io -->
<!DOCTYPE svg PUBLIC "-//W3C//DTD SVG 1.1//EN" "http://www.w3.org/Graphics/SVG/1.1/DTD/svg11.dtd">
<svg version="1.1" xmlns="http://www.w3.org/2000/svg" xmlns:xlink="http://www.w3.org/1999/xlink" width="20" height="20" viewBox="0 0 20 20">
	<path d="M16.785 10c0-1.048 0.645-1.875 1.615-2.443-0.176-0.584-0.406-1.145-0.691-1.672-1.090 0.285-1.971-0.142-2.711-0.882-0.742-0.741-0.969-1.623-0.684-2.711-0.527-0.285-1.086-0.518-1.672-0.692-0.568 0.971-1.595 1.616-2.642 1.616-1.047 0-2.073-0.645-2.642-1.616-0.586 0.174-1.145 0.407-1.672 0.691 0.284 1.089 0.058 1.971-0.683 2.712-0.741 0.74-1.623 1.167-2.711 0.883-0.285 0.526-0.517 1.087-0.692 1.671 0.971 0.568 1.616 1.395 1.616 2.443 0 1.047-0.645 2.074-1.616 2.643 0.175 0.585 0.407 1.145 0.692 1.672 1.089-0.285 1.97-0.058 2.711 0.683 0.741 0.741 0.967 1.622 0.683 2.711 0.527 0.285 1.087 0.518 1.672 0.692 0.569-0.972 1.595-1.616 2.642-1.616 1.047 0 2.075 0.645 2.643 1.616 0.586-0.175 1.145-0.407 1.672-0.692-0.285-1.089-0.059-1.97 0.684-2.711 0.74-0.74 1.621-1.167 2.711-0.883 0.285-0.527 0.516-1.087 0.691-1.672-0.971-0.569-1.616-1.396-1.616-2.443zM10 13.653c-2.017 0-3.652-1.636-3.652-3.653s1.635-3.653 3.652-3.653c2.018 0 3.653 1.636 3.653 3.653s-1.635 3.653-3.653 3.653z" fill="#ffffff" />
</svg>
