<?xml version="1.0" encoding="utf-8"?>
<!-- Generated by IcoMoon.io -->
<!DOCTYPE svg PUBLIC "-//W3C//DTD SVG 1.1//EN" "http://www.w3.org/Graphics/SVG/1.1/DTD/svg11.dtd">
<svg version="1.1" xmlns="http://www.w3.org/2000/svg" xmlns:xlink="http://www.w3.org/1999/xlink" width="20" height="20" viewBox="0 0 20 20">
	<path d="M7.104 14.103l0.807-1.129-0.884-0.884-1.129 0.807c-0.209-0.117-0.434-0.21-0.669-0.277l-0.228-1.369h-1.25l-0.228 1.369c-0.236 0.067-0.46 0.16-0.669 0.277l-1.129-0.807-0.884 0.884 0.807 1.129c-0.117 0.209-0.21 0.434-0.277 0.669l-1.369 0.228v1.25l1.369 0.228c0.067 0.236 0.16 0.46 0.277 0.669l-0.807 1.129 0.884 0.884 1.129-0.807c0.209 0.117 0.434 0.21 0.669 0.277l0.228 1.369h1.25l0.228-1.369c0.236-0.067 0.46-0.16 0.669-0.277l1.129 0.807 0.884-0.884-0.807-1.129c0.117-0.209 0.21-0.434 0.277-0.669l1.369-0.228v-1.25l-1.369-0.228c-0.067-0.236-0.16-0.46-0.277-0.669zM4.375 16.875c-0.69 0-1.25-0.56-1.25-1.25s0.56-1.25 1.25-1.25 1.25 0.56 1.25 1.25-0.56 1.25-1.25 1.25zM20 7.5v-1.25l-1.316-0.239c-0.024-0.157-0.055-0.312-0.092-0.465l1.124-0.725-0.478-1.155-1.307 0.283c-0.082-0.135-0.17-0.266-0.264-0.393l0.762-1.1-0.884-0.884-1.1 0.762c-0.127-0.093-0.258-0.181-0.393-0.264l0.283-1.308-1.155-0.478-0.725 1.124c-0.153-0.037-0.308-0.068-0.465-0.092l-0.239-1.316h-1.25l-0.239 1.316c-0.157 0.024-0.312 0.055-0.465 0.092l-0.725-1.124-1.155 0.478 0.283 1.308c-0.135 0.082-0.266 0.17-0.393 0.264l-1.1-0.762-0.884 0.884 0.762 1.1c-0.093 0.127-0.181 0.258-0.264 0.393l-1.307-0.283-0.478 1.155 1.124 0.725c-0.037 0.153-0.068 0.307-0.092 0.465l-1.316 0.239v1.25l1.316 0.239c0.024 0.157 0.055 0.312 0.092 0.465l-1.124 0.725 0.478 1.155 1.308-0.283c0.082 0.135 0.17 0.266 0.264 0.393l-0.762 1.1 0.884 0.884 1.1-0.762c0.127 0.093 0.258 0.181 0.393 0.264l-0.283 1.307 1.155 0.478 0.725-1.124c0.153 0.037 0.307 0.068 0.465 0.092l0.239 1.316h1.25l0.239-1.316c0.157-0.024 0.312-0.055 0.465-0.092l0.725 1.124 1.155-0.478-0.283-1.307c0.135-0.082 0.266-0.17 0.393-0.264l1.1 0.762 0.884-0.884-0.762-1.1c0.093-0.127 0.181-0.258 0.264-0.393l1.307 0.283 0.478-1.155-1.124-0.725c0.037-0.153 0.068-0.307 0.092-0.465l1.316-0.239zM13.125 9.594c-1.502 0-2.719-1.217-2.719-2.719s1.217-2.719 2.719-2.719 2.719 1.217 2.719 2.719c0 1.502-1.217 2.719-2.719 2.719z" fill="#ffffff" />
</svg>
