<?xml version="1.0" encoding="utf-8"?>
<!-- Generated by IcoMoon.io -->
<!DOCTYPE svg PUBLIC "-//W3C//DTD SVG 1.1//EN" "http://www.w3.org/Graphics/SVG/1.1/DTD/svg11.dtd">
<svg version="1.1" xmlns="http://www.w3.org/2000/svg" xmlns:xlink="http://www.w3.org/1999/xlink" width="20" height="20" viewBox="0 0 20 20">
	<path d="M9.375 1.25c-5.178 0-9.375 4.197-9.375 9.375 0 5.178 4.197 9.375 9.375 9.375 5.178 0 9.375-4.197 9.375-9.375 0-5.178-4.197-9.375-9.375-9.375zM9.375 18.125c-4.142 0-7.5-3.358-7.5-7.5s3.358-7.5 7.5-7.5c4.142 0 7.5 3.358 7.5 7.5 0 4.142-3.358 7.5-7.5 7.5zM10 10v-2.5h2.5v-1.25h-2.5v-1.25h-1.25v1.25h-2.5v5h2.5v2.5h-2.5v1.25h2.5v1.25h1.25v-1.25h2.5l-0-5h-2.5zM8.75 10h-1.25v-2.5h1.25v2.5zM11.25 13.75h-1.25v-2.5h1.25v2.5z" fill="#ffffff" />
</svg>
