<?xml version="1.0" encoding="utf-8"?>
<!-- Generated by IcoMoon.io -->
<!DOCTYPE svg PUBLIC "-//W3C//DTD SVG 1.1//EN" "http://www.w3.org/Graphics/SVG/1.1/DTD/svg11.dtd">
<svg version="1.1" xmlns="http://www.w3.org/2000/svg" xmlns:xlink="http://www.w3.org/1999/xlink" width="20" height="20" viewBox="0 0 20 20">
	<path d="M18.75 20h-17.5c-0.69 0-1.25-0.559-1.25-1.25v-17.5c0-0.691 0.56-1.25 1.25-1.25h12.5l-2.5 2.5h-8.75v15h15v-8.75l2.5-2.5v12.5c0 0.691-0.56 1.25-1.25 1.25zM5 15v-3.75l11.25-11.25h1.25l2.5 2.5v1.25l-11.25 11.25h-3.75zM10.625 10.625l6.875-6.875-1.25-1.25-6.875 6.875 1.25 1.25zM7.5 11.25l-1.25 1.25v1.25h1.25l1.25-1.25-1.25-1.25z" fill="#ffffff" />
</svg>
