<?xml version="1.0" encoding="utf-8"?>
<!-- Generated by IcoMoon.io -->
<!DOCTYPE svg PUBLIC "-//W3C//DTD SVG 1.1//EN" "http://www.w3.org/Graphics/SVG/1.1/DTD/svg11.dtd">
<svg version="1.1" xmlns="http://www.w3.org/2000/svg" xmlns:xlink="http://www.w3.org/1999/xlink" width="20" height="20" viewBox="0 0 20 20">
	<path d="M10 12.079c2.39 0 4.391-0.812 4.512-1.873-0.355-0.997-0.743-2.084-1.124-3.153-0.264 0.762-1.725 1.3-3.388 1.3s-3.123-0.537-3.389-1.299c-0.381 1.069-0.767 2.155-1.123 3.153 0.121 1.060 2.121 1.872 4.512 1.872zM10 5.374c1.123 0 2.167-0.348 2.473-0.888-0.421-1.183-0.783-2.197-1.012-2.837-0.151-0.427-0.84-0.649-1.461-0.649s-1.31 0.222-1.461 0.648c-0.229 0.64-0.59 1.655-1.012 2.837 0.306 0.541 1.35 0.889 2.473 0.889zM18.78 13.066l-3.755-1.513 0.433 1.207c-0.022 1.278-2.505 2.298-5.458 2.298s-5.436-1.020-5.457-2.298l0.432-1.207-3.755 1.513c-1.053 0.425-1.097 1.21-0.099 1.745l7.062 3.787c0.999 0.535 2.634 0.535 3.633 0l7.062-3.787c1-0.535 0.955-1.32-0.098-1.745z" fill="#ffffff" />
</svg>
