<?xml version="1.0" encoding="utf-8"?>
<!-- Generated by IcoMoon.io -->
<!DOCTYPE svg PUBLIC "-//W3C//DTD SVG 1.1//EN" "http://www.w3.org/Graphics/SVG/1.1/DTD/svg11.dtd">
<svg version="1.1" xmlns="http://www.w3.org/2000/svg" xmlns:xlink="http://www.w3.org/1999/xlink" width="20" height="20" viewBox="0 0 20 20">
	<path d="M10 0c-5.523 0-10 4.477-10 10s4.477 10 10 10c5.523 0 10-4.477 10-10s-4.477-10-10-10zM13.75 5c0.69 0 1.25 0.56 1.25 1.25s-0.56 1.25-1.25 1.25-1.25-0.56-1.25-1.25c0-0.69 0.56-1.25 1.25-1.25zM6.25 5c0.69 0 1.25 0.56 1.25 1.25s-0.56 1.25-1.25 1.25-1.25-0.56-1.25-1.25c0-0.69 0.56-1.25 1.25-1.25zM13.418 15.831c-1.619 0.589-3.416-0.248-4.005-1.867-0.354-0.972-1.432-1.474-2.403-1.121-0.89 0.324-1.386 1.256-1.191 2.157h-1.267c-0.181-1.416 0.634-2.823 2.030-3.331 1.619-0.589 3.416 0.248 4.006 1.867 0.354 0.972 1.432 1.474 2.403 1.121 0.89-0.324 1.386-1.256 1.191-2.157h1.267c0.18 1.416-0.634 2.823-2.030 3.331z" fill="#ffffff" />
</svg>
