<?xml version="1.0" encoding="utf-8"?>
<!-- Generated by IcoMoon.io -->
<!DOCTYPE svg PUBLIC "-//W3C//DTD SVG 1.1//EN" "http://www.w3.org/Graphics/SVG/1.1/DTD/svg11.dtd">
<svg version="1.1" xmlns="http://www.w3.org/2000/svg" xmlns:xlink="http://www.w3.org/1999/xlink" width="25" height="20" viewBox="0 0 25 20">
	<path d="M12.5 11.25c2.068 0 3.943 0.841 5.301 2.199l-1.767 1.767c-0.905-0.905-2.155-1.466-3.534-1.466s-2.628 0.561-3.534 1.466l-1.767-1.767c1.358-1.358 3.233-2.199 5.301-2.199zM3.661 9.911c2.361-2.361 5.5-3.661 8.839-3.661s6.478 1.3 8.839 3.661l-1.768 1.768c-1.889-1.889-4.4-2.929-7.071-2.929-2.671 0-5.182 1.040-7.071 2.929l-1.768-1.768zM19.312 2.626c2.084 0.881 3.955 2.143 5.562 3.75v0l-1.768 1.768c-2.833-2.833-6.6-4.393-10.607-4.393-4.007 0-7.773 1.56-10.607 4.393l-1.768-1.768c1.607-1.607 3.478-2.868 5.562-3.75 2.158-0.913 4.45-1.376 6.812-1.376 2.362 0 4.654 0.463 6.812 1.376zM11.25 17.5c0-0.69 0.56-1.25 1.25-1.25s1.25 0.56 1.25 1.25c0 0.69-0.56 1.25-1.25 1.25-0.69 0-1.25-0.56-1.25-1.25z" fill="#ffffff" />
</svg>
