<?xml version="1.0" encoding="utf-8"?>
<!-- Generated by IcoMoon.io -->
<!DOCTYPE svg PUBLIC "-//W3C//DTD SVG 1.1//EN" "http://www.w3.org/Graphics/SVG/1.1/DTD/svg11.dtd">
<svg version="1.1" xmlns="http://www.w3.org/2000/svg" xmlns:xlink="http://www.w3.org/1999/xlink" width="20" height="20" viewBox="0 0 20 20">
	<path d="M10 20c5.523 0 10-4.477 10-10s-4.477-10-10-10-10 4.477-10 10 4.477 10 10 10zM10 1.875c4.487 0 8.125 3.638 8.125 8.125s-3.638 8.125-8.125 8.125-8.125-3.638-8.125-8.125 3.638-8.125 8.125-8.125zM15.625 5c0.344 0 0.625 0.281 0.625 0.625v1.875c0 0.688-0.563 1.25-1.25 1.25h-2.5c-0.688 0-1.25-0.563-1.25-1.25h-2.5c0 0.688-0.563 1.25-1.25 1.25h-2.5c-0.688 0-1.25-0.563-1.25-1.25v-1.875c0-0.344 0.281-0.625 0.625-0.625h3.75c0.344 0 0.625 0.281 0.625 0.625v0.625h2.5v-0.625c0-0.344 0.281-0.625 0.625-0.625h3.75zM10 15c1.82 0 3.414-0.973 4.288-2.427l1.072 0.643c-1.093 1.818-3.084 3.034-5.36 3.034-0.946 0-1.843-0.211-2.647-0.588l0.648-1.080c0.612 0.268 1.288 0.417 2 0.417z" fill="#ffffff" />
</svg>
