<?xml version="1.0" encoding="utf-8"?>
<!-- Generated by IcoMoon.io -->
<!DOCTYPE svg PUBLIC "-//W3C//DTD SVG 1.1//EN" "http://www.w3.org/Graphics/SVG/1.1/DTD/svg11.dtd">
<svg version="1.1" xmlns="http://www.w3.org/2000/svg" xmlns:xlink="http://www.w3.org/1999/xlink" width="20" height="20" viewBox="0 0 20 20">
	<path d="M16.875 2.5h-1.25v1.25h0.625v10h-5v5h-7.5v-15h0.625v-1.25h-1.25c-0.344 0-0.625 0.281-0.625 0.625v16.25c0 0.344 0.281 0.625 0.625 0.625h9.844l4.531-4.531v-12.344c0-0.344-0.281-0.625-0.625-0.625zM12.5 18.75v-3.75h3.75l-3.75 3.75zM15 2.5h-2.5v-1.25c0-0.688-0.563-1.25-1.25-1.25h-2.5c-0.688 0-1.25 0.563-1.25 1.25v1.25h-2.5v2.5h10v-2.5zM11.25 2.5h-2.5v-1.248c0.001-0.001 0.001-0.002 0.002-0.002h2.495c0.001 0.001 0.002 0.001 0.002 0.002v1.248z" fill="#ffffff" />
</svg>
