<?xml version="1.0" encoding="utf-8"?>
<!-- Generated by IcoMoon.io -->
<!DOCTYPE svg PUBLIC "-//W3C//DTD SVG 1.1//EN" "http://www.w3.org/Graphics/SVG/1.1/DTD/svg11.dtd">
<svg version="1.1" xmlns="http://www.w3.org/2000/svg" xmlns:xlink="http://www.w3.org/1999/xlink" width="20" height="20" viewBox="0 0 20 20">
	<path d="M18.125 2.5h-16.25c-1.031 0-1.875 0.844-1.875 1.875v11.25c0 1.031 0.844 1.875 1.875 1.875h16.25c1.031 0 1.875-0.844 1.875-1.875v-11.25c0-1.031-0.844-1.875-1.875-1.875zM1.875 3.75h16.25c0.339 0 0.625 0.286 0.625 0.625v1.875h-17.5v-1.875c0-0.339 0.286-0.625 0.625-0.625zM18.125 16.25h-16.25c-0.339 0-0.625-0.286-0.625-0.625v-5.625h17.5v5.625c0 0.339-0.286 0.625-0.625 0.625zM2.5 12.5h1.25v2.5h-1.25zM5 12.5h1.25v2.5h-1.25zM7.5 12.5h1.25v2.5h-1.25z" fill="#ffffff" />
</svg>
