<?xml version="1.0" encoding="utf-8"?>
<!-- Generated by IcoMoon.io -->
<!DOCTYPE svg PUBLIC "-//W3C//DTD SVG 1.1//EN" "http://www.w3.org/Graphics/SVG/1.1/DTD/svg11.dtd">
<svg version="1.1" xmlns="http://www.w3.org/2000/svg" xmlns:xlink="http://www.w3.org/1999/xlink" width="20" height="20" viewBox="0 0 20 20">
	<path d="M18 3h-16c-1.1 0-2 0.9-2 2v10c0 1.1 0.9 2 2 2h16c1.1 0 2-0.9 2-2v-10c0-1.1-0.9-2-2-2zM18 15h-16v-6h16v6zM18 6h-16v-1h16v1zM4 11.1v0.6h0.6v-0.6h-0.6zM7.6 12.3v0.6h1.2v-0.6h0.6v-0.6h0.6v-0.6h-1.2v0.6h-0.6v0.6h-0.6zM10 12.9v-0.6h-0.6v0.6h0.6zM7 12.9v-0.6h-1.2v0.6h1.2zM7.6 11.7h0.6v-0.6h-1.2v1.2h0.6v-0.6zM5.2 12.3h0.6v-0.6h0.6v-0.6h-1.2v0.6h-0.6v0.6h-0.6v0.6h1.2v-0.6z" fill="#ffffff" />
</svg>
