<?xml version="1.0" encoding="utf-8"?>
<!-- Generated by IcoMoon.io -->
<!DOCTYPE svg PUBLIC "-//W3C//DTD SVG 1.1//EN" "http://www.w3.org/Graphics/SVG/1.1/DTD/svg11.dtd">
<svg version="1.1" xmlns="http://www.w3.org/2000/svg" xmlns:xlink="http://www.w3.org/1999/xlink" width="20" height="20" viewBox="0 0 20 20">
	<path d="M14.349 13.152l-2.758-3.152 2.758-3.152c0.469-0.469 0.469-1.229 0-1.697-0.469-0.468-1.229-0.468-1.697 0l-2.652 3.031-2.651-3.030c-0.469-0.469-1.229-0.469-1.697 0-0.468 0.469-0.468 1.229 0 1.697l2.757 3.151-2.758 3.152c-0.468 0.469-0.468 1.227 0 1.695 0.469 0.469 1.229 0.469 1.697 0l2.652-3.029 2.651 3.029c0.469 0.469 1.229 0.469 1.697 0s0.469-1.226 0.001-1.695z" fill="#ffffff" />
</svg>
