<?xml version="1.0" encoding="utf-8"?>
<!-- Generated by IcoMoon.io -->
<!DOCTYPE svg PUBLIC "-//W3C//DTD SVG 1.1//EN" "http://www.w3.org/Graphics/SVG/1.1/DTD/svg11.dtd">
<svg version="1.1" xmlns="http://www.w3.org/2000/svg" xmlns:xlink="http://www.w3.org/1999/xlink" width="20" height="20" viewBox="0 0 20 20">
	<path d="M17.569 3.139l-0.759-2.284c-0.169-0.511-0.647-0.854-1.185-0.854h-11.25c-0.539 0-1.016 0.344-1.186 0.854l-0.766 2.286c-0.653 0.042-1.173 0.572-1.173 1.235v1.875c0 0.69 0.56 1.25 1.25 1.25h0.646c0 0.047-0.019 0.091-0.013 0.138l1.25 11.25c0.070 0.632 0.604 1.112 1.242 1.112h8.75c0.637 0 1.172-0.48 1.241-1.112l1.25-11.25c0.006-0.047-0.013-0.091-0.013-0.138h0.647c0.69 0 1.25-0.56 1.25-1.25v-1.875c0-0.666-0.525-1.198-1.181-1.236zM4.375 1.25h11.25l0.625 1.875h-12.5l0.625-1.875zM5.625 18.75l-0.208-1.875h9.166l-0.208 1.875h-8.75zM14.652 16.25h-9.305l-0.694-6.25h10.694l-0.695 6.25zM15.416 9.375h-10.833l-0.208-1.875h11.25l-0.209 1.875zM17.5 6.25h-15v-1.875h15v1.875z" fill="#ffffff" />
</svg>
