<?xml version="1.0" encoding="utf-8"?>
<!-- Generated by IcoMoon.io -->
<!DOCTYPE svg PUBLIC "-//W3C//DTD SVG 1.1//EN" "http://www.w3.org/Graphics/SVG/1.1/DTD/svg11.dtd">
<svg version="1.1" xmlns="http://www.w3.org/2000/svg" xmlns:xlink="http://www.w3.org/1999/xlink" width="20" height="20" viewBox="0 0 20 20">
	<path d="M5.516 14.224c-2.262-2.433-2.222-6.245 0.127-8.611 0.962-0.968 2.164-1.546 3.414-1.736l-0.069-2.077c-1.754 0.213-3.452 0.996-4.797 2.35-3.149 3.172-3.186 8.29-0.123 11.532l-1.741 1.753 5.51 0.301-0.015-5.834-2.306 2.322zM12.162 2.265l0.015 5.834 2.307-2.323c2.262 2.433 2.223 6.245-0.127 8.611-0.962 0.969-2.164 1.546-3.415 1.736l0.069 2.076c1.755-0.213 3.453-0.996 4.798-2.351 3.148-3.171 3.187-8.29 0.122-11.531l1.741-1.753-5.51-0.299z" fill="#ffffff" />
</svg>
