<?xml version="1.0" encoding="utf-8"?>
<!-- Generated by IcoMoon.io -->
<!DOCTYPE svg PUBLIC "-//W3C//DTD SVG 1.1//EN" "http://www.w3.org/Graphics/SVG/1.1/DTD/svg11.dtd">
<svg version="1.1" xmlns="http://www.w3.org/2000/svg" xmlns:xlink="http://www.w3.org/1999/xlink" width="20" height="20" viewBox="0 0 20 20">
	<path d="M13.66 12.188c1.266-0.033 2.404-0.701 3.076-1.864 1.059-1.834 0.459-4.046-1.58-5.223l-1.277-0.738 2.139-3.706-1.139-0.657-4.135 7.16c-0.322-0.794-0.939-1.509-1.833-2.024l-2.417-1.397-3.744 6.485 2.417 1.396c0.894 0.516 1.823 0.688 2.675 0.567l-4.132 7.155 1.14 0.658 2.14-3.705 1.278 0.737c2.039 1.177 4.266 0.573 5.324-1.262 0.67-1.162 0.674-2.476 0.068-3.582zM14.559 6.139c1.361 0.786 1.711 2.235 0.973 3.513-0.738 1.279-2.158 1.682-3.52 0.896l-1.262-0.728c0.015-0.036 0.027-0.072 0.040-0.108l2.49-4.312 1.279 0.739zM5.766 10.582l-1.278-0.738 2.545-4.41 1.279 0.738c1.361 0.786 1.71 2.235 0.973 3.514-0.738 1.279-2.157 1.683-3.519 0.896zM8.867 15.995l-1.279-0.738 2.493-4.316c0.023-0.028 0.047-0.055 0.069-0.084l1.262 0.729c1.363 0.785 1.711 2.235 0.975 3.514-0.739 1.278-2.159 1.681-3.52 0.895z" fill="#ffffff" />
</svg>
