<?xml version="1.0" encoding="utf-8"?>
<!-- Generated by IcoMoon.io -->
<!DOCTYPE svg PUBLIC "-//W3C//DTD SVG 1.1//EN" "http://www.w3.org/Graphics/SVG/1.1/DTD/svg11.dtd">
<svg version="1.1" xmlns="http://www.w3.org/2000/svg" xmlns:xlink="http://www.w3.org/1999/xlink" width="20" height="20" viewBox="0 0 20 20">
	<path d="M10 0c-4.215 0-8.75 1.271-8.75 4.063v11.875c0 2.791 4.535 4.063 8.75 4.063 4.214 0 8.75-1.272 8.75-4.063v-11.875c0-2.792-4.536-4.063-8.75-4.063zM17.5 15.938c0 1.553-3.358 2.813-7.5 2.813-4.143 0-7.5-1.26-7.5-2.813v-2.335c1.291 1.331 4.406 2.023 7.5 2.023s6.209-0.692 7.5-2.023v2.335zM17.5 12.188h-0.003c0 0.006 0.003 0.013 0.003 0.019 0 1.543-3.358 2.793-7.5 2.793-4.142 0-7.5-1.25-7.5-2.793 0-0.006 0.002-0.013 0.002-0.019h-0.002v-2.335c1.291 1.331 4.406 2.023 7.5 2.023s6.209-0.692 7.5-2.023v2.335zM17.5 8.438h-0.003c0 0.006 0.003 0.013 0.003 0.019 0 1.543-3.358 2.793-7.5 2.793-4.142 0-7.5-1.25-7.5-2.793 0-0.006 0.002-0.013 0.002-0.019h-0.002v-2.147c1.638 1.248 4.641 1.835 7.5 1.835s5.862-0.587 7.5-1.835v2.147zM10 6.875c-4.143 0-7.5-1.26-7.5-2.813 0-1.554 3.357-2.813 7.5-2.813 4.142 0 7.5 1.259 7.5 2.813 0 1.553-3.358 2.813-7.5 2.813zM15 16.25c0-0.345 0.28-0.625 0.625-0.625s0.625 0.28 0.625 0.625c0 0.345-0.28 0.625-0.625 0.625-0.345 0-0.625-0.28-0.625-0.625zM15 12.5c0-0.345 0.28-0.625 0.625-0.625s0.625 0.28 0.625 0.625c0 0.345-0.28 0.625-0.625 0.625-0.345 0-0.625-0.28-0.625-0.625zM15 8.75c0-0.345 0.28-0.625 0.625-0.625s0.625 0.28 0.625 0.625c0 0.345-0.28 0.625-0.625 0.625-0.345 0-0.625-0.28-0.625-0.625z" fill="#ffffff" />
</svg>
