<?xml version="1.0" encoding="utf-8"?>
<!-- Generated by IcoMoon.io -->
<!DOCTYPE svg PUBLIC "-//W3C//DTD SVG 1.1//EN" "http://www.w3.org/Graphics/SVG/1.1/DTD/svg11.dtd">
<svg version="1.1" xmlns="http://www.w3.org/2000/svg" xmlns:xlink="http://www.w3.org/1999/xlink" width="20" height="20" viewBox="0 0 20 20">
	<path d="M16.727 12.84c-0.844 1.364-3.535 2.361-6.727 2.361-3.19 0-5.883-0.997-6.726-2.361-0.179-0.289-0.274-0.134-0.274 0.009 0 0.144 0 2.002 0 2.002 0 1.939 3.134 3.949 7 3.949s7-2.010 7-3.949c0 0 0-1.858 0-2.002 0-0.143-0.096-0.298-0.273-0.009zM16.737 7.725c-0.829 1.206-3.532 2.090-6.737 2.090s-5.908-0.884-6.737-2.090c-0.172-0.249-0.263-0.114-0.263-0.001 0 0.113 0 2.356 0 2.356 0 1.763 3.134 3.191 7 3.191s7-1.428 7-3.191c0 0 0-2.243 0-2.356 0-0.113-0.092-0.248-0.263 0.001zM10 1.2c-3.866 0-7 1.178-7 2.632v1.259c0 1.542 3.134 2.792 7 2.792s7-1.25 7-2.792v-1.258c0-1.455-3.134-2.633-7-2.633z" fill="#ffffff" />
</svg>
