<?xml version="1.0" encoding="utf-8"?>
<!-- Generated by IcoMoon.io -->
<!DOCTYPE svg PUBLIC "-//W3C//DTD SVG 1.1//EN" "http://www.w3.org/Graphics/SVG/1.1/DTD/svg11.dtd">
<svg version="1.1" xmlns="http://www.w3.org/2000/svg" xmlns:xlink="http://www.w3.org/1999/xlink" width="20" height="20" viewBox="0 0 20 20">
	<path d="M16.668 0h-13.334c-1.834 0-3.334 1.5-3.334 3.334v13.332c0 1.835 1.5 3.334 3.334 3.334h13.334c1.833 0 3.332-1.499 3.332-3.334v-13.332c0-1.834-1.499-3.334-3.332-3.334zM18.75 16.666c0 0.553-0.218 1.076-0.613 1.471-0.395 0.395-0.917 0.613-1.47 0.613h-6.668v-8.75h-8.75v-6.666c0-0.553 0.218-1.075 0.613-1.471 0.395-0.395 0.918-0.613 1.471-0.613h6.666v8.75h8.75v6.666z" fill="#ffffff" />
</svg>
