<?xml version="1.0" encoding="utf-8"?>
<!-- Generated by IcoMoon.io -->
<!DOCTYPE svg PUBLIC "-//W3C//DTD SVG 1.1//EN" "http://www.w3.org/Graphics/SVG/1.1/DTD/svg11.dtd">
<svg version="1.1" xmlns="http://www.w3.org/2000/svg" xmlns:xlink="http://www.w3.org/1999/xlink" width="20" height="20" viewBox="0 0 20 20">
	<path d="M10.974 7.949c-0.763-0.045-1.642 0.001-2.661 0.175l2.35 4.236 9.337-2.564c-0.101-0.239-0.248-0.473-0.443-0.699-0.966-1.119-3.061-2.117-5.344-2.567l0-0.001c-2.239-0.525-4.664-0.503-7.148-0.128-0.090 0.013-0.179 0.028-0.267 0.043l-0.826-1.529c-0.804 0.107-1.559 0.274-2.258 0.498l0.786 1.644c-1.284 0.498-2.338 1.206-3.099 2.059-1.254 1.427-1.75 3.221-1.147 4.968 0.121 0.352 0.285 0.687 0.487 1l9.337-2.564-2.593-4.802c0.089-0.017 0.18-0.035 0.272-0.051 4.193-0.748 6.486 0.407 7.742 1.637l-3.194 0.774-1.333-2.13zM3.413 12.234c-0.288-1.315-0.059-2.784 1.766-3.762l1.428 2.987-3.194 0.774z" fill="#ffffff" />
</svg>
