<?xml version="1.0" encoding="utf-8"?>
<!-- Generated by IcoMoon.io -->
<!DOCTYPE svg PUBLIC "-//W3C//DTD SVG 1.1//EN" "http://www.w3.org/Graphics/SVG/1.1/DTD/svg11.dtd">
<svg version="1.1" xmlns="http://www.w3.org/2000/svg" xmlns:xlink="http://www.w3.org/1999/xlink" width="20" height="20" viewBox="0 0 20 20">
	<path d="M16.641 0h-13.281c-1.848 0-3.359 1.512-3.359 3.359v13.281c0 1.848 1.512 3.359 3.359 3.359h13.281c1.848 0 3.359-1.512 3.359-3.359v-13.281c0-1.848-1.512-3.359-3.359-3.359zM18.75 15h-7.5v-4.609c0 0 1.374 0.020 2.109 0.781v1.328h3.016c-0.231-0.74-0.724-1.467-1.428-2.083-1.211-1.059-3.187-1.589-4.947-1.589v6.172h-8.75v-1.875c0-0.848 0.286-1.69 0.827-2.437 0.48-0.662 1.15-1.247 1.989-1.737 0.985-0.575 2.159-0.99 3.433-1.226v-2.726h2.5v2.5c2.871 0 4.328 0.516 5.933 1.452 0.84 0.49 1.509 1.074 1.989 1.737 0.541 0.747 0.827 1.589 0.827 2.437v1.875zM3.898 12.5c0.231-0.74 0.724-1.467 1.428-2.083 0.616-0.539 1.36-0.961 2.173-1.245v3.329h-3.602z" fill="#ffffff" />
</svg>
