<?xml version="1.0" encoding="utf-8"?>
<!-- Generated by IcoMoon.io -->
<!DOCTYPE svg PUBLIC "-//W3C//DTD SVG 1.1//EN" "http://www.w3.org/Graphics/SVG/1.1/DTD/svg11.dtd">
<svg version="1.1" xmlns="http://www.w3.org/2000/svg" xmlns:xlink="http://www.w3.org/1999/xlink" width="20" height="20" viewBox="0 0 20 20">
	<path d="M19.634 6.048l-3.175-3.176c-0.234-0.234-0.553-0.366-0.884-0.366h-11.149c-0.331 0-0.649 0.132-0.884 0.366l-3.175 3.176c-0.246 0.245-0.368 0.568-0.367 0.892 0.002 0.294 0.107 0.587 0.316 0.823l8.749 9.317c0.238 0.268 0.578 0.42 0.934 0.42 0.357 0 0.697-0.152 0.934-0.42l8.75-9.317c0.214-0.241 0.319-0.542 0.316-0.843-0.003-0.316-0.126-0.631-0.366-0.872zM11.387 6.881h-2.774l1.387-1.156 1.387 1.156zM10.489 5.319l1.707-1.424 1.261 1.261-1.582 1.318-1.386-1.156zM8.125 6.474l-1.582-1.318 1.261-1.261 1.708 1.424-1.387 1.156zM11.556 7.506l-1.556 7.783-1.556-7.783h3.113zM12.194 7.506h3.066l-4.599 7.668 1.533-7.668zM12.362 6.881l1.539-1.282 1.282 1.282h-2.821zM12.942 3.756h2.195l-1.197 0.998-0.998-0.998zM10 4.913l-1.388-1.156h2.774l-1.386 1.156zM6.060 4.754l-1.197-0.998h2.196l-0.998 0.998zM6.099 5.599l1.539 1.282h-2.821l1.282-1.282zM7.806 7.506l1.533 7.668-4.6-7.668h3.067zM7.94 14.055l-6.15-6.549h2.221l3.929 6.549zM15.989 7.506h2.222l-6.151 6.55 3.929-6.55zM16.067 6.881l-1.683-1.683 1.436-1.197 2.879 2.88h-2.632zM4.179 4l1.438 1.198-1.684 1.683h-2.679l2.925-2.881z" fill="#ffffff" />
</svg>
