<?xml version="1.0" encoding="utf-8"?>
<!-- Generated by IcoMoon.io -->
<!DOCTYPE svg PUBLIC "-//W3C//DTD SVG 1.1//EN" "http://www.w3.org/Graphics/SVG/1.1/DTD/svg11.dtd">
<svg version="1.1" xmlns="http://www.w3.org/2000/svg" xmlns:xlink="http://www.w3.org/1999/xlink" width="20" height="20" viewBox="0 0 20 20">
	<path d="M16.875 3.75h-10c-1.719 0-3.125 1.406-3.125 3.125v10c0 1.719 1.406 3.125 3.125 3.125h10c1.719 0 3.125-1.406 3.125-3.125v-10c0-1.719-1.406-3.125-3.125-3.125zM8.125 17.5c-1.036 0-1.875-0.839-1.875-1.875s0.839-1.875 1.875-1.875 1.875 0.839 1.875 1.875-0.839 1.875-1.875 1.875zM8.125 10c-1.036 0-1.875-0.839-1.875-1.875s0.839-1.875 1.875-1.875 1.875 0.839 1.875 1.875-0.839 1.875-1.875 1.875zM11.875 13.75c-1.036 0-1.875-0.839-1.875-1.875s0.839-1.875 1.875-1.875 1.875 0.839 1.875 1.875-0.839 1.875-1.875 1.875zM15.625 17.5c-1.036 0-1.875-0.839-1.875-1.875s0.839-1.875 1.875-1.875 1.875 0.839 1.875 1.875-0.839 1.875-1.875 1.875zM15.625 10c-1.036 0-1.875-0.839-1.875-1.875s0.839-1.875 1.875-1.875 1.875 0.839 1.875 1.875-0.839 1.875-1.875 1.875zM16.187 2.5c-0.292-1.422-1.557-2.5-3.062-2.5h-10c-1.719 0-3.125 1.406-3.125 3.125v10c0 1.505 1.078 2.77 2.5 3.062v-12.437c0-0.688 0.563-1.25 1.25-1.25h12.437z" fill="#ffffff" />
</svg>
