<?xml version="1.0" encoding="utf-8"?>
<!-- Generated by IcoMoon.io -->
<!DOCTYPE svg PUBLIC "-//W3C//DTD SVG 1.1//EN" "http://www.w3.org/Graphics/SVG/1.1/DTD/svg11.dtd">
<svg version="1.1" xmlns="http://www.w3.org/2000/svg" xmlns:xlink="http://www.w3.org/1999/xlink" width="20" height="20" viewBox="0 0 20 20">
	<path d="M8.5 1h-0.899c-0.221 0-0.401 0.18-0.401 0.4v3.8h-3.536c-0.165 0-0.37 0.038-0.566 0.098-0.198 0.061-0.387 0.145-0.522 0.237l-2.375 1.63c-0.134 0.092-0.201 0.213-0.201 0.335s0.067 0.243 0.201 0.335l2.375 1.63c0.135 0.092 0.324 0.176 0.522 0.237 0.196 0.060 0.401 0.098 0.566 0.098h3.536v8.8c0 0.221 0.18 0.4 0.4 0.4h0.9c0.221 0 0.4-0.18 0.4-0.4v-17.2c0-0.22-0.179-0.4-0.4-0.4zM19.799 5.166l-2.375-1.63c-0.134-0.092-0.323-0.176-0.521-0.237-0.197-0.061-0.402-0.099-0.567-0.099h-6.836l0.801 4.6h6.035c0.165 0 0.37-0.038 0.567-0.098s0.387-0.145 0.521-0.236l2.375-1.63c0.135-0.093 0.201-0.214 0.201-0.336s-0.066-0.243-0.201-0.334z" fill="#ffffff" />
</svg>
