<?xml version="1.0" encoding="utf-8"?>
<!-- Generated by IcoMoon.io -->
<!DOCTYPE svg PUBLIC "-//W3C//DTD SVG 1.1//EN" "http://www.w3.org/Graphics/SVG/1.1/DTD/svg11.dtd">
<svg version="1.1" xmlns="http://www.w3.org/2000/svg" xmlns:xlink="http://www.w3.org/1999/xlink" width="20" height="20" viewBox="0 0 20 20">
	<path d="M16.875 3.123l-13.75 0.002c-0.346 0-0.625 0.277-0.625 0.623v8.75c0 0.346 0.279 0.625 0.625 0.625h13.75c0.346 0 0.625-0.279 0.625-0.625v-8.75c0-0.346-0.279-0.625-0.625-0.625zM16.875 12.5h-13.75v-8.752h13.75v8.752zM18.125 0.625h-16.25c-1.036 0-1.875 0.839-1.875 1.875v12.5c0 1.034 0.836 1.871 1.869 1.874h6.256v0.761l-3.901 0.507c-0.279 0.069-0.474 0.319-0.474 0.606 0 0.346 0.279 0.625 0.625 0.625h11.25c0.346 0 0.625-0.279 0.625-0.625 0-0.287-0.195-0.537-0.474-0.607l-3.901-0.506v-0.761h6.256c1.033-0.003 1.869-0.84 1.869-1.874v-12.5c0-1.036-0.84-1.875-1.875-1.875zM18.75 15c0 0.344-0.281 0.625-0.625 0.625h-16.25c-0.345 0-0.625-0.281-0.625-0.625v-12.5c0-0.345 0.28-0.625 0.625-0.625h16.25c0.344 0 0.625 0.28 0.625 0.625v12.5z" fill="#ffffff" />
</svg>
