<?xml version="1.0" encoding="utf-8"?>
<!-- Generated by IcoMoon.io -->
<!DOCTYPE svg PUBLIC "-//W3C//DTD SVG 1.1//EN" "http://www.w3.org/Graphics/SVG/1.1/DTD/svg11.dtd">
<svg version="1.1" xmlns="http://www.w3.org/2000/svg" xmlns:xlink="http://www.w3.org/1999/xlink" width="20" height="20" viewBox="0 0 20 20">
	<path d="M19.398 7.414l-7.445-1.994-1.303-4.862c-0.109-0.406-0.544-0.643-0.972-0.528l-9.075 2.431c-0.428 0.114-0.686 0.537-0.578 0.943l3.229 12.052c0.109 0.406 0.544 0.643 0.971 0.528l3.613-0.968-0.493 1.838c-0.109 0.407 0.149 0.829 0.577 0.944l8.11 2.173c0.428 0.114 0.863-0.122 0.972-0.528l2.971-11.086c0.109-0.406-0.149-0.829-0.577-0.943zM1.634 3.632l7.829-2.096 2.899 10.818-7.83 2.096-2.898-10.818zM15.679 18.465l-6.815-1.864 0.536-2.003 3.901-1.045c0.428-0.115 0.687-0.537 0.578-0.944l-1.508-5.627 5.946 1.631-2.638 9.852z" fill="#ffffff" />
</svg>
