<?xml version="1.0" encoding="utf-8"?>
<!-- Generated by IcoMoon.io -->
<!DOCTYPE svg PUBLIC "-//W3C//DTD SVG 1.1//EN" "http://www.w3.org/Graphics/SVG/1.1/DTD/svg11.dtd">
<svg version="1.1" xmlns="http://www.w3.org/2000/svg" xmlns:xlink="http://www.w3.org/1999/xlink" width="20" height="20" viewBox="0 0 20 20">
	<path d="M19.34 13.544l-3.184-2.142h-1.963l3.4 2.608h-3.545c-0.102 0-0.193 0.052-0.24 0.133l-0.816 2.235h-5.984l-0.817-2.235c-0.045-0.081-0.138-0.133-0.24-0.133h-3.544l3.401-2.608h-1.964l-3.183 2.142c-0.474 0.283-0.757 0.936-0.63 1.449l0.561 3.074c0.127 0.514 0.691 0.935 1.251 0.935h16.313c0.562 0 1.125-0.421 1.252-0.935l0.561-3.074c0.129-0.514-0.155-1.166-0.629-1.449zM15.201 7.122h-3.301v-5.12h-3.8v5.12h-3.3l5.2 4.88 5.201-4.88z" fill="#ffffff" />
</svg>
