<?xml version="1.0" encoding="utf-8"?>
<!-- Generated by IcoMoon.io -->
<!DOCTYPE svg PUBLIC "-//W3C//DTD SVG 1.1//EN" "http://www.w3.org/Graphics/SVG/1.1/DTD/svg11.dtd">
<svg version="1.1" xmlns="http://www.w3.org/2000/svg" xmlns:xlink="http://www.w3.org/1999/xlink" width="20" height="20" viewBox="0 0 20 20">
	<path d="M19.339 9.543c-0.393-0.417-2.284-2.272-3.149-3.119-0.266-0.259-0.646-0.424-1.043-0.424-0.396 0-5.146 0-5.146 0s-4.75 0-5.147 0-0.778 0.166-1.043 0.425c-0.865 0.847-2.758 2.702-3.15 3.119-0.489 0.52-0.757 0.935-0.629 1.449l0.561 3.074c0.127 0.514 0.69 0.935 1.251 0.935h16.312c0.561 0 1.124-0.421 1.251-0.935l0.562-3.074c0.127-0.514-0.141-0.93-0.63-1.45zM14.048 10.209c-0.102 0-0.193 0.052-0.239 0.133l-0.817 2.036h-5.983l-0.817-2.036c-0.045-0.081-0.138-0.133-0.239-0.133h-3.545l2.041-2.309h11.104l2.040 2.309h-3.545z" fill="#ffffff" />
</svg>
