<?xml version="1.0" encoding="utf-8"?>
<!-- Generated by IcoMoon.io -->
<!DOCTYPE svg PUBLIC "-//W3C//DTD SVG 1.1//EN" "http://www.w3.org/Graphics/SVG/1.1/DTD/svg11.dtd">
<svg version="1.1" xmlns="http://www.w3.org/2000/svg" xmlns:xlink="http://www.w3.org/1999/xlink" width="20" height="20" viewBox="0 0 20 20">
	<path d="M17.549 0l1.313 11.163-1.474 0.173-1.173-9.97h-12.43l-1.173 9.97-1.474-0.173 1.313-11.163zM5 2.5h10v1.25h-10zM5 5h10v1.25h-10zM5 7.5h10v1.25h-10zM5 10h10v1.25h-10zM19.375 12.5h-18.75c-0.344 0-0.536 0.267-0.427 0.593l2.105 6.314c0.109 0.326 0.479 0.593 0.823 0.593h13.75c0.344 0 0.714-0.267 0.823-0.593l2.105-6.314c0.109-0.326-0.084-0.593-0.427-0.593zM12.5 15h-5v-1.25h5v1.25z" fill="#ffffff" />
</svg>
