<?xml version="1.0" encoding="utf-8"?>
<!-- Generated by IcoMoon.io -->
<!DOCTYPE svg PUBLIC "-//W3C//DTD SVG 1.1//EN" "http://www.w3.org/Graphics/SVG/1.1/DTD/svg11.dtd">
<svg version="1.1" xmlns="http://www.w3.org/2000/svg" xmlns:xlink="http://www.w3.org/1999/xlink" width="20" height="20" viewBox="0 0 20 20">
	<path d="M9.565 7.421c-1.358-2.415-2.81-4.383-2.917-4.527-2.191 1.035-3.827 3.053-4.336 5.486 0.206 0.004 3.48 0.043 7.253-0.959zM10.544 10.060c0.104-0.033 0.206-0.063 0.311-0.093-0.197-0.447-0.413-0.894-0.638-1.335-4.046 1.21-7.929 1.123-8.067 1.119-0.003 0.083-0.006 0.165-0.006 0.249 0 2.021 0.764 3.861 2.016 5.253-0.002-0.002-0.006-0.007-0.006-0.007s2.151-3.814 6.39-5.186zM5.171 16.193l0.002-0.003c-0.059-0.046-0.121-0.087-0.178-0.135 0.104 0.084 0.176 0.138 0.176 0.138zM8.118 2.372c-0.007 0.002-0.014 0.003-0.020 0.005 0.011-0.003 0.019-0.004 0.020-0.005v0zM15.189 4.104c-1.384-1.219-3.199-1.96-5.188-1.96-0.639 0-1.258 0.078-1.852 0.222 0.119 0.158 1.594 2.118 2.938 4.583 2.962-1.111 4.082-2.813 4.102-2.845zM10.001 19.2c-5.082 0-9.201-4.119-9.201-9.2s4.119-9.2 9.201-9.2c5.081 0 9.199 4.119 9.199 9.2s-4.118 9.2-9.199 9.2zM11.337 11.285c-4.611 1.607-6.134 4.839-6.164 4.905 1.332 1.041 3.006 1.666 4.828 1.666 1.088 0 2.124-0.221 3.066-0.621-0.116-0.689-0.573-3.096-1.678-5.968-0.017 0.007-0.035 0.012-0.052 0.018zM11.69 8.119c0.184 0.375 0.359 0.755 0.522 1.14 0.059 0.136 0.114 0.271 0.17 0.406 2.714-0.341 5.385 0.238 5.472 0.257-0.018-1.864-0.684-3.574-1.786-4.912-0.016 0.023-1.276 1.843-4.378 3.109zM12.861 10.905c1.032 2.835 1.45 5.142 1.529 5.612 1.765-1.191 3.018-3.080 3.367-5.271-0.155-0.051-2.356-0.748-4.896-0.341z" fill="#ffffff" />
</svg>
