<?xml version="1.0" encoding="utf-8"?>
<!-- Generated by IcoMoon.io -->
<!DOCTYPE svg PUBLIC "-//W3C//DTD SVG 1.1//EN" "http://www.w3.org/Graphics/SVG/1.1/DTD/svg11.dtd">
<svg version="1.1" xmlns="http://www.w3.org/2000/svg" xmlns:xlink="http://www.w3.org/1999/xlink" width="20" height="20" viewBox="0 0 20 20">
	<path d="M10.259 9.983c0.034-0.011 0.068-0.021 0.104-0.032-0.083-0.186-0.175-0.377-0.279-0.583-1.88 0.556-3.68 0.562-4.001 0.558-0.002 0.024-0.003 0.050-0.003 0.074 0 0.945 0.34 1.854 0.958 2.567 0.207-0.333 1.298-1.962 3.221-2.584zM12.555 7.029c-0.711-0.612-1.616-0.948-2.555-0.948-0.283 0-0.568 0.031-0.849 0.093 0.204 0.276 0.832 1.147 1.421 2.223 1.282-0.492 1.862-1.203 1.983-1.368zM7.624 13.113c0.689 0.529 1.51 0.807 2.376 0.807 0.518 0 1.020-0.1 1.495-0.295-0.066-0.381-0.295-1.54-0.822-2.921-2.122 0.75-2.922 2.161-3.049 2.409zM9.705 8.665c-0.608-1.072-1.241-1.955-1.414-2.192-1.067 0.519-1.852 1.507-2.113 2.66h0.016c0.406 0 1.848-0.034 3.511-0.468zM11.514 10.498c0.465 1.291 0.68 2.366 0.74 2.709 0.852-0.6 1.434-1.521 1.609-2.542-0.174-0.052-0.801-0.222-1.592-0.222-0.257 0-0.513 0.019-0.757 0.055zM10 0.4c-5.302 0-9.6 4.298-9.6 9.6s4.298 9.6 9.6 9.6c5.303 0 9.6-4.298 9.6-9.6s-4.297-9.6-9.6-9.6zM10 14.698c-2.59 0-4.698-2.107-4.698-4.698s2.107-4.698 4.698-4.698c2.592 0 4.7 2.107 4.7 4.698s-2.108 4.698-4.7 4.698zM10.922 9.076c0.087 0.178 0.167 0.356 0.242 0.53 0.023 0.057 0.049 0.113 0.072 0.17 0.277-0.033 0.572-0.050 0.881-0.050 0.854 0 1.564 0.125 1.801 0.172-0.021-0.85-0.322-1.676-0.852-2.339-0.16 0.207-0.818 0.963-2.144 1.517z" fill="#ffffff" />
</svg>
