<?xml version="1.0" encoding="utf-8"?>
<!-- Generated by IcoMoon.io -->
<!DOCTYPE svg PUBLIC "-//W3C//DTD SVG 1.1//EN" "http://www.w3.org/Graphics/SVG/1.1/DTD/svg11.dtd">
<svg version="1.1" xmlns="http://www.w3.org/2000/svg" xmlns:xlink="http://www.w3.org/1999/xlink" width="20" height="20" viewBox="0 0 20 20">
	<path d="M10 20c-5.514 0-10-4.486-10-10s4.486-10 10-10c5.514 0 10 4.486 10 10s-4.486 10-10 10zM18.434 11.369c-0.292-0.092-2.644-0.794-5.321-0.365 1.117 3.070 1.572 5.57 1.659 6.090 1.916-1.296 3.28-3.348 3.661-5.725zM13.337 17.876c-0.127-0.749-0.623-3.361-1.822-6.477-0.019 0.006-0.038 0.013-0.056 0.019-4.818 1.679-6.547 5.020-6.701 5.334 1.448 1.129 3.268 1.803 5.243 1.803 1.183 0 2.311-0.242 3.336-0.679zM3.654 15.724c0.194-0.331 2.538-4.213 6.943-5.637 0.111-0.036 0.224-0.070 0.337-0.102-0.214-0.485-0.448-0.971-0.692-1.45-4.266 1.277-8.405 1.223-8.779 1.216-0.003 0.087-0.004 0.174-0.004 0.261 0 2.194 0.832 4.197 2.196 5.711zM1.639 8.264c0.382 0.005 3.901 0.020 7.897-1.041-1.415-2.516-2.942-4.631-3.167-4.94-2.39 1.127-4.176 3.33-4.73 5.981zM7.998 1.709c0.236 0.316 1.787 2.429 3.187 5 3.037-1.138 4.323-2.867 4.477-3.085-1.508-1.338-3.492-2.152-5.662-2.152-0.689 0-1.359 0.083-2.002 0.237zM16.612 4.612c-0.18 0.244-1.611 2.078-4.77 3.368 0.199 0.407 0.389 0.821 0.567 1.237 0.063 0.148 0.124 0.295 0.184 0.441 2.842-0.357 5.666 0.215 5.948 0.275-0.019-2.016-0.739-3.867-1.929-5.321z" fill="#ffffff" />
</svg>
