<?xml version="1.0" encoding="utf-8"?>
<!-- Generated by IcoMoon.io -->
<!DOCTYPE svg PUBLIC "-//W3C//DTD SVG 1.1//EN" "http://www.w3.org/Graphics/SVG/1.1/DTD/svg11.dtd">
<svg version="1.1" xmlns="http://www.w3.org/2000/svg" xmlns:xlink="http://www.w3.org/1999/xlink" width="20" height="20" viewBox="0 0 20 20">
	<path d="M10 0c-5.523 0-10 4.477-10 10s4.477 10 10 10 10-4.477 10-10-4.477-10-10-10zM10 2c1.858 0 3.547 0.66 4.905 1.724-0.631 0.544-1.987 1.577-4.060 2.556-0.764-1.349-1.664-2.716-2.739-4.030 0.61-0.149 1.239-0.25 1.895-0.25zM6.599 2.784c0.605 0.823 1.602 2.28 2.653 4.141-2.245 0.736-4.839 0.761-6.846 0.599 0.69-2.095 2.218-3.806 4.193-4.74zM9.893 8.097c0.281 0.537 0.558 1.116 0.831 1.703-4.192 0.919-6.155 3.671-6.94 5.179-1.1-1.37-1.785-3.086-1.785-4.979 0-0.354 0.032-0.699 0.077-1.040 1.577 0.219 4.369 0.304 7.816-0.863zM11.417 11.414c0.748 1.829 1.405 3.81 1.788 5.908-0.983 0.431-2.064 0.679-3.206 0.679-1.898 0-3.618-0.69-4.99-1.793 1.986-2.761 4.288-4.154 6.407-4.794zM14.637 16.498c-0.101-0.572-0.538-2.712-1.573-5.452 2.423-0.359 4.346 0.115 4.817 0.251-0.353 2.139-1.55 3.989-3.243 5.2zM12.46 9.552c-0.291-0.675-0.603-1.365-0.968-2.075 1.448-0.626 2.986-1.482 4.579-2.632 1.187 1.395 1.93 3.18 1.93 5.155-2.134-0.474-3.96-0.577-5.541-0.448z" fill="#ffffff" />
</svg>
