<?xml version="1.0" encoding="utf-8"?>
<!-- Generated by IcoMoon.io -->
<!DOCTYPE svg PUBLIC "-//W3C//DTD SVG 1.1//EN" "http://www.w3.org/Graphics/SVG/1.1/DTD/svg11.dtd">
<svg version="1.1" xmlns="http://www.w3.org/2000/svg" xmlns:xlink="http://www.w3.org/1999/xlink" width="20" height="20" viewBox="0 0 20 20">
	<path d="M14.954 4.421c-0.134 0.191-1.259 1.704-3.917 2.7-1.225-2.25-2.582-4.099-2.789-4.375 0.562-0.135 1.148-0.208 1.751-0.208 1.899 0 3.635 0.712 4.954 1.883zM10.522 10.077c-3.855 1.246-5.906 4.642-6.075 4.932-1.194-1.325-1.921-3.078-1.921-4.997 0-0.076 0.002-0.153 0.004-0.228 0.327 0.007 3.949 0.053 7.681-1.064 0.214 0.419 0.418 0.844 0.606 1.268-0.099 0.028-0.197 0.057-0.295 0.089zM10 0c-5.523 0-10 4.477-10 10s4.477 10 10 10 10-4.477 10-10-4.477-10-10-10zM10 18.75c-4.825 0-8.75-3.925-8.75-8.75 0-4.825 3.925-8.75 8.75-8.75 4.825 0 8.75 3.925 8.75 8.75 0 4.825-3.925 8.75-8.75 8.75zM12.108 9.314c-0.155-0.364-0.322-0.727-0.496-1.083 2.763-1.128 4.016-2.734 4.173-2.947 1.041 1.272 1.671 2.892 1.688 4.656-0.246-0.052-2.717-0.553-5.204-0.241-0.052-0.128-0.106-0.257-0.161-0.386zM9.594 7.57c-3.496 0.928-6.575 0.915-6.909 0.911 0.485-2.319 2.048-4.247 4.139-5.233 0.197 0.27 1.533 2.121 2.771 4.322zM11.276 11.24c0.016-0.006 0.033-0.011 0.049-0.017 1.049 2.727 1.483 5.012 1.594 5.668-0.897 0.382-1.884 0.594-2.919 0.594-1.728 0-3.32-0.59-4.588-1.578 0.134-0.275 1.648-3.198 5.863-4.667zM12.724 10.878c2.342-0.375 4.4 0.239 4.655 0.32-0.333 2.080-1.527 3.876-3.204 5.009-0.077-0.455-0.474-2.642-1.452-5.329z" fill="#ffffff" />
</svg>
