<?xml version="1.0" encoding="utf-8"?>
<!-- Generated by IcoMoon.io -->
<!DOCTYPE svg PUBLIC "-//W3C//DTD SVG 1.1//EN" "http://www.w3.org/Graphics/SVG/1.1/DTD/svg11.dtd">
<svg version="1.1" xmlns="http://www.w3.org/2000/svg" xmlns:xlink="http://www.w3.org/1999/xlink" width="20" height="20" viewBox="0 0 20 20">
	<path d="M10.203 0.561c-0.026-0.214-0.38-0.214-0.406 0-0.883 7.108-5.397 8.573-5.397 13.513 0 3.051 2.563 5.525 5.6 5.525 3.037 0 5.6-2.475 5.6-5.525 0-4.94-4.514-6.405-5.397-13.513zM9.351 8.418c-0.060 0.219-0.123 0.445-0.188 0.677-0.401 1.424-0.856 3.039-0.856 4.906 0 1.012-0.598 1.371-1.157 1.371-0.638 0-1.156-0.521-1.156-1.166 0-2.207 1.063-3.648 2.001-4.92 0.294-0.398 0.571-0.774 0.797-1.15 0.103-0.171 0.381-0.164 0.507 0.006 0.057 0.082 0.077 0.182 0.052 0.276z" fill="#ffffff" />
</svg>
