<?xml version="1.0" encoding="utf-8"?>
<!-- Generated by IcoMoon.io -->
<!DOCTYPE svg PUBLIC "-//W3C//DTD SVG 1.1//EN" "http://www.w3.org/Graphics/SVG/1.1/DTD/svg11.dtd">
<svg version="1.1" xmlns="http://www.w3.org/2000/svg" xmlns:xlink="http://www.w3.org/1999/xlink" width="20" height="20" viewBox="0 0 20 20">
	<path d="M17.499 12.373c-0-0.014-0.001-0.027-0.001-0.041-0.001-0.028-0.001-0.056-0.002-0.084-0.196-6.165-7.496-12.248-7.496-12.248s-7.3 6.083-7.496 12.248c-0.001 0.028-0.002 0.056-0.002 0.084-0 0.014-0.001 0.027-0.001 0.041-0.001 0.042-0.001 0.084-0.001 0.127 0 0.046 0.001 0.092 0.001 0.138 0 0.004 0 0.008 0 0.011 0.080 4.073 3.406 7.35 7.498 7.35 4.092 0 7.419-3.277 7.498-7.35 0-0.004 0-0.008 0-0.011 0.001-0.046 0.001-0.092 0.001-0.138 0-0.042-0-0.085-0.001-0.127zM14.999 12.593l-0 0.008c-0.026 1.314-0.557 2.546-1.497 3.468-0.94 0.923-2.184 1.432-3.502 1.432-0.243 0-0.484-0.017-0.721-0.052 2.716-1.618 4.535-4.584 4.535-7.975 0-0.38-0.023-0.755-0.067-1.123 0.787 1.444 1.212 2.789 1.25 3.977l0 0.003c0.001 0.019 0.001 0.037 0.002 0.056l0.001 0.028c0.001 0.028 0.001 0.057 0.001 0.086 0 0.031-0 0.062-0.001 0.093z" fill="#ffffff" />
</svg>
