<?xml version="1.0" encoding="utf-8"?>
<!-- Generated by IcoMoon.io -->
<!DOCTYPE svg PUBLIC "-//W3C//DTD SVG 1.1//EN" "http://www.w3.org/Graphics/SVG/1.1/DTD/svg11.dtd">
<svg version="1.1" xmlns="http://www.w3.org/2000/svg" xmlns:xlink="http://www.w3.org/1999/xlink" width="20" height="20" viewBox="0 0 20 20">
	<path d="M6.109 0.902l-5.709 3.556 3.911 3.279 5.689-3.695-3.891-3.14zM13.452 15.994c-0.102 0-0.203-0.035-0.285-0.104l-3.167-2.626-3.167 2.627c-0.082 0.068-0.184 0.104-0.285 0.104-0.085 0-0.17-0.023-0.244-0.072l-2.346-1.535v0.906l6.042 3.804 6.042-3.805v-0.906l-2.346 1.535c-0.074 0.049-0.159 0.072-0.244 0.072zM19.6 4.458l-5.709-3.556-3.891 3.14 5.688 3.694 3.912-3.278zM10 11.291l3.527 2.928 5.642-3.688-3.48-2.794-5.689 3.554zM6.473 14.219l3.527-2.928-5.688-3.555-3.48 2.795 5.641 3.688z" fill="#ffffff" />
</svg>
