<?xml version="1.0" encoding="utf-8"?>
<!-- Generated by IcoMoon.io -->
<!DOCTYPE svg PUBLIC "-//W3C//DTD SVG 1.1//EN" "http://www.w3.org/Graphics/SVG/1.1/DTD/svg11.dtd">
<svg version="1.1" xmlns="http://www.w3.org/2000/svg" xmlns:xlink="http://www.w3.org/1999/xlink" width="30" height="30" viewBox="0 0 30 30">
	<path d="M26.248 18.56c-0-0.021-0.001-0.041-0.001-0.062-0.001-0.042-0.002-0.084-0.003-0.125-0.294-9.248-11.244-18.373-11.244-18.373s-10.95 9.125-11.244 18.373c-0.001 0.042-0.003 0.084-0.004 0.125-0 0.021-0.001 0.041-0.001 0.062-0.001 0.063-0.002 0.127-0.002 0.19 0 0.069 0.001 0.138 0.002 0.207 0 0.006 0 0.011 0 0.017 0.119 6.109 5.109 11.025 11.247 11.025 6.138 0 11.128-4.916 11.248-11.025 0-0.006 0-0.011 0-0.017 0.001-0.069 0.002-0.138 0.002-0.207 0-0.064-0.001-0.127-0.002-0.19zM22.499 18.889l-0 0.012c-0.039 1.971-0.836 3.818-2.245 5.202-1.41 1.385-3.276 2.148-5.253 2.148-0.365 0-0.726-0.026-1.082-0.077 4.074-2.427 6.803-6.876 6.803-11.963 0-0.57-0.035-1.132-0.101-1.684 1.18 2.166 1.818 4.184 1.875 5.966l0 0.004c0.001 0.028 0.002 0.055 0.002 0.083l0.001 0.042c0.001 0.043 0.001 0.085 0.001 0.128 0 0.046-0.001 0.093-0.001 0.139z" fill="#ffffff" />
</svg>
