<?xml version="1.0" encoding="utf-8"?>
<!-- Generated by IcoMoon.io -->
<!DOCTYPE svg PUBLIC "-//W3C//DTD SVG 1.1//EN" "http://www.w3.org/Graphics/SVG/1.1/DTD/svg11.dtd">
<svg version="1.1" xmlns="http://www.w3.org/2000/svg" xmlns:xlink="http://www.w3.org/1999/xlink" width="20" height="20" viewBox="0 0 20 20">
	<path d="M10 0.399c-5.294 0-9.6 4.308-9.6 9.601 0 5.294 4.306 9.601 9.6 9.601s9.6-4.307 9.6-9.601c0-5.293-4.306-9.601-9.6-9.601zM18.188 10c0 1.873-0.636 3.601-1.696 4.981-0.3-0.235-0.618-0.868-0.318-1.524 0.302-0.66 0.381-2.188 0.312-2.782-0.066-0.594-0.375-2.026-1.215-2.040-0.837-0.013-1.412-0.289-1.91-1.283-1.033-2.067 1.939-2.465 0.906-3.61-0.289-0.321-1.783 1.324-2.002-0.868-0.015-0.157 0.135-0.392 0.335-0.635 3.244 1.090 5.588 4.156 5.588 7.761zM8.875 1.894c-0.195 0.38-0.712 0.536-1.027 0.823-0.683 0.618-0.977 0.533-1.346 1.127-0.37 0.594-1.566 1.449-1.566 1.879 0 0.429 0.604 0.937 0.906 0.838 0.302-0.1 1.098-0.094 1.566 0.070 0.469 0.166 3.915 0.331 2.816 3.244-0.348 0.926-1.872 0.77-2.278 2.304-0.061 0.225-0.271 1.186-0.286 1.5-0.024 0.486 0.344 2.318-0.125 2.318-0.471 0-1.737-1.639-1.737-1.936s-0.329-1.339-0.329-2.23-1.517-0.877-1.517-2.062c0-1.070 0.823-1.602 0.638-2.113-0.182-0.51-1.627-0.528-2.229-0.59 1.052-2.732 3.529-4.76 6.514-5.172zM7.425 17.77c0.492-0.259 0.542-0.595 0.988-0.613 0.51-0.022 0.925-0.199 1.499-0.325 0.511-0.111 1.423-0.629 2.228-0.695 0.677-0.056 2.015 0.035 2.375 0.689-1.296 0.86-2.848 1.362-4.515 1.362-0.9 0-1.765-0.148-2.575-0.418z" fill="#ffffff" />
</svg>
