<?xml version="1.0" encoding="utf-8"?>
<!-- Generated by IcoMoon.io -->
<!DOCTYPE svg PUBLIC "-//W3C//DTD SVG 1.1//EN" "http://www.w3.org/Graphics/SVG/1.1/DTD/svg11.dtd">
<svg version="1.1" xmlns="http://www.w3.org/2000/svg" xmlns:xlink="http://www.w3.org/1999/xlink" width="20" height="20" viewBox="0 0 20 20">
	<path d="M17.071 2.929c1.889 1.889 2.929 4.4 2.929 7.071s-1.040 5.182-2.929 7.071c-1.889 1.889-4.4 2.929-7.071 2.929-2.671 0-5.182-1.040-7.071-2.929-1.889-1.889-2.929-4.4-2.929-7.071 0-2.671 1.040-5.182 2.929-7.071 1.889-1.889 4.4-2.929 7.071-2.929 2.671 0 5.182 1.040 7.071 2.929zM16.187 16.187c1.232-1.232 2.051-2.766 2.388-4.435-0.263 0.387-0.515 0.531-0.671-0.336-0.161-1.414-1.459-0.511-2.276-1.013-0.859 0.579-2.791-1.126-2.463 0.797 0.507 0.868 2.735-1.161 1.624 0.675-0.708 1.282-2.591 4.12-2.346 5.591 0.031 2.143-2.19 0.447-2.955-0.264-0.515-1.424-0.175-3.914-1.521-4.611-1.461-0.063-2.715-0.196-3.281-1.829-0.341-1.169 0.363-2.908 1.615-3.177 1.833-1.152 2.488 1.349 4.207 1.395 0.534-0.558 1.989-0.736 2.109-1.362-1.128-0.199 1.431-0.948-0.108-1.375-0.849 0.1-1.396 0.88-0.945 1.542-1.645 0.384-1.698-2.381-3.279-1.509-0.040 1.379-2.582 0.447-0.88 0.167 0.585-0.256-0.954-0.996-0.123-0.862 0.409-0.022 1.784-0.504 1.412-0.828 0.766-0.475 1.409 1.138 2.159-0.037 0.541-0.904-0.227-1.070-0.905-0.612-0.382-0.428 0.675-1.353 1.608-1.753 0.311-0.133 0.608-0.206 0.835-0.185 0.47 0.543 1.339 0.637 1.384-0.065-1.164-0.557-2.447-0.852-3.775-0.852-1.907 0-3.72 0.606-5.221 1.726 0.403 0.185 0.632 0.415 0.244 0.709-0.302 0.899-1.527 2.107-2.602 1.936-0.558 0.963-0.926 2.024-1.083 3.135 0.901 0.298 1.108 0.888 0.915 1.085-0.459 0.4-0.741 0.967-0.886 1.588 0.293 1.794 1.136 3.447 2.447 4.757 1.653 1.653 3.85 2.563 6.187 2.563 2.337 0 4.535-0.91 6.187-2.563z" fill="#ffffff" />
</svg>
