<?xml version="1.0" encoding="utf-8"?>
<!-- Generated by IcoMoon.io -->
<!DOCTYPE svg PUBLIC "-//W3C//DTD SVG 1.1//EN" "http://www.w3.org/Graphics/SVG/1.1/DTD/svg11.dtd">
<svg version="1.1" xmlns="http://www.w3.org/2000/svg" xmlns:xlink="http://www.w3.org/1999/xlink" width="20" height="20" viewBox="0 0 20 20">
	<path d="M18.125 2.5h-16.25c-1.031 0-1.875 0.844-1.875 1.875v12.5c0 1.031 0.844 1.875 1.875 1.875h16.25c1.031 0 1.875-0.844 1.875-1.875v-12.5c0-1.031-0.844-1.875-1.875-1.875zM7.788 10.749l-5.288 4.119v-9.798l5.288 5.679zM3.445 5h13.11l-6.555 4.922-6.555-4.922zM7.994 10.971l2.006 2.154 2.006-2.154 4.112 5.279h-12.237l4.112-5.279zM12.212 10.749l5.288-5.679v9.798l-5.288-4.119z" fill="#ffffff" />
</svg>
