<?xml version="1.0" encoding="utf-8"?>
<!-- Generated by IcoMoon.io -->
<!DOCTYPE svg PUBLIC "-//W3C//DTD SVG 1.1//EN" "http://www.w3.org/Graphics/SVG/1.1/DTD/svg11.dtd">
<svg version="1.1" xmlns="http://www.w3.org/2000/svg" xmlns:xlink="http://www.w3.org/1999/xlink" width="20" height="20" viewBox="0 0 20 20">
	<path d="M17.5 8.75h0.313c0.516 0 0.938-0.422 0.938-0.938v-3.125c0-0.516-0.422-0.938-0.938-0.938h-0.313v-3.75h-2.5v3.75h-0.313c-0.516 0-0.938 0.422-0.938 0.938v3.125c0 0.516 0.422 0.938 0.938 0.938h0.313v11.25h2.5v-11.25zM15 5h2.5v2.5h-2.5v-2.5zM11.563 16.25c0.516 0 0.938-0.422 0.938-0.938v-3.125c0-0.516-0.422-0.938-0.938-0.938h-0.313v-11.25h-2.5v11.25h-0.313c-0.516 0-0.938 0.422-0.938 0.938v3.125c0 0.516 0.422 0.938 0.938 0.938h0.313v3.75h2.5v-3.75h0.313zM8.75 12.5h2.5v2.5h-2.5v-2.5zM5.313 8.75c0.516 0 0.938-0.422 0.938-0.938v-3.125c0-0.516-0.422-0.938-0.938-0.938h-0.313v-3.75h-2.5v3.75h-0.313c-0.516 0-0.938 0.422-0.938 0.938v3.125c0 0.516 0.422 0.938 0.938 0.938h0.313v11.25h2.5v-11.25h0.313zM2.5 5h2.5v2.5h-2.5v-2.5z" fill="#ffffff" />
</svg>
