<?xml version="1.0" encoding="utf-8"?>
<!-- Generated by IcoMoon.io -->
<!DOCTYPE svg PUBLIC "-//W3C//DTD SVG 1.1//EN" "http://www.w3.org/Graphics/SVG/1.1/DTD/svg11.dtd">
<svg version="1.1" xmlns="http://www.w3.org/2000/svg" xmlns:xlink="http://www.w3.org/1999/xlink" width="20" height="20" viewBox="0 0 20 20">
	<path d="M18 3h-9.554c-0.44 0-1.071 0.237-1.402 0.527l-6.796 5.946c-0.331 0.29-0.331 0.764 0 1.054l6.796 5.947c0.331 0.289 0.962 0.526 1.402 0.526h9.554c1.101 0 2-0.9 2-2v-10c0-1.1-0.899-2-2-2zM15.191 14l-2.557-2.557-2.555 2.557-1.444-1.443 2.556-2.557-2.556-2.556 1.444-1.444 2.556 2.556 2.556-2.556 1.443 1.444-2.555 2.556 2.556 2.556-1.444 1.444z" fill="#ffffff" />
</svg>
