<?xml version="1.0" encoding="utf-8"?>
<!-- Generated by IcoMoon.io -->
<!DOCTYPE svg PUBLIC "-//W3C//DTD SVG 1.1//EN" "http://www.w3.org/Graphics/SVG/1.1/DTD/svg11.dtd">
<svg version="1.1" xmlns="http://www.w3.org/2000/svg" xmlns:xlink="http://www.w3.org/1999/xlink" width="20" height="20" viewBox="0 0 20 20">
	<path d="M17.339 4.308c0-1.15-1.732-1.278-1.732-1.278l-4.069-0.256c0 0-0.087-1.108-0.91-1.492-0.822-0.383-1.726-0.267-2.375-0.26s-0.804 0.836-0.804 1.618 0.015 1.682 0.015 2.25c0 1.016-0.447 1.449-1.566 1.449h-2.307c-0.645-0.042-1.148 0.064-1.148 0.586 0 0.521 0.76 4.972 1.802 5.999 0.605 0.596 4.304 1.014 5.083 1.014s0.52-2.301 0.736-2.301 0.455 1.3 1.682 1.604c1.227 0.306 2.865 0.249 2.952 1.122 0.113 1.152 0.216 2.643-0.542 2.749l-1.715 0.068c-1.176-0.085-0.861-1.369-0.342-1.369s0.779-0.021 0.779-0.021l0.065-1.406c0 0-2.693-0.318-2.808 1.499-0.104 1.66 0.181 2.443 0.39 2.613 0.21 0.172 0.572 0.504 3.87 0.504 4.647 0 2.944-13.543 2.944-14.692zM15.44 10.321c-0.182 0.194-0.842-0.321-1.472-0.321-0.631 0-1.312 0.334-1.472 0.115-0.159-0.22 0.147-1.992 1.335-1.992s1.792 2.003 1.609 2.198zM5.803 4.166c0-0.227 0.059-2.984 0.059-2.984l-3.506 3.439c0 0 2.422 0 2.897 0 0.477 0 0.55-0.227 0.55-0.455z" fill="#ffffff" />
</svg>
