<?xml version="1.0" encoding="utf-8"?>
<!-- Generated by IcoMoon.io -->
<!DOCTYPE svg PUBLIC "-//W3C//DTD SVG 1.1//EN" "http://www.w3.org/Graphics/SVG/1.1/DTD/svg11.dtd">
<svg version="1.1" xmlns="http://www.w3.org/2000/svg" xmlns:xlink="http://www.w3.org/1999/xlink" width="20" height="20" viewBox="0 0 20 20">
	<path d="M20 1.25c0-0.889-0.186-1.734-0.521-2.5-0.656 1.501-1.884 2.694-3.408 3.304-1.683-1.288-3.788-2.054-6.071-2.054s-4.388 0.766-6.071 2.054c-1.524-0.61-2.752-1.804-3.408-3.304-0.335 0.766-0.521 1.611-0.521 2.5 0 1.437 0.485 2.76 1.301 3.816-0.828 1.456-1.301 3.14-1.301 4.934 0 5.523 4.477 10 10 10s10-4.477 10-10c0-1.794-0.473-3.478-1.301-4.934 0.815-1.056 1.301-2.379 1.301-3.816zM11.252 7.432c0.040-0.927 0.883-1.542 1.594-1.897 0.679-0.339 1.35-0.509 1.378-0.516 0.335-0.084 0.674 0.12 0.758 0.455 0.084 0.335-0.12 0.674-0.455 0.758-0.344 0.087-0.752 0.237-1.112 0.417 0.208 0.223 0.335 0.523 0.335 0.852 0 0.69-0.56 1.25-1.25 1.25s-1.25-0.56-1.25-1.25c0-0.023 0.001-0.046 0.002-0.068zM5.019 5.473c0.084-0.335 0.423-0.539 0.758-0.455 0.028 0.007 0.699 0.177 1.378 0.516 0.711 0.355 1.554 0.97 1.594 1.897 0.001 0.023 0.002 0.045 0.002 0.068 0 0.69-0.56 1.25-1.25 1.25s-1.25-0.56-1.25-1.25c0-0.329 0.127-0.628 0.335-0.852-0.36-0.18-0.768-0.33-1.112-0.417-0.335-0.084-0.538-0.423-0.455-0.758zM10 16.25c-2.276 0-4.267-1.216-5.36-3.034l1.608-0.965c0.765 1.272 2.159 2.124 3.752 2.124 1.593 0 2.987-0.851 3.752-2.124l1.608 0.965c-1.093 1.818-3.084 3.034-5.36 3.034z" fill="#ffffff" />
</svg>
