<?xml version="1.0" encoding="utf-8"?>
<!-- Generated by IcoMoon.io -->
<!DOCTYPE svg PUBLIC "-//W3C//DTD SVG 1.1//EN" "http://www.w3.org/Graphics/SVG/1.1/DTD/svg11.dtd">
<svg version="1.1" xmlns="http://www.w3.org/2000/svg" xmlns:xlink="http://www.w3.org/1999/xlink" width="20" height="20" viewBox="0 0 20 20">
	<path d="M6.968 11.243l-4.113 4.113-1.605-1.605c-0.691 0-1.25 0.559-1.25 1.25v3.75c0 0.691 0.559 1.25 1.25 1.25h3.75c0.691 0 1.25-0.559 1.25-1.25l-1.605-1.604 4.113-4.114-1.79-1.79zM18.75 0h-3.75c-0.691 0-1.25 0.56-1.25 1.25l1.605 1.605-4.113 4.113 1.79 1.79 4.113-4.112 1.605 1.605c0.691 0 1.25-0.559 1.25-1.25v-3.75c0-0.69-0.559-1.25-1.25-1.25zM18.75 13.75l-1.605 1.605-4.113-4.113-1.79 1.79 4.113 4.114-1.605 1.604c0 0.691 0.559 1.25 1.25 1.25h3.75c0.691 0 1.25-0.559 1.25-1.25v-3.75c0-0.691-0.559-1.25-1.25-1.25zM6.25 1.25c0-0.69-0.559-1.25-1.25-1.25h-3.75c-0.691 0-1.25 0.56-1.25 1.25v3.75c0 0.691 0.559 1.25 1.25 1.25l1.605-1.605 4.113 4.112 1.79-1.79-4.113-4.113 1.605-1.605z" fill="#ffffff" />
</svg>
