<?xml version="1.0" encoding="utf-8"?>
<!-- Generated by IcoMoon.io -->
<!DOCTYPE svg PUBLIC "-//W3C//DTD SVG 1.1//EN" "http://www.w3.org/Graphics/SVG/1.1/DTD/svg11.dtd">
<svg version="1.1" xmlns="http://www.w3.org/2000/svg" xmlns:xlink="http://www.w3.org/1999/xlink" width="20" height="20" viewBox="0 0 20 20">
	<path d="M16.393 5.789c1.516 1.075 2.761 2.521 3.607 4.211-1.858 3.71-5.638 6.25-10 6.25-1.222 0-2.398-0.199-3.5-0.568l1.523-1.523c0.646 0.143 1.308 0.216 1.977 0.216 1.749 0 3.454-0.498 4.931-1.44 1.175-0.75 2.171-1.753 2.919-2.936-0.724-1.144-1.68-2.12-2.806-2.861l1.349-1.349zM10 13.633c-0.444 0-0.874-0.058-1.284-0.167l6.117-6.117c0.109 0.41 0.167 0.84 0.167 1.284 0 2.761-2.239 5-5 5zM18.75 0h-1.050l-4.289 4.289c-1.076-0.35-2.222-0.539-3.411-0.539-4.362 0-8.142 2.54-10 6.25 0.833 1.664 2.053 3.092 3.539 4.161l-3.539 3.539v1.050h1.050l17.7-17.7v-1.050zM8.125 6.133c0.938 0 1.716 0.689 1.853 1.589l-2.139 2.139c-0.9-0.138-1.589-0.915-1.589-1.853 0-1.036 0.839-1.875 1.875-1.875zM2.151 10c0.748-1.182 1.744-2.186 2.919-2.935 0.077-0.049 0.154-0.096 0.232-0.143-0.194 0.534-0.301 1.11-0.301 1.711 0 1.143 0.384 2.196 1.029 3.038l-1.144 1.144c-1.095-0.735-2.026-1.695-2.735-2.815z" fill="#ffffff" />
</svg>
