<?xml version="1.0" encoding="utf-8"?>
<!-- Generated by IcoMoon.io -->
<!DOCTYPE svg PUBLIC "-//W3C//DTD SVG 1.1//EN" "http://www.w3.org/Graphics/SVG/1.1/DTD/svg11.dtd">
<svg version="1.1" xmlns="http://www.w3.org/2000/svg" xmlns:xlink="http://www.w3.org/1999/xlink" width="20" height="20" viewBox="0 0 20 20">
	<path d="M10 6.25c-4.089 0-7.72 1.964-10 5 2.28 3.036 5.911 5 10 5 4.089 0 7.72-1.964 10-5-2.28-3.036-5.911-5-10-5zM8.75 8.75c0.69 0 1.25 0.56 1.25 1.25s-0.56 1.25-1.25 1.25-1.25-0.56-1.25-1.25 0.56-1.25 1.25-1.25zM15.11 13.775c-0.774 0.396-1.595 0.7-2.438 0.906-0.869 0.212-1.768 0.319-2.671 0.319-0.904 0-1.802-0.107-2.671-0.319-0.844-0.205-1.664-0.51-2.438-0.906-1.231-0.629-2.348-1.492-3.274-2.525 0.926-1.033 2.043-1.896 3.274-2.525 0.632-0.323 1.294-0.585 1.974-0.782-0.388 0.591-0.615 1.298-0.615 2.057 0 2.071 1.679 3.75 3.75 3.75 2.071 0 3.75-1.679 3.75-3.75 0-0.76-0.226-1.467-0.615-2.057 0.68 0.197 1.343 0.459 1.974 0.782 1.231 0.629 2.348 1.492 3.274 2.525-0.926 1.033-2.043 1.896-3.274 2.525zM16.815 4.76c-2.123-1.085-4.416-1.635-6.815-1.635-2.399 0-4.691 0.55-6.815 1.635-1.148 0.587-2.221 1.326-3.185 2.189v2.133c1.081-1.144 2.357-2.105 3.754-2.818 1.946-0.994 4.047-1.498 6.246-1.498s4.301 0.504 6.246 1.498c1.397 0.714 2.673 1.674 3.754 2.818v-2.133c-0.964-0.863-2.037-1.602-3.185-2.189z" fill="#ffffff" />
</svg>
