<?xml version="1.0" encoding="utf-8"?>
<!-- Generated by IcoMoon.io -->
<!DOCTYPE svg PUBLIC "-//W3C//DTD SVG 1.1//EN" "http://www.w3.org/Graphics/SVG/1.1/DTD/svg11.dtd">
<svg version="1.1" xmlns="http://www.w3.org/2000/svg" xmlns:xlink="http://www.w3.org/1999/xlink" width="20" height="20" viewBox="0 0 20 20">
	<path d="M19.978 9.86c-0.006-0.026-0.002-0.054-0.012-0.080-0.004-0.011-0.013-0.016-0.017-0.026-0.006-0.015-0.005-0.032-0.013-0.046-1.812-3.469-5.758-5.955-9.921-5.955-4.163 0-8.108 2.482-9.922 5.951-0.008 0.014-0.007 0.031-0.013 0.046-0.004 0.010-0.013 0.016-0.017 0.026-0.010 0.026-0.006 0.054-0.012 0.080-0.011 0.047-0.022 0.092-0.022 0.14s0.011 0.093 0.022 0.14c0.006 0.026 0.003 0.054 0.012 0.080 0.004 0.011 0.013 0.016 0.017 0.026 0.006 0.015 0.005 0.032 0.013 0.046 1.813 3.469 5.759 5.955 9.922 5.955 4.162 0 8.108-2.482 9.921-5.951 0.009-0.014 0.008-0.031 0.013-0.046 0.004-0.010 0.013-0.016 0.017-0.026 0.010-0.026 0.006-0.054 0.012-0.080 0.011-0.048 0.022-0.093 0.022-0.14s-0.011-0.093-0.022-0.14zM10.014 14.992c-3.509 0-6.945-1.994-8.657-4.997 1.721-3.006 5.152-4.994 8.657-4.994 3.508 0 6.944 1.995 8.656 4.997-1.721 3.007-5.151 4.994-8.656 4.994zM10.014 7.499c0.173 0 0.311 0.139 0.311 0.313 0 0.172-0.139 0.312-0.311 0.312v0.001c-1.034 0-1.874 0.841-1.874 1.873 0 0.173-0.14 0.313-0.312 0.313-0.173 0-0.313-0.14-0.313-0.313 0-1.378 1.117-2.495 2.495-2.498 0.001 0 0.003-0.001 0.004-0.001zM10 5.625c-2.417 0-4.375 1.959-4.375 4.375s1.959 4.375 4.375 4.375c2.416 0 4.375-1.959 4.375-4.375 0-2.417-1.959-4.375-4.375-4.375zM10 13.75c-2.068 0-3.75-1.682-3.75-3.75s1.682-3.75 3.75-3.75c2.068 0 3.75 1.682 3.75 3.75 0 2.068-1.682 3.75-3.75 3.75z" fill="#ffffff" />
</svg>
