<?xml version="1.0" encoding="utf-8"?>
<!-- Generated by IcoMoon.io -->
<!DOCTYPE svg PUBLIC "-//W3C//DTD SVG 1.1//EN" "http://www.w3.org/Graphics/SVG/1.1/DTD/svg11.dtd">
<svg version="1.1" xmlns="http://www.w3.org/2000/svg" xmlns:xlink="http://www.w3.org/1999/xlink" width="20" height="20" viewBox="0 0 20 20">
	<path d="M16.667 0h-13.333c-1.833 0-3.334 1.5-3.334 3.334v13.333c0 1.835 1.5 3.334 3.334 3.334l13.333-0c1.834 0 3.333-1.499 3.333-3.334v-13.332c0-1.833-1.5-3.334-3.333-3.334zM17.004 10h-3.254v8.75h-3.75v-8.75h-1.807v-2.863h1.807v-1.859c0-2.526 1.090-4.028 4.060-4.028h3.423v3.097h-2.796c-0.83-0.001-0.933 0.433-0.933 1.24l-0.005 1.55h3.75l-0.496 2.863z" fill="#ffffff" />
</svg>
