<?xml version="1.0" encoding="utf-8"?>
<!-- Generated by IcoMoon.io -->
<!DOCTYPE svg PUBLIC "-//W3C//DTD SVG 1.1//EN" "http://www.w3.org/Graphics/SVG/1.1/DTD/svg11.dtd">
<svg version="1.1" xmlns="http://www.w3.org/2000/svg" xmlns:xlink="http://www.w3.org/1999/xlink" width="20" height="20" viewBox="0 0 20 20">
	<path d="M16.922 1.665c-0.699-0.385-2.625-1.334-3.882-1.594-1.305-0.271-3.247 4.825-3.865 4.848-1.001 0.036-0.122-3.479 0.83-4.918-1.485 0.992-4.123 2.323-4.741 3.854-1.193 2.959 2.212 8.285 0.395 8.591-0.566 0.095-2.135-3.673-2.542-4.822-1.151 2.2-0.284 4.259 0.667 6.832v0.16c-0.036 0.139-0.068 0.272-0.101 0.408h0.101v3.733c0 0.688 0.557 1.244 1.244 1.244 0.688 0 1.244-0.557 1.244-1.244v-3.773c2.322-0.261 3.415 0.5 5.006-2.516-0.971 0.402-2.909-0.822-2.507-1.4 0.808-1.163 4.113 0.066 6.219-3.509-3.334 0.888-3.727-0.385-3.759-0.849-0.067-0.961 3.332-0.452 4.882-1.788 0.898-0.775 1.975-2.61 0.808-3.255z" fill="#ffffff" />
</svg>
