<?xml version="1.0" encoding="utf-8"?>
<!-- Generated by IcoMoon.io -->
<!DOCTYPE svg PUBLIC "-//W3C//DTD SVG 1.1//EN" "http://www.w3.org/Graphics/SVG/1.1/DTD/svg11.dtd">
<svg version="1.1" xmlns="http://www.w3.org/2000/svg" xmlns:xlink="http://www.w3.org/1999/xlink" width="20" height="20" viewBox="0 0 20 20">
	<path d="M4.254 19.762c0.306-1.001 0.77-2.411 1.391-4.451 2.706-0.437 3.826 0.349 5.545-2.784-1.395 0.436-3.077-0.809-2.986-1.348 0.090-0.54 3.913 0.389 6.415-3.238-3.154 0.709-4.164-0.853-3.757-1.089 0.939-0.545 3.727-0.226 5.213-1.703 0.766-0.76 1.124-2.609 0.813-3.269-0.375-0.796-2.657-1.984-3.915-1.873-1.258 0.112-3.231 4.889-3.816 4.851s-0.702-2.139 0.319-4.093c-1.077 0.486-3.050 1.999-3.669 3.292-1.153 2.406 0.108 7.923-0.296 8.12-0.405 0.196-1.766-2.533-2.172-3.77-0.555 1.896-0.568 3.796 1.054 6.32-0.612 1.656-0.946 3.562-0.997 4.531-0.024 0.776 0.723 0.942 0.858 0.504z" fill="#ffffff" />
</svg>
