<?xml version="1.0" encoding="utf-8"?>
<!-- Generated by IcoMoon.io -->
<!DOCTYPE svg PUBLIC "-//W3C//DTD SVG 1.1//EN" "http://www.w3.org/Graphics/SVG/1.1/DTD/svg11.dtd">
<svg version="1.1" xmlns="http://www.w3.org/2000/svg" xmlns:xlink="http://www.w3.org/1999/xlink" width="20" height="20" viewBox="0 0 20 20">
	<path d="M16.667 0h-13.333c-1.834 0-3.334 1.5-3.334 3.334v13.333c0 1.835 1.5 3.334 3.334 3.334h13.333c1.834 0 3.333-1.499 3.333-3.334v-13.333c0-1.834-1.5-3.334-3.333-3.334zM5.448 16.235c-0.937 0-1.698-0.756-1.698-1.692 0-0.931 0.761-1.696 1.698-1.696 0.941 0 1.7 0.764 1.7 1.696-0 0.936-0.76 1.692-1.7 1.692zM9.716 16.25c0-1.598-0.621-3.102-1.747-4.227-1.127-1.128-2.625-1.751-4.217-1.751v-2.445c4.642 0 8.42 3.778 8.42 8.423l-2.456 0zM14.055 16.25c0-5.685-4.622-10.311-10.3-10.311v-2.446c7.031 0 12.753 5.725 12.753 12.758l-2.453-0z" fill="#ffffff" />
</svg>
