<?xml version="1.0" encoding="utf-8"?>
<!-- Generated by IcoMoon.io -->
<!DOCTYPE svg PUBLIC "-//W3C//DTD SVG 1.1//EN" "http://www.w3.org/Graphics/SVG/1.1/DTD/svg11.dtd">
<svg version="1.1" xmlns="http://www.w3.org/2000/svg" xmlns:xlink="http://www.w3.org/1999/xlink" width="20" height="20" viewBox="0 0 20 20">
	<path d="M10 0c-5.523 0-10 4.477-10 10s4.477 10 10 10 10-4.477 10-10-4.477-10-10-10zM6.25 15c-0.69 0-1.25-0.56-1.25-1.25s0.56-1.25 1.25-1.25 1.25 0.56 1.25 1.25-0.56 1.25-1.25 1.25zM9.688 15c0-2.585-2.103-4.688-4.688-4.688v-1.875c3.619 0 6.563 2.944 6.563 6.563h-1.875zM13.438 15c0-2.254-0.878-4.373-2.471-5.966-1.594-1.594-3.712-2.471-5.966-2.471v-1.875c2.755 0 5.344 1.073 7.292 3.020 1.948 1.948 3.020 4.537 3.020 7.292h-1.875z" fill="#ffffff" />
</svg>
