<?xml version="1.0" encoding="utf-8"?>
<!-- Generated by IcoMoon.io -->
<!DOCTYPE svg PUBLIC "-//W3C//DTD SVG 1.1//EN" "http://www.w3.org/Graphics/SVG/1.1/DTD/svg11.dtd">
<svg version="1.1" xmlns="http://www.w3.org/2000/svg" xmlns:xlink="http://www.w3.org/1999/xlink" width="20" height="20" viewBox="0 0 20 20">
	<path d="M2.662 14.667c-1.469 0-2.662 1.198-2.662 2.658 0 1.468 1.193 2.652 2.662 2.652 1.474 0 2.666-1.185 2.666-2.652-0-1.46-1.192-2.658-2.666-2.658zM0.003 6.796v3.833c2.496 0 4.843 0.976 6.611 2.744 1.765 1.764 2.74 4.122 2.74 6.627h3.85c-0-7.282-5.923-13.204-13.2-13.204zM0.008 0v3.835c8.902 0 16.148 7.253 16.148 16.165h3.845c0-11.025-8.97-20-19.992-20z" fill="#ffffff" />
</svg>
