<?xml version="1.0" encoding="utf-8"?>
<!-- Generated by IcoMoon.io -->
<!DOCTYPE svg PUBLIC "-//W3C//DTD SVG 1.1//EN" "http://www.w3.org/Graphics/SVG/1.1/DTD/svg11.dtd">
<svg version="1.1" xmlns="http://www.w3.org/2000/svg" xmlns:xlink="http://www.w3.org/1999/xlink" width="20" height="20" viewBox="0 0 20 20">
	<path d="M13.481 9.213c-1.185-0.56-2.695-0.672-3.805 0.118 1.35-0.129 2.831 0.094 3.811 1.116 0.938-1.076 2.424-1.277 3.769-1.167-1.123-0.745-2.602-0.645-3.774-0.067zM13.001 11.831c-1.336-0.031-2.626 0.453-3.732 1.174-2.093-0.89-4.741-0.725-6.523 0.761 0.514-0.018 1.016-0.145 1.525-0.211 1.859-0.185 3.84 0.276 5.244 1.559 0.581-0.85 1.399-1.528 2.337-1.952 1.232-0.596 2.62-0.658 3.961-0.674-0.814-0.56-1.848-0.663-2.811-0.658zM17.645 3.895l-2.79-2.79c-0.608-0.608-1.808-1.105-2.667-1.105h-9.375c-0.859 0-1.563 0.703-1.563 1.563v16.875c0 0.859 0.703 1.563 1.563 1.563h14.375c0.859 0 1.563-0.703 1.563-1.563v-11.875c0-0.859-0.497-2.060-1.105-2.667zM16.761 4.779c0.061 0.061 0.122 0.136 0.181 0.221h-3.193v-3.192c0.085 0.059 0.16 0.12 0.221 0.181l2.79 2.79zM17.5 18.438c0 0.169-0.143 0.313-0.313 0.313h-14.375c-0.169 0-0.313-0.143-0.313-0.313v-16.875c0-0.169 0.143-0.313 0.313-0.313h9.375c0.094 0 0.2 0.012 0.313 0.033v4.967h4.967c0.021 0.112 0.033 0.218 0.033 0.313v11.875z" fill="#ffffff" />
</svg>
