<?xml version="1.0" encoding="utf-8"?>
<!-- Generated by IcoMoon.io -->
<!DOCTYPE svg PUBLIC "-//W3C//DTD SVG 1.1//EN" "http://www.w3.org/Graphics/SVG/1.1/DTD/svg11.dtd">
<svg version="1.1" xmlns="http://www.w3.org/2000/svg" xmlns:xlink="http://www.w3.org/1999/xlink" width="20" height="20" viewBox="0 0 20 20">
	<path d="M7.5 11.942v-2.231c0-0.295 0.131-0.575 0.368-0.787 0.238-0.212 0.551-0.329 0.882-0.329v-1.115c-1.375 0-2.5 1.004-2.5 2.231v1.673c0 0.308-0.28 0.558-0.625 0.558h-0.625v1.115h0.625c0.345 0 0.625 0.25 0.625 0.558v1.673c0 1.227 1.125 2.231 2.5 2.231v-1.115c-0.331 0-0.644-0.117-0.882-0.329-0.237-0.212-0.368-0.491-0.368-0.787v-2.231c0-0.308-0.28-0.558-0.625-0.558 0.345 0 0.625-0.25 0.625-0.558zM12.5 13.058v2.231c0 0.295-0.131 0.575-0.368 0.787-0.237 0.212-0.551 0.329-0.882 0.329v1.115c1.375 0 2.5-1.004 2.5-2.231v-1.673c0-0.308 0.28-0.558 0.625-0.558h0.625v-1.115h-0.625c-0.345 0-0.625-0.25-0.625-0.558v-1.673c0-1.227-1.125-2.231-2.5-2.231v1.115c0.331 0 0.644 0.117 0.882 0.329 0.238 0.212 0.368 0.491 0.368 0.787v2.231c0 0.308 0.28 0.558 0.625 0.558-0.345-0-0.625 0.25-0.625 0.558zM17.645 3.895l-2.79-2.79c-0.608-0.608-1.808-1.105-2.667-1.105h-9.375c-0.859 0-1.563 0.703-1.563 1.563v16.875c0 0.859 0.703 1.563 1.563 1.563h14.375c0.859 0 1.563-0.703 1.563-1.563v-11.875c0-0.859-0.497-2.060-1.105-2.667zM16.761 4.779c0.061 0.061 0.122 0.136 0.181 0.221h-3.193v-3.192c0.085 0.059 0.16 0.12 0.221 0.181l2.79 2.79zM17.5 18.438c0 0.169-0.143 0.313-0.313 0.313h-14.375c-0.169 0-0.313-0.143-0.313-0.313v-16.875c0-0.169 0.143-0.313 0.313-0.313h9.375c0.094 0 0.2 0.012 0.313 0.033v4.967h4.967c0.021 0.112 0.033 0.218 0.033 0.313v11.875z" fill="#ffffff" />
</svg>
