<?xml version="1.0" encoding="utf-8"?>
<!-- Generated by IcoMoon.io -->
<!DOCTYPE svg PUBLIC "-//W3C//DTD SVG 1.1//EN" "http://www.w3.org/Graphics/SVG/1.1/DTD/svg11.dtd">
<svg version="1.1" xmlns="http://www.w3.org/2000/svg" xmlns:xlink="http://www.w3.org/1999/xlink" width="20" height="20" viewBox="0 0 20 20">
	<path d="M17.424 3.674l-2.348-2.348c-0.729-0.729-2.17-1.326-3.201-1.326h-8.75c-1.031 0-1.875 0.844-1.875 1.875v16.25c0 1.031 0.844 1.875 1.875 1.875h13.75c1.031 0 1.875-0.844 1.875-1.875v-11.25c0-1.031-0.597-2.472-1.326-3.201zM12.5 2.648c0.043 0.016 0.087 0.033 0.132 0.051 0.353 0.146 0.598 0.316 0.676 0.394l2.348 2.348c0.078 0.078 0.248 0.323 0.394 0.676 0.019 0.045 0.036 0.089 0.051 0.132h-3.602v-3.602zM16.25 17.5h-12.5v-15h7.5v5h5v10z" fill="#ffffff" />
</svg>
