<?xml version="1.0" encoding="utf-8"?>
<!-- Generated by IcoMoon.io -->
<!DOCTYPE svg PUBLIC "-//W3C//DTD SVG 1.1//EN" "http://www.w3.org/Graphics/SVG/1.1/DTD/svg11.dtd">
<svg version="1.1" xmlns="http://www.w3.org/2000/svg" xmlns:xlink="http://www.w3.org/1999/xlink" width="20" height="20" viewBox="0 0 20 20">
	<path d="M10 0c-5.523 0-10 1.399-10 3.125v1.875l7.5 7.5v6.25c0 0.69 1.119 1.25 2.5 1.25 1.381 0 2.5-0.56 2.5-1.25v-6.25l7.5-7.5v-1.875c0-1.726-4.477-3.125-10-3.125zM1.843 2.711c0.468-0.267 1.125-0.52 1.9-0.732 1.718-0.47 3.94-0.729 6.257-0.729 2.317 0 4.539 0.259 6.257 0.729 0.775 0.212 1.432 0.465 1.9 0.732 0.308 0.176 0.475 0.325 0.553 0.414-0.078 0.089-0.244 0.238-0.553 0.414-0.468 0.267-1.125 0.52-1.9 0.732-1.718 0.47-3.94 0.729-6.257 0.729-2.317 0-4.539-0.259-6.257-0.729-0.775-0.212-1.432-0.465-1.9-0.732-0.308-0.176-0.475-0.325-0.553-0.414 0.078-0.089 0.244-0.238 0.553-0.414z" fill="#ffffff" />
</svg>
