<?xml version="1.0" encoding="utf-8"?>
<!-- Generated by IcoMoon.io -->
<!DOCTYPE svg PUBLIC "-//W3C//DTD SVG 1.1//EN" "http://www.w3.org/Graphics/SVG/1.1/DTD/svg11.dtd">
<svg version="1.1" xmlns="http://www.w3.org/2000/svg" xmlns:xlink="http://www.w3.org/1999/xlink" width="20" height="20" viewBox="0 0 20 20">
	<path d="M10.020 15c-2.584 0-5.111-0.378-7.541-1.127l0.395-1.186c2.303 0.706 4.697 1.063 7.146 1.063 0.319 0 0.637-0.006 0.955-0.019 0.083-1.515 0.276-2.481 0.276-2.481s-1.25 0-3.75 0c0-3.418 1.168-6.446 2.44-8.73h-9.94v14.961h11.058c-0.091-0.892-0.123-1.736-0.12-2.497-0.305 0.011-0.611 0.016-0.918 0.016zM3.75 5h1.25v2.5h-1.25v-2.5zM20 2.52h-8.342c-0.038 0.062-0.076 0.125-0.114 0.189-0.75 1.261-1.346 2.554-1.772 3.842-0.356 1.077-0.592 2.153-0.706 3.215h4.001l-0.361 1.774c-0.006 0.032-0.16 0.837-0.238 2.089 1.599-0.159 3.168-0.473 4.698-0.942l0.395 1.186c-1.671 0.515-3.388 0.854-5.138 1.016-0.001 0.085-0.001 0.172-0.001 0.259 0.002 0.794 0.046 1.574 0.129 2.332h7.449v-14.961zM16.25 7.5h-1.25v-2.5h1.25v2.5zM11.47 20h1.527c-0.107-0.426-0.199-0.863-0.276-1.31-0.068-0.396-0.125-0.799-0.17-1.209h-1.493c0.083 0.808 0.214 1.656 0.412 2.52zM13.446 0h-1.883c-0.503 0.681-1.073 1.531-1.623 2.52h1.718c0.658-1.080 1.312-1.941 1.789-2.52z" fill="#ffffff" />
</svg>
