<?xml version="1.0" encoding="utf-8"?>
<!-- Generated by IcoMoon.io -->
<!DOCTYPE svg PUBLIC "-//W3C//DTD SVG 1.1//EN" "http://www.w3.org/Graphics/SVG/1.1/DTD/svg11.dtd">
<svg version="1.1" xmlns="http://www.w3.org/2000/svg" xmlns:xlink="http://www.w3.org/1999/xlink" width="20" height="20" viewBox="0 0 20 20">
	<path d="M19.971 6.526l-0.232 1.486c0 0-0.331-2.751-0.737-3.78-0.622-1.576-0.899-1.563-0.901-1.561 0.417 1.059 0.341 1.627 0.341 1.627s-0.738-2.012-2.69-2.652c-2.162-0.709-3.331-0.515-3.467-0.478-0.021-0-0.040-0-0.059-0 0.016 0.001 0.031 0.003 0.047 0.004-0.001 0-0.002 0.001-0.002 0.001 0.009 0.011 2.389 0.416 2.811 0.996 0 0-1.011 0-2.017 0.29-0.045 0.013 3.702 0.468 4.468 4.212 0 0-0.411-0.857-0.919-1.003 0.334 1.016 0.248 2.945-0.070 3.903-0.041 0.123-0.083-0.533-0.71-0.815 0.201 1.438-0.012 3.72-1.010 4.348-0.078 0.049 0.626-2.252 0.141-1.363-2.787 4.273-6.082 1.972-7.563 0.959 0.759 0.165 2.2-0.026 2.838-0.5 0.001-0.001 0.002-0.001 0.002-0.002 0.693-0.474 1.103-0.82 1.471-0.738 0.369 0.082 0.614-0.288 0.328-0.616-0.287-0.329-0.983-0.781-1.924-0.534-0.664 0.174-1.487 0.909-2.743 0.165-0.964-0.571-1.055-1.046-1.063-1.375 0.024-0.117 0.054-0.225 0.089-0.325 0.111-0.31 0.447-0.403 0.635-0.477 0.317 0.055 0.591 0.154 0.878 0.301 0.004-0.096 0.005-0.222-0-0.366 0.028-0.055 0.011-0.22-0.034-0.421-0.025-0.201-0.067-0.41-0.132-0.599 0-0 0-0 0.001-0 0.001-0 0.002-0.001 0.003-0.001 0.002-0.001 0.003-0.002 0.004-0.004 0-0 0.001-0.001 0.001-0.001 0.002-0.002 0.003-0.005 0.004-0.009 0.020-0.090 0.235-0.264 0.502-0.451 0.24-0.168 0.522-0.346 0.744-0.483 0.196-0.122 0.346-0.213 0.378-0.236 0.012-0.009 0.027-0.020 0.042-0.032 0.003-0.002 0.006-0.005 0.009-0.007 0.002-0.001 0.004-0.003 0.006-0.004 0.106-0.084 0.263-0.243 0.296-0.578 0-0.001 0-0.002 0-0.002 0.001-0.010 0.002-0.020 0.003-0.030 0.001-0.007 0.001-0.014 0.001-0.021 0-0.006 0.001-0.011 0.001-0.017 0.001-0.013 0.001-0.027 0.001-0.040 0-0.001 0-0.001 0-0.002 0-0.032-0-0.066-0.002-0.102-0.001-0.020-0.002-0.038-0.006-0.054-0-0.001-0-0.002-0.001-0.003-0-0.002-0.001-0.003-0.001-0.005-0.001-0.003-0.001-0.006-0.002-0.008-0-0-0-0.001-0-0.001-0.001-0.003-0.002-0.006-0.003-0.009-0-0-0-0-0-0-0.034-0.080-0.162-0.111-0.692-0.119-0.001-0-0.001-0-0.001-0v0c-0.216-0.004-0.499-0.004-0.869-0.002-0.649 0.003-1.008-0.635-1.123-0.881 0.157-0.868 0.611-1.487 1.356-1.907 0.014-0.008 0.011-0.014-0.005-0.019 0.146-0.088-1.763-0.002-2.64 1.114-0.779-0.194-1.458-0.181-2.043-0.043-0.112-0.003-0.252-0.017-0.419-0.052-0.389-0.353-0.946-1.004-0.976-1.781 0 0-0.002 0.001-0.005 0.004-0-0.007-0.001-0.015-0.001-0.022 0 0-1.186 0.911-1.008 3.396-0 0.040-0.001 0.078-0.002 0.115-0.321 0.435-0.48 0.801-0.492 0.882-0.284 0.579-0.573 1.45-0.808 2.773 0 0 0.164-0.521 0.494-1.111-0.242 0.743-0.433 1.898-0.321 3.63 0 0 0.030-0.384 0.134-0.937 0.082 1.074 0.44 2.401 1.345 3.961 1.737 2.995 4.408 4.507 7.359 4.739 0.524 0.043 1.056 0.044 1.59 0.004 0.049-0.003 0.098-0.007 0.147-0.011 0.605-0.042 1.214-0.134 1.821-0.281 8.304-2.008 7.401-12.035 7.401-12.035z" fill="#ffffff" />
</svg>
