<?xml version="1.0" encoding="utf-8"?>
<!-- Generated by IcoMoon.io -->
<!DOCTYPE svg PUBLIC "-//W3C//DTD SVG 1.1//EN" "http://www.w3.org/Graphics/SVG/1.1/DTD/svg11.dtd">
<svg version="1.1" xmlns="http://www.w3.org/2000/svg" xmlns:xlink="http://www.w3.org/1999/xlink" width="20" height="20" viewBox="0 0 20 20">
	<path d="M6.27 20c-1.333-2.774-0.623-4.363 0.401-5.86 1.122-1.64 1.411-3.263 1.411-3.263 0 0 0.882 1.146 0.529 2.94 1.558-1.734 1.852-4.498 1.617-5.556 3.522 2.461 5.027 7.79 2.998 11.74 10.789-6.104 2.684-15.238 1.273-16.267 0.47 1.029 0.56 2.771-0.391 3.616-1.608-6.099-5.585-7.349-5.585-7.349 0.47 3.145-1.705 6.585-3.803 9.155-0.074-1.254-0.152-2.12-0.812-3.32-0.148 2.278-1.889 4.136-2.361 6.419-0.639 3.092 0.478 5.355 4.722 7.747z" fill="#ffffff" />
</svg>
