<?xml version="1.0" encoding="utf-8"?>
<!-- Generated by IcoMoon.io -->
<!DOCTYPE svg PUBLIC "-//W3C//DTD SVG 1.1//EN" "http://www.w3.org/Graphics/SVG/1.1/DTD/svg11.dtd">
<svg version="1.1" xmlns="http://www.w3.org/2000/svg" xmlns:xlink="http://www.w3.org/1999/xlink" width="20" height="20" viewBox="0 0 20 20">
	<path d="M16.25 3.365c1.493 0 2.834-0.813 3.75-1.428v11.635c-0.916 0.615-2.257 1.428-3.75 1.428s-2.834-0.443-3.75-1.058c-0.916-0.615-2.257-1.058-3.75-1.058-1.493 0-2.834 0.76-3.75 1.375v-11.635c0.916-0.615 2.257-1.375 3.75-1.375s2.834 0.443 3.75 1.058c0.916 0.615 2.257 1.058 3.75 1.058zM2.5 0c0.69 0 1.25 0.56 1.25 1.25v18.75h-2.5v-18.75c0-0.69 0.56-1.25 1.25-1.25z" fill="#ffffff" />
</svg>
