<?xml version="1.0" encoding="utf-8"?>
<!-- Generated by IcoMoon.io -->
<!DOCTYPE svg PUBLIC "-//W3C//DTD SVG 1.1//EN" "http://www.w3.org/Graphics/SVG/1.1/DTD/svg11.dtd">
<svg version="1.1" xmlns="http://www.w3.org/2000/svg" xmlns:xlink="http://www.w3.org/1999/xlink" width="20" height="20" viewBox="0 0 20 20">
	<path d="M17.115 2.884c-1.676-1.675-3.779-2.288-4.449-1.618l-2.696 2.697c-0.409 0.409-0.766 1.778-0.602 3.163l-8.161 8.162c-0.484 0.483-0.092 1.66 0.876 2.628 0.968 0.969 2.146 1.36 2.629 0.877l8.161-8.161c1.386 0.164 2.755-0.193 3.163-0.602l2.697-2.697c0.67-0.67 0.057-2.773-1.618-4.449zM8.141 11.040c-0.373-0.372-0.251-1.097 0.269-1.618s1.245-0.642 1.618-0.27c0.371 0.372 0.251 1.097-0.27 1.618-0.521 0.521-1.245 0.642-1.617 0.27zM14.891 5.109c-1.298-1.298-1.624-3.010-1.509-3.126 0.116-0.116 1.761 0.278 3.060 1.576 1.298 1.298 1.687 2.947 1.575 3.059s-1.829-0.211-3.126-1.509z" fill="#ffffff" />
</svg>
