<?xml version="1.0" encoding="utf-8"?>
<!-- Generated by IcoMoon.io -->
<!DOCTYPE svg PUBLIC "-//W3C//DTD SVG 1.1//EN" "http://www.w3.org/Graphics/SVG/1.1/DTD/svg11.dtd">
<svg version="1.1" xmlns="http://www.w3.org/2000/svg" xmlns:xlink="http://www.w3.org/1999/xlink" width="20" height="20" viewBox="0 0 20 20">
	<path d="M5.599 8.542c0-1.637 0.434-2.678 1.889-2.912 0.508-0.1 1.566-0.064 2.239-0.064v2.5c0 0.022 0.003 0.063 0.009 0.084 0.027 0.1 0.118 0.175 0.227 0.175 0.062 0 0.119-0.032 0.179-0.090l6.235-6.234-8.828-0.001c-3.674 0-5.549 2.116-5.549 6.066v8.288l3.599-3.602v-4.21zM14.402 7.249v4.209c0 1.637-0.435 2.679-1.89 2.912-0.508 0.1-1.565 0.064-2.238 0.064v-2.5c0-0.022-0.004-0.063-0.009-0.084-0.028-0.101-0.12-0.175-0.229-0.176-0.062 0-0.118 0.032-0.179 0.091l-6.235 6.233 8.83 0.002c3.673 0 5.548-2.115 5.548-6.066v-8.288l-3.598 3.603z" fill="#ffffff" />
</svg>
