<?xml version="1.0" encoding="utf-8"?>
<!-- Generated by IcoMoon.io -->
<!DOCTYPE svg PUBLIC "-//W3C//DTD SVG 1.1//EN" "http://www.w3.org/Graphics/SVG/1.1/DTD/svg11.dtd">
<svg version="1.1" xmlns="http://www.w3.org/2000/svg" xmlns:xlink="http://www.w3.org/1999/xlink" width="20" height="20" viewBox="0 0 20 20">
	<path d="M7.179 0c-4.753 0-7.179 2.738-7.179 7.849v0 10.723l4.656-4.661v-5.447c0-2.117 0.561-3.465 2.444-3.767v0c0.658-0.129 2.026-0.084 2.897-0.084v0 3.234c0 0.029 0.004 0.082 0.012 0.109v0c0.037 0.131 0.155 0.227 0.295 0.227v0c0.079 0 0.154-0.041 0.23-0.117v0l8.069-8.066-11.423-0.001zM15.344 6.089v5.447c0 2.117-0.561 3.465-2.444 3.767v0c-0.658 0.129-2.026 0.084-2.897 0.084v0-3.234c0-0.029-0.004-0.082-0.012-0.109v0c-0.036-0.131-0.155-0.227-0.295-0.227v0c-0.079-0-0.154 0.041-0.23 0.117v0l-8.069 8.066 11.423 0.001c4.753 0 7.179-2.738 7.179-7.849v0-10.723l-4.656 4.661z" fill="#ffffff" />
</svg>
