<?xml version="1.0" encoding="utf-8"?>
<!-- Generated by IcoMoon.io -->
<!DOCTYPE svg PUBLIC "-//W3C//DTD SVG 1.1//EN" "http://www.w3.org/Graphics/SVG/1.1/DTD/svg11.dtd">
<svg version="1.1" xmlns="http://www.w3.org/2000/svg" xmlns:xlink="http://www.w3.org/1999/xlink" width="20" height="20" viewBox="0 0 20 20">
	<path d="M10 0c-5.523 0-10 4.508-10 10.068s4.477 10.068 10 10.068 10-4.508 10-10.068-4.477-10.068-10-10.068zM5.625 13.125c-1.726 0-3.125-1.399-3.125-3.125s1.399-3.125 3.125-3.125 3.125 1.399 3.125 3.125c0 1.726-1.399 3.125-3.125 3.125zM14.375 13.125c-1.726 0-3.125-1.399-3.125-3.125s1.399-3.125 3.125-3.125 3.125 1.399 3.125 3.125c0 1.726-1.399 3.125-3.125 3.125z" fill="#ffffff" />
</svg>
