<?xml version="1.0" encoding="utf-8"?>
<!-- Generated by IcoMoon.io -->
<!DOCTYPE svg PUBLIC "-//W3C//DTD SVG 1.1//EN" "http://www.w3.org/Graphics/SVG/1.1/DTD/svg11.dtd">
<svg version="1.1" xmlns="http://www.w3.org/2000/svg" xmlns:xlink="http://www.w3.org/1999/xlink" width="20" height="20" viewBox="0 0 20 20">
	<path d="M16.668 0h-13.334c-1.834 0-3.334 1.5-3.334 3.334v13.333c0 1.835 1.5 3.334 3.334 3.334h13.334c1.833 0 3.333-1.499 3.333-3.334v-13.332c0-1.833-1.499-3.334-3.332-3.334zM5.625 13.125c-1.726 0-3.125-1.399-3.125-3.125s1.399-3.125 3.125-3.125 3.125 1.399 3.125 3.125c0 1.726-1.399 3.125-3.125 3.125zM14.375 13.125c-1.726 0-3.125-1.399-3.125-3.125s1.399-3.125 3.125-3.125 3.125 1.399 3.125 3.125c0 1.726-1.399 3.125-3.125 3.125z" fill="#ffffff" />
</svg>
