<?xml version="1.0" encoding="utf-8"?>
<!-- Generated by IcoMoon.io -->
<!DOCTYPE svg PUBLIC "-//W3C//DTD SVG 1.1//EN" "http://www.w3.org/Graphics/SVG/1.1/DTD/svg11.dtd">
<svg version="1.1" xmlns="http://www.w3.org/2000/svg" xmlns:xlink="http://www.w3.org/1999/xlink" width="20" height="20" viewBox="0 0 20 20">
	<path d="M10 0.4c-5.302 0-9.6 4.298-9.6 9.6s4.298 9.6 9.6 9.6 9.6-4.298 9.6-9.6-4.297-9.6-9.6-9.6zM7.435 12.021c-1.095 0-1.982-0.904-1.982-2.021 0-1.117 0.887-2.021 1.982-2.021 1.095 0 1.983 0.904 1.983 2.021-0.001 1.117-0.888 2.021-1.983 2.021zM12.564 12.021c-1.096 0-1.983-0.904-1.983-2.021 0-1.117 0.887-2.021 1.983-2.021 1.094 0 1.982 0.904 1.982 2.021 0.001 1.117-0.888 2.021-1.982 2.021z" fill="#ffffff" />
</svg>
