<?xml version="1.0" encoding="utf-8"?>
<!-- Generated by IcoMoon.io -->
<!DOCTYPE svg PUBLIC "-//W3C//DTD SVG 1.1//EN" "http://www.w3.org/Graphics/SVG/1.1/DTD/svg11.dtd">
<svg version="1.1" xmlns="http://www.w3.org/2000/svg" xmlns:xlink="http://www.w3.org/1999/xlink" width="20" height="20" viewBox="0 0 20 20">
	<path d="M17.949 14.796v-2.296c0-1.387-0.918-3.45-3.449-3.45h-2c-1.412 0-1.543-0.692-1.55-1.050v-2.796c0.853-0.369 1.45-1.217 1.45-2.204 0-1.325-1.074-2.4-2.4-2.4-1.326 0-2.4 1.075-2.4 2.4 0 0.987 0.597 1.835 1.45 2.204v2.796c0 0.259-0.075 1.050-1.55 1.050h-2c-2.531 0-3.45 2.063-3.45 3.45v2.296c-0.853 0.368-1.45 1.217-1.45 2.204 0 1.325 1.074 2.4 2.4 2.4 1.325 0 2.4-1.075 2.4-2.4 0-0.987-0.597-1.836-1.45-2.204v-2.296c0-0.259 0.075-1.55 1.55-1.55h2c0.607 0 1.119-0.092 1.55-0.248v4.094c-0.853 0.368-1.45 1.217-1.45 2.204 0 1.325 1.074 2.4 2.4 2.4 1.326 0 2.4-1.075 2.4-2.4 0-0.987-0.598-1.836-1.451-2.204v-4.094c0.431 0.156 0.943 0.248 1.55 0.248h2c1.412 0 1.543 1.192 1.551 1.55v2.296c-0.853 0.368-1.45 1.217-1.45 2.204 0 1.325 1.074 2.4 2.4 2.4s2.4-1.075 2.4-2.4c0-0.987-0.597-1.836-1.451-2.204zM4.385 17c0 0.765-0.62 1.385-1.385 1.385s-1.385-0.62-1.385-1.385 0.62-1.385 1.385-1.385 1.385 0.62 1.385 1.385zM8.615 3c0-0.765 0.621-1.385 1.385-1.385s1.384 0.62 1.384 1.385-0.62 1.385-1.384 1.385c-0.764 0-1.385-0.62-1.385-1.385zM11.385 17c0 0.765-0.621 1.385-1.384 1.385-0.765 0-1.385-0.62-1.385-1.385s0.62-1.385 1.384-1.385c0.764 0 1.385 0.62 1.385 1.385zM17 18.385c-0.764 0-1.385-0.62-1.385-1.385s0.621-1.385 1.385-1.385 1.385 0.62 1.385 1.385-0.621 1.385-1.385 1.385z" fill="#ffffff" />
</svg>
