<?xml version="1.0" encoding="utf-8"?>
<!-- Generated by IcoMoon.io -->
<!DOCTYPE svg PUBLIC "-//W3C//DTD SVG 1.1//EN" "http://www.w3.org/Graphics/SVG/1.1/DTD/svg11.dtd">
<svg version="1.1" xmlns="http://www.w3.org/2000/svg" xmlns:xlink="http://www.w3.org/1999/xlink" width="20" height="20" viewBox="0 0 20 20">
	<path d="M10.95 13.796v-7.593c0.853-0.368 1.45-1.216 1.45-2.203 0-1.326-1.075-2.4-2.4-2.4s-2.4 1.074-2.4 2.4c0 0.987 0.598 1.835 1.45 2.203v7.593c-0.853 0.368-1.45 1.216-1.45 2.204 0 1.325 1.075 2.4 2.4 2.4s2.4-1.075 2.4-2.4c0-0.988-0.597-1.836-1.45-2.204zM8.615 4c0-0.765 0.62-1.385 1.385-1.385s1.385 0.62 1.385 1.385-0.62 1.385-1.385 1.385-1.385-0.62-1.385-1.385zM10 17.385c-0.765 0-1.385-0.62-1.385-1.385s0.62-1.385 1.385-1.385 1.385 0.62 1.385 1.385-0.62 1.385-1.385 1.385z" fill="#ffffff" />
</svg>
