<?xml version="1.0" encoding="utf-8"?>
<!-- Generated by IcoMoon.io -->
<!DOCTYPE svg PUBLIC "-//W3C//DTD SVG 1.1//EN" "http://www.w3.org/Graphics/SVG/1.1/DTD/svg11.dtd">
<svg version="1.1" xmlns="http://www.w3.org/2000/svg" xmlns:xlink="http://www.w3.org/1999/xlink" width="20" height="20" viewBox="0 0 20 20">
	<path d="M16.4 4c0-1.325-1.074-2.4-2.4-2.4s-2.4 1.075-2.4 2.4c0 0.973 0.58 1.809 1.412 2.186-0.227 1.948-1.482 2.341-3.295 2.907-0.88 0.275-1.903 0.595-2.767 1.217v-4.106c0.853-0.369 1.45-1.217 1.45-2.204 0-1.325-1.075-2.4-2.4-2.4-1.326 0-2.4 1.075-2.4 2.4 0 0.987 0.597 1.835 1.45 2.204v7.593c-0.853 0.367-1.45 1.215-1.45 2.203 0 1.325 1.074 2.4 2.4 2.4 1.325 0 2.4-1.075 2.4-2.4 0-0.973-0.58-1.809-1.413-2.186 0.228-1.948 1.484-2.342 3.296-2.907 1.843-0.576 4.326-1.353 4.634-4.689 0.87-0.362 1.483-1.218 1.483-2.218zM4.615 4c0-0.765 0.62-1.385 1.385-1.385s1.385 0.62 1.385 1.385-0.62 1.385-1.385 1.385-1.385-0.62-1.385-1.385zM6 17.385c-0.765 0-1.385-0.62-1.385-1.385s0.62-1.385 1.385-1.385 1.385 0.62 1.385 1.385-0.62 1.385-1.385 1.385zM14 5.385c-0.764 0-1.385-0.62-1.385-1.385s0.621-1.385 1.385-1.385 1.385 0.62 1.385 1.385-0.621 1.385-1.385 1.385z" fill="#ffffff" />
</svg>
