<?xml version="1.0" encoding="utf-8"?>
<!-- Generated by IcoMoon.io -->
<!DOCTYPE svg PUBLIC "-//W3C//DTD SVG 1.1//EN" "http://www.w3.org/Graphics/SVG/1.1/DTD/svg11.dtd">
<svg version="1.1" xmlns="http://www.w3.org/2000/svg" xmlns:xlink="http://www.w3.org/1999/xlink" width="20" height="20" viewBox="0 0 20 20">
	<path d="M14 14.6c-0.987 0-1.836 0.598-2.204 1.45h-3.296c-1.412 0-1.544-1.192-1.55-1.55v-3.868c0.431 0.199 0.943 0.318 1.55 0.318h3.296c0.368 0.853 1.217 1.45 2.204 1.45 1.325 0 2.4-1.075 2.4-2.4s-1.075-2.4-2.4-2.4c-0.987 0-1.836 0.598-2.204 1.45h-3.296c-1.412 0-1.544-1.192-1.55-1.55v-2.296c0.853-0.368 1.449-1.217 1.449-2.204 0-1.325-1.074-2.4-2.399-2.4s-2.4 1.075-2.4 2.4c0 0.987 0.598 1.835 1.45 2.204v9.296c0 1.387 0.919 3.45 3.45 3.45h3.296c0.368 0.853 1.217 1.45 2.204 1.45 1.325 0 2.4-1.074 2.4-2.4 0-1.325-1.075-2.4-2.4-2.4zM14 8.615c0.765 0 1.385 0.62 1.385 1.385s-0.62 1.385-1.385 1.385-1.385-0.62-1.385-1.385 0.62-1.385 1.385-1.385zM4.615 3c0-0.765 0.62-1.385 1.385-1.385s1.385 0.62 1.385 1.385-0.62 1.385-1.385 1.385-1.385-0.62-1.385-1.385zM14 18.385c-0.765 0-1.385-0.62-1.385-1.385s0.62-1.385 1.385-1.385 1.385 0.62 1.385 1.385-0.62 1.385-1.385 1.385z" fill="#ffffff" />
</svg>
