<?xml version="1.0" encoding="utf-8"?>
<!-- Generated by IcoMoon.io -->
<!DOCTYPE svg PUBLIC "-//W3C//DTD SVG 1.1//EN" "http://www.w3.org/Graphics/SVG/1.1/DTD/svg11.dtd">
<svg version="1.1" xmlns="http://www.w3.org/2000/svg" xmlns:xlink="http://www.w3.org/1999/xlink" width="20" height="20" viewBox="0 0 20 20">
	<path d="M19.070 7h-18.14c-0.92 0-0.967 0.448-0.916 0.996l0.825 9.008c0.050 0.548 0.18 0.996 1.099 0.996h16.125c0.938 0 1.049-0.448 1.099-0.996l0.825-9.008c0.049-0.548 0.004-0.996-0.917-0.996zM18.404 4.8c-0.11-0.44-0.655-0.8-1.209-0.8h-6.814c-0.555 0-1.329-0.317-1.722-0.706l-0.596-0.588c-0.392-0.389-1.167-0.706-1.721-0.706h-3.256c-0.554 0-1.058 0.447-1.119 0.994l-0.292 2.606h16.931l-0.202-0.8z" fill="#ffffff" />
</svg>
