<?xml version="1.0" encoding="utf-8"?>
<!-- Generated by IcoMoon.io -->
<!DOCTYPE svg PUBLIC "-//W3C//DTD SVG 1.1//EN" "http://www.w3.org/Graphics/SVG/1.1/DTD/svg11.dtd">
<svg version="1.1" xmlns="http://www.w3.org/2000/svg" xmlns:xlink="http://www.w3.org/1999/xlink" width="20" height="20" viewBox="0 0 20 20">
	<path d="M18.438 13.125h-1.682c-0.028-0.149-0.063-0.296-0.1-0.441l2.999-1.499c0.309-0.154 0.433-0.53 0.279-0.839-0.155-0.309-0.529-0.432-0.839-0.279l-2.861 1.43c-1.091-2.355-3.472-3.996-6.234-3.996-3.364 0-6.166 2.43-6.756 5.625h-1.682c-0.861 0-1.563 0.701-1.563 1.563 0 0.306 0.112 0.602 0.316 0.831l2.184 2.457v0.462c0 0.862 0.701 1.563 1.563 1.563h11.875c0.862 0 1.563-0.701 1.563-1.563v-0.462l2.184-2.457c0.204-0.229 0.316-0.524 0.316-0.831 0-0.862-0.701-1.563-1.563-1.563zM16.124 13.125h-0.351l0.311-0.156c0.012 0.053 0.029 0.103 0.040 0.156zM10 8.125c2.518 0 4.688 1.5 5.676 3.651l-0.557 0.278c-0.885-1.947-2.841-3.304-5.119-3.304-2.676 0-4.912 1.871-5.481 4.375h-0.643c0.581-2.849 3.106-5 6.124-5zM12.86 13.125c-0.483-1.102-1.582-1.875-2.86-1.875s-2.376 0.773-2.86 1.875h-0.671c0.516-1.454 1.902-2.5 3.531-2.5 1.541 0 2.867 0.935 3.442 2.267l-0.582 0.233zM10 12.5c-0.552 0-1.044 0.244-1.388 0.625h-0.765c0.434-0.743 1.231-1.25 2.153-1.25 0.921 0 1.719 0.507 2.152 1.25h-0.766c-0.342-0.381-0.834-0.625-1.386-0.625zM10 10c-1.978 0-3.651 1.32-4.191 3.125h-0.645c0.558-2.152 2.511-3.75 4.836-3.75 2.029 0 3.777 1.218 4.559 2.959l-0.558 0.279c-0.68-1.536-2.217-2.613-4.001-2.613zM16.25 17.5v0.938c0 0.172-0.141 0.313-0.313 0.313h-11.875c-0.172 0-0.313-0.14-0.313-0.313v-0.938l-2.5-2.813c0-0.172 0.14-0.313 0.313-0.313h16.875c0.172 0 0.313 0.14 0.313 0.313l-2.5 2.813zM4.986 7.32c-0.004-0.009-0.008-0.017-0.011-0.026-0.324-0.783-0.002-1.551 0.289-2.244 0.276-0.657 0.52-1.24 0.268-1.808-0.001-0.002-0.002-0.005-0.003-0.007-0.001-0.002-0.001-0.004-0.002-0.006-0.001-0.001-0.001-0.002-0.001-0.004-0.013-0.033-0.020-0.068-0.020-0.106 0-0.169 0.137-0.306 0.306-0.306 0.13 0 0.241 0.081 0.285 0.196 0.349 0.794 0.032 1.576-0.264 2.279-0.274 0.651-0.496 1.256-0.262 1.808 0.001 0.004 0.001 0.008 0 0.012 0.007 0.025 0.011 0.051 0.011 0.078 0 0.173-0.141 0.314-0.314 0.314-0.121 0-0.225-0.069-0.277-0.169-0.001 0-0.001 0-0.001 0-0.002-0.004-0.003-0.008-0.005-0.011zM12.596 7.229c-0.004-0.008-0.007-0.017-0.010-0.025-0.324-0.783-0.003-1.552 0.288-2.245 0.276-0.657 0.52-1.24 0.268-1.808 0-0.002-0.001-0.005-0.003-0.007-0.001-0.002-0.001-0.004-0.002-0.006 0-0.001 0-0.002 0-0.004-0.012-0.033-0.021-0.068-0.021-0.106 0-0.169 0.137-0.306 0.306-0.306 0.131 0 0.241 0.081 0.286 0.196 0.349 0.794 0.032 1.576-0.264 2.279-0.274 0.651-0.496 1.256-0.263 1.808 0.003 0.004 0.003 0.008 0.001 0.013 0.006 0.025 0.011 0.051 0.011 0.078 0 0.173-0.142 0.314-0.315 0.314-0.121 0-0.224-0.069-0.277-0.169h-0.001c-0.001-0.004-0.003-0.008-0.005-0.011zM9.387 4.508c-0.004-0.009-0.008-0.017-0.012-0.026-0.325-0.783-0.002-1.552 0.289-2.245 0.276-0.657 0.52-1.24 0.268-1.808-0.001-0.003-0.002-0.005-0.002-0.008-0.001-0.002-0.001-0.004-0.002-0.006-0.001-0.001-0.001-0.003-0.001-0.004-0.013-0.033-0.020-0.068-0.020-0.106 0-0.169 0.137-0.306 0.306-0.306 0.131 0 0.241 0.081 0.286 0.196 0.349 0.794 0.032 1.576-0.264 2.279-0.274 0.651-0.496 1.256-0.262 1.808 0.001 0.004 0.001 0.008 0 0.012 0.007 0.025 0.011 0.051 0.011 0.078 0 0.173-0.141 0.314-0.314 0.314-0.121 0-0.224-0.069-0.277-0.169-0.001 0-0.001 0-0.001 0-0.002-0.004-0.003-0.007-0.005-0.011z" fill="#ffffff" />
</svg>
