<?xml version="1.0" encoding="utf-8"?>
<!-- Generated by IcoMoon.io -->
<!DOCTYPE svg PUBLIC "-//W3C//DTD SVG 1.1//EN" "http://www.w3.org/Graphics/SVG/1.1/DTD/svg11.dtd">
<svg version="1.1" xmlns="http://www.w3.org/2000/svg" xmlns:xlink="http://www.w3.org/1999/xlink" width="20" height="20" viewBox="0 0 20 20">
	<path d="M16.875 0c-1.726 0-3.125 1.399-3.125 3.125v9.375h2.5v7.5h3.75v-16.875c0-1.726-1.399-3.125-3.125-3.125zM8.125 0c-0.345 0-0.625 0.28-0.625 0.625v4.375c0 0.173-0.28 0.313-0.625 0.313-0.345 0-0.625-0.14-0.625-0.313v-4.375c0-0.345-0.28-0.625-0.625-0.625-0.345 0-0.625 0.28-0.625 0.625v4.375c0 0.173-0.28 0.313-0.625 0.313-0.345 0-0.625-0.14-0.625-0.313v-4.375c0-0.345-0.28-0.625-0.625-0.625-0.345 0-0.625 0.28-0.625 0.625v4.375c0 0.173-0.28 0.313-0.625 0.313s-0.625-0.14-0.625-0.313v-4.375c0-0.345-0.28-0.625-0.625-0.625s-0.625 0.28-0.625 0.625v5.625c0 0.553 0.489 0.862 1.035 1.25 0.688 0.49 1.465 1.106 1.465 2.5v10h3.75v-10c0-1.394 0.777-2.010 1.465-2.5 0.546-0.388 1.035-0.697 1.035-1.25v-5.625c0-0.345-0.28-0.625-0.625-0.625z" fill="#ffffff" />
</svg>
