<?xml version="1.0" encoding="utf-8"?>
<!-- Generated by IcoMoon.io -->
<!DOCTYPE svg PUBLIC "-//W3C//DTD SVG 1.1//EN" "http://www.w3.org/Graphics/SVG/1.1/DTD/svg11.dtd">
<svg version="1.1" xmlns="http://www.w3.org/2000/svg" xmlns:xlink="http://www.w3.org/1999/xlink" width="20" height="20" viewBox="0 0 20 20">
	<path d="M10 20c-5.522 0-10-4.478-10-10 0-5.523 4.478-10 10-10s10 4.477 10 10c0 5.522-4.478 10-10 10zM2.5 10c0 1.614 0.52 3.098 1.388 4.322l10.435-10.435c-1.223-0.867-2.709-1.387-4.322-1.387-4.142 0-7.5 3.358-7.5 7.5zM16.112 5.678l-10.435 10.436c1.223 0.867 2.709 1.387 4.322 1.387 4.142 0 7.5-3.358 7.5-7.5 0-1.614-0.52-3.099-1.388-4.322z" fill="#ffffff" />
</svg>
