<?xml version="1.0" encoding="utf-8"?>
<!-- Generated by IcoMoon.io -->
<!DOCTYPE svg PUBLIC "-//W3C//DTD SVG 1.1//EN" "http://www.w3.org/Graphics/SVG/1.1/DTD/svg11.dtd">
<svg version="1.1" xmlns="http://www.w3.org/2000/svg" xmlns:xlink="http://www.w3.org/1999/xlink" width="20" height="20" viewBox="0 0 20 20">
	<path d="M8.75 0c-0.69 0-1.25 0.559-1.25 1.25v6.25h-1.25v-6.25c0-0.691-0.56-1.25-1.25-1.25s-1.25 0.559-1.25 1.25v6.25h-1.25v-6.25c0-0.691-0.56-1.25-1.25-1.25s-1.25 0.559-1.25 1.25v7.5c0 0.691 0.56 1.25 1.25 1.25h2.5v8.75c0 0.691 0.56 1.25 1.25 1.25s1.25-0.559 1.25-1.25v-8.75h2.5c0.69 0 1.25-0.559 1.25-1.25v-7.5c0-0.691-0.56-1.25-1.25-1.25zM17.5 0c0 0-2.5 0.807-2.5 3.75v2.5c0 1.631 1.047 3.004 2.5 3.521v8.979c0 0.691 0.56 1.25 1.25 1.25s1.25-0.559 1.25-1.25v-18.75h-2.5z" fill="#ffffff" />
</svg>
