<?xml version="1.0" encoding="utf-8"?>
<!-- Generated by IcoMoon.io -->
<!DOCTYPE svg PUBLIC "-//W3C//DTD SVG 1.1//EN" "http://www.w3.org/Graphics/SVG/1.1/DTD/svg11.dtd">
<svg version="1.1" xmlns="http://www.w3.org/2000/svg" xmlns:xlink="http://www.w3.org/1999/xlink" width="20" height="20" viewBox="0 0 20 20">
	<path d="M16.667 0h-13.333c-1.833 0-3.334 1.5-3.334 3.334v13.332c0 1.835 1.5 3.334 3.334 3.334h13.333c1.834 0 3.333-1.499 3.333-3.334v-13.332c0-1.834-1.5-3.334-3.333-3.334zM18.358 18.358c-0.454 0.454-1.055 0.704-1.691 0.704h-13.333c-0.636 0-1.237-0.25-1.692-0.704-0.454-0.454-0.705-1.055-0.705-1.692v-13.332c0-0.636 0.25-1.237 0.705-1.692 0.454-0.454 1.055-0.705 1.691-0.705h13.333c0.139 0 0.275 0.013 0.409 0.036l-4.127 5.665-1.915-1.915c-0.27-0.27-0.628-0.418-1.010-0.418-0.381 0-0.74 0.148-1.010 0.418l-0.869 0.869c-0.049-0.066-0.099-0.132-0.154-0.196-1.185-1.384-3.267-1.547-4.651-0.362-1.384 1.184-1.547 3.267-0.362 4.651 0.272 0.318 0.591 0.57 0.938 0.758 0.007 0.356 0.146 0.71 0.417 0.982l4.682 4.681c0.27 0.27 0.629 0.419 1.010 0.419 0.382 0 0.74-0.149 1.010-0.419l4.682-4.681c0.27-0.27 0.419-0.629 0.419-1.010s-0.149-0.74-0.419-1.010l-0.539-0.539 3.885-3.417v11.216c0 0.637-0.25 1.238-0.704 1.692zM8.601 6.462l1.076-1.076c0.093-0.093 0.216-0.144 0.347-0.144 0.131 0 0.254 0.051 0.347 0.144l2.019 2.019-2.195 3.013c-0.217 0.242-0.408 0.115-0.483 0.025-0.026-0.030-0.541-0.705-1.207-1.578 0.331-0.757 0.366-1.617 0.095-2.403zM9.766 13.126c0 0 0.17 0.158 0.358 0.005l4.334-3.657 0.595 0.595c0.093 0.093 0.144 0.216 0.144 0.347s-0.051 0.254-0.144 0.347l-4.682 4.681c-0.093 0.093-0.216 0.144-0.347 0.144-0.131 0-0.254-0.051-0.347-0.144l-4.634-4.634c0.539 0.073 1.095 0.012 1.614-0.185l3.109 2.5z" fill="#ffffff" />
</svg>
