<?xml version="1.0" encoding="utf-8"?>
<!-- Generated by IcoMoon.io -->
<!DOCTYPE svg PUBLIC "-//W3C//DTD SVG 1.1//EN" "http://www.w3.org/Graphics/SVG/1.1/DTD/svg11.dtd">
<svg version="1.1" xmlns="http://www.w3.org/2000/svg" xmlns:xlink="http://www.w3.org/1999/xlink" width="20" height="20" viewBox="0 0 20 20">
	<path d="M18.75 0h-10c-0.691 0-1.25 0.559-1.25 1.25v10c0 0.691 0.559 1.25 1.25 1.25h10c0.691 0 1.25-0.559 1.25-1.25v-10c0-0.691-0.559-1.25-1.25-1.25zM17.5 10h-7.5v-7.5h7.5v7.5zM10 17.5h-7.5v-7.5h2.5v-2.5h-3.75c-0.691 0-1.25 0.559-1.25 1.25v10c0 0.691 0.559 1.25 1.25 1.25h10c0.691 0 1.25-0.559 1.25-1.25v-3.75h-2.5v2.5z" fill="#ffffff" />
</svg>
