<?xml version="1.0" encoding="utf-8"?>
<!-- Generated by IcoMoon.io -->
<!DOCTYPE svg PUBLIC "-//W3C//DTD SVG 1.1//EN" "http://www.w3.org/Graphics/SVG/1.1/DTD/svg11.dtd">
<svg version="1.1" xmlns="http://www.w3.org/2000/svg" xmlns:xlink="http://www.w3.org/1999/xlink" width="20" height="20" viewBox="0 0 20 20">
	<path d="M8.128 13.802c-0.69 1.196-0.226 2.18 0.731 2.732s2.042 0.464 2.732-0.732c0.69-1.195 5.047-11.866 4.668-12.085-0.378-0.219-7.441 8.889-8.131 10.085zM10 6.202c0.438 0 0.865 0.038 1.281 0.108 0.438-0.548 0.929-1.152 1.406-1.727-0.852-0.247-1.751-0.381-2.687-0.381-5.607 0-10 4.728-10 10.764 0 0.372 0.017 0.743 0.049 1.105 0.049 0.55 0.54 0.955 1.085 0.907 0.55-0.050 0.956-0.535 0.907-1.085-0.027-0.303-0.041-0.615-0.041-0.927 0-4.914 3.515-8.764 8-8.764zM17.219 7.451c-0.279 0.75-0.574 1.514-0.834 2.175 1.017 1.47 1.615 3.313 1.615 5.34 0 0.317-0.014 0.636-0.042 0.945-0.050 0.55 0.355 1.036 0.905 1.087 0.031 0.003 0.061 0.004 0.092 0.004 0.511 0 0.947-0.391 0.994-0.909 0.034-0.37 0.051-0.749 0.051-1.127 0-2.951-1.052-5.589-2.781-7.515z" fill="#ffffff" />
</svg>
