<?xml version="1.0" encoding="utf-8"?>
<!-- Generated by IcoMoon.io -->
<!DOCTYPE svg PUBLIC "-//W3C//DTD SVG 1.1//EN" "http://www.w3.org/Graphics/SVG/1.1/DTD/svg11.dtd">
<svg version="1.1" xmlns="http://www.w3.org/2000/svg" xmlns:xlink="http://www.w3.org/1999/xlink" width="20" height="20" viewBox="0 0 20 20">
	<path d="M15.069 6.25c0.354-0.252 0.694-0.532 1.005-0.843 0.652-0.652 1.089-1.455 1.229-2.26 0.153-0.883-0.072-1.702-0.618-2.248-0.436-0.436-1.026-0.666-1.706-0.666-0.969 0-1.991 0.465-2.802 1.277-1.298 1.298-2.055 3.091-2.462 4.37-0.302-1.285-0.902-3.020-2.071-4.189-0.627-0.627-1.428-0.949-2.184-0.949-0.618 0-1.207 0.215-1.646 0.654-0.976 0.976-0.844 2.691 0.295 3.83 0.406 0.406 0.881 0.743 1.381 1.024h-4.239v5h1.25v8.75h15v-8.75h1.25v-5h-3.681zM13.17 2.504c0.541-0.541 1.217-0.865 1.808-0.865 0.209 0 0.502 0.044 0.712 0.254 0.508 0.508 0.223 1.686-0.611 2.519-0.858 0.858-2.013 1.449-3.016 1.837h-0.99c0.363-1.124 1.017-2.665 2.097-3.746zM4.569 3.142c-0.014-0.178-0.001-0.513 0.238-0.752 0.2-0.2 0.465-0.242 0.651-0.242v0c0.415 0 0.849 0.196 1.19 0.537 0.662 0.662 1.206 1.714 1.576 3.044 0.010 0.036 0.020 0.072 0.029 0.107-0.035-0.009-0.071-0.019-0.107-0.029-1.33-0.369-2.383-0.914-3.044-1.576-0.309-0.309-0.503-0.706-0.533-1.090zM8.75 18.75h-5v-8.125h5v8.125zM8.75 10h-6.25v-2.5h6.25v2.5zM16.25 18.75h-5v-8.125h5v8.125zM17.5 10h-6.25v-2.5h6.25v2.5z" fill="#ffffff" />
</svg>
