<?xml version="1.0" encoding="utf-8"?>
<!-- Generated by IcoMoon.io -->
<!DOCTYPE svg PUBLIC "-//W3C//DTD SVG 1.1//EN" "http://www.w3.org/Graphics/SVG/1.1/DTD/svg11.dtd">
<svg version="1.1" xmlns="http://www.w3.org/2000/svg" xmlns:xlink="http://www.w3.org/1999/xlink" width="20" height="20" viewBox="0 0 20 20">
	<path d="M4.595 4.858c-0.992 0-1.845 0.328-2.56 0.985-0.744 0.7-1.116 1.575-1.116 2.626 0 0.7 0.203 1.357 0.611 1.969 0.365 0.569 0.746 0.934 1.246 1.094v0.044c-0.5 0.204-0.722 0.715-0.722 1.532 0 0.627 0.222 1.094 0.722 1.401v0.044c-1.38 0.452-2.012 1.291-2.012 2.516 0 1.065 0.464 1.845 1.368 2.341 0.715 0.394 1.632 0.591 2.741 0.591 2.699 0 4.051-1.131 4.051-3.392 0-1.415-1.041-2.283-3.128-2.604-0.481-0.073-0.845-0.248-1.093-0.525-0.19-0.19-0.284-0.379-0.284-0.569 0-0.54 0.292-0.853 0.875-0.941 0.89-0.131 1.616-0.543 2.177-1.236 0.562-0.693 0.842-1.506 0.842-2.44 0-0.292-0.088-0.605-0.205-0.941 0.379-0.088 0.646-0.168 0.846-0.241v-2.254c-0.88 0.35-1.699 0.525-2.399 0.525-0.613-0.35-1.247-0.525-1.961-0.525zM4.836 15.777c1.225 0 1.838 0.372 1.838 1.116 0 0.788-0.562 1.181-1.685 1.181-1.284 0-1.926-0.379-1.926-1.138-0-0.773 0.591-1.16 1.772-1.16zM4.683 10c-0.919 0-1.379-0.503-1.379-1.51 0-1.079 0.46-1.619 1.379-1.619 0.438 0 0.78 0.168 1.028 0.503 0.204 0.306 0.306 0.671 0.306 1.094 0 1.021-0.445 1.532-1.335 1.532zM11.336 0c-0.423 0-0.784 0.16-1.083 0.481-0.299 0.321-0.449 0.707-0.449 1.16 0 0.438 0.15 0.817 0.449 1.138 0.299 0.321 0.66 0.481 1.083 0.481 0.408 0 0.762-0.16 1.061-0.481 0.299-0.321 0.448-0.7 0.448-1.138 0-0.452-0.149-0.839-0.448-1.16-0.299-0.321-0.653-0.481-1.061-0.481zM12.561 5h-2.473c0.029 0.28-0.012 0.704-0.012 1.389v6.805c0 0.7 0.042 1.265 0.012 1.485h2.473c-0.029-0.32-0.105-0.872-0.105-1.616v-6.718c-0-0.642 0.076-1.066 0.105-1.346zM18.014 12.582c-0.642 0-0.959-0.489-0.959-1.466v-4.036h0.974c0.175 0 0.333-0.010 0.53 0.005 0.197 0.015 0.276 0.005 0.377 0.005v-2.090h-1.88v-0.93c0-0.35 0.055-0.67 0.099-0.87h-2.538c0.044 0.2 0.040 0.505 0.040 0.914v0.886h-1.1v2.090c0.3-0.044 0.568-0.066 0.758-0.066l0.342 0.022v3.961c0 1.225 0.155 2.123 0.462 2.691 0.409 0.759 1.125 1.138 2.19 1.138 0.759 0 1.428-0.146 1.928-0.438v-2.188c-0.4 0.248-0.769 0.372-1.221 0.372z" fill="#ffffff" />
</svg>
