<?xml version="1.0" encoding="utf-8"?>
<!-- Generated by IcoMoon.io -->
<!DOCTYPE svg PUBLIC "-//W3C//DTD SVG 1.1//EN" "http://www.w3.org/Graphics/SVG/1.1/DTD/svg11.dtd">
<svg version="1.1" xmlns="http://www.w3.org/2000/svg" xmlns:xlink="http://www.w3.org/1999/xlink" width="20" height="20" viewBox="0 0 20 20">
	<path d="M10 0c-5.523 0-10 4.477-10 10s4.477 10 10 10 10-4.477 10-10-4.477-10-10-10zM15.939 15.939c-0.772 0.772-1.67 1.378-2.67 1.801-0.254 0.107-0.512 0.202-0.773 0.283v-1.499c0-0.788-0.27-1.367-0.811-1.738 0.339-0.033 0.649-0.078 0.933-0.137s0.583-0.143 0.898-0.254 0.599-0.243 0.85-0.396 0.492-0.352 0.723-0.596 0.425-0.521 0.581-0.83 0.28-0.68 0.371-1.113 0.137-0.91 0.137-1.431c0-1.009-0.329-1.868-0.986-2.578 0.299-0.781 0.267-1.631-0.098-2.549l-0.244-0.029c-0.169-0.020-0.474 0.052-0.913 0.215s-0.933 0.43-1.479 0.801c-0.775-0.215-1.579-0.322-2.412-0.322-0.84 0-1.641 0.107-2.402 0.322-0.345-0.234-0.672-0.428-0.981-0.581-0.309-0.153-0.557-0.257-0.742-0.313s-0.358-0.090-0.518-0.103-0.262-0.016-0.308-0.010-0.078 0.013-0.098 0.020c-0.365 0.924-0.397 1.774-0.098 2.549-0.658 0.71-0.986 1.569-0.986 2.578 0 0.521 0.046 0.998 0.137 1.431s0.215 0.804 0.371 1.113 0.35 0.586 0.581 0.83 0.472 0.443 0.723 0.596 0.534 0.285 0.85 0.396 0.615 0.195 0.898 0.254 0.594 0.104 0.933 0.137c-0.534 0.365-0.801 0.944-0.801 1.738v1.528c-0.295-0.088-0.586-0.191-0.871-0.312-1-0.423-1.898-1.029-2.67-1.801-0.772-0.772-1.378-1.67-1.801-2.67-0.437-1.034-0.659-2.134-0.659-3.269s0.222-2.234 0.659-3.269c0.423-1 1.029-1.898 1.801-2.67s1.67-1.378 2.67-1.801c1.034-0.438 2.134-0.659 3.269-0.659s2.234 0.222 3.269 0.659c1 0.423 1.898 1.029 2.67 1.801 0.772 0.772 1.378 1.67 1.801 2.67 0.437 1.034 0.659 2.134 0.659 3.269s-0.222 2.234-0.659 3.269c-0.423 1-1.029 1.898-1.801 2.67z" fill="#ffffff" />
</svg>
