<?xml version="1.0" encoding="utf-8"?>
<!-- Generated by IcoMoon.io -->
<!DOCTYPE svg PUBLIC "-//W3C//DTD SVG 1.1//EN" "http://www.w3.org/Graphics/SVG/1.1/DTD/svg11.dtd">
<svg version="1.1" xmlns="http://www.w3.org/2000/svg" xmlns:xlink="http://www.w3.org/1999/xlink" width="20" height="20" viewBox="0 0 20 20">
	<path d="M0 10.867c0 0.906 0.085 1.726 0.254 2.46 0.169 0.733 0.404 1.371 0.704 1.912 0.3 0.541 0.681 1.017 1.144 1.428 0.463 0.411 0.965 0.747 1.506 1.007 0.541 0.261 1.159 0.473 1.853 0.636 0.694 0.163 1.403 0.277 2.127 0.342 0.724 0.065 1.519 0.098 2.386 0.098 0.874 0 1.672-0.033 2.396-0.098 0.724-0.065 1.434-0.179 2.132-0.342 0.698-0.163 1.319-0.375 1.863-0.636 0.544-0.261 1.050-0.597 1.516-1.007 0.466-0.411 0.851-0.887 1.154-1.428 0.303-0.541 0.539-1.178 0.709-1.912 0.17-0.734 0.254-1.553 0.254-2.46 0-1.617-0.541-3.016-1.623-4.196 0.059-0.156 0.112-0.334 0.161-0.533 0.049-0.199 0.095-0.482 0.137-0.851 0.042-0.368 0.026-0.794-0.049-1.276-0.075-0.482-0.214-0.975-0.416-1.477l-0.147-0.029c-0.104-0.020-0.276-0.015-0.513 0.015-0.238 0.029-0.515 0.088-0.831 0.176-0.316 0.088-0.724 0.258-1.222 0.509-0.499 0.251-1.025 0.566-1.579 0.944-0.952-0.261-2.259-0.391-3.922-0.391-1.656 0-2.96 0.13-3.912 0.391-0.554-0.378-1.084-0.693-1.589-0.944-0.505-0.251-0.908-0.421-1.208-0.509-0.3-0.088-0.58-0.145-0.841-0.171-0.261-0.026-0.425-0.034-0.494-0.024-0.068 0.010-0.122 0.021-0.161 0.034-0.202 0.502-0.341 0.994-0.416 1.477-0.075 0.482-0.091 0.908-0.049 1.276 0.042 0.368 0.088 0.652 0.137 0.851 0.049 0.199 0.103 0.377 0.161 0.533-1.082 1.18-1.623 2.579-1.623 4.196zM2.455 13.322c0-0.939 0.427-1.8 1.281-2.582 0.254-0.235 0.551-0.412 0.89-0.533 0.339-0.121 0.722-0.189 1.149-0.205 0.427-0.016 0.836-0.013 1.227 0.010 0.391 0.023 0.874 0.054 1.447 0.093 0.574 0.039 1.069 0.059 1.487 0.059 0.417 0 0.913-0.020 1.487-0.059 0.574-0.039 1.056-0.070 1.447-0.093 0.391-0.023 0.8-0.026 1.227-0.010 0.427 0.016 0.81 0.085 1.149 0.205 0.339 0.121 0.636 0.298 0.89 0.533 0.854 0.769 1.281 1.63 1.281 2.582 0 0.561-0.070 1.058-0.21 1.491-0.14 0.434-0.319 0.797-0.538 1.090-0.218 0.293-0.522 0.543-0.91 0.748-0.388 0.205-0.766 0.363-1.134 0.474-0.368 0.111-0.841 0.197-1.418 0.259-0.577 0.062-1.092 0.099-1.545 0.112-0.453 0.013-1.029 0.020-1.726 0.020-0.698 0-1.273-0.007-1.726-0.020-0.453-0.013-0.968-0.051-1.545-0.112-0.577-0.062-1.050-0.148-1.418-0.259-0.368-0.111-0.747-0.269-1.134-0.474-0.388-0.205-0.691-0.455-0.91-0.748-0.218-0.293-0.398-0.657-0.538-1.090-0.14-0.434-0.21-0.931-0.21-1.491zM12.5 13.125c0-1.036 0.56-1.875 1.25-1.875s1.25 0.839 1.25 1.875c0 1.036-0.56 1.875-1.25 1.875-0.69 0-1.25-0.839-1.25-1.875zM5 13.125c0-1.036 0.56-1.875 1.25-1.875s1.25 0.839 1.25 1.875c0 1.036-0.56 1.875-1.25 1.875-0.69 0-1.25-0.839-1.25-1.875z" fill="#ffffff" />
</svg>
