<?xml version="1.0" encoding="utf-8"?>
<!-- Generated by IcoMoon.io -->
<!DOCTYPE svg PUBLIC "-//W3C//DTD SVG 1.1//EN" "http://www.w3.org/Graphics/SVG/1.1/DTD/svg11.dtd">
<svg version="1.1" xmlns="http://www.w3.org/2000/svg" xmlns:xlink="http://www.w3.org/1999/xlink" width="20" height="20" viewBox="0 0 20 20">
	<path d="M5.146 14.831c0 0.528 0.447 0.793 1.341 0.793 0.783 0 1.174-0.274 1.174-0.823 0-0.518-0.427-0.777-1.28-0.777-0.823-0-1.235 0.269-1.235 0.808zM16.667 0h-13.333c-1.834 0-3.334 1.5-3.334 3.334v13.333c0 1.835 1.5 3.334 3.334 3.334h13.333c1.833 0 3.333-1.499 3.333-3.334v-13.333c0-1.834-1.5-3.334-3.333-3.334zM9.292 7.988c-0.142 0.051-0.345 0.107-0.61 0.168 0.081 0.234 0.122 0.452 0.122 0.655 0 0.65-0.196 1.217-0.587 1.699-0.391 0.483-0.897 0.77-1.517 0.861-0.406 0.061-0.61 0.28-0.61 0.655 0 0.132 0.066 0.264 0.198 0.396 0.173 0.193 0.427 0.315 0.762 0.366 1.453 0.223 2.179 0.828 2.179 1.814 0 1.575-0.94 2.363-2.82 2.363-0.772 0-1.407-0.137-1.905-0.412-0.63-0.345-0.945-0.889-0.945-1.631 0-0.854 0.472-1.438 1.417-1.753v-0.030c-0.345-0.213-0.518-0.538-0.518-0.975 0-0.569 0.163-0.925 0.488-1.067v-0.031c-0.325-0.112-0.615-0.366-0.869-0.762-0.284-0.427-0.427-0.884-0.427-1.372 0-0.732 0.259-1.341 0.777-1.829 0.498-0.457 1.092-0.686 1.783-0.686 0.498 0 0.96 0.122 1.387 0.366 0.488 0 1.052-0.122 1.692-0.366l-0 1.57zM11.761 13.262h-1.722c0.020-0.203 0.030-0.549 0.030-1.036v-4.74c0-0.478-0.010-0.808-0.030-0.991h1.722c-0.020 0.193-0.031 0.513-0.031 0.96v4.679c0 0.518 0.010 0.894 0.031 1.128zM11.647 4.97c-0.208 0.224-0.455 0.335-0.739 0.335-0.295 0-0.546-0.112-0.754-0.335-0.208-0.224-0.313-0.488-0.313-0.793 0-0.315 0.104-0.584 0.313-0.808 0.208-0.223 0.46-0.335 0.754-0.335 0.284 0 0.531 0.112 0.739 0.335 0.208 0.224 0.312 0.493 0.312 0.808 0 0.305-0.104 0.569-0.312 0.793zM16.439 13.063c-0.376 0.203-0.828 0.305-1.357 0.305-0.742 0-1.255-0.264-1.539-0.792-0.213-0.396-0.32-1.021-0.32-1.875v-2.728h0.015v-0.031l-0.229-0.015c-0.132 0-0.305 0.015-0.518 0.046v-1.478h0.747v-0.594c0-0.285-0.015-0.513-0.046-0.686h1.768c-0.030 0.193-0.046 0.411-0.046 0.655v0.625h1.326v1.478c-0.051 0-0.145-0.005-0.282-0.015-0.137-0.010-0.267-0.015-0.389-0.015h-0.655v2.835c0 0.681 0.224 1.021 0.671 1.021 0.315 0 0.6-0.086 0.854-0.259v1.524zM6.274 7.82c-0.64 0-0.96 0.376-0.96 1.128 0 0.701 0.32 1.052 0.96 1.052 0.62 0 0.93-0.356 0.93-1.067 0-0.295-0.071-0.549-0.213-0.762-0.173-0.234-0.412-0.351-0.716-0.351z" fill="#ffffff" />
</svg>
