<?xml version="1.0" encoding="utf-8"?>
<!-- Generated by IcoMoon.io -->
<!DOCTYPE svg PUBLIC "-//W3C//DTD SVG 1.1//EN" "http://www.w3.org/Graphics/SVG/1.1/DTD/svg11.dtd">
<svg version="1.1" xmlns="http://www.w3.org/2000/svg" xmlns:xlink="http://www.w3.org/1999/xlink" width="20" height="20" viewBox="0 0 20 20">
	<path d="M10.014 9.949c-0.005 0-0.010 0-0.014 0-0.006 0-0.010 0-0.015 0-1.191 0-2.241-0.302-2.862 0.269-0.372 0.342-0.528 0.753-0.528 1.196 0 1.853 1.484 2.080 3.39 2.080h0.028c1.906 0 3.39-0.228 3.39-2.080 0-0.443-0.156-0.854-0.529-1.196-0.618-0.571-1.669-0.269-2.86-0.269zM8.394 12.48c-0.363 0-0.657-0.407-0.657-0.909s0.294-0.909 0.657-0.909 0.657 0.407 0.657 0.909-0.295 0.909-0.657 0.909zM11.605 12.48c-0.361 0-0.656-0.407-0.656-0.909s0.294-0.909 0.656-0.909c0.363 0 0.658 0.407 0.658 0.909s-0.294 0.909-0.658 0.909zM10 0.4c-5.302 0-9.6 4.298-9.6 9.6s4.298 9.6 9.6 9.6c5.3 0 9.599-4.298 9.599-9.6s-4.298-9.6-9.599-9.6zM10.875 13.94c-0.172 0-0.514 0-0.875 0.001-0.362-0.001-0.704-0.001-0.875-0.001-0.761 0-3.773-0.059-3.773-3.689 0-0.835 0.286-1.446 0.755-1.955-0.075-0.185-0.079-1.234 0.32-2.236 0 0 0.916 0.1 2.3 1.050 0.29-0.080 0.781-0.12 1.273-0.12 0.49 0 0.982 0.040 1.273 0.12 1.385-0.95 2.299-1.050 2.299-1.050 0.398 1.003 0.396 2.052 0.32 2.236 0.469 0.509 0.756 1.12 0.756 1.955 0 3.631-3.011 3.689-3.773 3.689z" fill="#ffffff" />
</svg>
