<?xml version="1.0" encoding="utf-8"?>
<!-- Generated by IcoMoon.io -->
<!DOCTYPE svg PUBLIC "-//W3C//DTD SVG 1.1//EN" "http://www.w3.org/Graphics/SVG/1.1/DTD/svg11.dtd">
<svg version="1.1" xmlns="http://www.w3.org/2000/svg" xmlns:xlink="http://www.w3.org/1999/xlink" width="20" height="20" viewBox="0 0 20 20">
	<path d="M13.18 11.31c-0.718 0-1.3 0.806-1.3 1.799 0 0.994 0.582 1.8 1.3 1.8s1.3-0.806 1.3-1.8c-0.001-0.994-0.583-1.799-1.3-1.799zM17.706 6.626c0.148-0.365 0.155-2.44-0.634-4.426 0 0-1.812 0.198-4.552 2.079-0.575-0.159-1.548-0.238-2.52-0.238-0.973 0-1.945 0.080-2.521 0.238-2.739-1.881-4.55-2.079-4.55-2.079-0.789 1.986-0.783 4.061-0.634 4.426-0.928 1.008-1.495 2.218-1.495 3.871 0 7.186 5.962 7.301 7.467 7.301 0.341 0 1.019 0.001 1.734 0.002 0.715-0.001 1.393-0.002 1.732-0.002 1.506 0 7.467-0.115 7.467-7.301 0-1.653-0.566-2.863-1.494-3.871zM10.028 16.915h-0.055c-3.772 0-6.71-0.45-6.71-4.116 0-0.878 0.311-1.693 1.046-2.369 1.229-1.127 3.306-0.53 5.664-0.53 0.009 0 0.019 0 0.028-0.001 0.010 0 0.019 0.001 0.027 0.001 2.358 0 4.436-0.597 5.664 0.53 0.735 0.676 1.045 1.491 1.045 2.369 0 3.666-2.936 4.116-6.709 4.116zM6.821 11.31c-0.718 0-1.3 0.806-1.3 1.799 0 0.994 0.582 1.8 1.3 1.8s1.3-0.806 1.3-1.8c0-0.994-0.582-1.799-1.3-1.799z" fill="#ffffff" />
</svg>
