<?xml version="1.0" encoding="utf-8"?>
<!-- Generated by IcoMoon.io -->
<!DOCTYPE svg PUBLIC "-//W3C//DTD SVG 1.1//EN" "http://www.w3.org/Graphics/SVG/1.1/DTD/svg11.dtd">
<svg version="1.1" xmlns="http://www.w3.org/2000/svg" xmlns:xlink="http://www.w3.org/1999/xlink" width="20" height="20" viewBox="0 0 20 20">
	<path d="M10 16.248c-0.374 0-0.748-0.194-1.136-0.581-0.153-0.153-0.153-0.4 0-0.552 0.153-0.152 0.4-0.152 0.552 0 0.238 0.238 0.429 0.354 0.583 0.354 0.154 0 0.345-0.116 0.583-0.354 0.153-0.152 0.4-0.152 0.552 0 0.153 0.153 0.153 0.4 0 0.552-0.387 0.387-0.762 0.581-1.136 0.581zM0 10.264c0 0.974 0.083 1.858 0.25 2.65 0.167 0.792 0.401 1.479 0.703 2.061 0.302 0.582 0.684 1.092 1.146 1.53 0.462 0.438 0.964 0.799 1.505 1.083 0.542 0.284 1.161 0.514 1.859 0.689 0.698 0.175 1.408 0.298 2.13 0.368 0.722 0.070 1.517 0.105 2.385 0.105 0.868 0 1.665-0.035 2.391-0.105 0.726-0.070 1.438-0.193 2.135-0.368 0.698-0.175 1.319-0.405 1.865-0.689 0.545-0.284 1.050-0.645 1.516-1.083 0.465-0.438 0.849-0.948 1.151-1.53 0.302-0.582 0.538-1.269 0.708-2.061 0.17-0.792 0.255-1.676 0.255-2.65 0-1.746-0.542-3.249-1.625-4.511 0.063-0.168 0.116-0.361 0.161-0.578 0.045-0.217 0.089-0.524 0.13-0.92 0.042-0.396 0.026-0.854-0.047-1.372-0.073-0.519-0.21-1.048-0.411-1.588l-0.156-0.032c-0.104-0.021-0.274-0.014-0.51 0.021-0.236 0.035-0.512 0.098-0.828 0.189-0.316 0.091-0.724 0.272-1.224 0.542-0.5 0.27-1.028 0.612-1.583 1.025-0.944-0.287-2.246-0.588-3.906-0.588-1.66 0-2.965 0.301-3.917 0.588-0.556-0.414-1.085-0.754-1.589-1.020-0.504-0.266-0.906-0.449-1.208-0.547-0.302-0.098-0.582-0.161-0.839-0.189-0.257-0.028-0.422-0.037-0.495-0.026-0.073 0.011-0.127 0.023-0.161 0.037-0.201 0.54-0.34 1.069-0.417 1.588-0.076 0.519-0.094 0.974-0.052 1.367 0.042 0.393 0.087 0.701 0.135 0.925 0.049 0.224 0.104 0.417 0.167 0.578-1.083 1.255-1.625 2.759-1.625 4.511zM2.667 12.488c0-1.133 0.417-2.161 1.25-3.083 0.25-0.281 0.54-0.494 0.87-0.639 0.33-0.145 0.705-0.227 1.125-0.246 0.42-0.020 0.821-0.016 1.203 0.012 0.382 0.027 0.854 0.064 1.417 0.111 0.562 0.047 1.049 0.070 1.458 0.070 0.41 0 0.896-0.023 1.458-0.070 0.563-0.047 1.035-0.084 1.417-0.111 0.382-0.027 0.783-0.031 1.203-0.012 0.42 0.020 0.797 0.102 1.13 0.246 0.333 0.145 0.625 0.358 0.875 0.639 0.833 0.922 1.25 1.95 1.25 3.083 0 0.664-0.069 1.256-0.208 1.776-0.139 0.52-0.314 0.955-0.526 1.307-0.212 0.352-0.509 0.649-0.891 0.891-0.382 0.242-0.752 0.43-1.109 0.563-0.358 0.133-0.819 0.236-1.385 0.311-0.566 0.074-1.073 0.119-1.521 0.135-0.448 0.016-1.012 0.023-1.693 0.023-0.681 0-1.243-0.008-1.688-0.023-0.444-0.016-0.95-0.061-1.516-0.135-0.566-0.074-1.028-0.178-1.385-0.311-0.358-0.133-0.727-0.32-1.109-0.563-0.382-0.242-0.679-0.539-0.891-0.891-0.212-0.352-0.387-0.787-0.526-1.307-0.139-0.52-0.208-1.112-0.208-1.776zM5 11.875c0-1.036 0.56-1.875 1.25-1.875s1.25 0.839 1.25 1.875c0 1.036-0.56 1.875-1.25 1.875-0.69 0-1.25-0.839-1.25-1.875zM12.5 11.875c0-1.036 0.56-1.875 1.25-1.875s1.25 0.839 1.25 1.875c0 1.036-0.56 1.875-1.25 1.875-0.69 0-1.25-0.839-1.25-1.875z" fill="#ffffff" />
</svg>
