<?xml version="1.0" encoding="utf-8"?>
<!-- Generated by IcoMoon.io -->
<!DOCTYPE svg PUBLIC "-//W3C//DTD SVG 1.1//EN" "http://www.w3.org/Graphics/SVG/1.1/DTD/svg11.dtd">
<svg version="1.1" xmlns="http://www.w3.org/2000/svg" xmlns:xlink="http://www.w3.org/1999/xlink" width="20" height="20" viewBox="0 0 20 20">
	<path d="M9.375 1.25c-5.178 0-9.375 4.197-9.375 9.375 0 5.178 4.197 9.375 9.375 9.375 5.178 0 9.375-4.197 9.375-9.375 0-5.178-4.197-9.375-9.375-9.375zM14.679 13.75c0.168-0.79 0.273-1.629 0.308-2.5h2.489c-0.065 0.863-0.266 1.701-0.599 2.5h-2.198zM4.071 7.5c-0.168 0.79-0.273 1.629-0.308 2.5h-2.489c0.065-0.863 0.266-1.701 0.599-2.5h2.198zM13.399 7.5c0.188 0.8 0.301 1.638 0.337 2.5h-3.737v-2.5h3.399zM10 6.25v-3.659c0.285 0.083 0.567 0.222 0.844 0.417 0.519 0.366 1.016 0.93 1.436 1.631 0.291 0.484 0.542 1.024 0.752 1.611h-3.033zM6.469 4.639c0.42-0.701 0.917-1.265 1.436-1.631 0.277-0.195 0.559-0.334 0.844-0.417v3.659h-3.033c0.21-0.587 0.461-1.127 0.752-1.611zM8.75 7.5v2.5h-3.737c0.037-0.862 0.15-1.7 0.337-2.5h3.399zM1.873 13.75c-0.333-0.799-0.534-1.637-0.599-2.5h2.489c0.034 0.871 0.14 1.71 0.308 2.5h-2.198zM5.013 11.25h3.737v2.5h-3.399c-0.188-0.8-0.301-1.638-0.337-2.5zM8.75 15v3.659c-0.285-0.083-0.567-0.222-0.844-0.417-0.519-0.366-1.016-0.93-1.436-1.631-0.291-0.484-0.542-1.024-0.752-1.611h3.033zM12.281 16.611c-0.42 0.701-0.917 1.265-1.436 1.631-0.277 0.195-0.559 0.334-0.844 0.417v-3.659h3.033c-0.21 0.587-0.461 1.127-0.752 1.611zM10 13.75v-2.5h3.737c-0.037 0.862-0.15 1.7-0.337 2.5h-3.399zM14.987 10c-0.034-0.871-0.14-1.71-0.308-2.5h2.198c0.333 0.799 0.534 1.637 0.599 2.5h-2.489zM16.224 6.25h-1.873c-0.364-1.148-0.867-2.154-1.471-2.958 0.831 0.397 1.583 0.93 2.241 1.587 0.42 0.419 0.788 0.878 1.104 1.37zM3.63 4.88c0.657-0.657 1.41-1.19 2.241-1.587-0.604 0.803-1.107 1.81-1.471 2.958h-1.873c0.315-0.493 0.684-0.951 1.104-1.37zM2.526 15h1.873c0.364 1.148 0.867 2.154 1.471 2.958-0.831-0.397-1.583-0.93-2.241-1.587-0.42-0.419-0.788-0.878-1.104-1.37zM15.12 16.37c-0.657 0.657-1.41 1.19-2.241 1.587 0.604-0.803 1.107-1.81 1.471-2.958h1.873c-0.315 0.493-0.684 0.951-1.104 1.37z" fill="#ffffff" />
</svg>
