<?xml version="1.0" encoding="utf-8"?>
<!-- Generated by IcoMoon.io -->
<!DOCTYPE svg PUBLIC "-//W3C//DTD SVG 1.1//EN" "http://www.w3.org/Graphics/SVG/1.1/DTD/svg11.dtd">
<svg version="1.1" xmlns="http://www.w3.org/2000/svg" xmlns:xlink="http://www.w3.org/1999/xlink" width="20" height="20" viewBox="0 0 20 20">
	<path d="M10 20c-5.522 0-10-4.478-10-10s4.478-10 10-10 10 4.478 10 10-4.478 10-10 10zM10 2.5c-4.142 0-7.5 3.358-7.5 7.5s3.358 7.5 7.5 7.5 7.5-3.358 7.5-7.5-3.358-7.5-7.5-7.5zM13.676 14.508l-0.22 0.128-0.635 0.387-0.375 0.272c-0.278 0.133-0.569 0.238-0.869 0.327v-0.369l-0.106-0.848c0 0-0.053-0.489-0.132-0.618-0.079-0.129-0.265-0.31-0.45-0.387s-0.317-0.077-0.424-0.205c-0.106-0.129-0.186-0.361-0.317-0.566-0.133-0.206-0.292-0.413-0.292-0.515s0-1.158 0-1.158l0.133-0.978 0.291-0.206 0.344-0.386 0.238-0.077 0.82 0.154h0.582l0.239 0.489 0.555 0.437 0.344 0.541 0.449 0.154h0.503l0.344 0.413 0.212 0.437 0.079 0.309v0.515l-0.055 0.304c-0.336 0.55-0.762 1.035-1.261 1.446zM11.63 5.627l-0.582 0.309-0.211 0.592-0.344 0.309h-1.139l-0.529 0.206-0.027 0.411-0.211 0.334-0.054 0.361 0.106 0.309 0.132 0.309c0 0 0.319 0.36 0 0.618 0 0-0.397 0-0.476-0.129-0.079-0.128-0.662-0.488-0.768-0.592-0.105-0.103-0.449-0.205-0.449-0.205l-0.424-0.155-0.397-0.026 0.026-0.541-0.026-0.463-0.16-0.334-0.449-0.336-0.027-0.36 0.055-0.2c1.072-1.036 2.549-1.678 4.18-1.678 0.92 0 1.781 0.221 2.559 0.585l-0.017 0.136-0.768 0.541z" fill="#ffffff" />
</svg>
