<?xml version="1.0" encoding="utf-8"?>
<!-- Generated by IcoMoon.io -->
<!DOCTYPE svg PUBLIC "-//W3C//DTD SVG 1.1//EN" "http://www.w3.org/Graphics/SVG/1.1/DTD/svg11.dtd">
<svg version="1.1" xmlns="http://www.w3.org/2000/svg" xmlns:xlink="http://www.w3.org/1999/xlink" width="20" height="20" viewBox="0 0 20 20">
	<path d="M8.535 15.98c0 1.466-0.906 2.625-3.472 2.718-1.504-0.855-2.763-2.089-3.651-3.572 0.463-1.142 1.908-2.013 3.561-1.994 0.469 0.005 0.906 0.080 1.304 0.209 1.092 0.759 1.973 1.233 2.194 2.099 0.041 0.175 0.064 0.356 0.064 0.54zM10 0c-2.889 0-5.492 1.226-7.318 3.186 0.721-0.399 1.573-0.637 2.479-0.637 1.31 0 5.009 0 5.009 0l-1.119 1.175h-1.315c0.928 0.531 1.421 1.626 1.421 2.832 0 1.107-0.614 2-1.48 2.677-0.845 0.66-1.006 0.937-1.006 1.499 0 0.479 1.010 1.193 1.475 1.542 1.618 1.213 1.945 1.976 1.945 3.494 0 1.538-1.346 3.068-3.63 3.589 1.101 0.417 2.293 0.645 3.54 0.645 5.523 0 10-4.477 10-10s-4.477-10-10-10zM15 7.5v2.5h-1.25v-2.5h-2.5v-1.25h2.5v-2.5h1.25v2.5h2.5v1.25h-2.5zM7.144 6.63c0.233 1.773-0.544 2.914-1.893 2.874-1.35-0.041-2.633-1.279-2.866-3.052-0.233-1.773 0.672-3.13 2.022-3.090 1.349 0.041 2.504 1.495 2.737 3.268zM4.314 12.54c-1.459 0-2.698 0.503-3.571 1.247-0.479-1.168-0.743-2.447-0.743-3.788 0-1.109 0.181-2.175 0.514-3.172 0.144 1.942 1.511 3.441 3.769 3.441 0.166 0 0.327-0.009 0.486-0.020-0.155 0.297-0.266 0.629-0.266 0.976 0 0.585 0.322 0.919 0.72 1.307-0.301 0-0.591 0.008-0.909 0.008z" fill="#ffffff" />
</svg>
