<?xml version="1.0" encoding="utf-8"?>
<!-- Generated by IcoMoon.io -->
<!DOCTYPE svg PUBLIC "-//W3C//DTD SVG 1.1//EN" "http://www.w3.org/Graphics/SVG/1.1/DTD/svg11.dtd">
<svg version="1.1" xmlns="http://www.w3.org/2000/svg" xmlns:xlink="http://www.w3.org/1999/xlink" width="20" height="20" viewBox="0 0 20 20">
	<path d="M1.99 5.589c0 1.493 0.499 2.572 1.482 3.205 0.805 0.519 1.74 0.597 2.226 0.597 0.118 0 0.212-0.005 0.278-0.009 0 0-0.154 1.003 0.59 1.996l-0.034-0.001c-1.289 0-5.494 0.27-5.494 3.727 0 3.517 3.862 3.695 4.636 3.695 0.061 0 0.096-0.001 0.096-0.001 0.009 0 0.064 0.002 0.158 0.002 0.497 0 1.782-0.062 2.976-0.643 1.548-0.751 2.334-2.059 2.334-3.885 0-1.765-1.196-2.815-2.070-3.583-0.533-0.468-0.994-0.872-0.994-1.265 0-0.4 0.336-0.701 0.762-1.082 0.688-0.616 1.338-1.493 1.338-3.151 0-1.458-0.189-2.436-1.354-3.056 0.122-0.062 0.551-0.107 0.764-0.137 0.631-0.086 1.554-0.184 1.554-0.699v-0.099h-4.598c-0.046 0.001-4.65 0.172-4.65 4.389zM9.413 14.602c0.088 1.406-1.115 2.444-2.921 2.575-1.834 0.135-3.345-0.691-3.433-2.097-0.042-0.675 0.254-1.336 0.835-1.863 0.59-0.533 1.398-0.862 2.279-0.928 0.104-0.006 0.207-0.011 0.31-0.011 1.697 0 2.847 0.998 2.93 2.324zM8.212 4.626c0.451 1.587-0.23 3.246-1.315 3.552-0.125 0.035-0.254 0.053-0.384 0.053-0.995 0-1.98-1.006-2.345-2.392-0.204-0.779-0.188-1.459 0.046-2.114 0.23-0.643 0.643-1.079 1.163-1.225 0.125-0.036 0.255-0.053 0.385-0.053 1.2 0 1.972 0.498 2.45 2.179zM15.961 8.082v-3h-1.9v3h-3v1.9h3v3h1.9v-3h3v-1.9h-3z" fill="#ffffff" />
</svg>
