<?xml version="1.0" encoding="utf-8"?>
<!-- Generated by IcoMoon.io -->
<!DOCTYPE svg PUBLIC "-//W3C//DTD SVG 1.1//EN" "http://www.w3.org/Graphics/SVG/1.1/DTD/svg11.dtd">
<svg version="1.1" xmlns="http://www.w3.org/2000/svg" xmlns:xlink="http://www.w3.org/1999/xlink" width="20" height="20" viewBox="0 0 20 20">
	<path d="M10.919 1.25c0 0-3.925 0-5.233 0-2.346 0-4.554 1.777-4.554 3.836 0 2.104 1.599 3.802 3.986 3.802 0.166 0 0.327-0.003 0.485-0.015-0.155 0.297-0.266 0.631-0.266 0.977 0 0.585 0.315 1.059 0.712 1.446-0.301 0-0.591 0.009-0.907 0.009-2.906-0-5.143 1.851-5.143 3.77 0 1.89 2.452 3.073 5.358 3.073 3.313 0 5.143-1.88 5.143-3.77 0-1.516-0.447-2.423-1.83-3.401-0.473-0.335-1.378-1.149-1.378-1.628 0-0.561 0.16-0.837 1.004-1.497 0.865-0.676 1.478-1.627 1.478-2.733 0-1.317-0.586-2.6-1.687-3.023h1.659l1.171-0.847zM9.091 14.052c0.042 0.175 0.064 0.356 0.064 0.54 0 1.527-0.984 2.721-3.808 2.721-2.009 0-3.459-1.272-3.459-2.799 0-1.497 1.799-2.743 3.808-2.721 0.469 0.005 0.906 0.080 1.302 0.209 1.090 0.758 1.873 1.187 2.093 2.051zM5.875 8.355c-1.348-0.040-2.63-1.508-2.862-3.279-0.233-1.771 0.671-3.126 2.019-3.086 1.348 0.041 2.63 1.461 2.862 3.232 0.233 1.771-0.672 3.173-2.019 3.133zM16.25 5v-3.75h-1.25v3.75h-3.75v1.25h3.75v3.75h1.25v-3.75h3.75v-1.25z" fill="#ffffff" />
</svg>
