<?xml version="1.0" encoding="utf-8"?>
<!-- Generated by IcoMoon.io -->
<!DOCTYPE svg PUBLIC "-//W3C//DTD SVG 1.1//EN" "http://www.w3.org/Graphics/SVG/1.1/DTD/svg11.dtd">
<svg version="1.1" xmlns="http://www.w3.org/2000/svg" xmlns:xlink="http://www.w3.org/1999/xlink" width="20" height="20" viewBox="0 0 20 20">
	<path d="M0.016 16.986c-0.005-0.049-0.009-0.099-0.011-0.149 0.003 0.050 0.007 0.1 0.011 0.149zM4.608 11.038c1.797 0.053 3.003-1.811 2.693-4.164-0.31-2.353-2.019-4.242-3.817-4.295-1.797-0.053-3.003 1.748-2.692 4.102 0.31 2.353 2.019 4.304 3.816 4.358zM20 5v-1.666c0-1.834-1.5-3.334-3.333-3.334h-13.333c-1.802 0-3.281 1.45-3.331 3.241 1.14-1.004 2.721-1.842 4.353-1.842 1.744 0 6.977 0 6.977 0l-1.561 1.321h-2.212c1.467 0.563 2.249 2.268 2.249 4.018 0 1.47-0.817 2.733-1.97 3.632-1.126 0.877-1.339 1.244-1.339 1.99 0 0.636 1.206 1.719 1.837 2.164 1.843 1.3 2.44 2.506 2.44 4.521 0 0.321-0.040 0.641-0.118 0.956h6.011c1.833 0 3.333-1.499 3.333-3.334v-10.416h-3.75v3.75h-1.25v-3.75h-3.75v-1.25h3.75v-3.75h1.25v3.75h3.75zM3.631 14.96c0.422 0 0.809-0.012 1.21-0.012-0.53-0.514-0.95-1.145-0.95-1.921 0-0.461 0.148-0.905 0.354-1.299-0.211 0.015-0.426 0.019-0.647 0.019-1.452 0-2.686-0.47-3.598-1.247v1.313l0 3.94c1.044-0.496 2.283-0.793 3.63-0.793zM0.067 17.329c-0.022-0.107-0.038-0.215-0.050-0.325 0.011 0.11 0.028 0.218 0.050 0.325zM8.896 18.61c-0.294-1.149-1.337-1.718-2.791-2.726-0.529-0.171-1.111-0.271-1.736-0.277-1.75-0.019-3.381 0.682-4.301 1.726 0.311 1.518 1.661 2.667 3.266 2.667h5.595c0.035-0.217 0.053-0.442 0.053-0.672 0-0.245-0.030-0.484-0.085-0.717z" fill="#ffffff" />
</svg>
