<?xml version="1.0" encoding="utf-8"?>
<!-- Generated by IcoMoon.io -->
<!DOCTYPE svg PUBLIC "-//W3C//DTD SVG 1.1//EN" "http://www.w3.org/Graphics/SVG/1.1/DTD/svg11.dtd">
<svg version="1.1" xmlns="http://www.w3.org/2000/svg" xmlns:xlink="http://www.w3.org/1999/xlink" width="20" height="20" viewBox="0 0 20 20">
	<path d="M2.5 11.25h-2.5v7.5c0 0.691 0.559 1.25 1.25 1.25h7.5v-2.5h-6.25v-6.25zM2.5 2.5h6.25v-2.5h-7.5c-0.691 0-1.25 0.559-1.25 1.25v7.5h2.5v-6.25zM17.5 17.5h-6.25v2.5h7.5c0.691 0 1.25-0.559 1.25-1.25v-7.5h-2.5v6.25zM18.75 0h-7.5v2.5h6.25v6.25h2.5v-7.5c0-0.691-0.559-1.25-1.25-1.25zM11.25 8.75v-3.75h-2.5v3.75h-3.75v2.5h3.75v3.75h2.5v-3.75h3.75v-2.5z" fill="#ffffff" />
</svg>
