<?xml version="1.0" encoding="utf-8"?>
<!-- Generated by IcoMoon.io -->
<!DOCTYPE svg PUBLIC "-//W3C//DTD SVG 1.1//EN" "http://www.w3.org/Graphics/SVG/1.1/DTD/svg11.dtd">
<svg version="1.1" xmlns="http://www.w3.org/2000/svg" xmlns:xlink="http://www.w3.org/1999/xlink" width="20" height="20" viewBox="0 0 20 20">
	<path d="M16.67 0h-13.365c-1.838 0-3.306 1.519-3.306 3.357v13.288c0 1.883 1.468 3.355 3.306 3.355h13.365c1.838 0 3.33-1.472 3.33-3.355v-13.288c0-1.838-1.492-3.357-3.33-3.357zM13.75 0.625v3.125h-3.125v-3.125h3.125zM9.375 0.625v3.125h-3.125v-3.125h3.125zM0.625 3.75v-0.393c0-1.506 1.202-2.732 2.681-2.732h1.694v3.125h-4.375zM15 12.5h-3.75v3.75h-2.5v-3.75h-3.75v-2.5h3.75v-3.75h2.5v3.75h3.75v2.5zM19.375 3.75h-4.375v-3.125h1.67c1.491 0 2.705 1.226 2.705 2.732v0.393z" fill="#ffffff" />
</svg>
