<?xml version="1.0" encoding="utf-8"?>
<!-- Generated by IcoMoon.io -->
<!DOCTYPE svg PUBLIC "-//W3C//DTD SVG 1.1//EN" "http://www.w3.org/Graphics/SVG/1.1/DTD/svg11.dtd">
<svg version="1.1" xmlns="http://www.w3.org/2000/svg" xmlns:xlink="http://www.w3.org/1999/xlink" width="20" height="20" viewBox="0 0 20 20">
	<path d="M9.097 7.285c-0.241-0.85-0.631-1.101-1.238-1.101-0.065 0-0.131 0.009-0.194 0.026-0.264 0.075-0.472 0.295-0.588 0.62-0.119 0.33-0.127 0.675-0.023 1.067 0.184 0.7 0.682 1.209 1.185 1.209 0.065 0 0.131-0.009 0.194-0.026 0.547-0.155 0.891-0.993 0.664-1.795zM10 0.4c-5.302 0-9.6 4.298-9.6 9.6s4.298 9.6 9.6 9.6c5.303 0 9.6-4.298 9.6-9.6s-4.297-9.6-9.6-9.6zM9.447 14.122c-0.604 0.293-1.253 0.324-1.504 0.324-0.048 0-0.075-0.001-0.079-0.001 0 0-0.019 0-0.049 0-0.392 0-2.343-0.090-2.343-1.867 0-1.746 2.124-1.882 2.775-1.882h0.018c-0.375-0.502-0.297-1.008-0.297-1.008-0.033 0.002-0.082 0.004-0.141 0.004-0.246 0-0.719-0.039-1.125-0.302-0.497-0.319-0.749-0.864-0.749-1.619 0-2.131 2.326-2.217 2.35-2.218h2.323v0.051c0 0.26-0.466 0.31-0.785 0.354-0.108 0.015-0.324 0.037-0.386 0.068 0.589 0.314 0.684 0.809 0.684 1.545 0 0.837-0.328 1.28-0.676 1.592-0.215 0.192-0.385 0.345-0.385 0.547 0 0.198 0.232 0.402 0.502 0.639 0.441 0.388 1.046 0.919 1.046 1.811 0 0.922-0.397 1.582-1.179 1.962zM14.527 9.991h-1.516v1.516h-0.96v-1.516h-1.516v-0.96h1.516v-1.515h0.96v1.516h1.516v0.959zM8.223 11.151c-0.052 0-0.104 0.002-0.156 0.006-0.444 0.032-0.854 0.199-1.151 0.469-0.294 0.266-0.443 0.601-0.422 0.941 0.044 0.71 0.808 1.127 1.734 1.060 0.913-0.066 1.521-0.591 1.476-1.302-0.043-0.669-0.624-1.174-1.481-1.174z" fill="#ffffff" />
</svg>
