<?xml version="1.0" encoding="utf-8"?>
<!-- Generated by IcoMoon.io -->
<!DOCTYPE svg PUBLIC "-//W3C//DTD SVG 1.1//EN" "http://www.w3.org/Graphics/SVG/1.1/DTD/svg11.dtd">
<svg version="1.1" xmlns="http://www.w3.org/2000/svg" xmlns:xlink="http://www.w3.org/1999/xlink" width="20" height="20" viewBox="0 0 20 20">
	<path d="M3.302 12.238c0.464 1.881 1.054 2.701 3.022 3.562 1.969 0.86 2.904 1.8 3.676 1.8s1.647-0.822 3.616-1.684c1.969-0.859 1.444-1.123 1.908-3.002l-5.524 2.686-6.698-3.362zM19.511 7.336l-8.325-4.662c-0.652-0.365-1.719-0.365-2.371 0l-8.326 4.662c-0.652 0.365-0.652 0.963 0 1.328l8.325 4.662c0.652 0.365 1.719 0.365 2.371 0l5.382-3.014-5.836-1.367c-0.224 0.056-0.471 0.087-0.731 0.087-1.051 0-1.903-0.507-1.903-1.132s0.852-1.133 1.903-1.133c0.816 0 1.511 0.307 1.781 0.736l6.181 2.028 1.549-0.867c0.652-0.365 0.652-0.963 0-1.328zM16.967 16.172c-0.063 0.383 1.283 1.016 1.411-0.109 0.579-5.071-0.416-6.531-0.416-6.531l-1.395 0.781c0-0.001 1.183 1.125 0.4 5.859z" fill="#ffffff" />
</svg>
