<?xml version="1.0" encoding="utf-8"?>
<!-- Generated by IcoMoon.io -->
<!DOCTYPE svg PUBLIC "-//W3C//DTD SVG 1.1//EN" "http://www.w3.org/Graphics/SVG/1.1/DTD/svg11.dtd">
<svg version="1.1" xmlns="http://www.w3.org/2000/svg" xmlns:xlink="http://www.w3.org/1999/xlink" width="20" height="20" viewBox="0 0 20 20">
	<path d="M18.75 20h-17.5c-0.691 0-1.25-0.559-1.25-1.25v-17.5c0-0.691 0.559-1.25 1.25-1.25h17.5c0.691 0 1.25 0.559 1.25 1.25v17.5c0 0.691-0.559 1.25-1.25 1.25zM17.5 2.5h-15v15h15v-15zM8.75 8.75h-3.75v-3.75h3.75v3.75zM8.75 15h-3.75v-3.75h3.75v3.75zM15 8.75h-3.75v-3.75h3.75v3.75zM15 15h-3.75v-3.75h3.75v3.75z" fill="#ffffff" />
</svg>
