<?xml version="1.0" encoding="utf-8"?>
<!-- Generated by IcoMoon.io -->
<!DOCTYPE svg PUBLIC "-//W3C//DTD SVG 1.1//EN" "http://www.w3.org/Graphics/SVG/1.1/DTD/svg11.dtd">
<svg version="1.1" xmlns="http://www.w3.org/2000/svg" xmlns:xlink="http://www.w3.org/1999/xlink" width="20" height="20" viewBox="0 0 20 20">
	<path d="M7.5 11.25h-6.25c-0.691 0-1.25 0.559-1.25 1.25v6.25c0 0.691 0.559 1.25 1.25 1.25h6.25c0.691 0 1.25-0.559 1.25-1.25v-6.25c0-0.691-0.559-1.25-1.25-1.25zM6.25 17.5h-3.75v-3.75h3.75v3.75zM7.5 0h-6.25c-0.691 0-1.25 0.559-1.25 1.25v6.25c0 0.691 0.559 1.25 1.25 1.25h6.25c0.691 0 1.25-0.559 1.25-1.25v-6.25c0-0.691-0.559-1.25-1.25-1.25zM6.25 6.25h-3.75v-3.75h3.75v3.75zM18.75 11.25h-6.25c-0.691 0-1.25 0.559-1.25 1.25v6.25c0 0.691 0.559 1.25 1.25 1.25h6.25c0.691 0 1.25-0.559 1.25-1.25v-6.25c0-0.691-0.559-1.25-1.25-1.25zM17.5 17.5h-3.75v-3.75h3.75v3.75zM18.75 0h-6.25c-0.691 0-1.25 0.559-1.25 1.25v6.25c0 0.691 0.559 1.25 1.25 1.25h6.25c0.691 0 1.25-0.559 1.25-1.25v-6.25c0-0.691-0.559-1.25-1.25-1.25zM17.5 6.25h-3.75v-3.75h3.75v3.75z" fill="#ffffff" />
</svg>
