<?xml version="1.0" encoding="utf-8"?>
<!-- Generated by IcoMoon.io -->
<!DOCTYPE svg PUBLIC "-//W3C//DTD SVG 1.1//EN" "http://www.w3.org/Graphics/SVG/1.1/DTD/svg11.dtd">
<svg version="1.1" xmlns="http://www.w3.org/2000/svg" xmlns:xlink="http://www.w3.org/1999/xlink" width="20" height="20" viewBox="0 0 20 20">
	<path d="M10 0c-5.523 0-10 4.477-10 10s4.477 10 10 10c5.523 0 10-4.477 10-10s-4.477-10-10-10zM13.75 4.609c1.249 0 2.266 1.016 2.266 2.266 0 0.125-0.011 0.251-0.032 0.377-0.032 0.188-0.194 0.326-0.385 0.326s-0.354-0.138-0.385-0.326c-0.12-0.716-0.736-1.041-1.463-1.041s-1.343 0.325-1.463 1.041c-0.032 0.188-0.194 0.326-0.385 0.326-0 0 0 0-0 0-0.191 0-0.354-0.138-0.385-0.326-0.021-0.126-0.032-0.253-0.032-0.377 0-1.249 1.016-2.266 2.266-2.266zM6.25 4.609c1.249 0 2.266 1.016 2.266 2.266 0 0.125-0.011 0.251-0.032 0.377-0.032 0.188-0.194 0.326-0.385 0.326-0.191 0-0.354-0.138-0.385-0.326-0.12-0.716-0.736-1.041-1.463-1.041s-1.343 0.325-1.463 1.041c-0.032 0.188-0.194 0.326-0.385 0.326 0 0 0 0 0 0-0.191 0-0.354-0.138-0.385-0.326-0.021-0.126-0.032-0.253-0.032-0.377 0-1.249 1.016-2.266 2.266-2.266zM3.75 11.25h3.75v4.841c-2.15-0.559-3.75-2.522-3.75-4.841zM8.75 16.25v-5h2.5v5h-2.5zM12.5 16.091v-4.841h3.75c0 2.319-1.6 4.282-3.75 4.841z" fill="#ffffff" />
</svg>
