<?xml version="1.0" encoding="utf-8"?>
<!-- Generated by IcoMoon.io -->
<!DOCTYPE svg PUBLIC "-//W3C//DTD SVG 1.1//EN" "http://www.w3.org/Graphics/SVG/1.1/DTD/svg11.dtd">
<svg version="1.1" xmlns="http://www.w3.org/2000/svg" xmlns:xlink="http://www.w3.org/1999/xlink" width="20" height="20" viewBox="0 0 20 20">
	<path d="M19.73 17.886l-10.716-9.755 0.499-0.5c0.408-0.409 0.629-0.938 0.662-1.477 0.020-0.009 0.039-0.018 0.058-0.028l2.012-1.258c0.272-0.32 0.252-0.826-0.045-1.123l-3.498-3.508c-0.297-0.298-0.801-0.318-1.12-0.045l-1.255 2.017c-0.010 0.019-0.019 0.038-0.028 0.058-0.537 0.034-1.064 0.255-1.473 0.664l-1.903 1.908c-0.408 0.409-0.629 0.938-0.662 1.477-0.020 0.009-0.039 0.018-0.058 0.028l-2.011 1.258c-0.272 0.32-0.252 0.825 0.044 1.123l3.498 3.508c0.297 0.298 0.801 0.318 1.12 0.045l1.254-2.017c0.010-0.019 0.019-0.038 0.028-0.058 0.537-0.034 1.065-0.255 1.473-0.664l0.553-0.554 9.729 10.744c0.282 0.311 0.717 0.362 0.966 0.112l0.984-0.986c0.249-0.25 0.199-0.686-0.111-0.969z" fill="#ffffff" />
</svg>
