<?xml version="1.0" encoding="utf-8"?>
<!-- Generated by IcoMoon.io -->
<!DOCTYPE svg PUBLIC "-//W3C//DTD SVG 1.1//EN" "http://www.w3.org/Graphics/SVG/1.1/DTD/svg11.dtd">
<svg version="1.1" xmlns="http://www.w3.org/2000/svg" xmlns:xlink="http://www.w3.org/1999/xlink" width="20" height="20" viewBox="0 0 20 20">
	<path d="M10 20c5.523 0 10-4.477 10-10s-4.477-10-10-10-10 4.477-10 10 4.477 10 10 10zM10 1.875c4.487 0 8.125 3.638 8.125 8.125s-3.638 8.125-8.125 8.125-8.125-3.638-8.125-8.125 3.638-8.125 8.125-8.125zM10 11.695c2.265 0 4.419-0.602 6.25-1.659-0.285 3.485-2.991 6.214-6.25 6.214-3.259 0-5.965-2.732-6.25-6.217 1.831 1.057 3.985 1.661 6.25 1.661zM5 6.875c0-1.036 0.56-1.875 1.25-1.875s1.25 0.839 1.25 1.875c0 1.036-0.56 1.875-1.25 1.875-0.69 0-1.25-0.839-1.25-1.875zM12.5 6.875c0-1.036 0.56-1.875 1.25-1.875s1.25 0.839 1.25 1.875c0 1.036-0.56 1.875-1.25 1.875-0.69 0-1.25-0.839-1.25-1.875z" fill="#ffffff" />
</svg>
