<?xml version="1.0" encoding="utf-8"?>
<!-- Generated by IcoMoon.io -->
<!DOCTYPE svg PUBLIC "-//W3C//DTD SVG 1.1//EN" "http://www.w3.org/Graphics/SVG/1.1/DTD/svg11.dtd">
<svg version="1.1" xmlns="http://www.w3.org/2000/svg" xmlns:xlink="http://www.w3.org/1999/xlink" width="20" height="20" viewBox="0 0 20 20">
	<path d="M3.75 11.295v8.661c0.204 0.029 0.413 0.045 0.625 0.045h0.625v-8.75h-0.625c-0.212 0-0.421 0.015-0.625 0.045zM15 11.25v8.75h0.625c0.212 0 0.421-0.015 0.625-0.045v-8.661c-0.204-0.029-0.413-0.045-0.625-0.045h-0.625zM20 10c0-5.523-4.477-10-10-10s-10 4.477-10 10c0 1.2 0.211 2.35 0.599 3.416-0.38 0.648-0.599 1.403-0.599 2.209 0 1.745 1.022 3.252 2.5 3.954v-7.907c-0.393 0.187-0.754 0.431-1.071 0.721-0.117-0.571-0.179-1.162-0.179-1.767 0-4.832 3.918-8.75 8.75-8.75s8.75 3.918 8.75 8.75c0 0.605-0.061 1.196-0.179 1.767-0.318-0.29-0.678-0.534-1.071-0.721v7.907c1.478-0.702 2.5-2.209 2.5-3.954 0-0.806-0.218-1.561-0.599-2.209 0.387-1.066 0.599-2.216 0.599-3.416z" fill="#ffffff" />
</svg>
