<?xml version="1.0" encoding="utf-8"?>
<!-- Generated by IcoMoon.io -->
<!DOCTYPE svg PUBLIC "-//W3C//DTD SVG 1.1//EN" "http://www.w3.org/Graphics/SVG/1.1/DTD/svg11.dtd">
<svg version="1.1" xmlns="http://www.w3.org/2000/svg" xmlns:xlink="http://www.w3.org/1999/xlink" width="20" height="20" viewBox="0 0 20 20">
	<path d="M20 6.995c0 1.687-0.727 3.204-1.885 4.255h0.010l-6.25 6.25c-0.625 0.625-1.25 1.25-1.875 1.25s-1.25-0.625-1.875-1.25l-6.24-6.25c-1.158-1.051-1.885-2.568-1.885-4.255 0-3.173 2.572-5.745 5.745-5.745 1.083 0 2.096 0.3 2.96 0.821l-1.831 2.929 4.375 2.5-2.5 6.25 6.875-7.5-4.375-2.5 1.541-2.311c0.467-0.123 0.958-0.189 1.464-0.189 3.173 0 5.745 2.572 5.745 5.745z" fill="#ffffff" />
</svg>
