<?xml version="1.0" encoding="utf-8"?>
<!-- Generated by IcoMoon.io -->
<!DOCTYPE svg PUBLIC "-//W3C//DTD SVG 1.1//EN" "http://www.w3.org/Graphics/SVG/1.1/DTD/svg11.dtd">
<svg version="1.1" xmlns="http://www.w3.org/2000/svg" xmlns:xlink="http://www.w3.org/1999/xlink" width="20" height="20" viewBox="0 0 20 20">
	<path d="M20 6.995c0-3.173-2.572-5.745-5.745-5.745-1.687 0-3.204 0.727-4.255 1.885-1.051-1.158-2.568-1.885-4.255-1.885-3.173 0-5.745 2.572-5.745 5.745 0 1.687 0.727 3.204 1.885 4.255h-0.010l6.25 6.25c0.625 0.625 1.25 1.25 1.875 1.25s1.25-0.625 1.875-1.25l6.24-6.25c1.158-1.051 1.885-2.568 1.885-4.255zM16.435 9.399l-6.328 6.333c-0.033 0.033-0.069 0.069-0.107 0.107-0.038-0.038-0.074-0.074-0.107-0.107l-6.328-6.333c-0.687-0.624-1.065-1.477-1.065-2.404 0-1.789 1.456-3.245 3.245-3.245 0.927 0 1.78 0.378 2.404 1.065l1.851 2.039 1.851-2.039c0.624-0.687 1.477-1.065 2.404-1.065 1.789 0 3.245 1.456 3.245 3.245 0 0.927-0.378 1.78-1.065 2.404z" fill="#ffffff" />
</svg>
