<?xml version="1.0" encoding="utf-8"?>
<!-- Generated by IcoMoon.io -->
<!DOCTYPE svg PUBLIC "-//W3C//DTD SVG 1.1//EN" "http://www.w3.org/Graphics/SVG/1.1/DTD/svg11.dtd">
<svg version="1.1" xmlns="http://www.w3.org/2000/svg" xmlns:xlink="http://www.w3.org/1999/xlink" width="20" height="20" viewBox="0 0 20 20">
	<path d="M18.246 3.291c-2.268-2.248-5.895-2.294-8.244-0.18-2.35-2.114-5.976-2.067-8.245 0.18-2.338 2.315-2.338 6.068 0 8.384 0.668 0.662 6.908 6.838 6.908 6.838 0.739 0.732 1.935 0.732 2.674 0 0 0 6.832-6.764 6.908-6.838 2.339-2.316 2.339-6.069-0.001-8.384zM17.355 10.793l-6.908 6.838c-0.246 0.244-0.646 0.244-0.891 0l-6.908-6.838c-1.844-1.825-1.844-4.794 0-6.619 1.777-1.759 4.635-1.821 6.506-0.139l0.848 0.762 0.847-0.762c1.871-1.683 4.729-1.621 6.506 0.139 1.844 1.824 1.844 4.794 0.001 6.619zM5.783 4.688c0.173 0 0.313 0.14 0.313 0.313s-0.14 0.313-0.313 0.313h-0.001c-1.121 0-2.031 0.909-2.031 2.031v0.001c0 0.172-0.14 0.313-0.313 0.313s-0.313-0.14-0.313-0.313v0c0-1.466 1.188-2.654 2.654-2.656 0.001 0 0.001-0.001 0.002-0.001z" fill="#ffffff" />
</svg>
