<?xml version="1.0" encoding="utf-8"?>
<!-- Generated by IcoMoon.io -->
<!DOCTYPE svg PUBLIC "-//W3C//DTD SVG 1.1//EN" "http://www.w3.org/Graphics/SVG/1.1/DTD/svg11.dtd">
<svg version="1.1" xmlns="http://www.w3.org/2000/svg" xmlns:xlink="http://www.w3.org/1999/xlink" width="20" height="20" viewBox="0 0 20 20">
	<path d="M20 7.5c0 5.546-10 12.5-10 12.5s-10-6.954-10-12.5c-0.011-0.553 0.046-1.173 0-1.875-0.206-3.099 2.518-5.625 5.625-5.625 1.779 0 3.345 1.212 4.375 2.5 1.030-1.288 2.596-2.5 4.375-2.5 3.107 0 5.831 2.526 5.625 5.625-0.046 0.702 0.011 1.322 0 1.875zM17.5 5.625c0.155-1.719-1.399-3.125-3.125-3.125-3.239 0-3.125 2.5-3.125 2.5 0 0.691-0.559 1.25-1.25 1.25s-1.25-0.559-1.25-1.25c0 0 0.114-2.5-3.125-2.5-1.726 0-3.28 1.406-3.125 3.125 0.063 0.706-0.040 1.353 0.017 1.875-0.001 0-0.015 0-0.017 0 0.078-0.018-0.43 3.683 7.485 9.344 0.006-0.004 0.010-0.007 0.015-0.011 0.005 0.004 0.009 0.007 0.015 0.011 7.915-5.662 7.407-9.363 7.485-9.344-0.002 0-0.016 0-0.017 0 0.057-0.522-0.046-1.169 0.017-1.875z" fill="#ffffff" />
</svg>
