<?xml version="1.0" encoding="utf-8"?>
<!-- Generated by IcoMoon.io -->
<!DOCTYPE svg PUBLIC "-//W3C//DTD SVG 1.1//EN" "http://www.w3.org/Graphics/SVG/1.1/DTD/svg11.dtd">
<svg version="1.1" xmlns="http://www.w3.org/2000/svg" xmlns:xlink="http://www.w3.org/1999/xlink" width="20" height="20" viewBox="0 0 20 20">
	<path d="M17.189 4.15c-1.672-1.534-4.383-1.534-6.055 0l-1.134 1.042-1.135-1.042c-1.672-1.534-4.382-1.534-6.054 0-1.881 1.727-1.881 4.524 0 6.251l7.189 6.599 7.189-6.599c1.881-1.726 1.881-4.524 0-6.251zM16.125 9.375l-6.125 5.714-6.124-5.714c-0.618-0.566-0.857-1.312-0.857-2.1 0-0.786 0.138-1.432 0.756-1.999 0.545-0.501 1.278-0.776 2.062-0.776 0.785 0 1.518 0.476 2.063 0.977l2.1 1.826 2.1-1.826c0.545-0.501 1.277-0.977 2.062-0.977s1.518 0.275 2.064 0.776c0.617 0.567 0.754 1.213 0.756 1.999 0 0.787-0.24 1.534-0.857 2.1z" fill="#ffffff" />
</svg>
