<?xml version="1.0" encoding="utf-8"?>
<!-- Generated by IcoMoon.io -->
<!DOCTYPE svg PUBLIC "-//W3C//DTD SVG 1.1//EN" "http://www.w3.org/Graphics/SVG/1.1/DTD/svg11.dtd">
<svg version="1.1" xmlns="http://www.w3.org/2000/svg" xmlns:xlink="http://www.w3.org/1999/xlink" width="20" height="20" viewBox="0 0 20 20">
	<path d="M9.878 0.801c-5.081 0.068-9.145 4.242-9.077 9.323 0.068 5.078 4.242 9.143 9.323 9.075 5.079-0.068 9.144-4.242 9.075-9.323-0.067-5.079-4.241-9.143-9.321-9.075zM9.851 15.6h-0.051c-0.782-0.023-1.334-0.6-1.312-1.371 0.022-0.757 0.587-1.308 1.344-1.308l0.046 0.001c0.804 0.024 1.35 0.595 1.326 1.388-0.022 0.759-0.579 1.29-1.353 1.29zM13.142 9.068c-0.185 0.261-0.589 0.586-1.099 0.983l-0.562 0.388c-0.308 0.24-0.494 0.465-0.563 0.686-0.056 0.176-0.082 0.221-0.087 0.576l-0.001 0.091h-2.143l0.006-0.182c0.026-0.746 0.045-1.184 0.354-1.547 0.485-0.569 1.555-1.258 1.6-1.287 0.153-0.116 0.282-0.247 0.379-0.387 0.225-0.31 0.324-0.555 0.324-0.794 0-0.333-0.099-0.641-0.294-0.915-0.188-0.265-0.545-0.399-1.061-0.399-0.512 0-0.862 0.163-1.072 0.496-0.217 0.343-0.325 0.702-0.325 1.070v0.092h-2.21l0.004-0.096c0.057-1.354 0.54-2.328 1.436-2.897 0.562-0.363 1.262-0.546 2.078-0.546 1.069 0 1.973 0.26 2.683 0.772 0.72 0.519 1.085 1.297 1.085 2.311 0 0.568-0.179 1.101-0.532 1.585z" fill="#ffffff" />
</svg>
