<?xml version="1.0" encoding="utf-8"?>
<!-- Generated by IcoMoon.io -->
<!DOCTYPE svg PUBLIC "-//W3C//DTD SVG 1.1//EN" "http://www.w3.org/Graphics/SVG/1.1/DTD/svg11.dtd">
<svg version="1.1" xmlns="http://www.w3.org/2000/svg" xmlns:xlink="http://www.w3.org/1999/xlink" width="20" height="20" viewBox="0 0 20 20">
	<path d="M11.227 1.8c-4.446 0-8.061 3.562-8.169 7.995h-2.458l3.679 4.101 3.678-4.101h-2.856c0.108-3.301 2.808-5.945 6.126-5.945 3.386 0 6.13 2.753 6.13 6.15s-2.744 6.15-6.13 6.15c-1.358 0-2.612-0.444-3.628-1.193l-1.406 1.504c1.388 1.089 3.135 1.739 5.034 1.739 4.514 0 8.174-3.671 8.174-8.2-0.001-4.529-3.661-8.2-8.174-8.2zM10.5 5.6v4.69l3.005 3.005 0.99-0.99-2.595-2.595v-4.11h-1.4z" fill="#ffffff" />
</svg>
