<?xml version="1.0" encoding="utf-8"?>
<!-- Generated by IcoMoon.io -->
<!DOCTYPE svg PUBLIC "-//W3C//DTD SVG 1.1//EN" "http://www.w3.org/Graphics/SVG/1.1/DTD/svg11.dtd">
<svg version="1.1" xmlns="http://www.w3.org/2000/svg" xmlns:xlink="http://www.w3.org/1999/xlink" width="20" height="20" viewBox="0 0 20 20">
	<path d="M19.636 7.753l-7.387-7.386c-0.282-0.283-0.66-0.392-1.030-0.362h-2.438c-0.37-0.031-0.748 0.079-1.030 0.362l-1.5 1.5v-1.862h-3.749v5.611l-2.138 2.138c-0.283 0.283-0.392 0.661-0.361 1.030v2.469c0 0.69 0.559 1.25 1.25 1.25h1.25v6.248c0 0.69 0.559 1.25 1.25 1.25h12.497c0.691 0 1.25-0.56 1.25-1.25v-6.248h1.25c0.691 0 1.25-0.56 1.25-1.25v-2.469c0.031-0.369-0.078-0.747-0.361-1.030zM17.498 10.002h-2.499v7.498h-2.499v-4.999h-4.999v4.999h-2.499v-7.498h-2.499v-0.693l6.805-6.805h1.386l6.805 6.805v0.693z" fill="#ffffff" />
</svg>
