<?xml version="1.0" encoding="utf-8"?>
<!-- Generated by IcoMoon.io -->
<!DOCTYPE svg PUBLIC "-//W3C//DTD SVG 1.1//EN" "http://www.w3.org/Graphics/SVG/1.1/DTD/svg11.dtd">
<svg version="1.1" xmlns="http://www.w3.org/2000/svg" xmlns:xlink="http://www.w3.org/1999/xlink" width="20" height="20" viewBox="0 0 20 20">
	<path d="M15.6 4.578c0-2.14 0-2.349 0-2.349 0-0.79-2.507-2.229-5.6-2.229s-5.6 1.439-5.6 2.229c0 0 0 0.209 0 2.349 0 2.14 3.877 3.907 3.877 5.422 0 1.516-3.877 3.282-3.877 5.423 0 2.14 0 2.349 0 2.349 0 0.789 2.507 2.228 5.6 2.228s5.6-1.439 5.6-2.229c0 0 0-0.209 0-2.349 0-2.141-3.876-3.907-3.876-5.423 0-1.514 3.876-3.282 3.876-5.421zM5.94 2.329c0.696-0.439 2.001-1.083 4.114-1.083 2.114 0 4.006 1.083 4.006 1.083 0.142 0.086 0.698 0.384 0.317 0.609-0.839 0.497-2.479 1.020-4.378 1.020s-3.483-0.577-4.322-1.074c-0.381-0.226 0.263-0.555 0.263-0.555zM10.501 10c0 1.193 0.996 1.961 2.052 2.986 0.771 0.749 1.825 1.774 1.825 2.437v1.328c-0.969-0.483-3.871-0.956-3.871-2.504 0-0.784-1.014-0.784-1.014 0 0 1.548-2.902 2.021-3.871 2.504v-1.328c0-0.662 1.055-1.688 1.826-2.437 1.055-1.025 2.051-1.793 2.051-2.986 0-1.193-0.996-1.961-2.051-2.986-0.771-0.749-1.826-1.775-1.826-2.436l-0.047-1c1.026 0.552 2.653 1.079 4.425 1.079s3.407-0.527 4.433-1.079l-0.055 1c0 0.661-1.055 1.687-1.825 2.436-1.056 1.025-2.052 1.793-2.052 2.986z" fill="#ffffff" />
</svg>
