<?xml version="1.0" encoding="utf-8"?>
<!-- Generated by IcoMoon.io -->
<!DOCTYPE svg PUBLIC "-//W3C//DTD SVG 1.1//EN" "http://www.w3.org/Graphics/SVG/1.1/DTD/svg11.dtd">
<svg version="1.1" xmlns="http://www.w3.org/2000/svg" xmlns:xlink="http://www.w3.org/1999/xlink" width="20" height="20" viewBox="0 0 20 20">
	<path d="M19.667 5.167l-4.833-4.833c-0.445-0.444-1.166-0.444-1.611 0l-4.833 4.833c-0.446 0.444-0.446 1.166 0 1.612l0.805 0.805 4.833-4.833 3.223 3.223-4.833 4.833 0.806 0.806c0.444 0.445 1.166 0.445 1.611 0l4.833-4.833c0.445-0.446 0.445-1.167 0-1.612zM10.806 12.417l-4.833 4.833-3.223-3.223 4.833-4.833-0.806-0.806c-0.444-0.445-1.166-0.445-1.611 0l-4.833 4.833c-0.444 0.446-0.444 1.167 0 1.612l4.833 4.833c0.444 0.444 1.166 0.444 1.611 0l4.833-4.833c0.446-0.444 0.446-1.166 0-1.612l-0.805-0.805zM6.777 13.221c0.446 0.446 1.166 0.446 1.612 0l4.833-4.833c0.444-0.445 0.444-1.165 0-1.609-0.446-0.446-1.166-0.446-1.612 0l-4.833 4.833c-0.444 0.445-0.444 1.165 0 1.609z" fill="#ffffff" />
</svg>
