<?xml version="1.0" encoding="utf-8"?>
<!-- Generated by IcoMoon.io -->
<!DOCTYPE svg PUBLIC "-//W3C//DTD SVG 1.1//EN" "http://www.w3.org/Graphics/SVG/1.1/DTD/svg11.dtd">
<svg version="1.1" xmlns="http://www.w3.org/2000/svg" xmlns:xlink="http://www.w3.org/1999/xlink" width="20" height="20" viewBox="0 0 20 20">
	<path d="M5.069 10c0-1.278 1.036-2.313 2.313-2.313s2.313 1.036 2.313 2.313c0 1.278-1.036 2.313-2.313 2.313-1.278 0-2.313-1.036-2.313-2.313zM10 0c-5.523 0-10 4.477-10 10s4.477 10 10 10c5.523 0 10-4.477 10-10 0-5.523-4.477-10-10-10zM7.41 18.736c-3.007-1.749-5.029-5.006-5.029-8.736 0-3.73 2.022-6.986 5.029-8.736 3.008 1.749 5.031 5.006 5.031 8.736 0 3.73-2.023 6.987-5.031 8.736z" fill="#ffffff" />
</svg>
