<?xml version="1.0" encoding="utf-8"?>
<!-- Generated by IcoMoon.io -->
<!DOCTYPE svg PUBLIC "-//W3C//DTD SVG 1.1//EN" "http://www.w3.org/Graphics/SVG/1.1/DTD/svg11.dtd">
<svg version="1.1" xmlns="http://www.w3.org/2000/svg" xmlns:xlink="http://www.w3.org/1999/xlink" width="20" height="20" viewBox="0 0 20 20">
	<path d="M14.34 12.282h4.61c0.036-0.32 0.050-0.646 0.050-0.98 0-1.567-0.421-3.036-1.155-4.302 0.759-2.018 0.732-3.73-0.284-4.754-0.967-0.962-3.56-0.806-6.492 0.492-0.217-0.016-0.436-0.025-0.657-0.025-4.024 0-7.401 2.769-8.334 6.501 1.262-1.616 2.591-2.788 4.365-3.642-0.161 0.151-1.103 1.087-1.261 1.245-4.679 4.677-6.154 10.787-4.567 12.375 1.207 1.207 3.394 1.003 5.906-0.227 1.168 0.595 2.49 0.93 3.891 0.93 3.772 0 6.969-2.428 8.127-5.81h-4.646c-0.639 1.179-1.89 1.982-3.325 1.982-1.435 0-2.685-0.803-3.325-1.982-0.284-0.533-0.448-1.144-0.448-1.79v-0.014h7.544zM6.803 10.016c0.107-1.897 1.684-3.41 3.609-3.41s3.502 1.513 3.609 3.41h-7.217zM17.519 3.199c0.655 0.662 0.638 1.879 0.078 3.399-0.96-1.463-2.354-2.616-4-3.274 1.76-0.755 3.192-0.855 3.921-0.125zM1.826 18.892c-0.836-0.836-0.584-2.59 0.493-4.704 0.67 1.88 1.976 3.459 3.659 4.476-1.864 0.846-3.389 0.99-4.152 0.228z" fill="#ffffff" />
</svg>
