<?xml version="1.0" encoding="utf-8"?>
<!-- Generated by IcoMoon.io -->
<!DOCTYPE svg PUBLIC "-//W3C//DTD SVG 1.1//EN" "http://www.w3.org/Graphics/SVG/1.1/DTD/svg11.dtd">
<svg version="1.1" xmlns="http://www.w3.org/2000/svg" xmlns:xlink="http://www.w3.org/1999/xlink" width="20" height="20" viewBox="0 0 20 20">
	<path d="M18.75 0h-8.75c-0.691 0-1.25 0.56-1.25 1.25s0.559 1.25 1.25 1.25h7.5v15h-7.5c-0.691 0-1.25 0.56-1.25 1.25s0.559 1.25 1.25 1.25h8.75c0.691 0 1.25-0.56 1.25-1.25v-17.5c0-0.69-0.559-1.25-1.25-1.25zM8.75 15l5-5-5-5v3.75h-7.633c-0.617 0-1.117 0.56-1.117 1.25s0.5 1.25 1.117 1.25h7.633v3.75z" fill="#ffffff" />
</svg>
