<?xml version="1.0" encoding="utf-8"?>
<!-- Generated by IcoMoon.io -->
<!DOCTYPE svg PUBLIC "-//W3C//DTD SVG 1.1//EN" "http://www.w3.org/Graphics/SVG/1.1/DTD/svg11.dtd">
<svg version="1.1" xmlns="http://www.w3.org/2000/svg" xmlns:xlink="http://www.w3.org/1999/xlink" width="20" height="20" viewBox="0 0 20 20">
	<path d="M18.75 8.75c-0.691 0-1.25 0.56-1.25 1.25v7.5h-15v-7.5c0-0.69-0.559-1.25-1.25-1.25s-1.25 0.56-1.25 1.25v8.75c0 0.69 0.559 1.25 1.25 1.25h17.5c0.691 0 1.25-0.56 1.25-1.25v-8.75c0-0.69-0.559-1.25-1.25-1.25zM11.25 8.75v-7.653c0-0.606-0.559-1.097-1.25-1.097s-1.25 0.491-1.25 1.097v7.653h-3.75l5 5 5-5h-3.75z" fill="#ffffff" />
</svg>
