<?xml version="1.0" encoding="utf-8"?>
<!-- Generated by IcoMoon.io -->
<!DOCTYPE svg PUBLIC "-//W3C//DTD SVG 1.1//EN" "http://www.w3.org/Graphics/SVG/1.1/DTD/svg11.dtd">
<svg version="1.1" xmlns="http://www.w3.org/2000/svg" xmlns:xlink="http://www.w3.org/1999/xlink" width="20" height="20" viewBox="0 0 20 20">
	<path d="M15.902 5.6c-2.079 0-4.357 1.158-5.902 2.915-1.545-1.757-3.824-2.915-5.903-2.915-1.981 0-4.097 1.156-4.097 4.4s2.116 4.399 4.097 4.4v0c2.080 0 4.358-1.158 5.903-2.915 1.545 1.757 3.823 2.915 5.902 2.915 1.982 0 4.098-1.156 4.098-4.4s-2.116-4.4-4.098-4.4zM4.097 12.64c-1.512 0-2.279-0.888-2.279-2.64s0.767-2.641 2.279-2.641c1.672 0 3.614 1.086 4.806 2.641-1.192 1.555-3.133 2.64-4.806 2.64zM15.902 12.64c-1.672 0-3.614-1.085-4.806-2.64 1.191-1.555 3.134-2.641 4.806-2.641 1.513 0 2.279 0.889 2.279 2.641s-0.766 2.64-2.279 2.64z" fill="#ffffff" />
</svg>
