<?xml version="1.0" encoding="utf-8"?>
<!-- Generated by IcoMoon.io -->
<!DOCTYPE svg PUBLIC "-//W3C//DTD SVG 1.1//EN" "http://www.w3.org/Graphics/SVG/1.1/DTD/svg11.dtd">
<svg version="1.1" xmlns="http://www.w3.org/2000/svg" xmlns:xlink="http://www.w3.org/1999/xlink" width="20" height="20" viewBox="0 0 20 20">
	<path d="M9.877 0.801c-5.080 0.068-9.144 4.242-9.076 9.323 0.068 5.078 4.242 9.143 9.322 9.075 5.080-0.068 9.144-4.242 9.076-9.323-0.067-5.079-4.242-9.143-9.322-9.075zM10.897 3.867c0.935 0 1.211 0.542 1.211 1.163 0 0.775-0.621 1.492-1.68 1.492-0.886 0-1.307-0.446-1.282-1.182 0-0.621 0.52-1.473 1.751-1.473zM8.499 15.75c-0.639 0-1.107-0.388-0.66-2.094l0.733-3.024c0.127-0.485 0.148-0.679 0-0.679-0.191 0-1.021 0.335-1.512 0.665l-0.319-0.523c1.555-1.298 3.343-2.060 4.109-2.060 0.639 0 0.745 0.756 0.426 1.919l-0.84 3.18c-0.148 0.562-0.084 0.756 0.064 0.756 0.191 0 0.82-0.232 1.438-0.718l0.361 0.485c-1.511 1.511-3.16 2.093-3.8 2.093z" fill="#ffffff" />
</svg>
