<?xml version="1.0" encoding="utf-8"?>
<!-- Generated by IcoMoon.io -->
<!DOCTYPE svg PUBLIC "-//W3C//DTD SVG 1.1//EN" "http://www.w3.org/Graphics/SVG/1.1/DTD/svg11.dtd">
<svg version="1.1" xmlns="http://www.w3.org/2000/svg" xmlns:xlink="http://www.w3.org/1999/xlink" width="20" height="20" viewBox="0 0 20 20">
	<path d="M12.432 0c1.34 0 2.010 0.914 2.010 1.958 0 1.304-1.164 2.511-2.678 2.511-1.27 0-2.010-0.75-1.975-1.989 0-1.045 0.88-2.48 2.643-2.48zM8.309 20c-1.058 0-1.833-0.652-1.093-3.523l1.214-5.091c0.211-0.815 0.246-1.142 0-1.142-0.318 0-1.69 0.563-2.502 1.118l-0.528-0.881c2.573-2.186 5.532-3.467 6.801-3.467 1.057 0 1.232 1.272 0.705 3.229l-1.391 5.352c-0.246 0.946-0.141 1.272 0.105 1.272 0.318 0 1.357-0.393 2.379-1.208l0.6 0.815c-2.501 2.546-5.233 3.526-6.29 3.526z" fill="#ffffff" />
</svg>
