<?xml version="1.0" encoding="utf-8"?>
<!-- Generated by IcoMoon.io -->
<!DOCTYPE svg PUBLIC "-//W3C//DTD SVG 1.1//EN" "http://www.w3.org/Graphics/SVG/1.1/DTD/svg11.dtd">
<svg version="1.1" xmlns="http://www.w3.org/2000/svg" xmlns:xlink="http://www.w3.org/1999/xlink" width="20" height="20" viewBox="0 0 20 20">
	<path d="M7.5 3.75h2.5v1.25h-2.5zM11.25 3.75h2.5v1.25h-2.5zM17.5 3.75v5h-3.75v-1.25h2.5v-2.5h-1.25v-1.25zM6.25 7.5h2.5v1.25h-2.5zM10 7.5h2.5v1.25h-2.5zM3.75 5v2.5h1.25v1.25h-2.5v-5h3.75v1.25zM7.5 11.25h2.5v1.25h-2.5zM11.25 11.25h2.5v1.25h-2.5zM17.5 11.25v5h-3.75v-1.25h2.5v-2.5h-1.25v-1.25zM6.25 15h2.5v1.25h-2.5zM10 15h2.5v1.25h-2.5zM3.75 12.5v2.5h1.25v1.25h-2.5v-5h3.75v1.25zM18.75 1.25h-17.5v17.5h17.5v-17.5zM20 0v0 20h-20v-20h20z" fill="#ffffff" />
</svg>
