<?xml version="1.0" encoding="utf-8"?>
<!-- Generated by IcoMoon.io -->
<!DOCTYPE svg PUBLIC "-//W3C//DTD SVG 1.1//EN" "http://www.w3.org/Graphics/SVG/1.1/DTD/svg11.dtd">
<svg version="1.1" xmlns="http://www.w3.org/2000/svg" xmlns:xlink="http://www.w3.org/1999/xlink" width="20" height="20" viewBox="0 0 20 20">
	<path d="M16.68 0h-13.359c-1.826 0-3.32 1.494-3.32 3.32v13.359c0 1.826 1.494 3.32 3.32 3.32h13.359c1.826 0 3.32-1.494 3.32-3.32v-13.359c0-1.826-1.494-3.32-3.32-3.32zM6.402 8.75h7.195c0.136 0.392 0.211 0.812 0.211 1.25 0 2.1-1.709 3.809-3.809 3.809-2.1 0-3.809-1.709-3.809-3.809 0-0.438 0.074-0.858 0.211-1.25zM17.5 8.751v7.499c0 0.688-0.563 1.25-1.25 1.25h-12.5c-0.688 0-1.25-0.563-1.25-1.25v-7.5h1.955c-0.091 0.402-0.139 0.821-0.139 1.25 0 3.134 2.55 5.684 5.684 5.684 3.134 0 5.684-2.55 5.684-5.684 0-0.429-0.048-0.848-0.139-1.25l1.955 0.001zM17.5 4.375c0 0.344-0.281 0.625-0.625 0.625h-1.25c-0.344 0-0.625-0.281-0.625-0.625v-1.25c0-0.344 0.281-0.625 0.625-0.625h1.25c0.344 0 0.625 0.281 0.625 0.625v1.25z" fill="#ffffff" />
</svg>
