<?xml version="1.0" encoding="utf-8"?>
<!-- Generated by IcoMoon.io -->
<!DOCTYPE svg PUBLIC "-//W3C//DTD SVG 1.1//EN" "http://www.w3.org/Graphics/SVG/1.1/DTD/svg11.dtd">
<svg version="1.1" xmlns="http://www.w3.org/2000/svg" xmlns:xlink="http://www.w3.org/1999/xlink" width="20" height="20" viewBox="0 0 20 20">
	<path d="M18.75 0h-17.5c-0.691 0-1.25 0.559-1.25 1.25v17.5c0 0.691 0.559 1.25 1.25 1.25h17.5c0.691 0 1.25-0.559 1.25-1.25v-17.5c0-0.691-0.559-1.25-1.25-1.25zM7.5 10c0 0 0.198-2.5 2.5-2.5s2.5 2.5 2.5 2.5 0.072 2.5-2.5 2.5-2.5-2.5-2.5-2.5zM17.5 17.5h-15v-8.75h2.677c-0.104 0.402-0.177 0.815-0.177 1.25 0 2.761 2.239 5 5 5s5-2.239 5-5c0-0.435-0.073-0.848-0.177-1.25h2.677v8.75zM17.5 6.25h-3.75v-3.75h3.75v3.75z" fill="#ffffff" />
</svg>
