<?xml version="1.0" encoding="utf-8"?>
<!-- Generated by IcoMoon.io -->
<!DOCTYPE svg PUBLIC "-//W3C//DTD SVG 1.1//EN" "http://www.w3.org/Graphics/SVG/1.1/DTD/svg11.dtd">
<svg version="1.1" xmlns="http://www.w3.org/2000/svg" xmlns:xlink="http://www.w3.org/1999/xlink" width="20" height="20" viewBox="0 0 20 20">
	<path d="M15.2 10c0 2.872-2.329 5.2-5.2 5.2-2.872 0-5.2-2.328-5.2-5.2 0-0.342 0.034-0.676 0.098-1h-3.498v6.912c0 1.484 1.202 2.688 2.688 2.688h11.824c1.484 0 2.688-1.203 2.688-2.688v-6.912h-3.497c0.063 0.324 0.097 0.658 0.097 1zM15.912 1.4h-11.824c-1.485 0-2.688 1.204-2.688 2.688v2.912h4.354c0.941-1.33 2.492-2.2 4.246-2.2s3.305 0.87 4.246 2.2h4.354v-2.912c0-1.484-1.204-2.688-2.688-2.688zM17.227 4.72c0 0.265-0.216 0.48-0.48 0.48h-1.439c-0.264 0-0.48-0.216-0.48-0.48v-1.44c0-0.265 0.217-0.48 0.48-0.48h1.439c0.265 0 0.48 0.216 0.48 0.48v1.44zM13.2 10c0-1.768-1.433-3.2-3.2-3.2s-3.2 1.432-3.2 3.2 1.433 3.2 3.2 3.2 3.2-1.432 3.2-3.2z" fill="#ffffff" />
</svg>
