<?xml version="1.0" encoding="utf-8"?>
<!-- Generated by IcoMoon.io -->
<!DOCTYPE svg PUBLIC "-//W3C//DTD SVG 1.1//EN" "http://www.w3.org/Graphics/SVG/1.1/DTD/svg11.dtd">
<svg version="1.1" xmlns="http://www.w3.org/2000/svg" xmlns:xlink="http://www.w3.org/1999/xlink" width="20" height="20" viewBox="0 0 20 20">
	<path d="M5.195 5.404c0.641-0.641 1.68-0.641 2.32-0.001l0.153 0.154 1.975-1.976-0.154-0.154c-1.125-1.127-2.705-1.521-4.149-1.182-0.207-1.273-1.31-2.245-2.64-2.245-1.478 0-2.675 1.2-2.675 2.679 0 1.276 0.89 2.344 2.083 2.614-0.452 1.513-0.083 3.219 1.11 4.414l4.45 4.451 1.973-1.977-4.449-4.451c-0.638-0.639-0.639-1.682 0.004-2.326zM19.975 2.679c0-1.48-1.198-2.679-2.675-2.679-1.352 0-2.47 1.005-2.65 2.309-1.505-0.443-3.199-0.068-4.387 1.121l-4.45 4.451 1.975 1.976 4.449-4.45c0.643-0.644 1.679-0.643 2.318-0.004 0.641 0.641 0.641 1.682-0.001 2.323l-0.152 0.153 1.973 1.977 0.153-0.155c1.181-1.183 1.556-2.866 1.125-4.368 1.312-0.173 2.323-1.296 2.323-2.656zM17.701 14.669c0.354-1.454-0.039-3.053-1.174-4.189l-4.443-4.453-1.975 1.975 4.444 4.453c0.643 0.644 0.642 1.682 0.004 2.321-0.641 0.641-1.68 0.641-2.321-0.001l-0.152-0.152-1.973 1.977 0.151 0.151c1.201 1.203 2.922 1.571 4.441 1.103 0.247 1.224 1.327 2.145 2.622 2.145 1.477 0 2.675-1.198 2.675-2.678 0-1.352-1-2.47-2.299-2.653zM11.96 10.326l-4.444 4.453c-0.639 0.64-1.68 0.641-2.323-0.002-0.641-0.643-0.641-1.682-0.001-2.324l0.152-0.152-1.974-1.975-0.151 0.151c-1.148 1.148-1.534 2.77-1.161 4.238-1.18 0.279-2.058 1.341-2.058 2.607-0 1.479 1.198 2.678 2.675 2.678 1.271-0.001 2.336-0.887 2.608-2.078 1.459 0.362 3.066-0.025 4.206-1.167l4.443-4.452-1.973-1.977z" fill="#ffffff" />
</svg>
