<?xml version="1.0" encoding="utf-8"?>
<!-- Generated by IcoMoon.io -->
<!DOCTYPE svg PUBLIC "-//W3C//DTD SVG 1.1//EN" "http://www.w3.org/Graphics/SVG/1.1/DTD/svg11.dtd">
<svg version="1.1" xmlns="http://www.w3.org/2000/svg" xmlns:xlink="http://www.w3.org/1999/xlink" width="20" height="20" viewBox="0 0 20 20">
	<path d="M19.573 6.138l-1.975-1.975c-0.484-0.484-1.277-1.277-1.761-1.761l-1.975-1.975c-0.484-0.484-1.347-0.57-1.917-0.19l-5.399 3.599c-0.57 0.38-0.786 1.192-0.479 1.804l1.377 2.753c0.042 0.084 0.091 0.174 0.144 0.267l-6.963 6.963-0.625 4.375h3.75v-1.25h2.5v-2.5h2.5v-2.5h2.5v-1.39c0.125 0.074 0.245 0.141 0.355 0.196l2.753 1.377c0.613 0.306 1.425 0.091 1.804-0.479l3.599-5.399c0.38-0.57 0.294-1.432-0.19-1.917zM2.942 16.692l-0.884-0.884 6.085-6.085 0.884 0.884-6.085 6.085zM17.911 8.277l-0.884 0.884c-0.243 0.243-0.641 0.243-0.884 0l-5.303-5.303c-0.243-0.243-0.243-0.641 0-0.884l0.884-0.884c0.243-0.243 0.641-0.243 0.884 0l5.303 5.303c0.243 0.243 0.243 0.641 0 0.884z" fill="#ffffff" />
</svg>
