<?xml version="1.0" encoding="utf-8"?>
<!-- Generated by IcoMoon.io -->
<!DOCTYPE svg PUBLIC "-//W3C//DTD SVG 1.1//EN" "http://www.w3.org/Graphics/SVG/1.1/DTD/svg11.dtd">
<svg version="1.1" xmlns="http://www.w3.org/2000/svg" xmlns:xlink="http://www.w3.org/1999/xlink" width="20" height="20" viewBox="0 0 20 20">
	<path d="M13.75 0c-3.452 0-6.25 2.798-6.25 6.25 0 0.391 0.036 0.774 0.105 1.145l-7.605 7.605v3.75c0 0.69 0.56 1.25 1.25 1.25h1.25v-1.25h2.5v-2.5h2.5v-2.5h2.5l1.622-1.622c0.664 0.241 1.381 0.372 2.128 0.372 3.452 0 6.25-2.798 6.25-6.25s-2.798-6.25-6.25-6.25zM15.623 6.252c-1.036 0-1.875-0.839-1.875-1.875s0.839-1.875 1.875-1.875 1.875 0.839 1.875 1.875-0.839 1.875-1.875 1.875z" fill="#ffffff" />
</svg>
