<?xml version="1.0" encoding="utf-8"?>
<!-- Generated by IcoMoon.io -->
<!DOCTYPE svg PUBLIC "-//W3C//DTD SVG 1.1//EN" "http://www.w3.org/Graphics/SVG/1.1/DTD/svg11.dtd">
<svg version="1.1" xmlns="http://www.w3.org/2000/svg" xmlns:xlink="http://www.w3.org/1999/xlink" width="20" height="20" viewBox="0 0 20 20">
	<path d="M13.753 0c-3.452 0-6.25 2.799-6.25 6.25 0 0.803 0.168 1.563 0.446 2.268l-7.593 7.592c-0.219 0.22-0.355 0.429-0.355 0.764v1.875c0 0.669 0.581 1.25 1.25 1.25h1.875c0.335 0 0.547-0.134 0.766-0.352l0.897-0.898h1.464c0.69 0 1.25-0.56 1.25-1.25v-1.25h1.25c0.69 0 1.25-0.56 1.25-1.25v-1.465l1.481-1.482c0.706 0.278 1.465 0.447 2.269 0.447 3.451 0 6.25-2.799 6.25-6.25s-2.799-6.25-6.25-6.25zM13.753 11.25c-0.925 0-1.783-0.269-2.526-0.708l-0.215 0.214-1.894 1.894c-0.234 0.234-0.366 0.552-0.366 0.884v1.465h-1.25c-0.69 0-1.25 0.559-1.25 1.25v1.25h-1.464c-0.331 0-0.649 0.132-0.884 0.366l-0.886 0.886-1.766-0.003-0.002-1.781 7.291-7.277c0 0 0 0.001 0.001 0.001l0.918-0.918c-0.439-0.743-0.707-1.6-0.707-2.525 0-2.761 2.239-5 5-5s5 2.239 5 5-2.238 5.001-4.999 5.001zM17.387 5.149c-0.701-0.976-1.554-1.828-2.534-2.534-0.159-0.116-0.366-0.144-0.551-0.079-0.868 0.306-1.462 0.899-1.766 1.768-0.023 0.065-0.034 0.132-0.034 0.199 0 0.124 0.039 0.247 0.114 0.352 0.703 0.978 1.555 1.83 2.533 2.533 0.16 0.115 0.365 0.144 0.551 0.080 0.869-0.304 1.464-0.899 1.769-1.767 0.023-0.065 0.034-0.132 0.034-0.199-0.001-0.124-0.040-0.248-0.114-0.352zM15.512 6.881c-0.924-0.664-1.728-1.469-2.387-2.371 0.242-0.689 0.694-1.142 1.364-1.388 0.924 0.666 1.727 1.468 2.385 2.382-0.244 0.684-0.696 1.134-1.361 1.377z" fill="#ffffff" />
</svg>
