<?xml version="1.0" encoding="utf-8"?>
<!-- Generated by IcoMoon.io -->
<!DOCTYPE svg PUBLIC "-//W3C//DTD SVG 1.1//EN" "http://www.w3.org/Graphics/SVG/1.1/DTD/svg11.dtd">
<svg version="1.1" xmlns="http://www.w3.org/2000/svg" xmlns:xlink="http://www.w3.org/1999/xlink" width="20" height="20" viewBox="0 0 20 20">
	<path d="M17.69 4.726c-0.502-2.978-3.22-4.967-6.069-4.441-2.85 0.525-5.254 2.816-4.752 5.794 0.109 0.641 0.408 1.645 0.763 2.365l-5.175 7.723c-0.191 0.285-0.299 0.799-0.242 1.141l0.333 1.971c0.058 0.342 0.373 0.572 0.7 0.512l1.516-0.279c0.328-0.061 0.743-0.349 0.924-0.641l2.065-3.331 1.385-0.256 2.389-3.878c0.786 0.139 1.912 0.092 2.578-0.031 2.851-0.526 4.088-3.671 3.585-6.649zM15.166 6.252c-0.784 1.169-1.583 0.345-2.703-0.475-1.119-0.819-2.135-1.323-1.351-2.492 0.784-1.17 2.326-1.455 3.446-0.635 1.12 0.819 1.392 2.433 0.608 3.602z" fill="#ffffff" />
</svg>
