<?xml version="1.0" encoding="utf-8"?>
<!-- Generated by IcoMoon.io -->
<!DOCTYPE svg PUBLIC "-//W3C//DTD SVG 1.1//EN" "http://www.w3.org/Graphics/SVG/1.1/DTD/svg11.dtd">
<svg version="1.1" xmlns="http://www.w3.org/2000/svg" xmlns:xlink="http://www.w3.org/1999/xlink" width="23" height="20" viewBox="0 0 23 20">
	<path d="M21.25 2.5h-20c-0.688 0-1.25 0.563-1.25 1.25v12.5c0 0.688 0.563 1.25 1.25 1.25h20c0.688 0 1.25-0.563 1.25-1.25v-12.5c0-0.688-0.563-1.25-1.25-1.25zM12.5 5h2.5v2.5h-2.5v-2.5zM16.25 8.75v2.5h-2.5v-2.5h2.5zM8.75 5h2.5v2.5h-2.5v-2.5zM12.5 8.75v2.5h-2.5v-2.5h2.5zM5 5h2.5v2.5h-2.5v-2.5zM8.75 8.75v2.5h-2.5v-2.5h2.5zM2.5 5h1.25v2.5h-1.25v-2.5zM2.5 8.75h2.5v2.5h-2.5v-2.5zM3.75 15h-1.25v-2.5h1.25v2.5zM15 15h-10v-2.5h10v2.5zM20 15h-3.75v-2.5h3.75v2.5zM20 11.25h-2.5v-2.5h2.5v2.5zM20 7.5h-3.75v-2.5h3.75v2.5z" fill="#ffffff" />
</svg>
