<?xml version="1.0" encoding="utf-8"?>
<!-- Generated by IcoMoon.io -->
<!DOCTYPE svg PUBLIC "-//W3C//DTD SVG 1.1//EN" "http://www.w3.org/Graphics/SVG/1.1/DTD/svg11.dtd">
<svg version="1.1" xmlns="http://www.w3.org/2000/svg" xmlns:xlink="http://www.w3.org/1999/xlink" width="20" height="20" viewBox="0 0 20 20">
	<path d="M12.926 2.333c-0.296-0.295-0.688-0.458-1.105-0.458s-0.809 0.162-1.106 0.458l-0.881 0.882c-0.296 0.295-0.459 0.687-0.459 1.106 0 0.294 0.081 0.576 0.232 0.821l-8.486 3.399c-0.568 0.249-0.974 0.761-1.089 1.368-0.116 0.611 0.078 1.237 0.521 1.679l7.95 7.863c0.342 0.343 0.797 0.537 1.278 0.548 0.011 0.001 0.038 0.001 0.049 0.001 0.126 0 0.254-0.013 0.381-0.039 0.621-0.129 1.13-0.558 1.361-1.142l3.339-8.36c0.251 0.166 0.547 0.254 0.854 0.254 0.419 0 0.811-0.163 1.105-0.458l0.879-0.88c0.298-0.296 0.461-0.689 0.461-1.108s-0.164-0.813-0.457-1.105l-4.828-4.829zM10.412 18.354c-0.077 0.196-0.248 0.34-0.454 0.382-0.048 0.010-0.096 0.014-0.143 0.013-0.159-0.004-0.312-0.067-0.426-0.183l-7.955-7.867c-0.146-0.146-0.211-0.354-0.172-0.558 0.038-0.203 0.174-0.374 0.364-0.456l3.886-1.556c2.618 0.871 5.237 0.032 7.856 2.826l-2.955 7.399zM16.87 8.488l-0.884 0.883c-0.122 0.122-0.32 0.122-0.442 0l-1.105-1.104-0.895 2.243 0.074-0.189c-1.881-1.878-3.793-2.115-5.518-2.327-0.554-0.068-1.092-0.139-1.62-0.253l5.307-2.126-1.072-1.072c-0.122-0.122-0.122-0.32 0-0.442l0.884-0.884c0.122-0.122 0.32-0.122 0.442 0l4.828 4.829c0.124 0.122 0.124 0.32 0.001 0.442zM10.313 13.125c0.861 0 1.563-0.701 1.563-1.563s-0.701-1.563-1.563-1.563c-0.862 0-1.563 0.701-1.563 1.563s0.701 1.563 1.563 1.563zM10.313 10.625c0.518 0 0.938 0.42 0.938 0.938s-0.42 0.938-0.938 0.938c-0.518 0-0.938-0.42-0.938-0.938s0.419-0.938 0.938-0.938zM18.438 0c-0.862 0-1.563 0.701-1.563 1.563s0.701 1.563 1.563 1.563 1.563-0.701 1.563-1.563-0.701-1.563-1.563-1.563zM18.438 2.5c-0.517 0-0.938-0.42-0.938-0.938s0.42-0.938 0.938-0.938 0.938 0.42 0.938 0.938-0.42 0.938-0.938 0.938zM5 10.625c0 0.689 0.561 1.25 1.25 1.25s1.25-0.561 1.25-1.25-0.561-1.25-1.25-1.25-1.25 0.561-1.25 1.25zM6.25 10c0.345 0 0.625 0.279 0.625 0.625s-0.28 0.625-0.625 0.625-0.625-0.279-0.625-0.625 0.28-0.625 0.625-0.625zM7.5 14.375c0-0.345 0.28-0.625 0.625-0.625s0.625 0.28 0.625 0.625c0 0.345-0.28 0.625-0.625 0.625-0.345 0-0.625-0.28-0.625-0.625zM17.5 5c0-0.345 0.28-0.625 0.625-0.625s0.625 0.28 0.625 0.625c0 0.345-0.28 0.625-0.625 0.625-0.345 0-0.625-0.28-0.625-0.625z" fill="#ffffff" />
</svg>
