<?xml version="1.0" encoding="utf-8"?>
<!-- Generated by IcoMoon.io -->
<!DOCTYPE svg PUBLIC "-//W3C//DTD SVG 1.1//EN" "http://www.w3.org/Graphics/SVG/1.1/DTD/svg11.dtd">
<svg version="1.1" xmlns="http://www.w3.org/2000/svg" xmlns:xlink="http://www.w3.org/1999/xlink" width="20" height="20" viewBox="0 0 20 20">
	<path d="M19.753 10.881c-0.624-1.708-2.367-2.727-4.662-2.727-0.089 0-0.176 0.003-0.262 0.007l-0.015-2.062c0 0 3.409-0.589 3.524-0.609s0.134-0.119 0.11-0.23c-0.023-0.111-0.167-0.884-0.188-0.977-0.028-0.13-0.103-0.127-0.207-0.109s-3.251 0.462-3.251 0.462-0.011-1.954-0.012-2.079c-0.001-0.125-0.070-0.159-0.194-0.157-0.125 0.002-0.921 0.014-1.026 0.016-0.105 0.001-0.163 0.049-0.161 0.149 0.002 0.1 0.033 2.306 0.033 2.306s-3.062 0.529-3.146 0.543-0.17 0.054-0.15 0.143c0.019 0.089 0.19 1.093 0.208 1.172 0.017 0.079 0.071 0.127 0.187 0.107s2.925-0.505 2.925-0.505l0.035 2.018c-1.077 0.283-1.801 0.824-2.256 1.303-0.768 0.807-1.207 1.887-1.207 2.963 0 1.588 0.97 2.529 2.327 2.695 3.163 0.387 5.119-3.059 5.77-4.714 1.098 1.505 0.257 4.354-2.094 5.979-0.042 0.031-0.097 0.129-0.032 0.207s0.54 0.662 0.619 0.758c0.079 0.094 0.206 0.057 0.256 0.021 2.51-1.727 3.66-4.512 2.869-6.68zM12.366 14.068c-0.965-0.121-0.943-0.914-0.943-1.453 0-0.773 0.327-1.58 0.875-2.156 0.336-0.353 0.75-0.621 1.229-0.799l0.082 4.277c-0.383 0.131-0.797 0.186-1.243 0.131zM14.794 13.516l0.045-4.109c0.084-0.004 0.167-0.010 0.252-0.010 0.773 0 1.495 0.145 1.886 0.362 0.391 0.217-1.023 2.712-2.183 3.757zM5.843 5.848c-0.030-0.094-0.102-0.144-0.195-0.144h-1.95c-0.092 0-0.165 0.050-0.194 0.144-0.411 1.299-3.481 10.992-3.496 11.041-0.017 0.053-0.011 0.076 0.062 0.076h1.733c0.075 0 0.099-0.023 0.113-0.072 0.016-0.051 1.009-3.318 1.009-3.318h3.496c0 0 0.993 3.268 1.008 3.318 0.016 0.049 0.038 0.072 0.114 0.072h1.732c0.074 0 0.080-0.023 0.062-0.076-0.013-0.049-3.082-9.742-3.494-11.041zM3.227 12.166l1.447-5.25 1.446 5.25h-2.893z" fill="#ffffff" />
</svg>
