<?xml version="1.0" encoding="utf-8"?>
<!-- Generated by IcoMoon.io -->
<!DOCTYPE svg PUBLIC "-//W3C//DTD SVG 1.1//EN" "http://www.w3.org/Graphics/SVG/1.1/DTD/svg11.dtd">
<svg version="1.1" xmlns="http://www.w3.org/2000/svg" xmlns:xlink="http://www.w3.org/1999/xlink" width="20" height="20" viewBox="0 0 20 20">
	<path d="M16.641 0h-13.281c-1.848 0-3.359 1.512-3.359 3.359v13.281c0 1.848 1.512 3.359 3.359 3.359h13.281c1.848 0 3.359-1.512 3.359-3.359v-13.281c0-1.848-1.512-3.359-3.359-3.359zM16.478 15.775c-2.214 0.729-6.536 2.148-7.344 2.35s-1.641 0.54-2.109-0.814c0 0-3.984-11.771-4.349-12.813s-0.72-1.67 0.104-1.999c1.902-0.76 3.88-1.729 4.245-0.625 0.326 0.987 3.802 11.875 3.802 11.875s4.089-1.439 5.208-1.751 1.504-0.521 1.797 1.016 0.859 2.031-1.354 2.76z" fill="#ffffff" />
</svg>
