<?xml version="1.0" encoding="utf-8"?>
<!-- Generated by IcoMoon.io -->
<!DOCTYPE svg PUBLIC "-//W3C//DTD SVG 1.1//EN" "http://www.w3.org/Graphics/SVG/1.1/DTD/svg11.dtd">
<svg version="1.1" xmlns="http://www.w3.org/2000/svg" xmlns:xlink="http://www.w3.org/1999/xlink" width="20" height="20" viewBox="0 0 20 20">
	<path d="M16.641 0h-13.281c-1.848 0-3.359 1.512-3.359 3.359v13.281c0 1.848 1.512 3.359 3.359 3.359h13.281c1.848 0 3.359-1.512 3.359-3.359v-13.281c0-1.848-1.512-3.359-3.359-3.359zM14.58 14.861c-3.468 0-4.671-1.564-5.312-3.508l-0.642-2.005c-0.481-1.463-1.042-2.606-2.806-2.606-1.223 0-2.466 0.882-2.466 3.348 0 1.924 0.982 3.127 2.366 3.127 1.563 0 2.606-1.163 2.606-1.163l0.642 1.744c0 0-1.083 1.062-3.348 1.062-2.806 0-4.37-1.644-4.37-4.691 0-3.167 1.564-5.031 4.51-5.031 2.666 0 4.009 0.962 4.851 3.568l0.662 2.004c0.481 1.463 1.323 2.526 3.348 2.526 1.363 0 2.085-0.301 2.085-1.042 0-0.581-0.341-1.002-1.363-1.243l-1.363-0.321c-1.664-0.401-2.325-1.263-2.325-2.626 0-2.185 1.764-2.867 3.568-2.867 2.045 0 3.288 0.742 3.448 2.546l-2.005 0.241c-0.080-0.862-0.601-1.223-1.564-1.223-0.882 0-1.423 0.401-1.423 1.083 0 0.601 0.261 0.962 1.142 1.163l1.283 0.281c1.724 0.401 2.646 1.243 2.646 2.867-0 2.005-1.684 2.766-4.17 2.766z" fill="#ffffff" />
</svg>
