<?xml version="1.0" encoding="utf-8"?>
<!-- Generated by IcoMoon.io -->
<!DOCTYPE svg PUBLIC "-//W3C//DTD SVG 1.1//EN" "http://www.w3.org/Graphics/SVG/1.1/DTD/svg11.dtd">
<svg version="1.1" xmlns="http://www.w3.org/2000/svg" xmlns:xlink="http://www.w3.org/1999/xlink" width="20" height="20" viewBox="0 0 20 20">
	<path d="M16.007 15.891c-2.083-0.008-3.193-1.027-3.965-2.822l-0.221-0.49-1.902-4.336c-0.631-1.535-2.196-2.572-3.962-2.572-2.389 0-4.328 1.939-4.328 4.33 0 2.391 1.938 4.329 4.328 4.329 1.667 0 3.116-0.942 3.839-2.324l0.769 1.774c-1.092 1.331-2.751 2.179-4.608 2.179-3.291 0-5.959-2.666-5.959-5.959 0-3.291 2.668-5.96 5.959-5.96 2.484 0 4.489 1.327 5.508 3.677 0.077 0.182 1.077 2.521 1.95 4.512 0.54 1.232 1.001 2.049 2.495 2.1 1.468 0.050 2.476-0.843 2.476-1.973 0-1.104-0.768-1.369-2.065-1.8-2.332-0.768-3.535-1.54-3.535-3.389 0-1.803 1.227-3.006 3.221-3.006 1.299 0 2.236 0.578 2.886 1.73l-1.275 0.651c-0.48-0.672-1.010-0.938-1.683-0.938-0.936 0-1.604 0.651-1.604 1.517 0 1.229 1.099 1.414 2.637 1.919 2.069 0.674 3.031 1.444 3.031 3.366 0 2.018-1.732 3.488-3.993 3.485z" fill="#ffffff" />
</svg>
