<?xml version="1.0" encoding="utf-8"?>
<!-- Generated by IcoMoon.io -->
<!DOCTYPE svg PUBLIC "-//W3C//DTD SVG 1.1//EN" "http://www.w3.org/Graphics/SVG/1.1/DTD/svg11.dtd">
<svg version="1.1" xmlns="http://www.w3.org/2000/svg" xmlns:xlink="http://www.w3.org/1999/xlink" width="20" height="20" viewBox="0 0 20 20">
	<path d="M10 0.4c-5.302 0-9.6 4.298-9.6 9.6s4.298 9.6 9.6 9.6 9.6-4.298 9.6-9.6-4.298-9.6-9.6-9.6zM12.645 12.83c-2.002 0-2.697-0.91-3.066-2.042l-0.372-1.167c-0.277-0.851-0.501-1.467-1.519-1.467-0.706 0-1.626 0.463-1.626 1.898 0 1.12 0.77 1.82 1.568 1.82 0.678 0 1.084-0.381 1.296-0.571l0.354 1.011c-0.241 0.175-0.734 0.518-1.707 0.518-1.345 0-2.625-0.957-2.625-2.73 0-1.844 1.333-2.929 2.706-2.929 1.539 0 2.112 0.561 2.599 2.077l0.382 1.166c0.278 0.853 0.865 1.471 2.034 1.471 0.787 0 1.204-0.176 1.204-0.606 0-0.339-0.197-0.584-0.787-0.724l-0.787-0.187c-0.961-0.233-1.343-0.735-1.343-1.529 0-1.271 1.019-1.668 2.061-1.668 1.181 0 1.898 0.432 1.99 1.481l-1.157 0.141c-0.046-0.502-0.347-0.712-0.903-0.712-0.509 0-0.821 0.233-0.821 0.63 0 0.351 0.15 0.561 0.66 0.677l0.74 0.163c0.995 0.233 1.528 0.724 1.528 1.669-0.001 1.167-0.974 1.61-2.409 1.61z" fill="#ffffff" />
</svg>
