<?xml version="1.0" encoding="utf-8"?>
<!-- Generated by IcoMoon.io -->
<!DOCTYPE svg PUBLIC "-//W3C//DTD SVG 1.1//EN" "http://www.w3.org/Graphics/SVG/1.1/DTD/svg11.dtd">
<svg version="1.1" xmlns="http://www.w3.org/2000/svg" xmlns:xlink="http://www.w3.org/1999/xlink" width="20" height="20" viewBox="0 0 20 20">
	<path d="M7.874 12.577c-0.419 0.376-1.224 1.13-2.564 1.13-1.581 0-3.104-1.386-3.104-3.603 0-2.841 1.82-3.757 3.218-3.757 2.016 0 2.458 1.216 3.007 2.902l0.733 2.31c0.732 2.239 2.107 4.040 6.070 4.040 2.842 0 4.766-0.877 4.766-3.186 0-1.871-1.055-2.841-3.024-3.303l-1.466-0.322c-1.008-0.231-1.306-0.646-1.306-1.34 0-0.785 0.618-1.247 1.626-1.247 1.1 0 1.695 0.416 1.787 1.409l2.291-0.277c-0.183-2.078-1.603-2.933-3.94-2.933-2.062 0-4.077 0.785-4.077 3.302 0 1.57 0.756 2.563 2.656 3.025l1.559 0.369c1.168 0.277 1.558 0.763 1.558 1.433 0 0.854-0.825 1.2-2.383 1.2-2.313 0-3.476-1.224-4.025-2.909l-0.757-2.31c-0.962-3.001-2.098-4.11-5.145-4.11-2.716 0-5.354 2.148-5.354 5.796 0 3.511 2.532 5.404 5.194 5.404 1.925 0 2.902-0.676 3.38-1.023l-0.7-2z" fill="#ffffff" />
</svg>
