<?xml version="1.0" encoding="utf-8"?>
<!-- Generated by IcoMoon.io -->
<!DOCTYPE svg PUBLIC "-//W3C//DTD SVG 1.1//EN" "http://www.w3.org/Graphics/SVG/1.1/DTD/svg11.dtd">
<svg version="1.1" xmlns="http://www.w3.org/2000/svg" xmlns:xlink="http://www.w3.org/1999/xlink" width="20" height="20" viewBox="0 0 20 20">
	<path d="M7.4 4h-1.8c-1.1 0-1.6 0.5-1.6 1.6v1.8c0 1.1 0.5 1.6 1.6 1.6h1.8c1.1 0 1.6-0.5 1.6-1.6v-1.8c0-1.1-0.5-1.6-1.6-1.6zM14.4 4h-1.8c-1.1 0-1.6 0.5-1.6 1.6v1.8c0 1.1 0.5 1.6 1.6 1.6h1.8c1.1 0 1.6-0.5 1.6-1.6v-1.8c0-1.1-0.5-1.6-1.6-1.6zM7.4 11h-1.8c-1.1 0-1.6 0.5-1.6 1.6v1.8c0 1.1 0.5 1.6 1.6 1.6h1.8c1.1 0 1.6-0.5 1.6-1.6v-1.8c0-1.1-0.5-1.6-1.6-1.6zM14.4 11h-1.8c-1.1 0-1.6 0.5-1.6 1.6v1.8c0 1.1 0.5 1.6 1.6 1.6h1.8c1.1 0 1.6-0.5 1.6-1.6v-1.8c0-1.1-0.5-1.6-1.6-1.6z" fill="#ffffff" />
</svg>
