<?xml version="1.0" encoding="utf-8"?>
<!-- Generated by IcoMoon.io -->
<!DOCTYPE svg PUBLIC "-//W3C//DTD SVG 1.1//EN" "http://www.w3.org/Graphics/SVG/1.1/DTD/svg11.dtd">
<svg version="1.1" xmlns="http://www.w3.org/2000/svg" xmlns:xlink="http://www.w3.org/1999/xlink" width="20" height="20" viewBox="0 0 20 20">
	<path d="M14.015 0c-3.296 5.449-5.904 2.769-9.719 6.688-3.366 3.458-2.199 7.623 0.635 9.057 2.797-1.429 5.66-4.625 7.782-9.252 0 0 1.908 5.843-3.935 11.472 2.837 3.323 7.653 1.011 8.999-4.276 1.463-5.748-2.351-11.6-3.762-13.69zM1.895 18.872c0.002 0.057 0.067 1.128 1.472 1.128 1.022 0 6.208-2.826 8.872-10.16-4.032 7.133-9.885 8.903-10.344 9.032z" fill="#ffffff" />
</svg>
