<?xml version="1.0" encoding="utf-8"?>
<!-- Generated by IcoMoon.io -->
<!DOCTYPE svg PUBLIC "-//W3C//DTD SVG 1.1//EN" "http://www.w3.org/Graphics/SVG/1.1/DTD/svg11.dtd">
<svg version="1.1" xmlns="http://www.w3.org/2000/svg" xmlns:xlink="http://www.w3.org/1999/xlink" width="20" height="20" viewBox="0 0 20 20">
	<path d="M10.442 0.442c-0.243-0.243-0.723-0.442-1.067-0.442h-7.5c-0.344 0-0.625 0.281-0.625 0.625v18.75c0 0.344 0.281 0.625 0.625 0.625h15c0.344 0 0.625-0.281 0.625-0.625v-11.25c0-0.344-0.199-0.824-0.442-1.067l-6.616-6.616zM16.25 18.75h-13.75v-17.5h6.859c0.057 0.009 0.164 0.054 0.211 0.087l6.593 6.593c0.034 0.047 0.078 0.154 0.087 0.211v10.609zM16.875 0h-3.75c-0.344 0-0.426 0.199-0.183 0.442l4.116 4.116c0.243 0.243 0.442 0.161 0.442-0.183v-3.75c0-0.344-0.281-0.625-0.625-0.625z" fill="#ffffff" />
</svg>
