<?xml version="1.0" encoding="utf-8"?>
<!-- Generated by IcoMoon.io -->
<!DOCTYPE svg PUBLIC "-//W3C//DTD SVG 1.1//EN" "http://www.w3.org/Graphics/SVG/1.1/DTD/svg11.dtd">
<svg version="1.1" xmlns="http://www.w3.org/2000/svg" xmlns:xlink="http://www.w3.org/1999/xlink" width="20" height="20" viewBox="0 0 20 20">
	<path d="M10 0l-10 6.25h20l-10-6.25zM15.625 7.5l0.625 1.25v7.5h2.5v-7.5l0.625-1.25h-3.75zM10.625 7.5l0.625 1.25v7.5h2.5v-7.5l0.625-1.25h-3.75zM5.625 7.5l0.625 1.25v7.5h2.5v-7.5l0.625-1.25h-3.75zM0.625 7.5l0.625 1.25v7.5h2.5v-7.5l0.625-1.25h-3.75zM0.625 17.5l-0.625 2.5h20l-0.625-2.5h-18.75zM11.25 3.75c0 0.69-0.56 1.25-1.25 1.25s-1.25-0.56-1.25-1.25 0.56-1.25 1.25-1.25c0.69 0 1.25 0.56 1.25 1.25z" fill="#ffffff" />
</svg>
