<?xml version="1.0" encoding="utf-8"?>
<!-- Generated by IcoMoon.io -->
<!DOCTYPE svg PUBLIC "-//W3C//DTD SVG 1.1//EN" "http://www.w3.org/Graphics/SVG/1.1/DTD/svg11.dtd">
<svg version="1.1" xmlns="http://www.w3.org/2000/svg" xmlns:xlink="http://www.w3.org/1999/xlink" width="20" height="20" viewBox="0 0 20 20">
	<path d="M9.877 0.801c-5.080 0.068-9.144 4.241-9.076 9.322 0.068 5.082 4.242 9.144 9.322 9.077 5.081-0.068 9.145-4.242 9.076-9.322-0.068-5.082-4.242-9.145-9.322-9.077zM9.894 2c1.37-0.019 2.664 0.31 3.8 0.901l-1.238 2.064c-0.742-0.361-1.575-0.565-2.456-0.565-0.88 0-1.713 0.204-2.455 0.566l-1.237-2.063c1.074-0.56 2.292-0.885 3.586-0.903zM4.966 12.455l-2.062 1.236c-0.56-1.073-0.885-2.291-0.902-3.584-0.019-1.371 0.31-2.665 0.901-3.8l2.063 1.239c-0.362 0.741-0.566 1.573-0.566 2.454 0 0.88 0.204 1.713 0.566 2.455zM10.107 17.999c-1.37 0.019-2.665-0.31-3.8-0.901l1.238-2.064c0.742 0.362 1.575 0.566 2.455 0.566 0.881 0 1.714-0.203 2.455-0.565l1.237 2.062c-1.074 0.559-2.291 0.884-3.585 0.902zM10 14.399c-2.43 0-4.399-1.97-4.399-4.399 0-2.43 1.97-4.4 4.399-4.4 2.431 0 4.4 1.97 4.4 4.4 0 2.43-1.969 4.399-4.4 4.399zM15.034 12.455c0.362-0.742 0.566-1.575 0.566-2.455 0-0.881-0.204-1.713-0.566-2.455l2.062-1.238c0.56 1.074 0.886 2.291 0.903 3.585 0.018 1.371-0.311 2.665-0.902 3.8l-2.063-1.237z" fill="#ffffff" />
</svg>
