<?xml version="1.0" encoding="utf-8"?>
<!-- Generated by IcoMoon.io -->
<!DOCTYPE svg PUBLIC "-//W3C//DTD SVG 1.1//EN" "http://www.w3.org/Graphics/SVG/1.1/DTD/svg11.dtd">
<svg version="1.1" xmlns="http://www.w3.org/2000/svg" xmlns:xlink="http://www.w3.org/1999/xlink" width="20" height="20" viewBox="0 0 20 20">
	<path d="M7.185 19.17c0.789 0.51 1.703 0.855 2.815 0.828 1.112 0.027 2.025-0.318 2.814-0.828v-2.070h-5.629v2.070zM12.696 15.899c0-4.356 4.631-5.75 4.284-10.089-0.218-2.738-2.073-5.81-6.98-5.81s-6.762 3.072-6.98 5.81c-0.347 4.34 4.283 5.733 4.283 10.089h5.393zM5.138 5.968c0.208-2.599 1.976-3.917 4.862-3.917s4.654 1.318 4.861 3.917c0.113 1.423-0.705 2.372-1.81 3.926-0.813 1.146-1.775 2.499-2.225 4.261h-1.653c-0.45-1.762-1.411-3.114-2.226-4.261-1.104-1.555-1.922-2.503-1.809-3.926z" fill="#ffffff" />
</svg>
