<?xml version="1.0" encoding="utf-8"?>
<!-- Generated by IcoMoon.io -->
<!DOCTYPE svg PUBLIC "-//W3C//DTD SVG 1.1//EN" "http://www.w3.org/Graphics/SVG/1.1/DTD/svg11.dtd">
<svg version="1.1" xmlns="http://www.w3.org/2000/svg" xmlns:xlink="http://www.w3.org/1999/xlink" width="20" height="20" viewBox="0 0 20 20">
	<path d="M10.625 0h-1.25c-3.798 0-6.875 3.078-6.875 6.875 0 2.672 1.524 4.988 3.75 6.125v0.75c0 0.69 0.559 1.25 1.25 1.25h5c0.691 0 1.25-0.56 1.25-1.25v-0.75c2.226-1.138 3.75-3.454 3.75-6.125 0-3.797-3.079-6.875-6.875-6.875zM11.25 11.205v1.295h-2.5v-1.295c-2.12-0.303-3.75-2.126-3.75-4.33 0-2.416 1.959-4.375 4.375-4.375h1.25c2.416 0 4.375 1.959 4.375 4.375 0 2.204-1.63 4.027-3.75 4.33zM8.125 16.25h3.75c0.345 0 0.625 0.28 0.625 0.625s-0.28 0.625-0.625 0.625h-3.75c-0.345 0-0.625-0.28-0.625-0.625s0.28-0.625 0.625-0.625zM9.375 18.75h1.25c0.345 0 0.625 0.28 0.625 0.625s-0.28 0.625-0.625 0.625h-1.25c-0.345 0-0.625-0.28-0.625-0.625s0.28-0.625 0.625-0.625z" fill="#ffffff" />
</svg>
