<?xml version="1.0" encoding="utf-8"?>
<!-- Generated by IcoMoon.io -->
<!DOCTYPE svg PUBLIC "-//W3C//DTD SVG 1.1//EN" "http://www.w3.org/Graphics/SVG/1.1/DTD/svg11.dtd">
<svg version="1.1" xmlns="http://www.w3.org/2000/svg" xmlns:xlink="http://www.w3.org/1999/xlink" width="20" height="20" viewBox="0 0 20 20">
	<path d="M18.227 6.545c-0.781-0.205-2.618-0.203-5.305-0.274 0.127-0.586 0.156-1.115 0.156-2.054 0-2.242-1.634-4.218-3.079-4.218-1.021 0-1.862 0.834-1.875 1.861-0.014 1.259-0.403 3.433-2.5 4.535-0.154 0.081-0.594 0.298-0.658 0.326l0.033 0.028c-0.328-0.283-0.783-0.5-1.25-0.5h-1.875c-1.034 0-1.875 0.841-1.875 1.875v10c0 1.034 0.841 1.875 1.875 1.875h1.875c0.744 0 1.366-0.449 1.667-1.079 0.008 0.002 0.021 0.006 0.029 0.008 0.041 0.011 0.090 0.023 0.149 0.039 0.011 0.003 0.017 0.004 0.029 0.008 0.36 0.089 1.053 0.255 2.534 0.596 0.317 0.073 1.995 0.43 3.732 0.43h3.417c1.041 0 1.792-0.401 2.239-1.205 0.006-0.012 0.15-0.293 0.268-0.672 0.088-0.286 0.121-0.69 0.014-1.1 0.671-0.461 0.888-1.159 1.028-1.612 0.236-0.744 0.165-1.304 0.001-1.704 0.377-0.356 0.699-0.899 0.835-1.729 0.084-0.514-0.006-1.042-0.243-1.482 0.354-0.397 0.515-0.898 0.534-1.36l0.008-0.131c0.004-0.082 0.008-0.133 0.008-0.313 0-0.789-0.547-1.796-1.773-2.146zM4.375 18.125c0 0.346-0.279 0.625-0.625 0.625h-1.875c-0.346 0-0.625-0.279-0.625-0.625v-10c0-0.346 0.279-0.625 0.625-0.625h1.875c0.346 0 0.625 0.279 0.625 0.625v10zM18.736 9.084c-0.012 0.309-0.142 0.916-1.236 0.916-0.938 0-1.25 0-1.25 0-0.173 0-0.313 0.14-0.313 0.313s0.139 0.313 0.313 0.313c0 0 0.274 0 1.211 0s1.061 0.777 1 1.152c-0.078 0.466-0.296 1.348-1.352 1.348-1.054 0-1.484 0-1.484 0-0.173 0-0.313 0.139-0.313 0.313 0 0.172 0.139 0.313 0.313 0.313 0 0 0.742 0 1.231 0 1.055 0 0.962 0.804 0.811 1.284-0.199 0.631-0.321 1.216-1.651 1.216-0.449 0-1.019 0-1.019 0-0.173 0-0.313 0.139-0.313 0.313 0 0.172 0.139 0.313 0.313 0.313 0 0 0.433 0 0.98 0 0.684 0 0.716 0.647 0.644 0.879-0.078 0.254-0.171 0.442-0.174 0.451-0.189 0.341-0.493 0.546-1.137 0.546h-3.417c-1.716 0-3.419-0.389-3.463-0.399-2.596-0.598-2.733-0.644-2.896-0.691 0 0-0.529-0.089-0.529-0.551l-0.004-8.633c0-0.293 0.187-0.558 0.496-0.651 0.039-0.015 0.091-0.031 0.129-0.047 2.855-1.182 3.724-3.775 3.75-5.904 0.004-0.299 0.234-0.625 0.625-0.625 0.661 0 1.829 1.326 1.829 2.968 0 1.482-0.060 1.738-0.579 3.282 6.25 0 6.206 0.090 6.758 0.234 0.684 0.196 0.742 0.762 0.742 0.957 0 0.214-0.006 0.183-0.014 0.393zM2.813 16.25c-0.518 0-0.938 0.42-0.938 0.938s0.42 0.938 0.938 0.938 0.938-0.42 0.938-0.938-0.42-0.938-0.938-0.938zM2.813 17.5c-0.172 0-0.313-0.141-0.313-0.313s0.141-0.313 0.313-0.313 0.313 0.141 0.313 0.313-0.141 0.313-0.313 0.313z" fill="#ffffff" />
</svg>
