<?xml version="1.0" encoding="utf-8"?>
<!-- Generated by IcoMoon.io -->
<!DOCTYPE svg PUBLIC "-//W3C//DTD SVG 1.1//EN" "http://www.w3.org/Graphics/SVG/1.1/DTD/svg11.dtd">
<svg version="1.1" xmlns="http://www.w3.org/2000/svg" xmlns:xlink="http://www.w3.org/1999/xlink" width="30" height="30" viewBox="0 0 30 30">
	<path d="M27.932 2.187l-0.118-0.118c-2.758-2.758-7.271-2.758-10.029 0l-6.39 6.391c-2.758 2.758-2.758 7.271 0 10.029l0.118 0.118c0.229 0.23 0.473 0.437 0.725 0.629l2.339-2.339c-0.273-0.161-0.531-0.354-0.765-0.588l-0.118-0.118c-1.497-1.497-1.497-3.934 0-5.431l6.39-6.39c1.498-1.498 3.934-1.498 5.431 0l0.118 0.118c1.497 1.498 1.497 3.934 0 5.431l-2.891 2.891c0.502 1.239 0.74 2.561 0.719 3.878l4.471-4.471c2.758-2.758 2.758-7.271-0-10.029zM18.488 11.395c-0.229-0.229-0.473-0.437-0.725-0.628l-2.339 2.339c0.273 0.161 0.531 0.354 0.765 0.588l0.118 0.118c1.498 1.498 1.498 3.934 0 5.431l-6.391 6.391c-1.498 1.497-3.934 1.497-5.431 0l-0.118-0.118c-1.497-1.498-1.497-3.934 0-5.431l2.891-2.891c-0.502-1.239-0.74-2.561-0.719-3.878l-4.471 4.471c-2.758 2.758-2.758 7.271 0 10.029l0.118 0.118c2.758 2.758 7.271 2.758 10.029 0l6.39-6.39c2.758-2.758 2.758-7.271 0-10.029l-0.118-0.118z" fill="#ffffff" />
</svg>
