<?xml version="1.0" encoding="utf-8"?>
<!-- Generated by IcoMoon.io -->
<!DOCTYPE svg PUBLIC "-//W3C//DTD SVG 1.1//EN" "http://www.w3.org/Graphics/SVG/1.1/DTD/svg11.dtd">
<svg version="1.1" xmlns="http://www.w3.org/2000/svg" xmlns:xlink="http://www.w3.org/1999/xlink" width="20" height="20" viewBox="0 0 20 20">
	<path d="M16.641 0h-13.281c-1.848 0-3.359 1.512-3.359 3.359v13.281c0 1.848 1.512 3.359 3.359 3.359h13.281c1.848 0 3.359-1.512 3.359-3.359v-13.281c0-1.848-1.512-3.359-3.359-3.359zM7.5 16.25h-2.5v-8.75h2.5v8.75zM6.25 6.25c-0.69 0-1.25-0.56-1.25-1.25s0.56-1.25 1.25-1.25 1.25 0.56 1.25 1.25-0.56 1.25-1.25 1.25zM16.25 16.25h-2.5v-5c0-0.69-0.56-1.25-1.25-1.25s-1.25 0.56-1.25 1.25v5h-2.5v-8.75h2.5v1.552c0.516-0.708 1.304-1.552 2.188-1.552 1.553 0 2.813 1.399 2.813 3.125v5.625z" fill="#ffffff" />
</svg>
