<?xml version="1.0" encoding="utf-8"?>
<!-- Generated by IcoMoon.io -->
<!DOCTYPE svg PUBLIC "-//W3C//DTD SVG 1.1//EN" "http://www.w3.org/Graphics/SVG/1.1/DTD/svg11.dtd">
<svg version="1.1" xmlns="http://www.w3.org/2000/svg" xmlns:xlink="http://www.w3.org/1999/xlink" width="20" height="20" viewBox="0 0 20 20">
	<path d="M5.076 3.050c0 1.063-0.785 1.924-2.076 1.924-1.215 0-2-0.861-2-1.924 0-1.088 0.811-1.924 2.051-1.924s2 0.836 2.025 1.924zM1.102 18.874v-12.38h3.848v12.38h-3.848zM7.253 10.443c0-1.544-0.051-2.835-0.102-3.949h3.342l0.178 1.722h0.076c0.506-0.811 1.747-2 3.823-2 2.531 0 4.43 1.696 4.43 5.342v7.317h-3.848v-6.861c0-1.595-0.558-2.684-1.95-2.684-1.063 0-1.695 0.734-1.974 1.443-0.102 0.253-0.127 0.607-0.127 0.962v7.14h-3.848v-8.432z" fill="#ffffff" />
</svg>
