<?xml version="1.0" encoding="utf-8"?>
<!-- Generated by IcoMoon.io -->
<!DOCTYPE svg PUBLIC "-//W3C//DTD SVG 1.1//EN" "http://www.w3.org/Graphics/SVG/1.1/DTD/svg11.dtd">
<svg version="1.1" xmlns="http://www.w3.org/2000/svg" xmlns:xlink="http://www.w3.org/1999/xlink" width="20" height="20" viewBox="0 0 20 20">
	<path d="M10 0.4c-5.302 0-9.6 4.298-9.6 9.6s4.298 9.6 9.6 9.6 9.6-4.298 9.6-9.6-4.298-9.6-9.6-9.6zM7.65 13.979h-1.944v-6.255h1.944v6.255zM6.666 6.956c-0.614 0-1.011-0.436-1.011-0.973 0-0.55 0.409-0.972 1.036-0.972s1.011 0.422 1.023 0.972c0.001 0.538-0.396 0.973-1.048 0.973zM14.749 13.979h-1.943v-3.467c0-0.806-0.282-1.355-0.985-1.355-0.537 0-0.856 0.371-0.998 0.729-0.051 0.127-0.064 0.307-0.064 0.485v3.607h-1.945v-4.26c0-0.78-0.025-1.433-0.051-1.995h1.688l0.090 0.869h0.038c0.256-0.409 0.883-1.010 1.932-1.010 1.279 0 2.238 0.856 2.238 2.698v3.699z" fill="#ffffff" />
</svg>
