<?xml version="1.0" encoding="utf-8"?>
<!-- Generated by IcoMoon.io -->
<!DOCTYPE svg PUBLIC "-//W3C//DTD SVG 1.1//EN" "http://www.w3.org/Graphics/SVG/1.1/DTD/svg11.dtd">
<svg version="1.1" xmlns="http://www.w3.org/2000/svg" xmlns:xlink="http://www.w3.org/1999/xlink" width="20" height="20" viewBox="0 0 20 20">
	<path d="M18.621 1.458l-0.079-0.079c-1.839-1.839-4.848-1.839-6.686 0l-4.26 4.26c-1.839 1.839-1.839 4.847 0 6.686l0.079 0.079c0.153 0.153 0.315 0.291 0.483 0.419l1.56-1.56c-0.182-0.107-0.354-0.236-0.51-0.392l-0.079-0.079c-0.998-0.998-0.998-2.623 0-3.621l4.26-4.26c0.998-0.998 2.623-0.998 3.621 0l0.079 0.079c0.998 0.998 0.998 2.623 0 3.621l-1.927 1.927c0.335 0.826 0.493 1.707 0.479 2.586l2.981-2.981c1.839-1.839 1.839-4.847-0-6.686zM12.325 7.596c-0.153-0.153-0.315-0.291-0.483-0.419l-1.56 1.559c0.182 0.107 0.354 0.236 0.51 0.392l0.079 0.079c0.998 0.998 0.998 2.622 0 3.621l-4.26 4.26c-0.998 0.998-2.623 0.998-3.621 0l-0.079-0.079c-0.998-0.998-0.998-2.623 0-3.621l1.928-1.927c-0.335-0.826-0.493-1.707-0.479-2.586l-2.981 2.98c-1.839 1.839-1.839 4.847 0 6.686l0.079 0.079c1.839 1.838 4.848 1.838 6.686 0l4.26-4.26c1.839-1.839 1.839-4.848 0-6.686l-0.079-0.079z" fill="#ffffff" />
</svg>
