<?xml version="1.0" encoding="utf-8"?>
<!-- Generated by IcoMoon.io -->
<!DOCTYPE svg PUBLIC "-//W3C//DTD SVG 1.1//EN" "http://www.w3.org/Graphics/SVG/1.1/DTD/svg11.dtd">
<svg version="1.1" xmlns="http://www.w3.org/2000/svg" xmlns:xlink="http://www.w3.org/1999/xlink" width="20" height="20" viewBox="0 0 20 20">
	<path d="M7.859 14.694l-0.81 0.804c-0.702 0.695-1.843 0.696-2.544 0-0.337-0.335-0.522-0.778-0.522-1.251s0.186-0.917 0.522-1.252l2.98-2.957c0.617-0.613 1.779-1.514 2.626-0.674 0.389 0.386 1.017 0.383 1.402-0.005 0.386-0.388 0.384-1.016-0.005-1.402-1.439-1.428-3.567-1.164-5.42 0.674l-2.98 2.957c-0.714 0.71-1.108 1.654-1.108 2.659 0 1.004 0.394 1.948 1.109 2.658 0.736 0.731 1.702 1.095 2.668 1.095s1.934-0.364 2.67-1.095l0.81-0.805c0.389-0.386 0.391-1.014 0.005-1.401-0.386-0.388-1.014-0.39-1.403-0.005zM16.891 3.209c-1.546-1.534-3.707-1.617-5.139-0.197l-1.009 1.001c-0.389 0.386-0.392 1.013-0.006 1.402 0.387 0.389 1.014 0.391 1.402 0.005l1.009-1.001c0.741-0.736 1.712-0.431 2.346 0.197 0.337 0.334 0.522 0.779 0.522 1.251 0 0.473-0.186 0.917-0.522 1.251l-3.18 3.154c-1.453 1.442-2.136 0.766-2.427 0.477-0.389-0.386-1.016-0.383-1.401 0.005-0.386 0.389-0.384 1.017 0.005 1.402 0.667 0.662 1.43 0.99 2.228 0.99 0.978 0 2.011-0.492 2.993-1.467l3.179-3.154c0.715-0.709 1.109-1.653 1.109-2.657s-0.394-1.949-1.109-2.659z" fill="#ffffff" />
</svg>
