<?xml version="1.0" encoding="utf-8"?>
<!-- Generated by IcoMoon.io -->
<!DOCTYPE svg PUBLIC "-//W3C//DTD SVG 1.1//EN" "http://www.w3.org/Graphics/SVG/1.1/DTD/svg11.dtd">
<svg version="1.1" xmlns="http://www.w3.org/2000/svg" xmlns:xlink="http://www.w3.org/1999/xlink" width="30" height="30" viewBox="0 0 30 30">
	<path d="M11.25 1.875h18.75v3.75h-18.75v-3.75zM11.25 13.125h18.75v3.75h-18.75v-3.75zM11.25 24.375h18.75v3.75h-18.75v-3.75zM0 3.75c0-2.071 1.679-3.75 3.75-3.75s3.75 1.679 3.75 3.75c0 2.071-1.679 3.75-3.75 3.75-2.071 0-3.75-1.679-3.75-3.75zM0 15c0-2.071 1.679-3.75 3.75-3.75s3.75 1.679 3.75 3.75c0 2.071-1.679 3.75-3.75 3.75-2.071 0-3.75-1.679-3.75-3.75zM0 26.25c0-2.071 1.679-3.75 3.75-3.75s3.75 1.679 3.75 3.75c0 2.071-1.679 3.75-3.75 3.75-2.071 0-3.75-1.679-3.75-3.75z" fill="#ffffff" />
</svg>
