<?xml version="1.0" encoding="utf-8"?>
<!-- Generated by IcoMoon.io -->
<!DOCTYPE svg PUBLIC "-//W3C//DTD SVG 1.1//EN" "http://www.w3.org/Graphics/SVG/1.1/DTD/svg11.dtd">
<svg version="1.1" xmlns="http://www.w3.org/2000/svg" xmlns:xlink="http://www.w3.org/1999/xlink" width="20" height="20" viewBox="0 0 20 20">
	<path d="M16 9h-12c-0.552 0-1 0.448-1 1s0.448 1 1 1h12c0.553 0 1-0.448 1-1s-0.447-1-1-1zM4 7h12c0.553 0 1-0.448 1-1s-0.447-1-1-1h-12c-0.552 0-1 0.448-1 1s0.448 1 1 1zM16 13h-12c-0.552 0-1 0.447-1 1s0.448 1 1 1h12c0.553 0 1-0.447 1-1s-0.447-1-1-1z" fill="#ffffff" />
</svg>
