<?xml version="1.0" encoding="utf-8"?>
<!-- Generated by IcoMoon.io -->
<!DOCTYPE svg PUBLIC "-//W3C//DTD SVG 1.1//EN" "http://www.w3.org/Graphics/SVG/1.1/DTD/svg11.dtd">
<svg version="1.1" xmlns="http://www.w3.org/2000/svg" xmlns:xlink="http://www.w3.org/1999/xlink" width="20" height="20" viewBox="0 0 20 20">
	<path d="M10.001 11.091c2.068 0 3.75-1.682 3.75-3.75s-1.682-3.75-3.75-3.75c-2.068 0-3.75 1.682-3.75 3.75s1.682 3.75 3.75 3.75zM10.001 4.216c1.724 0 3.125 1.401 3.125 3.125s-1.401 3.125-3.125 3.125c-1.724 0-3.125-1.401-3.125-3.125s1.401-3.125 3.125-3.125zM10 0c-4.136 0-7.5 3.322-7.5 7.501 0 4.375 3.751 8.851 6.485 11.996 0.010 0.012 0.449 0.503 0.991 0.503 0.001 0 0.046 0 0.048 0 0.542 0 0.981-0.491 0.991-0.503 2.736-3.146 6.486-7.621 6.486-11.996 0-4.178-3.364-7.501-7.501-7.501zM10.073 18.677c-0.013 0.012-0.051 0.040-0.084 0.061-0.006-0.017-0.053-0.054-0.081-0.083-2.291-2.636-6.158-7.084-6.158-11.154 0-3.446 2.804-6.251 6.25-6.251 3.447 0 6.251 2.804 6.251 6.251 0 4.070-3.867 8.518-6.178 11.176z" fill="#ffffff" />
</svg>
