<?xml version="1.0" encoding="utf-8"?>
<!-- Generated by IcoMoon.io -->
<!DOCTYPE svg PUBLIC "-//W3C//DTD SVG 1.1//EN" "http://www.w3.org/Graphics/SVG/1.1/DTD/svg11.dtd">
<svg version="1.1" xmlns="http://www.w3.org/2000/svg" xmlns:xlink="http://www.w3.org/1999/xlink" width="20" height="20" viewBox="0 0 20 20">
	<path d="M10 0c-3.452 0-6.25 2.798-6.25 6.25 0 6.25 6.25 13.75 6.25 13.75s6.25-7.5 6.25-13.75c0-3.452-2.798-6.25-6.25-6.25zM10 10.078c-2.114 0-3.828-1.714-3.828-3.828s1.714-3.828 3.828-3.828 3.828 1.714 3.828 3.828-1.714 3.828-3.828 3.828zM7.578 6.25c0-1.338 1.084-2.422 2.422-2.422s2.422 1.084 2.422 2.422c0 1.338-1.084 2.422-2.422 2.422-1.338 0-2.422-1.084-2.422-2.422z" fill="#ffffff" />
</svg>
