<?xml version="1.0" encoding="utf-8"?>
<!-- Generated by IcoMoon.io -->
<!DOCTYPE svg PUBLIC "-//W3C//DTD SVG 1.1//EN" "http://www.w3.org/Graphics/SVG/1.1/DTD/svg11.dtd">
<svg version="1.1" xmlns="http://www.w3.org/2000/svg" xmlns:xlink="http://www.w3.org/1999/xlink" width="20" height="20" viewBox="0 0 20 20">
	<path d="M16.25 8.75h-1.25v-3.75c0-2.761-2.239-5-5-5s-5 2.239-5 5v3.75h-1.25c-0.688 0-1.25 0.563-1.25 1.25v8.75c0 0.688 0.563 1.25 1.25 1.25h12.5c0.688 0 1.25-0.563 1.25-1.25v-8.75c0-0.688-0.563-1.25-1.25-1.25zM10 16.25c-0.69 0-1.25-0.56-1.25-1.25s0.56-1.25 1.25-1.25 1.25 0.56 1.25 1.25-0.56 1.25-1.25 1.25zM12.5 8.75h-5v-3.75c0-1.379 1.121-2.5 2.5-2.5s2.5 1.121 2.5 2.5v3.75z" fill="#ffffff" />
</svg>
