<?xml version="1.0" encoding="utf-8"?>
<!-- Generated by IcoMoon.io -->
<!DOCTYPE svg PUBLIC "-//W3C//DTD SVG 1.1//EN" "http://www.w3.org/Graphics/SVG/1.1/DTD/svg11.dtd">
<svg version="1.1" xmlns="http://www.w3.org/2000/svg" xmlns:xlink="http://www.w3.org/1999/xlink" width="20" height="20" viewBox="0 0 20 20">
	<path d="M15.8 8h-1.8v-2.4c0-2.897-1.335-4.6-4-4.6-2.666 0-4 1.703-4 4.6v0.4h2v-0.8c0-1.445 0.797-2.2 2-2.2 1.202 0 2 0.755 2 2.2v2.8h-8c-0.553 0-1 0.647-1 1.2v7.8c0 0.55 0.429 1.138 0.952 1.307l1.196 0.387c0.524 0.168 1.402 0.306 1.952 0.306h5.8c0.551 0 1.429-0.138 1.952-0.307l1.196-0.387c0.523-0.168 0.952-0.756 0.952-1.306v-7.8c0-0.553-0.647-1.2-1.2-1.2z" fill="#ffffff" />
</svg>
