<?xml version="1.0" encoding="utf-8"?>
<!-- Generated by IcoMoon.io -->
<!DOCTYPE svg PUBLIC "-//W3C//DTD SVG 1.1//EN" "http://www.w3.org/Graphics/SVG/1.1/DTD/svg11.dtd">
<svg version="1.1" xmlns="http://www.w3.org/2000/svg" xmlns:xlink="http://www.w3.org/1999/xlink" width="20" height="20" viewBox="0 0 20 20">
	<path d="M15.801 8.002h-1.801v-1.4c0-2.897-1.334-4.6-4-4.6-2.665 0-4 1.703-4 4.6v1.4h-2c-0.552 0-1 0.647-1 1.2v7.8c0 0.55 0.429 1.139 0.952 1.307l1.196 0.387c0.523 0.169 1.401 0.307 1.952 0.307h5.8c0.55 0 1.429-0.138 1.952-0.307l1.196-0.387c0.524-0.168 0.952-0.757 0.952-1.307v-7.8c0-0.553-0.647-1.2-1.199-1.2zM8 6.202c0-1.445 0.798-2.2 2-2.2 1.203 0 2 0.755 2 2.2v1.8h-4v-1.8z" fill="#ffffff" />
</svg>
