<?xml version="1.0" encoding="utf-8"?>
<!-- Generated by IcoMoon.io -->
<!DOCTYPE svg PUBLIC "-//W3C//DTD SVG 1.1//EN" "http://www.w3.org/Graphics/SVG/1.1/DTD/svg11.dtd">
<svg version="1.1" xmlns="http://www.w3.org/2000/svg" xmlns:xlink="http://www.w3.org/1999/xlink" width="20" height="20" viewBox="0 0 20 20">
	<path d="M15.625 8.125v-2.5c0-3.107-2.518-5.625-5.625-5.625s-5.625 2.518-5.625 5.625v2.5c-1.036 0-1.875 0.839-1.875 1.875v4.375c0 3.107 2.518 5.625 5.625 5.625h3.75c3.107 0 5.625-2.518 5.625-5.625v-4.375c0-1.036-0.84-1.875-1.875-1.875zM5.625 5.625c0-2.416 1.959-4.375 4.375-4.375s4.375 1.959 4.375 4.375v2.5h-1.25v-2.499c0-1.726-1.399-3.125-3.125-3.125s-3.125 1.399-3.125 3.125v2.499h-1.25v-2.5zM12.5 5.625v2.5h-5v-2.5c0-1.381 1.119-2.5 2.5-2.5s2.5 1.119 2.5 2.5zM16.25 11.875v2.5c0 2.412-1.963 4.375-4.375 4.375h-3.75c-2.412 0-4.375-1.963-4.375-4.375v-4.375c0-0.345 0.28-0.625 0.625-0.625 0.417 0 0.833 0 1.25 0h8.75c0.416 0 0.832 0 1.25 0 0.344 0 0.625 0.28 0.625 0.625v1.875zM10 11.875c0.69 0 1.25 0.559 1.25 1.25 0 0.381-0.205 1.105-0.416 1.676-0.171 0.461-0.345 0.822-0.834 0.822-0.449 0-0.663-0.365-0.833-0.829-0.209-0.57-0.417-1.291-0.417-1.67 0-0.691 0.56-1.25 1.25-1.25z" fill="#ffffff" />
</svg>
