<?xml version="1.0" encoding="utf-8"?>
<!-- Generated by IcoMoon.io -->
<!DOCTYPE svg PUBLIC "-//W3C//DTD SVG 1.1//EN" "http://www.w3.org/Graphics/SVG/1.1/DTD/svg11.dtd">
<svg version="1.1" xmlns="http://www.w3.org/2000/svg" xmlns:xlink="http://www.w3.org/1999/xlink" width="20" height="20" viewBox="0 0 20 20">
	<path d="M16.787 0.518l-0.090-0.518h-4.822l0.129 0.733c0.436 2.482 1.452 8.526 1.452 11.025 0 1.917-1.55 3.477-3.456 3.477-1.905 0-3.456-1.56-3.456-3.477 0-2.499 1.015-8.542 1.452-11.025l0.129-0.733h-4.822l-0.090 0.518c-0.529 3.055-1.416 8.578-1.416 11.239 0 4.545 3.68 8.242 8.203 8.242 4.523 0 8.203-3.697 8.203-8.242 0-2.661-0.887-8.184-1.416-11.239zM10 18.75c-3.834 0-6.953-3.137-6.953-6.992 0-1.578 0.33-4.24 0.706-6.758h2.272c-0.391 2.563-0.731 5.235-0.731 6.758 0 2.606 2.111 4.727 4.706 4.727 2.595 0 4.706-2.12 4.706-4.727 0-1.522-0.341-4.195-0.731-6.758h2.272c0.376 2.518 0.706 5.18 0.706 6.758 0 3.856-3.119 6.992-6.953 6.992z" fill="#ffffff" />
</svg>
