<?xml version="1.0" encoding="utf-8"?>
<!-- Generated by IcoMoon.io -->
<!DOCTYPE svg PUBLIC "-//W3C//DTD SVG 1.1//EN" "http://www.w3.org/Graphics/SVG/1.1/DTD/svg11.dtd">
<svg version="1.1" xmlns="http://www.w3.org/2000/svg" xmlns:xlink="http://www.w3.org/1999/xlink" width="20" height="20" viewBox="0 0 20 20">
	<path d="M12.164 17.859c-0.028 0.31 0.217 0.584 0.546 0.611l3.985 0.327c0.328 0.027 0.621-0.203 0.649-0.513l0.312-3.286-5.181-0.427-0.311 3.288zM2.344 14.999l0.311 3.286c0.029 0.31 0.322 0.54 0.65 0.513l3.985-0.327c0.328-0.027 0.574-0.302 0.545-0.611l-0.312-3.287-5.179 0.426zM1.831 9.583l0.321 3.39 5.181-0.426-0.322-3.387c-0.007-0.081-0.011-0.166-0.011-0.249 0-1.556 1.346-2.821 3-2.821s3 1.266 3 2.821c0 0.083-0.004 0.167-0.012 0.249l-0.32 3.387 5.18 0.426 0.321-3.39c0.020-0.224 0.031-0.449 0.031-0.672 0-4.252-3.679-7.711-8.2-7.711s-8.2 3.459-8.2 7.711c0 0.223 0.011 0.448 0.031 0.672z" fill="#ffffff" />
</svg>
