<?xml version="1.0" encoding="utf-8"?>
<!-- Generated by IcoMoon.io -->
<!DOCTYPE svg PUBLIC "-//W3C//DTD SVG 1.1//EN" "http://www.w3.org/Graphics/SVG/1.1/DTD/svg11.dtd">
<svg version="1.1" xmlns="http://www.w3.org/2000/svg" xmlns:xlink="http://www.w3.org/1999/xlink" width="20" height="20" viewBox="0 0 20 20">
	<path d="M16.667 0h-13.333c-1.833 0-3.334 1.5-3.334 3.334v13.332c0 1.835 1.5 3.334 3.334 3.334h13.333c1.834 0 3.333-1.499 3.333-3.334v-13.332c0-1.834-1.5-3.334-3.333-3.334zM16.667 2.5c0.156 0 0.304 0.046 0.43 0.124l-7.097 5.867-7.097-5.867c0.127-0.078 0.274-0.124 0.43-0.124h13.333zM3.334 17.5c-0.038 0-0.075-0.003-0.111-0.008l4.407-6.113-0.571-0.571-4.558 4.558v-11.936l7.5 9.070 7.5-9.070v11.936l-4.558-4.558-0.571 0.571 4.407 6.113c-0.036 0.005-0.073 0.008-0.111 0.008h-13.333z" fill="#ffffff" />
</svg>
