<?xml version="1.0" encoding="utf-8"?>
<!-- Generated by IcoMoon.io -->
<!DOCTYPE svg PUBLIC "-//W3C//DTD SVG 1.1//EN" "http://www.w3.org/Graphics/SVG/1.1/DTD/svg11.dtd">
<svg version="1.1" xmlns="http://www.w3.org/2000/svg" xmlns:xlink="http://www.w3.org/1999/xlink" width="20" height="20" viewBox="0 0 20 20">
	<path d="M17.5 3.125h-15c-1.381 0-2.5 1.12-2.5 2.5v8.125c0 1.381 1.119 2.5 2.5 2.5h15c1.381 0 2.5-1.119 2.5-2.5v-8.125c0-1.38-1.119-2.5-2.5-2.5zM1.25 6.406l4.374 3.281-4.374 3.281v-6.563zM18.75 13.75c0 0.69-0.561 1.25-1.25 1.25h-15c-0.689 0-1.25-0.56-1.25-1.25l4.895-3.672 2.73 2.048c0.333 0.249 0.729 0.375 1.125 0.375 0.396 0 0.791-0.126 1.124-0.375l2.731-2.048 4.895 3.672zM18.75 12.969l-4.375-3.281 4.375-3.281v6.563zM10.749 11.626c-0.218 0.164-0.477 0.25-0.749 0.25s-0.532-0.087-0.75-0.25l-8-6.001c0-0.689 0.561-1.25 1.25-1.25h15c0.689 0 1.25 0.561 1.25 1.25l-8.001 6.001z" fill="#ffffff" />
</svg>
