<?xml version="1.0" encoding="utf-8"?>
<!-- Generated by IcoMoon.io -->
<!DOCTYPE svg PUBLIC "-//W3C//DTD SVG 1.1//EN" "http://www.w3.org/Graphics/SVG/1.1/DTD/svg11.dtd">
<svg version="1.1" xmlns="http://www.w3.org/2000/svg" xmlns:xlink="http://www.w3.org/1999/xlink" width="20" height="20" viewBox="0 0 20 20">
	<path d="M10 0c-5.523 0-10 4.477-10 10s4.477 10 10 10 10-4.477 10-10-4.477-10-10-10zM5 5h10c0.178 0 0.352 0.038 0.511 0.111l-5.511 6.429-5.511-6.429c0.159-0.072 0.332-0.111 0.511-0.111zM3.75 13.75v-7.5c0-0.026 0.001-0.052 0.003-0.078l3.665 4.276-3.625 3.625c-0.028-0.104-0.043-0.213-0.043-0.323zM15 15h-10c-0.11 0-0.219-0.015-0.323-0.043l3.557-3.557 1.766 2.061 1.766-2.060 3.557 3.557c-0.104 0.028-0.213 0.043-0.323 0.043zM16.25 13.75c0 0.11-0.015 0.219-0.043 0.323l-3.625-3.625 3.665-4.276c0.002 0.026 0.003 0.052 0.003 0.078v7.5z" fill="#ffffff" />
</svg>
