<?xml version="1.0" encoding="utf-8"?>
<!-- Generated by IcoMoon.io -->
<!DOCTYPE svg PUBLIC "-//W3C//DTD SVG 1.1//EN" "http://www.w3.org/Graphics/SVG/1.1/DTD/svg11.dtd">
<svg version="1.1" xmlns="http://www.w3.org/2000/svg" xmlns:xlink="http://www.w3.org/1999/xlink" width="20" height="20" viewBox="0 0 20 20">
	<path d="M1.594 5.286c0.488 0.263 7.249 3.894 7.501 4.029 0.251 0.135 0.577 0.2 0.905 0.2 0.329 0 0.655-0.065 0.906-0.201 0.252-0.135 7.012-3.766 7.5-4.029 0.489-0.262 0.951-1.085 0.054-1.085h-16.919c-0.897 0-0.436 0.823 0.053 1.086zM18.613 7.286c-0.555 0.29-7.367 3.851-7.707 4.029s-0.577 0.201-0.906 0.201c-0.328 0-0.565-0.023-0.905-0.201s-7.153-3.74-7.707-4.029c-0.391-0.204-0.388 0.035-0.388 0.219 0 0.184 0 7.335 0 7.335 0 0.42 0.559 0.96 0.992 0.96h16.017c0.434 0 0.991-0.54 0.991-0.959 0 0 0-7.151 0-7.335 0-0.185 0.004-0.424-0.387-0.22z" fill="#ffffff" />
</svg>
