<?xml version="1.0" encoding="utf-8"?>
<!-- Generated by IcoMoon.io -->
<!DOCTYPE svg PUBLIC "-//W3C//DTD SVG 1.1//EN" "http://www.w3.org/Graphics/SVG/1.1/DTD/svg11.dtd">
<svg version="1.1" xmlns="http://www.w3.org/2000/svg" xmlns:xlink="http://www.w3.org/1999/xlink" width="20" height="20" viewBox="0 0 20 20">
	<path d="M16.667 0h-13.333c-1.833 0-3.334 1.5-3.334 3.334v13.332c0 1.835 1.5 3.334 3.334 3.334h13.333c1.834 0 3.333-1.499 3.333-3.334v-13.332c0-1.834-1.5-3.334-3.333-3.334zM3.567 17.317l-1.509-1.509 5-5 0.571 0.571-4.063 5.938zM2.996 3.879l0.571-0.571 6.433 5.183 6.433-5.183 0.571 0.571-7.004 8.254-7.004-8.254zM16.433 17.317l-4.063-5.938 0.571-0.571 5 5-1.509 1.509z" fill="#ffffff" />
</svg>
