<?xml version="1.0" encoding="utf-8"?>
<!-- Generated by IcoMoon.io -->
<!DOCTYPE svg PUBLIC "-//W3C//DTD SVG 1.1//EN" "http://www.w3.org/Graphics/SVG/1.1/DTD/svg11.dtd">
<svg version="1.1" xmlns="http://www.w3.org/2000/svg" xmlns:xlink="http://www.w3.org/1999/xlink" width="20" height="20" viewBox="0 0 20 20">
	<path d="M19.683 5.024l-4.674-2.927c-0.207-0.13-0.466-0.13-0.673 0l-4.336 2.716-4.336-2.715c-0.207-0.13-0.466-0.13-0.673 0l-4.674 2.926c-0.196 0.123-0.317 0.346-0.317 0.585v11.707c0 0.246 0.126 0.474 0.332 0.595s0.457 0.118 0.659-0.009l4.336-2.716 4.336 2.716c0.207 0.13 0.466 0.13 0.674 0l4.336-2.716 4.336 2.716c0.103 0.065 0.22 0.098 0.337 0.098 0.111 0 0.222-0.030 0.322-0.089 0.205-0.121 0.332-0.349 0.332-0.595v-11.707c0-0.239-0.121-0.462-0.317-0.585zM4.673 14.003l-3.365 2.107v-10.114l3.365-2.107v10.114zM9.346 16.11l-3.365-2.107v-10.114l3.365 2.107v10.114zM14.019 14.003l-3.364 2.107v-10.114l3.364-2.107v10.114zM18.691 16.11l-3.364-2.107v-10.114l3.364 2.107v10.114z" fill="#ffffff" />
</svg>
