<?xml version="1.0" encoding="utf-8"?>
<!-- Generated by IcoMoon.io -->
<!DOCTYPE svg PUBLIC "-//W3C//DTD SVG 1.1//EN" "http://www.w3.org/Graphics/SVG/1.1/DTD/svg11.dtd">
<svg version="1.1" xmlns="http://www.w3.org/2000/svg" xmlns:xlink="http://www.w3.org/1999/xlink" width="20" height="20" viewBox="0 0 20 20">
	<path d="M15.625 0c-1.283 0-2.291 0.881-3.015 2.241l-0.013-0.008c-1.051 2.058-2.616 3.391-4.331 3.391h-5.766c-1.402 0-2.5 1.373-2.5 3.125 0 1.753 1.098 3.125 2.5 3.125 0.689 0.003 1.247 0.56 1.247 1.25v5.625c0 0.691 0.56 1.25 1.25 1.25h2.5c0.69 0 1.25-0.559 1.25-1.25v-0.625c0-0.625-0.625-0.904-0.625-1.25v-4.375c0-0.014 0.010-0.024 0.011-0.039 0.006-0.089 0.031-0.172 0.070-0.247 0.011-0.021 0.023-0.037 0.037-0.055 0.050-0.074 0.113-0.136 0.19-0.183 0.004-0.003 0.005-0.006 0.009-0.009 0.002 0 0.004-0.002 0.007-0.002 0.050-0.028 0.11-0.034 0.166-0.050 1.578 0.168 3.006 1.441 3.986 3.358l0.016-0.008c0.724 1.356 1.73 2.234 3.012 2.234 2.873 0 4.375-4.402 4.375-8.75s-1.502-8.75-4.375-8.75zM12.5 8.75c0-0.648 0.038-1.274 0.103-1.875h1.772c0.69 0 1.25 0.84 1.25 1.875 0 1.036-0.56 1.875-1.25 1.875h-1.772c-0.064-0.601-0.103-1.226-0.103-1.875zM1.25 8.75c0-1.035 0.56-1.875 1.25-1.875h4.384c-0.387 0.456-0.634 1.117-0.634 1.875 0 0.759 0.246 1.421 0.634 1.875h-4.384c-0.69 0-1.25-0.839-1.25-1.875zM7.497 18.75h-2.5v-5.625c0-0.456-0.122-0.881-0.336-1.25h0.436v0.008h1.88c-0.067 0.194-0.106 0.401-0.106 0.617v4.375c0 0.602 0.336 1.002 0.537 1.241 0.027 0.033 0.060 0.067 0.088 0.104v0.53zM8.266 10.633h-0.141v-0.008c-0.69 0-1.25-0.839-1.25-1.875 0-1.035 0.56-1.875 1.25-1.875h0.141c1.179 0 2.282-0.464 3.254-1.261-0.179 1.006-0.27 2.072-0.27 3.136 0 1.068 0.091 2.138 0.271 3.144-0.972-0.798-2.076-1.262-3.255-1.262zM15.625 16.25c-1.261 0-2.344-1.794-2.838-4.375h1.588c1.401 0 2.5-1.372 2.5-3.125 0-1.752-1.099-3.125-2.5-3.125h-1.588c0.494-2.579 1.577-4.375 2.838-4.375 1.726 0 3.125 3.358 3.125 7.5s-1.399 7.5-3.125 7.5z" fill="#ffffff" />
</svg>
