<?xml version="1.0" encoding="utf-8"?>
<!-- Generated by IcoMoon.io -->
<!DOCTYPE svg PUBLIC "-//W3C//DTD SVG 1.1//EN" "http://www.w3.org/Graphics/SVG/1.1/DTD/svg11.dtd">
<svg version="1.1" xmlns="http://www.w3.org/2000/svg" xmlns:xlink="http://www.w3.org/1999/xlink" width="20" height="20" viewBox="0 0 20 20">
	<path d="M17.223 7.029c-1.583-3.685-4.132-6.491-5.421-5.966-2.189 0.89 1.305 5.164-9.446 9.534-0.929 0.377-1.164 1.888-0.775 2.791 0.388 0.903 1.658 1.802 2.587 1.425 0.16-0.065 0.751-0.255 0.751-0.255 0.663 0.89 1.357 0.362 1.604 0.928 0.296 0.68 0.939 2.157 1.157 2.659 0.22 0.502 0.716 0.968 1.076 0.831 0.358-0.137 1.581-0.603 2.049-0.78s0.58-0.595 0.437-0.924c-0.154-0.354-0.786-0.458-0.966-0.872-0.181-0.414-0.77-1.739-0.939-2.157-0.23-0.568 0.259-1.030 0.97-1.104 4.894-0.51 5.809 2.513 7.475 1.835 1.286-0.526 1.024-4.26-0.559-7.945zM16.672 13.006c-0.286 0.116-2.212-1.402-3.443-4.267-1.23-2.864-1.075-5.482-0.79-5.598 0.286-0.117 2.165 1.716 3.396 4.58 1.229 2.863 1.123 5.169 0.837 5.285z" fill="#ffffff" />
</svg>
