<?xml version="1.0" encoding="utf-8"?>
<!-- Generated by IcoMoon.io -->
<!DOCTYPE svg PUBLIC "-//W3C//DTD SVG 1.1//EN" "http://www.w3.org/Graphics/SVG/1.1/DTD/svg11.dtd">
<svg version="1.1" xmlns="http://www.w3.org/2000/svg" xmlns:xlink="http://www.w3.org/1999/xlink" width="20" height="20" viewBox="0 0 20 20">
	<path d="M10 1.25c5.523 0 10 4.477 10 10 0 3.765-2.082 7.044-5.156 8.75h-9.687c-3.075-1.706-5.156-4.985-5.156-8.75 0-5.523 4.477-10 10-10zM15.662 16.912c1.512-1.512 2.345-3.523 2.345-5.662h-1.758v-1.25h1.661c-0.137-0.879-0.418-1.722-0.831-2.5h-2.080v-1.25h1.256c-0.184-0.23-0.382-0.451-0.593-0.662-0.903-0.903-1.983-1.563-3.162-1.949v1.362h-1.25v-1.661c-0.41-0.064-0.827-0.097-1.25-0.097s-0.84 0.033-1.25 0.097v1.661h-1.25v-1.362c-1.179 0.386-2.26 1.046-3.162 1.949-0.211 0.211-0.409 0.433-0.593 0.662h1.256v1.25h-2.080c-0.414 0.778-0.694 1.621-0.831 2.5h1.661v1.25h-1.758c0 2.139 0.833 4.15 2.345 5.662 0.209 0.209 0.428 0.405 0.655 0.588h3.757l0.714-10h1.071l0.714 10h3.757c0.227-0.183 0.446-0.378 0.655-0.588z" fill="#ffffff" />
</svg>
