<?xml version="1.0" encoding="utf-8"?>
<!-- Generated by IcoMoon.io -->
<!DOCTYPE svg PUBLIC "-//W3C//DTD SVG 1.1//EN" "http://www.w3.org/Graphics/SVG/1.1/DTD/svg11.dtd">
<svg version="1.1" xmlns="http://www.w3.org/2000/svg" xmlns:xlink="http://www.w3.org/1999/xlink" width="20" height="20" viewBox="0 0 20 20">
	<path d="M10 0c-5.523 0-10 4.477-10 10s4.477 10 10 10 10-4.477 10-10-4.477-10-10-10zM5.915 16.292c0.217-0.598 0.335-1.244 0.335-1.917 0-2.429-1.539-4.498-3.695-5.285 0.199-1.659 0.942-3.193 2.142-4.393 1.417-1.417 3.3-2.197 5.303-2.197s3.887 0.78 5.303 2.197c1.2 1.2 1.943 2.734 2.142 4.393-2.156 0.787-3.696 2.857-3.696 5.285 0 0.673 0.118 1.319 0.335 1.917-1.205 0.786-2.613 1.208-4.085 1.208-1.473 0-2.88-0.422-4.085-1.208zM10.776 12.519c0.271 0.068 0.474 0.314 0.474 0.606v1.25c0 0.344-0.281 0.625-0.625 0.625h-1.25c-0.344 0-0.625-0.281-0.625-0.625v-1.25c0-0.291 0.203-0.537 0.474-0.606l0.464-8.769h0.625l0.464 8.769z" fill="#ffffff" />
</svg>
