<?xml version="1.0" encoding="utf-8"?>
<!-- Generated by IcoMoon.io -->
<!DOCTYPE svg PUBLIC "-//W3C//DTD SVG 1.1//EN" "http://www.w3.org/Graphics/SVG/1.1/DTD/svg11.dtd">
<svg version="1.1" xmlns="http://www.w3.org/2000/svg" xmlns:xlink="http://www.w3.org/1999/xlink" width="20" height="20" viewBox="0 0 20 20">
	<path d="M16 7.243h-0.6c-0.221 0-0.4 0.18-0.4 0.4v2.757c0 1.337-1.053 3.6-5 3.6s-5-2.263-5-3.6v-2.757c0-0.22-0.181-0.4-0.4-0.4h-0.6c-0.22 0-0.4 0.18-0.4 0.4v2.757c0 2.237 1.644 4.63 5.4 4.96v2.64h-2.601c-0.219 0-0.399 0.18-0.399 0.4v1.2c0 0.22 0.18 0.4 0.399 0.4h7.2c0.221 0 0.4-0.18 0.4-0.4v-1.2c0-0.221-0.18-0.4-0.4-0.4h-2.599v-2.64c3.757-0.33 5.4-2.724 5.4-4.96v-2.757c0-0.22-0.18-0.4-0.4-0.4zM10 12c2.347 0 3-0.964 3-1.6v-3.157h-6v3.157c0 0.636 0.653 1.6 3 1.6zM13 1.6c0-0.637-0.653-1.6-3-1.6s-3 0.963-3 1.6v4.243h6v-4.243z" fill="#ffffff" />
</svg>
