<?xml version="1.0" encoding="utf-8"?>
<!-- Generated by IcoMoon.io -->
<!DOCTYPE svg PUBLIC "-//W3C//DTD SVG 1.1//EN" "http://www.w3.org/Graphics/SVG/1.1/DTD/svg11.dtd">
<svg version="1.1" xmlns="http://www.w3.org/2000/svg" xmlns:xlink="http://www.w3.org/1999/xlink" width="20" height="20" viewBox="0 0 20 20">
	<path d="M9.546 17.258h0.954v2.142c6.511-0.684 9.982-7.141 9.421-11.691-0.564-4.55-5.451-7.692-10.944-7.019-5.49 0.675-9.467 4.909-8.904 9.459 0.512 4.14 4.6 7.113 9.473 7.109zM15.695 12.859h-1.832v-4.953c0-0.198-0.018-0.386-0.053-0.557-0.029-0.149-0.084-0.273-0.164-0.379-0.076-0.1-0.188-0.182-0.33-0.244-0.152-0.066-0.363-0.1-0.623-0.1-0.537 0-0.957 0.14-1.25 0.415-0.293 0.273-0.433 0.633-0.433 1.099v4.719h-1.832v-4.953c0-0.206-0.019-0.395-0.058-0.563-0.034-0.152-0.091-0.279-0.173-0.387-0.077-0.101-0.179-0.179-0.314-0.237-0.144-0.061-0.34-0.093-0.581-0.093-0.312 0-0.58 0.058-0.794 0.172-0.223 0.119-0.406 0.262-0.542 0.424-0.137 0.164-0.237 0.334-0.298 0.505-0.062 0.172-0.092 0.311-0.092 0.413v4.719h-1.831v-7.695h1.758v0.601c0.573-0.508 1.305-0.765 2.18-0.765 0.51 0 0.98 0.102 1.399 0.303 0.306 0.147 0.554 0.367 0.738 0.654 0.23-0.248 0.504-0.453 0.813-0.609 0.455-0.232 0.959-0.348 1.5-0.348 0.402 0 0.773 0.042 1.104 0.125 0.342 0.087 0.643 0.226 0.893 0.413 0.258 0.193 0.461 0.446 0.604 0.751 0.141 0.3 0.213 0.659 0.213 1.068v5.502z" fill="#ffffff" />
</svg>
