<?xml version="1.0" encoding="utf-8"?>
<!-- Generated by IcoMoon.io -->
<!DOCTYPE svg PUBLIC "-//W3C//DTD SVG 1.1//EN" "http://www.w3.org/Graphics/SVG/1.1/DTD/svg11.dtd">
<svg version="1.1" xmlns="http://www.w3.org/2000/svg" xmlns:xlink="http://www.w3.org/1999/xlink" width="20" height="20" viewBox="0 0 20 20">
	<path d="M14.375 0h-8.75c-1.031 0-1.875 0.844-1.875 1.875v16.25c0 1.031 0.844 1.875 1.875 1.875h8.75c1.031 0 1.875-0.844 1.875-1.875v-16.25c0-1.031-0.844-1.875-1.875-1.875zM7.5 0.938h5v0.625h-5v-0.625zM10 18.75c-0.69 0-1.25-0.56-1.25-1.25s0.56-1.25 1.25-1.25 1.25 0.56 1.25 1.25-0.56 1.25-1.25 1.25zM15 15h-10v-12.5h10v12.5z" fill="#ffffff" />
</svg>
