<?xml version="1.0" encoding="utf-8"?>
<!-- Generated by IcoMoon.io -->
<!DOCTYPE svg PUBLIC "-//W3C//DTD SVG 1.1//EN" "http://www.w3.org/Graphics/SVG/1.1/DTD/svg11.dtd">
<svg version="1.1" xmlns="http://www.w3.org/2000/svg" xmlns:xlink="http://www.w3.org/1999/xlink" width="20" height="20" viewBox="0 0 20 20">
	<path d="M13.877 0h-7.754c-1.123 0-2.041 0.918-2.041 2.041v15.918c0 1.122 0.918 2.041 2.041 2.041h7.754c1.123 0 2.041-0.919 2.041-2.041v-15.918c0-1.123-0.918-2.041-2.041-2.041zM10 19.184c-0.788 0-1.428-0.457-1.428-1.021s0.64-1.021 1.428-1.021c0.789 0 1.428 0.457 1.428 1.021s-0.639 1.021-1.428 1.021zM14.285 16.122h-8.571v-13.469h8.571v13.469z" fill="#ffffff" />
</svg>
