<?xml version="1.0" encoding="utf-8"?>
<!-- Generated by IcoMoon.io -->
<!DOCTYPE svg PUBLIC "-//W3C//DTD SVG 1.1//EN" "http://www.w3.org/Graphics/SVG/1.1/DTD/svg11.dtd">
<svg version="1.1" xmlns="http://www.w3.org/2000/svg" xmlns:xlink="http://www.w3.org/1999/xlink" width="20" height="20" viewBox="0 0 20 20">
	<path d="M9.994 4.376c0.002 3.106 2.518 5.625 5.624 5.625 1.667 0 3.15-0.74 4.243-2.451 0.184 0.033 0.144 1.692 0.132 2.451-0.089 5.522-4.477 9.999-9.999 9.999-5.522 0-9.999-4.477-9.999-9.999s4.477-9.926 9.999-9.999c0.659-0.009 1.354 0.012 2.478 0.067-0.699 0.714-2.479 2.446-2.478 4.307zM7.494 6.251c0-1.351 0.438-2.594 1.167-3.615-3.503 0.631-6.166 3.68-6.166 7.365 0 4.141 3.358 7.499 7.499 7.499 3.685 0 6.734-2.663 7.365-6.166-1.022 0.729-2.264 1.167-3.615 1.167-3.452 0-6.249-2.798-6.249-6.249z" fill="#ffffff" />
</svg>
