<?xml version="1.0" encoding="utf-8"?>
<!-- Generated by IcoMoon.io -->
<!DOCTYPE svg PUBLIC "-//W3C//DTD SVG 1.1//EN" "http://www.w3.org/Graphics/SVG/1.1/DTD/svg11.dtd">
<svg version="1.1" xmlns="http://www.w3.org/2000/svg" xmlns:xlink="http://www.w3.org/1999/xlink" width="20" height="20" viewBox="0 0 20 20">
	<path d="M15.402 14.403l-2.626-7.536c-0.723-2.074-2.967-3.22-5.093-2.654l-1.976-3.834c-0.179-0.347-0.598-0.48-0.937-0.297-0.339 0.184-0.469 0.614-0.29 0.961l1.929 3.743c-1.537 1.020-2.336 2.953-1.83 4.773l2.14 7.696c0.602 2.163 3.080 3.265 5.571 2.503 2.459-0.863 3.851-3.237 3.112-5.355zM8.899 8.923c-0.729 0.239-1.511-0.172-1.745-0.921-0.234-0.748 0.168-1.549 0.898-1.788 0.73-0.24 1.512 0.172 1.746 0.92s-0.168 1.549-0.899 1.789z" fill="#ffffff" />
</svg>
