<?xml version="1.0" encoding="utf-8"?>
<!-- Generated by IcoMoon.io -->
<!DOCTYPE svg PUBLIC "-//W3C//DTD SVG 1.1//EN" "http://www.w3.org/Graphics/SVG/1.1/DTD/svg11.dtd">
<svg version="1.1" xmlns="http://www.w3.org/2000/svg" xmlns:xlink="http://www.w3.org/1999/xlink" width="20" height="20" viewBox="0 0 20 20">
	<path d="M16.25 6.25h-1.25v-1.875c0-1.726-3.358-3.125-7.5-3.125-4.142 0-7.5 1.399-7.5 3.125v11.25c0 1.726 3.358 3.125 7.5 3.125s7.5-1.399 7.5-3.125v-1.875h1.25c2.063 0 3.75-1.688 3.75-3.75s-1.688-3.75-3.75-3.75zM3.439 3.703c1.132-0.373 2.574-0.578 4.061-0.578s2.93 0.205 4.061 0.578c0.723 0.238 1.16 0.493 1.395 0.672-0.234 0.179-0.672 0.434-1.395 0.672-1.132 0.373-2.574 0.578-4.061 0.578s-2.93-0.205-4.061-0.578c-0.723-0.238-1.16-0.493-1.395-0.672 0.234-0.179 0.672-0.434 1.395-0.672zM17.663 11.101c-0.172 0.172-0.545 0.462-1.101 0.462h-1.563v-3.125h1.563c0.556 0 0.928 0.289 1.101 0.462s0.462 0.545 0.462 1.101-0.289 0.928-0.462 1.101z" fill="#ffffff" />
</svg>
