<?xml version="1.0" encoding="utf-8"?>
<!-- Generated by IcoMoon.io -->
<!DOCTYPE svg PUBLIC "-//W3C//DTD SVG 1.1//EN" "http://www.w3.org/Graphics/SVG/1.1/DTD/svg11.dtd">
<svg version="1.1" xmlns="http://www.w3.org/2000/svg" xmlns:xlink="http://www.w3.org/1999/xlink" width="20" height="20" viewBox="0 0 20 20">
	<path d="M15 1h-10c-1.1 0-2 0.9-2 2v14c0 1.1 0.9 2 2 2h10c1.101 0 2-0.9 2-2v-14c0-1.1-0.899-2-2-2zM12.796 10.521c-0.237 0.37-0.363 0.212-0.292 0 0.188-0.558 0.181-2.247-1.392-2.494v5.213c0 0.972-0.56 1.582-1.75 1.964-1.156 0.37-2.45-0.015-2.753-0.846-0.302-0.83 0.378-1.84 1.519-2.256 0.637-0.231 1.283-0.229 1.781-0.036v-7.354h1.203c0 1.263 3.381 3.169 1.684 5.809z" fill="#ffffff" />
</svg>
