<?xml version="1.0" encoding="utf-8"?>
<!-- Generated by IcoMoon.io -->
<!DOCTYPE svg PUBLIC "-//W3C//DTD SVG 1.1//EN" "http://www.w3.org/Graphics/SVG/1.1/DTD/svg11.dtd">
<svg version="1.1" xmlns="http://www.w3.org/2000/svg" xmlns:xlink="http://www.w3.org/1999/xlink" width="20" height="20" viewBox="0 0 20 20">
	<path d="M6.11 2.729v11.867c-0.646-0.135-1.398-0.084-2.144 0.192-1.677 0.623-2.269 2.14-1.824 3.386 0.444 1.247 1.757 1.751 3.434 1.128 1.424-0.529 2.357-1.701 2.333-2.807 0 0 0-6.293 0-9.803l7.101-1.627v7.53c-0.646-0.135-1.398-0.084-2.144 0.192-1.678 0.623-2.27 2.14-1.825 3.386 0.445 1.247 1.757 1.751 3.435 1.128 1.425-0.529 2.356-1.701 2.334-2.807v-14.064l-10.7 2.299z" fill="#ffffff" />
</svg>
