<?xml version="1.0" encoding="utf-8"?>
<!-- Generated by IcoMoon.io -->
<!DOCTYPE svg PUBLIC "-//W3C//DTD SVG 1.1//EN" "http://www.w3.org/Graphics/SVG/1.1/DTD/svg11.dtd">
<svg version="1.1" xmlns="http://www.w3.org/2000/svg" xmlns:xlink="http://www.w3.org/1999/xlink" width="20" height="20" viewBox="0 0 20 20">
	<path d="M19.554 0.293c-0.227-0.191-0.511-0.293-0.803-0.293-0.072 0-0.145 0.006-0.217 0.019l-10.626 1.875c-0.597 0.105-1.032 0.624-1.032 1.231v10.731c-0.634-0.46-1.457-0.731-2.371-0.731-0.531 0-1.063 0.088-1.581 0.26-1.186 0.396-2.137 1.189-2.61 2.178-0.365 0.764-0.412 1.596-0.134 2.341 0.476 1.274 1.827 2.096 3.443 2.096 0.531 0 1.063-0.087 1.58-0.26 1.186-0.394 2.137-1.188 2.609-2.175 0.203-0.426 0.298-0.873 0.302-1.315h0.011v-10c0.072 0 0.145-0.006 0.218-0.018l10.409-1.837v7.586c-0.635-0.46-1.457-0.731-2.372-0.731-0.531 0-1.063 0.088-1.581 0.26-1.186 0.396-2.137 1.189-2.609 2.177-0.365 0.764-0.412 1.596-0.134 2.341 0.476 1.274 1.826 2.096 3.442 2.096 0.531 0 1.063-0.087 1.581-0.26 1.185-0.394 2.136-1.188 2.609-2.175 0.204-0.426 0.298-0.873 0.303-1.315h0.011v-13.125c0-0.369-0.164-0.72-0.447-0.957zM4.805 18.555c-1.497 0.499-3.046 0.011-3.456-1.087-0.411-1.1 0.469-2.396 1.966-2.896 1.497-0.499 3.046-0.012 3.456 1.088 0.412 1.099-0.469 2.396-1.966 2.896zM16.658 16.68c-1.499 0.499-3.047 0.011-3.457-1.087-0.411-1.1 0.47-2.396 1.966-2.896 1.499-0.499 3.047-0.012 3.457 1.088 0.412 1.099-0.468 2.396-1.966 2.896zM18.725 3.125l-10.626 1.875v-1.875l10.626-1.875v1.875z" fill="#ffffff" />
</svg>
