<?xml version="1.0" encoding="utf-8"?>
<!-- Generated by IcoMoon.io -->
<!DOCTYPE svg PUBLIC "-//W3C//DTD SVG 1.1//EN" "http://www.w3.org/Graphics/SVG/1.1/DTD/svg11.dtd">
<svg version="1.1" xmlns="http://www.w3.org/2000/svg" xmlns:xlink="http://www.w3.org/1999/xlink" width="20" height="20" viewBox="0 0 20 20">
	<path d="M18.521 1.479c-0.39-0.391-1.023-0.391-1.414 0l-15.628 15.628c-0.391 0.391-0.391 1.024 0 1.414 0.195 0.195 0.451 0.293 0.707 0.293s0.512-0.098 0.707-0.293l15.628-15.628c0.391-0.391 0.391-1.025 0-1.414zM14.201 9.193c1.389 1.884 1.818 3.52 1.559 3.779-0.26 0.258-1.894-0.171-3.778-1.561l-5.526 5.527c4.186 1.838 9.627-2.016 10.605-2.994 0.925-0.923 0.097-3.311-1.856-5.755l-1.004 1.004zM8.667 7.939c-1.099-1.657-1.43-3.022-1.194-3.259 0.233-0.235 1.6 0.097 3.257 1.196l1.023-1.023c-2.264-1.674-4.395-2.333-5.256-1.469-0.929 0.926-4.449 5.877-3.232 9.957l5.402-5.402z" fill="#ffffff" />
</svg>
