<?xml version="1.0" encoding="utf-8"?>
<!-- Generated by IcoMoon.io -->
<!DOCTYPE svg PUBLIC "-//W3C//DTD SVG 1.1//EN" "http://www.w3.org/Graphics/SVG/1.1/DTD/svg11.dtd">
<svg version="1.1" xmlns="http://www.w3.org/2000/svg" xmlns:xlink="http://www.w3.org/1999/xlink" width="20" height="20" viewBox="0 0 20 20">
	<path d="M5.273 6.914c0.201 0 0.395 0.030 0.577 0.087 0.69-0.773 1.455-1.477 2.283-2.101-0.034-0.145-0.055-0.297-0.055-0.454 0-0.218 0.036-0.426 0.102-0.62-0.927-0.666-1.937-1.224-3.009-1.656-1.007 0.622-1.884 1.433-2.583 2.383 0.519 0.919 1.137 1.776 1.838 2.557 0.257-0.125 0.544-0.196 0.847-0.196zM3.316 8.871c0-0.274 0.057-0.536 0.159-0.773-0.627-0.69-1.197-1.434-1.696-2.228-0.625 1.242-0.979 2.645-0.979 4.13 0 1.721 0.474 3.33 1.296 4.707 0.293-1.655 0.851-3.22 1.62-4.654-0.25-0.328-0.4-0.737-0.4-1.182zM10.035 2.488c0.518 0 0.986 0.202 1.336 0.529 1.021-0.439 2.097-0.776 3.216-0.991-1.351-0.778-2.916-1.226-4.587-1.226-1.139 0-2.229 0.209-3.235 0.588 0.799 0.395 1.561 0.854 2.276 1.374 0.292-0.173 0.631-0.274 0.994-0.274zM12.963 11.708c0.122-0.254 0.295-0.478 0.509-0.656-0.578-1.778-1.493-3.404-2.672-4.804-0.235 0.1-0.493 0.155-0.765 0.155-0.424 0-0.816-0.137-1.137-0.366-0.71 0.539-1.366 1.144-1.963 1.804 0.186 0.299 0.295 0.651 0.295 1.030 0 0.205-0.031 0.401-0.089 0.587 1.717 1.147 3.693 1.934 5.822 2.25zM15.502 14.351c0.026 0.37 0.041 0.744 0.041 1.121 0 0.665-0.043 1.318-0.123 1.961 1.561-1.14 2.748-2.757 3.348-4.639-0.71 0.172-1.438 0.295-2.181 0.366-0.175 0.535-0.573 0.969-1.085 1.191zM12.504 13.023c-2.271-0.376-4.377-1.242-6.209-2.484-0.298 0.183-0.646 0.29-1.021 0.29-0.138 0-0.271-0.015-0.401-0.042-0.877 1.664-1.438 3.52-1.6 5.486 0.876 0.939 1.945 1.695 3.146 2.203 1.49-2.291 3.574-4.188 6.085-5.453zM16.176 3.182c-1.474 0.142-2.882 0.512-4.193 1.068 0.008 0.064 0.011 0.13 0.011 0.196 0 0.309-0.073 0.6-0.201 0.859 1.31 1.538 2.327 3.33 2.97 5.291 0.795 0.015 1.476 0.502 1.769 1.195 0.886-0.090 1.748-0.26 2.579-0.504 0.057-0.42 0.089-0.849 0.089-1.287 0-2.704-1.167-5.136-3.024-6.818zM13.489 14.069c-2.345 1.098-4.304 2.789-5.724 4.856 0.715 0.179 1.464 0.275 2.235 0.275 1.389 0 2.703-0.309 3.883-0.859 0.189-0.927 0.29-1.886 0.29-2.869 0-0.354-0.017-0.706-0.043-1.055-0.236-0.075-0.453-0.194-0.641-0.348z" fill="#ffffff" />
</svg>
