<?xml version="1.0" encoding="utf-8"?>
<!-- Generated by IcoMoon.io -->
<!DOCTYPE svg PUBLIC "-//W3C//DTD SVG 1.1//EN" "http://www.w3.org/Graphics/SVG/1.1/DTD/svg11.dtd">
<svg version="1.1" xmlns="http://www.w3.org/2000/svg" xmlns:xlink="http://www.w3.org/1999/xlink" width="20" height="20" viewBox="0 0 20 20">
	<path d="M18.69 12.346l-1.727-1.54c-0.5-0.446-0.5-1.174 0-1.62l1.727-1.539c0.5-0.446 0.366-0.861-0.297-0.924l-2.289-0.217c-0.663-0.063-1.020-0.633-0.792-1.267l1.215-3.382c0.228-0.634-0.051-0.865-0.619-0.513l-2.701 1.67c-0.568 0.352-1.302 0.16-1.631-0.427l-0.979-1.746c-0.328-0.587-0.872-0.59-1.207-0.007l-0.909 1.582c-0.335 0.583-1.105 0.832-1.711 0.553l-1.6-0.735c-0.607-0.278-1.073 0.044-1.037 0.718l0.087 1.615c0.036 0.673-0.461 1.367-1.104 1.54l-1.545 0.415c-0.643 0.174-0.761 0.68-0.261 1.126l1.727 1.539c0.5 0.445 0.5 1.174 0 1.619l-1.727 1.538c-0.5 0.447-0.368 0.877 0.293 0.957l2.095 0.254c0.661 0.082 1.030 0.672 0.819 1.311l-1.075 3.258c-0.211 0.641 0.090 0.891 0.668 0.555l2.463-1.424c0.579-0.336 1.356-0.15 1.728 0.408l1.023 1.537c0.371 0.561 0.93 0.529 1.239-0.068l0.899-1.732c0.311-0.598 1.053-0.842 1.649-0.543l1.734 0.867c0.598 0.299 1.057-0.008 1.021-0.682l-0.087-1.615c-0.036-0.674 0.461-1.367 1.104-1.541l1.544-0.414c0.645-0.175 0.763-0.681 0.263-1.126zM11 14.195h-2v-2.1h2v2.1zM11 10.996h-2v-5.2h2v5.2z" fill="#ffffff" />
</svg>
