<?xml version="1.0" encoding="utf-8"?>
<!-- Generated by IcoMoon.io -->
<!DOCTYPE svg PUBLIC "-//W3C//DTD SVG 1.1//EN" "http://www.w3.org/Graphics/SVG/1.1/DTD/svg11.dtd">
<svg version="1.1" xmlns="http://www.w3.org/2000/svg" xmlns:xlink="http://www.w3.org/1999/xlink" width="20" height="20" viewBox="0 0 20 20">
	<path d="M16 1h-12c-1.1 0-2 0.9-2 2v14c0 1.1 0.9 2 2 2h12c1.101 0 2-0.9 2-2v-14c0-1.1-0.899-2-2-2zM16 17h-12v-14h12v14zM11 12h-5v1h5v-1zM14 8h-4v1h4v-1zM10 7h4v-2h-4v2zM9 5h-3v4h3v-4zM8 10h-2v1h2v-1zM9 11h5v-1h-5v1zM14 14h-8v1h8v-1zM12 13h2v-1h-2v1z" fill="#ffffff" />
</svg>
