<?xml version="1.0" encoding="utf-8"?>
<!-- Generated by IcoMoon.io -->
<!DOCTYPE svg PUBLIC "-//W3C//DTD SVG 1.1//EN" "http://www.w3.org/Graphics/SVG/1.1/DTD/svg11.dtd">
<svg version="1.1" xmlns="http://www.w3.org/2000/svg" xmlns:xlink="http://www.w3.org/1999/xlink" width="20" height="20" viewBox="0 0 20 20">
	<path d="M18.125 0h-13.75c-1.036 0-1.875 0.839-1.875 1.875v1.25h-0.625c-1.036 0-1.875 0.839-1.875 1.875v12.5c0 1.381 1.119 2.5 2.5 2.5h15c1.381 0 2.5-1.119 2.5-2.5v-15.625c0-1.036-0.84-1.875-1.875-1.875zM18.75 17.5c0 0.689-0.561 1.25-1.25 1.25h-15c-0.689 0-1.25-0.561-1.25-1.25v-12.5c0-0.345 0.28-0.625 0.625-0.625h0.625v12.5c0 0.346 0.279 0.625 0.625 0.625s0.625-0.279 0.625-0.625v-15c0-0.345 0.28-0.625 0.625-0.625h13.75c0.344 0 0.625 0.28 0.625 0.625v15.625zM12.186 8.128c-0.172 0-0.313-0.14-0.313-0.313s0.141-0.313 0.313-0.313h5c0.173 0 0.313 0.14 0.313 0.313s-0.139 0.313-0.313 0.313h-5zM12.186 6.253c-0.172 0-0.313-0.14-0.313-0.313s0.141-0.313 0.313-0.313h5c0.173 0 0.313 0.14 0.313 0.313s-0.139 0.313-0.313 0.313h-5zM12.186 4.378c-0.172 0-0.313-0.14-0.313-0.313s0.141-0.313 0.313-0.313h5c0.173 0 0.313 0.14 0.313 0.313s-0.139 0.313-0.313 0.313h-5zM10.313 16.878c0.172 0 0.313 0.141 0.313 0.313 0 0.173-0.141 0.313-0.313 0.313h-5c-0.172 0-0.313-0.139-0.313-0.313 0-0.172 0.14-0.313 0.313-0.313h5zM10.313 15.003c0.172 0 0.313 0.141 0.313 0.313 0 0.173-0.141 0.313-0.313 0.313h-5c-0.172 0-0.313-0.139-0.313-0.313 0-0.172 0.14-0.313 0.313-0.313h5zM10.313 13.128c0.172 0 0.313 0.141 0.313 0.313 0 0.173-0.141 0.313-0.313 0.313h-5c-0.172 0-0.313-0.139-0.313-0.313 0-0.172 0.14-0.313 0.313-0.313h5zM17.188 16.878c0.172 0 0.313 0.141 0.313 0.313 0 0.173-0.141 0.313-0.313 0.313h-5c-0.173 0-0.313-0.139-0.313-0.313 0-0.172 0.139-0.313 0.313-0.313h5zM17.188 15.003c0.172 0 0.313 0.141 0.313 0.313 0 0.173-0.141 0.313-0.313 0.313h-5c-0.173 0-0.313-0.139-0.313-0.313 0-0.172 0.139-0.313 0.313-0.313h5zM17.188 13.128c0.172 0 0.313 0.141 0.313 0.313 0 0.173-0.141 0.313-0.313 0.313h-5c-0.173 0-0.313-0.139-0.313-0.313 0-0.172 0.139-0.313 0.313-0.313h5zM17.188 9.377c0.172 0 0.313 0.14 0.313 0.313s-0.141 0.312-0.313 0.312h-11.875c-0.172 0-0.313-0.14-0.313-0.313s0.14-0.313 0.313-0.313h11.875zM17.188 11.253c0.172 0 0.313 0.141 0.313 0.313 0 0.173-0.141 0.313-0.313 0.313h-11.875c-0.172 0-0.313-0.139-0.313-0.313 0-0.172 0.14-0.313 0.313-0.313h11.875zM5.625 8.125h4.375c0.346 0 0.625-0.279 0.625-0.625v-4.373c0-0.346-0.279-0.625-0.625-0.625h-4.375c-0.346 0-0.625 0.279-0.625 0.625v4.373c0 0.345 0.279 0.625 0.625 0.625zM6.25 3.75h3.125v3.125h-3.125v-3.125z" fill="#ffffff" />
</svg>
