<?xml version="1.0" encoding="utf-8"?>
<!-- Generated by IcoMoon.io -->
<!DOCTYPE svg PUBLIC "-//W3C//DTD SVG 1.1//EN" "http://www.w3.org/Graphics/SVG/1.1/DTD/svg11.dtd">
<svg version="1.1" xmlns="http://www.w3.org/2000/svg" xmlns:xlink="http://www.w3.org/1999/xlink" width="20" height="20" viewBox="0 0 20 20">
	<path d="M18.75 0h-15c-0.691 0-1.25 0.56-1.25 1.25v1.25h-1.25c-0.691 0-1.25 0.56-1.25 1.25v15c0 0.691 0.559 1.25 1.25 1.25h17.5c0.691 0 1.25-0.559 1.25-1.25v-17.5c0-0.69-0.559-1.25-1.25-1.25zM5 17.5h-2.5v-12.5h2.5v12.5zM17.5 17.5h-10v-15h10v15zM10 5h5v2.5h-5zM10 12.5h5v2.5h-5zM10 8.75h5v2.5h-5z" fill="#ffffff" />
</svg>
