<?xml version="1.0" encoding="utf-8"?>
<!-- Generated by IcoMoon.io -->
<!DOCTYPE svg PUBLIC "-//W3C//DTD SVG 1.1//EN" "http://www.w3.org/Graphics/SVG/1.1/DTD/svg11.dtd">
<svg version="1.1" xmlns="http://www.w3.org/2000/svg" xmlns:xlink="http://www.w3.org/1999/xlink" width="20" height="20" viewBox="0 0 20 20">
	<path d="M18.321 9.521l-7.462-4.95c-0.573-0.382-1.043-0.101-1.043 0.624v9.609c0 0.726 0.47 1.007 1.043 0.624l7.462-4.949c0 0 0.279-0.2 0.279-0.479s-0.279-0.479-0.279-0.479zM9.246 9.521l-7.204-4.951c-0.572-0.381-1.041-0.1-1.041 0.625v9.609c0 0.726 0.469 1.007 1.042 0.624l7.204-4.949c0 0 0.279-0.2 0.279-0.479s-0.28-0.479-0.28-0.479z" fill="#ffffff" />
</svg>
