<?xml version="1.0" encoding="utf-8"?>
<!-- Generated by IcoMoon.io -->
<!DOCTYPE svg PUBLIC "-//W3C//DTD SVG 1.1//EN" "http://www.w3.org/Graphics/SVG/1.1/DTD/svg11.dtd">
<svg version="1.1" xmlns="http://www.w3.org/2000/svg" xmlns:xlink="http://www.w3.org/1999/xlink" width="20" height="20" viewBox="0 0 20 20">
	<path d="M17.546 1.25h-15.046v2.5h-1.829c-0.344 0-0.671 0.245-0.671 0.588v1.25c0 0.344 0.327 0.662 0.671 0.662h1.829v1.25h-1.829c-0.344 0-0.671 0.245-0.671 0.588v1.25c0 0.344 0.327 0.662 0.671 0.662h1.829v1.25h-1.829c-0.344 0-0.671 0.245-0.671 0.588v1.25c0 0.344 0.327 0.662 0.671 0.662h1.829v1.25h-1.829c-0.344 0-0.671 0.245-0.671 0.588v1.25c0 0.344 0.327 0.662 0.671 0.662h1.829v2.5h15.046c0.69 0 1.204-0.596 1.204-1.287v-16.25c0-0.69-0.514-1.213-1.204-1.213zM6.25 18.75h-2.5v-1.25h0.671c0.344 0 0.579-0.318 0.579-0.662v-1.25c0-0.344-0.235-0.588-0.579-0.588h-0.671v-1.25h0.671c0.344 0 0.579-0.318 0.579-0.662v-1.25c0-0.344-0.235-0.588-0.579-0.588h-0.671v-1.25h0.671c0.344 0 0.579-0.318 0.579-0.662v-1.25c0-0.344-0.235-0.588-0.579-0.588h-0.671v-1.25h0.671c0.344 0 0.579-0.318 0.579-0.662v-1.25c0-0.344-0.235-0.588-0.579-0.588h-0.671v-1.25h2.5v16.25z" fill="#ffffff" />
</svg>
