<?xml version="1.0" encoding="utf-8"?>
<!-- Generated by IcoMoon.io -->
<!DOCTYPE svg PUBLIC "-//W3C//DTD SVG 1.1//EN" "http://www.w3.org/Graphics/SVG/1.1/DTD/svg11.dtd">
<svg version="1.1" xmlns="http://www.w3.org/2000/svg" xmlns:xlink="http://www.w3.org/1999/xlink" width="20" height="20" viewBox="0 0 20 20">
	<path d="M19.634 4.741l-3.75-3.75c-0.234-0.234-0.553-0.366-0.884-0.366h-13.125c-1.034 0-1.875 0.841-1.875 1.875v15c0 1.034 0.841 1.875 1.875 1.875h16.25c1.034 0 1.875-0.841 1.875-1.875v-11.875c0-0.332-0.132-0.65-0.366-0.884zM18.75 17.5c0 0.346-0.279 0.625-0.625 0.625h-16.25c-0.346 0-0.625-0.279-0.625-0.625v-15c0-0.346 0.279-0.625 0.625-0.625h12.5v2.5h-0.001c0 1.036 0.84 1.875 1.875 1.875h2.501v11.25zM16.874 5.625h-0.625c-0.689 0-1.25-0.561-1.25-1.25h0.001v-2.5l3.75 3.75h-1.876zM9.688 5c-0.172 0-0.313-0.139-0.313-0.313s0.14-0.313 0.313-0.313h3.125c0.172 0 0.313 0.14 0.313 0.313s-0.141 0.313-0.313 0.313h-3.125zM9.688 6.875c-0.172 0-0.313-0.14-0.313-0.313s0.14-0.313 0.313-0.313h3.125c0.172 0 0.313 0.14 0.313 0.313s-0.141 0.313-0.313 0.313h-3.125zM9.375 8.438c0-0.173 0.14-0.313 0.313-0.313h7.5c0.172 0 0.313 0.14 0.313 0.313s-0.141 0.313-0.313 0.313h-7.5c-0.172 0-0.313-0.14-0.313-0.313zM17.188 11.875c0.172 0 0.313 0.139 0.313 0.313 0 0.172-0.141 0.313-0.313 0.313h-14.375c-0.172 0-0.313-0.141-0.313-0.313 0-0.173 0.14-0.313 0.313-0.313h14.375zM17.188 13.75c0.172 0 0.313 0.139 0.313 0.313 0 0.172-0.141 0.313-0.313 0.313h-14.375c-0.172 0-0.313-0.141-0.313-0.313 0-0.173 0.14-0.313 0.313-0.313h14.375zM17.188 15.625c0.172 0 0.313 0.139 0.313 0.313 0 0.172-0.141 0.313-0.313 0.313h-14.375c-0.172 0-0.313-0.141-0.313-0.313 0-0.173 0.14-0.313 0.313-0.313h14.375zM17.188 10c0.172 0 0.313 0.14 0.313 0.313s-0.141 0.313-0.313 0.313h-14.375c-0.172 0-0.313-0.139-0.313-0.313s0.14-0.313 0.313-0.313h14.375zM3.125 8.75h4.375c0.346 0 0.625-0.279 0.625-0.625v-3.75c0-0.346-0.279-0.625-0.625-0.625h-4.375c-0.346 0-0.625 0.279-0.625 0.625v3.75c0 0.345 0.279 0.625 0.625 0.625zM3.75 5h3.125v2.5h-3.125v-2.5z" fill="#ffffff" />
</svg>
