<?xml version="1.0" encoding="utf-8"?>
<!-- Generated by IcoMoon.io -->
<!DOCTYPE svg PUBLIC "-//W3C//DTD SVG 1.1//EN" "http://www.w3.org/Graphics/SVG/1.1/DTD/svg11.dtd">
<svg version="1.1" xmlns="http://www.w3.org/2000/svg" xmlns:xlink="http://www.w3.org/1999/xlink" width="20" height="20" viewBox="0 0 20 20">
	<path d="M13.75 17.5h5l1.25-2.5v5h-7.5v-4.184c2.561-1.103 4.375-3.851 4.375-7.066 0-4.188-3.078-7.466-6.875-7.466-3.797 0-6.875 3.278-6.875 7.466 0 3.215 1.814 5.963 4.375 7.066v4.184h-7.5v-5l1.25 2.5h5v-0.637c-3.665-1.298-6.25-4.441-6.25-8.113 0-4.832 4.477-8.75 10-8.75 5.523 0 10 3.917 10 8.75 0 3.672-2.585 6.815-6.25 8.113v0.637z" fill="#ffffff" />
</svg>
