<?xml version="1.0" encoding="utf-8"?>
<!-- Generated by IcoMoon.io -->
<!DOCTYPE svg PUBLIC "-//W3C//DTD SVG 1.1//EN" "http://www.w3.org/Graphics/SVG/1.1/DTD/svg11.dtd">
<svg version="1.1" xmlns="http://www.w3.org/2000/svg" xmlns:xlink="http://www.w3.org/1999/xlink" width="30" height="30" viewBox="0 0 30 30">
	<path d="M30 16.875v-11.25h-5.625v-1.875c0-1.031-0.844-1.875-1.875-1.875h-20.625c-1.031 0-1.875 0.844-1.875 1.875v5.625c0 1.031 0.844 1.875 1.875 1.875h20.625c1.031 0 1.875-0.844 1.875-1.875v-1.875h3.75v7.5h-16.875v3.75h-0.938c-0.518 0-0.938 0.42-0.938 0.938v9.375c0 0.518 0.42 0.938 0.938 0.938h3.75c0.518 0 0.938-0.42 0.938-0.938v-9.375c0-0.518-0.42-0.938-0.938-0.938h-0.938v-1.875h16.875zM22.5 5.625h-20.625v-1.875h20.625v1.875z" fill="#ffffff" />
</svg>
