<?xml version="1.0" encoding="utf-8"?>
<!-- Generated by IcoMoon.io -->
<!DOCTYPE svg PUBLIC "-//W3C//DTD SVG 1.1//EN" "http://www.w3.org/Graphics/SVG/1.1/DTD/svg11.dtd">
<svg version="1.1" xmlns="http://www.w3.org/2000/svg" xmlns:xlink="http://www.w3.org/1999/xlink" width="20" height="20" viewBox="0 0 20 20">
	<path d="M20 11.25v-7.5h-3.75v-1.25c0-0.688-0.563-1.25-1.25-1.25h-13.75c-0.688 0-1.25 0.563-1.25 1.25v3.75c0 0.688 0.563 1.25 1.25 1.25h13.75c0.688 0 1.25-0.563 1.25-1.25v-1.25h2.5v5h-11.25v2.5h-0.625c-0.345 0-0.625 0.28-0.625 0.625v6.25c0 0.345 0.28 0.625 0.625 0.625h2.5c0.345 0 0.625-0.28 0.625-0.625v-6.25c0-0.345-0.28-0.625-0.625-0.625h-0.625v-1.25h11.25zM15 3.75h-13.75v-1.25h13.75v1.25z" fill="#ffffff" />
</svg>
