<?xml version="1.0" encoding="utf-8"?>
<!-- Generated by IcoMoon.io -->
<!DOCTYPE svg PUBLIC "-//W3C//DTD SVG 1.1//EN" "http://www.w3.org/Graphics/SVG/1.1/DTD/svg11.dtd">
<svg version="1.1" xmlns="http://www.w3.org/2000/svg" xmlns:xlink="http://www.w3.org/1999/xlink" width="20" height="20" viewBox="0 0 20 20">
	<path d="M17.352 4.565c-3.104-2.064-6.589-2.777-10.722-1.593-3.226 0.925-6.183 4.594-6.412 7.736-0.271 3.715 2.623 6.896 7.718 6.891 5.494-0.006 7.55-2.644 7.596-3.445 0.045-0.802-2.144-2.284-0.735-3.808 1.765-1.909 3.336-0.282 4.288-0.512 0.952-0.228 1.434-3.161-1.733-5.269zM10.978 13.883c-0.831 0-1.505-0.672-1.505-1.5 0-0.829 0.674-1.5 1.505-1.5s1.504 0.671 1.504 1.5c-0.001 0.828-0.673 1.5-1.504 1.5z" fill="#ffffff" />
</svg>
