<?xml version="1.0" encoding="utf-8"?>
<!-- Generated by IcoMoon.io -->
<!DOCTYPE svg PUBLIC "-//W3C//DTD SVG 1.1//EN" "http://www.w3.org/Graphics/SVG/1.1/DTD/svg11.dtd">
<svg version="1.1" xmlns="http://www.w3.org/2000/svg" xmlns:xlink="http://www.w3.org/1999/xlink" width="20" height="20" viewBox="0 0 20 20">
	<path d="M18.694 2.635c-0.343 0.121-17.321 6.103-17.655 6.221-0.284 0.1-0.348 0.345-0.010 0.479 0.401 0.161 3.796 1.521 3.796 1.521h-0.001l2.251 0.902c0 0 10.837-7.959 10.984-8.066 0.147-0.108 0.318 0.095 0.211 0.211-0.107 0.117-7.871 8.514-7.871 8.514-0.001 0-0.001 0-0.001 0l-0.452 0.504 0.599 0.322c0 0 4.65 2.503 4.981 2.682 0.29 0.156 0.668 0.026 0.752-0.335 0.099-0.426 2.845-12.262 2.906-12.524 0.080-0.343-0.146-0.552-0.49-0.431zM7.055 17.162c0 0.247 0.139 0.315 0.331 0.141 0.25-0.228 2.849-2.56 2.849-2.56l-3.18-1.646v4.065z" fill="#ffffff" />
</svg>
