<?xml version="1.0" encoding="utf-8"?>
<!-- Generated by IcoMoon.io -->
<!DOCTYPE svg PUBLIC "-//W3C//DTD SVG 1.1//EN" "http://www.w3.org/Graphics/SVG/1.1/DTD/svg11.dtd">
<svg version="1.1" xmlns="http://www.w3.org/2000/svg" xmlns:xlink="http://www.w3.org/1999/xlink" width="20" height="20" viewBox="0 0 20 20">
	<path d="M4.961 20c-1.336 0-2.587-0.566-3.491-1.471-1.75-1.75-2.239-4.806 0.215-7.26 1.439-1.437 7.199-7.197 10.074-10.072 1.021-1.021 2.319-1.415 3.563-1.081 1.221 0.326 2.223 1.327 2.55 2.549 0.333 1.244-0.062 2.543-1.082 3.563l-9.632 9.633c-0.55 0.55-1.171 0.876-1.796 0.941-0.618 0.065-1.208-0.134-1.622-0.547-0.75-0.749-0.856-2.159 0.39-3.404l6.765-6.767c0.278-0.277 0.729-0.277 1.007 0 0.278 0.278 0.278 0.729 0 1.007l-6.766 6.766c-0.585 0.585-0.639 1.144-0.39 1.393 0.109 0.108 0.275 0.158 0.466 0.138 0.293-0.031 0.627-0.221 0.939-0.533l9.632-9.632c0.661-0.661 0.914-1.438 0.713-2.189-0.198-0.739-0.804-1.345-1.543-1.543-0.751-0.201-1.528 0.053-2.189 0.713-2.874 2.875-8.634 8.635-10.072 10.072-1.876 1.876-1.427 4.035-0.216 5.247 1.212 1.211 3.371 1.661 5.248-0.216l10.073-10.072c0.277-0.278 0.729-0.278 1.006 0 0.278 0.278 0.278 0.729 0 1.006l-10.073 10.073c-1.187 1.188-2.515 1.686-3.769 1.686z" fill="#ffffff" />
</svg>
