<?xml version="1.0" encoding="utf-8"?>
<!-- Generated by IcoMoon.io -->
<!DOCTYPE svg PUBLIC "-//W3C//DTD SVG 1.1//EN" "http://www.w3.org/Graphics/SVG/1.1/DTD/svg11.dtd">
<svg version="1.1" xmlns="http://www.w3.org/2000/svg" xmlns:xlink="http://www.w3.org/1999/xlink" width="20" height="20" viewBox="0 0 20 20">
	<path d="M19.714 0.1c-0.104-0.067-0.222-0.1-0.339-0.1-0.121 0-0.242 0.034-0.347 0.105l-18.75 12.5c-0.193 0.128-0.299 0.354-0.274 0.585 0.024 0.231 0.174 0.43 0.389 0.515l4.89 1.957 2.299 4.024c0.11 0.193 0.314 0.313 0.536 0.315 0.002 0 0.004 0 0.007 0 0.219 0 0.423-0.116 0.536-0.304l1.298-2.164 6.059 2.423c0.074 0.030 0.152 0.044 0.232 0.044 0.106 0 0.211-0.027 0.306-0.081 0.165-0.092 0.278-0.255 0.31-0.442l3.125-18.75c0.041-0.246-0.068-0.492-0.277-0.627zM1.96 12.986l14.484-9.657-10.531 11.273c-0.056-0.033-0.105-0.077-0.166-0.101l-3.787-1.515zM6.368 15.041c-0.001-0.003-0.003-0.004-0.004-0.006l11.839-12.672-10.093 15.726-1.742-3.048zM15.761 18.506l-5.338-2.135c-0.127-0.050-0.259-0.067-0.389-0.074l8.22-12.742-2.492 14.952z" fill="#ffffff" />
</svg>
