<?xml version="1.0" encoding="utf-8"?>
<!-- Generated by IcoMoon.io -->
<!DOCTYPE svg PUBLIC "-//W3C//DTD SVG 1.1//EN" "http://www.w3.org/Graphics/SVG/1.1/DTD/svg11.dtd">
<svg version="1.1" xmlns="http://www.w3.org/2000/svg" xmlns:xlink="http://www.w3.org/1999/xlink" width="20" height="20" viewBox="0 0 20 20">
	<path d="M5 3.763v-1.888c0-1.034-0.841-1.875-1.875-1.875s-1.875 0.841-1.875 1.875v1.888c-0.755 0.572-1.25 1.467-1.25 2.487s0.495 1.915 1.25 2.486v9.389c0 1.034 0.841 1.875 1.875 1.875s1.875-0.841 1.875-1.875v-9.389c0.755-0.57 1.25-1.466 1.25-2.486s-0.495-1.915-1.25-2.487zM2.5 1.875c0-0.346 0.279-0.625 0.625-0.625s0.625 0.279 0.625 0.625v1.313c-0.202-0.041-0.411-0.063-0.625-0.063s-0.423 0.022-0.625 0.063v-1.313zM3.75 18.125c0 0.346-0.279 0.625-0.625 0.625s-0.625-0.279-0.625-0.625v-8.814c0.202 0.042 0.411 0.064 0.625 0.064s0.423-0.022 0.625-0.064v8.814zM4.916 6.775c-0.010 0.033-0.019 0.066-0.031 0.099-0.059 0.165-0.136 0.321-0.236 0.46-0.002 0.004-0.006 0.006-0.009 0.010-0.109 0.149-0.238 0.281-0.385 0.392-0.002 0.002-0.004 0.004-0.006 0.005-0.151 0.114-0.319 0.205-0.499 0.269-0.196 0.071-0.404 0.116-0.624 0.116s-0.429-0.045-0.625-0.116c-0.181-0.064-0.349-0.155-0.499-0.269-0.002-0.001-0.004-0.002-0.006-0.005-0.147-0.111-0.276-0.243-0.385-0.392-0.002-0.004-0.006-0.006-0.009-0.010-0.101-0.139-0.177-0.296-0.236-0.46-0.012-0.033-0.021-0.066-0.031-0.099-0.049-0.167-0.084-0.341-0.084-0.524 0-0.184 0.034-0.359 0.084-0.526 0.010-0.033 0.019-0.066 0.031-0.098 0.059-0.165 0.135-0.321 0.236-0.461 0.002-0.004 0.006-0.006 0.009-0.010 0.109-0.147 0.238-0.281 0.385-0.392 0.003-0.001 0.004-0.004 0.006-0.005 0.15-0.112 0.318-0.204 0.499-0.268 0.196-0.070 0.404-0.115 0.625-0.115s0.429 0.045 0.625 0.115c0.181 0.065 0.349 0.156 0.499 0.269 0.002 0.001 0.004 0.004 0.006 0.005 0.147 0.111 0.276 0.244 0.385 0.392 0.002 0.004 0.006 0.006 0.009 0.010 0.101 0.139 0.177 0.296 0.236 0.461 0.012 0.032 0.021 0.064 0.031 0.098 0.050 0.168 0.084 0.342 0.084 0.526 0 0.183-0.034 0.357-0.084 0.525zM18.75 3.763v-1.888c0-1.034-0.841-1.875-1.875-1.875s-1.875 0.841-1.875 1.875v1.888c-0.756 0.572-1.25 1.467-1.25 2.487s0.494 1.915 1.25 2.486v9.389c0 1.034 0.841 1.875 1.875 1.875s1.875-0.841 1.875-1.875v-9.389c0.754-0.57 1.25-1.466 1.25-2.486s-0.496-1.915-1.25-2.487zM16.25 1.875c0-0.346 0.279-0.625 0.625-0.625s0.625 0.279 0.625 0.625v1.313c-0.203-0.041-0.411-0.063-0.625-0.063-0.215 0-0.424 0.022-0.625 0.063v-1.313zM17.5 18.125c0 0.346-0.279 0.625-0.625 0.625s-0.625-0.279-0.625-0.625v-8.814c0.201 0.042 0.41 0.064 0.625 0.064 0.214 0 0.422-0.022 0.625-0.064v8.814zM18.666 6.775c-0.010 0.033-0.019 0.066-0.031 0.099-0.060 0.165-0.136 0.321-0.237 0.46-0.003 0.004-0.006 0.006-0.009 0.010-0.109 0.149-0.238 0.281-0.384 0.392-0.003 0.002-0.005 0.004-0.006 0.005-0.151 0.114-0.319 0.205-0.499 0.269-0.196 0.071-0.404 0.116-0.624 0.116-0.221 0-0.429-0.045-0.625-0.116-0.181-0.064-0.349-0.155-0.499-0.269-0.002-0.001-0.004-0.002-0.006-0.005-0.148-0.111-0.277-0.243-0.386-0.392-0.003-0.004-0.006-0.006-0.009-0.010-0.1-0.139-0.177-0.296-0.236-0.46-0.012-0.033-0.021-0.066-0.031-0.099-0.049-0.167-0.084-0.341-0.084-0.524 0-0.184 0.034-0.359 0.084-0.526 0.010-0.033 0.018-0.066 0.031-0.098 0.059-0.165 0.136-0.321 0.236-0.461 0.002-0.004 0.006-0.006 0.009-0.010 0.109-0.147 0.238-0.281 0.386-0.392 0.002-0.001 0.004-0.004 0.006-0.005 0.15-0.112 0.319-0.204 0.499-0.269 0.196-0.069 0.403-0.114 0.624-0.114 0.22 0 0.429 0.045 0.625 0.115 0.181 0.065 0.348 0.156 0.499 0.269 0.001 0.001 0.004 0.004 0.006 0.005 0.146 0.111 0.276 0.244 0.384 0.392 0.003 0.004 0.006 0.006 0.009 0.010 0.101 0.141 0.177 0.297 0.237 0.461 0.011 0.032 0.021 0.065 0.031 0.098 0.049 0.167 0.084 0.341 0.084 0.526 0 0.183-0.034 0.357-0.084 0.525zM11.875 11.263v-9.388c0-1.034-0.841-1.875-1.875-1.875s-1.875 0.841-1.875 1.875v9.388c-0.755 0.571-1.25 1.467-1.25 2.487s0.495 1.915 1.25 2.486v1.889c0 1.034 0.841 1.875 1.875 1.875s1.875-0.841 1.875-1.875v-1.889c0.754-0.57 1.25-1.466 1.25-2.486s-0.496-1.915-1.25-2.487zM9.375 1.875c0-0.346 0.279-0.625 0.625-0.625s0.625 0.279 0.625 0.625v8.813c-0.203-0.040-0.411-0.063-0.625-0.063-0.214 0-0.423 0.022-0.625 0.063v-8.812zM10.625 18.125c0 0.346-0.279 0.625-0.625 0.625s-0.625-0.279-0.625-0.625v-1.314c0.202 0.042 0.411 0.064 0.625 0.064 0.214 0 0.422-0.022 0.625-0.064v1.314zM11.791 14.275c-0.010 0.033-0.019 0.066-0.031 0.099-0.060 0.165-0.136 0.321-0.237 0.46-0.003 0.004-0.006 0.006-0.009 0.010-0.109 0.149-0.238 0.281-0.384 0.392-0.002 0.003-0.005 0.004-0.006 0.005-0.151 0.114-0.319 0.205-0.499 0.269-0.196 0.071-0.404 0.116-0.624 0.116-0.221 0-0.429-0.045-0.625-0.116-0.181-0.064-0.349-0.155-0.499-0.269-0.002-0.001-0.004-0.003-0.006-0.005-0.147-0.111-0.276-0.243-0.385-0.392-0.002-0.004-0.006-0.006-0.009-0.010-0.101-0.139-0.177-0.296-0.236-0.46-0.012-0.033-0.021-0.066-0.031-0.099-0.049-0.167-0.084-0.341-0.084-0.524 0-0.184 0.034-0.359 0.084-0.526 0.010-0.033 0.019-0.066 0.031-0.097 0.059-0.165 0.136-0.321 0.236-0.461 0.002-0.004 0.006-0.006 0.009-0.010 0.109-0.148 0.238-0.281 0.385-0.392 0.002-0.001 0.004-0.004 0.006-0.005 0.151-0.112 0.319-0.204 0.499-0.269 0.196-0.069 0.404-0.114 0.624-0.114 0.22 0 0.429 0.045 0.625 0.115 0.181 0.065 0.348 0.156 0.499 0.269 0.001 0.001 0.004 0.004 0.006 0.005 0.146 0.111 0.276 0.244 0.384 0.392 0.002 0.004 0.006 0.006 0.009 0.010 0.101 0.141 0.177 0.297 0.237 0.461 0.011 0.032 0.021 0.065 0.031 0.098 0.049 0.167 0.084 0.341 0.084 0.526 0 0.183-0.034 0.357-0.084 0.525z" fill="#ffffff" />
</svg>
