<?xml version="1.0" encoding="utf-8"?>
<!-- Generated by IcoMoon.io -->
<!DOCTYPE svg PUBLIC "-//W3C//DTD SVG 1.1//EN" "http://www.w3.org/Graphics/SVG/1.1/DTD/svg11.dtd">
<svg version="1.1" xmlns="http://www.w3.org/2000/svg" xmlns:xlink="http://www.w3.org/1999/xlink" width="20" height="20" viewBox="0 0 20 20">
	<path d="M13.75 2.5h-2.5v-1.25c0-0.688-0.563-1.25-1.25-1.25h-2.5c-0.688 0-1.25 0.563-1.25 1.25v1.25h-2.5v2.5h10v-2.5zM10 2.5h-2.5v-1.248c0.001-0.001 0.001-0.002 0.002-0.002h2.495c0.001 0.001 0.002 0.001 0.002 0.002v1.248zM16.25 6.25v-3.125c0-0.344-0.281-0.625-0.625-0.625h-1.25v1.25h0.625v2.5h-7.5v8.75h-5v-11.25h0.625v-1.25h-1.25c-0.344 0-0.625 0.281-0.625 0.625v12.5c0 0.344 0.281 0.625 0.625 0.625h5.625v3.75h8.75l3.75-3.75v-10h-3.75zM16.25 18.232v-1.982h1.982l-1.982 1.982zM18.75 15h-3.75v3.75h-6.25v-11.25h10v7.5z" fill="#ffffff" />
</svg>
