<?xml version="1.0" encoding="utf-8"?>
<!-- Generated by IcoMoon.io -->
<!DOCTYPE svg PUBLIC "-//W3C//DTD SVG 1.1//EN" "http://www.w3.org/Graphics/SVG/1.1/DTD/svg11.dtd">
<svg version="1.1" xmlns="http://www.w3.org/2000/svg" xmlns:xlink="http://www.w3.org/1999/xlink" width="20" height="20" viewBox="0 0 20 20">
	<path d="M14.375 12.421c0.398-0.717 0.625-1.543 0.625-2.421 0-2.018-1.195-3.756-2.917-4.546 0.639-0.572 1.042-1.403 1.042-2.329 0-1.726-1.399-3.125-3.125-3.125-1.726 0-3.125 1.399-3.125 3.125 0 0.925 0.403 1.756 1.042 2.329-1.721 0.79-2.917 2.528-2.917 4.546 0 0.878 0.227 1.704 0.625 2.421-2.615 1.513-4.375 4.34-4.375 7.579h17.5c0-3.239-1.76-6.066-4.375-7.579z" fill="#ffffff" />
</svg>
