<?xml version="1.0" encoding="utf-8"?>
<!-- Generated by IcoMoon.io -->
<!DOCTYPE svg PUBLIC "-//W3C//DTD SVG 1.1//EN" "http://www.w3.org/Graphics/SVG/1.1/DTD/svg11.dtd">
<svg version="1.1" xmlns="http://www.w3.org/2000/svg" xmlns:xlink="http://www.w3.org/1999/xlink" width="20" height="20" viewBox="0 0 20 20">
	<path d="M16.855 4.835c0.272 0.514 0.407 1.149 0.407 1.912 0 1.732-0.73 3.13-2.188 4.191-1.46 1.062-3.499 1.592-6.118 1.592h-0.613c-0.461 0-0.922 0.362-1.025 0.805l-0.736 3.139c-0.103 0.444-0.564 0.807-1.025 0.807h-1.342l-0.12 0.513c-0.104 0.443 0.188 0.806 0.648 0.806h2.149c0.461 0 0.923-0.362 1.024-0.806l0.737-3.14c0.104-0.441 0.564-0.804 1.025-0.804h0.613c2.619 0 4.658-0.53 6.117-1.593 1.461-1.060 2.192-2.457 2.192-4.191 0-0.763-0.135-1.398-0.407-1.911-0.271-0.51-0.666-0.926-1.181-1.243-0.055-0.033-0.1-0.046-0.157-0.077zM5.243 15.154l0.737-3.14c0.104-0.441 0.563-0.804 1.025-0.804h0.613c2.619 0 4.658-0.53 6.117-1.593 1.459-1.061 2.189-2.458 2.189-4.191 0-0.763-0.135-1.398-0.408-1.911-0.271-0.51-0.666-0.926-1.18-1.243-0.527-0.322-1.146-0.546-1.863-0.677-0.717-0.129-1.558-0.195-2.524-0.195h-4.475c-0.462 0-0.923 0.36-1.027 0.804l-3.026 12.949c-0.104 0.444 0.188 0.807 0.648 0.807h2.149c0.462 0 0.924-0.362 1.025-0.806zM6.999 7.641l0.646-2.749c0.104-0.443 0.565-0.805 1.024-0.805h0.704c0.819 0 1.441 0.138 1.857 0.412 0.417 0.272 0.626 0.691 0.626 1.26 0 0.859-0.325 1.523-0.97 1.989-0.646 0.465-1.544 0.7-2.704 0.7h-0.532c-0.462 0-0.753-0.364-0.651-0.807z" fill="#ffffff" />
</svg>
