<?xml version="1.0" encoding="utf-8"?>
<!-- Generated by IcoMoon.io -->
<!DOCTYPE svg PUBLIC "-//W3C//DTD SVG 1.1//EN" "http://www.w3.org/Graphics/SVG/1.1/DTD/svg11.dtd">
<svg version="1.1" xmlns="http://www.w3.org/2000/svg" xmlns:xlink="http://www.w3.org/1999/xlink" width="20" height="20" viewBox="0 0 20 20">
	<path d="M12.663 1.25c0.553 0 1.112 0.113 1.615 0.328 0.529 0.226 0.963 0.545 1.291 0.951 0.656 0.811 0.841 1.917 0.548 3.286-0.318 1.492-1.062 2.734-2.152 3.591-1.062 0.836-2.402 1.278-3.877 1.278h-4.689l-1.261 5.913h-2.586l3.343-15.346h7.768M5.582 9.766h3.981c0.926 0 1.865-0.355 2.643-0.999 0.758-0.628 1.294-1.475 1.512-2.387 0.272-1.026 0.090-2.054-0.498-2.823-0.57-0.745-1.462-1.172-2.448-1.172h-3.521l-1.668 7.381M12.663 0h-8.775l-3.888 17.846h2.969l-0.469 2.154h5.15l1.261-5.913h3.677c3.521 0 6.464-2.169 7.251-5.858 0.659-3.080-0.797-4.921-2.639-5.675 0.502 0.246 0.939 0.595 1.26 1.025 0.675 0.904 0.864 2.136 0.563 3.661-0.304 1.543-0.985 2.846-1.976 3.79-0.181 0.189-0.375 0.366-0.582 0.529-1.062 0.836-2.402 1.278-3.877 1.278h-4.689l-1.261 5.913h-2.586l0.197-0.904h0.901l1.261-5.913h3.677c3.521 0 6.464-2.169 7.251-5.858 0.893-4.176-2.102-6.075-4.676-6.075v0zM7.146 8.516l1.103-4.881h2.522c1.262 0 2.102 1.085 1.734 2.441-0.315 1.356-1.629 2.441-2.942 2.441h-2.417z" fill="#ffffff" />
</svg>
