<?xml version="1.0" encoding="utf-8"?>
<!-- Generated by IcoMoon.io -->
<!DOCTYPE svg PUBLIC "-//W3C//DTD SVG 1.1//EN" "http://www.w3.org/Graphics/SVG/1.1/DTD/svg11.dtd">
<svg version="1.1" xmlns="http://www.w3.org/2000/svg" xmlns:xlink="http://www.w3.org/1999/xlink" width="20" height="20" viewBox="0 0 20 20">
	<path d="M17.2 2.554c0.502 0.246 0.939 0.595 1.26 1.025 0.675 0.904 0.864 2.136 0.563 3.661-0.304 1.543-0.985 2.846-1.976 3.79-0.181 0.189-0.375 0.366-0.582 0.529-1.062 0.836-2.402 1.278-3.877 1.278h-4.689l-1.261 5.913h-2.586l0.197-0.904h0.901l1.261-5.913h3.677c3.521 0 6.464-2.169 7.251-5.858 0.893-4.176-2.102-6.075-4.676-6.075h-8.775l-3.888 17.846h2.969l-0.469 2.154h5.15l1.261-5.913h3.677c3.521 0 6.464-2.169 7.251-5.858 0.659-3.080-0.797-4.921-2.639-5.675zM8.249 3.634h2.522c1.262 0 2.102 1.085 1.734 2.441-0.315 1.356-1.629 2.441-2.942 2.441h-2.417l1.103-4.881z" fill="#ffffff" />
</svg>
