<?xml version="1.0" encoding="utf-8"?>
<!-- Generated by IcoMoon.io -->
<!DOCTYPE svg PUBLIC "-//W3C//DTD SVG 1.1//EN" "http://www.w3.org/Graphics/SVG/1.1/DTD/svg11.dtd">
<svg version="1.1" xmlns="http://www.w3.org/2000/svg" xmlns:xlink="http://www.w3.org/1999/xlink" width="20" height="20" viewBox="0 0 20 20">
	<path d="M18.75 5.625l-4.375-4.375 1.25-1.25 4.375 4.375zM17.5 6.875l-0.625 6.875c-5.625 0-13.75 6.25-13.75 6.25l-1.038-1.038 5.345-5.345c0.214 0.085 0.448 0.133 0.693 0.133 1.036 0 1.875-0.839 1.875-1.875 0-1.036-0.839-1.875-1.875-1.875-1.036 0-1.875 0.839-1.875 1.875 0 0.245 0.047 0.478 0.133 0.693l-5.345 5.345-1.038-1.038c0 0 6.25-8.125 6.25-13.75l6.875-0.625 4.375 4.375z" fill="#ffffff" />
</svg>
