<?xml version="1.0" encoding="utf-8"?>
<!-- Generated by IcoMoon.io -->
<!DOCTYPE svg PUBLIC "-//W3C//DTD SVG 1.1//EN" "http://www.w3.org/Graphics/SVG/1.1/DTD/svg11.dtd">
<svg version="1.1" xmlns="http://www.w3.org/2000/svg" xmlns:xlink="http://www.w3.org/1999/xlink" width="20" height="20" viewBox="0 0 20 20">
	<path d="M18.372 1.613c-1.028-1.027-2.382-1.613-3.716-1.613-1.126 0-2.162 0.418-2.919 1.173l-3.042 3.065c-0.009 0.009-0.020 0.014-0.029 0.024-0.005 0.005-0.008 0.012-0.013 0.016l0.001 0.001-6.456 6.506c-0.298 0.296-0.513 0.664-0.633 1.066l-1.468 5.318c-0.001 0.014-0.097 0.432-0.097 0.644 0 1.207 0.981 2.188 2.19 2.188 0.241 0 0.706-0.115 0.723-0.117l5.299-1.393c0.402-0.119 0.768-0.337 1.066-0.635l9.539-9.614c1.735-1.736 1.539-4.646-0.445-6.627zM10.009 14.872c-0.051-0.564-0.211-1.117-0.449-1.642l5.909-5.909c0.361 1.141 0.176 2.335-0.616 3.128-0.005 0.005-0.011 0.008-0.016 0.013l0.009 0.008-4.83 4.869c0-0.156 0.008-0.308-0.007-0.467zM9.246 12.66c-0.233-0.383-0.498-0.753-0.826-1.081-0.382-0.382-0.82-0.681-1.278-0.933l5.958-5.957c0.467 0.207 0.916 0.503 1.311 0.899 0.338 0.337 0.599 0.714 0.801 1.107l-5.966 5.965zM6.554 10.351c-0.579-0.233-1.185-0.366-1.793-0.374l4.814-4.851c0.737-0.719 1.81-0.926 2.867-0.664l-5.889 5.889zM2.604 18.671c-0.068 0.016-0.28 0.069-0.424 0.079-0.514-0.006-0.931-0.424-0.931-0.938 0.008-0.105 0.049-0.286 0.064-0.351l0.658-2.384c0.714-0.019 1.483 0.259 2.087 0.864 0.614 0.613 0.902 1.396 0.871 2.119l-2.326 0.609zM5.546 17.898c-0.015-0.839-0.356-1.711-1.045-2.399-0.651-0.652-1.504-1.028-2.354-1.062l0.623-2.254c0.045-0.15 0.134-0.298 0.244-0.428 1.254-0.898 3.182-0.633 4.521 0.708 1.417 1.416 1.636 3.491 0.544 4.73-0.072 0.038-0.146 0.074-0.224 0.098l-2.309 0.607zM17.932 7.357l-1.052 1.061c0-0.141 0.017-0.277 0.004-0.421-0.11-1.209-0.674-2.379-1.589-3.293-1.018-1.019-2.368-1.603-3.705-1.607l1.035-1.044c0.518-0.517 1.241-0.803 2.032-0.803 1.006 0 2.039 0.455 2.833 1.247 0.746 0.744 1.19 1.669 1.254 2.605 0.059 0.873-0.229 1.674-0.811 2.256z" fill="#ffffff" />
</svg>
