<?xml version="1.0" encoding="utf-8"?>
<!-- Generated by IcoMoon.io -->
<!DOCTYPE svg PUBLIC "-//W3C//DTD SVG 1.1//EN" "http://www.w3.org/Graphics/SVG/1.1/DTD/svg11.dtd">
<svg version="1.1" xmlns="http://www.w3.org/2000/svg" xmlns:xlink="http://www.w3.org/1999/xlink" width="20" height="20" viewBox="0 0 20 20">
	<path d="M15 0h-10c-1.036 0-1.875 0.839-1.875 1.875v16.25c0 1.036 0.839 1.875 1.875 1.875h10c1.035 0 1.875-0.84 1.875-1.875v-16.25c0-1.036-0.84-1.875-1.875-1.875zM15.625 18.125c0 0.344-0.281 0.625-0.625 0.625h-10c-0.345 0-0.625-0.279-0.625-0.625v-1.253h11.25v1.253zM15.625 16.247h-11.25v-12.497h11.25v12.497zM15.625 3.125h-11.25v-1.25c0-0.345 0.28-0.625 0.625-0.625h10c0.344 0 0.625 0.28 0.625 0.625v1.25zM11.25 2.188c0 0.172-0.141 0.313-0.313 0.313h-1.875c-0.173 0-0.313-0.14-0.313-0.313v0c0-0.173 0.139-0.313 0.313-0.313h1.875c0.172 0 0.313 0.139 0.313 0.313v0zM10.625 17.81c0 0.172-0.141 0.313-0.313 0.313h-0.625c-0.172 0-0.313-0.141-0.313-0.313v0c0-0.173 0.14-0.313 0.313-0.313h0.625c0.172 0 0.313 0.139 0.313 0.313v0z" fill="#ffffff" />
</svg>
