<?xml version="1.0" encoding="utf-8"?>
<!-- Generated by IcoMoon.io -->
<!DOCTYPE svg PUBLIC "-//W3C//DTD SVG 1.1//EN" "http://www.w3.org/Graphics/SVG/1.1/DTD/svg11.dtd">
<svg version="1.1" xmlns="http://www.w3.org/2000/svg" xmlns:xlink="http://www.w3.org/1999/xlink" width="20" height="20" viewBox="0 0 20 20">
	<path d="M19.871 11.25c0.156 1.084 0.258 2.566-0.228 3.134-0.804 0.938-5.893 0.938-5.893-0.938 0-0.945 0.837-1.565 0.033-2.503-0.79-0.923-2.208-0.938-3.783-0.938-1.576 0-2.993 0.015-3.783 0.938-0.804 0.938 0.033 1.558 0.033 2.503 0 1.877-5.089 1.877-5.893 0.938-0.486-0.567-0.384-2.050-0.228-3.134 0.12-0.723 0.424-1.504 1.397-2.5 0-0 0-0 0-0 1.46-1.362 3.669-2.475 8.395-2.499v-0.001c0.026 0 0.052 0 0.078 0 0.026-0 0.052-0 0.078-0v0.001c4.726 0.024 6.935 1.137 8.395 2.499 0 0 0 0 0 0 0.973 0.996 1.277 1.776 1.397 2.5z" fill="#ffffff" />
</svg>
