<?xml version="1.0" encoding="utf-8"?>
<!-- Generated by IcoMoon.io -->
<!DOCTYPE svg PUBLIC "-//W3C//DTD SVG 1.1//EN" "http://www.w3.org/Graphics/SVG/1.1/DTD/svg11.dtd">
<svg version="1.1" xmlns="http://www.w3.org/2000/svg" xmlns:xlink="http://www.w3.org/1999/xlink" width="20" height="20" viewBox="0 0 20 20">
	<path d="M16.875 0h-13.75c-1.381 0-2.5 1.119-2.5 2.5v15c0 1.381 1.119 2.5 2.5 2.5h13.75c1.381 0 2.5-1.119 2.5-2.5v-15c0-1.381-1.119-2.5-2.5-2.5zM18.125 17.5c0 0.689-0.561 1.25-1.25 1.25h-13.75c-0.689 0-1.25-0.561-1.25-1.25v-15c0-0.689 0.561-1.25 1.25-1.25h13.75c0.689 0 1.25 0.561 1.25 1.25v15zM16.25 2.5h-12.5c-0.346 0-0.625 0.279-0.625 0.625v11.25c0 0.346 0.279 0.625 0.625 0.625h12.5c0.346 0 0.625-0.279 0.625-0.625v-11.25c0-0.346-0.279-0.625-0.625-0.625zM16.25 3.125v8.668l-2.031-2.206c-0.119-0.135-0.289-0.212-0.469-0.212s-0.351 0.077-0.469 0.212l-1.627 1.844-4.935-5.594c-0.119-0.135-0.289-0.212-0.469-0.212s-0.35 0.077-0.469 0.212l-2.031 2.343v-5.054h12.5zM3.75 9.125l2.5-2.875 5.404 6.126 1.726 1.999h-9.63v-5.25zM14.212 14.375l-2.143-2.472 1.68-1.903 2.5 2.737v1.638h-2.037zM12.5 8.125c1.035 0 1.875-0.839 1.875-1.875s-0.84-1.875-1.875-1.875c-1.036 0-1.875 0.839-1.875 1.875s0.839 1.875 1.875 1.875zM12.5 5c0.689 0 1.25 0.561 1.25 1.25s-0.561 1.25-1.25 1.25c-0.69 0-1.25-0.561-1.25-1.25s0.56-1.25 1.25-1.25z" fill="#ffffff" />
</svg>
