<?xml version="1.0" encoding="utf-8"?>
<!-- Generated by IcoMoon.io -->
<!DOCTYPE svg PUBLIC "-//W3C//DTD SVG 1.1//EN" "http://www.w3.org/Graphics/SVG/1.1/DTD/svg11.dtd">
<svg version="1.1" xmlns="http://www.w3.org/2000/svg" xmlns:xlink="http://www.w3.org/1999/xlink" width="20" height="20" viewBox="0 0 20 20">
	<path d="M13.75 7.7l-7.118-7.118c1.053-0.376 2.186-0.582 3.368-0.582 1.326 0 2.592 0.259 3.75 0.728v6.973zM15 13.75v-12.412c2.989 1.729 5 4.961 5 8.662 0 1.326-0.259 2.592-0.728 3.75h-4.272zM6.25 15h12.412c-1.729 2.989-4.961 5-8.662 5-1.326 0-2.592-0.259-3.75-0.728v-4.272zM8.325 4.375l-8.033 8.033c-0.191-0.771-0.293-1.578-0.293-2.408 0-3.777 2.094-7.064 5.185-8.766l3.141 3.141zM5 9.8v8.862c-1.848-1.069-3.321-2.712-4.177-4.685l4.177-4.177z" fill="#ffffff" />
</svg>
