<?xml version="1.0" encoding="utf-8"?>
<!-- Generated by IcoMoon.io -->
<!DOCTYPE svg PUBLIC "-//W3C//DTD SVG 1.1//EN" "http://www.w3.org/Graphics/SVG/1.1/DTD/svg11.dtd">
<svg version="1.1" xmlns="http://www.w3.org/2000/svg" xmlns:xlink="http://www.w3.org/1999/xlink" width="20" height="20" viewBox="0 0 20 20">
	<path d="M16.668 0h-13.334c-1.834 0-3.334 1.5-3.334 3.334v13.333c0 1.835 1.5 3.334 3.334 3.334h13.334c1.834 0 3.333-1.499 3.333-3.334v-13.332c0-1.833-1.499-3.334-3.332-3.334zM10 1.25c1.342 0 2.613 0.303 3.75 0.843v5.608l-6.124-6.124c0.755-0.212 1.551-0.326 2.374-0.326zM1.25 10c0-3.435 1.98-6.408 4.861-7.84l2.215 2.215-6.972 6.972c-0.068-0.439-0.103-0.889-0.103-1.347zM5 17.181c-1.459-1.018-2.593-2.468-3.216-4.165l3.216-3.216v7.381zM10 18.75c-1.342 0-2.613-0.303-3.75-0.843v-2.907h10.931c-1.581 2.267-4.208 3.75-7.181 3.75zM17.907 13.75h-2.907v-10.931c2.267 1.581 3.75 4.208 3.75 7.181 0 1.342-0.303 2.613-0.843 3.75z" fill="#ffffff" />
</svg>
