<?xml version="1.0" encoding="utf-8"?>
<!-- Generated by IcoMoon.io -->
<!DOCTYPE svg PUBLIC "-//W3C//DTD SVG 1.1//EN" "http://www.w3.org/Graphics/SVG/1.1/DTD/svg11.dtd">
<svg version="1.1" xmlns="http://www.w3.org/2000/svg" xmlns:xlink="http://www.w3.org/1999/xlink" width="20" height="20" viewBox="0 0 20 20">
	<path d="M5.808 1.822c-3.090 1.589-5.008 4.721-5.008 8.197 0 0.634 0.080 1.277 0.221 1.918l7.949-7.238c-0.848-0.771-3.076-2.798-3.162-2.877zM13.793 1.626c-1.201-0.546-2.477-0.826-3.794-0.826-0.934 0-1.855 0.155-2.75 0.441l6.543 5.951v-5.566zM15.192 2.437v10.618h3.485c0.343-0.982 0.522-2.003 0.522-3.036 0.001-3.032-1.523-5.872-4.007-7.582zM1.462 13.428c0.674 1.694 1.858 3.151 3.368 4.184v-7.25l-2.044 1.861c-0.698 0.635-1.281 1.166-1.324 1.205zM6.23 18.424c0.935 0.422 1.913 0.683 2.92 0.776h1.689c3.019-0.282 5.727-2.069 7.199-4.745h-11.808v3.969z" fill="#ffffff" />
</svg>
