<?xml version="1.0" encoding="utf-8"?>
<!-- Generated by IcoMoon.io -->
<!DOCTYPE svg PUBLIC "-//W3C//DTD SVG 1.1//EN" "http://www.w3.org/Graphics/SVG/1.1/DTD/svg11.dtd">
<svg version="1.1" xmlns="http://www.w3.org/2000/svg" xmlns:xlink="http://www.w3.org/1999/xlink" width="20" height="20" viewBox="0 0 20 20">
	<path d="M17.125 7.173l-2.046-5.636c-0.151-0.416-0.595-0.636-0.989-0.492l-13.597 4.963c-0.395 0.143-0.594 0.597-0.443 1.013l2.157 5.942v-3.185c0-1.437 1.148-2.605 2.561-2.605h3.593l4.285-3.008 2.48 3.008h1.999zM19.238 8.977h-14.47c-0.42 0-0.762 0.359-0.762 0.802v9.421c0 0.442 0.341 0.802 0.762 0.802h14.47c0.421 0 0.762-0.359 0.762-0.802v-9.422c0-0.442-0.341-0.801-0.762-0.801zM18.134 17.997h-11.995v-1.719l1.845-4.295 2.769 3.437 2.597-2.662 3.339-1.205 1.445 3.222v3.222z" fill="#ffffff" />
</svg>
