<?xml version="1.0" encoding="utf-8"?>
<!-- Generated by IcoMoon.io -->
<!DOCTYPE svg PUBLIC "-//W3C//DTD SVG 1.1//EN" "http://www.w3.org/Graphics/SVG/1.1/DTD/svg11.dtd">
<svg version="1.1" xmlns="http://www.w3.org/2000/svg" xmlns:xlink="http://www.w3.org/1999/xlink" width="20" height="20" viewBox="0 0 20 20">
	<path d="M10 0c-5.523 0-10 4.477-10 10s4.477 10 10 10c5.523 0 10-4.477 10-10s-4.477-10-10-10zM10.97 13.362c-0.909-0.071-1.29-0.521-2.002-0.953-0.392 2.054-0.87 4.024-2.288 5.052-0.438-3.105 0.642-5.437 1.144-7.912-0.855-1.44 0.103-4.337 1.907-3.623 2.219 0.878-1.922 5.352 0.858 5.91 2.903 0.583 4.088-5.036 2.288-6.864-2.601-2.639-7.57-0.060-6.959 3.718 0.149 0.924 1.103 1.204 0.381 2.479-1.664-0.369-2.161-1.682-2.097-3.432 0.103-2.865 2.574-4.87 5.052-5.148 3.134-0.351 6.076 1.151 6.483 4.099 0.457 3.328-1.415 6.932-4.767 6.673z" fill="#ffffff" />
</svg>
