<?xml version="1.0" encoding="utf-8"?>
<!-- Generated by IcoMoon.io -->
<!DOCTYPE svg PUBLIC "-//W3C//DTD SVG 1.1//EN" "http://www.w3.org/Graphics/SVG/1.1/DTD/svg11.dtd">
<svg version="1.1" xmlns="http://www.w3.org/2000/svg" xmlns:xlink="http://www.w3.org/1999/xlink" width="20" height="20" viewBox="0 0 20 20">
	<path d="M10 0.4c-5.302 0-9.6 4.298-9.6 9.6s4.298 9.6 9.6 9.6 9.6-4.298 9.6-9.6-4.298-9.6-9.6-9.6zM10.656 12.276c-0.615-0.048-0.873-0.353-1.355-0.646-0.266 1.392-0.589 2.726-1.55 3.422-0.296-2.103 0.436-3.682 0.775-5.358-0.579-0.974 0.070-2.936 1.291-2.453 1.503 0.595-1.302 3.624 0.581 4.003 1.966 0.395 2.768-3.411 1.549-4.648-1.761-1.787-5.126-0.041-4.712 2.518 0.101 0.626 0.746 0.815 0.258 1.679-1.127-0.25-1.464-1.139-1.42-2.324 0.070-1.941 1.743-3.299 3.421-3.488 2.123-0.237 4.115 0.779 4.391 2.776 0.309 2.255-0.959 4.695-3.229 4.519z" fill="#ffffff" />
</svg>
