<?xml version="1.0" encoding="utf-8"?>
<!-- Generated by IcoMoon.io -->
<!DOCTYPE svg PUBLIC "-//W3C//DTD SVG 1.1//EN" "http://www.w3.org/Graphics/SVG/1.1/DTD/svg11.dtd">
<svg version="1.1" xmlns="http://www.w3.org/2000/svg" xmlns:xlink="http://www.w3.org/1999/xlink" width="20" height="20" viewBox="0 0 20 20">
	<path d="M20 10c0-5.523-4.477-10-10-10s-10 4.477-10 10c0 4.298 2.712 7.962 6.517 9.376l-0.267 0.624h7.5l-0.267-0.624c3.806-1.414 6.517-5.078 6.517-9.376zM9.508 12.399c-0.445-0.191-0.758-0.634-0.758-1.149 0-0.69 0.56-1.25 1.25-1.25 0.69 0 1.25 0.56 1.25 1.25 0 0.515-0.312 0.958-0.758 1.149l-0.492-1.149-0.492 1.149zM10.513 12.447c1.135-0.237 1.987-1.242 1.987-2.447 0-1.381-1.119-2.5-2.5-2.5-1.381 0-2.5 1.119-2.5 2.5 0 1.205 0.853 2.209 1.988 2.446l-1.458 3.401c-1.782-0.765-3.030-2.535-3.030-4.597 0-2.761 2.239-5.234 5-5.234s5 2.473 5 5.234c0 2.062-1.248 3.832-3.030 4.597l-1.457-3.4zM13.446 19.291l-1.444-3.369c2.47-0.835 4.248-3.171 4.248-5.922 0-3.452-2.798-6.25-6.25-6.25-3.452 0-6.25 2.798-6.25 6.25 0 2.751 1.778 5.088 4.248 5.922l-1.444 3.369c-3.117-1.338-5.301-4.434-5.301-8.041 0-4.831 3.916-8.981 8.747-8.981 4.831 0 8.747 4.15 8.747 8.981 0 3.607-2.183 6.704-5.301 8.041z" fill="#ffffff" />
</svg>
