<?xml version="1.0" encoding="utf-8"?>
<!-- Generated by IcoMoon.io -->
<!DOCTYPE svg PUBLIC "-//W3C//DTD SVG 1.1//EN" "http://www.w3.org/Graphics/SVG/1.1/DTD/svg11.dtd">
<svg version="1.1" xmlns="http://www.w3.org/2000/svg" xmlns:xlink="http://www.w3.org/1999/xlink" width="20" height="20" viewBox="0 0 20 20">
	<path d="M17.5 7.5h-6.793c0.439-1.58 0.66-1.965 0.66-3.633 0-1.443-1.174-2.617-2.617-2.617-1.443 0-2.617 1.174-2.617 2.617 0 2.031-0.756 2.968-2.248 4.018-0.044 0.031-0.089 0.062-0.135 0.092v-1.727h-3.75v12.5h3.75v-1.113c1.243 0.084 1.584 0.433 2.001 0.861 0.321 0.33 0.721 0.74 1.446 1.041 0.761 0.315 1.751 0.462 3.116 0.462h1.269c1.21 0 2.194-1.001 2.194-2.232 0-0.204-0.028-0.408-0.082-0.604 0.385-0.41 0.605-0.957 0.605-1.539 0-0.204-0.028-0.408-0.082-0.603 0.385-0.41 0.605-0.957 0.605-1.539 0-0.352-0.081-0.686-0.224-0.982h2.903c1.381 0 2.5-1.119 2.5-2.5 0-1.381-1.119-2.5-2.5-2.5zM1.875 17.5c-0.345 0-0.625-0.28-0.625-0.625s0.28-0.625 0.625-0.625 0.625 0.28 0.625 0.625-0.28 0.625-0.625 0.625zM17.383 11.25h-5v1.25h0.128c0.52 0 0.944 0.441 0.944 0.982 0 0.339-0.165 0.65-0.442 0.832l-0.484 0.317 0.279 0.507c0.081 0.148 0.124 0.316 0.124 0.487 0 0.339-0.165 0.65-0.442 0.832l-0.484 0.317 0.279 0.507c0.081 0.148 0.124 0.316 0.124 0.487 0 0.542-0.423 0.982-0.944 0.982h-1.269c-2.472 0-2.97-0.746-3.498-1.288-0.539-0.553-1.142-1.172-2.947-1.303v-6.531c0.308-0.161 0.6-0.337 0.872-0.529 1.883-1.325 2.878-2.726 2.878-5.232 0-0.625 0.586-1.133 1.211-1.133s1.172 0.508 1.172 1.133c0 1.673-0.242 2.059-0.722 3.633-0.12 0.444-0.233 0.884-0.31 1.237l8.532 0.013c0.689 0 1.25 0.561 1.25 1.25s-0.561 1.25-1.25 1.25z" fill="#ffffff" />
</svg>
