<?xml version="1.0" encoding="utf-8"?>
<!-- Generated by IcoMoon.io -->
<!DOCTYPE svg PUBLIC "-//W3C//DTD SVG 1.1//EN" "http://www.w3.org/Graphics/SVG/1.1/DTD/svg11.dtd">
<svg version="1.1" xmlns="http://www.w3.org/2000/svg" xmlns:xlink="http://www.w3.org/1999/xlink" width="20" height="20" viewBox="0 0 20 20">
	<path d="M6.25 2.5v6.793c-1.58-0.439-1.965-0.66-3.633-0.66-1.443 0-2.617 1.174-2.617 2.617 0 1.443 1.174 2.617 2.617 2.617 2.031 0 2.968 0.756 4.018 2.248 0.031 0.044 0.062 0.089 0.092 0.135h-1.727v3.75h12.5v-3.75h-1.113c0.084-1.243 0.433-1.584 0.861-2.001 0.33-0.321 0.74-0.721 1.041-1.446 0.315-0.761 0.462-1.751 0.462-3.116v-1.269c0-1.21-1.001-2.194-2.232-2.194-0.204 0-0.408 0.028-0.604 0.082-0.41-0.385-0.957-0.605-1.539-0.605-0.204 0-0.408 0.028-0.603 0.082-0.41-0.385-0.957-0.605-1.539-0.605-0.352 0-0.686 0.081-0.982 0.224v-2.903c0-1.381-1.119-2.5-2.5-2.5-1.381 0-2.5 1.119-2.5 2.5zM16.25 18.125c0 0.345-0.28 0.625-0.625 0.625s-0.625-0.28-0.625-0.625 0.28-0.625 0.625-0.625 0.625 0.28 0.625 0.625zM10 2.617v5h1.25v-0.128c0-0.52 0.441-0.944 0.982-0.944 0.339 0 0.65 0.165 0.832 0.442l0.317 0.484 0.507-0.279c0.148-0.081 0.316-0.124 0.487-0.124 0.339 0 0.65 0.165 0.832 0.442l0.317 0.484 0.507-0.279c0.148-0.081 0.316-0.124 0.487-0.124 0.542 0 0.982 0.423 0.982 0.944v1.269c0 2.472-0.746 2.97-1.288 3.498-0.553 0.539-1.172 1.142-1.303 2.947h-6.531c-0.161-0.308-0.337-0.6-0.529-0.872-1.325-1.883-2.726-2.878-5.232-2.878-0.625 0-1.133-0.586-1.133-1.211s0.508-1.172 1.133-1.172c1.673 0 2.059 0.242 3.633 0.722 0.444 0.12 0.884 0.233 1.237 0.31l0.013-8.532c0-0.689 0.561-1.25 1.25-1.25s1.25 0.561 1.25 1.25z" fill="#ffffff" />
</svg>
