<?xml version="1.0" encoding="utf-8"?>
<!-- Generated by IcoMoon.io -->
<!DOCTYPE svg PUBLIC "-//W3C//DTD SVG 1.1//EN" "http://www.w3.org/Graphics/SVG/1.1/DTD/svg11.dtd">
<svg version="1.1" xmlns="http://www.w3.org/2000/svg" xmlns:xlink="http://www.w3.org/1999/xlink" width="20" height="20" viewBox="0 0 20 20">
	<path d="M1.399 10c0 0.279 0.279 0.479 0.279 0.479l7.463 4.949c0.572 0.383 1.042 0.102 1.042-0.624v-9.609c0-0.726-0.47-1.006-1.042-0.625l-7.463 4.95c0.001 0.001-0.279 0.201-0.279 0.48zM10.475 10c0 0.279 0.279 0.479 0.279 0.479l7.203 4.949c0.573 0.383 1.042 0.102 1.042-0.624v-9.609c0-0.726-0.469-1.006-1.042-0.625l-7.203 4.95c0 0.001-0.279 0.201-0.279 0.48z" fill="#ffffff" />
</svg>
