<?xml version="1.0" encoding="utf-8"?>
<!-- Generated by IcoMoon.io -->
<!DOCTYPE svg PUBLIC "-//W3C//DTD SVG 1.1//EN" "http://www.w3.org/Graphics/SVG/1.1/DTD/svg11.dtd">
<svg version="1.1" xmlns="http://www.w3.org/2000/svg" xmlns:xlink="http://www.w3.org/1999/xlink" width="20" height="20" viewBox="0 0 20 20">
	<path d="M5 1.25h10v2.5h-10zM18.75 5h-17.5c-0.688 0-1.25 0.563-1.25 1.25v6.25c0 0.688 0.562 1.25 1.25 1.25h3.75v5h10v-5h3.75c0.688 0 1.25-0.563 1.25-1.25v-6.25c0-0.688-0.563-1.25-1.25-1.25zM13.75 17.5h-7.5v-6.25h7.5v6.25zM19.031 6.875c0 0.501-0.406 0.906-0.906 0.906-0.501 0-0.906-0.406-0.906-0.906s0.406-0.906 0.906-0.906c0.501 0 0.906 0.406 0.906 0.906z" fill="#ffffff" />
</svg>
