<?xml version="1.0" encoding="utf-8"?>
<!-- Generated by IcoMoon.io -->
<!DOCTYPE svg PUBLIC "-//W3C//DTD SVG 1.1//EN" "http://www.w3.org/Graphics/SVG/1.1/DTD/svg11.dtd">
<svg version="1.1" xmlns="http://www.w3.org/2000/svg" xmlns:xlink="http://www.w3.org/1999/xlink" width="20" height="20" viewBox="0 0 20 20">
	<path d="M1.5 7.002h17c0.57 0 0.477-0.608 0.193-0.707-0.284-0.099-3.443-1.293-3.993-1.293h-0.9v-3h-7.6v3h-0.9c-0.55 0-3.709 1.194-3.993 1.293s-0.378 0.707 0.193 0.707zM18.7 8.102h-17.4c-0.55 0-1.1 0.65-1.1 1.2v3.5c0 0.55 0.55 1.2 1.1 1.2h1.982l-0.882 5h15.2l-0.882-5h1.982c0.55 0 1.1-0.65 1.1-1.2v-3.5c0-0.55-0.55-1.2-1.1-1.2zM4.4 17.002l1.4-6.5h8.4l1.399 6.5h-11.199z" fill="#ffffff" />
</svg>
