<?xml version="1.0" encoding="utf-8"?>
<!-- Generated by IcoMoon.io -->
<!DOCTYPE svg PUBLIC "-//W3C//DTD SVG 1.1//EN" "http://www.w3.org/Graphics/SVG/1.1/DTD/svg11.dtd">
<svg version="1.1" xmlns="http://www.w3.org/2000/svg" xmlns:xlink="http://www.w3.org/1999/xlink" width="20" height="20" viewBox="0 0 20 20">
	<path d="M18 1h-16c-1.1 0-2 0.9-2 2v12c0 1.1 0.9 1.98 2 1.98h3.98v-1.96h-4v-9.22h16.040v9.22h-4v1.961h3.98c1.101 0 2-0.881 2-1.98v-12.001c0-1.1-0.899-2-2-2zM2.601 4.33c-0.415 0-0.75-0.327-0.75-0.73s0.335-0.73 0.75-0.73c0.414 0 0.75 0.327 0.75 0.73s-0.336 0.73-0.75 0.73zM4.601 4.33c-0.415 0-0.75-0.327-0.75-0.73s0.335-0.73 0.75-0.73c0.414 0 0.75 0.327 0.75 0.73s-0.336 0.73-0.75 0.73zM18.021 4.22h-12.041v-1.24h12.040v1.24zM9.948 8.174l-4.852 4.822h3v6.004h3.704v-6.004h3l-4.852-4.822z" fill="#ffffff" />
</svg>
