<?xml version="1.0" encoding="utf-8"?>
<!-- Generated by IcoMoon.io -->
<!DOCTYPE svg PUBLIC "-//W3C//DTD SVG 1.1//EN" "http://www.w3.org/Graphics/SVG/1.1/DTD/svg11.dtd">
<svg version="1.1" xmlns="http://www.w3.org/2000/svg" xmlns:xlink="http://www.w3.org/1999/xlink" width="20" height="20" viewBox="0 0 20 20">
	<path d="M17.005 13.020c-0.779-0.549-1.751-0.51-2.304 0.275s-4.418 5.633-10.75 3.62c0.238 0.208 0.49 0.406 0.754 0.592 4.154 2.925 9.892 1.929 12.818-2.226 0.552-0.785 0.26-1.713-0.518-2.261zM4.785 12.4c-0.404-0.871-2.669-6.643 2.24-11.12-0.3 0.103-0.596 0.221-0.889 0.357-4.611 2.135-6.617 7.603-4.482 12.214 0.403 0.872 1.353 1.084 2.217 0.684 0.864-0.401 1.317-1.263 0.914-2.135zM10.826 0.822c-0.956-0.086-1.614 0.63-1.7 1.579-0.085 0.949 0.435 1.771 1.391 1.857 0.957 0.086 7.087 1.010 8.51 7.501 0.062-0.311 0.106-0.627 0.136-0.949 0.455-5.060-3.277-9.532-8.337-9.988zM6.891 10.529c-0.263 0.621-0.306 1.213-0.094 1.323 0.146 0.076 0.374-0.098 0.588-0.416 0.085 0.348 0.295 0.661 0.595 0.913-0.314 0.116-0.52 0.306-0.52 0.521 0 0.353 0.556 0.639 1.241 0.639 0.618 0 1.13-0.232 1.225-0.537 0.025 0 0.123 0 0.147 0 0.096 0.305 0.607 0.537 1.226 0.537 0.686 0 1.241-0.286 1.241-0.639 0-0.215-0.205-0.404-0.52-0.521 0.299-0.252 0.51-0.565 0.594-0.913 0.215 0.318 0.442 0.492 0.589 0.416 0.212-0.11 0.17-0.702-0.095-1.323-0.207-0.486-0.488-0.846-0.702-0.926 0.003-0.030 0.005-0.062 0.005-0.094 0-0.188-0.053-0.362-0.143-0.504 0.002-0.011 0.002-0.022 0.002-0.033 0-0.087-0.021-0.168-0.056-0.238-0.054-1.266-0.879-2.273-2.214-2.273s-2.161 1.007-2.215 2.273c-0.035 0.071-0.056 0.152-0.056 0.239 0 0.011 0 0.022 0.001 0.033-0.088 0.141-0.141 0.315-0.141 0.504 0 0.032 0.002 0.063 0.004 0.094-0.213 0.080-0.495 0.439-0.702 0.925z" fill="#ffffff" />
</svg>
