<?xml version="1.0" encoding="utf-8"?>
<!-- Generated by IcoMoon.io -->
<!DOCTYPE svg PUBLIC "-//W3C//DTD SVG 1.1//EN" "http://www.w3.org/Graphics/SVG/1.1/DTD/svg11.dtd">
<svg version="1.1" xmlns="http://www.w3.org/2000/svg" xmlns:xlink="http://www.w3.org/1999/xlink" width="20" height="20" viewBox="0 0 20 20">
	<path d="M6.25 1.25h-5v5h5v-5zM7.5 0v0 7.5h-7.5v-7.5h7.5zM2.5 2.5h2.5v2.5h-2.5zM18.75 1.25h-5v5h5v-5zM20 0v0 7.5h-7.5v-7.5h7.5zM15 2.5h2.5v2.5h-2.5zM6.25 13.75h-5v5h5v-5zM7.5 12.5v0 7.5h-7.5v-7.5h7.5zM2.5 15h2.5v2.5h-2.5zM8.75 0h1.25v1.25h-1.25zM10 1.25h1.25v1.25h-1.25zM8.75 2.5h1.25v1.25h-1.25zM10 3.75h1.25v1.25h-1.25zM8.75 5h1.25v1.25h-1.25zM10 6.25h1.25v1.25h-1.25zM8.75 7.5h1.25v1.25h-1.25zM8.75 10h1.25v1.25h-1.25zM10 11.25h1.25v1.25h-1.25zM8.75 12.5h1.25v1.25h-1.25zM10 13.75h1.25v1.25h-1.25zM8.75 15h1.25v1.25h-1.25zM10 16.25h1.25v1.25h-1.25zM8.75 17.5h1.25v1.25h-1.25zM10 18.75h1.25v1.25h-1.25zM18.75 10h1.25v1.25h-1.25zM1.25 10h1.25v1.25h-1.25zM2.5 8.75h1.25v1.25h-1.25zM0 8.75h1.25v1.25h-1.25zM5 8.75h1.25v1.25h-1.25zM6.25 10h1.25v1.25h-1.25zM7.5 8.75h1.25v1.25h-1.25zM11.25 10h1.25v1.25h-1.25zM12.5 8.75h1.25v1.25h-1.25zM13.75 10h1.25v1.25h-1.25zM15 8.75h1.25v1.25h-1.25zM16.25 10h1.25v1.25h-1.25zM17.5 8.75h1.25v1.25h-1.25zM18.75 12.5h1.25v1.25h-1.25zM11.25 12.5h1.25v1.25h-1.25zM12.5 11.25h1.25v1.25h-1.25zM13.75 12.5h1.25v1.25h-1.25zM16.25 12.5h1.25v1.25h-1.25zM17.5 11.25h1.25v1.25h-1.25zM18.75 15h1.25v1.25h-1.25zM11.25 15h1.25v1.25h-1.25zM12.5 13.75h1.25v1.25h-1.25zM15 13.75h1.25v1.25h-1.25zM16.25 15h1.25v1.25h-1.25zM17.5 13.75h1.25v1.25h-1.25zM18.75 17.5h1.25v1.25h-1.25zM12.5 16.25h1.25v1.25h-1.25zM13.75 17.5h1.25v1.25h-1.25zM15 16.25h1.25v1.25h-1.25zM16.25 17.5h1.25v1.25h-1.25zM12.5 18.75h1.25v1.25h-1.25zM15 18.75h1.25v1.25h-1.25zM17.5 18.75h1.25v1.25h-1.25z" fill="#ffffff" />
</svg>
