<?xml version="1.0" encoding="utf-8"?>
<!-- Generated by IcoMoon.io -->
<!DOCTYPE svg PUBLIC "-//W3C//DTD SVG 1.1//EN" "http://www.w3.org/Graphics/SVG/1.1/DTD/svg11.dtd">
<svg version="1.1" xmlns="http://www.w3.org/2000/svg" xmlns:xlink="http://www.w3.org/1999/xlink" width="20" height="20" viewBox="0 0 20 20">
	<path d="M10 20c-5.522 0-10-4.477-10-10 0-5.522 4.478-10 10-10s10 4.478 10 10c0 5.523-4.478 10-10 10zM10 2.5c-4.142 0-7.5 3.358-7.5 7.5s3.358 7.5 7.5 7.5 7.5-3.358 7.5-7.5-3.358-7.5-7.5-7.5zM10 5c-2.072 0-3.75 1.679-3.75 3.75h2.5c0-0.69 0.559-1.25 1.25-1.25s1.25 0.56 1.25 1.25-0.559 1.25-1.25 1.25c-0.048 0-0.2 0-0.625 0-0.345 0-0.625 0.28-0.625 0.625v1.875h2.5v-0.229c1.453-0.516 2.5-1.89 2.5-3.521 0-2.071-1.678-3.75-3.75-3.75zM10 13.75h-1.25v1.25h2.5v-1.25z" fill="#ffffff" />
</svg>
