<?xml version="1.0" encoding="utf-8"?>
<!-- Generated by IcoMoon.io -->
<!DOCTYPE svg PUBLIC "-//W3C//DTD SVG 1.1//EN" "http://www.w3.org/Graphics/SVG/1.1/DTD/svg11.dtd">
<svg version="1.1" xmlns="http://www.w3.org/2000/svg" xmlns:xlink="http://www.w3.org/1999/xlink" width="20" height="20" viewBox="0 0 20 20">
	<path d="M14.090 2.234c-1.141-0.823-2.572-1.234-4.296-1.234-1.312 0-2.418 0.29-3.317 0.868-1.427 0.906-2.185 2.444-2.277 4.614h3.306c0-0.632 0.184-1.241 0.553-1.827s0.995-0.879 1.878-0.879c0.897 0 1.516 0.238 1.854 0.713 0.339 0.477 0.508 1.004 0.508 1.582 0 0.503-0.252 0.963-0.556 1.382-0.167 0.244-0.388 0.468-0.661 0.674 0 0-1.793 1.15-2.581 2.074-0.457 0.536-0.498 1.338-0.538 2.489-0.003 0.082 0.028 0.251 0.315 0.251s2.317 0 2.572 0 0.308-0.189 0.312-0.272c0.018-0.419 0.065-0.633 0.142-0.875 0.145-0.457 0.537-0.856 0.979-1.199l0.91-0.628c0.821-0.64 1.477-1.165 1.766-1.577 0.494-0.678 0.841-1.512 0.841-2.501 0-1.615-0.571-2.833-1.71-3.655zM9.741 14.924c-1.14-0.034-2.080 0.754-2.116 1.99-0.036 1.235 0.858 2.051 1.998 2.085 1.19 0.035 2.105-0.728 2.141-1.963 0.035-1.236-0.833-2.077-2.023-2.112z" fill="#ffffff" />
</svg>
