<?xml version="1.0" encoding="utf-8"?>
<!-- Generated by IcoMoon.io -->
<!DOCTYPE svg PUBLIC "-//W3C//DTD SVG 1.1//EN" "http://www.w3.org/Graphics/SVG/1.1/DTD/svg11.dtd">
<svg version="1.1" xmlns="http://www.w3.org/2000/svg" xmlns:xlink="http://www.w3.org/1999/xlink" width="20" height="20" viewBox="0 0 20 20">
	<path d="M8.75 13.75h2.5v2.5h-2.5zM13.75 5c0.69 0 1.25 0.56 1.25 1.25v3.75l-3.75 2.5h-2.5v-1.25l3.75-2.5v-1.25h-6.25v-2.5h7.5zM10 1.875c-2.17 0-4.211 0.845-5.745 2.38s-2.38 3.575-2.38 5.745c0 2.17 0.845 4.211 2.38 5.745 1.535 1.535 3.575 2.38 5.745 2.38 2.17 0 4.211-0.845 5.745-2.38 1.535-1.535 2.38-3.575 2.38-5.745 0-2.17-0.845-4.211-2.38-5.745-1.535-1.535-3.575-2.38-5.745-2.38zM10 0v0c5.523 0 10 4.477 10 10s-4.477 10-10 10c-5.523 0-10-4.477-10-10 0-5.523 4.477-10 10-10z" fill="#ffffff" />
</svg>
