<?xml version="1.0" encoding="utf-8"?>
<!-- Generated by IcoMoon.io -->
<!DOCTYPE svg PUBLIC "-//W3C//DTD SVG 1.1//EN" "http://www.w3.org/Graphics/SVG/1.1/DTD/svg11.dtd">
<svg version="1.1" xmlns="http://www.w3.org/2000/svg" xmlns:xlink="http://www.w3.org/1999/xlink" width="20" height="20" viewBox="0 0 20 20">
	<path d="M7.5 11.458c0 0 3.983-2.39 6.226-1.446 0.465-0.708 0.923-1.471 1.371-2.25-2.194-0.537-5.097-0.054-5.097-0.054s3.715-2.229 5.99-1.531c0.456-0.822 0.899-1.634 1.327-2.389-1.812-0.122-3.567 0.17-3.567 0.17s2.327-1.396 4.425-1.633c0.66-1.071 1.273-1.912 1.825-2.326-10.957 0-17.5 12.5-20 20h1.25l3.75-6.25c0 0 1.25 1.25 5 0 0.888-0.296 1.776-1.118 2.648-2.225-2.2-0.558-5.148-0.066-5.148-0.066z" fill="#ffffff" />
</svg>
