<?xml version="1.0" encoding="utf-8"?>
<!-- Generated by IcoMoon.io -->
<!DOCTYPE svg PUBLIC "-//W3C//DTD SVG 1.1//EN" "http://www.w3.org/Graphics/SVG/1.1/DTD/svg11.dtd">
<svg version="1.1" xmlns="http://www.w3.org/2000/svg" xmlns:xlink="http://www.w3.org/1999/xlink" width="20" height="20" viewBox="0 0 20 20">
	<path d="M10 0.4c-5.302 0-9.6 4.298-9.6 9.6s4.298 9.6 9.6 9.6 9.6-4.298 9.6-9.6-4.298-9.6-9.6-9.6zM13.403 9.483c0.022 0.169 0.034 0.342 0.034 0.517 0 2.177-1.742 3.941-3.892 3.941-2.148 0-3.891-1.765-3.891-3.941s1.742-3.94 3.891-3.94c0.309 0 0.608 0.038 0.896 0.106v2.244c-0.455-0.166-1.014-0.141-1.541 0.112-0.952 0.46-1.436 1.494-1.079 2.311 0.357 0.815 1.418 1.104 2.37 0.645 0.656-0.316 1.235-1.079 1.235-2.035v-2.893c0.082 0.046 0.161 0.095 0.239 0.146 0.74 0.465 1.838 1.086 3.122 1.151 0.501 0.026-0.196 1.285-1.384 1.636z" fill="#ffffff" />
</svg>
