<?xml version="1.0" encoding="utf-8"?>
<!-- Generated by IcoMoon.io -->
<!DOCTYPE svg PUBLIC "-//W3C//DTD SVG 1.1//EN" "http://www.w3.org/Graphics/SVG/1.1/DTD/svg11.dtd">
<svg version="1.1" xmlns="http://www.w3.org/2000/svg" xmlns:xlink="http://www.w3.org/1999/xlink" width="20" height="20" viewBox="0 0 20 20">
	<path d="M15.936 8.976c2.351-0.695 3.729-3.186 2.739-3.236-2.541-0.129-4.714-1.36-6.178-2.28-0.155-0.102-0.313-0.199-0.476-0.29v5.725c0 1.893-1.145 3.401-2.443 4.028-1.885 0.91-3.985 0.339-4.691-1.276-0.706-1.615 0.25-3.662 2.135-4.571 1.043-0.503 2.15-0.552 3.052-0.223v-4.441c-0.57-0.136-1.163-0.212-1.774-0.212-4.253 0-7.701 3.492-7.701 7.8 0 4.308 3.448 7.8 7.701 7.8 4.254 0 7.701-3.492 7.701-7.8 0-0.347-0.022-0.689-0.065-1.024z" fill="#ffffff" />
</svg>
