<?xml version="1.0" encoding="utf-8"?>
<!-- Generated by IcoMoon.io -->
<!DOCTYPE svg PUBLIC "-//W3C//DTD SVG 1.1//EN" "http://www.w3.org/Graphics/SVG/1.1/DTD/svg11.dtd">
<svg version="1.1" xmlns="http://www.w3.org/2000/svg" xmlns:xlink="http://www.w3.org/1999/xlink" width="20" height="20" viewBox="0 0 20 20">
	<path d="M5 12.5c0-0.69 0.56-1.25 1.25-1.25s1.25 0.56 1.25 1.25c0 0.69-0.56 1.25-1.25 1.25-0.69 0-1.25-0.56-1.25-1.25zM12.5 12.5c0-0.69 0.56-1.25 1.25-1.25s1.25 0.56 1.25 1.25c0 0.69-0.56 1.25-1.25 1.25-0.69 0-1.25-0.56-1.25-1.25zM12.561 15.171c0.322-0.254 0.789-0.198 1.042 0.124 0.254 0.322 0.198 0.789-0.124 1.042-0.896 0.706-2.262 1.163-3.479 1.163-1.217 0-2.583-0.456-3.479-1.163-0.322-0.254-0.377-0.72-0.124-1.042 0.254-0.322 0.72-0.377 1.042-0.124 0.516 0.407 1.538 0.844 2.561 0.844 1.023 0 2.045-0.438 2.561-0.844zM20 10c0-1.381-1.119-2.5-2.5-2.5-0.94 0-1.758 0.519-2.185 1.286-1.285-0.703-2.851-1.157-4.556-1.262l1.492-3.35 2.855 0.824c0.257 0.729 0.952 1.252 1.769 1.252 1.036 0 1.875-0.839 1.875-1.875s-0.839-1.875-1.875-1.875c-0.714 0-1.335 0.399-1.651 0.987l-3.182-0.918c-0.356-0.103-0.733 0.073-0.884 0.411l-2.027 4.551c-1.663 0.117-3.189 0.567-4.446 1.255-0.427-0.767-1.245-1.285-2.185-1.285-1.381 0-2.5 1.119-2.5 2.5 0 1.022 0.613 1.899 1.492 2.287-0.158 0.469-0.242 0.959-0.242 1.463 0 3.452 3.917 6.25 8.75 6.25 4.832 0 8.75-2.798 8.75-6.25 0-0.504-0.084-0.993-0.242-1.463 0.878-0.388 1.492-1.266 1.492-2.287zM16.875 3.672c0.388 0 0.703 0.315 0.703 0.703s-0.315 0.703-0.703 0.703-0.703-0.315-0.703-0.703 0.315-0.703 0.703-0.703zM1.25 10c0-0.689 0.561-1.25 1.25-1.25 0.498 0 0.929 0.293 1.13 0.716-0.653 0.495-1.195 1.067-1.595 1.694-0.459-0.185-0.785-0.635-0.785-1.16zM10 18.516c-4.013 0-7.266-2.134-7.266-4.766s3.253-4.766 7.266-4.766c4.013 0 7.266 2.134 7.266 4.766s-3.253 4.766-7.266 4.766zM17.965 11.16c-0.4-0.627-0.942-1.199-1.595-1.694 0.201-0.423 0.632-0.716 1.13-0.716 0.689 0 1.25 0.561 1.25 1.25 0 0.525-0.325 0.975-0.785 1.16z" fill="#ffffff" />
</svg>
