<?xml version="1.0" encoding="utf-8"?>
<!-- Generated by IcoMoon.io -->
<!DOCTYPE svg PUBLIC "-//W3C//DTD SVG 1.1//EN" "http://www.w3.org/Graphics/SVG/1.1/DTD/svg11.dtd">
<svg version="1.1" xmlns="http://www.w3.org/2000/svg" xmlns:xlink="http://www.w3.org/1999/xlink" width="20" height="20" viewBox="0 0 20 20">
	<path d="M15.625 2.5h-11.25c-1.036 0-1.875 0.839-1.875 1.875v0.625h15v-0.625c0-1.036-0.839-1.875-1.875-1.875zM12.35 1.25l0.276 1.973h-5.251l0.276-1.973h4.7M12.5 0h-5c-0.516 0-0.996 0.418-1.067 0.928l-0.366 2.616c-0.071 0.511 0.292 0.928 0.808 0.928h6.25c0.516 0 0.879-0.418 0.808-0.928l-0.366-2.616c-0.071-0.511-0.552-0.928-1.067-0.928v0zM15.938 6.25h-11.875c-0.688 0-1.199 0.56-1.137 1.245l1.024 11.26c0.062 0.685 0.676 1.245 1.363 1.245h9.375c0.688 0 1.301-0.56 1.363-1.245l1.024-11.26c0.062-0.685-0.449-1.245-1.137-1.245zM7.5 17.5h-1.875l-0.625-8.75h2.5v8.75zM11.25 17.5h-2.5v-8.75h2.5v8.75zM14.375 17.5h-1.875v-8.75h2.5l-0.625 8.75z" fill="#ffffff" />
</svg>
