<?xml version="1.0" encoding="utf-8"?>
<!-- Generated by IcoMoon.io -->
<!DOCTYPE svg PUBLIC "-//W3C//DTD SVG 1.1//EN" "http://www.w3.org/Graphics/SVG/1.1/DTD/svg11.dtd">
<svg version="1.1" xmlns="http://www.w3.org/2000/svg" xmlns:xlink="http://www.w3.org/1999/xlink" width="20" height="20" viewBox="0 0 20 20">
	<path d="M8.468 0.865c-4.351 0.73-7.668 4.512-7.668 9.071 0 2.266 0.821 4.339 2.179 5.941 3.221-1.559 5.472-5.085 5.489-9.19v-5.822zM10.001 12.258c-0.573 2.373-2.285 4.401-4.418 5.749 1.311 0.719 2.816 1.128 4.417 1.128 1.602 0 3.106-0.409 4.418-1.129-2.133-1.348-3.844-3.375-4.417-5.748zM11.534 6.643c0 4.124 2.256 7.669 5.487 9.234 1.358-1.604 2.179-3.676 2.179-5.941 0-4.558-3.315-8.34-7.666-9.070v5.777z" fill="#ffffff" />
</svg>
