<?xml version="1.0" encoding="utf-8"?>
<!-- Generated by IcoMoon.io -->
<!DOCTYPE svg PUBLIC "-//W3C//DTD SVG 1.1//EN" "http://www.w3.org/Graphics/SVG/1.1/DTD/svg11.dtd">
<svg version="1.1" xmlns="http://www.w3.org/2000/svg" xmlns:xlink="http://www.w3.org/1999/xlink" width="20" height="20" viewBox="0 0 20 20">
	<path d="M12.263 12.568c0 0 7.059-5.093 6.276-10.923-0.018-0.128-0.060-0.212-0.112-0.269-0.055-0.053-0.137-0.097-0.263-0.115-5.697-0.799-10.674 6.424-10.674 6.424-4.318-0.518-4.004 0.344-5.974 5.075-0.377 0.902 0.234 1.213 0.904 0.959 0.67-0.252 2.149-0.811 2.149-0.811l2.589 2.649c0 0-0.546 1.513-0.793 2.198-0.247 0.687 0.056 1.312 0.938 0.927 4.624-2.017 5.466-1.696 4.96-6.114zM13.271 6.652c-0.598-0.612-0.598-1.604 0-2.216 0.598-0.611 1.567-0.611 2.165 0 0.599 0.611 0.599 1.604 0 2.216-0.597 0.613-1.567 0.613-2.165 0z" fill="#ffffff" />
</svg>
