<?xml version="1.0" encoding="utf-8"?>
<!-- Generated by IcoMoon.io -->
<!DOCTYPE svg PUBLIC "-//W3C//DTD SVG 1.1//EN" "http://www.w3.org/Graphics/SVG/1.1/DTD/svg11.dtd">
<svg version="1.1" xmlns="http://www.w3.org/2000/svg" xmlns:xlink="http://www.w3.org/1999/xlink" width="20" height="20" viewBox="0 0 20 20">
	<path d="M10 1.25c-0.47 0-0.932 0.035-1.383 0.102-0.006-0.015-0.012-0.030-0.019-0.045 0.251-0.195 0.382-0.465 0.325-0.733-0.073-0.343-0.437-0.574-0.907-0.574-0.101 0-0.204 0.011-0.306 0.033-0.589 0.125-0.979 0.559-0.888 0.988 0.055 0.261 0.279 0.456 0.589 0.535-0.001 0.019-0 0.038 0.001 0.057-3.918 1.124-6.786 4.733-6.786 9.013 0 5.178 4.197 9.375 9.375 9.375 5.178 0 9.375-4.197 9.375-9.375 0-5.178-4.197-9.375-9.375-9.375zM7.127 0.955c-0.053-0.249 0.244-0.531 0.648-0.617 0.081-0.017 0.162-0.026 0.241-0.026 0.313 0 0.56 0.134 0.601 0.326 0.031 0.147-0.060 0.305-0.222 0.428-0.137-0.097-0.313-0.139-0.49-0.101-0.177 0.038-0.319 0.147-0.405 0.29-0.199-0.048-0.342-0.158-0.372-0.3zM15.027 15.652c-0.859 0.859-1.899 1.47-3.033 1.8l-0.828-1.343-0.21 1.562c-0.314 0.042-0.633 0.064-0.956 0.064-1.899 0-3.684-0.74-5.027-2.082-0.859-0.859-1.47-1.899-1.8-3.033l1.343-0.828-1.562-0.21c-0.042-0.314-0.064-0.633-0.064-0.956 0-1.899 0.739-3.684 2.082-5.027 0.859-0.859 1.899-1.47 3.033-1.8l0.828 1.343 0.21-1.562c0.314-0.042 0.633-0.064 0.956-0.064 1.899 0 3.684 0.739 5.027 2.082 0.859 0.859 1.47 1.899 1.8 3.033l-1.343 0.828 1.562 0.21c0.042 0.314 0.064 0.633 0.064 0.956 0 1.899-0.74 3.684-2.082 5.027zM14.861 5.764l-3.847 2.924c-0.286-0.15-0.603-0.236-0.926-0.249l-0.998-2.093-0.060 2.318c-0.259 0.128-0.49 0.306-0.681 0.526l-1.232-0.437 0.9 0.948c-0.124 0.264-0.193 0.547-0.204 0.836l-2.093 0.997 2.319 0.060c0.007 0.015 0.015 0.030 0.023 0.045l-2.924 3.847 3.847-2.924c0.286 0.15 0.603 0.236 0.926 0.249l0.998 2.093 0.060-2.318c0.259-0.128 0.49-0.306 0.681-0.526l1.232 0.437-0.9-0.948c0.124-0.264 0.193-0.547 0.204-0.836l2.093-0.997-2.319-0.060c-0.007-0.015-0.015-0.030-0.023-0.045l2.924-3.847zM10.002 8.682v0zM9.61 8.791c0.131-0.028 0.263-0.041 0.392-0.041 0.081 0 0.161 0.005 0.24 0.016l0.002 0.001-0-0c0.171 0.022 0.335 0.068 0.491 0.135l-1.397 1.062-1.062 1.398c-0.046-0.109-0.083-0.224-0.109-0.345-0.215-1.013 0.431-2.009 1.444-2.224zM10.979 12.224v0 0c-0.177 0.108-0.375 0.189-0.589 0.235-0.131 0.028-0.263 0.041-0.392 0.041-0.081 0-0.161-0.005-0.24-0.016l-0.001-0c-0.171-0.022-0.335-0.068-0.491-0.135l1.397-1.062 1.062-1.398c0.046 0.109 0.083 0.224 0.109 0.345 0.17 0.798-0.196 1.586-0.855 1.989z" fill="#ffffff" />
</svg>
