<?xml version="1.0" encoding="utf-8"?>
<!-- Generated by IcoMoon.io -->
<!DOCTYPE svg PUBLIC "-//W3C//DTD SVG 1.1//EN" "http://www.w3.org/Graphics/SVG/1.1/DTD/svg11.dtd">
<svg version="1.1" xmlns="http://www.w3.org/2000/svg" xmlns:xlink="http://www.w3.org/1999/xlink" width="20" height="20" viewBox="0 0 20 20">
	<path d="M17.398 13.851c-0.892-0.89-2.026-1.349-3.085-1.349h-0.569l-1.248-1.25 4.993-5.001c1.248-1.25 1.248-3.751 0-5.001l-7.489 7.501-7.489-7.501c-1.248 1.25-1.248 3.751 0 5.001l4.993 5.001-1.248 1.25h-0.569c-1.059 0-2.193 0.459-3.085 1.349-1.594 1.591-1.81 3.955-0.481 5.28 0.585 0.584 1.373 0.869 2.207 0.869 1.059 0 2.193-0.459 3.085-1.349 1.047-1.044 1.499-2.422 1.31-3.62l1.277-1.279 1.277 1.279c-0.189 1.198 0.264 2.576 1.31 3.62 0.892 0.89 2.026 1.349 3.085 1.349 0.834 0 1.622-0.285 2.207-0.869 1.329-1.326 1.113-3.69-0.481-5.28zM6.895 16.514c-0.15 0.349-0.371 0.671-0.657 0.956-0.286 0.285-0.609 0.506-0.96 0.657-0.315 0.135-0.644 0.206-0.95 0.206-0.296 0-0.715-0.066-1.032-0.383-0.315-0.315-0.381-0.729-0.381-1.021 0-0.304 0.071-0.629 0.206-0.942 0.15-0.349 0.371-0.671 0.657-0.956 0.286-0.285 0.609-0.506 0.96-0.657 0.315-0.135 0.644-0.206 0.95-0.206 0.296 0 0.715 0.066 1.032 0.383 0.315 0.314 0.381 0.729 0.381 1.021 0 0.304-0.071 0.629-0.206 0.942zM10 13.019c-0.975 0-1.765-0.792-1.765-1.768 0-0.976 0.79-1.768 1.765-1.768s1.765 0.792 1.765 1.768c0 0.977-0.79 1.768-1.765 1.768zM16.705 17.95c-0.317 0.317-0.737 0.383-1.032 0.383-0.307 0-0.635-0.071-0.951-0.206-0.351-0.151-0.674-0.371-0.96-0.657-0.285-0.285-0.506-0.606-0.657-0.956-0.134-0.312-0.206-0.638-0.206-0.942 0-0.292 0.066-0.707 0.381-1.021 0.317-0.317 0.737-0.383 1.032-0.383 0.307 0 0.635 0.071 0.95 0.206 0.351 0.151 0.674 0.371 0.96 0.657 0.285 0.285 0.506 0.606 0.657 0.956 0.134 0.312 0.206 0.638 0.206 0.942-0 0.292-0.066 0.707-0.381 1.021z" fill="#ffffff" />
</svg>
