<?xml version="1.0" encoding="utf-8"?>
<!-- Generated by IcoMoon.io -->
<!DOCTYPE svg PUBLIC "-//W3C//DTD SVG 1.1//EN" "http://www.w3.org/Graphics/SVG/1.1/DTD/svg11.dtd">
<svg version="1.1" xmlns="http://www.w3.org/2000/svg" xmlns:xlink="http://www.w3.org/1999/xlink" width="20" height="20" viewBox="0 0 20 20">
	<path d="M17.545 15.468l-3.779-3.779c0.57-0.937 0.898-2.035 0.898-3.212 0-3.416-2.961-6.377-6.378-6.377-3.416 0-6.186 2.77-6.186 6.186 0 3.417 2.96 6.378 6.377 6.378 1.136 0 2.2-0.308 3.115-0.843l3.799 3.8c0.373 0.372 0.975 0.372 1.346 0l0.943-0.942c0.371-0.372 0.236-0.84-0.135-1.211zM4.004 8.286c0-2.365 1.917-4.283 4.282-4.283 2.366 0 4.474 2.108 4.474 4.474s-1.917 4.283-4.283 4.283-4.473-2.108-4.473-4.474z" fill="#ffffff" />
</svg>
