<?xml version="1.0" encoding="utf-8"?>
<!-- Generated by IcoMoon.io -->
<!DOCTYPE svg PUBLIC "-//W3C//DTD SVG 1.1//EN" "http://www.w3.org/Graphics/SVG/1.1/DTD/svg11.dtd">
<svg version="1.1" xmlns="http://www.w3.org/2000/svg" xmlns:xlink="http://www.w3.org/1999/xlink" width="20" height="20" viewBox="0 0 20 20">
	<path d="M12.5 0.003c-4.142 0-7.5 3.358-7.5 7.5 0 1.266 0.317 2.458 0.872 3.505l-5.215 5.214 0.004 0.004c-0.407 0.401-0.661 0.956-0.661 1.572 0 1.218 0.988 2.206 2.206 2.206 0.616 0 1.171-0.254 1.572-0.662l-0.001-0.001 5.213-5.212c1.047 0.557 2.241 0.875 3.511 0.875 4.142 0 7.5-3.358 7.5-7.5 0-4.142-3.358-7.5-7.5-7.5zM2.997 18.561c-0.201 0.209-0.48 0.339-0.791 0.339-0.609 0-1.103-0.493-1.103-1.102 0-0.311 0.131-0.589 0.339-0.791l-0.006-0.005 5.041-5.041c0.441 0.594 0.966 1.119 1.559 1.561l-5.039 5.039zM12.5 13.754c-3.451 0-6.25-2.799-6.25-6.25 0-3.451 2.799-6.25 6.25-6.25 3.451 0 6.25 2.799 6.25 6.25 0 3.451-2.799 6.25-6.25 6.25zM12.5 3.128c0.172 0 0.313 0.14 0.313 0.313s-0.141 0.313-0.313 0.313c-2.071 0-3.75 1.679-3.75 3.75 0 0.173-0.14 0.313-0.313 0.313-0.172 0-0.313-0.14-0.313-0.313 0-2.416 1.958-4.375 4.375-4.375z" fill="#ffffff" />
</svg>
