<?xml version="1.0" encoding="utf-8"?>
<!-- Generated by IcoMoon.io -->
<!DOCTYPE svg PUBLIC "-//W3C//DTD SVG 1.1//EN" "http://www.w3.org/Graphics/SVG/1.1/DTD/svg11.dtd">
<svg version="1.1" xmlns="http://www.w3.org/2000/svg" xmlns:xlink="http://www.w3.org/1999/xlink" width="20" height="20" viewBox="0 0 20 20">
	<path d="M20 8.75v2.5h-2.614c-0.187 1.107-0.627 2.124-1.243 3.009l2.621 2.279-1.804 2.229-2.89-2.513c-0.842 0.547-1.79 0.946-2.82 1.121v2.626h-2.5v-2.614c-1.034-0.175-1.983-0.577-2.825-1.129l-2.885 2.51-1.804-2.229 2.626-2.284c-0.612-0.884-1.049-1.898-1.235-3.004h-2.626v-2.5h2.614c0.187-1.107 0.627-2.124 1.243-3.009l-2.621-2.279 1.804-2.229 2.89 2.513c0.842-0.547 1.79-0.946 2.82-1.121v-2.626h2.5v2.626c1.031 0.175 1.979 0.574 2.82 1.121l2.89-2.513 1.804 2.229-2.621 2.279c0.616 0.885 1.057 1.902 1.243 3.009h2.614zM10 6.25c-2.071 0-3.75 1.678-3.75 3.75s1.679 3.75 3.75 3.75 3.75-1.678 3.75-3.75-1.679-3.75-3.75-3.75z" fill="#ffffff" />
</svg>
