<?xml version="1.0" encoding="utf-8"?>
<!-- Generated by IcoMoon.io -->
<!DOCTYPE svg PUBLIC "-//W3C//DTD SVG 1.1//EN" "http://www.w3.org/Graphics/SVG/1.1/DTD/svg11.dtd">
<svg version="1.1" xmlns="http://www.w3.org/2000/svg" xmlns:xlink="http://www.w3.org/1999/xlink" width="20" height="20" viewBox="0 0 20 20">
	<path d="M18.994 7.925l-1.915-0.384c-0.096-0.277-0.21-0.546-0.336-0.806l1.085-1.628c0.331-0.496 0.265-1.156-0.156-1.577l-1.203-1.203c-0.242-0.242-0.561-0.366-0.885-0.366-0.239 0-0.481 0.069-0.692 0.21l-1.628 1.084c-0.261-0.126-0.53-0.239-0.807-0.335l-0.384-1.916c-0.116-0.585-0.63-1.005-1.226-1.005h-1.7c-0.596 0-1.109 0.421-1.226 1.005l-0.384 1.916c-0.277 0.096-0.546 0.209-0.806 0.335l-1.627-1.084c-0.212-0.141-0.453-0.21-0.693-0.21-0.323 0-0.643 0.124-0.884 0.366l-1.202 1.203c-0.421 0.421-0.487 1.081-0.156 1.577l1.084 1.627c-0.126 0.261-0.239 0.529-0.335 0.806l-1.916 0.383c-0.584 0.117-1.005 0.63-1.005 1.226v1.7c0 0.596 0.421 1.109 1.005 1.226l1.916 0.384c0.096 0.277 0.209 0.546 0.335 0.806l-1.084 1.627c-0.331 0.496-0.265 1.156 0.156 1.577l1.202 1.202c0.242 0.242 0.561 0.366 0.884 0.366 0.24 0 0.482-0.069 0.692-0.21l1.627-1.085c0.261 0.127 0.529 0.239 0.806 0.336l0.383 1.915c0.117 0.585 0.63 1.006 1.226 1.006h1.7c0.596 0 1.109-0.421 1.226-1.006l0.384-1.915c0.277-0.096 0.546-0.21 0.806-0.336l1.627 1.085c0.211 0.141 0.453 0.21 0.692 0.21 0.324 0 0.643-0.124 0.885-0.366l1.203-1.203c0.421-0.421 0.487-1.081 0.156-1.577l-1.085-1.627c0.127-0.261 0.239-0.53 0.336-0.807l1.915-0.383c0.584-0.116 1.006-0.63 1.006-1.226v-1.7c0-0.596-0.421-1.109-1.006-1.226zM16.834 11.234c-0.434 0.087-0.79 0.397-0.935 0.816-0.081 0.231-0.174 0.454-0.279 0.671-0.194 0.399-0.161 0.871 0.084 1.239l1.085 1.627-1.203 1.202-1.627-1.085c-0.209-0.139-0.451-0.21-0.693-0.21-0.186 0-0.373 0.041-0.544 0.124-0.217 0.105-0.441 0.2-0.673 0.281-0.417 0.145-0.728 0.501-0.814 0.935l-0.384 1.916h-1.7l-0.383-1.916c-0.087-0.434-0.397-0.79-0.815-0.935-0.231-0.081-0.455-0.174-0.672-0.279-0.172-0.084-0.359-0.126-0.545-0.126-0.243 0-0.484 0.071-0.693 0.21l-1.627 1.085-1.203-1.203 1.084-1.627c0.246-0.369 0.277-0.84 0.086-1.238-0.105-0.217-0.199-0.441-0.28-0.673-0.145-0.417-0.501-0.728-0.935-0.814l-1.916-0.384-0.001-1.701 1.916-0.383c0.434-0.087 0.79-0.397 0.935-0.815 0.081-0.231 0.174-0.455 0.279-0.672 0.194-0.399 0.161-0.87-0.085-1.238l-1.084-1.628 1.202-1.202 1.628 1.084c0.209 0.139 0.451 0.21 0.693 0.21 0.186 0 0.372-0.041 0.544-0.124 0.217-0.105 0.441-0.199 0.672-0.28 0.418-0.145 0.728-0.501 0.815-0.935l0.384-1.916 1.7-0.001 0.383 1.916c0.087 0.434 0.397 0.79 0.816 0.935 0.231 0.081 0.454 0.174 0.671 0.279 0.173 0.084 0.359 0.125 0.546 0.125 0.243 0 0.484-0.071 0.693-0.21l1.627-1.084 1.203 1.203-1.085 1.627c-0.246 0.369-0.277 0.839-0.086 1.238 0.105 0.217 0.2 0.441 0.281 0.672 0.145 0.418 0.501 0.728 0.935 0.815l1.915 0.384 0.002 1.7-1.916 0.384zM10 5.626c-2.416 0-4.375 1.959-4.375 4.375 0 2.416 1.959 4.375 4.375 4.375s4.375-1.959 4.375-4.375c0-2.416-1.959-4.375-4.375-4.375zM10 13.829c-2.114 0-3.828-1.715-3.828-3.828 0-2.114 1.714-3.828 3.828-3.828 2.113 0 3.828 1.714 3.828 3.828 0 2.113-1.715 3.828-3.828 3.828zM10 7.501c-1.381 0-2.5 1.119-2.5 2.5 0 1.381 1.119 2.5 2.5 2.5 1.381 0 2.5-1.119 2.5-2.5 0-1.381-1.119-2.5-2.5-2.5zM10 11.876c-1.035 0-1.875-0.84-1.875-1.875s0.84-1.875 1.875-1.875 1.875 0.84 1.875 1.875c0 1.035-0.84 1.875-1.875 1.875z" fill="#ffffff" />
</svg>
