<?xml version="1.0" encoding="utf-8"?>
<!-- Generated by IcoMoon.io -->
<!DOCTYPE svg PUBLIC "-//W3C//DTD SVG 1.1//EN" "http://www.w3.org/Graphics/SVG/1.1/DTD/svg11.dtd">
<svg version="1.1" xmlns="http://www.w3.org/2000/svg" xmlns:xlink="http://www.w3.org/1999/xlink" width="20" height="20" viewBox="0 0 20 20">
	<path d="M8.75 2.5v-0.313c0-0.516-0.422-0.938-0.938-0.938h-3.125c-0.516 0-0.938 0.422-0.938 0.938v0.313h-3.75v2.5h3.75v0.313c0 0.516 0.422 0.938 0.938 0.938h3.125c0.516 0 0.938-0.422 0.938-0.938v-0.313h11.25v-2.5h-11.25zM5 5v-2.5h2.5v2.5h-2.5zM16.25 8.438c0-0.516-0.422-0.938-0.938-0.938h-3.125c-0.516 0-0.938 0.422-0.938 0.938v0.313h-11.25v2.5h11.25v0.313c0 0.516 0.422 0.938 0.938 0.938h3.125c0.516 0 0.938-0.422 0.938-0.938v-0.313h3.75v-2.5h-3.75v-0.313zM12.5 11.25v-2.5h2.5v2.5h-2.5zM8.75 14.688c0-0.516-0.422-0.938-0.938-0.938h-3.125c-0.516 0-0.938 0.422-0.938 0.938v0.313h-3.75v2.5h3.75v0.313c0 0.516 0.422 0.938 0.938 0.938h3.125c0.516 0 0.938-0.422 0.938-0.938v-0.313h11.25v-2.5h-11.25v-0.313zM5 17.5v-2.5h2.5v2.5h-2.5z" fill="#ffffff" />
</svg>
