<?xml version="1.0" encoding="utf-8"?>
<!-- Generated by IcoMoon.io -->
<!DOCTYPE svg PUBLIC "-//W3C//DTD SVG 1.1//EN" "http://www.w3.org/Graphics/SVG/1.1/DTD/svg11.dtd">
<svg version="1.1" xmlns="http://www.w3.org/2000/svg" xmlns:xlink="http://www.w3.org/1999/xlink" width="20" height="20" viewBox="0 0 20 20">
	<path d="M6.8 10c0 1.767 1.433 3.2 3.2 3.2s3.2-1.434 3.2-3.2c0-1.767-1.433-3.2-3.2-3.2s-3.2 1.433-3.2 3.2zM4.529 8.8c0.549-2.516 2.79-4.4 5.471-4.4 1.547 0 2.946 0.627 3.959 1.64 0.469 0.469 1.229 0.469 1.698 0 0.468-0.469 0.468-1.229 0-1.697-1.448-1.447-3.448-2.343-5.657-2.343-3.582 0-6.614 2.354-7.633 5.6h-2.367v2.4h3.2c0.999 0 1.244-0.813 1.329-1.2zM16.8 10c-0.998 0-1.244 0.813-1.329 1.2-0.549 2.516-2.789 4.4-5.471 4.4-1.546 0-2.946-0.626-3.959-1.64-0.469-0.469-1.229-0.469-1.697 0s-0.469 1.229 0 1.697c1.447 1.447 3.447 2.343 5.656 2.343 3.582 0 6.614-2.354 7.633-5.6h2.367v-2.4h-3.2z" fill="#ffffff" />
</svg>
