<?xml version="1.0" encoding="utf-8"?>
<!-- Generated by IcoMoon.io -->
<!DOCTYPE svg PUBLIC "-//W3C//DTD SVG 1.1//EN" "http://www.w3.org/Graphics/SVG/1.1/DTD/svg11.dtd">
<svg version="1.1" xmlns="http://www.w3.org/2000/svg" xmlns:xlink="http://www.w3.org/1999/xlink" width="20" height="20" viewBox="0 0 20 20">
	<path d="M16.875 13.75c-0.882 0-1.678 0.366-2.246 0.954l-8.418-4.209c0.026-0.161 0.039-0.326 0.039-0.495s-0.014-0.334-0.039-0.495l8.418-4.209c0.568 0.588 1.364 0.954 2.246 0.954 1.726 0 3.125-1.399 3.125-3.125s-1.399-3.125-3.125-3.125-3.125 1.399-3.125 3.125c0 0.168 0.014 0.334 0.039 0.495l-8.418 4.209c-0.568-0.588-1.364-0.954-2.246-0.954-1.726 0-3.125 1.399-3.125 3.125 0 1.726 1.399 3.125 3.125 3.125 0.882 0 1.678-0.366 2.246-0.954l8.418 4.209c-0.026 0.161-0.039 0.326-0.039 0.495 0 1.726 1.399 3.125 3.125 3.125s3.125-1.399 3.125-3.125c0-1.726-1.399-3.125-3.125-3.125z" fill="#ffffff" />
</svg>
