<?xml version="1.0" encoding="utf-8"?>
<!-- Generated by IcoMoon.io -->
<!DOCTYPE svg PUBLIC "-//W3C//DTD SVG 1.1//EN" "http://www.w3.org/Graphics/SVG/1.1/DTD/svg11.dtd">
<svg version="1.1" xmlns="http://www.w3.org/2000/svg" xmlns:xlink="http://www.w3.org/1999/xlink" width="20" height="20" viewBox="0 0 20 20">
	<path d="M15 13c-0.688 0-1.318 0.233-1.824 0.622l-5.219-3.131c0.025-0.16 0.043-0.324 0.043-0.491 0-0.168-0.018-0.331-0.043-0.491l5.219-3.131c0.506 0.389 1.136 0.622 1.824 0.622 1.656 0 3-1.343 3-3s-1.344-3-3-3-3 1.343-3 3c0 0.167 0.018 0.331 0.044 0.491l-5.219 3.132c-0.506-0.39-1.137-0.623-1.825-0.623-1.657 0-3 1.343-3 3 0 1.656 1.343 3 3 3 0.688 0 1.319-0.233 1.825-0.622l5.219 3.131c-0.026 0.16-0.044 0.323-0.044 0.491 0 1.656 1.344 3 3 3s3-1.344 3-3-1.344-3-3-3z" fill="#ffffff" />
</svg>
