<?xml version="1.0" encoding="utf-8"?>
<!-- Generated by IcoMoon.io -->
<!DOCTYPE svg PUBLIC "-//W3C//DTD SVG 1.1//EN" "http://www.w3.org/Graphics/SVG/1.1/DTD/svg11.dtd">
<svg version="1.1" xmlns="http://www.w3.org/2000/svg" xmlns:xlink="http://www.w3.org/1999/xlink" width="20" height="20" viewBox="0 0 20 20">
	<path d="M20 5l-5-5v3.75c-2.554 0-4.507 0.61-5.97 1.863-0.103 0.088-0.201 0.178-0.296 0.269 0.537 0.745 0.951 1.514 1.324 2.248 0.944-1.141 2.306-1.88 4.942-1.88v7.5c-4.227 0-5.178-1.902-6.382-4.309-0.67-1.34-1.363-2.726-2.648-3.828-1.463-1.254-3.416-1.863-5.97-1.863v2.5c4.227 0 5.178 1.902 6.382 4.309 0.67 1.34 1.363 2.726 2.648 3.828 1.463 1.254 3.416 1.863 5.97 1.863v3.75l5-5-5-5 5-5zM0 13.75v2.5c2.554 0 4.507-0.61 5.97-1.863 0.103-0.088 0.201-0.178 0.296-0.269-0.537-0.745-0.952-1.514-1.324-2.248-0.944 1.141-2.306 1.88-4.942 1.88z" fill="#ffffff" />
</svg>
