<?xml version="1.0" encoding="utf-8"?>
<!-- Generated by IcoMoon.io -->
<!DOCTYPE svg PUBLIC "-//W3C//DTD SVG 1.1//EN" "http://www.w3.org/Graphics/SVG/1.1/DTD/svg11.dtd">
<svg version="1.1" xmlns="http://www.w3.org/2000/svg" xmlns:xlink="http://www.w3.org/1999/xlink" width="20" height="20" viewBox="0 0 20 20">
	<path d="M15.093 6.694h0.707v2.013l4.2-3.6-4.2-3.6v2.387h-0.707c-3.693 0-5.776 2.737-7.614 5.152-1.653 2.172-3.080 4.048-5.386 4.048h-2.093v2.801h2.093c3.694 0 5.776-2.738 7.615-5.153 1.652-2.173 3.079-4.048 5.385-4.048zM5.411 8.458c0.157-0.204 0.316-0.412 0.477-0.623 0.391-0.514 0.804-1.056 1.251-1.596-1.321-1.234-2.915-2.145-5.046-2.145h-2.093v2.8h2.093c1.327 0 2.363 0.623 3.318 1.564zM15.8 13.293h-0.707c-1.407 0-2.486-0.699-3.49-1.738-0.101 0.131-0.201 0.264-0.303 0.398-0.441 0.578-0.916 1.201-1.439 1.816 1.357 1.324 3.001 2.324 5.232 2.324h0.707v2.4l4.2-3.6-4.2-3.602v2.002z" fill="#ffffff" />
</svg>
