<?xml version="1.0" encoding="utf-8"?>
<!-- Generated by IcoMoon.io -->
<!DOCTYPE svg PUBLIC "-//W3C//DTD SVG 1.1//EN" "http://www.w3.org/Graphics/SVG/1.1/DTD/svg11.dtd">
<svg version="1.1" xmlns="http://www.w3.org/2000/svg" xmlns:xlink="http://www.w3.org/1999/xlink" width="20" height="20" viewBox="0 0 20 20">
	<path d="M8.75 15.518l-4.009-4.634 1.143-1.143 2.866 2.241 5.366-4.741 1.143 1.143zM16.246 2.5c0.002 0.001 0.003 0.003 0.004 0.004v14.991c-0.001 0.002-0.003 0.003-0.004 0.004h-12.491c-0.002-0.001-0.003-0.003-0.004-0.004v-14.991c0.001-0.002 0.003-0.003 0.004-0.004h-2.504v15c0 1.375 1.125 2.5 2.5 2.5h12.5c1.375 0 2.5-1.125 2.5-2.5v-15h-2.504zM12.5 2.5v-1.25c0-0.69-0.56-1.25-1.25-1.25h-2.5c-0.69 0-1.25 0.56-1.25 1.25v1.25h-2.5v2.5h10v-2.5h-2.5zM11.25 2.5h-2.5v-1.25h2.5v1.25z" fill="#ffffff" />
</svg>
