<?xml version="1.0" encoding="utf-8"?>
<!-- Generated by IcoMoon.io -->
<!DOCTYPE svg PUBLIC "-//W3C//DTD SVG 1.1//EN" "http://www.w3.org/Graphics/SVG/1.1/DTD/svg11.dtd">
<svg version="1.1" xmlns="http://www.w3.org/2000/svg" xmlns:xlink="http://www.w3.org/1999/xlink" width="20" height="20" viewBox="0 0 20 20">
	<path d="M10 14c-1.094 0-1.979 0.896-1.979 2s0.885 2 1.979 2c1.093 0 1.979-0.896 1.979-2s-0.886-2-1.979-2zM5.8 11.758l1.4 1.414c1.546-1.562 4.053-1.562 5.6 0l1.4-1.414c-2.32-2.344-6.081-2.344-8.4 0zM3 8.929l1.399 1.414c3.093-3.124 8.107-3.124 11.2 0l1.401-1.414c-3.866-3.905-10.134-3.905-14 0zM0.2 6.101l1.4 1.414c4.64-4.686 12.161-4.686 16.8 0l1.4-1.414c-5.412-5.468-14.188-5.468-19.6 0z" fill="#ffffff" />
</svg>
