<?xml version="1.0" encoding="utf-8"?>
<!-- Generated by IcoMoon.io -->
<!DOCTYPE svg PUBLIC "-//W3C//DTD SVG 1.1//EN" "http://www.w3.org/Graphics/SVG/1.1/DTD/svg11.dtd">
<svg version="1.1" xmlns="http://www.w3.org/2000/svg" xmlns:xlink="http://www.w3.org/1999/xlink" width="20" height="20" viewBox="0 0 20 20">
	<path d="M14.879 10.068c-0.274-0.083-0.463-0.141-0.318-0.508 0.311-0.797 0.343-1.484 0.006-1.975-0.633-0.92-2.363-0.871-4.347-0.024 0-0.001-0.623 0.277-0.464-0.227 0.305-0.998 0.259-1.834-0.216-2.317-1.076-1.096-3.938 0.043-6.394 2.54-1.838 1.871-2.905 3.854-2.905 5.569 0 3.28 4.132 5.474 8.175 5.474 5.3 0 8.825-3.334 8.825-5.822 0-1.504-1.244-2.357-2.362-2.71zM8.427 17.13c-3.226 0.319-6.010-1.146-6.22-3.276-0.209-2.129 2.236-4.115 5.462-4.436 3.227-0.321 6.011 1.145 6.22 3.274s-2.236 4.117-5.462 4.438zM20.142 7.397c-0.002-3.312-2.688-5.997-6-5.997-0.387 0-0.7 0.313-0.7 0.7s0.313 0.699 0.7 0.699c2.54 0 4.6 2.060 4.6 4.601 0 0.387 0.313 0.7 0.7 0.7s0.7-0.313 0.7-0.7c0 0 0-0.002 0-0.003zM17.36 7.295c-0.32-1.562-1.552-2.793-3.113-3.113-0.378-0.077-0.749 0.166-0.826 0.545-0.078 0.378 0.166 0.748 0.544 0.826 1.016 0.208 1.816 1.008 2.023 2.023 0.078 0.379 0.448 0.622 0.827 0.545 0.378-0.078 0.623-0.448 0.545-0.826zM6.772 11.503c-1.299 0.261-2.176 1.351-1.958 2.434 0.217 1.083 1.447 1.749 2.747 1.487 1.299-0.261 2.176-1.351 1.958-2.434-0.217-1.082-1.447-1.748-2.747-1.487z" fill="#ffffff" />
</svg>
