<?xml version="1.0" encoding="utf-8"?>
<!-- Generated by IcoMoon.io -->
<!DOCTYPE svg PUBLIC "-//W3C//DTD SVG 1.1//EN" "http://www.w3.org/Graphics/SVG/1.1/DTD/svg11.dtd">
<svg version="1.1" xmlns="http://www.w3.org/2000/svg" xmlns:xlink="http://www.w3.org/1999/xlink" width="20" height="20" viewBox="0 0 20 20">
	<path d="M19.049 11.288c0.055-0.406 0.087-0.819 0.087-1.24 0-5.045-4.112-9.136-9.184-9.136-0.504 0-0.998 0.041-1.479 0.12-0.862-0.562-1.888-0.889-2.993-0.889-3.028 0-5.48 2.453-5.48 5.481 0 1.101 0.324 2.125 0.882 2.984-0.075 0.469-0.114 0.95-0.114 1.44 0 5.046 4.11 9.136 9.183 9.136 0.573 0 1.13-0.056 1.672-0.154 0.842 0.522 1.833 0.826 2.896 0.826 3.027 0 5.48-2.454 5.48-5.481-0-1.144-0.35-2.208-0.951-3.088zM10.81 16.781c-2.918 0.152-4.284-0.494-5.535-1.668-1.397-1.311-0.836-2.807 0.302-2.883 1.138-0.076 1.821 1.29 2.428 1.669 0.606 0.378 2.914 1.241 4.133-0.153 1.327-1.517-0.883-2.302-2.502-2.539-2.313-0.342-5.232-1.593-5.005-4.059 0.227-2.464 2.093-3.727 4.057-3.905 2.503-0.227 4.132 0.379 5.421 1.479 1.49 1.271 0.684 2.691-0.266 2.805-0.946 0.114-2.008-2.090-4.093-2.123-2.149-0.034-3.602 2.237-0.949 2.882 2.655 0.645 5.498 0.91 6.522 3.337 1.025 2.427-1.592 5.005-4.513 5.157z" fill="#ffffff" />
</svg>
