<?xml version="1.0" encoding="utf-8"?>
<!-- Generated by IcoMoon.io -->
<!DOCTYPE svg PUBLIC "-//W3C//DTD SVG 1.1//EN" "http://www.w3.org/Graphics/SVG/1.1/DTD/svg11.dtd">
<svg version="1.1" xmlns="http://www.w3.org/2000/svg" xmlns:xlink="http://www.w3.org/1999/xlink" width="20" height="20" viewBox="0 0 20 20">
	<path d="M12.164 9.853c-0.23-0.154-0.514-0.287-0.84-0.396-0.324-0.106-0.689-0.205-1.087-0.292-0.314-0.075-0.543-0.133-0.68-0.172-0.133-0.038-0.266-0.091-0.395-0.158-0.125-0.064-0.224-0.141-0.293-0.229-0.066-0.083-0.098-0.178-0.098-0.294 0-0.188 0.1-0.347 0.305-0.485 0.213-0.144 0.5-0.216 0.852-0.216 0.379 0 0.655 0.065 0.821 0.194 0.17 0.134 0.319 0.322 0.44 0.562 0.107 0.188 0.201 0.318 0.295 0.402 0.098 0.090 0.24 0.136 0.422 0.136 0.201 0 0.371-0.073 0.506-0.217 0.133-0.144 0.201-0.308 0.201-0.488 0-0.188-0.053-0.382-0.154-0.577-0.1-0.192-0.262-0.379-0.477-0.553-0.215-0.172-0.488-0.312-0.812-0.416-0.322-0.104-0.708-0.155-1.147-0.155-0.549 0-1.034 0.078-1.442 0.233-0.415 0.158-0.736 0.387-0.956 0.682-0.221 0.297-0.333 0.642-0.333 1.024 0 0.4 0.107 0.742 0.318 1.013 0.208 0.269 0.492 0.482 0.844 0.637 0.345 0.15 0.778 0.284 1.288 0.396 0.375 0.080 0.679 0.157 0.902 0.229 0.214 0.068 0.392 0.169 0.524 0.298 0.127 0.123 0.189 0.279 0.189 0.479 0 0.252-0.119 0.458-0.364 0.631-0.25 0.176-0.583 0.265-0.99 0.265-0.295 0-0.536-0.044-0.714-0.131-0.177-0.086-0.316-0.196-0.412-0.327-0.1-0.137-0.195-0.31-0.282-0.516-0.078-0.188-0.175-0.334-0.288-0.433-0.119-0.103-0.264-0.155-0.433-0.155-0.206 0-0.378 0.066-0.513 0.196-0.136 0.132-0.205 0.292-0.205 0.478 0 0.296 0.106 0.604 0.314 0.913 0.207 0.308 0.479 0.556 0.81 0.739 0.462 0.252 1.054 0.38 1.759 0.38 0.588 0 1.104-0.094 1.536-0.277 0.436-0.187 0.771-0.449 0.998-0.779 0.229-0.333 0.344-0.713 0.344-1.129 0-0.349-0.066-0.647-0.199-0.891-0.132-0.241-0.318-0.444-0.554-0.601zM10 0.4c-5.302 0-9.6 4.298-9.6 9.6s4.298 9.6 9.6 9.6c5.303 0 9.6-4.298 9.6-9.6s-4.297-9.6-9.6-9.6zM12.301 15.376c-0.486 0-0.945-0.126-1.347-0.348-0.292 0.056-0.592 0.085-0.9 0.085-2.714 0-4.915-2.265-4.915-5.057 0-0.349 0.034-0.688 0.1-1.017-0.249-0.435-0.392-0.941-0.392-1.482 0-1.619 1.276-2.933 2.85-2.933 0.558 0 1.077 0.165 1.517 0.45 0.272-0.049 0.553-0.074 0.84-0.074 2.714 0 4.915 2.265 4.915 5.057 0 0.372-0.039 0.735-0.113 1.085 0.189 0.393 0.295 0.834 0.295 1.303-0.001 1.618-1.276 2.931-2.85 2.931z" fill="#ffffff" />
</svg>
