<?xml version="1.0" encoding="utf-8"?>
<!-- Generated by IcoMoon.io -->
<!DOCTYPE svg PUBLIC "-//W3C//DTD SVG 1.1//EN" "http://www.w3.org/Graphics/SVG/1.1/DTD/svg11.dtd">
<svg version="1.1" xmlns="http://www.w3.org/2000/svg" xmlns:xlink="http://www.w3.org/1999/xlink" width="20" height="20" viewBox="0 0 20 20">
	<path d="M18.671 12.038c0.133-0.624 0.203-1.272 0.203-1.938 0-4.986-3.929-9.029-8.776-9.029-0.511 0-1.013 0.046-1.5 0.132-0.786-0.508-1.713-0.803-2.709-0.803-2.81 0-5.089 2.345-5.089 5.237 0 0.966 0.256 1.871 0.7 2.648-0.116 0.586-0.178 1.193-0.178 1.815 0 4.986 3.93 9.029 8.776 9.029 0.549 0 1.087-0.052 1.607-0.151 0.716 0.396 1.535 0.621 2.405 0.621 2.812 0 5.090-2.344 5.090-5.236 0-0.835-0.191-1.625-0.529-2.325zM14.599 14.416c-0.406 0.591-1.006 1.060-1.783 1.392-0.77 0.329-1.691 0.496-2.742 0.496-1.261 0-2.317-0.228-3.142-0.679-0.59-0.327-1.076-0.771-1.445-1.318-0.373-0.554-0.562-1.103-0.562-1.632 0-0.331 0.123-0.618 0.366-0.853 0.241-0.232 0.549-0.351 0.916-0.351 0.301 0 0.562 0.093 0.773 0.276 0.202 0.177 0.375 0.438 0.514 0.773 0.156 0.367 0.325 0.676 0.504 0.92 0.172 0.234 0.42 0.432 0.736 0.586 0.318 0.154 0.747 0.233 1.275 0.233 0.725 0 1.32-0.159 1.767-0.474 0.438-0.308 0.65-0.676 0.65-1.127 0-0.356-0.111-0.637-0.339-0.856-0.239-0.229-0.555-0.408-0.937-0.531-0.399-0.128-0.941-0.266-1.61-0.41-0.911-0.201-1.685-0.439-2.3-0.708-0.628-0.274-1.136-0.656-1.507-1.134-0.377-0.484-0.568-1.094-0.568-1.81 0-0.682 0.2-1.297 0.596-1.827 0.393-0.526 0.965-0.936 1.703-1.217 0.729-0.277 1.596-0.418 2.576-0.418 0.784 0 1.473 0.094 2.048 0.277 0.578 0.186 1.066 0.436 1.449 0.744 0.386 0.311 0.673 0.643 0.854 0.986 0.182 0.349 0.274 0.695 0.274 1.030 0 0.323-0.121 0.616-0.36 0.872-0.24 0.257-0.544 0.387-0.901 0.387-0.324 0-0.579-0.082-0.756-0.242-0.164-0.149-0.335-0.383-0.523-0.717-0.219-0.429-0.484-0.766-0.787-1.003-0.296-0.231-0.788-0.349-1.466-0.349-0.629 0-1.141 0.13-1.521 0.387-0.367 0.248-0.544 0.531-0.544 0.866 0 0.206 0.057 0.378 0.175 0.525 0.125 0.157 0.3 0.295 0.523 0.409 0.23 0.119 0.468 0.214 0.706 0.282 0.244 0.069 0.653 0.172 1.215 0.306 0.71 0.157 1.362 0.333 1.939 0.522 0.585 0.192 1.090 0.43 1.502 0.705 0.42 0.282 0.753 0.644 0.989 1.075 0.236 0.434 0.356 0.969 0.356 1.59 0.001 0.746-0.205 1.423-0.613 2.017z" fill="#ffffff" />
</svg>
