<?xml version="1.0" encoding="utf-8"?>
<!-- Generated by IcoMoon.io -->
<!DOCTYPE svg PUBLIC "-//W3C//DTD SVG 1.1//EN" "http://www.w3.org/Graphics/SVG/1.1/DTD/svg11.dtd">
<svg version="1.1" xmlns="http://www.w3.org/2000/svg" xmlns:xlink="http://www.w3.org/1999/xlink" width="20" height="20" viewBox="0 0 20 20">
	<path d="M8.944 11.313c-2.498-0.943-4.596-2.627-4.735-4.821-0.089-1.399 0.264-2.622 1.174-3.65l-3.716 0.887c-0.747 0.179-1.207 0.929-1.029 1.676l3.092 12.928c0.179 0.747 0.928 1.207 1.675 1.028l1.591-0.38c-0.617-0.205-1.685-0.595-2.708-1.141l1.483-3.364c0 0 1.745 1.555 4.252 1.555 2.506 0 3.621-2.942-1.079-4.718zM19.361 14.595l-3.090-12.928c-0.179-0.747-0.929-1.207-1.676-1.028l-2.662 0.637c0.679 0.107 2.022 0.401 3.504 1.178l-1.159 3.214c0 0-0.965-1.078-3.553-1.209-2.459-0.124-3.828 2.536 0.97 4.105 3.673 1.201 4.848 3.516 4.787 5.657-0.032 1.113-0.422 2.019-0.873 2.701l2.725-0.651c0.746-0.179 1.206-0.929 1.027-1.676z" fill="#ffffff" />
</svg>
