<?xml version="1.0" encoding="utf-8"?>
<!-- Generated by IcoMoon.io -->
<!DOCTYPE svg PUBLIC "-//W3C//DTD SVG 1.1//EN" "http://www.w3.org/Graphics/SVG/1.1/DTD/svg11.dtd">
<svg version="1.1" xmlns="http://www.w3.org/2000/svg" xmlns:xlink="http://www.w3.org/1999/xlink" width="20" height="20" viewBox="0 0 20 20">
	<path d="M4.398 5.261c-1.122 1.119-6.028 8.114-1.789 12.351 4.236 4.238 11.23-0.667 12.353-1.79 1.122-1.119-0.334-4.395-3.252-7.312-2.917-2.918-6.189-4.374-7.312-3.249zM13.661 14.85c-0.331 0.329-2.895-0.457-5.363-2.926-2.467-2.471-3.255-5.034-2.924-5.365 0.328-0.331 2.895 0.457 5.36 2.927 2.47 2.467 3.258 5.033 2.927 5.364zM13.812 6.969c0.256 0 0.512-0.098 0.707-0.293l1.905-1.906c0.391-0.391 0.391-1.023 0-1.414s-1.024-0.391-1.414 0l-1.905 1.906c-0.391 0.39-0.391 1.023 0 1.414 0.194 0.195 0.451 0.293 0.707 0.293zM10.211 4.495c0.155 0.087 0.322 0.128 0.488 0.128 0.35 0 0.689-0.185 0.873-0.512l1.081-1.93c0.27-0.482 0.098-1.092-0.384-1.361s-1.091-0.098-1.361 0.384l-1.081 1.93c-0.269 0.481-0.098 1.091 0.384 1.361zM18.959 7.51c-0.271-0.482-0.88-0.653-1.361-0.384l-1.93 1.081c-0.481 0.27-0.653 0.879-0.384 1.361 0.184 0.327 0.523 0.512 0.873 0.512 0.166 0 0.334-0.042 0.488-0.128l1.93-1.081c0.482-0.27 0.654-0.88 0.384-1.361z" fill="#ffffff" />
</svg>
