<?xml version="1.0" encoding="utf-8"?>
<!-- Generated by IcoMoon.io -->
<!DOCTYPE svg PUBLIC "-//W3C//DTD SVG 1.1//EN" "http://www.w3.org/Graphics/SVG/1.1/DTD/svg11.dtd">
<svg version="1.1" xmlns="http://www.w3.org/2000/svg" xmlns:xlink="http://www.w3.org/1999/xlink" width="20" height="20" viewBox="0 0 20 20">
	<path d="M16.874 8.752c0-3.101-2.523-5.625-5.625-5.624v-0.002c-0.172-0.001-0.311-0.141-0.311-0.313 0-0.172 0.139-0.313 0.313-0.313 0.006 0 0.011 0.002 0.016 0.004 3.442 0.008 6.229 2.798 6.233 6.241 0 0.002 0.001 0.003 0.001 0.005 0 0.172-0.141 0.312-0.313 0.312-0.172 0-0.311-0.139-0.313-0.31h-0.001zM5.701 0.549c-0.358-0.359-0.838-0.549-1.326-0.549-0.241 0-0.484 0.046-0.716 0.143-0.701 0.29-1.158 0.974-1.158 1.732l-0.001 8.598-1.95 1.951c-0.733 0.731-0.733 1.919 0 2.651l4.375 4.375c0.366 0.366 0.846 0.549 1.326 0.549s0.959-0.183 1.326-0.549l1.951-1.951h8.598c0.759 0 1.443-0.456 1.732-1.157 0.291-0.701 0.131-1.508-0.406-2.044l-13.749-13.75zM8.643 16.616l-1.951 1.951c-0.159 0.159-0.346 0.183-0.442 0.183s-0.282-0.024-0.442-0.183l-4.375-4.375c-0.159-0.16-0.183-0.346-0.183-0.442s0.024-0.283 0.183-0.442l1.95-1.951c0.006-0.006 0.007-0.013 0.013-0.019l5.266 5.266c-0.006 0.004-0.014 0.006-0.019 0.012zM9.526 16.25c-0.097 0-0.187 0.034-0.279 0.055l-5.553-5.553c0.021-0.092 0.056-0.183 0.056-0.279l0.001-7.529 13.304 13.306h-7.528zM18.701 15.864c-0.096 0.234-0.324 0.386-0.578 0.386h-0.186l-14.188-14.189v-0.186c0-0.254 0.151-0.481 0.386-0.577 0.077-0.032 0.157-0.048 0.239-0.048 0.167 0 0.324 0.065 0.442 0.182l13.749 13.751c0.179 0.179 0.233 0.447 0.136 0.681zM11.249 1.25c-0.344-0.001-0.624-0.281-0.624-0.625 0-0.346 0.279-0.625 0.625-0.625 0.006 0 0.011 0.003 0.016 0.003 4.823 0.009 8.729 3.918 8.733 8.742 0 0.002 0.001 0.003 0.001 0.005 0 0.346-0.279 0.625-0.625 0.625-0.344 0-0.624-0.279-0.625-0.623h-0.001c0-4.136-3.364-7.5-7.5-7.5v-0.002z" fill="#ffffff" />
</svg>
