<?xml version="1.0" encoding="utf-8"?>
<!-- Generated by IcoMoon.io -->
<!DOCTYPE svg PUBLIC "-//W3C//DTD SVG 1.1//EN" "http://www.w3.org/Graphics/SVG/1.1/DTD/svg11.dtd">
<svg version="1.1" xmlns="http://www.w3.org/2000/svg" xmlns:xlink="http://www.w3.org/1999/xlink" width="20" height="20" viewBox="0 0 20 20">
	<path d="M0.672 13.456l0.328-1.4-0.328-1.447c-0.009-0.043-0.091-0.076-0.192-0.076-0.102 0-0.184 0.033-0.192 0.076l-0.288 1.447 0.289 1.4c0.008 0.044 0.090 0.076 0.192 0.076 0.1 0 0.182-0.032 0.191-0.076zM2.722 14.233l0.278-2.164-0.278-3.347c-0.008-0.086-0.112-0.153-0.238-0.153-0.127 0-0.231 0.066-0.237 0.152l-0.247 3.348 0.247 2.164c0.006 0.085 0.11 0.151 0.237 0.151 0.126 0.001 0.23-0.066 0.238-0.151zM4.768 14.198l0.232-2.128-0.232-4.457c-0.006-0.104-0.13-0.187-0.281-0.187-0.152 0-0.276 0.082-0.281 0.187l-0.206 4.457 0.206 2.129c0.005 0.104 0.129 0.186 0.281 0.186 0.151 0 0.275-0.082 0.281-0.187zM6.81 14.166l0.19-2.095-0.19-4.49c-0.005-0.124-0.145-0.222-0.32-0.222-0.176 0-0.316 0.098-0.321 0.222l-0.169 4.49 0.17 2.095c0.003 0.123 0.144 0.221 0.32 0.221 0.175 0 0.315-0.096 0.32-0.221zM8.85 14.14l0.15-2.068-0.15-5.148c-0.003-0.142-0.164-0.257-0.358-0.257s-0.354 0.115-0.357 0.257l-0.135 5.146c0 0.003 0.135 2.069 0.135 2.069 0.003 0.14 0.163 0.255 0.357 0.255 0.194 0.001 0.355-0.113 0.358-0.254zM10.278 14.396c0.006 0 7.099 0.004 7.145 0.004 1.424 0 2.577-1.116 2.577-2.493s-1.153-2.493-2.577-2.493c-0.354 0-0.69 0.069-0.997 0.194-0.205-2.246-2.154-4.008-4.53-4.008-0.581 0-1.148 0.11-1.648 0.298-0.194 0.073-0.247 0.147-0.248 0.292v7.911c0.002 0.153 0.124 0.28 0.278 0.295z" fill="#ffffff" />
</svg>
