<?xml version="1.0" encoding="utf-8"?>
<!-- Generated by IcoMoon.io -->
<!DOCTYPE svg PUBLIC "-//W3C//DTD SVG 1.1//EN" "http://www.w3.org/Graphics/SVG/1.1/DTD/svg11.dtd">
<svg version="1.1" xmlns="http://www.w3.org/2000/svg" xmlns:xlink="http://www.w3.org/1999/xlink" width="20" height="20" viewBox="0 0 20 20">
	<path d="M19.984 11.864l-1.863 1.864-1.864-1.864-1.864 1.864-1.863-1.864 1.863-1.864-1.863-1.864 1.863-1.864 1.864 1.864 1.864-1.864 1.863 1.864-1.863 1.864 1.863 1.864zM10.010 19.995l-4.997-4.997h-3.748c-0.691 0-1.249-0.559-1.249-1.249v-7.496c0-0.691 0.559-1.249 1.249-1.249h3.748l4.997-4.997c0 0 1.249-0.156 1.249 1.249 0 6.779 0 16.63 0 17.491 0 1.406-1.249 1.249-1.249 1.249zM8.761 5.003l-2.499 2.499h-3.748v4.997h3.748l2.499 2.499v-9.995z" fill="#ffffff" />
</svg>
