<?xml version="1.0" encoding="utf-8"?>
<!-- Generated by IcoMoon.io -->
<!DOCTYPE svg PUBLIC "-//W3C//DTD SVG 1.1//EN" "http://www.w3.org/Graphics/SVG/1.1/DTD/svg11.dtd">
<svg version="1.1" xmlns="http://www.w3.org/2000/svg" xmlns:xlink="http://www.w3.org/1999/xlink" width="20" height="20" viewBox="0 0 20 20">
	<path d="M12.499 19.668v-2.63c2.905-1.032 4.997-3.777 4.997-7.037 0-3.259-2.092-6.005-4.997-7.037v-2.631c4.308 1.113 7.496 5.012 7.496 9.668s-3.188 8.556-7.496 9.668zM10 19.995l-4.997-4.997h-3.748c-0.691 0-1.249-0.559-1.249-1.249v-7.496c0-0.691 0.559-1.249 1.249-1.249h3.748l4.997-4.997c0 0 1.249-0.156 1.249 1.249 0 2.848 0 14.924 0 17.491 0 1.406-1.249 1.249-1.249 1.249zM8.751 5.003l-2.499 2.499h-3.748v4.997h3.748l2.499 2.499v-9.995zM16.247 10c0 2.325-1.596 4.263-3.748 4.821v-2.668c0.744-0.433 1.249-1.23 1.249-2.152 0-0.922-0.505-1.719-1.249-2.152v-2.668c2.152 0.558 3.748 2.495 3.748 4.821z" fill="#ffffff" />
</svg>
