<?xml version="1.0" encoding="utf-8"?>
<!-- Generated by IcoMoon.io -->
<!DOCTYPE svg PUBLIC "-//W3C//DTD SVG 1.1//EN" "http://www.w3.org/Graphics/SVG/1.1/DTD/svg11.dtd">
<svg version="1.1" xmlns="http://www.w3.org/2000/svg" xmlns:xlink="http://www.w3.org/1999/xlink" width="20" height="20" viewBox="0 0 20 20">
	<path d="M15.946 5.885c-0.507 0.506-1.328 0.506-1.835 0-0.506-0.506-0.506-1.328 0-1.835l3.669-3.669c0.507-0.506 1.328-0.506 1.835 0 0.506 0.506 0.506 1.328 0 1.835l-3.669 3.669zM9.995 19.989l-4.995-4.995h-3.746c-0.69 0-1.249-0.559-1.249-1.249v-7.492c0-0.69 0.558-1.249 1.249-1.249h3.746l4.995-4.995c0 0 1.249-0.156 1.249 1.249 0 7.47 0 18.708 0 17.481 0 1.405-1.249 1.249-1.249 1.249zM8.746 5.005l-2.497 2.497h-3.746v4.995h3.746l2.497 2.497v-9.989zM14.99 11.249c-0.69 0-1.249-0.558-1.249-1.249 0-0.69 0.558-1.249 1.249-1.249h3.746c0.69 0 1.249 0.559 1.249 1.249 0 0.69-0.558 1.249-1.249 1.249h-3.746zM15.946 14.115l3.669 3.669c0.506 0.507 0.506 1.329 0 1.835-0.507 0.506-1.328 0.506-1.835 0l-3.669-3.669c-0.506-0.507-0.506-1.329 0-1.835 0.507-0.506 1.328-0.506 1.835 0z" fill="#ffffff" />
</svg>
