<?xml version="1.0" encoding="utf-8"?>
<!-- Generated by IcoMoon.io -->
<!DOCTYPE svg PUBLIC "-//W3C//DTD SVG 1.1//EN" "http://www.w3.org/Graphics/SVG/1.1/DTD/svg11.dtd">
<svg version="1.1" xmlns="http://www.w3.org/2000/svg" xmlns:xlink="http://www.w3.org/1999/xlink" width="20" height="20" viewBox="0 0 20 20">
	<path d="M17.421 10.043c-0.353 0-0.69 0.069-0.997 0.193-0.205-2.234-2.154-3.986-4.531-3.986-0.582 0-1.146 0.11-1.647 0.296-0.195 0.072-0.246 0.147-0.246 0.291v7.866c0 0.152 0.122 0.278 0.276 0.293 0.007 0.001 7.1 0.004 7.146 0.004 1.424 0 2.578-1.11 2.578-2.478s-1.155-2.479-2.579-2.479zM7.813 15h0.625l0.313-4.379-0.313-4.371h-0.625l-0.313 4.371zM5.938 15h-0.625l-0.313-3.179 0.313-3.071h0.625l0.313 3.125zM2.813 15h0.625l0.313-2.5-0.313-2.5h-0.625l-0.313 2.5zM0.313 13.75h0.625l0.313-1.25-0.313-1.25h-0.625l-0.313 1.25z" fill="#ffffff" />
</svg>
