<?xml version="1.0" encoding="utf-8"?>
<!-- Generated by IcoMoon.io -->
<!DOCTYPE svg PUBLIC "-//W3C//DTD SVG 1.1//EN" "http://www.w3.org/Graphics/SVG/1.1/DTD/svg11.dtd">
<svg version="1.1" xmlns="http://www.w3.org/2000/svg" xmlns:xlink="http://www.w3.org/1999/xlink" width="20" height="20" viewBox="0 0 20 20">
	<path d="M16.667 0h-13.334c-1.833 0-3.334 1.5-3.334 3.334v9.166l0.312-1.25h0.625l0.313 1.25-0.313 1.25h-0.625l-0.313-1.25v4.166c0 1.835 1.5 3.334 3.334 3.334h13.334c1.834 0 3.333-1.499 3.333-3.334v-4.145c0 1.369-1.154 2.478-2.578 2.478-0.046 0-7.14-0.003-7.146-0.004-0.154-0.015-0.276-0.141-0.276-0.293v-7.866c0-0.144 0.051-0.219 0.246-0.291 0.501-0.186 1.065-0.296 1.647-0.296 2.377 0 4.326 1.752 4.531 3.986 0.307-0.124 0.644-0.192 0.997-0.192 1.424 0 2.579 1.11 2.579 2.479v-9.188c0-1.834-1.499-3.334-3.333-3.334zM3.438 15h-0.625l-0.313-2.5 0.313-2.5h0.625l0.313 2.5-0.313 2.5zM5.938 15h-0.625l-0.313-3.179 0.313-3.071h0.625l0.313 3.125-0.313 3.125zM8.438 15h-0.625l-0.313-4.379 0.313-4.371h0.625l0.313 4.371-0.313 4.379z" fill="#ffffff" />
</svg>
