<?xml version="1.0" encoding="utf-8"?>
<!-- Generated by IcoMoon.io -->
<!DOCTYPE svg PUBLIC "-//W3C//DTD SVG 1.1//EN" "http://www.w3.org/Graphics/SVG/1.1/DTD/svg11.dtd">
<svg version="1.1" xmlns="http://www.w3.org/2000/svg" xmlns:xlink="http://www.w3.org/1999/xlink" width="20" height="20" viewBox="0 0 20 20">
	<path d="M2.5 5h2.5v3.75h1.25v-7.5c0-0.688-0.563-1.25-1.25-1.25h-2.5c-0.688 0-1.25 0.563-1.25 1.25v7.5h1.25v-3.75zM2.5 1.25h2.5v2.5h-2.5v-2.5zM18.75 1.25v-1.25h-3.75c-0.688 0-1.25 0.563-1.25 1.25v6.25c0 0.688 0.562 1.25 1.25 1.25h3.75v-1.25h-3.75v-6.25h3.75zM12.5 3.125v-1.875c0-0.688-0.563-1.25-1.25-1.25h-3.75v8.75h3.75c0.688 0 1.25-0.563 1.25-1.25v-1.875c0-0.688-0.172-1.25-0.859-1.25 0.688 0 0.859-0.563 0.859-1.25zM11.25 7.5h-2.5v-2.5h2.5v2.5zM11.25 3.75h-2.5v-2.5h2.5v2.5zM16.25 11.25l-8.125 8.75-4.375-5.625 1.602-1.367 2.773 2.891 6.875-5.898z" fill="#ffffff" />
</svg>
