<?xml version="1.0" encoding="utf-8"?>
<!-- Generated by IcoMoon.io -->
<!DOCTYPE svg PUBLIC "-//W3C//DTD SVG 1.1//EN" "http://www.w3.org/Graphics/SVG/1.1/DTD/svg11.dtd">
<svg version="1.1" xmlns="http://www.w3.org/2000/svg" xmlns:xlink="http://www.w3.org/1999/xlink" width="20" height="20" viewBox="0 0 20 20">
	<path d="M18.75 11.25h-2.5c-0.691 0-1.25-0.559-1.25-1.25s0.559-1.25 1.25-1.25h2.5c0.691 0 1.25 0.559 1.25 1.25s-0.559 1.25-1.25 1.25zM15.303 6.465c-0.488 0.488-1.279 0.488-1.768 0s-0.488-1.279 0-1.768l1.768-1.768c0.488-0.488 1.279-0.488 1.768 0s0.488 1.279 0 1.768l-1.768 1.768zM10 20c-0.691 0-1.25-0.559-1.25-1.25v-2.5c0-0.691 0.559-1.25 1.25-1.25s1.25 0.559 1.25 1.25v2.5c0 0.691-0.559 1.25-1.25 1.25zM10 5c-0.691 0-1.25-0.559-1.25-1.25v-2.5c0-0.691 0.559-1.25 1.25-1.25s1.25 0.559 1.25 1.25v2.5c0 0.691-0.559 1.25-1.25 1.25zM4.697 17.070c-0.488 0.488-1.279 0.488-1.768 0-0.488-0.487-0.488-1.279 0-1.768l1.768-1.768c0.488-0.488 1.279-0.488 1.768 0s0.488 1.279 0 1.768l-1.768 1.768zM4.697 6.465l-1.768-1.768c-0.488-0.488-0.488-1.279 0-1.768s1.279-0.488 1.768 0l1.768 1.768c0.488 0.488 0.488 1.279 0 1.768s-1.279 0.488-1.768 0zM5 10c0 0.691-0.559 1.25-1.25 1.25h-2.5c-0.691 0-1.25-0.559-1.25-1.25s0.559-1.25 1.25-1.25h2.5c0.691 0 1.25 0.559 1.25 1.25zM15.303 13.535l1.768 1.768c0.488 0.488 0.488 1.281 0 1.768-0.488 0.488-1.279 0.488-1.768 0l-1.768-1.768c-0.488-0.488-0.488-1.279 0-1.768s1.279-0.488 1.768 0z" fill="#ffffff" />
</svg>
