<?xml version="1.0" encoding="utf-8"?>
<!-- Generated by IcoMoon.io -->
<!DOCTYPE svg PUBLIC "-//W3C//DTD SVG 1.1//EN" "http://www.w3.org/Graphics/SVG/1.1/DTD/svg11.dtd">
<svg version="1.1" xmlns="http://www.w3.org/2000/svg" xmlns:xlink="http://www.w3.org/1999/xlink" width="20" height="20" viewBox="0 0 20 20">
	<path d="M3.75 10c0-0.238 0.014-0.473 0.040-0.704l-3.613-1.174c-0.116 0.608-0.177 1.236-0.177 1.877 0 2.876 1.214 5.467 3.157 7.291l2.232-3.072c-1.018-1.112-1.639-2.593-1.639-4.219zM16.25 10c0 1.626-0.621 3.107-1.639 4.219l2.232 3.072c1.943-1.824 3.157-4.416 3.157-7.291 0-0.642-0.061-1.269-0.177-1.877l-3.613 1.174c0.026 0.231 0.040 0.466 0.040 0.704zM11.25 3.875c1.796 0.364 3.311 1.499 4.188 3.043l3.613-1.174c-1.43-3.036-4.341-5.236-7.801-5.667v3.797zM4.562 6.919c0.877-1.545 2.393-2.679 4.188-3.043v-3.797c-3.461 0.432-6.372 2.632-7.801 5.667l3.613 1.174zM12.589 15.69c-0.789 0.36-1.665 0.56-2.589 0.56s-1.8-0.2-2.589-0.56l-2.232 3.072c1.43 0.788 3.073 1.237 4.821 1.237s3.391-0.449 4.821-1.238l-2.232-3.072z" fill="#ffffff" />
</svg>
