<?xml version="1.0" encoding="utf-8"?>
<!-- Generated by IcoMoon.io -->
<!DOCTYPE svg PUBLIC "-//W3C//DTD SVG 1.1//EN" "http://www.w3.org/Graphics/SVG/1.1/DTD/svg11.dtd">
<svg version="1.1" xmlns="http://www.w3.org/2000/svg" xmlns:xlink="http://www.w3.org/1999/xlink" width="20" height="20" viewBox="0 0 20 20">
	<path d="M10 0c-5.444 0-9.872 4.351-9.997 9.765 0.116-4.724 3.708-8.515 8.122-8.515 4.487 0 8.125 3.918 8.125 8.75 0 1.036 0.839 1.875 1.875 1.875 1.036 0 1.875-0.839 1.875-1.875 0-5.523-4.477-10-10-10zM10 20c5.444 0 9.872-4.351 9.997-9.765-0.116 4.724-3.708 8.515-8.122 8.515-4.487 0-8.125-3.918-8.125-8.75 0-1.036-0.839-1.875-1.875-1.875-1.036 0-1.875 0.839-1.875 1.875 0 5.523 4.477 10 10 10z" fill="#ffffff" />
</svg>
