<?xml version="1.0" encoding="utf-8"?>
<!-- Generated by IcoMoon.io -->
<!DOCTYPE svg PUBLIC "-//W3C//DTD SVG 1.1//EN" "http://www.w3.org/Graphics/SVG/1.1/DTD/svg11.dtd">
<svg version="1.1" xmlns="http://www.w3.org/2000/svg" xmlns:xlink="http://www.w3.org/1999/xlink" width="20" height="20" viewBox="0 0 20 20">
	<path d="M7.5 2.5c0-1.381 1.119-2.5 2.5-2.5s2.5 1.119 2.5 2.5c0 1.381-1.119 2.5-2.5 2.5-1.381 0-2.5-1.119-2.5-2.5zM12.803 4.697c0-1.381 1.119-2.5 2.5-2.5s2.5 1.119 2.5 2.5c0 1.381-1.119 2.5-2.5 2.5-1.381 0-2.5-1.119-2.5-2.5zM16.25 10c0-0.69 0.56-1.25 1.25-1.25s1.25 0.56 1.25 1.25c0 0.69-0.56 1.25-1.25 1.25-0.69 0-1.25-0.56-1.25-1.25zM14.053 15.303c0-0.69 0.56-1.25 1.25-1.25s1.25 0.56 1.25 1.25c0 0.69-0.56 1.25-1.25 1.25-0.69 0-1.25-0.56-1.25-1.25zM8.75 17.5c0 0 0 0 0 0 0-0.69 0.56-1.25 1.25-1.25 0.69 0 1.25 0.56 1.25 1.25 0 0 0 0 0 0 0 0.69-0.56 1.25-1.25 1.25-0.69 0-1.25-0.56-1.25-1.25zM3.447 15.303c0 0 0 0 0 0 0-0.69 0.56-1.25 1.25-1.25 0.69 0 1.25 0.56 1.25 1.25 0 0 0 0 0 0 0 0.69-0.56 1.25-1.25 1.25-0.69 0-1.25-0.56-1.25-1.25zM2.822 4.697c0 0 0 0 0 0 0-1.036 0.839-1.875 1.875-1.875 1.036 0 1.875 0.839 1.875 1.875 0 0 0 0 0 0 0 1.036-0.839 1.875-1.875 1.875-1.036 0-1.875-0.839-1.875-1.875zM1.094 10c0-0.777 0.63-1.406 1.406-1.406s1.406 0.63 1.406 1.406c0 0.777-0.63 1.406-1.406 1.406-0.777 0-1.406-0.63-1.406-1.406z" fill="#ffffff" />
</svg>
