<?xml version="1.0" encoding="utf-8"?>
<!-- Generated by IcoMoon.io -->
<!DOCTYPE svg PUBLIC "-//W3C//DTD SVG 1.1//EN" "http://www.w3.org/Graphics/SVG/1.1/DTD/svg11.dtd">
<svg version="1.1" xmlns="http://www.w3.org/2000/svg" xmlns:xlink="http://www.w3.org/1999/xlink" width="20" height="20" viewBox="0 0 20 20">
	<path d="M20 10c-0.025-1.306-0.308-2.608-0.832-3.798-0.522-1.191-1.279-2.271-2.208-3.162-0.929-0.893-2.030-1.598-3.222-2.064-1.191-0.467-2.473-0.69-3.738-0.663-1.266 0.025-2.526 0.3-3.678 0.808-1.153 0.506-2.198 1.24-3.061 2.14-0.864 0.9-1.546 1.967-1.996 3.121-0.451 1.154-0.667 2.393-0.64 3.619 0.025 1.226 0.292 2.444 0.784 3.559 0.49 1.115 1.201 2.126 2.072 2.96 0.871 0.835 1.904 1.494 3.020 1.928 1.116 0.436 2.313 0.643 3.499 0.616 1.186-0.025 2.363-0.284 3.439-0.76 1.077-0.474 2.053-1.162 2.859-2.005 0.806-0.843 1.442-1.841 1.86-2.919 0.255-0.653 0.427-1.336 0.518-2.027 0.024 0.001 0.049 0.002 0.073 0.002 0.69 0 1.25-0.56 1.25-1.25 0-0.035-0.002-0.070-0.005-0.104h0.005zM18.014 13.319c-0.458 1.039-1.123 1.98-1.937 2.757-0.814 0.778-1.777 1.39-2.817 1.793-1.040 0.404-2.154 0.595-3.259 0.568-1.106-0.025-2.199-0.268-3.2-0.712-1.001-0.443-1.908-1.084-2.656-1.869-0.749-0.785-1.338-1.714-1.725-2.716-0.388-1.002-0.571-2.074-0.544-3.14 0.025-1.065 0.26-2.117 0.689-3.080 0.427-0.963 1.045-1.835 1.802-2.555 0.756-0.72 1.651-1.287 2.615-1.657 0.964-0.372 1.995-0.547 3.020-0.52 1.025 0.026 2.036 0.252 2.96 0.665 0.925 0.411 1.763 1.006 2.454 1.734 0.691 0.728 1.235 1.588 1.59 2.513 0.356 0.926 0.523 1.915 0.497 2.9h0.005c-0.003 0.034-0.005 0.069-0.005 0.104 0 0.645 0.488 1.175 1.115 1.243-0.122 0.68-0.323 1.344-0.601 1.972z" fill="#ffffff" />
</svg>
