<?xml version="1.0" encoding="utf-8"?>
<!-- Generated by IcoMoon.io -->
<!DOCTYPE svg PUBLIC "-//W3C//DTD SVG 1.1//EN" "http://www.w3.org/Graphics/SVG/1.1/DTD/svg11.dtd">
<svg version="1.1" xmlns="http://www.w3.org/2000/svg" xmlns:xlink="http://www.w3.org/1999/xlink" width="20" height="20" viewBox="0 0 20 20">
	<path d="M20 7.5h-7.5l2.803-2.803c-1.417-1.417-3.3-2.197-5.303-2.197-2.003 0-3.887 0.78-5.303 2.197-1.417 1.417-2.197 3.3-2.197 5.303 0 2.003 0.78 3.887 2.197 5.303 1.417 1.417 3.3 2.197 5.303 2.197 2.003 0 3.887-0.78 5.303-2.197 0.118-0.118 0.232-0.24 0.341-0.365l1.881 1.646c-1.833 2.093-4.525 3.415-7.525 3.415-5.523 0-10-4.477-10-10 0-5.523 4.477-10 10-10 2.761 0 5.261 1.12 7.071 2.929l2.929-2.929v7.5z" fill="#ffffff" />
</svg>
