<?xml version="1.0" encoding="utf-8"?>
<!-- Generated by IcoMoon.io -->
<!DOCTYPE svg PUBLIC "-//W3C//DTD SVG 1.1//EN" "http://www.w3.org/Graphics/SVG/1.1/DTD/svg11.dtd">
<svg version="1.1" xmlns="http://www.w3.org/2000/svg" xmlns:xlink="http://www.w3.org/1999/xlink" width="20" height="20" viewBox="0 0 20 20">
	<path d="M10 1.2c-4.86 0-8.8 3.94-8.8 8.8 0 2.222 0.823 4.251 2.182 5.799 1.376-1.376 3.262-2.149 5.427-2.079 2.761 0.089 4.94 1.397 6.19 3.523 2.296-1.588 3.801-4.239 3.801-7.243 0-4.86-3.941-8.8-8.8-8.8zM14.303 13.137c-0.155 0.257-0.487 0.336-0.742 0.181-2.038-1.245-4.602-1.526-7.622-0.837-0.29 0.067-0.581-0.115-0.646-0.407-0.067-0.29 0.114-0.58 0.406-0.646 3.304-0.755 6.139-0.429 8.425 0.966 0.254 0.156 0.335 0.488 0.179 0.743zM15.363 10.641c-0.195 0.318-0.611 0.417-0.929 0.221-2.33-1.432-5.886-1.847-8.644-1.010-0.358 0.108-0.736-0.094-0.844-0.45-0.108-0.358 0.094-0.736 0.45-0.844 3.151-0.957 7.068-0.494 9.746 1.152 0.318 0.197 0.419 0.611 0.221 0.931zM15.455 8.055c-2.795-1.662-7.408-1.813-10.077-1.004-0.428 0.131-0.881-0.112-1.013-0.54-0.129-0.429 0.113-0.883 0.542-1.012 3.065-0.931 8.158-0.751 11.376 1.16 0.386 0.229 0.513 0.727 0.284 1.112-0.229 0.385-0.725 0.511-1.112 0.284zM8.752 16.351c-1.238-0.040-2.269 0.443-3.021 1.346 1.264 0.702 2.719 1.103 4.269 1.103 0.747 0 1.473-0.093 2.165-0.269-0.664-1.362-1.821-2.129-3.413-2.18z" fill="#ffffff" />
</svg>
