<?xml version="1.0" encoding="utf-8"?>
<!-- Generated by IcoMoon.io -->
<!DOCTYPE svg PUBLIC "-//W3C//DTD SVG 1.1//EN" "http://www.w3.org/Graphics/SVG/1.1/DTD/svg11.dtd">
<svg version="1.1" xmlns="http://www.w3.org/2000/svg" xmlns:xlink="http://www.w3.org/1999/xlink" width="20" height="20" viewBox="0 0 20 20">
	<path d="M10 0.4c-5.302 0-9.6 4.298-9.6 9.6 0 2.424 0.898 4.638 2.38 6.326 1.502-1.502 3.559-2.345 5.92-2.269 3.012 0.098 5.39 1.524 6.753 3.844 2.505-1.732 4.147-4.624 4.147-7.901 0-5.302-4.298-9.6-9.6-9.6zM14.693 13.422c-0.169 0.28-0.531 0.366-0.81 0.197-2.224-1.358-5.020-1.665-8.314-0.913-0.316 0.073-0.634-0.125-0.705-0.444-0.073-0.315 0.124-0.633 0.442-0.705 3.605-0.824 6.697-0.468 9.191 1.054 0.278 0.17 0.367 0.533 0.196 0.811zM15.852 10.699c-0.213 0.348-0.668 0.456-1.014 0.242-2.544-1.563-6.422-2.016-9.431-1.103-0.391 0.118-0.803-0.103-0.92-0.491-0.118-0.391 0.102-0.803 0.491-0.92 3.437-1.045 7.71-0.539 10.632 1.256 0.347 0.216 0.456 0.668 0.242 1.016zM15.951 7.878c-3.050-1.813-8.081-1.978-10.993-1.095-0.468 0.143-0.962-0.121-1.104-0.589-0.141-0.468 0.123-0.964 0.589-1.104 3.344-1.015 8.9-0.819 12.411 1.266 0.421 0.25 0.56 0.793 0.311 1.214-0.251 0.419-0.793 0.557-1.214 0.308zM8.639 16.928c-1.351-0.043-2.475 0.483-3.296 1.468 1.379 0.767 2.967 1.204 4.657 1.204 0.815 0 1.606-0.102 2.362-0.293-0.724-1.487-1.987-2.323-3.723-2.379z" fill="#ffffff" />
</svg>
