<?xml version="1.0" encoding="utf-8"?>
<!-- Generated by IcoMoon.io -->
<!DOCTYPE svg PUBLIC "-//W3C//DTD SVG 1.1//EN" "http://www.w3.org/Graphics/SVG/1.1/DTD/svg11.dtd">
<svg version="1.1" xmlns="http://www.w3.org/2000/svg" xmlns:xlink="http://www.w3.org/1999/xlink" width="20" height="20" viewBox="0 0 20 20">
	<path d="M19.953 11.534l-2.501-9.379c-0.151-0.533-0.646-0.906-1.201-0.906h-12.5c-0.556 0-1.050 0.373-1.201 0.906l-2.501 9.379c-0.032 0.114-0.048 0.228-0.048 0.341v4.375c0 1.381 1.119 2.5 2.5 2.5h15c1.381 0 2.5-1.119 2.5-2.5v-4.375c0-0.113-0.016-0.227-0.047-0.341zM18.75 16.25c0 0.689-0.561 1.25-1.25 1.25h-15c-0.689 0-1.25-0.561-1.25-1.25v-4.375l2.501-9.376h12.498l2.501 9.376v4.375zM14.839 3.75h-9.678c-0.283 0-0.531 0.191-0.604 0.464l-2.153 7.5c-0.049 0.188-0.010 0.388 0.109 0.542s0.301 0.244 0.495 0.244h2.855l0.904 1.809c0.213 0.423 0.645 0.691 1.119 0.691h4.229c0.474 0 0.906-0.268 1.118-0.691l0.904-1.809h2.855c0.194 0 0.377-0.091 0.496-0.244s0.157-0.354 0.109-0.542l-2.153-7.5c-0.073-0.274-0.321-0.464-0.604-0.464zM15.176 11.25h-1.039c-0.476 0-0.904 0.264-1.118 0.691l-0.904 1.809h-4.229l-0.904-1.809c-0.214-0.427-0.642-0.691-1.118-0.691h-2.529l1.827-6.875h9.677l1.828 6.875h-1.491z" fill="#ffffff" />
</svg>
