<?xml version="1.0" encoding="utf-8"?>
<!-- Generated by IcoMoon.io -->
<!DOCTYPE svg PUBLIC "-//W3C//DTD SVG 1.1//EN" "http://www.w3.org/Graphics/SVG/1.1/DTD/svg11.dtd">
<svg version="1.1" xmlns="http://www.w3.org/2000/svg" xmlns:xlink="http://www.w3.org/1999/xlink" width="20" height="20" viewBox="0 0 20 20">
	<path d="M19.926 7.848c-0.173-0.499-0.617-0.865-1.152-0.944l-5.204-0.774-2.262-4.696c-0.238-0.493-0.748-0.809-1.308-0.809s-1.069 0.316-1.307 0.809l-2.262 4.696-5.204 0.774c-0.534 0.079-0.979 0.445-1.151 0.944-0.172 0.501-0.042 1.052 0.336 1.428l3.814 3.807-0.884 5.282c-0.090 0.532 0.141 1.066 0.592 1.377 0.248 0.171 0.54 0.258 0.832 0.258 0.24 0 0.481-0.059 0.699-0.176l4.537-2.442 4.537 2.442c0.218 0.117 0.459 0.176 0.698 0.176 0.292 0 0.584-0.087 0.832-0.258 0.452-0.311 0.681-0.845 0.592-1.377l-0.885-5.282 3.815-3.807c0.377-0.377 0.506-0.928 0.336-1.428zM14.742 12.102c-0.32 0.319-0.465 0.768-0.392 1.209l0.885 5.282-4.537-2.441c-0.217-0.117-0.457-0.176-0.699-0.176-0.24 0-0.481 0.059-0.698 0.176l-4.537 2.441 0.885-5.282c0.074-0.441-0.071-0.89-0.391-1.209l-3.814-3.807 5.204-0.775c0.476-0.071 0.885-0.368 1.089-0.793l2.263-4.695 2.263 4.696c0.205 0.424 0.614 0.721 1.089 0.793l5.205 0.775-3.814 3.807z" fill="#ffffff" />
</svg>
