<?xml version="1.0" encoding="utf-8"?>
<!-- Generated by IcoMoon.io -->
<!DOCTYPE svg PUBLIC "-//W3C//DTD SVG 1.1//EN" "http://www.w3.org/Graphics/SVG/1.1/DTD/svg11.dtd">
<svg version="1.1" xmlns="http://www.w3.org/2000/svg" xmlns:xlink="http://www.w3.org/1999/xlink" width="20" height="20" viewBox="0 0 20 20">
	<path d="M2.5 17.5h17.5v2.5h-20v-20h2.5zM5.625 16.25c-1.036 0-1.875-0.839-1.875-1.875s0.839-1.875 1.875-1.875c0.055 0 0.11 0.003 0.164 0.008l2.015-3.359c-0.192-0.294-0.304-0.646-0.304-1.023 0-1.036 0.839-1.875 1.875-1.875 1.036 0 1.875 0.839 1.875 1.875 0 0.378-0.112 0.729-0.304 1.023l2.015 3.359c0.054-0.005 0.109-0.008 0.164-0.008 0.042 0 0.083 0.002 0.124 0.004l3.327-5.823c-0.206-0.301-0.326-0.665-0.326-1.057 0-1.036 0.839-1.875 1.875-1.875 1.036 0 1.875 0.839 1.875 1.875 0 1.036-0.839 1.875-1.875 1.875-0.042 0-0.083-0.002-0.124-0.005l-3.327 5.823c0.206 0.301 0.326 0.665 0.326 1.057 0 1.036-0.839 1.875-1.875 1.875-1.036 0-1.875-0.839-1.875-1.875 0-0.378 0.112-0.729 0.304-1.023l-2.015-3.359c-0.054 0.005-0.109 0.008-0.164 0.008s-0.11-0.003-0.164-0.008l-2.015 3.359c0.192 0.294 0.304 0.646 0.304 1.023 0 1.036-0.839 1.875-1.875 1.875z" fill="#ffffff" />
</svg>
