<?xml version="1.0" encoding="utf-8"?>
<!-- Generated by IcoMoon.io -->
<!DOCTYPE svg PUBLIC "-//W3C//DTD SVG 1.1//EN" "http://www.w3.org/Graphics/SVG/1.1/DTD/svg11.dtd">
<svg version="1.1" xmlns="http://www.w3.org/2000/svg" xmlns:xlink="http://www.w3.org/1999/xlink" width="20" height="20" viewBox="0 0 20 20">
	<path d="M5.936 16.328c0.53 0 1.051-0.257 1.367-0.731 0.503-0.754 0.299-1.773-0.455-2.275l-1.291-0.86c0.221-0.060 0.453-0.093 0.693-0.093 1.453 0 2.631 1.178 2.631 2.631 0 1.453-1.178 2.631-2.631 2.631-1.414 0-2.567-1.116-2.628-2.515l1.405 0.937c0.28 0.186 0.596 0.276 0.909 0.276zM16.667 0c1.834 0 3.333 1.5 3.333 3.334v13.333c0 1.835-1.5 3.334-3.333 3.334h-13.333c-1.834 0-3.334-1.499-3.334-3.334v-3.965l2.37 1.58c-0.228 1.234 0.136 2.555 1.090 3.51 1.541 1.541 4.040 1.541 5.581 0 0.947-0.947 1.312-2.254 1.095-3.48l4.864-4.355c0.903-0.13 1.774-0.542 2.469-1.237 1.709-1.709 1.709-4.479 0-6.187-1.709-1.709-4.479-1.709-6.187 0-0.695 0.695-1.107 1.565-1.237 2.469v0l-3.998 6.059c-0.622 0.032-1.238 0.21-1.792 0.535l-4.255-2.837v-5.424c0-1.834 1.5-3.334 3.334-3.334h13.333zM17.5 5.625c0-1.726-1.399-3.125-3.125-3.125s-3.125 1.399-3.125 3.125 1.399 3.125 3.125 3.125 3.125-1.399 3.125-3.125zM12.5 5.625c0-1.036 0.839-1.875 1.875-1.875s1.875 0.839 1.875 1.875-0.839 1.875-1.875 1.875-1.875-0.839-1.875-1.875z" fill="#ffffff" />
</svg>
