<?xml version="1.0" encoding="utf-8"?>
<!-- Generated by IcoMoon.io -->
<!DOCTYPE svg PUBLIC "-//W3C//DTD SVG 1.1//EN" "http://www.w3.org/Graphics/SVG/1.1/DTD/svg11.dtd">
<svg version="1.1" xmlns="http://www.w3.org/2000/svg" xmlns:xlink="http://www.w3.org/1999/xlink" width="20" height="20" viewBox="0 0 20 20">
	<path d="M13.75 5.625c0-1.036 0.839-1.875 1.875-1.875s1.875 0.839 1.875 1.875c0 1.036-0.839 1.875-1.875 1.875-1.036 0-1.875-0.839-1.875-1.875zM18.719 2.531c-1.709-1.709-4.479-1.709-6.187 0-0.695 0.695-1.107 1.565-1.237 2.469v0l-3.998 6.059c-0.537 0.028-1.070 0.164-1.562 0.41l-3.084-2.411c-0.714-0.558-1.745-0.432-2.303 0.282-0.558 0.714-0.432 1.745 0.282 2.303l3.046 2.381c-0.331 1.304 0.013 2.745 1.034 3.766 1.541 1.541 4.040 1.541 5.581 0 0.947-0.947 1.312-2.254 1.095-3.48l4.864-4.355c0.903-0.13 1.774-0.542 2.469-1.237 1.709-1.709 1.709-4.479 0-6.187zM7.5 17.631c-1.453 0-2.631-1.178-2.631-2.631 0-0.014 0.001-0.028 0.001-0.041l1.307 1.022c0.3 0.234 0.656 0.348 1.009 0.348 0.488 0 0.97-0.216 1.294-0.63 0.558-0.714 0.432-1.745-0.282-2.303l-1.24-0.969c0.175-0.037 0.356-0.056 0.542-0.056 1.453 0 2.631 1.178 2.631 2.631s-1.178 2.631-2.631 2.631zM15.625 8.75c-1.726 0-3.125-1.399-3.125-3.125s1.399-3.125 3.125-3.125 3.125 1.399 3.125 3.125-1.399 3.125-3.125 3.125z" fill="#ffffff" />
</svg>
