<?xml version="1.0" encoding="utf-8"?>
<!-- Generated by IcoMoon.io -->
<!DOCTYPE svg PUBLIC "-//W3C//DTD SVG 1.1//EN" "http://www.w3.org/Graphics/SVG/1.1/DTD/svg11.dtd">
<svg version="1.1" xmlns="http://www.w3.org/2000/svg" xmlns:xlink="http://www.w3.org/1999/xlink" width="20" height="20" viewBox="0 0 20 20">
	<path d="M10 3.774v-1.274h2.5v-1.25c0-0.69-0.56-1.25-1.25-1.25h-3.75c-0.69 0-1.25 0.56-1.25 1.25v1.25h2.5v1.274c-4.195 0.319-7.5 3.824-7.5 8.101 0 4.487 3.638 8.125 8.125 8.125 4.487 0 8.125-3.638 8.125-8.125 0-4.277-3.305-7.782-7.5-8.101zM13.794 16.294c-1.181 1.18-2.75 1.831-4.419 1.831s-3.239-0.65-4.419-1.831c-1.18-1.18-1.831-2.75-1.831-4.419s0.65-3.239 1.831-4.419c1.134-1.134 2.626-1.778 4.221-1.827l-0.423 6.133c-0.036 0.513 0.243 0.738 0.622 0.738s0.658-0.225 0.622-0.738l-0.423-6.133c1.595 0.049 3.087 0.694 4.221 1.827 1.18 1.18 1.831 2.75 1.831 4.419s-0.65 3.239-1.831 4.419z" fill="#ffffff" />
</svg>
