<?xml version="1.0" encoding="utf-8"?>
<!-- Generated by IcoMoon.io -->
<!DOCTYPE svg PUBLIC "-//W3C//DTD SVG 1.1//EN" "http://www.w3.org/Graphics/SVG/1.1/DTD/svg11.dtd">
<svg version="1.1" xmlns="http://www.w3.org/2000/svg" xmlns:xlink="http://www.w3.org/1999/xlink" width="20" height="20" viewBox="0 0 20 20">
	<path d="M18.75 17.5h-1.25v-2.5c0-0.69-0.559-1.25-1.25-1.25s-1.25 0.56-1.25 1.25v2.5h-10v-2.5c0-0.69-0.559-1.25-1.25-1.25s-1.25 0.56-1.25 1.25v2.5h-1.25c-0.691 0-1.25 0.56-1.25 1.25s0.559 1.25 1.25 1.25h17.5c0.691 0 1.25-0.56 1.25-1.25s-0.559-1.25-1.25-1.25zM18.75 0h-17.5c-0.691 0-1.25 0.56-1.25 1.25v7.5c0 1.381 1.119 2.5 2.5 2.5s2.5-1.119 2.5-2.5c0 1.381 1.119 2.5 2.5 2.5s2.5-1.119 2.5-2.5c0 1.381 1.119 2.5 2.5 2.5s2.5-1.119 2.5-2.5c0 1.381 1.119 2.5 2.5 2.5s2.5-1.119 2.5-2.5v-7.5c0-0.69-0.559-1.25-1.25-1.25z" fill="#ffffff" />
</svg>
