<?xml version="1.0" encoding="utf-8"?>
<!-- Generated by IcoMoon.io -->
<!DOCTYPE svg PUBLIC "-//W3C//DTD SVG 1.1//EN" "http://www.w3.org/Graphics/SVG/1.1/DTD/svg11.dtd">
<svg version="1.1" xmlns="http://www.w3.org/2000/svg" xmlns:xlink="http://www.w3.org/1999/xlink" width="20" height="20" viewBox="0 0 20 20">
	<path d="M20 10v1.25h-4.58c0.537 0.752 0.83 1.615 0.83 2.5 0 1.384-0.716 2.715-1.964 3.652-1.159 0.869-2.681 1.348-4.286 1.348-1.604 0-3.126-0.479-4.286-1.348-1.248-0.936-1.964-2.267-1.964-3.652h2.5c0 1.355 1.717 2.5 3.75 2.5s3.75-1.145 3.75-2.5c0-1.355-1.717-2.5-3.75-2.5h-10v-1.25h5.85c-0.046-0.032-0.091-0.065-0.136-0.098-1.248-0.936-1.964-2.267-1.964-3.652 0-1.384 0.716-2.715 1.964-3.652 1.159-0.869 2.681-1.348 4.286-1.348 1.604 0 3.126 0.479 4.286 1.348 1.248 0.936 1.964 2.267 1.964 3.652h-2.5c0-1.355-1.717-2.5-3.75-2.5-2.033 0-3.75 1.145-3.75 2.5 0 1.355 1.717 2.5 3.75 2.5 1.543 0 3.009 0.443 4.15 1.25h5.85z" fill="#ffffff" />
</svg>
