<?xml version="1.0" encoding="utf-8"?>
<!-- Generated by IcoMoon.io -->
<!DOCTYPE svg PUBLIC "-//W3C//DTD SVG 1.1//EN" "http://www.w3.org/Graphics/SVG/1.1/DTD/svg11.dtd">
<svg version="1.1" xmlns="http://www.w3.org/2000/svg" xmlns:xlink="http://www.w3.org/1999/xlink" width="30" height="30" viewBox="0 0 30 30">
	<path d="M30 15v1.875h-6.87c0.806 1.128 1.245 2.423 1.245 3.75 0 2.077-1.074 4.073-2.947 5.477-1.739 1.304-4.022 2.023-6.428 2.023-2.406 0-4.689-0.718-6.428-2.023-1.873-1.404-2.947-3.401-2.947-5.477h3.75c0 2.033 2.576 3.75 5.625 3.75 3.049 0 5.625-1.717 5.625-3.75 0-2.033-2.576-3.75-5.625-3.75h-15v-1.875h8.775c-0.068-0.048-0.136-0.097-0.203-0.148-1.873-1.404-2.947-3.401-2.947-5.477 0-2.077 1.074-4.073 2.947-5.477 1.739-1.304 4.022-2.023 6.428-2.023 2.406 0 4.689 0.718 6.428 2.023 1.873 1.404 2.947 3.401 2.947 5.477h-3.75c0-2.033-2.576-3.75-5.625-3.75-3.049 0-5.625 1.717-5.625 3.75 0 2.033 2.576 3.75 5.625 3.75 2.314 0 4.513 0.664 6.225 1.875h8.775z" fill="#ffffff" />
</svg>
