<?xml version="1.0" encoding="utf-8"?>
<!-- Generated by IcoMoon.io -->
<!DOCTYPE svg PUBLIC "-//W3C//DTD SVG 1.1//EN" "http://www.w3.org/Graphics/SVG/1.1/DTD/svg11.dtd">
<svg version="1.1" xmlns="http://www.w3.org/2000/svg" xmlns:xlink="http://www.w3.org/1999/xlink" width="20" height="20" viewBox="0 0 20 20">
	<path d="M20 5c0-0.879-0.598-1.63-1.454-1.827l-8.133-1.877c-0.136-0.031-0.275-0.046-0.413-0.046s-0.277 0.015-0.422 0.048l-8.124 1.875c-0.856 0.197-1.454 0.949-1.454 1.827s0.598 1.63 1.453 1.827l1.672 0.386v5.287c0 1.659 1.899 3.125 6.875 3.125s6.875-1.466 6.875-3.125v-5.287l1.671-0.386c0.856-0.198 1.454-0.949 1.454-1.827zM15.625 12.5c0 0.691-1.875 1.875-5.625 1.875s-5.625-1.184-5.625-1.875v-4.998l5.211 1.202c0.136 0.031 0.276 0.046 0.414 0.046s0.277-0.015 0.421-0.047l5.204-1.201v4.998zM10.141 7.484c-0.047 0.010-0.094 0.016-0.141 0.016s-0.094-0.006-0.141-0.016l-8.125-1.875c-0.284-0.066-0.484-0.318-0.484-0.609s0.201-0.544 0.484-0.609l8.125-1.875c0.046-0.010 0.093-0.016 0.141-0.016s0.094 0.006 0.141 0.016l8.125 1.875c0.283 0.066 0.484 0.318 0.484 0.609s-0.201 0.544-0.484 0.609l-8.125 1.875zM18.125 8.125c0-0.346 0.279-0.625 0.625-0.625 0.345 0 0.625 0.279 0.625 0.625v5.625c0 0.346-0.28 0.625-0.625 0.625-0.346 0-0.625-0.279-0.625-0.625v-5.625zM18.75 15c0.69 0 1.25 1.81 1.25 2.5s-0.56 1.25-1.25 1.25c-0.691 0-1.25-0.56-1.25-1.25 0-0.69 0.559-2.5 1.25-2.5z" fill="#ffffff" />
</svg>
