<?xml version="1.0" encoding="utf-8"?>
<!-- Generated by IcoMoon.io -->
<!DOCTYPE svg PUBLIC "-//W3C//DTD SVG 1.1//EN" "http://www.w3.org/Graphics/SVG/1.1/DTD/svg11.dtd">
<svg version="1.1" xmlns="http://www.w3.org/2000/svg" xmlns:xlink="http://www.w3.org/1999/xlink" width="20" height="20" viewBox="0 0 20 20">
	<path d="M10 0c-5.523 0-10 4.477-10 10s4.477 10 10 10 10-4.477 10-10-4.477-10-10-10zM10 5c-0.689 0-1.25 0.561-1.25 1.25v5c0 2.068-1.682 3.75-3.75 3.75s-3.75-1.682-3.75-3.75v-2.5h2.5v2.5c0 0.689 0.561 1.25 1.25 1.25s1.25-0.561 1.25-1.25v-5c0-2.068 1.682-3.75 3.75-3.75s3.75 1.682 3.75 3.477v1.211l-1.602 0.469-0.898-0.469v-1.211c0-0.416-0.561-0.977-1.25-0.977zM15 15c-2.068 0-3.75-1.682-3.75-4.023v-2.422l0.898 0.469 1.602-0.469v2.422c0 0.963 0.561 1.523 1.25 1.523s1.25-0.561 1.25-1.25v-2.5h2.5v2.5c0 2.068-1.682 3.75-3.75 3.75z" fill="#ffffff" />
</svg>
