<?xml version="1.0" encoding="utf-8"?>
<!-- Generated by IcoMoon.io -->
<!DOCTYPE svg PUBLIC "-//W3C//DTD SVG 1.1//EN" "http://www.w3.org/Graphics/SVG/1.1/DTD/svg11.dtd">
<svg version="1.1" xmlns="http://www.w3.org/2000/svg" xmlns:xlink="http://www.w3.org/1999/xlink" width="20" height="20" viewBox="0 0 20 20">
	<path d="M11.052 8.060l1.364 0.659 2.059-0.659v-1.195c0-2.462-2.007-4.465-4.475-4.465-2.467 0-4.474 2.003-4.474 4.465v6.27c0 0.578-0.472 1.049-1.051 1.049s-1.051-0.471-1.051-1.049v-2.625h-3.424v2.625c0 2.462 2.007 4.465 4.475 4.465s4.475-2.003 4.475-4.465v-6.27c0-0.578 0.472-1.049 1.051-1.049 0.58 0 1.052 0.471 1.052 1.049v1.195zM16.577 10.51v2.625c0 0.578-0.472 1.049-1.051 1.049-0.58 0-1.052-0.471-1.052-1.049v-2.678l-2.059 0.659-1.364-0.659v2.678c0 2.462 2.007 4.465 4.475 4.465 2.467 0 4.474-2.003 4.474-4.465v-2.625h-3.423z" fill="#ffffff" />
</svg>
