<?xml version="1.0" encoding="utf-8"?>
<!-- Generated by IcoMoon.io -->
<!DOCTYPE svg PUBLIC "-//W3C//DTD SVG 1.1//EN" "http://www.w3.org/Graphics/SVG/1.1/DTD/svg11.dtd">
<svg version="1.1" xmlns="http://www.w3.org/2000/svg" xmlns:xlink="http://www.w3.org/1999/xlink" width="20" height="20" viewBox="0 0 20 20">
	<path d="M10 0.4c-5.302 0-9.6 4.298-9.6 9.6s4.298 9.6 9.6 9.6 9.6-4.298 9.6-9.6-4.298-9.6-9.6-9.6zM10 7.785c-0.293 0-0.531 0.238-0.531 0.53v3.168c0 1.243-1.014 2.256-2.261 2.256-1.246 0-2.261-1.013-2.261-2.256v-1.326h1.729v1.326c0 0.292 0.238 0.529 0.531 0.529s0.531-0.237 0.531-0.529v-3.168c0.001-1.244 1.016-2.255 2.262-2.255s2.261 1.012 2.261 2.256v0.604l-1.040 0.333-0.689-0.333v-0.605c-0.001-0.292-0.239-0.53-0.532-0.53zM15.053 11.483c0 1.243-1.015 2.256-2.261 2.256-1.247 0-2.261-1.013-2.261-2.256v-1.353l0.689 0.333 1.040-0.333v1.354c0 0.292 0.238 0.529 0.531 0.529s0.53-0.237 0.53-0.529v-1.326h1.73v1.325z" fill="#ffffff" />
</svg>
