<?xml version="1.0" encoding="utf-8"?>
<!-- Generated by IcoMoon.io -->
<!DOCTYPE svg PUBLIC "-//W3C//DTD SVG 1.1//EN" "http://www.w3.org/Graphics/SVG/1.1/DTD/svg11.dtd">
<svg version="1.1" xmlns="http://www.w3.org/2000/svg" xmlns:xlink="http://www.w3.org/1999/xlink" width="20" height="20" viewBox="0 0 20 20">
	<path d="M18 4h-1v15h1c1.1 0 2-0.9 2-2v-11c0-1.1-0.9-2-2-2zM0 6v11c0 1.1 0.9 2 2 2h1v-15h-1c-1.1 0-2 0.9-2 2zM13.4 1.907c-0.681-0.317-1.768-0.907-3.4-0.907s-2.719 0.59-3.4 0.907v2.093h-2.2v15h11.2v-15h-2.2v-2.093zM12.2 4h-4.4v-1.335c0.533-0.23 1.298-0.465 2.2-0.465s1.666 0.234 2.2 0.464v1.336z" fill="#ffffff" />
</svg>
