<?xml version="1.0" encoding="utf-8"?>
<!-- Generated by IcoMoon.io -->
<!DOCTYPE svg PUBLIC "-//W3C//DTD SVG 1.1//EN" "http://www.w3.org/Graphics/SVG/1.1/DTD/svg11.dtd">
<svg version="1.1" xmlns="http://www.w3.org/2000/svg" xmlns:xlink="http://www.w3.org/1999/xlink" width="20" height="20" viewBox="0 0 20 20">
	<path d="M10 6.8c-1.774 0-3.2 1.425-3.2 3.2s1.425 3.2 3.2 3.2 3.2-1.425 3.2-3.2-1.426-3.2-3.2-3.2zM10 12.051c-1.133 0-2.050-0.918-2.050-2.050 0-1.133 0.917-2.050 2.050-2.050s2.050 0.917 2.050 2.050c0 1.132-0.917 2.050-2.050 2.050zM4 9.2c-0.552 0-1 0.358-1 0.8s0.448 0.8 1 0.8 0.98-0.358 0.98-0.8-0.428-0.8-0.98-0.8zM14.907 5.093c-0.312-0.312-0.882-0.249-1.272 0.141-0.391 0.391-0.454 0.96-0.142 1.273s0.882 0.249 1.272-0.141c0.391-0.39 0.455-0.96 0.142-1.273zM16 9.2c-0.553 0-0.98 0.358-0.98 0.8s0.428 0.8 0.98 0.8 1-0.358 1-0.8-0.447-0.8-1-0.8zM10 15c-0.441 0-0.8 0.448-0.8 1 0 0.553 0.358 1 0.8 1s0.8-0.447 0.8-1c0-0.552-0.359-1-0.8-1zM5.234 13.734c-0.39 0.391-0.454 0.961-0.142 1.273s0.883 0.248 1.273-0.142c0.391-0.391 0.454-0.961 0.142-1.273-0.312-0.311-0.882-0.248-1.273 0.142zM5.043 5.143c-0.313 0.313-0.249 0.882 0.142 1.273 0.391 0.39 0.96 0.454 1.273 0.141s0.249-0.882-0.142-1.272c-0.39-0.391-0.961-0.454-1.273-0.142zM13.685 14.816c0.391 0.39 0.96 0.453 1.272 0.141s0.249-0.882-0.141-1.272c-0.391-0.391-0.961-0.454-1.273-0.142s-0.249 0.883 0.142 1.273zM10 5c0.441 0 0.8-0.448 0.8-1s-0.359-1-0.8-1-0.8 0.448-0.8 1 0.359 1 0.8 1z" fill="#ffffff" />
</svg>
