<?xml version="1.0" encoding="utf-8"?>
<!-- Generated by IcoMoon.io -->
<!DOCTYPE svg PUBLIC "-//W3C//DTD SVG 1.1//EN" "http://www.w3.org/Graphics/SVG/1.1/DTD/svg11.dtd">
<svg version="1.1" xmlns="http://www.w3.org/2000/svg" xmlns:xlink="http://www.w3.org/1999/xlink" width="20" height="20" viewBox="0 0 20 20">
	<path d="M19 9.2c-0.182 0-0.799 0-0.98 0-0.552 0-1 0.358-1 0.8s0.448 0.8 1 0.8c0.182 0 0.799 0 0.98 0 0.553 0 1-0.358 1-0.8s-0.447-0.8-1-0.8zM10 4.5c-3.050 0-5.5 2.45-5.5 5.5 0 3.051 2.45 5.5 5.5 5.5 3.051 0 5.5-2.449 5.5-5.5 0-3.050-2.449-5.5-5.5-5.5zM10 14c-2.21 0-4-1.79-4-4 0-2.209 1.79-4 4-4s4 1.791 4 4c0 2.21-1.79 4-4 4zM2.979 10c0-0.442-0.427-0.8-0.979-0.8-0.185 0-0.816 0-1 0-0.552 0-1 0.358-1 0.8s0.448 0.8 1 0.8c0.184 0 0.815 0 1 0 0.552 0 0.979-0.358 0.979-0.8zM10 3c0.441 0 0.8-0.448 0.8-1 0-0.183 0-0.817 0-1 0-0.552-0.358-1-0.8-1s-0.8 0.448-0.8 1c0 0.183 0 0.817 0 1 0 0.552 0.359 1 0.8 1zM10 17c-0.441 0-0.8 0.448-0.8 1 0 0.183 0 0.817 0 1 0 0.553 0.358 1 0.8 1s0.8-0.447 0.8-1c0-0.183 0-0.817 0-1 0-0.552-0.359-1-0.8-1zM17.365 3.766c0.391-0.391 0.454-0.961 0.142-1.273s-0.882-0.249-1.272 0.142c-0.107 0.108-0.592 0.592-0.7 0.7-0.391 0.391-0.454 0.96-0.142 1.272s0.883 0.25 1.273-0.141c0.107-0.108 0.592-0.592 0.699-0.7zM3.334 15.534c-0.108 0.108-0.592 0.593-0.7 0.7-0.39 0.391-0.453 0.96-0.141 1.272 0.312 0.312 0.882 0.249 1.272-0.141 0.108-0.107 0.593-0.592 0.7-0.7 0.391-0.391 0.454-0.96 0.141-1.272s-0.882-0.248-1.272 0.141zM3.766 2.634c-0.391-0.39-0.96-0.454-1.273-0.141s-0.249 0.882 0.141 1.273c0.108 0.108 0.592 0.592 0.7 0.7 0.391 0.39 0.96 0.454 1.272 0.141s0.25-0.882-0.141-1.272c-0.107-0.108-0.591-0.593-0.699-0.701zM15.534 16.666c0.108 0.108 0.593 0.593 0.7 0.7 0.391 0.39 0.961 0.453 1.273 0.141 0.312-0.312 0.248-0.882-0.142-1.272-0.108-0.107-0.593-0.592-0.7-0.7-0.391-0.39-0.961-0.453-1.273-0.141s-0.247 0.881 0.142 1.272z" fill="#ffffff" />
</svg>
