<?xml version="1.0" encoding="utf-8"?>
<!-- Generated by IcoMoon.io -->
<!DOCTYPE svg PUBLIC "-//W3C//DTD SVG 1.1//EN" "http://www.w3.org/Graphics/SVG/1.1/DTD/svg11.dtd">
<svg version="1.1" xmlns="http://www.w3.org/2000/svg" xmlns:xlink="http://www.w3.org/1999/xlink" width="20" height="20" viewBox="0 0 20 20">
	<path d="M10 0c-5.523 0-10 4.477-10 10s4.477 10 10 10 10-4.477 10-10-4.477-10-10-10zM6.25 10c0-2.071 1.679-3.75 3.75-3.75s3.75 1.679 3.75 3.75-1.679 3.75-3.75 3.75-3.75-1.679-3.75-3.75zM18.086 13.349v0l-3.465-1.435c0.244-0.59 0.38-1.236 0.38-1.914s-0.135-1.324-0.38-1.914l3.465-1.435c0.428 1.032 0.664 2.163 0.664 3.349s-0.237 2.317-0.664 3.349v0zM13.349 1.914v0 0l-1.435 3.465c-0.59-0.244-1.236-0.38-1.914-0.38s-1.324 0.135-1.914 0.38l-1.435-3.465c1.032-0.428 2.163-0.664 3.349-0.664 1.186 0 2.317 0.237 3.349 0.664zM1.914 6.651l3.465 1.435c-0.244 0.59-0.38 1.236-0.38 1.914s0.135 1.324 0.38 1.914l-3.465 1.435c-0.428-1.032-0.664-2.163-0.664-3.349s0.237-2.317 0.664-3.349zM6.651 18.086l1.435-3.465c0.59 0.244 1.236 0.38 1.914 0.38s1.324-0.135 1.914-0.38l1.435 3.465c-1.032 0.428-2.163 0.664-3.349 0.664-1.186 0-2.317-0.237-3.349-0.664z" fill="#ffffff" />
</svg>
