<?xml version="1.0" encoding="utf-8"?>
<!-- Generated by IcoMoon.io -->
<!DOCTYPE svg PUBLIC "-//W3C//DTD SVG 1.1//EN" "http://www.w3.org/Graphics/SVG/1.1/DTD/svg11.dtd">
<svg version="1.1" xmlns="http://www.w3.org/2000/svg" xmlns:xlink="http://www.w3.org/1999/xlink" width="20" height="20" viewBox="0 0 20 20">
	<path d="M12.5 2.863v2.655c0.707 0.309 1.357 0.75 1.919 1.312 1.181 1.18 1.831 2.75 1.831 4.419s-0.65 3.239-1.831 4.419c-1.18 1.18-2.75 1.831-4.419 1.831s-3.239-0.65-4.419-1.831c-1.18-1.18-1.831-2.75-1.831-4.419s0.65-3.239 1.831-4.419c0.562-0.562 1.212-1.003 1.919-1.312v-2.655c-3.614 1.076-6.25 4.423-6.25 8.387 0 4.832 3.918 8.75 8.75 8.75 4.832 0 8.75-3.918 8.75-8.75 0-3.964-2.636-7.311-6.25-8.387zM8.75 0h2.5v10h-2.5z" fill="#ffffff" />
</svg>
