<?xml version="1.0" encoding="utf-8"?>
<!-- Generated by IcoMoon.io -->
<!DOCTYPE svg PUBLIC "-//W3C//DTD SVG 1.1//EN" "http://www.w3.org/Graphics/SVG/1.1/DTD/svg11.dtd">
<svg version="1.1" xmlns="http://www.w3.org/2000/svg" xmlns:xlink="http://www.w3.org/1999/xlink" width="30" height="30" viewBox="0 0 30 30">
	<path d="M0 1.875v26.25h30v-26.25h-30zM11.25 18.75v-5.625h7.5v5.625h-7.5zM18.75 20.625v5.625h-7.5v-5.625h7.5zM18.75 5.625v5.625h-7.5v-5.625h7.5zM9.375 5.625v5.625h-7.5v-5.625h7.5zM1.875 13.125h7.5v5.625h-7.5v-5.625zM20.625 13.125h7.5v5.625h-7.5v-5.625zM20.625 11.25v-5.625h7.5v5.625h-7.5zM1.875 20.625h7.5v5.625h-7.5v-5.625zM20.625 26.25v-5.625h7.5v5.625h-7.5z" fill="#ffffff" />
</svg>
