<?xml version="1.0" encoding="utf-8"?>
<!-- Generated by IcoMoon.io -->
<!DOCTYPE svg PUBLIC "-//W3C//DTD SVG 1.1//EN" "http://www.w3.org/Graphics/SVG/1.1/DTD/svg11.dtd">
<svg version="1.1" xmlns="http://www.w3.org/2000/svg" xmlns:xlink="http://www.w3.org/1999/xlink" width="20" height="20" viewBox="0 0 20 20">
	<path d="M0 1.25v17.5h20v-17.5h-20zM7.5 12.5v-3.75h5v3.75h-5zM12.5 13.75v3.75h-5v-3.75h5zM12.5 3.75v3.75h-5v-3.75h5zM6.25 3.75v3.75h-5v-3.75h5zM1.25 8.75h5v3.75h-5v-3.75zM13.75 8.75h5v3.75h-5v-3.75zM13.75 7.5v-3.75h5v3.75h-5zM1.25 13.75h5v3.75h-5v-3.75zM13.75 17.5v-3.75h5v3.75h-5z" fill="#ffffff" />
</svg>
