<?xml version="1.0" encoding="utf-8"?>
<!-- Generated by IcoMoon.io -->
<!DOCTYPE svg PUBLIC "-//W3C//DTD SVG 1.1//EN" "http://www.w3.org/Graphics/SVG/1.1/DTD/svg11.dtd">
<svg version="1.1" xmlns="http://www.w3.org/2000/svg" xmlns:xlink="http://www.w3.org/1999/xlink" width="20" height="20" viewBox="0 0 20 20">
	<path d="M18.121 0h-5.636c-1.033 0-2.476 0.598-3.207 1.328l-8.73 8.73c-0.731 0.731-0.731 1.926 0 2.657l6.737 6.736c0.731 0.731 1.926 0.731 2.657 0l8.73-8.73c0.731-0.731 1.328-2.174 1.328-3.207v-5.636c0-1.033-0.845-1.879-1.879-1.879zM15.625 6.25c-1.036 0-1.875-0.839-1.875-1.875s0.839-1.875 1.875-1.875 1.875 0.839 1.875 1.875-0.839 1.875-1.875 1.875z" fill="#ffffff" />
</svg>
