<?xml version="1.0" encoding="utf-8"?>
<!-- Generated by IcoMoon.io -->
<!DOCTYPE svg PUBLIC "-//W3C//DTD SVG 1.1//EN" "http://www.w3.org/Graphics/SVG/1.1/DTD/svg11.dtd">
<svg version="1.1" xmlns="http://www.w3.org/2000/svg" xmlns:xlink="http://www.w3.org/1999/xlink" width="20" height="20" viewBox="0 0 20 20">
	<path d="M19.619 8.677l-3.125-5c-0.456-0.731-1.258-1.175-2.119-1.175h-11.875c-1.381 0-2.5 1.119-2.5 2.5v10c0 1.381 1.119 2.5 2.5 2.5h11.875c0.862 0 1.663-0.444 2.119-1.176l3.125-5c0.508-0.809 0.508-1.839 0-2.649zM18.559 10.664l-3.125 5.001c-0.229 0.367-0.626 0.587-1.059 0.587h-11.875c-0.689 0-1.25-0.561-1.25-1.25v-10c0-0.689 0.561-1.25 1.25-1.25h11.875c0.433 0 0.83 0.22 1.059 0.587l3.125 5c0.252 0.403 0.252 0.923 0 1.325zM14.375 8.127c-1.036 0-1.875 0.839-1.875 1.875s0.839 1.875 1.875 1.875c1.035 0 1.875-0.84 1.875-1.875 0-1.036-0.84-1.875-1.875-1.875zM14.375 11.253c-0.691 0-1.25-0.56-1.25-1.25s0.559-1.25 1.25-1.25c0.69 0 1.25 0.56 1.25 1.25 0 0.689-0.56 1.25-1.25 1.25z" fill="#ffffff" />
</svg>
