<?xml version="1.0" encoding="utf-8"?>
<!-- Generated by IcoMoon.io -->
<!DOCTYPE svg PUBLIC "-//W3C//DTD SVG 1.1//EN" "http://www.w3.org/Graphics/SVG/1.1/DTD/svg11.dtd">
<svg version="1.1" xmlns="http://www.w3.org/2000/svg" xmlns:xlink="http://www.w3.org/1999/xlink" width="20" height="20" viewBox="0 0 20 20">
	<path d="M19.291 0.406c-0.108-0.315-0.449-0.481-0.761-0.372s-0.476 0.454-0.367 0.77c0.92 2.67-0.906 4.664-2.297 5.731l-0.563-0.814c-0.188-0.272-0.612-0.499-0.94-0.504l-3.155 0.015c-0.328-0.005-0.816 0.147-1.086 0.337l-9.296 6.588c-0.45 0.319-0.561 0.947-0.245 1.403l4.226 6.107c0.315 0.456 0.822 0.401 1.272 0.083l9.296-6.589c0.27-0.19 0.577-0.604 0.686-0.918l0.988-3.146c0.107-0.314 0.042-0.794-0.146-1.066l-0.344-0.496c1.869-1.445 3.809-4.002 2.732-7.129zM14.966 9.762c-0.721 0.511-1.714 0.333-2.219-0.396-0.504-0.729-0.329-1.734 0.392-2.245 0.572-0.406 1.315-0.376 1.85 0.018-0.27 0.164-0.454 0.258-0.489 0.275-0.298 0.142-0.426 0.502-0.285 0.804 0.102 0.219 0.316 0.348 0.541 0.348 0.085 0 0.172-0.019 0.254-0.058 0.191-0.091 0.398-0.202 0.613-0.331 0.096 0.593-0.138 1.217-0.657 1.585z" fill="#ffffff" />
</svg>
