<?xml version="1.0" encoding="utf-8"?>
<!-- Generated by IcoMoon.io -->
<!DOCTYPE svg PUBLIC "-//W3C//DTD SVG 1.1//EN" "http://www.w3.org/Graphics/SVG/1.1/DTD/svg11.dtd">
<svg version="1.1" xmlns="http://www.w3.org/2000/svg" xmlns:xlink="http://www.w3.org/1999/xlink" width="21" height="20" viewBox="0 0 21 20">
	<path d="M19.375 1.25h-4.375c-1.031 0-2.472 0.597-3.201 1.326l-7.348 7.348c-0.729 0.729-0.729 1.922 0 2.652l5.473 5.473c0.729 0.729 1.922 0.729 2.652 0l7.348-7.348c0.729-0.729 1.326-2.17 1.326-3.201v-4.375c0-1.031-0.844-1.875-1.875-1.875zM16.875 7.5c-1.036 0-1.875-0.839-1.875-1.875s0.839-1.875 1.875-1.875 1.875 0.839 1.875 1.875-0.839 1.875-1.875 1.875zM1.692 11.692l6.687 6.687c-0.708 0.374-1.611 0.264-2.205-0.33l-5.473-5.473c-0.729-0.729-0.729-1.922 0-2.652l7.348-7.348c0.729-0.729 2.17-1.326 3.201-1.326l-9.558 9.558c-0.243 0.243-0.243 0.641 0 0.884z" fill="#ffffff" />
</svg>
