<?xml version="1.0" encoding="utf-8"?>
<!-- Generated by IcoMoon.io -->
<!DOCTYPE svg PUBLIC "-//W3C//DTD SVG 1.1//EN" "http://www.w3.org/Graphics/SVG/1.1/DTD/svg11.dtd">
<svg version="1.1" xmlns="http://www.w3.org/2000/svg" xmlns:xlink="http://www.w3.org/1999/xlink" width="20" height="20" viewBox="0 0 20 20">
	<path d="M10 1.4c-4.749 0-8.6 3.851-8.6 8.6 0 4.75 3.851 8.6 8.6 8.6 4.75 0 8.6-3.85 8.6-8.6 0-4.749-3.85-8.6-8.6-8.6zM10.7 16.965v-3.865h-1.4v3.865c-3.307-0.328-5.936-2.958-6.265-6.265h3.865v-1.4h-3.865c0.329-3.307 2.958-5.937 6.265-6.265v3.865h1.4v-3.865c3.308 0.328 5.937 2.958 6.265 6.265h-3.865v1.4h3.865c-0.328 3.307-2.957 5.937-6.265 6.265z" fill="#ffffff" />
</svg>
