<?xml version="1.0" encoding="utf-8"?>
<!-- Generated by IcoMoon.io -->
<!DOCTYPE svg PUBLIC "-//W3C//DTD SVG 1.1//EN" "http://www.w3.org/Graphics/SVG/1.1/DTD/svg11.dtd">
<svg version="1.1" xmlns="http://www.w3.org/2000/svg" xmlns:xlink="http://www.w3.org/1999/xlink" width="20" height="20" viewBox="0 0 20 20">
	<path d="M6.353 12.638c0.131 0.355-3.54 3.634-1.398 6.291 0.502 0.622 2.201-2.975 4.615-4.604 1.331-0.898 4.43-2.811 4.43-3.867v-6.84c0-1.272-4.913-2.618-8.648-2.618-1.369 0-3.352 8.575-3.352 9.938 0 1.367 4.221 1.343 4.353 1.7zM15 12.542c0.658 0 3-0.399 3-3.122v-4.847c0-2.722-2.342-3.022-3-3.022-0.657 0 1 0.573 1 2.259v6.373c0 1.768-1.657 2.359-1 2.359z" fill="#ffffff" />
</svg>
