<?xml version="1.0" encoding="utf-8"?>
<!-- Generated by IcoMoon.io -->
<!DOCTYPE svg PUBLIC "-//W3C//DTD SVG 1.1//EN" "http://www.w3.org/Graphics/SVG/1.1/DTD/svg11.dtd">
<svg version="1.1" xmlns="http://www.w3.org/2000/svg" xmlns:xlink="http://www.w3.org/1999/xlink" width="20" height="20" viewBox="0 0 20 20">
	<path d="M13.648 7.363c-0.132-0.355 3.54-3.635 1.398-6.292-0.502-0.621-2.201 2.976-4.615 4.604-1.331 0.898-4.431 2.81-4.431 3.867v6.841c0 1.271 4.914 2.617 8.649 2.617 1.369 0 3.351-8.575 3.351-9.938 0-1.367-4.22-1.343-4.352-1.699zM5 7.458c-0.657 0-3 0.4-3 3.122v4.848c0 2.722 2.343 3.021 3 3.021s-1-0.572-1-2.259v-6.373c0-1.768 1.657-2.359 1-2.359z" fill="#ffffff" />
</svg>
