<?xml version="1.0" encoding="utf-8"?>
<!-- Generated by IcoMoon.io -->
<!DOCTYPE svg PUBLIC "-//W3C//DTD SVG 1.1//EN" "http://www.w3.org/Graphics/SVG/1.1/DTD/svg11.dtd">
<svg version="1.1" xmlns="http://www.w3.org/2000/svg" xmlns:xlink="http://www.w3.org/1999/xlink" width="20" height="20" viewBox="0 0 20 20">
	<path d="M15.213 7.639c-0.275 0-0.546 0.024-0.809 0.068-0.656-2.145-2.688-3.708-5.096-3.708-2.938 0-5.319 2.328-5.319 5.2 0 0.256 0.020 0.508 0.057 0.755-0.141-0.016-0.283-0.027-0.429-0.027-1.997 0-3.617 1.584-3.617 3.536 0 1.953 1.62 3.536 3.617 3.536h11.596c2.645 0 4.787-2.096 4.787-4.68s-2.143-4.68-4.787-4.68zM11.372 11.95c-0.495 0.704-2.615 2.889-2.705 2.981-0.104 0.128-0.391 0.343-0.663 0.166-0.078-0.051-0.172-0.153-0.172-0.354 0-0.193 0.088-0.39 0.099-0.412l1.033-2.286c-0.194-0.077-0.527-0.212-0.786-0.325l-0.069-0.030c-0.262-0.11-0.588-0.249-0.588-0.608 0-0.171 0.082-0.371 0.249-0.609 0.495-0.704 2.615-2.888 2.705-2.981 0.104-0.128 0.39-0.343 0.663-0.167 0.078 0.051 0.172 0.153 0.172 0.354 0 0.193-0.088 0.39-0.099 0.412l-1.033 2.286c0.194 0.078 0.527 0.213 0.786 0.325l0.068 0.029c0.262 0.111 0.588 0.25 0.588 0.609 0.001 0.173-0.081 0.372-0.248 0.61z" fill="#ffffff" />
</svg>
