<?xml version="1.0" encoding="utf-8"?>
<!-- Generated by IcoMoon.io -->
<!DOCTYPE svg PUBLIC "-//W3C//DTD SVG 1.1//EN" "http://www.w3.org/Graphics/SVG/1.1/DTD/svg11.dtd">
<svg version="1.1" xmlns="http://www.w3.org/2000/svg" xmlns:xlink="http://www.w3.org/1999/xlink" width="20" height="20" viewBox="0 0 20 20">
	<path d="M11.25 6.25l2.5 2.5-5 5-2.5-2.5zM19.561 5.811l-1.436-1.436-0.625 0.625c-0.32 0.32-0.762 0.518-1.25 0.518-0.976 0-1.768-0.791-1.768-1.768 0-0.488 0.198-0.93 0.518-1.25l0.625-0.625-1.436-1.436c-0.585-0.585-1.543-0.585-2.128 0l-11.622 11.622c-0.585 0.585-0.585 1.543 0 2.128l1.436 1.436 0.624-0.624c0.32-0.32 0.762-0.519 1.251-0.519 0.976 0 1.768 0.791 1.768 1.768 0 0.488-0.198 0.93-0.518 1.25l-0.625 0.625 1.436 1.436c0.585 0.585 1.543 0.585 2.128 0l11.622-11.622c0.585-0.585 0.585-1.543 0-2.129zM8.75 16.25l-5-5 7.5-7.5 5 5-7.5 7.5z" fill="#ffffff" />
</svg>
