<?xml version="1.0" encoding="utf-8"?>
<!-- Generated by IcoMoon.io -->
<!DOCTYPE svg PUBLIC "-//W3C//DTD SVG 1.1//EN" "http://www.w3.org/Graphics/SVG/1.1/DTD/svg11.dtd">
<svg version="1.1" xmlns="http://www.w3.org/2000/svg" xmlns:xlink="http://www.w3.org/1999/xlink" width="20" height="20" viewBox="0 0 20 20">
	<path d="M4.906 11.542l3.552 3.552 6.517-6.517-3.553-3.552-6.516 6.517zM19.105 6.664l-1.512-1.511c-0.289 0.156-0.617 0.246-0.969 0.246-1.117 0-2.023-0.906-2.023-2.024 0-0.351 0.088-0.681 0.246-0.969l-1.512-1.511c-0.395-0.394-1.037-0.394-1.432 0l-11.008 11.009c-0.394 0.394-0.394 1.038 0 1.432l1.512 1.512c0.288-0.157 0.618-0.246 0.968-0.246 1.118 0 2.024 0.905 2.024 2.023 0 0.351-0.089 0.681-0.247 0.969l1.511 1.512c0.394 0.394 1.038 0.394 1.432 0l11.010-11.010c0.393-0.394 0.393-1.038 0-1.432zM8.458 16.719l-5.176-5.177 8.142-8.141 5.176 5.176-8.142 8.142z" fill="#ffffff" />
</svg>
