<?xml version="1.0" encoding="utf-8"?>
<!-- Generated by IcoMoon.io -->
<!DOCTYPE svg PUBLIC "-//W3C//DTD SVG 1.1//EN" "http://www.w3.org/Graphics/SVG/1.1/DTD/svg11.dtd">
<svg version="1.1" xmlns="http://www.w3.org/2000/svg" xmlns:xlink="http://www.w3.org/1999/xlink" width="20" height="20" viewBox="0 0 20 20">
	<path d="M3.134 6.89c0.934-0.725 1.708-0.226 2.741 0.97 0.117 0.134 0.273-0.023 0.361-0.1 0.088-0.078 1.452-1.304 1.518-1.361 0.067-0.059 0.147-0.169 0.041-0.292s-0.494-0.625-0.743-0.95c-1.808-2.365 4.946-3.969 3.908-3.994-0.527-0.014-2.646-0.038-2.962-0.005-1.283 0.136-2.894 1.335-3.705 1.893-1.060 0.729-1.457 1.152-1.522 1.211-0.3 0.263-0.048 0.867-0.592 1.344-0.575 0.504-0.933 0.123-1.266 0.415-0.166 0.146-0.627 0.491-0.76 0.608-0.132 0.116-0.156 0.313-0.021 0.471 0 0 1.263 1.396 1.37 1.519 0.106 0.123 0.391 0.227 0.568 0.071 0.177-0.155 0.631-0.554 0.708-0.622 0.078-0.067-0.050-0.863 0.356-1.178zM8.843 7.406c-0.12-0.139-0.268-0.142-0.397-0.028l-1.435 1.251c-0.112 0.1-0.127 0.284-0.026 0.4l8.294 9.438c0.193 0.224 0.529 0.247 0.752 0.053l0.971-0.812c0.221-0.194 0.244-0.534 0.051-0.757l-8.21-9.545zM19.902 3.389c-0.074-0.494-0.33-0.39-0.463-0.18-0.131 0.209-0.721 1.101-0.963 1.504-0.24 0.402-0.83 1.191-1.934 0.412-1.148-0.812-0.748-1.379-0.549-1.76 0.201-0.383 0.818-1.455 0.908-1.59 0.088-0.135-0.016-0.527-0.371-0.363-0.357 0.165-2.523 1.026-2.824 2.26-0.307 1.257 0.258 2.379-0.85 3.494l-1.342 1.4 1.348 1.568 1.654-1.571c0.395-0.396 1.236-0.781 1.998-0.608 1.633 0.37 2.523-0.244 3.061-1.257 0.482-0.907 0.402-2.815 0.327-3.309zM2.74 17.051c-0.208 0.21-0.208 0.55 0 0.759l0.951 0.93c0.208 0.209 0.538 0.121 0.746-0.088l4.907-4.825-1.504-1.713-5.1 4.937z" fill="#ffffff" />
</svg>
