<?xml version="1.0" encoding="utf-8"?>
<!-- Generated by IcoMoon.io -->
<!DOCTYPE svg PUBLIC "-//W3C//DTD SVG 1.1//EN" "http://www.w3.org/Graphics/SVG/1.1/DTD/svg11.dtd">
<svg version="1.1" xmlns="http://www.w3.org/2000/svg" xmlns:xlink="http://www.w3.org/1999/xlink" width="20" height="20" viewBox="0 0 20 20">
	<path d="M18.738 4.262c-0.060-0.981-0.867-1.76-1.863-1.76h-1.875v-0.626c0-1.036-0.84-1.875-1.875-1.875h-6.25c-1.036 0-1.875 0.839-1.875 1.875v0.626h-1.875c-0.997 0-1.803 0.779-1.863 1.76h-0.012v1.364c0 0.69 0.56 1.25 1.25 1.25v0 10.625c0 1.381 1.119 2.5 2.5 2.5h10c1.381 0 2.5-1.119 2.5-2.5v-10.625c0.69 0 1.25-0.56 1.25-1.25v-1.364h-0.012zM6.25 1.876c0-0.346 0.279-0.625 0.625-0.625h6.25c0.346 0 0.625 0.279 0.625 0.625v0.625h-7.5v-0.625zM16.25 17.501c0 0.689-0.561 1.25-1.25 1.25h-10c-0.689 0-1.25-0.561-1.25-1.25v-10.625h12.5v10.625zM17.5 5.001v0.625h-15v-1.249c0-0.346 0.279-0.625 0.625-0.625h13.75c0.346 0 0.625 0.279 0.625 0.625v0.624zM5.625 17.504h1.25c0.346 0 0.625-0.279 0.625-0.625v-8.125c0-0.346-0.279-0.625-0.625-0.625h-1.25c-0.346 0-0.625 0.279-0.625 0.625v8.125c0 0.346 0.279 0.625 0.625 0.625zM5.625 8.753h1.25v8.125h-1.25v-8.125zM9.375 17.504h1.25c0.346 0 0.625-0.279 0.625-0.625v-8.125c0-0.346-0.279-0.625-0.625-0.625h-1.25c-0.346 0-0.625 0.279-0.625 0.625v8.125c0 0.346 0.279 0.625 0.625 0.625zM9.375 8.753h1.25v8.125h-1.25v-8.125zM13.125 17.504h1.25c0.346 0 0.625-0.279 0.625-0.625v-8.125c0-0.346-0.279-0.625-0.625-0.625h-1.25c-0.346 0-0.625 0.279-0.625 0.625v8.125c0 0.346 0.279 0.625 0.625 0.625zM13.125 8.753h1.25v8.125h-1.25v-8.125z" fill="#ffffff" />
</svg>
