<?xml version="1.0" encoding="utf-8"?>
<!-- Generated by IcoMoon.io -->
<!DOCTYPE svg PUBLIC "-//W3C//DTD SVG 1.1//EN" "http://www.w3.org/Graphics/SVG/1.1/DTD/svg11.dtd">
<svg version="1.1" xmlns="http://www.w3.org/2000/svg" xmlns:xlink="http://www.w3.org/1999/xlink" width="20" height="20" viewBox="0 0 20 20">
	<path d="M3.389 7.912l1.102 9.709c0.059 0.461 2.285 1.977 5.509 1.979 3.224-0.002 5.451-1.518 5.51-1.979l1.102-9.709c-1.684 0.942-4.201 1.388-6.612 1.388s-4.928-0.446-6.611-1.388zM13.167 1.912l-0.859-0.953c-0.331-0.471-0.691-0.559-1.392-0.559h-1.832c-0.7 0-1.060 0.088-1.392 0.559l-0.858 0.953c-2.57 0.449-4.434 1.64-4.434 2.518v0.171c0 1.546 3.402 2.8 7.6 2.8s7.6-1.254 7.6-2.8v-0.171c0-0.878-1.863-2.069-4.433-2.518zM12.069 4.139l-1.252-1.339h-1.634l-1.252 1.339h-1.7c0 0 1.862-2.22 2.111-2.521 0.19-0.23 0.385-0.318 0.637-0.318h2.043c0.252 0 0.446 0.088 0.637 0.318 0.248 0.301 2.111 2.521 2.111 2.521h-1.701z" fill="#ffffff" />
</svg>
