<?xml version="1.0" encoding="utf-8"?>
<!-- Generated by IcoMoon.io -->
<!DOCTYPE svg PUBLIC "-//W3C//DTD SVG 1.1//EN" "http://www.w3.org/Graphics/SVG/1.1/DTD/svg11.dtd">
<svg version="1.1" xmlns="http://www.w3.org/2000/svg" xmlns:xlink="http://www.w3.org/1999/xlink" width="20" height="20" viewBox="0 0 20 20">
	<path d="M11.25 8.75h2.5v6.25h-2.5zM18.75 3.75h-5v-2.5c0-0.691-0.559-1.25-1.25-1.25h-5c-0.691 0-1.25 0.559-1.25 1.25v2.5h-5c-0.691 0-1.25 0.559-1.25 1.25v1.25h1.25v12.5c0 0.691 0.559 1.25 1.25 1.25h15c0.691 0 1.25-0.559 1.25-1.25v-12.5h1.25v-1.25c0-0.691-0.559-1.25-1.25-1.25zM8.75 2.5h2.5v1.25h-2.5v-1.25zM16.25 17.5h-12.5v-11.25h12.5v11.25zM6.25 8.75h2.5v6.25h-2.5z" fill="#ffffff" />
</svg>
