<?xml version="1.0" encoding="utf-8"?>
<!-- Generated by IcoMoon.io -->
<!DOCTYPE svg PUBLIC "-//W3C//DTD SVG 1.1//EN" "http://www.w3.org/Graphics/SVG/1.1/DTD/svg11.dtd">
<svg version="1.1" xmlns="http://www.w3.org/2000/svg" xmlns:xlink="http://www.w3.org/1999/xlink" width="20" height="20" viewBox="0 0 20 20">
	<path d="M20 11.25l-2.5-5h-3.75v-2.5c0-0.688-0.563-1.25-1.25-1.25h-11.25c-0.688 0-1.25 0.563-1.25 1.25v10l1.25 1.25h1.585c-0.213 0.368-0.335 0.794-0.335 1.25 0 1.381 1.119 2.5 2.5 2.5s2.5-1.119 2.5-2.5c0-0.456-0.122-0.882-0.335-1.25h6.921c-0.213 0.368-0.335 0.794-0.335 1.25 0 1.381 1.119 2.5 2.5 2.5s2.5-1.119 2.5-2.5c0-0.456-0.122-0.882-0.335-1.25h1.585v-3.75zM13.75 11.25v-3.125h2.591l1.563 3.125h-4.154z" fill="#ffffff" />
</svg>
