<?xml version="1.0" encoding="utf-8"?>
<!-- Generated by IcoMoon.io -->
<!DOCTYPE svg PUBLIC "-//W3C//DTD SVG 1.1//EN" "http://www.w3.org/Graphics/SVG/1.1/DTD/svg11.dtd">
<svg version="1.1" xmlns="http://www.w3.org/2000/svg" xmlns:xlink="http://www.w3.org/1999/xlink" width="20" height="20" viewBox="0 0 20 20">
	<path d="M15.52 7.153c-0.116-0.174-0.311-0.278-0.52-0.278h-0.625c-0.346 0-0.625 0.279-0.625 0.625v3.75c0 0.346 0.279 0.625 0.625 0.625h2.5c0.346 0 0.625-0.279 0.625-0.625v-0.938c0-0.123-0.037-0.244-0.105-0.347l-1.875-2.812zM16.875 11.25h-2.5v-3.75h0.625l1.875 2.813v0.938zM19.685 9.585l-2.5-3.75c-0.349-0.523-0.933-0.835-1.56-0.835h-2.5v-1.25c0-1.034-0.841-1.875-1.875-1.875h-9.375c-1.034 0-1.875 0.841-1.875 1.875v6.875c0 1.034 0.841 1.875 1.875 1.875v0 1.875c0 1.034 0.841 1.875 1.875 1.875h0.714c0.279 1.076 1.25 1.875 2.412 1.875 1.161 0 2.131-0.799 2.411-1.875h3.301c0.279 1.076 1.25 1.875 2.412 1.875 1.161 0 2.131-0.799 2.411-1.875h0.715c1.034 0 1.875-0.841 1.875-1.875v-3.75c0-0.371-0.109-0.731-0.315-1.040zM1.875 11.25c-0.345 0-0.625-0.279-0.625-0.625v-6.875c0-0.346 0.28-0.625 0.625-0.625h9.375c0.346 0 0.625 0.279 0.625 0.625v6.875c0 0.346-0.279 0.625-0.625 0.625h-9.375zM6.876 16.875c-0.691 0-1.25-0.56-1.25-1.25s0.559-1.25 1.25-1.25c0.69 0 1.25 0.56 1.25 1.25s-0.561 1.25-1.25 1.25zM15 16.875c-0.691 0-1.25-0.56-1.25-1.25s0.559-1.25 1.25-1.25c0.69 0 1.25 0.56 1.25 1.25s-0.56 1.25-1.25 1.25zM18.75 14.375c0 0.346-0.279 0.625-0.625 0.625h-0.714c-0.279-1.076-1.25-1.875-2.411-1.875-1.162 0-2.133 0.799-2.412 1.875h-3.301c-0.279-1.076-1.25-1.875-2.411-1.875-1.162 0-2.132 0.799-2.412 1.875h-0.714c-0.345 0-0.625-0.279-0.625-0.625v-1.875h8.125c1.034 0 1.875-0.841 1.875-1.875v-4.375h2.5c0.209 0 0.404 0.104 0.52 0.278l2.5 3.75c0.068 0.103 0.105 0.224 0.105 0.347v3.75z" fill="#ffffff" />
</svg>
