<?xml version="1.0" encoding="utf-8"?>
<!-- Generated by IcoMoon.io -->
<!DOCTYPE svg PUBLIC "-//W3C//DTD SVG 1.1//EN" "http://www.w3.org/Graphics/SVG/1.1/DTD/svg11.dtd">
<svg version="1.1" xmlns="http://www.w3.org/2000/svg" xmlns:xlink="http://www.w3.org/1999/xlink" width="20" height="20" viewBox="0 0 20 20">
	<path d="M15.6 18.196c-0.776 0.37-1.48 0.631-2.109 0.78-0.63 0.148-1.312 0.224-2.043 0.224-0.831 0-1.565-0.107-2.205-0.319-0.638-0.213-1.182-0.516-1.634-0.907-0.451-0.395-0.764-0.812-0.938-1.255-0.175-0.443-0.262-1.085-0.262-1.926v-6.454h-2.009v-2.604c0.714-0.235 1.327-0.57 1.835-1.009 0.51-0.438 0.918-0.965 1.227-1.58 0.308-0.615 0.519-1.396 0.636-2.346h2.585v4.651h4.315v2.888h-4.315v4.719c0 1.066 0.056 1.751 0.169 2.055 0.11 0.302 0.318 0.544 0.621 0.725 0.404 0.244 0.863 0.366 1.381 0.366 0.921 0 1.836-0.303 2.746-0.908v2.9z" fill="#ffffff" />
</svg>
