<?xml version="1.0" encoding="utf-8"?>
<!-- Generated by IcoMoon.io -->
<!DOCTYPE svg PUBLIC "-//W3C//DTD SVG 1.1//EN" "http://www.w3.org/Graphics/SVG/1.1/DTD/svg11.dtd">
<svg version="1.1" xmlns="http://www.w3.org/2000/svg" xmlns:xlink="http://www.w3.org/1999/xlink" width="20" height="20" viewBox="0 0 20 20">
	<path d="M10 0.4c-5.302 0-9.6 4.298-9.6 9.6s4.298 9.6 9.6 9.6c5.302 0 9.599-4.298 9.599-9.6s-4.296-9.6-9.599-9.6zM12.576 14.142c-0.393 0.187-0.748 0.318-1.064 0.394-0.318 0.075-0.664 0.113-1.033 0.113-0.42 0-0.791-0.054-1.114-0.161-0.322-0.107-0.598-0.261-0.826-0.459-0.228-0.198-0.386-0.41-0.474-0.634s-0.132-0.548-0.132-0.973v-3.261h-1.015v-1.315c0.36-0.119 0.67-0.289 0.927-0.511 0.257-0.221 0.464-0.487 0.619-0.798 0.156-0.31 0.264-0.706 0.322-1.185h1.306v2.351h2.179v1.459h-2.179v2.384c0 0.539 0.028 0.885 0.085 1.038s0.161 0.275 0.314 0.366c0.204 0.123 0.437 0.186 0.698 0.186 0.465 0 0.928-0.153 1.387-0.46v1.466z" fill="#ffffff" />
</svg>
