<?xml version="1.0" encoding="utf-8"?>
<!-- Generated by IcoMoon.io -->
<!DOCTYPE svg PUBLIC "-//W3C//DTD SVG 1.1//EN" "http://www.w3.org/Graphics/SVG/1.1/DTD/svg11.dtd">
<svg version="1.1" xmlns="http://www.w3.org/2000/svg" xmlns:xlink="http://www.w3.org/1999/xlink" width="20" height="20" viewBox="0 0 20 20">
	<path d="M16.668 0h-13.334c-1.834 0-3.334 1.5-3.334 3.334v13.333c0 1.835 1.5 3.334 3.334 3.334h13.334c1.833 0 3.332-1.499 3.332-3.334v-13.333c-0-1.833-1.499-3.334-3.332-3.334zM14.291 16.107c-0.589 0.277-1.124 0.472-1.602 0.585-0.478 0.111-0.995 0.167-1.551 0.167-0.631 0-1.003-0.079-1.488-0.238-0.485-0.16-0.898-0.388-1.24-0.681-0.343-0.295-0.58-0.609-0.712-0.941-0.132-0.332-0.198-0.814-0.198-1.445v-4.84h-1.875v-1.954c0.542-0.176 1.171-0.428 1.556-0.757 0.387-0.33 0.698-0.724 0.931-1.185 0.234-0.46 0.396-1.047 0.483-1.759h1.963v3.192h3.191v2.463h-3.191v3.539c0 0.801-0.010 1.262 0.075 1.489 0.084 0.226 0.295 0.46 0.525 0.596 0.306 0.183 0.654 0.275 1.047 0.275 0.699 0 1.394-0.227 2.085-0.681v2.177z" fill="#ffffff" />
</svg>
