<?xml version="1.0" encoding="utf-8"?>
<!-- Generated by IcoMoon.io -->
<!DOCTYPE svg PUBLIC "-//W3C//DTD SVG 1.1//EN" "http://www.w3.org/Graphics/SVG/1.1/DTD/svg11.dtd">
<svg version="1.1" xmlns="http://www.w3.org/2000/svg" xmlns:xlink="http://www.w3.org/1999/xlink" width="20" height="20" viewBox="0 0 20 20">
	<path d="M11.251 8.75l-0 4.574c0 1.161-0.015 1.829 0.108 2.158 0.122 0.327 0.428 0.667 0.762 0.863 0.443 0.265 0.948 0.398 1.518 0.398 1.013 0 1.611-0.134 2.612-0.792v3.007c-0.854 0.401-1.599 0.637-2.291 0.799-0.693 0.161-1.443 0.242-2.247 0.242-0.915 0-1.454-0.115-2.156-0.345-0.702-0.232-1.302-0.563-1.797-0.987-0.497-0.428-0.84-0.883-1.032-1.364-0.192-0.481-0.287-1.18-0.287-2.095v-7.014h-2.684v-2.832c0.785-0.255 1.663-0.621 2.222-1.097 0.562-0.478 1.011-1.049 1.35-1.718 0.34-0.667 0.573-1.518 0.701-2.549h3.224l-0 5h4.999v3.75h-4.999z" fill="#ffffff" />
</svg>
