<?xml version="1.0" encoding="utf-8"?>
<!-- Generated by IcoMoon.io -->
<!DOCTYPE svg PUBLIC "-//W3C//DTD SVG 1.1//EN" "http://www.w3.org/Graphics/SVG/1.1/DTD/svg11.dtd">
<svg version="1.1" xmlns="http://www.w3.org/2000/svg" xmlns:xlink="http://www.w3.org/1999/xlink" width="20" height="20" viewBox="0 0 20 20">
	<path d="M19.164 5.627c-1.735-0.249-3.582-0.43-5.509-0.532l3.22-3.22-1.25-1.25-4.386 4.386c-0.41-0.007-0.823-0.011-1.239-0.011v0l-5-5-1.25 1.25 3.793 3.793c-2.362 0.083-4.616 0.284-6.707 0.584-0.538 2.104-0.836 4.429-0.836 6.873s0.298 4.769 0.836 6.873c2.806 0.403 5.905 0.627 9.164 0.627 3.259 0 6.358-0.224 9.164-0.627 0.538-2.104 0.836-4.429 0.836-6.873s-0.298-4.769-0.836-6.873zM16.873 17.082c-2.104 0.269-4.429 0.418-6.873 0.418s-4.769-0.149-6.873-0.418c-0.403-1.403-0.627-2.952-0.627-4.582 0-1.629 0.224-3.179 0.627-4.582 2.104-0.269 4.429-0.418 6.873-0.418 2.444 0 4.769 0.149 6.873 0.418 0.403 1.403 0.627 2.952 0.627 4.582 0 1.629-0.224 3.179-0.627 4.582z" fill="#ffffff" />
</svg>
