<?xml version="1.0" encoding="utf-8"?>
<!-- Generated by IcoMoon.io -->
<!DOCTYPE svg PUBLIC "-//W3C//DTD SVG 1.1//EN" "http://www.w3.org/Graphics/SVG/1.1/DTD/svg11.dtd">
<svg version="1.1" xmlns="http://www.w3.org/2000/svg" xmlns:xlink="http://www.w3.org/1999/xlink" width="20" height="20" viewBox="0 0 20 20">
	<path d="M13.856 5.39c-1.692-0.348-3.409-0.524-5.103-0.524s-3.411 0.176-5.103 0.524c-0.219 0.045-0.397 0.204-0.468 0.417-0.901 2.738-0.901 5.514 0 8.253 0.070 0.213 0.249 0.371 0.468 0.416 1.692 0.348 3.409 0.524 5.103 0.524 1.693 0 3.411-0.177 5.103-0.525 0.22-0.045 0.398-0.204 0.469-0.416 0.901-2.738 0.901-5.514 0-8.253-0.071-0.212-0.249-0.371-0.469-0.416zM13.731 13.864c-3.318 0.681-6.637 0.681-9.954 0-0.863-2.621-0.863-5.241 0-7.862 3.318-0.682 6.637-0.682 9.954 0 0.863 2.621 0.863 5.241 0 7.862zM19.284 3.95c-0.121-0.509-0.547-0.889-1.066-0.951-2.725-0.331-5.489-0.499-8.215-0.499-2.726 0-5.489 0.167-8.214 0.498-0.519 0.063-0.944 0.442-1.065 0.952-0.956 4.014-0.956 8.085 0 12.1 0.121 0.509 0.546 0.889 1.065 0.951 1.313 0.16 2.635 0.277 3.957 0.36-0.071 0.046-0.117 0.092-0.117 0.139 0 0.346 1.959 0.625 4.375 0.625 2.416 0 4.375-0.279 4.375-0.625 0-0.047-0.046-0.094-0.117-0.139 1.322-0.083 2.644-0.2 3.956-0.36 0.519-0.063 0.945-0.442 1.066-0.951 0.957-4.015 0.957-8.086 0.001-12.1zM18.068 15.761c-5.376 0.652-10.753 0.652-16.128 0-0.914-3.841-0.914-7.681 0-11.521 5.376-0.653 10.753-0.653 16.128 0 0.914 3.84 0.914 7.681 0 11.521zM16.566 7.5c0.517 0 0.938-0.42 0.938-0.938s-0.42-0.938-0.938-0.938-0.938 0.42-0.938 0.938 0.42 0.938 0.938 0.938zM16.566 6.25c0.172 0 0.313 0.141 0.313 0.313s-0.141 0.313-0.313 0.313-0.313-0.141-0.313-0.313 0.14-0.313 0.313-0.313zM17.191 13.75c0.172 0 0.313 0.139 0.313 0.313 0 0.172-0.141 0.313-0.313 0.313h-1.875c-0.173 0-0.313-0.141-0.313-0.313 0-0.173 0.139-0.313 0.313-0.313h1.875zM17.816 11.875c0.172 0 0.313 0.139 0.313 0.313 0 0.172-0.141 0.313-0.313 0.313h-1.875c-0.173 0-0.313-0.141-0.313-0.313 0-0.173 0.139-0.313 0.313-0.313h1.875zM17.816 10c0.172 0 0.313 0.14 0.313 0.313s-0.141 0.313-0.313 0.313h-1.875c-0.173 0-0.313-0.14-0.313-0.313s0.139-0.313 0.313-0.313h1.875zM8.441 7.378c0.172-0.007 0.313 0.128 0.313 0.3s-0.141 0.318-0.313 0.324l-2.343 0.161c-0.171 0.018-0.329 0.171-0.353 0.341l-0.104 1.184c-0.007 0.172-0.153 0.313-0.324 0.313-0.171 0-0.304-0.141-0.296-0.313l0.191-1.741c0.029-0.17 0.192-0.325 0.362-0.344l2.866-0.224z" fill="#ffffff" />
</svg>
