<?xml version="1.0" encoding="utf-8"?>
<!-- Generated by IcoMoon.io -->
<!DOCTYPE svg PUBLIC "-//W3C//DTD SVG 1.1//EN" "http://www.w3.org/Graphics/SVG/1.1/DTD/svg11.dtd">
<svg version="1.1" xmlns="http://www.w3.org/2000/svg" xmlns:xlink="http://www.w3.org/1999/xlink" width="20" height="20" viewBox="0 0 20 20">
	<path d="M10 0.4c-5.302 0-9.6 4.298-9.6 9.6s4.298 9.6 9.6 9.6 9.6-4.298 9.6-9.6-4.298-9.6-9.6-9.6zM13.904 8.265c0.004 0.081 0.006 0.163 0.006 0.245 0 2.498-1.902 5.379-5.38 5.379-1.067 0-2.062-0.312-2.898-0.85 0.148 0.018 0.299 0.026 0.451 0.026 0.886 0 1.701-0.302 2.349-0.81-0.827-0.015-1.526-0.562-1.767-1.312 0.115 0.022 0.234 0.034 0.355 0.034 0.173 0 0.34-0.023 0.498-0.066-0.864-0.174-1.517-0.938-1.517-1.854 0-0.008 0-0.016 0.001-0.023 0.255 0.141 0.547 0.226 0.856 0.236-0.506-0.339-0.84-0.917-0.84-1.574 0-0.347 0.093-0.672 0.256-0.951 0.932 1.145 2.326 1.898 3.897 1.976-0.032-0.138-0.049-0.282-0.049-0.431 0-1.044 0.847-1.891 1.891-1.891 0.544 0 1.035 0.229 1.38 0.597 0.431-0.084 0.836-0.241 1.201-0.458-0.142 0.441-0.441 0.812-0.832 1.046 0.383-0.046 0.747-0.147 1.086-0.298-0.253 0.379-0.575 0.712-0.944 0.979z" fill="#ffffff" />
</svg>
