<?xml version="1.0" encoding="utf-8"?>
<!-- Generated by IcoMoon.io -->
<!DOCTYPE svg PUBLIC "-//W3C//DTD SVG 1.1//EN" "http://www.w3.org/Graphics/SVG/1.1/DTD/svg11.dtd">
<svg version="1.1" xmlns="http://www.w3.org/2000/svg" xmlns:xlink="http://www.w3.org/1999/xlink" width="20" height="20" viewBox="0 0 20 20">
	<path d="M19.2 4.293c-0.678 0.301-1.405 0.503-2.169 0.595 0.78-0.467 1.379-1.207 1.66-2.088-0.729 0.432-1.537 0.747-2.396 0.916-0.689-0.734-1.67-1.192-2.756-1.192-2.085 0-3.775 1.69-3.775 3.774 0 0.296 0.033 0.584 0.098 0.86-3.137-0.157-5.919-1.66-7.78-3.944-0.326 0.557-0.513 1.206-0.513 1.898 0 1.31 0.667 2.465 1.68 3.142-0.619-0.020-1.201-0.189-1.71-0.472 0 0.016 0 0.031 0 0.047 0 1.829 1.302 3.354 3.028 3.702-0.316 0.086-0.65 0.132-0.995 0.132-0.243 0-0.479-0.023-0.71-0.067 0.48 1.5 1.875 2.591 3.526 2.621-1.292 1.013-2.919 1.616-4.688 1.616-0.305 0-0.605-0.018-0.9-0.053 1.67 1.071 3.654 1.696 5.787 1.696 6.943 0 10.74-5.752 10.74-10.741 0-0.163-0.003-0.326-0.011-0.488 0.738-0.532 1.377-1.197 1.884-1.954z" fill="#ffffff" />
</svg>
