<?xml version="1.0" encoding="utf-8"?>
<!-- Generated by IcoMoon.io -->
<!DOCTYPE svg PUBLIC "-//W3C//DTD SVG 1.1//EN" "http://www.w3.org/Graphics/SVG/1.1/DTD/svg11.dtd">
<svg version="1.1" xmlns="http://www.w3.org/2000/svg" xmlns:xlink="http://www.w3.org/1999/xlink" width="20" height="20" viewBox="0 0 20 20">
	<path d="M16.667 0h-13.333c-1.833 0-3.334 1.5-3.334 3.334v13.332c0 1.835 1.5 3.334 3.334 3.334h13.333c1.834 0 3.333-1.499 3.333-3.334v-13.332c0-1.834-1.5-3.334-3.333-3.334zM16.368 6.676c0.006 0.143 0.010 0.288 0.010 0.433 0 4.418-3.305 9.513-9.349 9.513-1.856 0-3.583-0.554-5.037-1.502 0.257 0.031 0.519 0.047 0.784 0.047 1.539 0 2.956-0.535 4.081-1.431-1.438-0.027-2.651-0.994-3.069-2.322 0.201 0.039 0.406 0.060 0.618 0.060 0.3 0 0.59-0.041 0.866-0.117-1.503-0.307-2.636-1.659-2.636-3.278 0-0.014 0-0.028 0-0.042 0.443 0.25 0.95 0.401 1.488 0.418-0.882-0.6-1.462-1.623-1.462-2.783 0-0.613 0.162-1.187 0.445-1.681 1.621 2.023 4.042 3.354 6.773 3.493-0.056-0.245-0.085-0.5-0.085-0.762 0-1.846 1.471-3.343 3.286-3.343 0.945 0 1.799 0.406 2.398 1.056 0.748-0.15 1.452-0.428 2.087-0.811-0.245 0.781-0.766 1.436-1.445 1.85 0.665-0.081 1.298-0.261 1.887-0.526-0.44 0.67-0.997 1.259-1.64 1.731z" fill="#ffffff" />
</svg>
