<?xml version="1.0" encoding="utf-8"?>
<!-- Generated by IcoMoon.io -->
<!DOCTYPE svg PUBLIC "-//W3C//DTD SVG 1.1//EN" "http://www.w3.org/Graphics/SVG/1.1/DTD/svg11.dtd">
<svg version="1.1" xmlns="http://www.w3.org/2000/svg" xmlns:xlink="http://www.w3.org/1999/xlink" width="20" height="20" viewBox="0 0 20 20">
	<path d="M10 0c-5.523 0-10 4.477-10 10s4.477 10 10 10 10-4.477 10-10-4.477-10-10-10zM15.747 7.053c0.006 0.127 0.009 0.255 0.009 0.384 0 3.918-2.983 8.437-8.437 8.437-1.675 0-3.233-0.491-4.545-1.332 0.232 0.027 0.468 0.042 0.707 0.042 1.389 0 2.668-0.474 3.683-1.269-1.298-0.024-2.393-0.881-2.77-2.059 0.181 0.035 0.367 0.053 0.558 0.053 0.27 0 0.532-0.036 0.781-0.104-1.356-0.272-2.379-1.471-2.379-2.908 0-0.012 0-0.025 0-0.037 0.4 0.222 0.857 0.355 1.343 0.371-0.796-0.532-1.319-1.439-1.319-2.468 0-0.543 0.146-1.053 0.401-1.491 1.462 1.794 3.647 2.974 6.112 3.098-0.051-0.217-0.077-0.443-0.077-0.676 0-1.637 1.328-2.965 2.965-2.965 0.853 0 1.624 0.36 2.164 0.936 0.675-0.133 1.31-0.38 1.883-0.72-0.221 0.692-0.692 1.274-1.304 1.641 0.6-0.072 1.171-0.231 1.703-0.467-0.397 0.595-0.9 1.117-1.48 1.535z" fill="#ffffff" />
</svg>
