<?xml version="1.0" encoding="utf-8"?>
<!-- Generated by IcoMoon.io -->
<!DOCTYPE svg PUBLIC "-//W3C//DTD SVG 1.1//EN" "http://www.w3.org/Graphics/SVG/1.1/DTD/svg11.dtd">
<svg version="1.1" xmlns="http://www.w3.org/2000/svg" xmlns:xlink="http://www.w3.org/1999/xlink" width="20" height="20" viewBox="0 0 20 20">
	<path d="M15 1.25h-2.5c-2.068 0-3.75 1.682-3.75 3.75v3.75h-7.813c-0.516 0-0.938 0.422-0.938 0.938v9.375c0 0.516 0.422 0.938 0.938 0.938h10.625c0.516 0 0.938-0.422 0.938-0.938v-9.375c0-0.516-0.422-0.938-0.938-0.938h-0.313v-3.75c0-0.689 0.561-1.25 1.25-1.25h2.5c0.689 0 1.25 0.561 1.25 1.25v3.75h2.5v-3.75c0-2.068-1.682-3.75-3.75-3.75zM7.5 17.5h-2.5l0.544-2.719c-0.328-0.225-0.544-0.603-0.544-1.031 0-0.69 0.56-1.25 1.25-1.25 0.69 0 1.25 0.56 1.25 1.25 0 0.428-0.215 0.806-0.544 1.031l0.544 2.719z" fill="#ffffff" />
</svg>
