<?xml version="1.0" encoding="utf-8"?>
<!-- Generated by IcoMoon.io -->
<!DOCTYPE svg PUBLIC "-//W3C//DTD SVG 1.1//EN" "http://www.w3.org/Graphics/SVG/1.1/DTD/svg11.dtd">
<svg version="1.1" xmlns="http://www.w3.org/2000/svg" xmlns:xlink="http://www.w3.org/1999/xlink" width="20" height="20" viewBox="0 0 20 20">
	<path d="M15.213 7.639c-0.275 0-0.546 0.024-0.809 0.068-0.656-2.145-2.688-3.708-5.096-3.708-2.938 0-5.319 2.328-5.319 5.2 0 0.256 0.020 0.508 0.057 0.755-0.141-0.016-0.283-0.027-0.429-0.027-1.997 0-3.617 1.584-3.617 3.536 0 1.953 1.62 3.536 3.617 3.536h4.983v-3.8h-2.1l3.5-4.6 3.5 4.6h-2.1v3.8h3.812c2.645 0 4.787-2.096 4.787-4.68 0.001-2.585-2.142-4.68-4.786-4.68z" fill="#ffffff" />
</svg>
