<?xml version="1.0" encoding="utf-8"?>
<!-- Generated by IcoMoon.io -->
<!DOCTYPE svg PUBLIC "-//W3C//DTD SVG 1.1//EN" "http://www.w3.org/Graphics/SVG/1.1/DTD/svg11.dtd">
<svg version="1.1" xmlns="http://www.w3.org/2000/svg" xmlns:xlink="http://www.w3.org/1999/xlink" width="20" height="20" viewBox="0 0 20 20">
	<path d="M19.063 20h-13.125c-0.518 0-0.938-0.42-0.938-0.938 0-1.345 0.568-2.973 1.519-4.354 0.795-1.155 1.771-2.024 2.826-2.531-0.465-0.423-0.865-0.938-1.182-1.526-0.508-0.943-0.776-2.032-0.776-3.151 0-1.555 0.512-3.024 1.441-4.137 0.97-1.161 2.274-1.801 3.672-1.801s2.702 0.64 3.673 1.801c0.929 1.113 1.441 2.582 1.441 4.137 0 1.119-0.268 2.208-0.776 3.151-0.317 0.588-0.717 1.103-1.182 1.526 1.055 0.508 2.031 1.377 2.826 2.531 0.951 1.382 1.519 3.009 1.519 4.354 0 0.518-0.42 0.938-0.938 0.938zM6.994 18.125h11.013c-0.18-0.768-0.557-1.609-1.070-2.354-0.81-1.176-1.82-1.946-2.844-2.167-0.432-0.093-0.74-0.475-0.74-0.916v-0.67c0-0.337 0.181-0.648 0.474-0.815 1.162-0.661 1.912-2.115 1.912-3.704 0-2.24-1.453-4.063-3.239-4.063s-3.239 1.822-3.239 4.063c0 1.589 0.751 3.043 1.912 3.704 0.293 0.167 0.474 0.478 0.474 0.815v0.67c0 0.442-0.308 0.823-0.74 0.916-1.025 0.221-2.035 0.99-2.845 2.167-0.513 0.745-0.889 1.585-1.070 2.354zM3.85 16.875h-1.856c0.18-0.768 0.557-1.609 1.070-2.354 0.81-1.176 1.82-1.946 2.845-2.167 0.432-0.093 0.74-0.475 0.74-0.916v-0.67c0-0.337-0.181-0.648-0.474-0.815-1.162-0.661-1.912-2.115-1.912-3.704 0-2.24 1.453-4.063 3.239-4.063 0.122 0 0.243 0.009 0.361 0.025 0.515-0.573 1.098-1.039 1.731-1.387-0.648-0.337-1.357-0.514-2.093-0.514-1.398 0-2.702 0.64-3.673 1.801-0.929 1.113-1.441 2.582-1.441 4.137 0 1.119 0.268 2.208 0.776 3.151 0.317 0.588 0.717 1.103 1.182 1.526-1.055 0.508-2.031 1.377-2.826 2.531-0.951 1.382-1.519 3.009-1.519 4.354 0 0.518 0.42 0.938 0.938 0.938h2.586c0.029-0.606 0.141-1.239 0.327-1.875z" fill="#ffffff" />
</svg>
