<?xml version="1.0" encoding="utf-8"?>
<!-- Generated by IcoMoon.io -->
<!DOCTYPE svg PUBLIC "-//W3C//DTD SVG 1.1//EN" "http://www.w3.org/Graphics/SVG/1.1/DTD/svg11.dtd">
<svg version="1.1" xmlns="http://www.w3.org/2000/svg" xmlns:xlink="http://www.w3.org/1999/xlink" width="20" height="20" viewBox="0 0 20 20">
	<path d="M12.377 14.448c-2.491-0.898-3.287-1.656-3.287-3.279 0-0.974 0.761-0.656 1.095-2.44 0.139-0.74 0.811-0.012 0.938-1.701 0-0.673-0.366-0.841-0.366-0.841s0.187-0.997 0.259-1.763c0.090-0.956-0.558-3.424-4.016-3.424s-4.106 2.468-4.016 3.424c0.073 0.767 0.26 1.763 0.26 1.763s-0.367 0.167-0.367 0.841c0.129 1.689 0.801 0.961 0.938 1.701 0.335 1.784 1.096 1.466 1.096 2.44 0 1.623-0.797 2.381-3.288 3.279-0.3 0.107-1.015 0.275-1.623 0.538v4.014h16c0 0 0-1.479 0-2.105s-1.123-1.546-3.623-2.447zM17 9v-3h-2v3h-3v2h3v3h2v-3h3v-2h-3z" fill="#ffffff" />
</svg>
