<?xml version="1.0" encoding="utf-8"?>
<!-- Generated by IcoMoon.io -->
<!DOCTYPE svg PUBLIC "-//W3C//DTD SVG 1.1//EN" "http://www.w3.org/Graphics/SVG/1.1/DTD/svg11.dtd">
<svg version="1.1" xmlns="http://www.w3.org/2000/svg" xmlns:xlink="http://www.w3.org/1999/xlink" width="20" height="20" viewBox="0 0 20 20">
	<path d="M19.444 17.71c-0.126-0.083-2.405-1.578-5.796-2.312 1.244-1.576 2.043-3.695 2.382-5.106 0.471-1.955 0.288-5.78-1.589-8.164-1.098-1.393-2.633-2.129-4.441-2.129-1.807 0-3.343 0.736-4.44 2.129-1.877 2.383-2.060 6.208-1.589 8.163 0.339 1.411 1.137 3.53 2.382 5.106-3.391 0.734-5.67 2.229-5.795 2.312-0.458 0.305-0.663 0.875-0.503 1.401 0.159 0.528 0.646 0.889 1.196 0.889h17.5c0.551 0 1.036-0.361 1.196-0.889 0.161-0.526-0.044-1.096-0.502-1.401zM12.667 14.624l-0.204 0.259c-1.491 1.712-3.434 1.712-4.924 0l-0.204-0.259c-1.741-2.206-2.604-5.123-2.232-7.906 0.341-2.674 1.873-5.467 4.898-5.467 3.025 0 4.558 2.794 4.899 5.468 0.371 2.784-0.49 5.699-2.232 7.906zM1.25 18.75c0.086-0.057 2.204-1.446 5.366-2.13l1.552-0.336c0.554 0.364 1.163 0.591 1.831 0.591 0.669 0 1.277-0.227 1.831-0.591l1.553 0.336c3.138 0.679 5.248 2.052 5.366 2.13h-17.5z" fill="#ffffff" />
</svg>
