<?xml version="1.0" encoding="utf-8"?>
<!-- Generated by IcoMoon.io -->
<!DOCTYPE svg PUBLIC "-//W3C//DTD SVG 1.1//EN" "http://www.w3.org/Graphics/SVG/1.1/DTD/svg11.dtd">
<svg version="1.1" xmlns="http://www.w3.org/2000/svg" xmlns:xlink="http://www.w3.org/1999/xlink" width="20" height="20" viewBox="0 0 20 20">
	<path d="M14.916 9.586c0.046-0.272 0.084-0.549 0.084-0.836v-3.75c0-2.761-2.239-5-5-5s-5 2.239-5 5v3.75c0 0.287 0.038 0.564 0.084 0.836-3.025 1.074-5.084 3.085-5.084 5.414v3.75c0 0.691 0.559 1.25 1.25 1.25h17.5c0.691 0 1.25-0.559 1.25-1.25v-3.75c0-2.329-2.059-4.34-5.084-5.414zM7.5 5c0-1.381 1.119-2.5 2.5-2.5s2.5 1.119 2.5 2.5v3.75c0 1.381-1.119 2.5-2.5 2.5s-2.5-1.119-2.5-2.5v-3.75zM17.5 17.5h-15v-2.5c0-1.35 1.438-2.523 3.578-3.184 0.916 1.169 2.323 1.934 3.922 1.934s3.007-0.764 3.922-1.934c2.14 0.66 3.578 1.834 3.578 3.184v2.5z" fill="#ffffff" />
</svg>
