<?xml version="1.0" encoding="utf-8"?>
<!-- Generated by IcoMoon.io -->
<!DOCTYPE svg PUBLIC "-//W3C//DTD SVG 1.1//EN" "http://www.w3.org/Graphics/SVG/1.1/DTD/svg11.dtd">
<svg version="1.1" xmlns="http://www.w3.org/2000/svg" xmlns:xlink="http://www.w3.org/1999/xlink" width="20" height="20" viewBox="0 0 20 20">
	<path d="M14.355 15.73c-0.37-0.058-0.379-1.067-0.379-1.067s1.088-1.067 1.325-2.503c0.638 0 1.032-1.526 0.394-2.063 0.027-0.565 0.82-4.437-3.195-4.437-4.015 0-3.222 3.872-3.195 4.437-0.638 0.537-0.244 2.063 0.394 2.063 0.237 1.435 1.325 2.503 1.325 2.503s-0.008 1.009-0.379 1.067c-1.192 0.188-5.645 2.135-5.645 4.27h15c0-2.135-4.452-4.082-5.645-4.27zM6.72 16.071c0.861-0.53 1.907-1.022 2.764-1.317-0.308-0.438-0.65-1.034-0.866-1.739-0.301-0.245-0.546-0.596-0.703-1.027-0.158-0.432-0.217-0.915-0.168-1.361 0.035-0.32 0.127-0.618 0.267-0.881-0.085-0.91-0.145-2.696 1.024-3.999 0.453-0.505 1.026-0.868 1.713-1.088-0.123-1.265-0.765-2.749-3.251-2.749-4.015 0-3.222 3.872-3.195 4.437-0.638 0.537-0.244 2.063 0.394 2.063 0.237 1.435 1.325 2.503 1.325 2.503s-0.008 1.009-0.379 1.067c-1.192 0.188-5.645 2.135-5.645 4.27h6.437c0.092-0.060 0.186-0.12 0.282-0.179z" fill="#ffffff" />
</svg>
