<?xml version="1.0" encoding="utf-8"?>
<!-- Generated by IcoMoon.io -->
<!DOCTYPE svg PUBLIC "-//W3C//DTD SVG 1.1//EN" "http://www.w3.org/Graphics/SVG/1.1/DTD/svg11.dtd">
<svg version="1.1" xmlns="http://www.w3.org/2000/svg" xmlns:xlink="http://www.w3.org/1999/xlink" width="20" height="20" viewBox="0 0 20 20">
	<path d="M14.82 14.448c-2.465-0.898-3.253-1.656-3.253-3.279 0-0.974 0.753-0.656 1.083-2.44 0.137-0.74 0.802-0.012 0.93-1.701 0-0.673-0.363-0.841-0.363-0.841s0.185-0.997 0.257-1.763c0.088-0.956-0.552-3.424-3.974-3.424-3.421 0-4.063 2.468-3.973 3.424 0.072 0.766 0.257 1.763 0.257 1.763s-0.364 0.167-0.364 0.841c0.127 1.689 0.792 0.961 0.929 1.701 0.331 1.784 1.084 1.466 1.084 2.44 0 1.623-0.788 2.381-3.253 3.279-2.474 0.9-4.080 1.819-4.080 2.446 0 0.626 0 2.105 0 2.105h18.8c0 0 0-1.479 0-2.105s-1.607-1.545-4.080-2.446z" fill="#ffffff" />
</svg>
