<?xml version="1.0" encoding="utf-8"?>
<!-- Generated by IcoMoon.io -->
<!DOCTYPE svg PUBLIC "-//W3C//DTD SVG 1.1//EN" "http://www.w3.org/Graphics/SVG/1.1/DTD/svg11.dtd">
<svg version="1.1" xmlns="http://www.w3.org/2000/svg" xmlns:xlink="http://www.w3.org/1999/xlink" width="20" height="20" viewBox="0 0 20 20">
	<path d="M11.25 11.943v-3.193c0-2.072-1.678-3.75-3.75-3.75s-3.75 1.678-3.75 3.75v3.193c-2.233 0.867-3.75 2.461-3.75 4.307 0 0.221 0 2.5 0 2.5 0 0.691 0.559 1.25 1.25 1.25h12.5c0.691 0 1.25-0.559 1.25-1.25 0 0 0-2.279 0-2.5 0-1.846-1.517-3.44-3.75-4.307zM6.25 8.75c0-0.691 0.559-1.25 1.25-1.25s1.25 0.559 1.25 1.25v3.75c0 0.691-0.559 1.25-1.25 1.25s-1.25-0.559-1.25-1.25v-3.75zM12.5 17.5h-10v-1.25c0-0.759 0.692-1.432 1.761-1.891 0.648 1.125 1.848 1.891 3.239 1.891s2.59-0.765 3.239-1.891c1.069 0.459 1.761 1.132 1.761 1.891v1.25zM16.25 6.943v-3.193c0-2.072-1.678-3.75-3.75-3.75s-3.75 1.678-3.75 3.75v0.177c0.988 0.255 1.848 0.802 2.5 1.548v-1.725c0-0.691 0.559-1.25 1.25-1.25s1.25 0.559 1.25 1.25v3.75c0 0.691-0.559 1.25-1.25 1.25v2.5c1.39 0 2.59-0.765 3.239-1.891 1.069 0.459 1.761 1.132 1.761 1.891v1.25h-4.562c1.259 0.648 2.225 1.504 2.776 2.5h3.036c0.691 0 1.25-0.559 1.25-1.25 0 0 0-2.279 0-2.5 0-1.846-1.517-3.44-3.75-4.307z" fill="#ffffff" />
</svg>
