<?xml version="1.0" encoding="utf-8"?>
<!-- Generated by IcoMoon.io -->
<!DOCTYPE svg PUBLIC "-//W3C//DTD SVG 1.1//EN" "http://www.w3.org/Graphics/SVG/1.1/DTD/svg11.dtd">
<svg version="1.1" xmlns="http://www.w3.org/2000/svg" xmlns:xlink="http://www.w3.org/1999/xlink" width="20" height="20" viewBox="0 0 20 20">
	<path d="M12.165 13.725c-0.432-0.069-0.442-1.256-0.442-1.256s1.269-1.256 1.545-2.945c0.744 0 1.203-1.796 0.459-2.428 0.031-0.665 0.956-5.221-3.728-5.221-4.684 0-3.759 4.556-3.728 5.221-0.744 0.632-0.285 2.428 0.459 2.428 0.277 1.689 1.545 2.945 1.545 2.945s-0.010 1.187-0.442 1.256c-1.391 0.221-6.585 2.512-6.585 5.025h17.5c0-2.512-5.194-4.803-6.585-5.025z" fill="#ffffff" />
</svg>
