<?xml version="1.0" encoding="utf-8"?>
<!-- Generated by IcoMoon.io -->
<!DOCTYPE svg PUBLIC "-//W3C//DTD SVG 1.1//EN" "http://www.w3.org/Graphics/SVG/1.1/DTD/svg11.dtd">
<svg version="1.1" xmlns="http://www.w3.org/2000/svg" xmlns:xlink="http://www.w3.org/1999/xlink" width="20" height="20" viewBox="0 0 20 20">
	<path d="M20 18.8c0 0-0.039-3.787-0.271-4.179-0.345-0.585-1.146-0.986-2.634-1.608-1.483-0.62-1.958-1.144-1.958-2.263 0-0.673 0.453-0.453 0.652-1.684 0.082-0.511 0.482-0.009 0.559-1.174 0-0.465-0.218-0.581-0.218-0.581s0.11-0.688 0.154-1.217c0.054-0.66-0.333-2.363-2.392-2.363s-2.444 1.704-2.391 2.363c0.043 0.529 0.153 1.217 0.153 1.217s-0.218 0.116-0.218 0.581c0.077 1.166 0.477 0.664 0.56 1.174 0.198 1.231 0.651 1.011 0.651 1.684 0 0.761-0.22 1.247-0.827 1.674 3.24 1.622 3.675 1.953 3.675 3.403v2.973h4.505zM10.224 13.575c-1.979-0.826-2.61-1.524-2.61-3.017 0-0.896 0.604-0.604 0.869-2.246 0.109-0.681 0.644-0.011 0.745-1.565 0-0.62-0.291-0.774-0.291-0.774s0.148-0.917 0.206-1.623c0.072-0.878-0.444-3.15-3.189-3.15-2.745 0-3.26 2.271-3.188 3.15 0.058 0.706 0.205 1.623 0.205 1.623s-0.29 0.154-0.29 0.774c0.103 1.555 0.636 0.885 0.746 1.565 0.265 1.642 0.869 1.349 0.869 2.246 0 1.493-0.633 2.191-2.61 3.017-0.603 0.252-1.686 0.643-1.686 1.581v3.644h13.894c0 0 0-2.155 0-2.731 0-0.857-1.687-1.664-3.67-2.494z" fill="#ffffff" />
</svg>
