<?xml version="1.0" encoding="utf-8"?>
<!-- Generated by IcoMoon.io -->
<!DOCTYPE svg PUBLIC "-//W3C//DTD SVG 1.1//EN" "http://www.w3.org/Graphics/SVG/1.1/DTD/svg11.dtd">
<svg version="1.1" xmlns="http://www.w3.org/2000/svg" xmlns:xlink="http://www.w3.org/1999/xlink" width="20" height="20" viewBox="0 0 20 20">
	<path d="M18 2h-16c-1.1 0-2 0.9-2 2v12c0 1.1 0.9 2 2 2h16c1.101 0 2-0.9 2-2v-12c0-1.1-0.899-2-2-2zM18 16h-16v-12h16v12zM9 12.1h-5v1.8h5v-1.8zM9 9.1h-5v1.8h5v-1.8zM9 6.1h-5v1.8h5v-1.8zM15.9 12.5c0 0-1.7-0.444-1.7-1.318 0-0.832 1.101-1.182 1.101-2.882 0-1.38-0.42-2.2-1.801-2.2s-1.8 0.819-1.8 2.2c0 1.7 1.1 2.050 1.1 2.882 0 0.874-1.699 1.318-1.699 1.318-0.101 0-0.101 1.4-0.101 1.4h5c0 0 0-1.4-0.1-1.4z" fill="#ffffff" />
</svg>
