<?xml version="1.0" encoding="utf-8"?>
<!-- Generated by IcoMoon.io -->
<!DOCTYPE svg PUBLIC "-//W3C//DTD SVG 1.1//EN" "http://www.w3.org/Graphics/SVG/1.1/DTD/svg11.dtd">
<svg version="1.1" xmlns="http://www.w3.org/2000/svg" xmlns:xlink="http://www.w3.org/1999/xlink" width="20" height="20" viewBox="0 0 20 20">
	<path d="M18.75 3.75h-0.554c-0.328 0-0.643 0.129-0.878 0.36l-1.693 1.67v-0.78c0-1.036-0.84-1.875-1.875-1.875h-11.875c-1.034 0-1.875 0.841-1.875 1.875v10c0 1.035 0.839 1.875 1.875 1.875h11.875c1.035 0 1.875-0.84 1.875-1.875v-0.763l1.693 1.67c0.234 0.231 0.549 0.36 0.878 0.36h0.554c0.69 0 1.25-0.559 1.25-1.25v-10.017c0-0.691-0.56-1.25-1.25-1.25zM1.875 15.625c-0.345 0-0.625-0.281-0.625-0.625v-10c0-0.346 0.279-0.625 0.625-0.625h11.875c0.344 0 0.625 0.28 0.625 0.625v10c0 0.344-0.281 0.625-0.625 0.625h-11.875zM18.75 15.017h-0.625l-2.5-2.5v-0.017l-0.625-0.625v-3.75l3.125-3.125h0.625v10.017z" fill="#ffffff" />
</svg>
