<?xml version="1.0" encoding="utf-8"?>
<!-- Generated by IcoMoon.io -->
<!DOCTYPE svg PUBLIC "-//W3C//DTD SVG 1.1//EN" "http://www.w3.org/Graphics/SVG/1.1/DTD/svg11.dtd">
<svg version="1.1" xmlns="http://www.w3.org/2000/svg" xmlns:xlink="http://www.w3.org/1999/xlink" width="20" height="20" viewBox="0 0 20 20">
	<path d="M19.8 5v-1.2c0-0.442-0.359-0.8-0.8-0.8h-18c-0.442 0-0.8 0.358-0.8 0.8v1.2h2v2h-2v2h2v2h-2v2h2v2h-2v1.2c0 0.442 0.358 0.8 0.8 0.8h18c0.441 0 0.8-0.358 0.8-0.8v-1.2h-2v-2h2v-2h-2v-2h2v-2h-2v-2h2zM7.8 13v-6l5 3-5 3z" fill="#ffffff" />
</svg>
