<?xml version="1.0" encoding="utf-8"?>
<!-- Generated by IcoMoon.io -->
<!DOCTYPE svg PUBLIC "-//W3C//DTD SVG 1.1//EN" "http://www.w3.org/Graphics/SVG/1.1/DTD/svg11.dtd">
<svg version="1.1" xmlns="http://www.w3.org/2000/svg" xmlns:xlink="http://www.w3.org/1999/xlink" width="20" height="20" viewBox="0 0 20 20">
	<path d="M10 0.4c-5.302 0-9.6 4.298-9.6 9.6s4.298 9.6 9.6 9.6 9.6-4.298 9.6-9.6-4.298-9.6-9.6-9.6zM14.4 8.151c-0.508 2.917-3.348 5.386-4.201 5.95-0.854 0.563-1.633-0.227-1.916-0.823-0.323-0.681-1.293-4.374-1.547-4.679-0.254-0.307-1.015 0.305-1.015 0.305l-0.369-0.494c0 0 1.547-1.882 2.724-2.116 1.248-0.25 1.246 1.951 1.546 3.174 0.291 1.183 0.486 1.859 0.739 1.859 0.254 0 0.739-0.659 1.27-1.67 0.532-1.013-0.022-1.906-1.062-1.271 0.414-2.539 4.34-3.151 3.831-0.235z" fill="#ffffff" />
</svg>
