<?xml version="1.0" encoding="utf-8"?>
<!-- Generated by IcoMoon.io -->
<!DOCTYPE svg PUBLIC "-//W3C//DTD SVG 1.1//EN" "http://www.w3.org/Graphics/SVG/1.1/DTD/svg11.dtd">
<svg version="1.1" xmlns="http://www.w3.org/2000/svg" xmlns:xlink="http://www.w3.org/1999/xlink" width="20" height="20" viewBox="0 0 20 20">
	<path d="M0 6.023l0.812 1.065c0 0 1.675-1.32 2.234-0.66 0.558 0.66 2.69 8.632 3.402 10.102 0.621 1.29 2.334 2.995 4.213 1.777 1.878-1.218 8.122-6.549 9.24-12.844 1.117-6.293-7.514-4.975-8.428 0.508 2.285-1.372 3.505 0.557 2.335 2.742-1.167 2.182-2.234 3.605-2.792 3.605-0.557 0-0.986-1.46-1.625-4.013-0.66-2.639-0.656-7.392-3.401-6.853-2.588 0.508-5.99 4.57-5.99 4.57z" fill="#ffffff" />
</svg>
