<?xml version="1.0" encoding="utf-8"?>
<!-- Generated by IcoMoon.io -->
<!DOCTYPE svg PUBLIC "-//W3C//DTD SVG 1.1//EN" "http://www.w3.org/Graphics/SVG/1.1/DTD/svg11.dtd">
<svg version="1.1" xmlns="http://www.w3.org/2000/svg" xmlns:xlink="http://www.w3.org/1999/xlink" width="20" height="20" viewBox="0 0 20 20">
	<path d="M10 0c-5.523 0-10 4.477-10 10s4.477 10 10 10 10-4.477 10-10-4.477-10-10-10zM15.876 8.557c-0.663 3.736-4.369 6.9-5.484 7.623-1.115 0.723-2.132-0.289-2.501-1.055-0.422-0.873-1.688-5.604-2.019-5.996-0.331-0.391-1.326 0.392-1.326 0.392l-0.482-0.632c0 0 2.019-2.411 3.555-2.712 1.629-0.32 1.627 2.501 2.018 4.067 0.379 1.515 0.634 2.382 0.964 2.382 0.331 0 0.964-0.845 1.657-2.14 0.694-1.296-0.030-2.442-1.386-1.627 0.543-3.255 5.665-4.038 5.002-0.302z" fill="#ffffff" />
</svg>
