<?xml version="1.0" encoding="utf-8"?>
<!-- Generated by IcoMoon.io -->
<!DOCTYPE svg PUBLIC "-//W3C//DTD SVG 1.1//EN" "http://www.w3.org/Graphics/SVG/1.1/DTD/svg11.dtd">
<svg version="1.1" xmlns="http://www.w3.org/2000/svg" xmlns:xlink="http://www.w3.org/1999/xlink" width="20" height="20" viewBox="0 0 20 20">
	<path d="M18.91 5.841c-1.006 5.772-6.625 10.66-8.315 11.776-1.691 1.116-3.232-0.447-3.792-1.63-0.64-1.347-2.559-8.657-3.062-9.261-0.502-0.607-2.010 0.604-2.010 0.604l-0.731-0.976c0 0 3.062-3.725 5.392-4.19 2.47-0.493 2.466 3.864 3.060 6.283 0.575 2.341 0.961 3.681 1.462 3.681 0.503 0 1.462-1.306 2.513-3.307 1.053-2.003-0.045-3.771-2.102-2.514 0.822-5.028 8.591-6.237 7.585-0.466z" fill="#ffffff" />
</svg>
