<?xml version="1.0" encoding="utf-8"?>
<!-- Generated by IcoMoon.io -->
<!DOCTYPE svg PUBLIC "-//W3C//DTD SVG 1.1//EN" "http://www.w3.org/Graphics/SVG/1.1/DTD/svg11.dtd">
<svg version="1.1" xmlns="http://www.w3.org/2000/svg" xmlns:xlink="http://www.w3.org/1999/xlink" width="20" height="20" viewBox="0 0 20 20">
	<path d="M11.035 10.981c-0.308-0.179-0.735-0.179-1.083-0.179h-1.141v2.352h1.048c0.388 0 0.882 0.027 1.216-0.207 0.308-0.207 0.481-0.612 0.481-0.998 0-0.359-0.214-0.788-0.521-0.968zM10.604 8.974c0.254-0.193 0.387-0.539 0.387-0.856 0-0.345-0.16-0.676-0.453-0.855-0.308-0.179-0.869-0.138-1.23-0.138h-0.497v2.070h0.657c0.375-0.001 0.816 0.027 1.136-0.221zM16.225 0.4h-12.451c-1.863 0-3.374 1.511-3.374 3.375v12.449c0 1.864 1.511 3.375 3.374 3.375h12.45c1.864 0 3.375-1.511 3.375-3.375v-12.449c0.001-1.864-1.51-3.375-3.374-3.375zM10.521 14.907h-3.922v-9.467h4.285c1.241 0 2.387 0.79 2.387 2.184 0 1.076-0.601 1.813-1.367 2.043v0.027c1.137 0.234 1.948 0.852 1.948 2.341 0 1.378-0.939 2.872-3.331 2.872z" fill="#ffffff" />
</svg>
