<?xml version="1.0" encoding="utf-8"?>
<!-- Generated by IcoMoon.io -->
<!DOCTYPE svg PUBLIC "-//W3C//DTD SVG 1.1//EN" "http://www.w3.org/Graphics/SVG/1.1/DTD/svg11.dtd">
<svg version="1.1" xmlns="http://www.w3.org/2000/svg" xmlns:xlink="http://www.w3.org/1999/xlink" width="20" height="20" viewBox="0 0 20 20">
	<path d="M15.4 5.801c-2.541 0-4.601 2.060-4.601 4.6 0 0.965 0.298 1.86 0.806 2.6h-3.21c0.507-0.74 0.805-1.636 0.805-2.601 0-2.54-2.060-4.6-4.6-4.6s-4.6 2.060-4.6 4.6 2.060 4.6 4.6 4.6h10.8c2.54 0 4.6-2.060 4.6-4.6s-2.060-4.599-4.6-4.599zM2 10.4c0-1.436 1.164-2.6 2.6-2.6s2.6 1.164 2.6 2.6c0 1.437-1.164 2.6-2.6 2.6s-2.6-1.163-2.6-2.6zM15.4 13c-1.437 0-2.601-1.163-2.601-2.6 0-1.436 1.164-2.6 2.601-2.6 1.436 0 2.6 1.164 2.6 2.6 0 1.437-1.164 2.6-2.6 2.6z" fill="#ffffff" />
</svg>
