<?xml version="1.0" encoding="utf-8"?>
<!-- Generated by IcoMoon.io -->
<!DOCTYPE svg PUBLIC "-//W3C//DTD SVG 1.1//EN" "http://www.w3.org/Graphics/SVG/1.1/DTD/svg11.dtd">
<svg version="1.1" xmlns="http://www.w3.org/2000/svg" xmlns:xlink="http://www.w3.org/1999/xlink" width="21" height="20" viewBox="0 0 21 20">
	<path d="M17.384 18.009c-0.24 0-0.48-0.092-0.663-0.275-0.366-0.366-0.366-0.96 0-1.326 1.712-1.712 2.654-3.988 2.654-6.408 0-2.421-0.943-4.696-2.654-6.408-0.366-0.366-0.366-0.96 0-1.326 0.366-0.366 0.96-0.366 1.326 0 2.066 2.066 3.204 4.813 3.204 7.734 0 2.922-1.138 5.668-3.204 7.734-0.183 0.183-0.423 0.275-0.663 0.275zM14.053 16.241c-0.24 0-0.48-0.092-0.663-0.275-0.366-0.366-0.366-0.96 0-1.326 2.559-2.559 2.559-6.722 0-9.281-0.366-0.366-0.366-0.96 0-1.326 0.366-0.366 0.96-0.366 1.326 0 1.594 1.594 2.471 3.712 2.471 5.966 0 2.254-0.878 4.373-2.471 5.966-0.183 0.183-0.423 0.275-0.663 0.275zM10.723 14.473c-0.24 0-0.48-0.092-0.663-0.275-0.366-0.366-0.366-0.96 0-1.326 1.584-1.584 1.584-4.161 0-5.745-0.366-0.366-0.366-0.96 0-1.326 0.366-0.366 0.96-0.366 1.326 0 2.315 2.315 2.315 6.082 0 8.397-0.183 0.183-0.423 0.275-0.663 0.275zM7.839 1.536c0.501-0.501 0.911-0.331 0.911 0.378v16.172c0 0.709-0.41 0.879-0.911 0.378l-4.714-4.713h-3.125v-7.5h3.125l4.714-4.714z" fill="#ffffff" />
</svg>
