<?xml version="1.0" encoding="utf-8"?>
<!-- Generated by IcoMoon.io -->
<!DOCTYPE svg PUBLIC "-//W3C//DTD SVG 1.1//EN" "http://www.w3.org/Graphics/SVG/1.1/DTD/svg11.dtd">
<svg version="1.1" xmlns="http://www.w3.org/2000/svg" xmlns:xlink="http://www.w3.org/1999/xlink" width="20" height="20" viewBox="0 0 20 20">
	<path d="M13.719 0.719c-5.126-2.053-10.947 0.439-13 5.566-2.054 5.128 0.439 10.949 5.566 13.001 5.127 2.053 10.947-0.439 13.001-5.566 2.054-5.128-0.439-10.947-5.566-13.001zM6.75 18.126c-4.479-1.794-6.664-6.896-4.871-11.376 1.794-4.479 6.897-6.664 11.376-4.87 4.479 1.793 6.664 6.896 4.871 11.375-1.794 4.479-6.897 6.664-11.376 4.871zM10.468 8.842c-0.641-0.257-1.369 0.055-1.626 0.696s0.055 1.368 0.695 1.625c0.641 0.257 1.369-0.055 1.626-0.695 0.256-0.641-0.055-1.368-0.695-1.626zM9.77 10.583c-0.32-0.129-0.476-0.492-0.348-0.813 0.129-0.32 0.493-0.476 0.813-0.348 0.319 0.128 0.475 0.492 0.348 0.813-0.128 0.32-0.492 0.476-0.813 0.348zM11.396 6.522c-1.923-0.77-4.105 0.165-4.875 2.087-0.77 1.922 0.165 4.105 2.087 4.875 1.922 0.77 4.105-0.164 4.875-2.087s-0.164-4.106-2.087-4.875zM9.074 12.323c-1.28-0.512-1.904-1.971-1.392-3.25 0.513-1.279 1.97-1.904 3.249-1.392 1.281 0.513 1.904 1.971 1.393 3.251-0.513 1.279-1.971 1.904-3.251 1.391zM14.645 11.861h-0.001c-0.511 1.274-1.489 2.223-2.66 2.729-0.004 0.002-0.007 0.007-0.013 0.009-0.159 0.067-0.342-0.006-0.41-0.165-0.068-0.158 0.006-0.342 0.164-0.409 1.029-0.441 1.891-1.274 2.34-2.396v0.001c0.064-0.161 0.246-0.239 0.406-0.174 0.16 0.064 0.238 0.246 0.174 0.406zM16.791 12.384c0.16 0.064 0.238 0.246 0.174 0.406-0.766 1.911-2.235 3.334-3.991 4.093-0.008 0.003-0.013 0.010-0.021 0.014-0.159 0.068-0.342-0.005-0.41-0.164-0.068-0.159 0.006-0.342 0.164-0.41 1.618-0.692 2.971-2.002 3.677-3.764 0.064-0.16 0.246-0.238 0.406-0.174zM15.63 11.919c0.16 0.064 0.238 0.246 0.174 0.406-0.638 1.593-1.863 2.778-3.325 3.41-0.007 0.004-0.011 0.009-0.017 0.013-0.159 0.068-0.342-0.006-0.41-0.164-0.068-0.159 0.006-0.343 0.165-0.411h-0.001c1.324-0.567 2.431-1.638 3.008-3.080 0.064-0.161 0.246-0.238 0.406-0.174zM8.446 5.57c0.068 0.159-0.006 0.343-0.164 0.411-1.029 0.44-1.891 1.274-2.339 2.395h-0.001c-0.064 0.16-0.246 0.238-0.406 0.174-0.16-0.064-0.238-0.246-0.174-0.406h0.001c0.51-1.274 1.489-2.223 2.66-2.729 0.004-0.002 0.008-0.007 0.013-0.009 0.159-0.068 0.342 0.004 0.411 0.164zM7.461 3.272c0.068 0.159-0.006 0.342-0.164 0.411-1.617 0.692-2.971 2.002-3.677 3.764-0.064 0.161-0.246 0.238-0.406 0.174-0.161-0.064-0.239-0.246-0.174-0.407 0.766-1.911 2.234-3.334 3.991-4.093 0.006-0.003 0.012-0.010 0.019-0.013 0.159-0.067 0.343 0.006 0.411 0.164zM7.789 4.831v0.002c-1.323 0.566-2.431 1.638-3.008 3.080-0.064 0.161-0.246 0.238-0.406 0.174-0.159-0.065-0.238-0.246-0.173-0.407 0.637-1.592 1.862-2.779 3.325-3.411 0.006-0.002 0.010-0.009 0.016-0.011 0.159-0.068 0.342 0.006 0.411 0.164 0.068 0.159-0.006 0.343-0.164 0.41z" fill="#ffffff" />
</svg>
