<?xml version="1.0" encoding="utf-8"?>
<!-- Generated by IcoMoon.io -->
<!DOCTYPE svg PUBLIC "-//W3C//DTD SVG 1.1//EN" "http://www.w3.org/Graphics/SVG/1.1/DTD/svg11.dtd">
<svg version="1.1" xmlns="http://www.w3.org/2000/svg" xmlns:xlink="http://www.w3.org/1999/xlink" width="20" height="20" viewBox="0 0 20 20">
	<path d="M5 3.75l-2.5-2.5h-1.25v1.25l2.5 2.5zM6.25 0h1.25v2.5h-1.25zM11.25 6.25h2.5v1.25h-2.5zM12.5 2.5v-1.25h-1.25l-2.5 2.5 1.25 1.25zM0 6.25h2.5v1.25h-2.5zM6.25 11.25h1.25v2.5h-1.25zM1.25 11.25v1.25h1.25l2.5-2.5-1.25-1.25zM19.727 17.227l-12.424-12.424c-0.365-0.365-0.961-0.365-1.326 0l-1.174 1.174c-0.365 0.365-0.365 0.961 0 1.326l12.424 12.424c0.365 0.365 0.961 0.365 1.326 0l1.174-1.174c0.365-0.365 0.365-0.961 0-1.326zM9.375 10.625l-3.75-3.75 1.25-1.25 3.75 3.75-1.25 1.25z" fill="#ffffff" />
</svg>
