<?xml version="1.0" encoding="utf-8"?>
<!-- Generated by IcoMoon.io -->
<!DOCTYPE svg PUBLIC "-//W3C//DTD SVG 1.1//EN" "http://www.w3.org/Graphics/SVG/1.1/DTD/svg11.dtd">
<svg version="1.1" xmlns="http://www.w3.org/2000/svg" xmlns:xlink="http://www.w3.org/1999/xlink" width="20" height="20" viewBox="0 0 20 20">
	<path d="M10 3.1l-6.735 14.4h13.47l-6.735-14.4zM10 0v0c0.431 0 0.862 0.291 1.189 0.872l8.537 17.014c0.654 1.163 0.098 2.114-1.236 2.114h-16.979c-1.334 0-1.89-0.951-1.236-2.114l8.537-17.014c0.327-0.581 0.758-0.872 1.189-0.872zM8.75 15c0-0.69 0.56-1.25 1.25-1.25s1.25 0.56 1.25 1.25c0 0.69-0.56 1.25-1.25 1.25-0.69 0-1.25-0.56-1.25-1.25zM10 7.5c0.69 0 1.25 0.56 1.25 1.25l-0.391 3.75h-1.719l-0.391-3.75c0-0.69 0.56-1.25 1.25-1.25z" fill="#ffffff" />
</svg>
