<?xml version="1.0" encoding="utf-8"?>
<!-- Generated by IcoMoon.io -->
<!DOCTYPE svg PUBLIC "-//W3C//DTD SVG 1.1//EN" "http://www.w3.org/Graphics/SVG/1.1/DTD/svg11.dtd">
<svg version="1.1" xmlns="http://www.w3.org/2000/svg" xmlns:xlink="http://www.w3.org/1999/xlink" width="20" height="20" viewBox="0 0 20 20">
	<path d="M8.051 9.998c-0.932-0.479-1.838-0.722-2.693-0.722-0.116 0-0.233 0.004-0.351 0.014-1.091 0.090-2.088 0.378-2.729 0.602-0.17 0.062-0.344 0.128-0.524 0.201l-1.754 6.082c1.205-0.446 2.271-0.663 3.247-0.663 1.579 0 2.725 0.59 3.672 1.197 0.448-1.522 1.524-5.197 1.845-6.295-0.233-0.142-0.47-0.285-0.713-0.416zM10.319 11.544l-1.767 6.136c0.524 0.3 2.287 1.251 3.637 1.251 1.090 0 2.31-0.279 3.727-0.855l1.687-5.898c-1.145 0.37-2.244 0.557-3.271 0.557-1.874 0-3.186-0.607-4.014-1.19zM5.719 7.203c1.506 0.016 2.62 0.59 3.543 1.182l1.812-6.198c-0.382-0.219-1.383-0.764-2.107-0.949-0.476-0.111-0.977-0.168-1.508-0.168-1.012 0.019-2.117 0.272-3.377 0.777l-1.727 6.066c1.266-0.477 2.356-0.71 3.361-0.71 0.001 0 0.003 0 0.003 0zM20 3.87c-1.149 0.446-2.27 0.673-3.34 0.673-1.791 0-3.111-0.621-3.967-1.218l-1.796 6.216c1.206 0.776 2.506 1.169 3.87 1.169 1.112 0 2.264-0.267 3.427-0.795l-0.004-0.043 0.073-0.017 1.737-5.985z" fill="#ffffff" />
</svg>
