<?xml version="1.0" encoding="utf-8"?>
<!-- Generated by IcoMoon.io -->
<!DOCTYPE svg PUBLIC "-//W3C//DTD SVG 1.1//EN" "http://www.w3.org/Graphics/SVG/1.1/DTD/svg11.dtd">
<svg version="1.1" xmlns="http://www.w3.org/2000/svg" xmlns:xlink="http://www.w3.org/1999/xlink" width="20" height="20" viewBox="0 0 20 20">
	<path d="M18.75 15h-1.25v-12.5h-12.5v-1.25c0-0.691 0.559-1.25 1.25-1.25h12.5c0.691 0 1.25 0.559 1.25 1.25v12.5c0 0.691-0.559 1.25-1.25 1.25zM16.25 5v13.75c0 0.691-0.559 1.25-1.25 1.25h-13.75c-0.691 0-1.25-0.559-1.25-1.25v-13.75c0-0.691 0.559-1.25 1.25-1.25h13.75c0.691 0 1.25 0.559 1.25 1.25zM13.75 6.25h-11.25v3.75h11.25v-3.75zM13.75 12.5h-11.25v5h11.25v-5zM5 8.75h-1.25v-1.25h1.25v1.25zM7.5 8.75h-1.25v-1.25h1.25v1.25zM12.5 8.75h-3.75v-1.25h3.75v1.25z" fill="#ffffff" />
</svg>
