<?xml version="1.0" encoding="utf-8"?>
<!-- Generated by IcoMoon.io -->
<!DOCTYPE svg PUBLIC "-//W3C//DTD SVG 1.1//EN" "http://www.w3.org/Graphics/SVG/1.1/DTD/svg11.dtd">
<svg version="1.1" xmlns="http://www.w3.org/2000/svg" xmlns:xlink="http://www.w3.org/1999/xlink" width="20" height="20" viewBox="0 0 20 20">
	<path d="M10 20c5.523 0 10-4.477 10-10s-4.477-10-10-10-10 4.477-10 10 4.477 10 10 10zM10 1.875c4.487 0 8.125 3.638 8.125 8.125s-3.638 8.125-8.125 8.125-8.125-3.638-8.125-8.125 3.638-8.125 8.125-8.125zM10.6 13.887c2.739-0.541 4.865-1.788 5.634-3.449-0.423 3.28-3.155 5.812-6.462 5.812-2.329 0-4.372-1.256-5.525-3.144 1.375 1.075 3.799 1.285 6.353 0.781zM12.5 6.875c0-1.036 0.56-1.875 1.25-1.875s1.25 0.839 1.25 1.875c0 1.036-0.56 1.875-1.25 1.875-0.69 0-1.25-0.839-1.25-1.875zM6.875 7.256c-0.816 0-1.51 0.306-1.768 0.732-0.069-0.115-0.107-0.628-0.107-0.757 0-0.607 0.839-1.099 1.875-1.099 1.036 0 1.875 0.492 1.875 1.099 0 0.128-0.038 0.642-0.107 0.757-0.257-0.427-0.952-0.732-1.768-0.732z" fill="#ffffff" />
</svg>
