<?xml version="1.0" encoding="utf-8"?>
<!-- Generated by IcoMoon.io -->
<!DOCTYPE svg PUBLIC "-//W3C//DTD SVG 1.1//EN" "http://www.w3.org/Graphics/SVG/1.1/DTD/svg11.dtd">
<svg version="1.1" xmlns="http://www.w3.org/2000/svg" xmlns:xlink="http://www.w3.org/1999/xlink" width="20" height="20" viewBox="0 0 20 20">
	<path d="M10 0c-5.523 0-10 4.477-10 10 0 5.523 4.477 10 10 10 5.523 0 10-4.477 10-10 0-5.523-4.477-10-10-10zM13.75 5c0.69 0 1.25 0.839 1.25 1.875s-0.56 1.875-1.25 1.875-1.25-0.839-1.25-1.875 0.56-1.875 1.25-1.875zM6.875 6.095c1.165 0 1.992 0.436 1.992 1.119 0 0.144 0.074 0.84-0.003 0.969-0.29-0.48-1.071-0.824-1.989-0.824s-1.699 0.344-1.989 0.824c-0.078-0.129-0.003-0.824-0.003-0.969 0-0.683 0.827-1.119 1.992-1.119zM9.772 16.25c-2.329 0-4.372-1.255-5.525-3.144 1.375 1.075 3.799 1.285 6.353 0.781 2.739-0.541 4.865-1.788 5.634-3.449-0.423 3.28-3.155 5.812-6.462 5.812z" fill="#ffffff" />
</svg>
