<?xml version="1.0" encoding="utf-8"?>
<!-- Generated by IcoMoon.io -->
<!DOCTYPE svg PUBLIC "-//W3C//DTD SVG 1.1//EN" "http://www.w3.org/Graphics/SVG/1.1/DTD/svg11.dtd">
<svg version="1.1" xmlns="http://www.w3.org/2000/svg" xmlns:xlink="http://www.w3.org/1999/xlink" width="20" height="20" viewBox="0 0 20 20">
	<path d="M10.132 10.639l2.305 6.151c0.015 0.036 0.034 0.069 0.054 0.101-0.78 0.267-1.617 0.414-2.491 0.414-0.736 0-1.447-0.105-2.119-0.298l2.251-6.368zM17.5 10c0 2.695-1.5 5.047-3.729 6.314l2.291-6.451c0.428-1.042 0.57-1.875 0.57-2.616 0-0.269-0.018-0.519-0.051-0.751 0.586 1.040 0.919 2.234 0.919 3.504zM2.5 10c0-1.059 0.233-2.064 0.649-2.973l3.578 9.547c-2.502-1.184-4.227-3.683-4.227-6.574zM3.734 5.988c1.341-1.983 3.646-3.292 6.266-3.292 1.953 0 3.73 0.727 5.065 1.918-0.032-0.002-0.064-0.006-0.097-0.006-0.737 0-1.259 0.625-1.259 1.296 0 0.602 0.357 1.111 0.737 1.713 0.285 0.486 0.618 1.111 0.618 2.014 0 0.625-0.247 1.351-0.571 2.361l-0.748 2.434-2.711-7.852c0.451-0.023 0.858-0.069 0.858-0.069 0.404-0.047 0.357-0.625-0.048-0.602 0 0-1.215 0.093-1.999 0.093-0.737 0-1.975-0.093-1.975-0.093-0.404-0.023-0.452 0.579-0.048 0.602 0 0 0.383 0.046 0.787 0.069l1.168 3.118-1.641 4.794-2.731-7.912c0.452-0.023 0.858-0.069 0.858-0.069 0.404-0.047 0.356-0.625-0.048-0.602 0 0-1.215 0.093-1.999 0.093-0.141 0-0.307-0.003-0.483-0.009zM16.641 0h-13.281c-1.848 0-3.359 1.512-3.359 3.359v13.281c0 1.848 1.512 3.359 3.359 3.359h13.281c1.848 0 3.359-1.512 3.359-3.359v-13.281c0-1.848-1.512-3.359-3.359-3.359zM18.75 10c0 4.832-3.918 8.75-8.75 8.75s-8.75-3.918-8.75-8.75 3.918-8.75 8.75-8.75 8.75 3.918 8.75 8.75z" fill="#ffffff" />
</svg>
