<?xml version="1.0" encoding="utf-8"?>
<!-- Generated by IcoMoon.io -->
<!DOCTYPE svg PUBLIC "-//W3C//DTD SVG 1.1//EN" "http://www.w3.org/Graphics/SVG/1.1/DTD/svg11.dtd">
<svg version="1.1" xmlns="http://www.w3.org/2000/svg" xmlns:xlink="http://www.w3.org/1999/xlink" width="20" height="20" viewBox="0 0 20 20">
	<path d="M2.5 10c0 2.891 1.725 5.39 4.227 6.574l-3.578-9.547c-0.416 0.908-0.649 1.914-0.649 2.973zM15.063 9.631c0-0.903-0.333-1.528-0.618-2.014-0.38-0.602-0.737-1.111-0.737-1.713 0-0.671 0.523-1.296 1.259-1.296 0.033 0 0.065 0.004 0.097 0.006-1.334-1.191-3.112-1.918-5.065-1.918-2.62 0-4.926 1.309-6.266 3.292 0.176 0.006 0.342 0.009 0.483 0.009 0.784 0 1.999-0.093 1.999-0.093 0.404-0.023 0.452 0.555 0.048 0.602 0 0-0.406 0.046-0.858 0.069l2.731 7.912 1.641-4.794-1.168-3.118c-0.404-0.023-0.787-0.069-0.787-0.069-0.404-0.023-0.357-0.625 0.048-0.602 0 0 1.238 0.093 1.975 0.093 0.784 0 1.999-0.093 1.999-0.093 0.404-0.023 0.452 0.555 0.048 0.602 0 0-0.407 0.046-0.858 0.069l2.711 7.852 0.748-2.434c0.324-1.011 0.571-1.736 0.571-2.361zM10.132 10.639l-2.251 6.368c0.672 0.193 1.383 0.298 2.119 0.298 0.873 0 1.711-0.147 2.491-0.414-0.020-0.031-0.039-0.065-0.054-0.101l-2.305-6.151zM16.581 6.496c0.032 0.233 0.051 0.482 0.051 0.751 0 0.741-0.142 1.574-0.57 2.616l-2.291 6.451c2.23-1.266 3.729-3.619 3.729-6.314 0-1.27-0.333-2.464-0.919-3.504zM10 0c-5.523 0-10 4.477-10 10s4.477 10 10 10 10-4.477 10-10-4.477-10-10-10zM10 18.75c-4.832 0-8.75-3.918-8.75-8.75s3.918-8.75 8.75-8.75 8.75 3.918 8.75 8.75-3.918 8.75-8.75 8.75z" fill="#ffffff" />
</svg>
