<?xml version="1.0" encoding="utf-8"?>
<!-- Generated by IcoMoon.io -->
<!DOCTYPE svg PUBLIC "-//W3C//DTD SVG 1.1//EN" "http://www.w3.org/Graphics/SVG/1.1/DTD/svg11.dtd">
<svg version="1.1" xmlns="http://www.w3.org/2000/svg" xmlns:xlink="http://www.w3.org/1999/xlink" width="20" height="20" viewBox="0 0 20 20">
	<path d="M19.589 15.974l-8.995-7.71c0.419-0.787 0.657-1.685 0.657-2.639 0-3.107-2.518-5.625-5.625-5.625-0.568 0-1.117 0.085-1.634 0.241l3.25 3.25c0.486 0.486 0.486 1.282 0 1.768l-1.982 1.982c-0.486 0.486-1.282 0.486-1.768 0l-3.25-3.25c-0.157 0.517-0.241 1.065-0.241 1.634 0 3.107 2.518 5.625 5.625 5.625 0.954 0 1.852-0.238 2.639-0.657l7.71 8.995c0.447 0.522 1.211 0.551 1.697 0.065l1.982-1.982c0.486-0.486 0.457-1.25-0.065-1.697z" fill="#ffffff" />
</svg>
