<?xml version="1.0" encoding="utf-8"?>
<!-- Generated by IcoMoon.io -->
<!DOCTYPE svg PUBLIC "-//W3C//DTD SVG 1.1//EN" "http://www.w3.org/Graphics/SVG/1.1/DTD/svg11.dtd">
<svg version="1.1" xmlns="http://www.w3.org/2000/svg" xmlns:xlink="http://www.w3.org/1999/xlink" width="20" height="20" viewBox="0 0 20 20">
	<path d="M16.667 0h-13.333c-1.833 0-3.334 1.5-3.334 3.334v13.332c0 1.835 1.5 3.334 3.334 3.334h13.333c1.834 0 3.333-1.499 3.333-3.334v-13.332c0-1.834-1.5-3.334-3.333-3.334zM6.089 13.023h-2.173c-0.131 0-0.229-0.059-0.284-0.148-0.057-0.093-0.060-0.213 0-0.333l2.309-4.075c0.002-0.004 0.002-0.007 0-0.012l-1.469-2.544c-0.061-0.121-0.070-0.241-0.012-0.333 0.055-0.090 0.165-0.136 0.296-0.136h2.173c0.333 0 0.497 0.215 0.605 0.407 0 0 1.485 2.591 1.494 2.605-0.088 0.155-2.346 4.149-2.346 4.149-0.111 0.2-0.268 0.42-0.593 0.42zM16.365 2.94l-4.812 8.507c-0.003 0.004-0.003 0.010 0 0.014l3.064 5.597c0.061 0.12 0.062 0.243 0.004 0.336-0.055 0.089-0.158 0.139-0.288 0.139h-2.171c-0.333 0-0.499-0.221-0.607-0.414 0 0-3.080-5.65-3.088-5.665 0.154-0.273 4.836-8.575 4.836-8.575 0.117-0.209 0.257-0.414 0.582-0.414h2.195c0.131 0 0.234 0.049 0.289 0.139 0.057 0.093 0.056 0.215-0.004 0.335z" fill="#ffffff" />
</svg>
