<?xml version="1.0" encoding="utf-8"?>
<!-- Generated by IcoMoon.io -->
<!DOCTYPE svg PUBLIC "-//W3C//DTD SVG 1.1//EN" "http://www.w3.org/Graphics/SVG/1.1/DTD/svg11.dtd">
<svg version="1.1" xmlns="http://www.w3.org/2000/svg" xmlns:xlink="http://www.w3.org/1999/xlink" width="20" height="20" viewBox="0 0 20 20">
	<path d="M10 0c-5.523 0-10 4.477-10 10s4.477 10 10 10 10-4.477 10-10-4.477-10-10-10zM6.748 12.508h-1.807c-0.109 0-0.19-0.049-0.236-0.123-0.048-0.077-0.050-0.177 0-0.277l1.92-3.38c0.002-0.004 0.002-0.006 0-0.010l-1.222-2.11c-0.051-0.1-0.058-0.199-0.010-0.277 0.046-0.075 0.138-0.113 0.246-0.113h1.807c0.277 0 0.413 0.178 0.503 0.338 0 0 1.235 2.149 1.243 2.161-0.073 0.129-1.951 3.442-1.951 3.442-0.092 0.166-0.223 0.348-0.493 0.348zM15.294 4.143l-4.002 7.057c-0.002 0.004-0.002 0.008 0 0.012l2.548 4.644c0.051 0.1 0.052 0.202 0.004 0.279-0.046 0.074-0.131 0.115-0.24 0.115h-1.805c-0.277 0-0.415-0.184-0.505-0.343 0 0-2.562-4.687-2.568-4.699 0.128-0.226 4.022-7.114 4.022-7.114 0.097-0.174 0.214-0.343 0.484-0.343h1.826c0.109 0 0.194 0.041 0.24 0.115 0.048 0.077 0.046 0.179-0.004 0.278z" fill="#ffffff" />
</svg>
