<?xml version="1.0" encoding="utf-8"?>
<!-- Generated by IcoMoon.io -->
<!DOCTYPE svg PUBLIC "-//W3C//DTD SVG 1.1//EN" "http://www.w3.org/Graphics/SVG/1.1/DTD/svg11.dtd">
<svg version="1.1" xmlns="http://www.w3.org/2000/svg" xmlns:xlink="http://www.w3.org/1999/xlink" width="20" height="20" viewBox="0 0 20 20">
	<path d="M16.563 12.5l-0.29-8.125c-0.012-0.344 0.259-0.625 0.603-0.625h2.5c0.344 0 0.576 0.277 0.515 0.615l-1.453 8.135M18.75 15.156c0 0.602-0.492 1.094-1.094 1.094h-0.313c-0.602 0-1.094-0.492-1.094-1.094v-0.313c0-0.602 0.492-1.094 1.094-1.094h0.313c0.602 0 1.094 0.492 1.094 1.094v0.313zM7.5 3.75c-4.142 0-7.5 2.798-7.5 6.25 0 3.452 3.358 6.25 7.5 6.25 4.142 0 7.5-2.798 7.5-6.25 0-3.452-3.358-6.25-7.5-6.25zM12.5 8.75h-1.45l-2.3 2.3v1.45h1.875v1.25h-5v-1.25h1.875v-1.45l-3.55-3.55h-0.822v-1.25h3.742v1.25h-0.822l2.075 2.075 0.625-0.625v-1.45h3.75v1.25z" fill="#ffffff" />
</svg>
