<?xml version="1.0" encoding="utf-8"?>
<!-- Generated by IcoMoon.io -->
<!DOCTYPE svg PUBLIC "-//W3C//DTD SVG 1.1//EN" "http://www.w3.org/Graphics/SVG/1.1/DTD/svg11.dtd">
<svg version="1.1" xmlns="http://www.w3.org/2000/svg" xmlns:xlink="http://www.w3.org/1999/xlink" width="20" height="20" viewBox="0 0 20 20">
	<path d="M11.892 12.763c-0.338 0.34-0.052 0.96-0.052 0.96l2.541 4.243c0 0 0.417 0.559 0.779 0.559 0.363 0 0.722-0.298 0.722-0.298l2.009-2.871c0 0 0.202-0.362 0.207-0.68 0.007-0.451-0.673-0.575-0.673-0.575l-4.756-1.527c-0 0-0.466-0.124-0.776 0.19zM11.651 10.625c0.243 0.413 0.915 0.292 0.915 0.292l4.745-1.387c0 0 0.647-0.263 0.739-0.614 0.091-0.351-0.107-0.774-0.107-0.774l-2.268-2.671c0 0-0.197-0.338-0.604-0.372-0.45-0.038-0.726 0.506-0.726 0.506l-2.681 4.219c0 0-0.237 0.42-0.013 0.8zM9.409 8.98c0.559-0.138 0.647-0.949 0.647-0.949l-0.038-6.755c0 0-0.084-0.833-0.459-1.059-0.587-0.356-0.761-0.17-0.93-0.145l-3.939 1.464c0 0-0.386 0.128-0.587 0.45-0.287 0.456 0.292 1.124 0.292 1.124l4.095 5.581c0 0 0.404 0.418 0.919 0.291zM8.436 11.714c0.014-0.521-0.626-0.834-0.626-0.834l-4.234-2.139c0 0-0.627-0.259-0.932-0.078-0.233 0.138-0.44 0.387-0.46 0.608l-0.276 3.395c0 0-0.041 0.588 0.111 0.856 0.216 0.38 0.926 0.115 0.926 0.115l4.943-1.093c0.192-0.129 0.529-0.141 0.547-0.83zM9.666 13.546c-0.424-0.218-0.932 0.233-0.932 0.233l-3.31 3.644c0 0-0.413 0.557-0.308 0.899 0.099 0.321 0.263 0.48 0.494 0.592l3.324 1.049c0 0 0.403 0.084 0.708-0.005 0.433-0.126 0.353-0.804 0.353-0.804l0.075-4.934c-0 0-0.017-0.475-0.405-0.676z" fill="#ffffff" />
</svg>
