<?xml version="1.0" encoding="utf-8"?>
<!-- Generated by IcoMoon.io -->
<!DOCTYPE svg PUBLIC "-//W3C//DTD SVG 1.1//EN" "http://www.w3.org/Graphics/SVG/1.1/DTD/svg11.dtd">
<svg version="1.1" xmlns="http://www.w3.org/2000/svg" xmlns:xlink="http://www.w3.org/1999/xlink" width="20" height="20" viewBox="0 0 20 20">
	<path d="M16.25 2.5h-12.5c-2.063 0-3.75 1.688-3.75 3.75v7.5c0 2.063 1.688 3.75 3.75 3.75h12.5c2.063 0 3.75-1.688 3.75-3.75v-7.5c0-2.063-1.688-3.75-3.75-3.75zM18.75 13.75c0 0.664-0.261 1.29-0.735 1.765-0.474 0.474-1.101 0.735-1.765 0.735h-12.5c-0.664 0-1.29-0.261-1.765-0.735-0.474-0.474-0.735-1.101-0.735-1.765v-7.5c0-0.664 0.261-1.29 0.735-1.765s1.101-0.735 1.765-0.735h12.5c0.664 0 1.29 0.261 1.765 0.735 0.474 0.474 0.735 1.101 0.735 1.765v7.5zM7.5 15l6.25-5-6.25-5z" fill="#ffffff" />
</svg>
