<?xml version="1.0" encoding="utf-8"?>
<!-- Generated by IcoMoon.io -->
<!DOCTYPE svg PUBLIC "-//W3C//DTD SVG 1.1//EN" "http://www.w3.org/Graphics/SVG/1.1/DTD/svg11.dtd">
<svg version="1.1" xmlns="http://www.w3.org/2000/svg" xmlns:xlink="http://www.w3.org/1999/xlink" width="20" height="20" viewBox="0 0 20 20">
	<path d="M19.45 16.793l-3.315-3.314c0.874-1.363 1.395-2.974 1.395-4.714 0-4.841-3.924-8.765-8.765-8.765-4.84 0-8.765 3.924-8.765 8.765s3.925 8.765 8.765 8.765c1.739 0 3.35-0.522 4.713-1.395l3.315 3.315c0.734 0.734 1.923 0.734 2.657 0 0.734-0.734 0.734-1.923 0-2.657zM8.765 15.026c-3.457 0-6.261-2.803-6.261-6.261 0-3.457 2.803-6.261 6.261-6.261 3.458 0 6.261 2.803 6.261 6.261 0 3.458-2.803 6.261-6.261 6.261zM5.009 10.017h7.513v-2.504h-7.513v2.504z" fill="#ffffff" />
</svg>
