<?xml version="1.0" encoding="utf-8"?>
<!-- Generated by IcoMoon.io -->
<!DOCTYPE svg PUBLIC "-//W3C//DTD SVG 1.1//EN" "http://www.w3.org/Graphics/SVG/1.1/DTD/svg11.dtd">
<svg version="1.1" xmlns="http://www.w3.org/2000/svg" xmlns:xlink="http://www.w3.org/1999/xlink" width="20" height="20" viewBox="0 0 20 20">
	<path d="M19.45 19.45c-0.734 0.734-1.923 0.734-2.657 0l-3.315-3.315c-1.363 0.874-2.974 1.395-4.713 1.395-4.84 0-8.765-3.924-8.765-8.765s3.925-8.765 8.765-8.765c4.841 0 8.765 3.924 8.765 8.765 0 1.739-0.522 3.35-1.395 4.714l3.315 3.314c0.734 0.734 0.734 1.923 0 2.657zM8.765 2.504c-3.457 0-6.261 2.803-6.261 6.261 0 3.458 2.803 6.261 6.261 6.261 3.458 0 6.261-2.803 6.261-6.261 0-3.457-2.803-6.261-6.261-6.261zM10.017 12.521h-2.504v-2.504h-2.504v-2.504h2.504v-2.504h2.504v2.504h2.504v2.504h-2.504v2.504z" fill="#ffffff" />
</svg>
