<?xml version="1.0" encoding="utf-8"?>
<!-- Generated by IcoMoon.io -->
<!DOCTYPE svg PUBLIC "-//W3C//DTD SVG 1.1//EN" "http://www.w3.org/Graphics/SVG/1.1/DTD/svg11.dtd">
<svg version="1.1" xmlns="http://www.w3.org/2000/svg" xmlns:xlink="http://www.w3.org/1999/xlink" width="720" height="76" viewBox="0 0 720 76">
<g transform="translate(0 0)">
	<path d="M27.932 2.187l-0.118-0.118c-2.758-2.758-7.271-2.758-10.029 0l-6.39 6.391c-2.758 2.758-2.758 7.271 0 10.029l0.118 0.118c0.229 0.23 0.473 0.437 0.725 0.629l2.339-2.339c-0.273-0.161-0.531-0.354-0.765-0.588l-0.118-0.118c-1.497-1.497-1.497-3.934 0-5.431l6.39-6.39c1.498-1.498 3.934-1.498 5.431 0l0.118 0.118c1.497 1.498 1.497 3.934 0 5.431l-2.891 2.891c0.502 1.239 0.74 2.561 0.719 3.878l4.471-4.471c2.758-2.758 2.758-7.271-0-10.029zM18.488 11.395c-0.229-0.229-0.473-0.437-0.725-0.628l-2.339 2.339c0.273 0.161 0.531 0.354 0.765 0.588l0.118 0.118c1.498 1.498 1.498 3.934 0 5.431l-6.391 6.391c-1.498 1.497-3.934 1.497-5.431 0l-0.118-0.118c-1.497-1.498-1.497-3.934 0-5.431l2.891-2.891c-0.502-1.239-0.74-2.561-0.719-3.878l-4.471 4.471c-2.758 2.758-2.758 7.271 0 10.029l0.118 0.118c2.758 2.758 7.271 2.758 10.029 0l6.39-6.39c2.758-2.758 2.758-7.271 0-10.029l-0.118-0.118z" fill="#ffffff" />
</g>
<g transform="translate(46 0)">
	<path d="M11.25 1.875h18.75v3.75h-18.75v-3.75zM11.25 13.125h18.75v3.75h-18.75v-3.75zM11.25 24.375h18.75v3.75h-18.75v-3.75zM0 3.75c0-2.071 1.679-3.75 3.75-3.75s3.75 1.679 3.75 3.75c0 2.071-1.679 3.75-3.75 3.75-2.071 0-3.75-1.679-3.75-3.75zM0 15c0-2.071 1.679-3.75 3.75-3.75s3.75 1.679 3.75 3.75c0 2.071-1.679 3.75-3.75 3.75-2.071 0-3.75-1.679-3.75-3.75zM0 26.25c0-2.071 1.679-3.75 3.75-3.75s3.75 1.679 3.75 3.75c0 2.071-1.679 3.75-3.75 3.75-2.071 0-3.75-1.679-3.75-3.75z" fill="#ffffff" />
</g>
<g transform="translate(92 0)">
	<path d="M11.25 24.375h18.75v3.75h-18.75zM11.25 13.125h18.75v3.75h-18.75zM11.25 1.875h18.75v3.75h-18.75zM5.625 0v7.5h-1.875v-5.625h-1.875v-1.875zM3.75 15.41v1.465h3.75v1.875h-5.625v-4.277l3.75-1.758v-1.465h-3.75v-1.875h5.625v4.277zM7.5 20.625v9.375h-5.625v-1.875h3.75v-1.875h-3.75v-1.875h3.75v-1.875h-3.75v-1.875z" fill="#ffffff" />
</g>
<g transform="translate(138 0)">
	<path d="M0 0v30h30v-30h-30zM28.125 28.125h-26.25v-26.25h26.25v26.25z" fill="#ffffff" />
</g>
<g transform="translate(184 0)">
	<path d="M0 5.625h30v1.875h-30zM5.625 9.375h18.75v1.875h-18.75zM5.625 16.875h18.75v1.875h-18.75zM5.625 24.375h18.75v1.875h-18.75zM0 13.125h30v1.875h-30zM0 20.625h30v1.875h-30z" fill="#ffffff" />
</g>
<g transform="translate(230 0)">
	<path d="M20.739 14.199c1.099-1.305 1.761-2.989 1.761-4.824 0-4.136-3.365-7.5-7.5-7.5h-9.375v26.25h11.25c4.135 0 7.5-3.365 7.5-7.5 0-2.723-1.459-5.112-3.636-6.426zM11.25 5.625h2.974c1.64 0 2.974 1.682 2.974 3.75s-1.334 3.75-2.974 3.75h-2.974v-7.5zM15.908 24.375h-4.658v-7.5h4.658c1.712 0 3.105 1.682 3.105 3.75s-1.393 3.75-3.105 3.75z" fill="#ffffff" />
</g>
<g transform="translate(276 0)">
	<path d="M20.625 1.875h3.75v12.188c0 4.66-4.197 8.438-9.375 8.438-5.178 0-9.375-3.778-9.375-8.438v-12.188h3.75v12.188c0 1.177 0.534 2.306 1.505 3.179 1.081 0.973 2.544 1.509 4.12 1.509 1.576 0 3.040-0.536 4.12-1.509 0.97-0.873 1.505-2.002 1.505-3.179v-12.188zM5.625 24.375h18.75v3.75h-18.75z" fill="#ffffff" />
</g>
<g transform="translate(322 0)">
	<path d="M26.25 1.875v1.875h-3.75l-9.375 22.5h3.75v1.875h-13.125v-1.875h3.75l9.375-22.5h-3.75v-1.875z" fill="#ffffff" />
</g>
<g transform="translate(368 0)">
	<path d="M30 15v1.875h-6.87c0.806 1.128 1.245 2.423 1.245 3.75 0 2.077-1.074 4.073-2.947 5.477-1.739 1.304-4.022 2.023-6.428 2.023-2.406 0-4.689-0.718-6.428-2.023-1.873-1.404-2.947-3.401-2.947-5.477h3.75c0 2.033 2.576 3.75 5.625 3.75 3.049 0 5.625-1.717 5.625-3.75 0-2.033-2.576-3.75-5.625-3.75h-15v-1.875h8.775c-0.068-0.048-0.136-0.097-0.203-0.148-1.873-1.404-2.947-3.401-2.947-5.477 0-2.077 1.074-4.073 2.947-5.477 1.739-1.304 4.022-2.023 6.428-2.023 2.406 0 4.689 0.718 6.428 2.023 1.873 1.404 2.947 3.401 2.947 5.477h-3.75c0-2.033-2.576-3.75-5.625-3.75-3.049 0-5.625 1.717-5.625 3.75 0 2.033 2.576 3.75 5.625 3.75 2.314 0 4.513 0.664 6.225 1.875h8.775z" fill="#ffffff" />
</g>
<g transform="translate(414 0)">
	<path d="M3.75 15l7.5-7.5h-3.75l-7.5 7.5 7.5 7.5h3.75zM22.5 7.5h-3.75l7.5 7.5-7.5 7.5h3.75l7.5-7.5zM15.938 3.75l-4.688 22.5h2.813l4.688-22.5z" fill="#ffffff" />
</g>
<g transform="translate(460 0)">
	<path d="M26.248 18.56c-0-0.021-0.001-0.041-0.001-0.062-0.001-0.042-0.002-0.084-0.003-0.125-0.294-9.248-11.244-18.373-11.244-18.373s-10.95 9.125-11.244 18.373c-0.001 0.042-0.003 0.084-0.004 0.125-0 0.021-0.001 0.041-0.001 0.062-0.001 0.063-0.002 0.127-0.002 0.19 0 0.069 0.001 0.138 0.002 0.207 0 0.006 0 0.011 0 0.017 0.119 6.109 5.109 11.025 11.247 11.025 6.138 0 11.128-4.916 11.248-11.025 0-0.006 0-0.011 0-0.017 0.001-0.069 0.002-0.138 0.002-0.207 0-0.064-0.001-0.127-0.002-0.19zM22.499 18.889l-0 0.012c-0.039 1.971-0.836 3.818-2.245 5.202-1.41 1.385-3.276 2.148-5.253 2.148-0.365 0-0.726-0.026-1.082-0.077 4.074-2.427 6.803-6.876 6.803-11.963 0-0.57-0.035-1.132-0.101-1.684 1.18 2.166 1.818 4.184 1.875 5.966l0 0.004c0.001 0.028 0.002 0.055 0.002 0.083l0.001 0.042c0.001 0.043 0.001 0.085 0.001 0.128 0 0.046-0.001 0.093-0.001 0.139z" fill="#ffffff" />
</g>
<g transform="translate(506 0)">
	<path d="M30 16.875v-11.25h-5.625v-1.875c0-1.031-0.844-1.875-1.875-1.875h-20.625c-1.031 0-1.875 0.844-1.875 1.875v5.625c0 1.031 0.844 1.875 1.875 1.875h20.625c1.031 0 1.875-0.844 1.875-1.875v-1.875h3.75v7.5h-16.875v3.75h-0.938c-0.518 0-0.938 0.42-0.938 0.938v9.375c0 0.518 0.42 0.938 0.938 0.938h3.75c0.518 0 0.938-0.42 0.938-0.938v-9.375c0-0.518-0.42-0.938-0.938-0.938h-0.938v-1.875h16.875zM22.5 5.625h-20.625v-1.875h20.625v1.875z" fill="#ffffff" />
</g>
<g transform="translate(552 0)">
	<path d="M0 3.75v24.375h30v-24.375h-30zM28.125 26.25h-26.25v-20.625h26.25v20.625zM20.625 10.313c0-1.553 1.259-2.813 2.813-2.813s2.813 1.259 2.813 2.813c0 1.553-1.259 2.813-2.813 2.813-1.553 0-2.813-1.259-2.813-2.813zM26.25 24.375h-22.5l5.625-15 7.5 9.375 3.75-2.813z" fill="#ffffff" />
</g>
<g transform="translate(598 0)">
	<path d="M0 3.75v22.5h30v-22.5h-30zM5.625 24.375h-3.75v-3.75h3.75v3.75zM5.625 16.875h-3.75v-3.75h3.75v3.75zM5.625 9.375h-3.75v-3.75h3.75v3.75zM22.5 24.375h-15v-18.75h15v18.75zM28.125 24.375h-3.75v-3.75h3.75v3.75zM28.125 16.875h-3.75v-3.75h3.75v3.75zM28.125 9.375h-3.75v-3.75h3.75v3.75zM11.25 9.375v11.25l7.5-5.625z" fill="#ffffff" />
</g>
<g transform="translate(644 0)">
	<path d="M15 5.625c-1.609 0-3.164 0.254-4.62 0.754-1.369 0.47-2.587 1.135-3.622 1.976-1.94 1.576-3.008 3.603-3.008 5.707 0 1.181 0.328 2.326 0.974 3.403 0.667 1.111 1.669 2.127 2.9 2.937 0.889 0.586 1.488 1.522 1.646 2.575 0.053 0.351 0.086 0.706 0.099 1.058 0.219-0.181 0.432-0.376 0.641-0.585 0.708-0.708 1.663-1.098 2.651-1.098 0.157 0 0.315 0.010 0.473 0.030 0.614 0.078 1.242 0.118 1.866 0.118 1.609 0 3.164-0.254 4.62-0.754 1.369-0.47 2.587-1.135 3.622-1.976 1.94-1.576 3.008-3.603 3.008-5.707 0-2.104-1.068-4.131-3.008-5.707-1.035-0.841-2.253-1.506-3.622-1.976-1.456-0.5-3.011-0.754-4.62-0.754zM15 1.875v0c8.284 0 15 5.457 15 12.188 0 6.731-6.716 12.188-15 12.188-0.796 0-1.576-0.051-2.339-0.148-3.222 3.222-7.068 3.8-10.786 3.885v-0.789c2.008-0.984 3.75-2.776 3.75-4.823 0-0.286-0.022-0.566-0.063-0.841-3.392-2.234-5.562-5.647-5.562-9.472 0-6.731 6.716-12.188 15-12.188z" fill="#ffffff" />
</g>
<g transform="translate(690 0)">
	<path d="M0 0h7.5v7.5h-7.5zM11.25 1.875h18.75v3.75h-18.75zM0 11.25h7.5v7.5h-7.5zM11.25 13.125h18.75v3.75h-18.75zM0 22.5h7.5v7.5h-7.5zM11.25 24.375h18.75v3.75h-18.75z" fill="#ffffff" />
</g>
<g transform="translate(0 46)">
	<path d="M30 8.276l-2.652-2.651-5.237 5.237-2.974-2.974 5.237-5.237-2.651-2.651-5.237 5.237-3.362-3.362-2.538 2.538 15 15 2.538-2.538-3.362-3.362zM8.049 21.951c4.856 4.856 11.285 1.065 15.214-2.211l-13.003-13.003c-3.276 3.929-7.067 10.357-2.211 15.214zM5.625 20.625l3.75 3.75-5.625 5.625-3.75-3.75z" fill="#ffffff" />
</g>
<g transform="translate(46 46)">
	<path d="M1.875 5.625h26.25v5.625h-26.25zM1.875 13.125h26.25v5.625h-26.25zM1.875 20.625h26.25v5.625h-26.25z" fill="#ffffff" />
</g>
<g transform="translate(92 46)">
	<path d="M0 15c0 8.284 6.716 15 15 15 8.284 0 15-6.716 15-15s-6.716-15-15-15c-8.284 0-15 6.716-15 15zM26.25 15c0 2.146-0.601 4.151-1.643 5.857l-15.464-15.464c1.706-1.042 3.711-1.643 5.857-1.643 6.213 0 11.25 5.037 11.25 11.25zM3.75 15c0-2.146 0.601-4.151 1.643-5.857l15.464 15.464c-1.706 1.042-3.711 1.643-5.857 1.643-6.213 0-11.25-5.037-11.25-11.25z" fill="#ffffff" />
</g>
<g transform="translate(138 46)">
	<path d="M28.125 0l-13.125 3.75-13.125-3.75c0 0-0.132 1.515 0 3.75l13.125 4.104 13.125-4.104c0.132-2.235 0-3.75 0-3.75zM2.115 5.716c0.703 7.345 3.325 19.694 12.885 24.284 9.56-4.59 12.182-16.939 12.885-24.284l-12.885 4.844-12.885-4.844z" fill="#ffffff" />
</g>
<g transform="translate(184 46)">
	<path d="M0 1.875v26.25h30v-26.25h-30zM11.25 18.75v-5.625h7.5v5.625h-7.5zM18.75 20.625v5.625h-7.5v-5.625h7.5zM18.75 5.625v5.625h-7.5v-5.625h7.5zM9.375 5.625v5.625h-7.5v-5.625h7.5zM1.875 13.125h7.5v5.625h-7.5v-5.625zM20.625 13.125h7.5v5.625h-7.5v-5.625zM20.625 11.25v-5.625h7.5v5.625h-7.5zM1.875 20.625h7.5v5.625h-7.5v-5.625zM20.625 26.25v-5.625h7.5v5.625h-7.5z" fill="#ffffff" />
</g>
<g transform="translate(230 46)">
	<path d="M28.016 23.569l-9.266-15.44v-6.254h0.938c0.516 0 0.938-0.422 0.938-0.938s-0.422-0.938-0.938-0.938h-9.375c-0.516 0-0.938 0.422-0.938 0.938s0.422 0.938 0.938 0.938h0.938v6.254l-9.266 15.44c-2.122 3.537-0.484 6.431 3.641 6.431h18.75c4.125 0 5.764-2.894 3.641-6.431zM7.062 18.75l6.063-10.106v-6.769h3.75v6.769l6.063 10.106h-15.877z" fill="#ffffff" />
</g>
</svg>
