<?xml version="1.0" encoding="UTF-8" standalone="no"?>
<!DOCTYPE svg PUBLIC "-//W3C//DTD SVG 20010904//EN" "http://www.w3.org/TR/2001/REC-SVG-20010904/DTD/svg10.dtd">
<svg
   xmlns="http://www.w3.org/2000/svg"
   xmlns:odm="http://product.corel.com/CGS/11/cddns/"
   xml:space="preserve"
   width="572pt"
   height="484pt"
   style="shape-rendering:geometricPrecision; text-rendering:geometricPrecision; image-rendering:optimizeQuality; fill-rule:evenodd"
   viewBox="0 0 8268 11692"
   xmlns:sodipodi="http://sodipodi.sourceforge.net/DTD/sodipodi-0.dtd"
   xmlns:xlink="http://www.w3.org/1999/xlink"
   id="svg770"
   sodipodi:version="0.34"
   sodipodi:docname="D:\Dokumenty\Wikipedie\images\svg\ASL\Sign language_Y.svg"><sodipodi:namedview
   id="base" /><defs
   id="defs771"><style
   type="text/css"
   id="style772"><![CDATA[
    .fil0 {fill:#1F1A17}
   ]]></style></defs><g
   id="Layer 1"
   transform="matrix(1.739207,0,0,1.739394,-2963.702,-6970.726)"><path
   class="fil0"
   d="M178 4397c0,-93 35,-169 104,-230 70,-60 155,-90 257,-90 56,0 111,14 167,42 148,231 393,521 736,868 343,347 551,572 625,673 0,-111 39,-210 118,-298 79,-88 174,-132 285,-132 55,-19 129,-14 222,14 93,28 157,32 195,14 46,-148 145,-257 298,-327 153,-69 313,-104 479,-104 111,65 190,97 236,97 47,0 74,-37 84,-111 37,-120 122,-197 257,-229 134,-32 294,-49 479,-49 204,121 375,297 514,528 139,232 254,422 347,570 -19,74 7,185 76,333 70,148 105,236 105,264 324,-408 611,-748 861,-1021 250,-273 537,-410 861,-410 102,0 206,21 312,63 107,41 169,155 188,340 -9,56 -60,104 -153,146 -93,42 -194,86 -306,132 -101,111 -210,308 -326,590 -116,283 -211,465 -285,549 -148,268 -268,578 -361,930 -194,260 -396,528 -604,806 -208,278 -424,505 -646,680 -28,47 -46,95 -55,146 -10,51 -14,109 -14,174 0,46 4,116 14,208 9,93 14,167 14,222 0,56 -5,102 -14,139 -111,121 -197,209 -257,264 -60,56 -234,190 -521,403 -46,19 -116,35 -208,49 -93,14 -190,20 -292,20 -213,0 -421,-27 -625,-83 -204,-55 -417,-139 -639,-250 -37,-102 -69,-234 -97,-396 -28,-162 -51,-321 -70,-479 -240,-278 -435,-643 -583,-1097 -185,-676 -370,-1352 -556,-2028 -361,-398 -655,-734 -882,-1007 -226,-273 -340,-581 -340,-923zm125 -112c-18,93 -28,162 -28,209 0,148 37,284 112,409 74,125 180,253 319,382 65,10 132,-13 201,-69 70,-56 137,-111 202,-167 -19,65 -49,114 -91,146 -41,33 -113,81 -215,146 37,167 130,296 278,389 18,-65 81,-155 187,-271 107,-116 160,-211 160,-285 -46,-55 -90,-104 -132,-146 -41,-41 -81,-62 -118,-62 -28,0 -55,23 -83,69l55 -166c-27,-28 -106,-151 -236,-368 -129,-218 -250,-327 -361,-327 -83,0 -166,37 -250,111zm4278 334c-148,28 -275,58 -382,90 -106,32 -164,109 -174,229l56 1264c74,28 174,30 299,7 125,-23 196,-35 215,-35 -130,102 -292,153 -486,153 9,56 34,137 76,243 42,107 67,174 77,202l208 -70c92,-28 171,2 236,90 65,88 116,160 153,216 74,-232 116,-577 125,-1035 9,-458 23,-766 41,-924 56,37 88,107 98,209 9,102 18,199 27,291l125 -208c-64,-148 -155,-282 -270,-403 -116,-120 -257,-227 -424,-319zm-944 291c-167,28 -297,61 -389,98 -93,37 -176,111 -250,222 74,574 150,1000 229,1278 79,277 243,532 493,764 0,-37 23,-70 69,-98 47,-27 79,-46 98,-55 83,-37 152,-44 208,-21 55,23 134,67 236,132l-250 -528c-83,56 -160,97 -229,125 -70,28 -151,42 -243,42 -19,9 -37,2 -56,-21 -18,-23 -28,-39 -28,-49 37,-18 123,-41 257,-69 135,-28 225,-65 271,-111 -55,-130 -95,-266 -118,-410 -23,-143 -35,-312 -35,-507 0,-102 0,-204 0,-305 0,-102 5,-204 14,-306 -46,-120 -139,-181 -277,-181zm4125 28c-47,-9 -116,-14 -209,-14 -250,0 -472,72 -666,216 -195,143 -371,331 -528,562 -9,56 34,132 132,229 97,98 127,174 90,229 -74,0 -144,-46 -208,-138 -65,-93 -111,-149 -139,-167 -56,46 -114,104 -174,174 -60,69 -160,210 -298,423 46,139 97,278 152,417 56,139 135,250 236,333 -111,-46 -201,-127 -270,-243 -70,-116 -142,-266 -216,-451 -74,46 -111,115 -111,208 0,93 0,185 0,278 -9,-56 -32,-88 -69,-97 0,64 9,132 28,201 18,69 41,150 69,243 -111,-185 -167,-389 -167,-611l-389 208c-9,65 -39,125 -90,181 -51,55 -95,102 -132,139 -129,-28 -259,18 -389,139 -129,120 -240,185 -333,194 -120,46 -211,130 -271,250 -60,120 -113,273 -160,458 74,167 132,292 174,375 42,84 109,186 201,306 158,28 320,42 487,42 213,0 402,-14 569,-42 194,-74 400,-243 618,-507 218,-264 456,-558 715,-882 93,-306 167,-532 223,-681 55,-148 138,-310 250,-486l-125 -55c9,-28 27,-42 55,-42 28,0 56,0 83,0l-83 -83c102,0 171,-14 208,-42 75,-222 183,-433 327,-632 143,-199 317,-354 521,-465l-14 -70 -97 -97zm-6181 375c-19,-28 -46,-41 -83,-41 -37,0 -61,18 -70,55 19,46 7,97 -35,153 -41,55 -71,92 -90,111l-28 -28c37,-37 51,-65 42,-83 -18,18 -55,69 -111,153l97 -14c-102,65 -153,129 -153,194 0,56 37,118 112,188 74,69 162,146 263,229 28,-19 91,-88 188,-208 97,-121 178,-195 243,-223l-375 -486zm722 84c-65,37 -109,90 -132,159 -23,70 -34,155 -34,257 120,454 238,824 354,1111 115,287 340,473 673,556 -9,-83 10,-153 56,-208 46,-56 111,-107 194,-153 -46,-121 -92,-181 -139,-181 0,37 -23,67 -69,91 -46,23 -69,43 -69,62 -75,28 -149,42 -223,42 -83,0 -148,-19 -194,-56 83,0 155,-9 215,-28 60,-18 174,-74 340,-166 -64,-158 -127,-345 -187,-563 -60,-217 -127,-525 -201,-923 -102,-56 -204,-84 -306,-84 -102,0 -194,28 -278,84zm2986 83l-14 83c10,-18 14,-37 14,-55l0 -28zm84 111c-74,83 -146,171 -216,264 -69,92 -85,190 -48,292 65,-10 134,-51 208,-125 74,-75 125,-116 153,-125 18,92 -49,185 -202,277 -152,93 -206,195 -159,306 111,18 190,28 236,28 120,0 208,-37 264,-111 9,-121 -26,-276 -104,-466 -79,-190 -123,-303 -132,-340zm-3306 333c-74,37 -155,88 -243,153 -88,65 -169,125 -243,181 -28,102 -30,192 -7,271 23,78 67,192 132,340 65,9 162,-9 292,-56 129,-46 231,-55 305,-28 -102,-157 -199,-314 -291,-472 83,102 152,172 208,209 0,-75 -33,-162 -97,-264 -65,-102 -102,-167 -111,-195l83 28 -28 -167zm3181 695l-111 -56 -42 56 153 0zm-834 194l84 -14 -84 14zm-111 111l97 223c195,18 315,-24 362,-125 0,-112 -47,-167 -139,-167 -47,0 -100,9 -160,28 -60,18 -113,32 -160,41zm-2278 -55c-129,37 -215,72 -257,104 -41,32 -48,86 -20,160 176,574 351,1148 527,1722 93,185 181,322 264,410 84,88 195,132 334,132 55,0 97,-5 125,-14 101,0 226,-44 375,-132 148,-88 254,-132 319,-132 -28,46 -49,83 -62,111 -14,28 -12,60 7,97 83,-83 125,-171 125,-264 0,-92 -28,-183 -84,-271 -55,-88 -106,-173 -153,-257 19,-166 42,-333 70,-500 0,-27 30,-92 90,-194 60,-102 90,-171 90,-208 0,-56 -37,-98 -111,-125 -37,64 -106,102 -208,111 -102,9 -176,23 -222,41 -398,-138 -685,-384 -861,-736l-348 -55zm1945 333l-83 -28 83 28zm97 0c-9,19 -67,44 -174,77 -106,32 -127,94 -62,187 93,28 169,28 229,0 60,-28 132,-69 215,-125 -37,-46 -69,-86 -97,-118 -28,-32 -65,-39 -111,-21zm-597 83c-19,19 -65,40 -139,63 -74,23 -93,72 -56,146l112 0c46,-28 85,-53 118,-77 32,-23 44,-57 34,-104l-69 -28zm472 1862l-28 55c19,83 35,280 49,590 14,311 72,540 174,688 138,9 266,-19 381,-83 116,-65 216,-162 299,-292 -28,-46 -46,-102 -55,-167 -10,-65 -14,-134 -14,-208l0 -236c0,-37 0,-79 0,-125 -19,-37 -28,-60 -28,-70l-361 70c-148,-19 -232,-65 -250,-139 28,-19 62,-16 104,7 42,23 72,30 90,21 93,0 174,-3 243,-7 70,-5 128,-26 174,-63 -241,0 -500,-14 -778,-41zm-139 0c-28,111 -41,222 -41,333 0,130 16,317 48,562 33,246 49,401 49,466l166 0c-64,-148 -113,-387 -145,-716 -33,-328 -58,-544 -77,-645zm1250 55l14 -55 -14 55zm-166 -28c9,19 -19,61 -84,125l0 306c0,213 33,356 97,430 28,-101 42,-199 42,-291 -9,-176 -14,-315 -14,-417l0 -139 -41 -14zm-1362 125c-148,74 -273,132 -375,174 -101,42 -208,62 -319,62 120,0 206,-4 257,-13 51,-10 197,-51 437,-125l0 -98zm1528 28l0 292c0,111 9,190 28,236l-28 -528zm-1389 70c-18,129 -27,231 -27,305 0,241 37,463 111,667 9,-47 14,-121 14,-222 0,-112 -5,-232 -14,-362 -10,-129 -19,-259 -28,-388l-56 0zm-97 69c-120,46 -261,90 -424,132 -162,42 -307,67 -437,76l125 584 833 222 -97 -1014z"
   id="path774" /></g></svg>
